<svg width="291" height="146" viewBox="0 0 291 146" fill="none" xmlns="http://www.w3.org/2000/svg">
<rect x="0.5" y="4.5" width="107" height="141" rx="5.5" fill="white" stroke="#32A7D3"/>
<rect x="183.5" y="4.5" width="107" height="141" rx="5.5" fill="white" stroke="#7471F9"/>
<path d="M6 0.5H102C105.038 0.5 107.5 2.96243 107.5 6V27.5H0.5V6C0.5 2.96243 2.96243 0.5 6 0.5Z" fill="#32A7D3" stroke="#3DB8E6"/>
<path d="M183 6C183 2.68629 185.686 0 189 0H285C288.314 0 291 2.68629 291 6V28H183V6Z" fill="#7471F9"/>
<path d="M128.22 83.5L118.845 91.7272L118.845 75.2728L128.22 83.5Z" fill="#71CCF9"/>
<rect x="120.214" y="80.1069" width="6.78572" height="12.2143" transform="rotate(90 120.214 80.1069)" fill="#71CCF9"/>
<path d="M164 83.5L173.374 91.7272L173.374 75.2728L164 83.5Z" fill="#7471F9"/>
<rect width="6.78572" height="12.2143" transform="matrix(4.37114e-08 1 1 -4.37114e-08 172.006 80.1069)" fill="#7471F9"/>
<path d="M31.9786 8.86188V16.6305H30.5331V13.2659H29.3246V16.2099H27.9033V9.09876H29.3246V12.0235H30.5331V8.86188H31.9786ZM21.3432 11.3902V10.201H23.6782V8.9634H25.1865V10.201H27.4972V11.3902H21.3432ZM21.7735 14.0297C21.7686 12.739 22.8854 11.8881 24.4323 11.8881C26.0035 11.8881 27.1153 12.739 27.1202 14.0297C27.1153 15.3059 26.0035 16.1568 24.4323 16.1568C22.8854 16.1568 21.7686 15.3059 21.7735 14.0297ZM23.1319 14.0297C23.1319 14.663 23.6588 15.0642 24.4323 15.0642C25.2106 15.0642 25.7424 14.663 25.7424 14.0297C25.7424 13.3867 25.2106 12.9903 24.4323 12.9903C23.6588 12.9903 23.1319 13.3867 23.1319 14.0297ZM23.5767 18.9945C23.567 17.578 25.1671 16.7756 27.8066 16.7756C30.4461 16.7756 32.0366 17.578 32.0414 18.9945C32.0366 20.4012 30.4461 21.2037 27.8066 21.1989C25.1671 21.2037 23.567 20.4012 23.5767 18.9945ZM25.0898 18.9945C25.0849 19.6809 26.047 20.0483 27.8066 20.0387C29.5615 20.0483 30.509 19.6809 30.5186 18.9945C30.509 18.279 29.5615 17.9213 27.8066 17.9309C26.047 17.9213 25.0849 18.279 25.0898 18.9945ZM43.8607 8.86188V16.2051H42.3427V13.1837H40.2301V11.9413H42.3427V8.86188H43.8607ZM33.4718 14.9627C35.4587 14.2859 36.5029 12.6229 36.5029 10.9841V10.8923H33.9263V9.66436H40.6072V10.8923H38.0499V10.9696C38.0499 12.4827 39.0457 14.0007 40.9553 14.6388L40.1963 15.8425C38.8234 15.3785 37.8468 14.4358 37.3054 13.2707C36.764 14.5856 35.7343 15.6492 34.2647 16.1664L33.4718 14.9627ZM35.4732 18.864C35.4684 17.3798 37.0685 16.5145 39.679 16.5097C42.2944 16.5145 43.8945 17.3798 43.8945 18.864C43.8945 20.3481 42.2944 21.2134 39.679 21.2182C37.0685 21.2134 35.4684 20.3481 35.4732 18.864ZM36.9863 18.864C36.9767 19.6326 37.958 20.0483 39.679 20.0387C41.4049 20.0483 42.3814 19.6326 42.3862 18.864C42.3814 18.0905 41.4049 17.6796 39.679 17.6796C37.958 17.6796 36.9767 18.0905 36.9863 18.864ZM50.0673 9.63536L46.8767 21.489H45.3539L48.5445 9.63536H50.0673ZM57.9226 9.59185V10.8101H55.3218C55.3363 12.2555 56.3998 13.6526 58.348 14.2037L57.589 15.3881C56.1581 14.9675 55.1236 14.0732 54.5628 12.9275C54.0069 14.1602 52.9482 15.1367 51.4785 15.6008L50.7051 14.4068C52.6871 13.8218 53.7603 12.3425 53.7796 10.8101H51.1208V9.59185H57.9226ZM52.7499 21.0635V16.0988H54.2437V17.3702H59.4019V16.0988H60.915V21.0635H52.7499ZM54.2437 19.8356H59.4019V18.5546H54.2437V19.8356ZM59.3922 15.5573V8.86188H60.915V15.5573H59.3922ZM73.295 8.86188V16.6305H71.8496V13.2659H70.641V16.2099H69.2197V9.09876H70.641V12.0235H71.8496V8.86188H73.295ZM62.6596 11.3902V10.201H64.9946V8.9634H66.5029V10.201H68.8136V11.3902H62.6596ZM63.0899 14.0297C63.0851 12.739 64.2018 11.8881 65.7487 11.8881C67.3199 11.8881 68.4317 12.739 68.4366 14.0297C68.4317 15.3059 67.3199 16.1568 65.7487 16.1568C64.2018 16.1568 63.0851 15.3059 63.0899 14.0297ZM64.4483 14.0297C64.4483 14.663 64.9752 15.0642 65.7487 15.0642C66.527 15.0642 67.0588 14.663 67.0588 14.0297C67.0588 13.3867 66.527 12.9903 65.7487 12.9903C64.9752 12.9903 64.4483 13.3867 64.4483 14.0297ZM64.8931 18.9945C64.8834 17.578 66.4835 16.7756 69.123 16.7756C71.7625 16.7756 73.353 17.578 73.3578 18.9945C73.353 20.4012 71.7625 21.2037 69.123 21.1989C66.4835 21.2037 64.8834 20.4012 64.8931 18.9945ZM66.4062 18.9945C66.4014 19.6809 67.3634 20.0483 69.123 20.0387C70.8779 20.0483 71.8254 19.6809 71.8351 18.9945C71.8254 18.279 70.8779 17.9213 69.123 17.9309C67.3634 17.9213 66.4014 18.279 66.4062 18.9945ZM85.2786 8.87155V18.1823H83.7268V16.6934H81.213V15.4896H83.7268V8.87155H85.2786ZM74.7447 13.6188C76.253 13.6043 78.1191 13.5898 79.9754 13.4738C80.1591 12.3232 80.2123 11.4095 80.2316 10.7376H75.8615V9.52417H81.7544V9.99793C81.7544 10.6409 81.7544 11.7866 81.503 13.3529C81.9333 13.3142 82.3539 13.2659 82.7696 13.2079L82.8711 14.2907C81.8124 14.4744 80.7102 14.6001 79.6273 14.6775V17.3895H78.1191V14.7645C76.9733 14.8177 75.8905 14.8273 74.9381 14.8273L74.7447 13.6188ZM76.5044 20.9765V17.1961H78.0272V19.7438H85.5638V20.9765H76.5044Z" fill="white"/>
<path d="M33.8729 47.0283C33.8681 49.2714 35.125 51.5048 36.9959 52.346L36.2127 53.3902C34.8156 52.6892 33.7617 51.3066 33.2251 49.6291C32.6837 51.3936 31.6153 52.8826 30.2086 53.6126L29.3867 52.5684C31.2818 51.6595 32.5483 49.2956 32.558 47.0283V44.9302H33.8729V47.0283ZM35.6519 49.0345V47.9807H38.3833V43.9102H39.6692V56.1844H38.3833V49.0345H35.6519ZM47.1279 44.0456C49.8883 44.0456 51.4981 44.7997 51.4981 46.1581C51.4981 47.5262 49.8883 48.2707 47.1279 48.2804C44.3676 48.2707 42.7481 47.5262 42.7481 46.1581C42.7481 44.7997 44.3676 44.0456 47.1279 44.0456ZM41.554 50.0304V49.0007H52.7212V50.0304H47.7709V51.0746H51.3047V53.9413H44.179V55.0387H51.6576V56.0442H42.9076V53.0083H50.0285V52.0463H42.8834V51.0746H46.4705V50.0304H41.554ZM44.1065 46.1581C44.0968 46.9123 45.1797 47.299 47.1279 47.3039C49.0906 47.299 50.1687 46.9123 50.1687 46.1581C50.1687 45.4378 49.0906 45.0269 47.1279 45.0221C45.1797 45.0269 44.0968 45.4378 44.1065 46.1581ZM58.1495 47.0283C58.1398 49.2666 59.4886 51.5193 61.3884 52.3557L60.6053 53.3902C59.1985 52.7182 58.0866 51.3405 57.5114 49.663C56.9458 51.4565 55.8194 52.9406 54.3546 53.6512L53.5521 52.5684C55.481 51.7079 56.8346 49.3681 56.8442 47.0283V44.9302H58.1495V47.0283ZM62.4955 56.1844V43.9102H63.8007V56.1844H62.4955ZM70.0267 46.1727C70.0267 47.7244 71.1096 49.1457 72.9708 49.7403L72.352 50.7555C70.9549 50.3059 69.9397 49.3826 69.4031 48.2175C68.8713 49.5566 67.7933 50.6202 66.3189 51.1326L65.6566 50.0981C67.5661 49.4648 68.7215 47.8791 68.7311 46.1823V45.8439H66.0336V44.7901H72.6711V45.8439H70.0267V46.1727ZM67.3099 53.8398C67.3099 52.3992 68.8713 51.5628 71.419 51.5628C73.9473 51.5628 75.4894 52.3992 75.4894 53.8398C75.4894 55.2949 73.9473 56.1409 71.419 56.1409C68.8713 56.1409 67.3099 55.2949 67.3099 53.8398ZM68.6103 53.8398C68.6006 54.6568 69.6497 55.116 71.419 55.116C73.1835 55.116 74.218 54.6568 74.218 53.8398C74.218 53.0373 73.1835 52.5877 71.419 52.5925C69.6497 52.5877 68.6006 53.0373 68.6103 53.8398ZM74.0778 51.2631V43.9102H75.3782V46.9413H77.1524V48.0145H75.3782V51.2631H74.0778Z" fill="black"/>
<path d="M46.2003 115.684V116.762C46.1954 117.917 46.1954 119.179 45.8619 120.929H47.6215V121.988H42.6519V127.18H41.3515V121.988H36.4544V120.929H44.5421C44.9095 119.184 44.9095 117.903 44.9095 116.762V116.738H37.8128V115.684H46.2003ZM52.8468 117.526C52.8468 118.966 54.0264 120.31 55.8973 120.832L55.2785 121.843C53.8572 121.441 52.7888 120.561 52.2281 119.435C51.6963 120.697 50.6279 121.698 49.168 122.162L48.5492 121.156C50.4104 120.561 51.5561 119.102 51.5561 117.526V117.366H48.8924V116.331H51.5561V114.857H52.8662V116.331H55.5057V117.366H52.8468V117.526ZM50.5216 124.869C50.5119 123.428 52.0879 122.611 54.6597 122.611C57.2218 122.611 58.7978 123.428 58.8026 124.869C58.7978 126.309 57.2218 127.141 54.6597 127.141C52.0879 127.141 50.5119 126.309 50.5216 124.869ZM51.8075 124.869C51.7978 125.662 52.8662 126.131 54.6597 126.131C56.4629 126.131 57.5119 125.662 57.5167 124.869C57.5119 124.071 56.4629 123.622 54.6597 123.617C52.8662 123.622 51.7978 124.071 51.8075 124.869ZM55.1286 119.401V118.343H57.4684V114.91H58.764V122.331H57.4684V119.401H55.1286ZM64.9271 117.173C64.9271 118.724 66.01 120.146 67.8712 120.74L67.2524 121.756C65.8553 121.306 64.8401 120.383 64.3035 119.218C63.7717 120.557 62.6937 121.62 61.2192 122.133L60.557 121.098C62.4665 120.465 63.6219 118.879 63.6315 117.182V116.844H60.934V115.79H67.5715V116.844H64.9271V117.173ZM62.2103 124.84C62.2103 123.399 63.7717 122.563 66.3194 122.563C68.8477 122.563 70.3898 123.399 70.3898 124.84C70.3898 126.295 68.8477 127.141 66.3194 127.141C63.7717 127.141 62.2103 126.295 62.2103 124.84ZM63.5107 124.84C63.501 125.657 64.55 126.116 66.3194 126.116C68.0839 126.116 69.1184 125.657 69.1184 124.84C69.1184 124.037 68.0839 123.588 66.3194 123.593C64.55 123.588 63.501 124.037 63.5107 124.84ZM68.9782 122.263V114.91H70.2786V117.941H72.0528V119.015H70.2786V122.263H68.9782Z" fill="black"/>
<path d="M216.512 44.2365V45.0849C216.512 45.9289 216.512 46.9299 216.247 48.2497H217.832V49.2282H213.204V51.1675H216.561V55.0773H215.349V52.1371H208.486V51.1675H212.005V49.2282H207.422V48.2497H215.035C215.3 46.9748 215.314 46.0276 215.314 45.2106H208.724V44.2365H216.512ZM228.062 43.7023V55.0773H226.859V43.7023H228.062ZM218.716 51.9845C219.654 51.98 220.722 51.971 221.835 51.9396V50.7994C220.511 50.6243 219.649 49.8387 219.658 48.73C219.649 47.4461 220.767 46.6022 222.419 46.6022C224.08 46.6022 225.211 47.4461 225.211 48.73C225.211 49.8298 224.354 50.6108 223.039 50.7949V51.8947C224.089 51.8453 225.153 51.7645 226.154 51.6343L226.244 52.5411C223.721 52.9586 220.969 52.99 218.886 52.99L218.716 51.9845ZM218.954 46.0231V45.058H221.835V43.7248H223.043V45.058H225.898V46.0231H218.954ZM220.794 48.73C220.785 49.4527 221.463 49.9016 222.419 49.8971C223.393 49.9016 224.062 49.4527 224.062 48.73C224.062 48.0028 223.393 47.5359 222.419 47.5359C221.463 47.5359 220.785 48.0028 220.794 48.73ZM233.596 44.5104C235.396 44.5104 236.684 45.6236 236.693 47.2217C236.684 48.8242 235.396 49.933 233.596 49.933C231.805 49.933 230.49 48.8242 230.499 47.2217C230.49 45.6236 231.805 44.5104 233.596 44.5104ZM229.951 51.6478C232.025 51.6523 234.893 51.6298 237.38 51.2707L237.475 52.1506C234.898 52.6398 232.133 52.6533 230.099 52.6533L229.951 51.6478ZM231.688 47.2217C231.679 48.2272 232.492 48.8871 233.596 48.8871C234.7 48.8871 235.513 48.2272 235.517 47.2217C235.513 46.2206 234.7 45.5563 233.596 45.5563C232.492 45.5563 231.679 46.2206 231.688 47.2217ZM238.094 55.0998V43.7023H239.297V55.0998H238.094ZM250.591 43.7113V52.3391H249.379V51.2483H247.089V50.3954H249.379V43.7113H250.591ZM241.07 48.905C243.175 48.8916 246.012 48.8691 248.436 48.5639L248.517 49.4347C247.538 49.5963 246.519 49.6996 245.514 49.7624V51.9845H244.311V49.8298C243.206 49.8702 242.147 49.8791 241.222 49.8747L241.07 48.905ZM241.958 46.1488C241.958 44.9503 243.108 44.1468 244.795 44.1468C246.456 44.1468 247.61 44.9503 247.619 46.1488C247.61 47.3653 246.456 48.1329 244.795 48.1329C243.108 48.1329 241.958 47.3653 241.958 46.1488ZM242.645 54.8439V51.4952H243.848V53.8564H250.86V54.8439H242.645ZM243.103 46.1488C243.099 46.8267 243.785 47.2486 244.795 47.2486C245.765 47.2486 246.461 46.8267 246.47 46.1488C246.461 45.4755 245.765 45.0401 244.795 45.0445C243.785 45.0401 243.099 45.4755 243.103 46.1488ZM264.475 43.7023V46.3284H266.122V47.3249H264.475V49.8612H263.254V43.7023H264.475ZM255.537 49.0262C258.293 48.3888 259.833 47.0287 260.022 45.3408H256.062V44.3712H261.35C261.35 47.2711 259.375 49.1968 255.982 50.0048L255.537 49.0262ZM257.162 54.9337V50.3595H258.37V51.6837H263.267V50.3595H264.475V54.9337H257.162ZM258.37 53.9506H263.267V52.6354H258.37V53.9506Z" fill="black"/>
<path d="M216.512 115.237V116.085C216.512 116.929 216.512 117.93 216.247 119.25H217.832V120.228H213.204V122.167H216.561V126.077H215.349V123.137H208.486V122.167H212.005V120.228H207.422V119.25H215.035C215.3 117.975 215.314 117.028 215.314 116.211H208.724V115.237H216.512ZM228.062 114.702V126.077H226.859V114.702H228.062ZM218.716 122.984C219.654 122.98 220.722 122.971 221.835 122.94V121.799C220.511 121.624 219.649 120.839 219.658 119.73C219.649 118.446 220.767 117.602 222.419 117.602C224.08 117.602 225.211 118.446 225.211 119.73C225.211 120.83 224.354 121.611 223.039 121.795V122.895C224.089 122.845 225.153 122.765 226.154 122.634L226.244 123.541C223.721 123.959 220.969 123.99 218.886 123.99L218.716 122.984ZM218.954 117.023V116.058H221.835V114.725H223.043V116.058H225.898V117.023H218.954ZM220.794 119.73C220.785 120.453 221.463 120.902 222.419 120.897C223.393 120.902 224.062 120.453 224.062 119.73C224.062 119.003 223.393 118.536 222.419 118.536C221.463 118.536 220.785 119.003 220.794 119.73ZM233.596 115.51C235.396 115.51 236.684 116.624 236.693 118.222C236.684 119.824 235.396 120.933 233.596 120.933C231.805 120.933 230.49 119.824 230.499 118.222C230.49 116.624 231.805 115.51 233.596 115.51ZM229.951 122.648C232.025 122.652 234.893 122.63 237.38 122.271L237.475 123.151C234.898 123.64 232.133 123.653 230.099 123.653L229.951 122.648ZM231.688 118.222C231.679 119.227 232.492 119.887 233.596 119.887C234.7 119.887 235.513 119.227 235.517 118.222C235.513 117.221 234.7 116.556 233.596 116.556C232.492 116.556 231.679 117.221 231.688 118.222ZM238.094 126.1V114.702H239.297V126.1H238.094ZM250.591 114.711V123.339H249.379V122.248H247.089V121.395H249.379V114.711H250.591ZM241.07 119.905C243.175 119.892 246.012 119.869 248.436 119.564L248.517 120.435C247.538 120.596 246.519 120.7 245.514 120.762V122.984H244.311V120.83C243.206 120.87 242.147 120.879 241.222 120.875L241.07 119.905ZM241.958 117.149C241.958 115.95 243.108 115.147 244.795 115.147C246.456 115.147 247.61 115.95 247.619 117.149C247.61 118.365 246.456 119.133 244.795 119.133C243.108 119.133 241.958 118.365 241.958 117.149ZM242.645 125.844V122.495H243.848V124.856H250.86V125.844H242.645ZM243.103 117.149C243.099 117.827 243.785 118.249 244.795 118.249C245.765 118.249 246.461 117.827 246.47 117.149C246.461 116.475 245.765 116.04 244.795 116.045C243.785 116.04 243.099 116.475 243.103 117.149ZM260.713 114.891C263.276 114.891 264.771 115.582 264.771 116.844C264.771 118.123 263.276 118.814 260.713 118.823C258.15 118.814 256.646 118.123 256.646 116.844C256.646 115.582 258.15 114.891 260.713 114.891ZM255.537 120.48V119.515H265.907V120.48H255.537ZM256.772 122.257V121.355H264.591V124.017H257.975V125.036H264.919V125.97H256.794V123.151H263.406V122.257H256.772ZM257.907 116.844C257.898 117.553 258.904 117.916 260.713 117.916C262.535 117.916 263.537 117.553 263.537 116.844C263.537 116.179 262.535 115.784 260.713 115.789C258.904 115.784 257.898 116.179 257.907 116.844Z" fill="black"/>
<path d="M138.081 80.8301C138.071 83.0925 139.265 85.3646 141.271 86.2251L140.367 87.4434C138.951 86.7859 137.907 85.4758 137.331 83.8612C136.771 85.6015 135.707 87.0276 134.209 87.7286L133.28 86.462C135.33 85.5725 136.534 83.2086 136.544 80.8301V78.8529H138.081V80.8301ZM142.161 90.2376V77.8619H143.693V90.2376H142.161ZM152.095 78.8819V84.7604H146.144V78.8819H152.095ZM147.623 89.8847V85.8577H149.156V88.6568H156.146V89.8847H147.623ZM147.638 83.5518H150.591V80.1001H147.638V83.5518ZM154.275 86.6892V77.8715H155.798V86.6892H154.275Z" fill="black"/>
<path d="M214.698 8.86188V15.4945H213.175V8.86188H214.698ZM204.633 12.3039C204.628 10.5877 206.055 9.39848 207.964 9.40331C209.869 9.39848 211.29 10.5877 211.29 12.3039C211.29 13.9862 209.869 15.1802 207.964 15.1754C206.055 15.1802 204.628 13.9862 204.633 12.3039ZM206.117 12.3039C206.113 13.2949 206.886 13.9233 207.964 13.9233C209.023 13.9233 209.796 13.2949 209.796 12.3039C209.796 11.3128 209.023 10.6699 207.964 10.6747C206.886 10.6699 206.113 11.3128 206.117 12.3039ZM206.533 21.0635V16.0649H208.027V17.3267H213.185V16.0649H214.698V21.0635H206.533ZM208.027 19.8308H213.185V18.5159H208.027V19.8308ZM218.594 9.49517V11.1823H221.354V9.49517H222.858V11.7528H225.343V8.86188H226.861V15.6153H225.343V13.0097H222.858V15.2286H217.066V9.49517H218.594ZM218.594 14.0055H221.354V12.3619H218.594V14.0055ZM218.715 21.0442V16.1568H220.228V17.4185H225.343V16.1568H226.856V21.0442H218.715ZM220.228 19.8163H225.343V18.5981H220.228V19.8163ZM233.067 9.63536L229.877 21.489H228.354L231.545 9.63536H233.067ZM243.915 8.86188V15.4945H242.392V8.86188H243.915ZM233.85 12.3039C233.845 10.5877 235.271 9.39848 237.181 9.40331C239.086 9.39848 240.507 10.5877 240.507 12.3039C240.507 13.9862 239.086 15.1802 237.181 15.1754C235.271 15.1802 233.845 13.9862 233.85 12.3039ZM235.334 12.3039C235.329 13.2949 236.103 13.9233 237.181 13.9233C238.24 13.9233 239.013 13.2949 239.013 12.3039C239.013 11.3128 238.24 10.6699 237.181 10.6747C236.103 10.6699 235.329 11.3128 235.334 12.3039ZM235.75 21.0635V16.0649H237.244V17.3267H242.402V16.0649H243.915V21.0635H235.75ZM237.244 19.8308H242.402V18.5159H237.244V19.8308ZM247.811 9.49517V11.1823H250.571V9.49517H252.075V11.7528H254.56V8.86188H256.077V15.6153H254.56V13.0097H252.075V15.2286H246.283V9.49517H247.811ZM247.811 14.0055H250.571V12.3619H247.811V14.0055ZM247.932 21.0442V16.1568H249.445V17.4185H254.56V16.1568H256.073V21.0442H247.932ZM249.445 19.8163H254.56V18.5981H249.445V19.8163ZM268.279 8.87155V18.1823H266.727V16.6934H264.213V15.4896H266.727V8.87155H268.279ZM257.745 13.6188C259.253 13.6043 261.119 13.5898 262.975 13.4738C263.159 12.3232 263.212 11.4095 263.232 10.7376H258.861V9.52417H264.754V9.99793C264.754 10.6409 264.754 11.7866 264.503 13.3529C264.933 13.3142 265.354 13.2659 265.77 13.2079L265.871 14.2907C264.812 14.4744 263.71 14.6001 262.627 14.6775V17.3895H261.119V14.7645C259.973 14.8177 258.89 14.8273 257.938 14.8273L257.745 13.6188ZM259.504 20.9765V17.1961H261.027V19.7438H268.564V20.9765H259.504Z" fill="white"/>
<path d="M45.5 67C45.5 66.7239 45.2761 66.5 45 66.5C44.7239 66.5 44.5 66.7239 44.5 67L45 67L45.5 67ZM44.6464 100.576C44.8417 100.771 45.1583 100.771 45.3536 100.576L48.5355 97.3938C48.7308 97.1985 48.7308 96.8819 48.5355 96.6867C48.3403 96.4914 48.0237 96.4914 47.8284 96.6867L45 99.5151L42.1716 96.6867C41.9763 96.4914 41.6597 96.4914 41.4645 96.6867C41.2692 96.8819 41.2692 97.1985 41.4645 97.3938L44.6464 100.576ZM45 67L44.5 67L44.5 100.222L45 100.222L45.5 100.222L45.5 67L45 67Z" fill="black"/>
<path d="M55.3536 66.6464C55.1583 66.4512 54.8417 66.4512 54.6464 66.6464L51.4645 69.8284C51.2692 70.0237 51.2692 70.3403 51.4645 70.5355C51.6597 70.7308 51.9763 70.7308 52.1716 70.5355L55 67.7071L57.8284 70.5355C58.0237 70.7308 58.3403 70.7308 58.5355 70.5355C58.7308 70.3403 58.7308 70.0237 58.5355 69.8284L55.3536 66.6464ZM54.5 100.222C54.5 100.498 54.7239 100.722 55 100.722C55.2761 100.722 55.5 100.498 55.5 100.222L55 100.222L54.5 100.222ZM55 67L54.5 67L54.5 100.222L55 100.222L55.5 100.222L55.5 67L55 67Z" fill="black"/>
<path d="M70.3108 74.5055V75.4006H64.4019V74.5055H66.855V73.3992H67.9613V74.5055H70.3108ZM64.9903 77.7459C64.982 76.6064 65.9682 75.8439 67.3978 75.8439C68.8149 75.8439 69.8177 76.6064 69.826 77.7459C69.8177 78.8812 68.8149 79.6312 67.3978 79.6312C65.9682 79.6312 64.982 78.8812 64.9903 77.7459ZM66.0304 77.7459C66.0221 78.3881 66.5649 78.8066 67.3978 78.8066C68.2182 78.8066 68.7818 78.3881 68.7901 77.7459C68.7818 77.0994 68.2182 76.6892 67.3978 76.6892C66.5649 76.6892 66.0221 77.0994 66.0304 77.7459ZM66.2251 83.8619V80.145H67.3315V81.1354H72.0387V80.145H73.1409V83.8619H66.2251ZM67.3315 82.9834H72.0387V81.9848H67.3315V82.9834ZM70.3315 78.8398V77.9323H72.0304V76.7845H70.3439V75.8771H72.0304V73.4945H73.1409V79.7182H72.0304V78.8398H70.3315ZM79.7578 74.1285V77.1865H76.2979V78.645C78.1252 78.6409 79.1197 78.5994 80.2965 78.3798L80.4042 79.2873C79.1239 79.5028 78.0465 79.5359 75.954 79.5401H75.1957V76.3412H78.6515V75.0152H75.175V74.1285H79.7578ZM76.3808 81.3923V80.4931H83.512V84.0069H82.4015V81.3923H76.3808ZM80.425 78.1188V77.2196H82.4015V75.9227H80.425V75.0318H82.4015V73.5028H83.512V79.9586H82.4015V78.1188H80.425ZM70.232 88.2901V88.8826C70.2238 89.5829 70.2238 90.6271 69.9669 91.9779L68.8646 91.8826C69.0925 90.7141 69.1298 89.8688 69.1381 89.2099H64.9365V88.2901H70.232ZM64.3025 92.8854C64.9489 92.8812 65.6823 92.8771 66.453 92.8605V90.6519H67.5552V92.8232C68.6823 92.7776 69.8384 92.6948 70.895 92.5456L70.9613 93.3577C68.7693 93.7431 66.2624 93.7845 64.4061 93.7887L64.3025 92.8854ZM65.8978 97.779V94.6713H67.0083V96.8674H73.029V97.779H65.8978ZM71.5622 95.384V87.4945H72.6934V90.8384H74.1395V91.779H72.6934V95.384H71.5622ZM83.7855 87.4945V97.9945H82.7288V87.4945H83.7855ZM74.6984 94.9613C76.9277 93.6395 77.9968 91.8702 78.1874 89.7155H75.2164V88.7997H79.2937C79.2937 89.3343 79.2523 89.8605 79.1694 90.366H80.5783V87.7638H81.639V97.4848H80.5783V93.9047H78.7841V92.9931H80.5783V91.2776H78.9623C78.4567 93.0428 77.3379 94.576 75.3614 95.7528L74.6984 94.9613Z" fill="#43A9D1"/>
<path d="M249.974 78.6036V79.4945H240.39V78.6036H244.637V77.4889H241.583V73.9793H248.793V74.8577H242.685V76.5981H248.855V77.4889H245.722V78.6036H249.974ZM241.521 82.0884C241.521 80.8702 242.888 80.1823 245.163 80.1823C247.425 80.1823 248.785 80.8702 248.793 82.0884C248.785 83.3025 247.425 83.9862 245.163 83.9945C242.888 83.9862 241.521 83.3025 241.521 82.0884ZM242.652 82.0884C242.644 82.7597 243.559 83.1285 245.163 83.1202C246.75 83.1285 247.674 82.7597 247.682 82.0884C247.674 81.4213 246.75 81.0401 245.163 81.0401C243.559 81.0401 242.644 81.4213 242.652 82.0884ZM260.345 78.4254V79.3453H250.761V78.4254H260.345ZM251.892 82.0718C251.892 80.8536 253.259 80.1657 255.534 80.1657C257.797 80.1657 259.156 80.8536 259.164 82.0718C259.156 83.2942 257.797 83.9779 255.534 83.9779C253.259 83.9779 251.892 83.2942 251.892 82.0718ZM251.954 77.5138V73.8715H259.164V74.779H253.056V76.6146H259.226V77.5138H251.954ZM253.023 82.0718C253.015 82.7472 253.93 83.1119 255.534 83.1119C257.121 83.1119 258.045 82.7472 258.053 82.0718C258.045 81.4047 257.121 81.0318 255.534 81.0235C253.93 81.0318 253.015 81.4047 253.023 82.0718ZM246.232 88.2901V88.8826C246.224 89.5829 246.224 90.6271 245.967 91.9779L244.865 91.8826C245.093 90.7141 245.13 89.8688 245.138 89.2099H240.936V88.2901H246.232ZM240.302 92.8854C240.949 92.8812 241.682 92.8771 242.453 92.8605V90.6519H243.555V92.8232C244.682 92.7776 245.838 92.6948 246.895 92.5456L246.961 93.3577C244.769 93.7431 242.262 93.7845 240.406 93.7887L240.302 92.8854ZM241.898 97.779V94.6713H243.008V96.8674H249.029V97.779H241.898ZM247.562 95.384V87.4945H248.693V90.8384H250.14V91.779H248.693V95.384H247.562ZM259.785 87.4945V97.9945H258.729V87.4945H259.785ZM250.698 94.9613C252.928 93.6395 253.997 91.8702 254.187 89.7155H251.216V88.7997H255.294C255.294 89.3343 255.252 89.8605 255.169 90.366H256.578V87.7638H257.639V97.4848H256.578V93.9047H254.784V92.9931H256.578V91.2776H254.962C254.457 93.0428 253.338 94.576 251.361 95.7528L250.698 94.9613Z" fill="#7471F9"/>
<line x1="224.5" y1="67.5" x2="224.5" y2="100.5" stroke="black" stroke-linecap="round"/>
<line x1="231.5" y1="67.5" x2="231.5" y2="100.5" stroke="black" stroke-linecap="round"/>
</svg>
