<svg width="19" height="14" viewBox="0 0 19 14" fill="none" xmlns="http://www.w3.org/2000/svg">
<path d="M0.913574 2.55774C0.913574 2.09138 1.09651 1.64412 1.42215 1.31435C1.74778 0.984579 2.18943 0.799316 2.64995 0.799316H16.5409C17.0014 0.799316 17.4431 0.984579 17.7687 1.31435C18.0944 1.64412 18.2773 2.09138 18.2773 2.55774V11.3499C18.2773 11.8162 18.0944 12.2635 17.7687 12.5933C17.4431 12.923 17.0014 13.1083 16.5409 13.1083H2.64995C2.18943 13.1083 1.74778 12.923 1.42215 12.5933C1.09651 12.2635 0.913574 11.8162 0.913574 11.3499V2.55774Z" stroke="#7471F9" stroke-width="1.3" stroke-linecap="round" stroke-linejoin="round"/>
<path d="M9.59455 9.5912C11.033 9.5912 12.1991 8.41029 12.1991 6.95356C12.1991 5.49683 11.033 4.31592 9.59455 4.31592C8.15609 4.31592 6.98999 5.49683 6.98999 6.95356C6.98999 8.41029 8.15609 9.5912 9.59455 9.5912Z" stroke="#7471F9" stroke-width="1.4" stroke-linecap="round" stroke-linejoin="round"/>
<path d="M0.913574 4.31617C1.8346 4.31617 2.71791 3.94565 3.36918 3.28611C4.02044 2.62657 4.38632 1.73204 4.38632 0.799316M14.8046 13.1083C14.8046 12.1756 15.1704 11.2811 15.8217 10.6215C16.473 9.96198 17.3563 9.59145 18.2773 9.59145" stroke="#7471F9" stroke-width="1.4" stroke-linecap="round" stroke-linejoin="round"/>
</svg>
