<svg width="19" height="19" viewBox="0 0 19 19" fill="none" xmlns="http://www.w3.org/2000/svg">
<path d="M1.18735 5.22078H17.718M3.1085 1H15.631C16.1845 1 16.7153 1.22234 17.1067 1.61812C17.4981 2.01389 17.718 2.55068 17.718 3.11039V15.7622C17.718 16.3219 17.4981 16.8587 17.1067 17.2544C16.7153 17.6502 16.1845 17.8726 15.631 17.8726H3.1085C2.55497 17.8726 2.02412 17.6502 1.63271 17.2544C1.24131 16.8587 1.02142 16.3219 1.02142 15.7622V3.11039C1.02142 2.55068 1.24131 2.01389 1.63271 1.61812C2.02412 1.22234 2.55497 1 3.1085 1Z" stroke="#7471F9" stroke-width="1.3" stroke-linecap="round" stroke-linejoin="round"/>
<path fill-rule="evenodd" clip-rule="evenodd" d="M6.86099 12.1167C6.56997 12.1167 6.33405 11.8807 6.33405 11.5897C6.33405 11.2987 6.56997 11.0628 6.86099 11.0628H7.1744C7.81231 11.0628 8.24586 10.677 8.24586 10.1134C8.24586 9.59865 7.84955 9.20796 7.19255 9.20796C6.76363 9.20796 6.43855 9.34982 6.24499 9.60863C6.03751 9.88606 5.778 10.1808 5.43157 10.1808C5.05568 10.1808 4.74318 9.86099 4.86651 9.50591C5.17468 8.61859 6.03453 8.05835 7.26226 8.05835C8.75485 8.05835 9.5847 8.90224 9.57993 9.90925C9.57524 10.7272 9.08203 11.2709 8.38125 11.4621C8.35679 11.4687 8.33944 11.4908 8.33944 11.5161C8.33944 11.5435 8.35976 11.5668 8.38679 11.5712C9.29539 11.7223 9.8454 12.3276 9.8454 13.2331C9.8454 14.4393 8.73575 15.294 7.21547 15.294C5.98701 15.294 5.0753 14.7385 4.73881 13.8383C4.60274 13.4743 4.92475 13.1413 5.31338 13.1413C5.67063 13.1413 5.94619 13.4508 6.18559 13.7159C6.40292 13.9567 6.75577 14.0955 7.19732 14.0955C7.91067 14.0955 8.41011 13.699 8.41011 13.1032C8.41011 12.4927 7.94314 12.1167 7.18777 12.1167H6.86099ZM13.4365 15.1172C13.0475 15.1172 12.7322 14.8019 12.7322 14.4129V9.69982C12.7322 9.66499 12.704 9.63675 12.6691 9.63675C12.6561 9.63675 12.6434 9.64077 12.6328 9.64827L11.8611 10.1924C11.4984 10.4482 10.998 10.1887 10.998 9.74489C10.998 9.56684 11.0846 9.39991 11.2301 9.29734L12.4608 8.42982C12.6405 8.30314 12.855 8.23514 13.0749 8.23514C13.6636 8.23514 14.1408 8.71234 14.1408 9.30101V14.4129C14.1408 14.8019 13.8255 15.1172 13.4365 15.1172Z" fill="#7471F9"/>
</svg>
