<svg width="19" height="19" viewBox="0 0 19 19" fill="none" xmlns="http://www.w3.org/2000/svg">
<path d="M2.37294 18C1.93035 18 1.56109 17.8546 1.26518 17.5637C0.969262 17.2728 0.820984 16.9098 0.820343 16.4747V7.2475C0.820343 6.81305 0.968621 6.45039 1.26518 6.1595C1.56173 5.86861 1.93067 5.72285 2.37198 5.72222H7.5457V1.94444C7.5457 1.67937 7.63857 1.45585 7.82432 1.27389C8.00943 1.0913 8.23681 1 8.50647 1H10.428C10.6977 1 10.925 1.0913 11.1101 1.27389C11.2959 1.45585 11.3888 1.67937 11.3888 1.94444V5.72222H16.5625C17.0044 5.72222 17.3734 5.86798 17.6693 6.1595C17.9652 6.45102 18.1135 6.814 18.1141 7.24844V16.4747C18.1141 16.9092 17.9658 17.2721 17.6693 17.5637C17.3727 17.8552 17.0038 18.0006 16.5625 18H2.37294ZM2.37294 17.0556H16.5625C16.7348 17.0556 16.8763 17.0011 16.9871 16.8922C17.0979 16.7832 17.1534 16.6441 17.1534 16.4747V7.2475C17.1534 7.07813 17.0979 6.93898 16.9871 6.83006C16.8763 6.72113 16.7348 6.66667 16.5625 6.66667H11.3888V7.39389C11.3888 7.64637 11.293 7.86674 11.1015 8.055C10.91 8.24326 10.6855 8.3377 10.428 8.33833H8.50647C8.24898 8.33833 8.02448 8.24389 7.83297 8.055C7.64146 7.86611 7.5457 7.64574 7.5457 7.39389V6.66667H2.37294C2.2 6.66667 2.05813 6.72113 1.94732 6.83006C1.83651 6.93898 1.78111 7.07844 1.78111 7.24844V16.4747C1.78111 16.6441 1.83651 16.7832 1.94732 16.8922C2.05813 17.0011 2.2 17.0556 2.37294 17.0556ZM3.99855 14.6217H9.17132V14.4876C9.17132 14.2685 9.11079 14.0689 8.98973 13.8888C8.86803 13.7094 8.70214 13.5687 8.49205 13.4667C8.18397 13.337 7.87204 13.2397 7.55627 13.1748C7.23986 13.1112 6.91608 13.0794 6.58494 13.0794C6.25379 13.0794 5.93033 13.1116 5.61456 13.1758C5.29879 13.24 4.98686 13.3373 4.67878 13.4676C4.46741 13.5696 4.3012 13.7103 4.18014 13.8898C4.05844 14.0698 3.99759 14.2694 3.99759 14.4886L3.99855 14.6217ZM11.3888 13.1692H15.2318V12.3333H11.3888V13.1692ZM6.58494 12.3333C6.89879 12.3333 7.16812 12.2228 7.39294 12.0018C7.61776 11.7808 7.73017 11.5161 7.73017 11.2076C7.73017 10.899 7.61808 10.634 7.3939 10.4123C7.16908 10.192 6.89943 10.0818 6.58494 10.0818C6.27044 10.0818 6.00111 10.192 5.77693 10.4123C5.55275 10.6327 5.44034 10.8978 5.4397 11.2076C5.43906 11.5173 5.55115 11.7821 5.77597 12.0018C6.00079 12.2216 6.27044 12.3321 6.58494 12.3333ZM11.3888 10.9167H15.2318V10.0808H11.3888V10.9167ZM8.50647 7.39389H10.428V1.94444H8.50647V7.39389Z" fill="#7471F9" stroke="#7471F9" stroke-width="0.3"/>
</svg>
