<svg width="24" height="24" viewBox="0 0 24 24" fill="none" xmlns="http://www.w3.org/2000/svg">
<path d="M12.9541 1.70021C12.8904 1.49713 12.7636 1.31968 12.5921 1.19366C12.4206 1.06764 12.2133 0.999623 12.0005 0.999512C11.7876 0.9994 11.5803 1.0672 11.4087 1.19304C11.237 1.31888 11.11 1.4962 11.0461 1.69921L8.86211 8.61921L2.00111 8.61421C1.78721 8.61371 1.57879 8.68181 1.40645 8.8085C1.23411 8.9352 1.10694 9.11382 1.04361 9.31813C0.980284 9.52244 0.984135 9.74168 1.0546 9.94363C1.12507 10.1456 1.25843 10.3196 1.43511 10.4402L6.93311 14.2022L4.86611 20.7472C4.80374 20.947 4.80564 21.1613 4.87154 21.36C4.93744 21.5587 5.06401 21.7317 5.23343 21.8546C5.40284 21.9775 5.60656 22.0442 5.81586 22.0452C6.02517 22.0462 6.22952 21.9815 6.40011 21.8602L12.0001 17.8542L17.5941 21.8612C17.7647 21.9835 17.9695 22.0489 18.1794 22.0483C18.3893 22.0477 18.5937 21.9811 18.7636 21.8578C18.9335 21.7346 19.0604 21.561 19.1262 21.3617C19.1919 21.1623 19.1933 20.9474 19.1301 20.7472L17.0631 14.2022L22.5651 10.4402C22.7418 10.3196 22.8752 10.1456 22.9456 9.94363C23.0161 9.74168 23.0199 9.52244 22.9566 9.31813C22.8933 9.11382 22.7661 8.9352 22.5938 8.8085C22.4214 8.68181 22.213 8.61371 21.9991 8.61421L15.1331 8.61921L12.9541 1.70021Z" fill="#FF2B38"/>
</svg>
