<svg width="16" height="18" viewBox="0 0 16 18" fill="none" xmlns="http://www.w3.org/2000/svg">
<path d="M2.23196 0.804443C1.81386 0.804443 1.41289 0.971345 1.11725 1.26843C0.821607 1.56552 0.655518 1.96845 0.655518 2.3886V16.1179C0.655518 16.5381 0.821607 16.941 1.11725 17.2381C1.41289 17.5352 1.81386 17.7021 2.23196 17.7021H9.5887C10.0068 17.7021 10.4078 17.5352 10.7034 17.2381C10.9991 16.941 11.1651 16.5381 11.1651 16.1179V14.5338C11.1651 14.3937 11.1098 14.2594 11.0112 14.1604C10.9127 14.0614 10.779 14.0057 10.6397 14.0057C10.2056 14.0057 9.92816 13.898 9.74004 13.7565C9.54876 13.6129 9.40023 13.3935 9.29443 13.0985C9.06952 12.4775 9.06322 11.6548 9.06322 10.8374C9.0632 10.768 9.04955 10.6992 9.02304 10.635C8.99653 10.5709 8.95768 10.5126 8.90873 10.4636L8.60815 10.1605L7.33333 8.87941C6.84253 8.38621 6.69855 8.05565 6.67123 7.87083C6.65021 7.72297 6.69435 7.6237 6.79944 7.52231C7.02435 7.30581 7.18515 7.15901 7.36696 7.11466C7.47521 7.0872 7.72219 7.06819 8.1657 7.51386L11.3186 10.6822C11.4171 10.7813 11.5508 10.8371 11.6903 10.8372C11.7593 10.8372 11.8277 10.8236 11.8915 10.7971C11.9553 10.7706 12.0133 10.7317 12.0621 10.6827C12.111 10.6337 12.1498 10.5755 12.1762 10.5114C12.2027 10.4473 12.2163 10.3786 12.2164 10.3092C12.2164 10.2398 12.2029 10.1711 12.1765 10.107C12.1501 10.0429 12.1115 9.9846 12.0627 9.93551L11.1651 9.03465V5.77552L13.8556 8.47914C14.0022 8.62623 14.1184 8.8009 14.1978 8.99317C14.2771 9.18543 14.318 9.39153 14.318 9.59967V17.174C14.318 17.3141 14.3734 17.4484 14.4719 17.5474C14.5705 17.6465 14.7041 17.7021 14.8435 17.7021C14.9829 17.7021 15.1165 17.6465 15.2151 17.5474C15.3136 17.4484 15.369 17.3141 15.369 17.174V9.59967C15.3688 8.89974 15.0921 8.22852 14.5997 7.73353L11.1651 4.28219V2.3886C11.1651 1.96845 10.9991 1.56552 10.7034 1.26843C10.4078 0.971345 10.0068 0.804443 9.5887 0.804443H2.23196ZM10.1142 4.5008V7.97855L8.90978 6.7672C8.30232 6.15677 7.69697 5.94661 7.11789 6.08813C7.00408 6.1162 6.89375 6.15693 6.78894 6.20958C6.31914 6.07259 5.82407 6.04734 5.34288 6.13581C4.86169 6.22428 4.40759 6.42405 4.0165 6.71932C3.6254 7.01459 3.30804 7.39726 3.08952 7.83705C2.871 8.27684 2.75731 8.7617 2.75744 9.25327C2.7574 9.86575 2.93402 10.4651 3.26593 10.9788C3.59784 11.4925 4.0708 11.8985 4.62758 12.1477C5.18436 12.3969 5.80107 12.4786 6.40309 12.3829C7.0051 12.2871 7.56659 12.0181 8.01961 11.6084C8.03748 12.2188 8.09843 12.8863 8.30652 13.4597C8.46207 13.8896 8.71009 14.3004 9.10946 14.6003L9.11577 14.6067C8.79574 14.7078 8.51617 14.9089 8.3177 15.1807C8.11924 15.4525 8.01224 15.7808 8.01226 16.1179V16.646H3.80841V16.1179C3.80841 15.6978 3.64232 15.2949 3.34668 14.9978C3.05104 14.7007 2.65006 14.5338 2.23196 14.5338H1.70648V3.97275H2.23196C2.65006 3.97275 3.05104 3.80585 3.34668 3.50876C3.64232 3.21168 3.80841 2.80874 3.80841 2.3886V1.86055H8.01226V2.3886C8.01226 2.80874 8.17834 3.21168 8.47399 3.50876C8.76963 3.80585 9.1706 3.97275 9.5887 3.97275H10.1142V4.5008ZM10.1142 16.1179V16.1274C10.1117 16.2658 10.0552 16.3977 9.95697 16.4947C9.85869 16.5917 9.72644 16.646 9.5887 16.646H9.06322V16.1179C9.06322 15.9779 9.11858 15.8436 9.21713 15.7445C9.31567 15.6455 9.44933 15.5899 9.5887 15.5899H10.1142V16.1179ZM3.80841 9.25327C3.80841 8.71611 4.01207 8.19914 4.37795 7.80754C4.74383 7.41594 5.24443 7.17913 5.77791 7.14528C5.64759 7.38819 5.58138 7.6839 5.63183 8.02502C5.70644 8.53406 6.02909 9.06317 6.58925 9.62607L7.54248 10.584C7.26883 10.9228 6.89744 11.1682 6.47938 11.2863C6.06132 11.4045 5.6171 11.3896 5.20779 11.2438C4.79849 11.0979 4.44419 10.8282 4.19361 10.4718C3.94302 10.1153 3.80846 9.68967 3.80841 9.25327ZM2.75744 1.86055V2.3886C2.75744 2.52865 2.70208 2.66296 2.60353 2.76199C2.50499 2.86102 2.37133 2.91665 2.23196 2.91665H1.70648V2.3886C1.70648 2.24855 1.76184 2.11424 1.86039 2.01521C1.95894 1.91618 2.0926 1.86055 2.23196 1.86055H2.75744ZM1.70648 15.5899H2.23196C2.37133 15.5899 2.50499 15.6455 2.60353 15.7445C2.70208 15.8436 2.75744 15.9779 2.75744 16.1179V16.646H2.23196C2.0926 16.646 1.95894 16.5904 1.86039 16.4913C1.76184 16.3923 1.70648 16.258 1.70648 16.1179V15.5899ZM10.1142 2.91665H9.5887C9.44933 2.91665 9.31567 2.86102 9.21713 2.76199C9.11858 2.66296 9.06322 2.52865 9.06322 2.3886V1.86055H9.5887C9.72807 1.86055 9.86172 1.91618 9.96027 2.01521C10.0588 2.11424 10.1142 2.24855 10.1142 2.3886V2.91665Z" fill="#7471F9" stroke="#7471F9" stroke-width="0.2"/>
</svg>
