<svg width="125" height="166" viewBox="0 0 125 166" fill="none" xmlns="http://www.w3.org/2000/svg">
<path d="M78.6716 98.0342C83.7623 113.293 83.9581 129.689 84.0999 145.774C84.1185 147.887 84.1647 150.107 85.2177 151.94C86.2042 153.657 87.9338 154.787 89.3497 156.171C90.7656 157.555 91.9485 159.547 91.3641 161.439C90.8901 162.974 89.3422 163.98 87.7638 164.278C86.1854 164.577 84.5615 164.298 82.9795 164.02C81.2268 163.711 79.4741 163.402 77.7215 163.094C77.7101 163.092 77.6356 164.001 77.6048 164.07C77.3773 164.579 77.5285 164.462 77.0042 164.671C76.2846 164.958 74.925 164.619 74.1622 164.555C72.13 164.387 70.1074 164.103 68.1074 163.705C68.2467 161.428 67.3666 123.305 61.3598 109.129" fill="#8683FF"/>
<path d="M45.2479 97.604C38.2815 112.103 36.0286 128.344 33.8682 144.284C33.5844 146.378 33.2598 148.575 31.985 150.261C30.7907 151.841 28.9329 152.744 27.3544 153.94C25.7759 155.135 24.3523 156.963 24.6944 158.914C24.9719 160.496 26.3814 161.688 27.9098 162.182C29.4382 162.677 31.0842 162.604 32.6887 162.526C34.4663 162.44 36.2438 162.354 38.0214 162.268C38.0329 162.267 37.9927 163.179 38.0145 163.251C38.1763 163.785 38.041 163.65 38.5349 163.923C39.2128 164.298 40.6042 164.132 41.3689 164.165C43.4062 164.253 45.4484 164.226 47.4825 164.082C48.0592 155.2 49.9236 146.173 51.7723 137.491C52.9013 132.19 54.1908 126.9 55.924 121.76C57.3072 117.658 59.3835 110.179 65.0706 110.648" fill="#8683FF"/>
<path d="M79.0191 97.9378C80.785 103.245 81.9757 108.726 82.7651 114.26C83.5572 119.812 83.9613 125.412 84.1783 131.014C84.2865 133.809 84.3487 136.605 84.3903 139.401C84.4113 140.818 84.4271 142.235 84.4408 143.652C84.4537 144.985 84.434 146.324 84.509 147.656C84.581 148.935 84.7684 150.249 85.3432 151.409C85.8873 152.507 86.7536 153.374 87.6596 154.179C89.4176 155.741 91.5028 157.361 91.8367 159.863C92.152 162.225 90.3128 164.034 88.1431 164.564C86.8093 164.89 85.4186 164.77 84.0766 164.566C82.6487 164.35 81.2281 164.075 79.8058 163.824C79.0791 163.696 78.3523 163.568 77.6256 163.44L78.069 163.189C78.0936 163.12 78.0713 163.161 78.0644 163.223C78.056 163.3 78.0486 163.377 78.0408 163.455C78.0241 163.62 78.008 163.785 77.9868 163.95C77.9536 164.208 77.8598 164.532 77.6801 164.726C77.4857 164.936 77.073 165.049 76.8025 165.098C76.3234 165.184 75.8322 165.136 75.3534 165.075C72.8983 164.759 70.4442 164.533 68.0115 164.052C67.8653 164.023 67.738 163.853 67.7469 163.705C67.8415 162.132 67.7977 160.541 67.7887 158.966C67.7697 155.671 67.6925 152.376 67.5663 149.083C67.405 144.875 67.1621 140.67 66.8035 136.474C66.4336 132.147 65.9486 127.824 65.217 123.542C64.5956 119.906 63.8288 116.245 62.5323 112.782C62.4037 112.438 62.2698 112.096 62.1271 111.758C61.9487 111.336 62.5694 110.968 62.7495 111.395C64.1552 114.723 64.9781 118.284 65.6394 121.825C66.4312 126.064 66.956 130.353 67.3602 134.645C67.7633 138.927 68.0366 143.22 68.2231 147.516C68.374 150.993 68.4684 154.473 68.5017 157.953C68.5193 159.792 68.545 161.638 68.478 163.478C68.4752 163.553 68.4723 163.629 68.4677 163.705L68.2031 163.357C69.4058 163.595 70.6159 163.796 71.8322 163.95C72.8762 164.083 73.9282 164.146 74.9691 164.299C75.4005 164.362 75.8355 164.426 76.2726 164.423C76.4658 164.422 76.6543 164.407 76.839 164.348C76.9226 164.321 77.0114 164.262 77.0978 164.249C77.1113 164.247 77.2134 164.19 77.1506 164.238C77.0884 164.285 77.152 164.23 77.1458 164.241C77.1881 164.163 77.2333 164.055 77.2571 163.971C77.2803 163.888 77.2829 163.811 77.2926 163.721C77.3168 163.498 77.2977 163.211 77.3739 162.997C77.444 162.8 77.6126 162.709 77.8172 162.745C79.2279 162.994 80.6386 163.242 82.0492 163.491C83.4391 163.736 84.8404 164.039 86.2575 164.046C87.4557 164.051 88.6385 163.808 89.6391 163.123C90.5434 162.504 91.1536 161.532 91.1564 160.42C91.1625 157.944 88.9027 156.237 87.2312 154.76C86.3647 153.995 85.5225 153.173 84.9337 152.168C84.3098 151.103 84.017 149.896 83.8745 148.68C83.7253 147.406 83.7426 146.118 83.7311 144.837C83.7186 143.463 83.7051 142.089 83.6876 140.714C83.6527 137.981 83.6018 135.248 83.5113 132.516C83.3294 127.024 82.9889 121.533 82.2906 116.081C81.5954 110.654 80.5314 105.263 78.9307 100.028C78.7364 99.3923 78.5338 98.7596 78.324 98.1292C78.1772 97.6881 78.8731 97.4991 79.0191 97.9378Z" fill="black"/>
<path d="M79.0096 150.411C79.9041 150.356 80.8041 150.31 81.6828 150.122C82.1094 150.032 82.536 149.913 82.9339 149.732C83.3728 149.532 83.705 149.233 84.0452 148.897C84.2215 148.723 84.6032 148.779 84.6475 149.056C84.8132 150.095 85.1087 151.108 85.6766 152.002C86.1809 152.796 86.8588 153.461 87.5553 154.086C88.9723 155.357 90.5291 156.534 91.3589 158.303C91.7535 159.144 91.9667 160.063 91.8313 160.991C91.707 161.844 91.2746 162.621 90.6565 163.217C89.2186 164.601 87.1711 164.891 85.258 164.715C83.9996 164.599 82.7548 164.344 81.5115 164.125C80.216 163.896 78.9206 163.668 77.6251 163.44L78.0685 163.188C78.054 163.225 78.0724 163.175 78.0709 163.159C78.0751 163.204 78.0601 163.26 78.0554 163.305C78.0418 163.436 78.0292 163.568 78.0152 163.7C77.9894 163.942 77.961 164.139 77.8682 164.363C77.78 164.575 77.7096 164.747 77.4959 164.859C77.2195 165.003 76.9046 165.092 76.5963 165.126C75.8639 165.207 75.1235 165.031 74.4002 164.94C73.424 164.818 72.4413 164.753 71.4652 164.623C70.308 164.469 69.1563 164.278 68.011 164.052C67.8648 164.023 67.7376 163.853 67.7465 163.704C67.8024 162.763 67.7888 161.813 67.7914 160.87C67.7969 158.893 67.775 156.916 67.7359 154.939C67.7068 153.466 67.667 151.993 67.6176 150.521C67.6114 150.336 67.788 150.148 67.978 150.161C71.6487 150.416 75.3312 150.63 79.0096 150.411C79.473 150.383 79.4715 151.104 79.0097 151.132C75.3314 151.351 71.6487 151.137 67.978 150.882L68.3384 150.521C68.4725 154.517 68.5577 158.521 68.499 162.519C68.4932 162.914 68.4907 163.31 68.4673 163.704L68.2027 163.357C69.4166 163.597 70.6381 163.799 71.8659 163.954C72.9107 164.086 73.963 164.151 75.0048 164.304C75.4536 164.37 75.9084 164.436 76.3633 164.421C76.5291 164.416 76.6885 164.397 76.8464 164.345C76.9358 164.316 77.0207 164.274 77.1098 164.244C77.1328 164.236 77.2088 164.187 77.1512 164.236C77.0875 164.291 77.1532 164.222 77.1536 164.22C77.1695 164.131 77.2353 164.049 77.2601 163.962C77.2839 163.879 77.2806 163.828 77.2913 163.729C77.3151 163.51 77.2912 163.203 77.3734 162.997C77.4509 162.802 77.606 162.708 77.8168 162.745C79.9651 163.123 82.111 163.544 84.2678 163.871C86.1383 164.155 88.2126 164.212 89.7957 163.01C90.4318 162.527 90.915 161.858 91.0877 161.071C91.273 160.228 91.0677 159.344 90.6955 158.581C89.8821 156.912 88.394 155.805 87.0456 154.595C86.303 153.929 85.5913 153.212 85.0543 152.366C84.4558 151.422 84.1274 150.344 83.9525 149.248L84.5549 149.407C84.1993 149.758 83.8377 150.094 83.3838 150.313C82.9341 150.531 82.4576 150.687 81.9708 150.796C80.9997 151.015 80.0004 151.071 79.0097 151.132C78.5464 151.16 78.548 150.439 79.0096 150.411Z" fill="black"/>
<path d="M81.4611 142.548C80.891 141.899 80.5523 141.113 80.3184 140.289C80.0605 139.381 79.8877 138.435 79.8552 137.49C79.7984 135.835 80.241 134.132 81.365 132.879C81.9959 132.176 82.829 131.688 83.7517 131.485C83.9853 131.434 84.1994 131.59 84.2079 131.833C84.3458 135.731 84.401 139.632 84.4392 143.533C84.4416 143.779 84.2078 143.928 83.983 143.881C83.028 143.679 82.1335 143.27 81.4611 142.548C81.1454 142.208 81.654 141.697 81.9708 142.038C82.564 142.676 83.3338 143.008 84.1746 143.185L83.7184 143.533C83.6801 139.632 83.625 135.731 83.4871 131.833L83.9433 132.18C82.0685 132.591 80.9444 134.283 80.652 136.095C80.4793 137.165 80.5879 138.271 80.8196 139.323C81.0306 140.281 81.3095 141.286 81.9708 142.038C82.2759 142.385 81.768 142.897 81.4611 142.548Z" fill="black"/>
<path d="M67.0782 125.439C69.4055 126.319 71.3909 128.089 72.2818 130.442C73.1881 132.836 72.8413 135.76 71.0874 137.685C70.1303 138.735 68.8491 139.466 67.501 139.887C67.2631 139.961 67.061 139.763 67.0448 139.54C66.706 134.868 66.2484 130.2 65.5438 125.568C65.5019 125.292 65.6982 125.063 65.9872 125.124C66.3588 125.203 66.7213 125.308 67.0782 125.439C67.5106 125.596 67.3239 126.293 66.8866 126.134C66.5297 126.004 66.1672 125.898 65.7955 125.819L66.2389 125.376C66.9532 130.072 67.4221 134.803 67.7656 139.54L67.3094 139.192C68.4 138.851 69.4331 138.289 70.2626 137.497C71.1034 136.695 71.6484 135.674 71.8971 134.541C72.3982 132.257 71.6234 129.874 70.0247 128.202C69.1507 127.288 68.069 126.581 66.8866 126.134C66.4568 125.971 66.6431 125.274 67.0782 125.439Z" fill="black"/>
<path d="M71.9903 117.38C71.5692 118.966 72.1277 120.826 73.1829 122.052C73.7038 122.658 74.3695 123.136 75.1616 123.3C76.0819 123.491 77.0503 123.169 77.7813 122.607C79.601 121.206 80.3785 118.305 79.3702 116.224C78.6763 114.793 77.3008 113.877 75.6838 114.061C73.8884 114.266 72.4682 115.682 71.9903 117.38C71.8647 117.826 71.169 117.636 71.2952 117.188C71.8022 115.388 73.2154 113.879 75.063 113.443C76.8733 113.017 78.6771 113.759 79.6865 115.316C81.1333 117.547 80.6099 120.674 78.8571 122.59C78.0764 123.443 76.9852 124.034 75.8159 124.072C74.8514 124.104 73.9445 123.715 73.2155 123.101C71.5975 121.739 70.7498 119.243 71.2952 117.188C71.4141 116.74 72.1096 116.93 71.9903 117.38Z" fill="black"/>
<path d="M74.082 146.881C74.3604 146.894 74.5734 146.878 74.8315 146.78C74.9962 146.717 75.1522 146.601 75.2936 146.447C75.3948 146.337 75.5091 146.116 75.5579 145.962C75.6339 145.721 75.6495 145.595 75.648 145.345C75.6454 144.902 75.5165 144.46 75.2615 144.067C75.1563 143.905 74.9718 143.699 74.8243 143.585C74.7295 143.512 74.6261 143.447 74.5222 143.388C74.4733 143.36 74.4236 143.333 74.3731 143.309C74.3461 143.295 74.3189 143.282 74.2914 143.27C74.2226 143.239 74.3239 143.281 74.2483 143.252C74.1558 143.218 74.0619 143.188 73.9656 143.166C73.9252 143.157 73.8844 143.149 73.8436 143.142C73.9262 143.156 73.7718 143.137 73.7464 143.135C73.6606 143.131 73.5757 143.135 73.4903 143.143C73.521 143.141 73.4975 143.142 73.4364 143.155C73.3921 143.164 73.3482 143.175 73.305 143.188C73.2621 143.201 73.2201 143.217 73.1783 143.233C73.2662 143.199 73.1517 143.246 73.1307 143.257C73.0549 143.296 72.9846 143.341 72.9142 143.389C72.8311 143.445 72.9349 143.364 72.8605 143.432C72.8338 143.456 72.8064 143.48 72.7804 143.504C72.7147 143.568 72.6539 143.636 72.5967 143.706C72.6524 143.637 72.5749 143.738 72.5624 143.756C72.5386 143.79 72.5157 143.825 72.4938 143.861C72.4444 143.941 72.4019 144.025 72.3604 144.11C72.3521 144.127 72.3446 144.144 72.337 144.162C72.368 144.092 72.3462 144.139 72.3402 144.155C72.3228 144.199 72.306 144.244 72.2907 144.289C72.2614 144.376 72.2367 144.464 72.2165 144.553C72.2069 144.595 72.1983 144.638 72.1907 144.681C72.1865 144.705 72.1829 144.729 72.1792 144.753C72.17 144.811 72.1874 144.663 72.179 144.758C72.1709 144.849 72.1638 144.941 72.1635 145.033C72.1633 145.12 72.17 145.207 72.1762 145.294C72.1825 145.381 72.165 145.252 72.1846 145.356C72.1936 145.403 72.2022 145.451 72.2133 145.498C72.2375 145.601 72.2697 145.702 72.3079 145.801C72.3137 145.816 72.336 145.864 72.3051 145.795C72.317 145.821 72.3292 145.848 72.3421 145.874C72.3636 145.917 72.3867 145.96 72.4113 146.002C72.4387 146.048 72.4687 146.093 72.4988 146.137C72.5093 146.153 72.5503 146.206 72.5043 146.147C72.5226 146.171 72.5417 146.194 72.5612 146.216C72.628 146.293 72.7011 146.363 72.7777 146.43C72.7759 146.429 72.8554 146.492 72.8145 146.461C72.7841 146.437 72.8716 146.501 72.8812 146.507C72.9263 146.537 72.9727 146.566 73.0201 146.593C73.069 146.621 73.1192 146.646 73.1699 146.671C73.2456 146.707 73.2029 146.689 73.2953 146.722C73.5649 146.819 73.8242 146.864 74.082 146.881C74.5427 146.91 74.546 147.631 74.082 147.601C72.995 147.532 72.0034 147.023 71.6023 145.966C71.2947 145.154 71.4364 144.159 71.9089 143.438C72.4191 142.66 73.2991 142.246 74.219 142.486C75.4067 142.797 76.2194 143.863 76.3515 145.059C76.418 145.66 76.2946 146.313 75.9266 146.803C75.4885 147.387 74.7988 147.636 74.082 147.601C73.6203 147.579 73.6176 146.858 74.082 146.881Z" fill="black"/>
<path d="M45.5599 97.7869C43.2103 102.687 41.3856 107.821 39.9325 113.053C38.475 118.302 37.3857 123.646 36.4768 129.015C35.5725 134.356 34.8923 139.727 34.1183 145.088C33.9409 146.316 33.7201 147.554 33.2525 148.709C32.7985 149.831 32.1243 150.806 31.2152 151.608C29.41 153.2 26.9872 154.13 25.671 156.238C25.0688 157.202 24.7826 158.371 25.2231 159.46C25.6358 160.48 26.5613 161.232 27.5491 161.664C28.7846 162.205 30.1851 162.249 31.5119 162.215C32.9454 162.178 34.3788 162.085 35.811 162.016C36.5481 161.98 37.2851 161.944 38.0221 161.908C38.1723 161.901 38.3371 162.025 38.3697 162.173C38.4202 162.403 38.3757 162.669 38.3715 162.901C38.3701 162.977 38.3666 163.055 38.3692 163.131C38.3711 163.187 38.3779 163.239 38.3629 163.156C38.38 163.251 38.4237 163.341 38.4398 163.436C38.4451 163.468 38.4922 163.539 38.454 163.492C38.3893 163.412 38.4681 163.482 38.5098 163.5C38.5818 163.532 38.6468 163.579 38.7176 163.613C38.8803 163.691 39.0529 163.736 39.2312 163.764C39.6756 163.835 40.1371 163.818 40.5853 163.809C41.6491 163.788 42.7127 163.858 43.7769 163.856C45.0136 163.854 46.2497 163.808 47.4833 163.723L47.1229 164.083C47.4278 159.436 48.0687 154.817 48.8706 150.231C49.6702 145.659 50.6205 141.113 51.6016 136.576C52.5802 132.052 53.6844 127.549 55.0938 123.138C55.9658 120.409 56.7993 117.586 58.1532 115.049C59.3845 112.741 61.2645 110.555 64.0281 110.293C64.3755 110.26 64.7237 110.262 65.0713 110.289C65.531 110.324 65.5348 111.045 65.0713 111.009C63.7917 110.912 62.5802 111.236 61.5336 111.982C60.4858 112.729 59.697 113.802 59.0581 114.905C57.7159 117.22 56.9453 119.82 56.1085 122.347C54.6865 126.641 53.5684 131.03 52.587 135.443C51.5996 139.884 50.6717 144.344 49.8527 148.819C49.029 153.321 48.3422 157.853 47.9666 162.416C47.9209 162.971 47.8802 163.527 47.8437 164.083C47.8302 164.288 47.6889 164.429 47.4833 164.443C45.0241 164.614 42.5733 164.539 40.1123 164.535C39.6502 164.535 39.1604 164.523 38.7154 164.385C38.4327 164.297 38.0211 164.135 37.8486 163.879C37.7129 163.678 37.6562 163.371 37.6484 163.131C37.6429 162.966 37.6528 162.798 37.657 162.633C37.6589 162.556 37.6573 162.477 37.6627 162.4C37.666 162.353 37.641 162.212 37.6746 162.365L38.0221 162.629C36.5047 162.703 34.9873 162.776 33.4698 162.85C32.0587 162.918 30.6347 163.028 29.2282 162.839C26.9939 162.54 24.5701 161.172 24.3051 158.71C24.0348 156.198 26.1839 154.275 28.0563 153.001C29.0861 152.3 30.1653 151.649 31.0573 150.77C31.9659 149.875 32.5403 148.759 32.8925 147.542C33.2483 146.311 33.4066 145.035 33.5783 143.77C33.7655 142.389 33.9534 141.009 34.1452 139.628C34.5295 136.862 34.929 134.098 35.3685 131.34C36.2454 125.838 37.2808 120.355 38.6755 114.959C40.0597 109.603 41.8059 104.335 44.0723 99.2857C44.3526 98.6611 44.6414 98.0404 44.9374 97.4231C45.1378 97.005 45.7597 97.3702 45.5599 97.7869Z" fill="black"/>
<path d="M38.1947 150.23C37.2395 150.05 36.2757 149.875 35.3601 149.539C34.9166 149.377 34.4811 149.182 34.082 148.928C33.6395 148.646 33.3122 148.277 32.9905 147.867L33.5929 147.708C33.3189 148.647 32.938 149.568 32.358 150.362C31.8201 151.098 31.1486 151.701 30.4227 152.246C28.969 153.339 27.3093 154.173 26.1327 155.595C25.5778 156.266 25.1181 157.088 25.0228 157.967C24.9331 158.793 25.1804 159.602 25.6862 160.259C26.8581 161.779 28.8379 162.191 30.6553 162.22C31.8547 162.24 33.0568 162.149 34.2543 162.091C35.5102 162.03 36.7661 161.969 38.022 161.908C38.1768 161.901 38.3313 162.025 38.3695 162.173C38.4281 162.399 38.3752 162.678 38.3711 162.909C38.3699 162.977 38.3711 163.045 38.3689 163.113C38.3678 163.15 38.3913 163.292 38.3627 163.156C38.3809 163.242 38.4113 163.329 38.434 163.414C38.4424 163.446 38.5013 163.561 38.4547 163.493C38.4011 163.414 38.4098 163.458 38.4805 163.484C38.5628 163.514 38.6388 163.574 38.7174 163.612C38.8802 163.692 39.0545 163.736 39.2334 163.764C39.6681 163.833 40.1181 163.817 40.5566 163.809C41.6353 163.789 42.7135 163.858 43.7927 163.856C45.0241 163.854 46.2548 163.808 47.4832 163.722L47.1228 164.083C47.1862 163.131 47.3207 162.18 47.438 161.233C47.6837 159.25 47.9566 157.269 48.2468 155.292C48.4606 153.835 48.6849 152.379 48.9188 150.924L49.2663 151.381C45.5606 151.171 41.8481 150.916 38.1947 150.23C37.7394 150.145 37.9322 149.45 38.3864 149.535C41.9764 150.209 45.6249 150.454 49.2663 150.66C49.5189 150.674 49.6522 150.877 49.6139 151.116C48.983 155.039 48.3985 158.975 47.9584 162.925C47.9155 163.31 47.8693 163.696 47.8436 164.083C47.8299 164.288 47.6889 164.429 47.4831 164.443C45.4222 164.587 43.3698 164.582 41.3062 164.524C40.5918 164.504 39.8786 164.577 39.1672 164.478C38.6951 164.412 37.9403 164.215 37.7664 163.703C37.6861 163.466 37.646 163.239 37.649 162.991C37.6507 162.847 37.6551 162.704 37.6587 162.56C37.6603 162.498 37.6586 162.434 37.663 162.371C37.667 162.315 37.6385 162.226 37.6744 162.364L38.0219 162.629C35.735 162.74 33.4398 162.918 31.1502 162.942C29.1866 162.963 27.133 162.658 25.6413 161.271C25.0199 160.693 24.5332 159.933 24.3634 159.095C24.18 158.189 24.345 157.28 24.7331 156.45C25.5567 154.689 27.1917 153.575 28.7562 152.531C29.657 151.93 30.5623 151.317 31.3022 150.518C32.0899 149.666 32.5756 148.621 32.8978 147.517C32.9666 147.281 33.3249 147.135 33.5002 147.357C33.7923 147.729 34.08 148.077 34.4851 148.33C34.8763 148.574 35.298 148.76 35.7337 148.908C36.5954 149.202 37.4938 149.367 38.3864 149.535C38.8417 149.621 38.6488 150.316 38.1947 150.23Z" fill="black"/>
<path d="M36.4155 140.876C37.1265 140.248 37.5327 139.38 37.8575 138.506C38.2285 137.506 38.4929 136.457 38.5045 135.386C38.5249 133.501 37.6538 131.502 35.7732 130.834L36.2166 130.582C35.5903 134.432 35.0457 138.295 34.518 142.16L34.1705 141.704C34.9817 141.637 35.7817 141.405 36.4155 140.876C36.7693 140.581 37.2819 141.088 36.9253 141.386C36.1332 142.047 35.1877 142.341 34.1705 142.425C33.9103 142.446 33.7943 142.179 33.823 141.969C34.3507 138.104 34.8952 134.241 35.5215 130.39C35.5513 130.207 35.7961 130.078 35.9649 130.138C37.5874 130.716 38.666 132.125 39.0518 133.777C39.4648 135.546 39.0834 137.388 38.4184 139.045C38.0701 139.912 37.6362 140.758 36.9253 141.386C36.5787 141.692 36.067 141.184 36.4155 140.876Z" fill="black"/>
<path d="M53.4562 126.953C51.2732 127.477 49.2686 128.833 48.1883 130.832C47.0811 132.881 47.0265 135.548 48.39 137.492C49.1351 138.554 50.2251 139.351 51.396 139.886L50.8665 140.101C51.7956 135.477 52.8453 130.873 54.1348 126.335L54.4823 126.791C54.1356 126.82 53.7954 126.876 53.4562 126.953C53.0045 127.056 52.8117 126.361 53.2646 126.258C53.6662 126.167 54.0719 126.105 54.4823 126.07C54.7179 126.051 54.8896 126.316 54.8298 126.527C53.5403 131.065 52.4907 135.669 51.5616 140.293C51.5117 140.541 51.2273 140.597 51.0322 140.508C49.8838 139.984 48.8273 139.209 48.0393 138.217C47.2421 137.214 46.7911 136.027 46.6707 134.753C46.4297 132.203 47.5913 129.68 49.5632 128.081C50.6447 127.203 51.9107 126.583 53.2646 126.258C53.7154 126.15 53.9078 126.845 53.4562 126.953Z" fill="black"/>
<path d="M40.7218 108.481C42.5807 108.098 44.5034 108.887 45.6946 110.339C46.953 111.873 47.3377 113.906 46.743 115.793C46.1973 117.525 44.9681 119.182 43.2519 119.884C42.4306 120.219 41.5151 120.281 40.6596 120.038C40.1303 119.887 39.6286 119.632 39.19 119.301C38.963 119.13 38.7489 118.943 38.5531 118.737C38.3687 118.543 38.0467 118.251 37.9764 117.987C37.9323 117.82 38.0171 117.622 38.0557 117.459C38.1 117.273 38.1446 117.087 38.1897 116.901C38.2842 116.51 38.3805 116.12 38.4786 115.73C38.6747 114.952 38.878 114.175 39.0891 113.4C39.5158 111.834 39.9754 110.278 40.4701 108.732C40.611 108.292 41.3072 108.481 41.1652 108.924C40.2096 111.909 39.3899 114.936 38.6715 117.987L38.6352 117.709C39.4503 118.84 40.805 119.669 42.2384 119.429C43.4449 119.227 44.4612 118.388 45.1481 117.408C45.8528 116.404 46.3218 115.181 46.3147 113.943C46.3069 112.61 45.7024 111.287 44.7418 110.372C43.7338 109.411 42.2975 108.891 40.9135 109.176C40.4608 109.269 40.2671 108.574 40.7218 108.481Z" fill="black"/>
<path d="M43.6224 147.359C42.9689 147.308 42.367 147.061 41.9689 146.524C41.6388 146.078 41.5257 145.489 41.5806 144.945C41.7044 143.716 42.5438 142.663 43.744 142.333C44.6694 142.079 45.5864 142.423 46.1066 143.229C46.5706 143.948 46.674 144.937 46.3756 145.738C46.188 146.241 45.8633 146.671 45.4079 146.962C44.8822 147.298 44.2357 147.397 43.6224 147.359C43.1616 147.33 43.1583 146.609 43.6224 146.638C43.7502 146.646 43.8782 146.649 44.0063 146.644C44.1541 146.638 44.2239 146.631 44.3342 146.61C44.4391 146.59 44.5429 146.564 44.6445 146.531C44.6874 146.517 44.7299 146.502 44.772 146.485C44.8711 146.446 44.7349 146.503 44.7923 146.476C44.8216 146.463 44.8508 146.449 44.8797 146.434C44.9637 146.391 45.0429 146.341 45.121 146.288C45.1877 146.243 45.1069 146.306 45.1805 146.242C45.218 146.209 45.2554 146.176 45.2909 146.141C45.445 145.99 45.473 145.953 45.5848 145.749C45.6057 145.711 45.6248 145.672 45.6439 145.633C45.6524 145.616 45.6601 145.598 45.6679 145.581C45.6915 145.527 45.6377 145.661 45.6702 145.573C45.7021 145.487 45.731 145.4 45.7539 145.311C45.7755 145.227 45.792 145.142 45.8052 145.056C45.8141 144.997 45.7973 145.145 45.8051 145.051C45.8067 145.031 45.8089 145.012 45.8105 144.993C45.8146 144.945 45.8172 144.896 45.8186 144.848C45.821 144.761 45.8192 144.673 45.8131 144.587C45.8097 144.538 45.8049 144.49 45.7991 144.442C45.8101 144.532 45.7904 144.395 45.785 144.367C45.7689 144.283 45.7487 144.199 45.7243 144.117C45.7136 144.08 45.7021 144.044 45.6897 144.008C45.681 143.983 45.6338 143.862 45.647 143.893C45.6638 143.933 45.616 143.828 45.6069 143.809C45.5884 143.772 45.5689 143.735 45.5483 143.699C45.5054 143.623 45.4577 143.551 45.4064 143.48C45.4612 143.555 45.3736 143.442 45.3605 143.427C45.3368 143.4 45.3123 143.374 45.2871 143.348C45.2556 143.316 45.2228 143.286 45.1895 143.256C45.1762 143.245 45.1622 143.233 45.1486 143.222C45.0802 143.164 45.2109 143.264 45.1369 143.213C45.0701 143.168 45.0029 143.126 44.9317 143.088C44.9035 143.073 44.8217 143.039 44.8953 143.069C44.8488 143.05 44.8016 143.033 44.7536 143.019C44.7137 143.007 44.6733 142.997 44.6325 142.988C44.6141 142.984 44.5955 142.981 44.5772 142.977C44.487 142.958 44.632 142.982 44.5739 142.976C44.4799 142.966 44.3859 142.962 44.2914 142.967C44.2722 142.968 44.1197 142.984 44.1987 142.973C44.1551 142.979 44.1118 142.987 44.0688 142.996C43.9531 143.02 43.8409 143.055 43.7295 143.095C43.5714 143.151 43.3071 143.289 43.1487 143.413C42.7889 143.694 42.521 144.113 42.3903 144.542C42.2495 145.004 42.2395 145.534 42.44 145.917C42.6703 146.358 43.0736 146.595 43.6224 146.638C44.0819 146.673 44.0857 147.395 43.6224 147.359Z" fill="black"/>
<path d="M53.1467 112.947C52.4929 113.132 52.0963 113.89 51.911 114.492C51.712 115.139 51.7668 115.881 52.2874 116.37C52.896 116.942 54.0946 116.654 54.5766 116.044C55.0366 115.463 55.0128 114.674 54.7447 114.016C54.4777 113.361 53.908 112.763 53.1467 112.947C52.696 113.056 52.5036 112.361 52.9551 112.252C53.9261 112.017 54.7752 112.55 55.2399 113.39C55.716 114.251 55.8329 115.342 55.3262 116.217C55.0313 116.726 54.5557 117.074 53.9978 117.247C53.4297 117.423 52.7728 117.46 52.2268 117.195C51.3067 116.749 50.9503 115.614 51.1258 114.664C51.3055 113.69 51.9423 112.539 52.9551 112.252C53.4021 112.125 53.593 112.821 53.1467 112.947Z" fill="black"/>
<path d="M70.8064 106.22C70.1526 106.405 69.756 107.163 69.5706 107.765C69.3717 108.412 69.4265 109.154 69.9471 109.643C70.5556 110.215 71.7542 109.927 72.2362 109.317C72.6963 108.736 72.6725 107.946 72.4044 107.289C72.1374 106.634 71.5677 106.036 70.8064 106.22C70.3556 106.329 70.1633 105.634 70.6147 105.525C71.5857 105.29 72.4349 105.823 72.8996 106.663C73.3757 107.524 73.4926 108.615 72.9858 109.49C72.6909 109.999 72.2153 110.347 71.6575 110.52C71.0894 110.696 70.4324 110.733 69.8865 110.468C68.9664 110.022 68.61 108.887 68.7854 107.937C68.9651 106.963 69.602 105.812 70.6147 105.525C71.0618 105.398 71.2527 106.093 70.8064 106.22Z" fill="black"/>
<path d="M78.1343 97.3032C78.5708 98.4255 79.8358 100.681 79.6565 101.884C79.524 102.774 77.7006 103.546 76.9746 103.971C74.4444 105.451 71.6319 106.365 68.8394 107.209C65.5185 108.212 62.1563 109.14 58.709 109.53C52.5787 110.223 46.3147 109.202 40.238 110.267C41.2256 107.188 42.8556 102.326 44.5375 99.2026" fill="black"/>
<path d="M78.482 97.2064C78.9038 98.2769 79.4699 99.2857 79.8099 100.39C79.9604 100.878 80.091 101.418 80.0107 101.931C79.9311 102.439 79.5433 102.813 79.1521 103.112C78.7132 103.447 78.2257 103.71 77.7383 103.967C77.1597 104.272 76.598 104.607 76.0146 104.903C74.6017 105.62 73.1201 106.197 71.6207 106.705C68.4559 107.777 65.2093 108.733 61.9301 109.384C58.6008 110.044 55.2448 110.177 51.859 110.147C48.0157 110.113 44.1388 109.955 40.334 110.613C40.0806 110.657 39.7994 110.454 39.8906 110.17C40.8463 107.193 41.8523 104.221 43.1049 101.354C43.4506 100.563 43.8184 99.7809 44.2265 99.0197C44.4457 98.6107 45.0682 98.9743 44.8489 99.3835C43.3707 102.141 42.3248 105.135 41.3296 108.093C41.0759 108.847 40.8289 109.604 40.5857 110.362L40.1423 109.918C46.7368 108.776 53.4658 110.013 60.0697 108.985C63.2998 108.483 66.4532 107.57 69.5715 106.608C71.0556 106.149 72.5337 105.661 73.9668 105.059C75.2331 104.528 76.4212 103.859 77.6281 103.21C78.1353 102.937 78.6785 102.651 79.0742 102.223C79.4271 101.841 79.3186 101.341 79.1991 100.877C78.8848 99.6587 78.2455 98.5618 77.7869 97.398C77.6169 96.9663 78.3137 96.779 78.482 97.2064Z" fill="black"/>
<path d="M84.3569 83.814C92.7096 86.7433 101.29 89.7106 110.139 89.4932C113.078 89.4209 116.062 88.9774 118.699 87.6756C121.422 86.3309 123.879 83.9689 124.34 80.9119C124.899 77.2081 124.646 73.809 123.92 70.1352C122.64 63.6596 120.567 57.3411 117.762 51.3657C117.59 50.9989 117.412 50.618 117.411 50.2129C117.411 49.5582 117.866 49.004 118.108 48.3957C118.733 46.8242 117.559 44.7758 116.298 43.8318C114.61 42.5679 112.247 42.9487 110.327 43.2938C110.077 42.2776 109.793 41.2697 109.476 40.2722C109.199 39.4 108.974 38.2929 108.21 37.6972C107.93 37.4797 107.528 37.3809 107.217 37.5512C106.873 37.7399 106.758 38.1722 106.701 38.5602C106.57 39.4446 106.566 40.3478 106.69 41.2332C106.81 42.0927 107.05 42.9569 106.922 43.8152C106.72 45.1617 105.451 45.9883 105.268 47.2664C105.095 48.4693 105.342 49.6883 105.588 50.8783C107.062 58.0102 108.535 65.1421 110.009 72.2741C103.019 70.5796 96.0285 68.885 89.0383 67.1905" fill="white"/>
<path d="M84.453 83.4659C90.2993 85.5161 96.1954 87.5741 102.331 88.5661C105.361 89.056 108.456 89.278 111.522 89.0691C114.356 88.876 117.228 88.2456 119.663 86.7262C121.686 85.4636 123.444 83.5582 123.931 81.1619C124.235 79.6662 124.298 78.0873 124.282 76.5649C124.266 75.0139 124.119 73.4662 123.877 71.9347C123.398 68.9068 122.653 65.907 121.786 62.9688C120.922 60.0449 119.896 57.1673 118.707 54.3598C118.407 53.6507 118.096 52.946 117.775 52.2458C117.486 51.6132 117.049 50.9298 117.051 50.2124C117.053 49.5309 117.457 48.983 117.723 48.3857C117.955 47.8653 117.967 47.2986 117.833 46.75C117.562 45.6361 116.799 44.5403 115.817 43.9389C114.744 43.2821 113.434 43.2528 112.217 43.3716C111.615 43.4305 111.018 43.534 110.423 43.6408C110.235 43.6745 110.03 43.592 109.979 43.3891C109.662 42.1066 109.285 40.8402 108.89 39.5798C108.731 39.0727 108.544 38.536 108.168 38.1451C108.001 37.9708 107.772 37.7905 107.513 37.8298C107.246 37.8704 107.155 38.1521 107.101 38.3803C106.767 39.7659 107.08 41.1561 107.261 42.5324C107.346 43.1804 107.356 43.85 107.12 44.4694C106.934 44.9574 106.646 45.3856 106.353 45.8146C106.075 46.2228 105.785 46.6419 105.662 47.1271C105.496 47.7842 105.558 48.5251 105.646 49.1898C105.837 50.6513 106.208 52.1 106.506 53.5427C107.108 56.4568 107.71 59.3709 108.313 62.2851C108.994 65.5826 109.675 68.8802 110.356 72.1777C110.412 72.4481 110.191 72.6885 109.913 72.6211C104.47 71.3016 99.0269 69.9821 93.5837 68.6625C92.0367 68.2875 90.4897 67.9125 88.9428 67.5375C88.4921 67.4283 88.683 66.733 89.1344 66.8424C94.5775 68.1619 100.021 69.4814 105.464 70.801C107.011 71.176 108.558 71.551 110.105 71.926L109.661 72.3694C108.378 66.1577 107.095 59.946 105.811 53.7343C105.496 52.2098 105.107 50.6797 104.918 49.1333C104.83 48.4178 104.789 47.6415 104.967 46.9355C105.098 46.4163 105.388 45.9559 105.685 45.5176C105.984 45.0779 106.315 44.6355 106.479 44.1238C106.705 43.416 106.566 42.6595 106.443 41.9458C106.312 41.1919 106.222 40.4389 106.243 39.6723C106.26 39.0549 106.276 38.3281 106.557 37.7628C106.872 37.1269 107.587 36.9544 108.203 37.2671C108.774 37.5573 109.123 38.1759 109.357 38.7453C109.618 39.3794 109.791 40.0561 109.99 40.7112C110.241 41.5337 110.468 42.3629 110.674 43.1975L110.231 42.9458C111.492 42.7196 112.79 42.4963 114.074 42.642C115.349 42.7866 116.476 43.3218 117.319 44.3013C118.103 45.2123 118.735 46.4515 118.633 47.6855C118.575 48.3706 118.242 48.9021 117.96 49.5107C117.826 49.7984 117.736 50.0972 117.79 50.416C117.854 50.7922 118.055 51.1403 118.213 51.4823C120.868 57.1984 122.865 63.2188 124.137 69.3918C124.786 72.5443 125.174 75.7487 124.923 78.9692C124.814 80.3653 124.656 81.7556 124.061 83.0378C123.537 84.1659 122.74 85.165 121.822 85.9976C117.373 90.0294 110.689 90.222 105.038 89.6455C98.6566 88.9947 92.5103 87.0273 86.4777 84.9351C85.7384 84.6787 84.9998 84.42 84.2613 84.161C83.8265 84.0085 84.0137 83.3118 84.453 83.4659Z" fill="black"/>
<path d="M84.3569 83.814C92.7096 86.7433 101.29 89.7106 110.139 89.4932C113.078 89.4209 116.062 88.9774 118.699 87.6756C121.422 86.3309 123.879 83.9689 124.34 80.9119C124.899 77.2081 124.646 73.809 123.92 70.1352C122.64 63.6596 120.567 57.3411 117.762 51.3657C117.59 50.9989 117.412 50.618 117.411 50.2129C117.411 49.5582 117.866 49.004 118.108 48.3957C118.733 46.8242 117.559 44.7758 116.298 43.8318C114.61 42.5679 112.247 42.9487 110.327 43.2938C110.077 42.2776 109.793 41.2697 109.476 40.2722C109.199 39.4 108.974 38.2929 108.21 37.6972C107.93 37.4797 107.528 37.3809 107.217 37.5512C106.873 37.7399 106.758 38.1722 106.701 38.5602C106.57 39.4446 106.566 40.3478 106.69 41.2332C106.81 42.0927 107.05 42.9569 106.922 43.8152C106.72 45.1617 105.451 45.9883 105.268 47.2664C105.095 48.4693 105.342 49.6883 105.588 50.8783C107.062 58.0102 108.535 65.1421 110.009 72.2741C103.019 70.5796 96.0285 68.885 89.0383 67.1905" fill="white"/>
<path d="M84.453 83.4659C90.2993 85.5161 96.1954 87.5741 102.331 88.5661C105.361 89.056 108.456 89.278 111.522 89.0691C114.356 88.876 117.228 88.2456 119.663 86.7262C121.686 85.4636 123.444 83.5582 123.931 81.1619C124.235 79.6662 124.298 78.0873 124.282 76.5649C124.266 75.0139 124.119 73.4662 123.877 71.9347C123.398 68.9068 122.653 65.907 121.786 62.9688C120.922 60.0449 119.896 57.1673 118.707 54.3598C118.407 53.6507 118.096 52.946 117.775 52.2458C117.486 51.6132 117.049 50.9298 117.051 50.2124C117.053 49.5309 117.457 48.983 117.723 48.3857C117.955 47.8653 117.967 47.2986 117.833 46.75C117.562 45.6361 116.799 44.5403 115.817 43.9389C114.744 43.2821 113.434 43.2528 112.217 43.3716C111.615 43.4305 111.018 43.534 110.423 43.6408C110.235 43.6745 110.03 43.592 109.979 43.3891C109.662 42.1066 109.285 40.8402 108.89 39.5798C108.731 39.0727 108.544 38.536 108.168 38.1451C108.001 37.9708 107.772 37.7905 107.513 37.8298C107.246 37.8704 107.155 38.1521 107.101 38.3803C106.767 39.7659 107.08 41.1561 107.261 42.5324C107.346 43.1804 107.356 43.85 107.12 44.4694C106.934 44.9574 106.646 45.3856 106.353 45.8146C106.075 46.2228 105.785 46.6419 105.662 47.1271C105.496 47.7842 105.558 48.5251 105.646 49.1898C105.837 50.6513 106.208 52.1 106.506 53.5427C107.108 56.4568 107.71 59.3709 108.313 62.2851C108.994 65.5826 109.675 68.8802 110.356 72.1777C110.412 72.4481 110.191 72.6885 109.913 72.6211C104.47 71.3016 99.0269 69.9821 93.5837 68.6625C92.0367 68.2875 90.4897 67.9125 88.9428 67.5375C88.4921 67.4283 88.683 66.733 89.1344 66.8424C94.5775 68.1619 100.021 69.4814 105.464 70.801C107.011 71.176 108.558 71.551 110.105 71.926L109.661 72.3694C108.378 66.1577 107.095 59.946 105.811 53.7343C105.496 52.2098 105.107 50.6797 104.918 49.1333C104.83 48.4178 104.789 47.6415 104.967 46.9355C105.098 46.4163 105.388 45.9559 105.685 45.5176C105.984 45.0779 106.315 44.6355 106.479 44.1238C106.705 43.416 106.566 42.6595 106.443 41.9458C106.312 41.1919 106.222 40.4389 106.243 39.6723C106.26 39.0549 106.276 38.3281 106.557 37.7628C106.872 37.1269 107.587 36.9544 108.203 37.2671C108.774 37.5573 109.123 38.1759 109.357 38.7453C109.618 39.3794 109.791 40.0561 109.99 40.7112C110.241 41.5337 110.468 42.3629 110.674 43.1975L110.231 42.9458C111.492 42.7196 112.79 42.4963 114.074 42.642C115.349 42.7866 116.476 43.3218 117.319 44.3013C118.103 45.2123 118.735 46.4515 118.633 47.6855C118.575 48.3706 118.242 48.9021 117.96 49.5107C117.826 49.7984 117.736 50.0972 117.79 50.416C117.854 50.7922 118.055 51.1403 118.213 51.4823C120.868 57.1984 122.865 63.2188 124.137 69.3918C124.786 72.5443 125.174 75.7487 124.923 78.9692C124.814 80.3653 124.656 81.7556 124.061 83.0378C123.537 84.1659 122.74 85.165 121.822 85.9976C117.373 90.0294 110.689 90.222 105.038 89.6455C98.6566 88.9947 92.5103 87.0273 86.4777 84.9351C85.7384 84.6787 84.9998 84.42 84.2613 84.161C83.8265 84.0085 84.0137 83.3118 84.453 83.4659Z" fill="black"/>
<path d="M107.509 44.9015C107.83 44.4397 108.262 44.0405 108.843 43.9739C109.388 43.9115 109.931 44.1749 110.144 44.6945C110.579 45.7625 109.561 46.9986 108.853 47.6874L108.502 47.085C109.426 46.9251 110.219 47.6763 110.738 48.357C111.282 49.0711 111.595 49.9164 111.675 50.8085C111.716 51.2703 110.995 51.2675 110.954 50.8085C110.894 50.1384 110.653 49.4989 110.277 48.943C110.089 48.6655 109.86 48.4158 109.607 48.1965C109.369 47.9905 109.031 47.7217 108.694 47.7801C108.36 47.8378 108.065 47.448 108.343 47.1777C108.84 46.6947 109.467 45.9951 109.517 45.2662C109.54 44.9219 109.333 44.6697 108.976 44.6828C108.611 44.6962 108.327 44.984 108.132 45.2653C107.869 45.6436 107.244 45.2837 107.509 44.9015Z" fill="black"/>
<path d="M118.495 48.5039C118.359 49.1176 117.695 49.4882 117.093 49.3616C116.421 49.2203 116.038 48.5578 116.006 47.9127L116.677 48.0946C116.28 48.6412 115.704 49.0875 114.99 48.9727C114.34 48.8684 113.846 48.1966 114.095 47.5482L114.754 47.8259C114.401 48.4485 113.67 48.7876 112.967 48.635C112.235 48.4761 111.735 47.7718 111.72 47.0438C111.711 46.5798 112.432 46.5798 112.441 47.0438C112.46 47.9868 113.675 48.2684 114.132 47.4621C114.327 47.1173 114.941 47.3498 114.79 47.7398C114.666 48.0634 114.94 48.2939 115.257 48.2708C115.597 48.2461 115.864 47.9936 116.055 47.7308C116.262 47.4453 116.708 47.5377 116.726 47.9127C116.741 48.2101 116.901 48.5657 117.214 48.6502C117.472 48.7197 117.743 48.5724 117.8 48.3123C117.901 47.8596 118.596 48.0511 118.495 48.5039Z" fill="black"/>
<path d="M110.134 71.1873C110.368 72.2756 110.632 73.3568 110.928 74.4297C111.052 74.8775 110.357 75.0686 110.233 74.6213C109.937 73.5484 109.673 72.4672 109.439 71.379C109.399 71.1888 109.496 70.9893 109.691 70.9356C109.871 70.8863 110.093 70.9961 110.134 71.1873Z" fill="black"/>
<path d="M100.41 88.5775C97.6893 88.2262 94.9374 87.3026 92.3239 86.4934C89.6473 85.6646 87.0013 84.741 84.3575 83.8137C84.3573 83.8137 84.3614 83.7999 84.3616 83.7993C85.1576 80.9724 85.9537 78.1455 86.7498 75.3187C87.5103 72.6182 88.3813 69.9119 89.034 67.1895C89.6229 67.3391 90.1889 67.1993 90.7748 67.292C91.6305 67.4274 92.5037 67.8725 93.3176 68.1641C93.4559 68.2137 93.5986 68.2658 93.7056 68.3666C93.821 68.4754 93.882 68.6285 93.9376 68.777C94.4843 70.2381 94.841 71.7703 94.9958 73.3227C95.1974 75.3442 95.0574 77.3843 95.1665 79.4129C95.2756 81.4415 95.6605 83.5222 96.7916 85.2097C97.4659 86.2158 98.4078 86.9159 99.2219 87.7856C99.3874 87.9624 99.5719 88.1444 99.7868 88.2609C100.002 88.3779 100.276 88.3683 100.41 88.5775Z" fill="black"/>
<path d="M100.409 88.9385C98.2583 88.6546 96.1718 88.0649 94.1031 87.4257C92.0104 86.7791 89.9238 86.1164 87.8509 85.4087C86.6522 84.9994 85.4567 84.581 84.2615 84.1619C84.0786 84.0977 83.9539 83.9169 84.0098 83.7185C85.2257 79.4007 86.4527 75.0869 87.6977 70.7773C88.0505 69.556 88.3886 68.3303 88.6863 67.0942C88.7334 66.8985 88.9445 66.8008 89.1296 66.8425C89.6007 66.9485 90.079 66.87 90.5558 66.9073C91 66.942 91.4307 67.0603 91.8493 67.2083C92.2944 67.3657 92.7268 67.5561 93.1673 67.7254C93.5374 67.8676 93.9169 67.9705 94.1321 68.3339C94.3604 68.7195 94.4777 69.2058 94.6102 69.6303C94.7485 70.0735 94.8696 70.5221 94.9735 70.9747C95.1854 71.8974 95.3245 72.8374 95.3961 73.7813C95.6671 77.3528 94.9553 81.3011 96.8147 84.5626C97.2883 85.3933 97.9456 86.048 98.6345 86.7005C98.9659 87.0144 99.2802 87.3431 99.6045 87.6638C99.7691 87.8266 99.9289 87.9424 100.148 88.0134C100.347 88.0777 100.531 88.1563 100.664 88.3233C100.951 88.6823 100.444 89.1956 100.155 88.833C100.057 88.7101 99.9057 88.6992 99.7645 88.6438C99.5783 88.5708 99.4191 88.4594 99.2665 88.3313C98.96 88.074 98.6982 87.7586 98.4096 87.4811C97.8082 86.903 97.1892 86.3455 96.6842 85.6772C95.6807 84.3494 95.1895 82.6872 94.9632 81.0585C94.7072 79.2162 94.7775 77.3573 94.7476 75.5031C94.717 73.6076 94.5031 71.7466 93.948 69.9284C93.872 69.6797 93.7907 69.4327 93.7041 69.1875C93.6257 68.9654 93.5715 68.671 93.3427 68.5602C92.9056 68.3487 92.4197 68.1924 91.9659 68.0177C91.4991 67.8379 91.0049 67.6553 90.5014 67.625C89.9744 67.5933 89.4593 67.6548 88.9381 67.5375L89.3814 67.2858C88.8574 69.4615 88.2061 71.6028 87.5772 73.7495C86.9413 75.9197 86.341 78.1005 85.728 80.2772C85.387 81.4882 85.0459 82.6992 84.7049 83.9101L84.4532 83.4668C88.532 84.8972 92.6301 86.3438 96.8072 87.4652C97.9919 87.7833 99.1926 88.0571 100.41 88.2177C100.604 88.2433 100.768 88.365 100.77 88.5781C100.772 88.7532 100.602 88.964 100.409 88.9385Z" fill="black"/>
<path d="M70.7523 104.962C69.5121 105.362 68.2594 105.723 66.9964 106.044C60.8454 107.605 54.3209 108.29 48.0271 107.229C45.1137 106.737 42.6077 106.191 39.9231 104.89C37.1325 103.537 34.4885 101.868 32.1286 99.8518C25.1273 93.8701 21.5635 84.7026 20.8387 75.6604C20.1902 68.7437 21.7475 61.492 25.7869 55.8103C25.8425 55.7321 25.8995 55.6508 25.9185 55.5567C25.9507 55.3967 25.8678 55.2386 25.7898 55.0952C24.4513 52.6339 23.7561 49.797 23.9735 46.9941C24.1921 44.1781 25.3299 41.4895 26.8939 39.1375C30.2605 34.0746 35.6019 30.4833 41.4127 28.6942C47.2234 26.905 53.4772 26.8381 59.4643 27.8965C63.6576 28.6379 67.9202 30.018 70.9672 32.9928C74.0142 35.9675 75.4953 40.8613 73.519 44.6333C79.0924 47.6191 83.9445 52.131 87.5424 57.358C90.3209 61.3945 92.5108 65.8952 93.4676 70.7012C95.4685 80.7509 91.5471 91.7575 83.6428 98.2782C79.8867 101.377 75.387 103.469 70.7523 104.962Z" fill="white"/>
<path d="M70.8484 105.31C64.8885 107.222 58.5675 108.367 52.2925 108.05C49.3304 107.9 46.3221 107.435 43.4681 106.62C40.6739 105.821 38.058 104.464 35.6234 102.893C33.2966 101.391 31.1285 99.6295 29.2721 97.5704C27.527 95.6349 26.0427 93.4684 24.8276 91.1644C22.4009 86.5631 21.0208 81.447 20.5325 76.2798C20.0119 70.7698 20.6574 65.21 22.9209 60.1239C23.4876 58.8506 24.1522 57.6205 24.914 56.4532C25.0921 56.1803 25.3223 55.9147 25.4759 55.6283C25.6382 55.3257 25.2977 54.9414 25.1577 54.6542C24.8367 53.9959 24.5581 53.3151 24.3284 52.6197C23.4181 49.8642 23.3346 46.901 24.1394 44.1103C25.6303 38.9408 29.541 34.6227 33.9868 31.7468C38.7546 28.6625 44.3575 27.137 50.0021 26.882C53.0767 26.7431 56.162 26.9739 59.1949 27.4859C61.8577 27.9354 64.5046 28.6163 66.9454 29.7937C69.2733 30.9166 71.4011 32.5319 72.8393 34.7032C74.1556 36.6905 74.9322 39.1327 74.7521 41.5284C74.6656 42.6793 74.3583 43.7886 73.8304 44.8152L73.7011 44.3221C78.3931 46.8468 82.5256 50.3783 85.8688 54.5188C89.3465 58.826 92.1611 63.8455 93.509 69.2407C94.6929 73.9797 94.5876 78.9752 93.3132 83.6851C92.0554 88.3339 89.6786 92.6919 86.3779 96.2056C82.6753 100.147 77.8458 102.802 72.806 104.639C72.1578 104.875 71.5048 105.097 70.8484 105.31C70.406 105.453 70.2164 104.757 70.6567 104.615C75.7389 102.971 80.7125 100.602 84.6441 96.9187C88.0876 93.6927 90.6526 89.5682 92.1361 85.0956C93.6115 80.6473 94.0425 75.8288 93.1986 71.2082C92.215 65.822 89.6614 60.7957 86.4302 56.416C83.3386 52.2256 79.4463 48.5844 74.987 45.8853C74.4453 45.5574 73.8948 45.2446 73.3372 44.9446C73.1593 44.8488 73.1214 44.6198 73.2079 44.4515C74.294 42.3395 74.2576 39.8735 73.5014 37.6603C72.7001 35.3149 71.1188 33.3439 69.1147 31.9078C66.9648 30.3672 64.4597 29.4152 61.9079 28.7795C59.1104 28.0826 56.2198 27.7023 53.3405 27.593C47.6559 27.3771 41.8768 28.3448 36.788 30.9604C32.2347 33.3007 28.2108 36.9216 25.9137 41.5464C24.6374 44.1161 24.0239 46.9754 24.4167 49.8363C24.6124 51.2621 25.0283 52.6666 25.63 53.9734C25.7768 54.2924 25.9413 54.601 26.1011 54.9133C26.2285 55.1624 26.3353 55.4156 26.251 55.6976C26.1701 55.9682 25.9506 56.1995 25.7943 56.4295C25.595 56.7227 25.4021 57.0203 25.2154 57.3217C22.3678 61.9183 21.039 67.3548 21.0573 72.7382C21.0746 77.8264 22.0962 83.0023 24.0121 87.7143C25.9286 92.428 28.8782 96.7122 32.8157 99.9597C35.039 101.793 37.5122 103.326 40.1051 104.579C42.6364 105.802 45.365 106.419 48.123 106.881C54.195 107.898 60.4442 107.281 66.3913 105.823C67.8271 105.471 69.2491 105.066 70.6567 104.615C71.0994 104.472 71.289 105.168 70.8484 105.31Z" fill="black"/>
<path d="M37.3236 47.7413C33.6892 48.9734 30.3927 51.1334 27.7919 53.9533C27.0518 54.7557 26.3725 55.61 25.756 56.5109C25.4957 56.8914 24.8708 56.5313 25.1336 56.1471C27.387 52.8536 30.4685 50.1452 34.0317 48.3452C35.0326 47.8395 36.0701 47.4062 37.132 47.0462C37.5722 46.897 37.7612 47.5929 37.3236 47.7413Z" fill="black"/>
<path d="M74.4587 45.5159C70.5328 43.6427 66.0846 42.7868 61.7446 43.1177C60.5323 43.2101 59.3318 43.4051 58.1527 43.7017C57.7027 43.8149 57.5107 43.1199 57.9611 43.0066C62.328 41.9082 67.0109 42.1832 71.2964 43.5116C72.5035 43.8857 73.682 44.3493 74.8225 44.8935C75.241 45.0931 74.8757 45.7148 74.4587 45.5159Z" fill="black"/>
<path d="M17.1565 121.272C17.1464 122.214 17.0339 123.155 16.8248 124.073C16.7816 124.263 16.5631 124.375 16.3815 124.325C16.1864 124.272 16.0864 124.072 16.1297 123.882C16.3251 123.024 16.4262 122.152 16.4356 121.272C16.4406 120.808 17.1614 120.807 17.1565 121.272Z" fill="black"/>
<path d="M29.9419 90.9257C27.2108 92.3152 24.4955 93.7359 21.7968 95.1874C19.209 96.5792 16.5913 97.8395 14.3741 99.7515C14.2444 99.8633 14.1085 99.9846 14.0608 100.149C14.0015 100.353 14.0929 100.568 14.1813 100.761C17.1847 107.332 19.0085 114.565 18.4912 121.771C18.4496 122.35 18.3733 122.974 17.9768 123.398C17.5802 123.822 16.7512 123.864 16.4978 123.342C16.3301 125.356 15.4057 127.606 14.1214 129.156C13.8953 129.429 13.6437 129.696 13.3195 129.839C12.8336 130.053 12.22 129.933 11.8505 129.552C11.481 129.17 11.381 128.553 11.6109 128.074C11.1869 128.605 10.61 129.194 9.94676 129.047C9.18932 128.879 8.97475 127.915 8.9393 127.14C8.52351 127.598 7.78702 127.724 7.24274 127.431C6.69844 127.138 6.39797 126.454 6.55059 125.855C6.137 126.287 5.3357 125.956 5.10669 125.404C4.87767 124.851 5.0354 124.222 5.19816 123.646C5.60843 122.195 6.71126 120.008 6.51427 118.491C6.434 117.873 6.16851 117.296 5.9076 116.73C4.0346 112.667 1.82907 108.355 0.81481 103.976C-0.571056 97.9934 1.23575 91.1304 5.67417 86.8234C8.31311 84.2626 12.1336 82.6562 15.3701 80.9686C18.9946 79.0788 22.6885 77.3223 26.442 75.7041" fill="white"/>
<path d="M30.123 91.2354C27.2656 92.6897 24.4326 94.1887 21.6037 95.6975C20.3326 96.3754 19.0504 97.0344 17.8111 97.7698C17.1809 98.1437 16.5619 98.5373 15.9643 98.9617C15.6755 99.1667 15.3914 99.3785 15.1151 99.6001C14.9179 99.7583 14.3651 100.073 14.4124 100.362C14.4644 100.678 14.6954 101.026 14.8246 101.32C14.9756 101.663 15.1229 102.007 15.2677 102.353C15.5613 103.055 15.8405 103.763 16.1043 104.476C16.6193 105.869 17.0755 107.284 17.4634 108.718C18.2438 111.602 18.7494 114.57 18.895 117.556C18.9353 118.383 18.9477 119.212 18.9306 120.04C18.9143 120.83 18.9042 121.639 18.7792 122.42C18.6755 123.068 18.3714 123.729 17.7255 123.981C17.1728 124.197 16.488 124.07 16.1858 123.522L16.8574 123.34C16.7144 124.951 16.1927 126.527 15.3943 127.931C14.7339 129.093 13.4673 131.041 11.8949 130.045C11.1622 129.581 10.9625 128.66 11.299 127.891L11.865 128.328C11.3086 129.016 10.431 129.777 9.50479 129.259C8.77974 128.853 8.61784 127.892 8.57814 127.139L9.19339 127.394C8.64732 127.957 7.75739 128.117 7.06007 127.741C6.35779 127.361 6.03441 126.518 6.20229 125.758L6.8047 126.108C6.09909 126.77 4.99525 126.237 4.72377 125.405C4.40818 124.438 4.90468 123.311 5.23385 122.406C5.58017 121.454 5.96654 120.494 6.12663 119.489C6.20242 119.013 6.19088 118.544 6.06031 118.079C5.9033 117.52 5.63593 116.996 5.39215 116.471C4.34785 114.222 3.26669 111.988 2.32512 109.693C1.42319 107.494 0.60103 105.207 0.229923 102.851C-0.401194 98.845 0.277536 94.6499 2.13001 91.042C3.04807 89.2539 4.27156 87.5957 5.76324 86.2439C7.40322 84.7577 9.3395 83.6413 11.2943 82.626C13.3468 81.5599 15.416 80.5189 17.483 79.4815C19.7877 78.3248 22.1191 77.2216 24.4749 76.1732C25.0682 75.9091 25.6631 75.6487 26.2594 75.3914C26.6809 75.2095 27.0484 75.8303 26.6232 76.0138C24.3433 76.9977 22.0849 78.0309 19.8508 79.1149C17.7325 80.1428 15.6512 81.2425 13.5447 82.2938C11.6393 83.2447 9.72215 84.2002 7.96865 85.4167C6.31199 86.5661 4.88927 87.9953 3.76929 89.6735C1.61316 92.9042 0.566433 96.8442 0.73484 100.718C0.828165 102.865 1.36242 104.941 2.05877 106.965C2.84321 109.246 3.83796 111.447 4.85647 113.631C5.3538 114.697 5.86569 115.758 6.34804 116.831C6.58084 117.349 6.79291 117.875 6.86752 118.442C6.92568 118.883 6.8844 119.326 6.80762 119.764C6.64141 120.71 6.2872 121.616 5.95893 122.515C5.80542 122.936 5.65246 123.357 5.53148 123.789C5.40098 124.254 5.20159 124.898 5.48263 125.348C5.63255 125.588 6.04525 125.833 6.29501 125.599C6.56293 125.347 6.97491 125.598 6.8974 125.949C6.79836 126.398 7.01044 126.902 7.42391 127.118C7.84373 127.337 8.36338 127.214 8.68372 126.884C8.91104 126.65 9.28307 126.837 9.29897 127.139C9.32387 127.611 9.38564 128.301 9.81125 128.601C10.3929 129.011 11.0354 128.214 11.3553 127.818C11.6343 127.473 12.0707 127.914 11.9214 128.255C11.6277 128.926 12.1991 129.662 12.9154 129.578C13.3258 129.53 13.6171 129.199 13.8658 128.9C14.1165 128.598 14.3413 128.275 14.5489 127.942C15.4085 126.563 15.9925 124.963 16.1366 123.34C16.1663 123.006 16.6226 122.822 16.8082 123.158C17.0393 123.577 17.6319 123.303 17.8298 123C18.1813 122.462 18.1417 121.682 18.173 121.067C18.247 119.61 18.227 118.149 18.1219 116.694C17.9135 113.809 17.364 110.955 16.5638 108.177C16.1627 106.785 15.6983 105.41 15.1793 104.057C14.9181 103.377 14.6432 102.701 14.354 102.032C14.2106 101.7 14.0633 101.369 13.9143 101.04C13.7738 100.729 13.6139 100.401 13.7124 100.052C13.7971 99.7513 14.0511 99.55 14.2794 99.3581C14.5447 99.1351 14.8167 98.9203 15.093 98.7111C15.6498 98.2896 16.2288 97.8983 16.8209 97.5284C18.0258 96.7756 19.2831 96.1122 20.5379 95.4477C23.6054 93.8231 26.6655 92.1876 29.7592 90.613C30.1718 90.403 30.537 91.0247 30.123 91.2354Z" fill="black"/>
<path d="M99.778 21.0303C100.667 22.4219 101.758 23.6875 102.522 25.1583C102.926 25.9368 102.907 26.3034 102.855 27.1285C102.809 27.8446 102.9 28.6607 103.421 29.2007C103.68 29.4697 104.023 29.6433 104.371 29.7793C105.38 30.1737 106.517 30.2857 107.556 29.9806C108.337 29.7514 109.407 29.1507 109.715 28.3384C109.95 27.718 109.756 27.0337 109.888 26.4007C110.021 25.7648 110.346 25.055 110.701 24.5103C111.112 23.8786 111.656 23.3465 112.196 22.82C113.691 21.3606 115.561 19.6886 116.133 17.6076C116.465 16.4001 116.452 15.1225 116.315 13.8778C115.838 9.55254 112.343 6.81941 108.138 6.39954C105.994 6.18551 103.766 6.52846 101.883 7.57617C98.9617 9.20225 97.4242 12.3302 97.7656 15.6369C97.9645 17.5631 98.7353 19.3987 99.778 21.0303Z" fill="#8683FF"/>
<path d="M107.674 35.0788C106.998 35.2481 106.301 35.3446 105.608 35.2939C104.816 35.236 104.025 34.9759 103.412 34.4702C103.232 34.3218 103.063 34.1442 102.997 33.9209C102.867 33.49 103.149 33.0111 103.006 32.5844C102.944 32.4007 102.81 32.2495 102.739 32.0693C102.642 31.8235 102.675 31.5304 102.825 31.3125C102.896 31.2088 102.991 31.1217 103.051 31.0106C103.165 30.7973 103.126 30.5351 103.051 30.3053C102.976 30.0754 102.867 29.8523 102.847 29.6113C102.781 28.7902 103.655 28.5776 104.233 28.2994C104.459 28.1905 104.691 28.0864 104.939 28.0421C105.172 28.0003 105.411 28.013 105.647 28.0274C106.388 28.0725 107.129 28.1328 107.867 28.2081C108.566 28.2794 109.354 28.4181 109.768 29.0623C109.956 29.3552 110.007 29.7507 109.835 30.0531C109.745 30.2103 109.599 30.3427 109.568 30.5208C109.538 30.6958 109.626 30.8664 109.696 31.0296C109.763 31.1861 109.816 31.349 109.852 31.5153C109.894 31.7059 109.911 31.9097 109.846 32.0971C109.772 32.309 109.588 32.3893 109.476 32.5701C109.334 32.7984 109.43 33.0928 109.419 33.3612C109.399 33.8379 109.052 34.0114 108.821 34.3596C108.585 34.7159 108.396 34.88 107.96 35.0026C107.866 35.0294 107.77 35.0548 107.674 35.0788Z" fill="#8683FF"/>
<path d="M104.37 29.7792C105.379 30.1736 106.516 30.2856 107.556 29.9805C107.9 29.8795 109.756 29.1111 109.358 28.6142C109.263 28.4949 109.104 28.4505 108.955 28.4162C107.253 28.0238 105.452 28.0716 103.773 28.5535C103.633 28.5935 103.491 28.6381 103.376 28.7258C103.326 28.7635 103.281 28.8103 103.258 28.8684C103.092 29.2869 104.102 29.6744 104.37 29.7792Z" fill="black"/>
<path d="M104.466 29.4316C105.412 29.7911 106.477 29.9366 107.46 29.6329C107.904 29.4958 108.344 29.2789 108.732 29.0243C108.824 28.9635 108.916 28.8995 108.992 28.8179C109.006 28.8028 109.04 28.7468 109.053 28.7424C109.095 28.7284 109.039 28.6887 109.058 28.7315C109.058 28.7323 109.054 28.8009 109.058 28.7985C109.051 28.8028 109.076 28.82 109.063 28.8286C109.061 28.83 108.977 28.794 108.971 28.7929C108.863 28.7692 108.755 28.7396 108.646 28.7169C108.375 28.6607 108.101 28.6143 107.826 28.5824C106.793 28.4624 105.738 28.4955 104.717 28.6963C104.418 28.7551 104.119 28.8243 103.827 28.9135C103.798 28.9223 103.587 29.0146 103.6 28.9534C103.603 28.9395 103.661 29.0079 103.676 29.0189C103.916 29.1985 104.187 29.3227 104.466 29.4316C104.893 29.5985 104.707 30.2959 104.274 30.1267C103.911 29.9848 103.542 29.8342 103.236 29.5869C102.86 29.2833 102.728 28.7765 103.157 28.4428C103.38 28.2695 103.672 28.2036 103.94 28.1343C104.293 28.0433 104.65 27.9713 105.01 27.918C105.69 27.8174 106.377 27.7735 107.065 27.802C107.738 27.8299 108.436 27.9048 109.088 28.0778C109.492 28.1849 109.888 28.4914 109.743 28.9552C109.639 29.2886 109.301 29.5194 109.021 29.6946C108.696 29.8973 108.345 30.0577 107.991 30.2024C106.811 30.6851 105.448 30.5728 104.274 30.1267C103.845 29.9635 104.031 29.2663 104.466 29.4316Z" fill="black"/>
<path d="M109.466 31.6698C108.86 32.1236 108.112 32.3705 107.357 32.3941C107.168 32.3999 106.988 32.2241 106.996 32.0336C107.005 31.8333 107.155 31.6795 107.357 31.6732C107.445 31.6705 107.532 31.6651 107.62 31.6557C107.642 31.6534 107.663 31.6508 107.685 31.6481C107.644 31.6536 107.644 31.6533 107.687 31.647C107.719 31.6412 107.752 31.6363 107.784 31.6302C107.952 31.5988 108.116 31.5546 108.277 31.4983C108.313 31.4856 108.349 31.4723 108.385 31.4584C108.406 31.4505 108.426 31.4423 108.446 31.4339C108.411 31.449 108.412 31.4481 108.451 31.4313C108.526 31.3965 108.6 31.3615 108.673 31.3225C108.823 31.2419 108.966 31.1495 109.102 31.0474C109.254 30.934 109.511 31.0179 109.595 31.1767C109.695 31.3658 109.628 31.5487 109.466 31.6698Z" fill="black"/>
<path d="M104.149 32.1149C103.838 32.1126 103.518 32.0197 103.263 31.8402C103.185 31.7853 103.123 31.7197 103.097 31.6248C103.073 31.5386 103.084 31.4237 103.134 31.3471C103.183 31.2702 103.257 31.2024 103.349 31.1815C103.439 31.161 103.548 31.1627 103.627 31.2178C103.7 31.269 103.777 31.312 103.859 31.347L103.773 31.3106C103.874 31.3525 103.98 31.3812 104.088 31.3963L103.992 31.3834C104.044 31.3901 104.097 31.3937 104.149 31.3941C104.242 31.3948 104.338 31.4338 104.404 31.4996C104.466 31.5621 104.514 31.6647 104.51 31.7545C104.505 31.8477 104.475 31.9444 104.404 32.0093C104.334 32.0738 104.247 32.1156 104.149 32.1149Z" fill="black"/>
<path d="M106.618 34.0174C106.508 34.0461 106.393 34.0623 106.279 34.0672C106.164 34.0721 106.05 34.0576 105.937 34.0384C105.89 34.0273 105.85 34.0058 105.815 33.9739C105.776 33.9485 105.745 33.9148 105.722 33.8728C105.696 33.8314 105.681 33.7868 105.679 33.7388C105.668 33.6909 105.671 33.643 105.686 33.5951C105.714 33.5079 105.768 33.4237 105.851 33.3797L105.937 33.3434C106.001 33.3262 106.065 33.3262 106.129 33.3434C106.144 33.3459 106.159 33.3482 106.174 33.3503L106.078 33.3375C106.178 33.3504 106.279 33.3504 106.379 33.3377L106.283 33.3506C106.332 33.344 106.38 33.3346 106.427 33.3223C106.518 33.2986 106.623 33.3108 106.705 33.3587C106.747 33.3813 106.78 33.4123 106.806 33.4515C106.837 33.4863 106.859 33.5272 106.87 33.5741C106.891 33.6663 106.887 33.7699 106.834 33.8518C106.783 33.9302 106.711 33.9934 106.618 34.0174Z" fill="black"/>
<path d="M107.104 35.1749C107.115 35.7029 106.595 36.0387 106.11 36.023C105.859 36.0149 105.622 35.9287 105.435 35.7602C105.258 35.6023 105.162 35.3728 105.151 35.139C105.143 34.9504 105.323 34.7702 105.512 34.7786C105.714 34.7877 105.863 34.937 105.872 35.139C105.873 35.1573 105.874 35.1751 105.877 35.1933L105.864 35.0975C105.868 35.1243 105.874 35.1507 105.883 35.1766C105.887 35.1896 105.904 35.2322 105.881 35.1758C105.858 35.1197 105.876 35.1615 105.882 35.1737C105.89 35.1871 105.898 35.1996 105.906 35.2128C105.931 35.2587 105.887 35.1813 105.881 35.1842C105.882 35.1842 105.935 35.2418 105.938 35.2443C105.947 35.2535 105.983 35.2818 105.936 35.2457C105.888 35.2094 105.925 35.2371 105.936 35.2444C105.952 35.2547 105.996 35.2915 106.015 35.2884C106.01 35.2894 105.936 35.2594 105.986 35.275C105.999 35.2791 106.012 35.2836 106.025 35.2874C106.057 35.2968 106.091 35.3032 106.124 35.3083L106.029 35.2954C106.104 35.3047 106.178 35.304 106.253 35.294L106.157 35.3069C106.21 35.2985 106.26 35.2847 106.311 35.2683C106.346 35.2546 106.336 35.2591 106.28 35.2817C106.292 35.276 106.304 35.27 106.315 35.2636C106.327 35.2572 106.338 35.2504 106.349 35.2432C106.379 35.222 106.371 35.2291 106.324 35.2646C106.337 35.2462 106.362 35.2282 106.379 35.2117C106.402 35.1833 106.395 35.1928 106.357 35.24C106.364 35.2296 106.371 35.219 106.377 35.208C106.384 35.1971 106.39 35.186 106.395 35.1746C106.372 35.2323 106.366 35.2435 106.379 35.2082C106.384 35.1837 106.391 35.1603 106.394 35.1352L106.382 35.231C106.383 35.212 106.384 35.1939 106.383 35.1749C106.379 34.9862 106.552 34.8058 106.744 34.8144C106.942 34.8233 107.1 34.9728 107.104 35.1749Z" fill="black"/>
<path d="M107.331 28.9305C107.266 26.416 107.673 23.9253 108.11 21.4578C108.314 20.3063 108.506 19.1487 108.816 18.0199C108.974 17.4468 109.164 16.8844 109.397 16.3372C109.575 15.9161 109.89 15.4631 110.416 15.6249C110.945 15.7871 110.883 16.4055 110.555 16.7248C110.2 17.0703 109.606 17.1808 109.134 17.24C108.004 17.3816 106.896 17.075 105.787 16.9058C105.494 16.861 105.198 16.8291 104.901 16.8209C104.712 16.8156 104.363 16.7746 104.21 16.9187C104.155 16.9706 104.183 16.9802 104.157 17.0223C104.148 17.0357 104.174 17.0486 104.173 17.0594C104.178 16.9853 104.054 17.0588 104.184 17.009C104.425 16.9163 104.695 17.073 104.803 17.2824C104.926 17.5189 104.929 17.8411 104.97 18.101C105.02 18.4241 105.069 18.7476 105.114 19.0714C105.2 19.6748 105.278 20.2792 105.347 20.8847C105.665 23.6759 105.799 26.4865 105.754 29.2953C105.746 29.7587 105.025 29.7601 105.033 29.2953C105.071 26.9482 104.984 24.6 104.768 22.2625C104.661 21.1068 104.524 19.954 104.353 18.8061C104.311 18.5206 104.266 18.2355 104.22 17.9506C104.212 17.9025 104.143 17.5961 104.157 17.5883C104.115 17.6114 104.416 17.6597 104.224 17.7367C104.18 17.7541 104.115 17.7514 104.068 17.7489C103.659 17.7271 103.419 17.3215 103.438 16.9443C103.493 15.8846 105.029 16.0807 105.713 16.1727C106.782 16.3164 107.845 16.6353 108.933 16.5408C109.169 16.5203 109.402 16.4747 109.629 16.4038C109.747 16.3666 109.884 16.3265 109.988 16.2571C110.004 16.2469 110.089 16.1674 110.091 16.1673C110.137 16.1662 110.202 16.3133 110.201 16.3314C110.196 16.4031 110.06 16.6041 110.031 16.6719C109.983 16.7886 109.937 16.9067 109.892 17.0251C109.797 17.2788 109.711 17.5357 109.632 17.7948C109.309 18.8532 109.109 19.9436 108.915 21.0314C108.449 23.6419 107.983 26.2681 108.052 28.9305C108.064 29.3945 107.343 29.3942 107.331 28.9305Z" fill="black"/>
<path d="M107.684 0.360703C107.712 0.965458 107.741 1.57021 107.769 2.17497C107.778 2.36356 107.597 2.54381 107.409 2.53538C107.206 2.5263 107.058 2.37701 107.048 2.17497C107.02 1.57021 106.991 0.965458 106.963 0.360703C106.954 0.172116 107.135 -0.00814199 107.323 0.000284266C107.526 0.0093714 107.674 0.158662 107.684 0.360703Z" fill="black"/>
<path d="M117.311 3.66739C116.974 4.00831 116.637 4.34926 116.301 4.69018C116.168 4.82455 115.922 4.833 115.791 4.69018C115.658 4.54554 115.65 4.32386 115.791 4.18047C116.128 3.83955 116.464 3.4986 116.801 3.15768C116.934 3.02331 117.18 3.01486 117.311 3.15768C117.443 3.30232 117.452 3.524 117.311 3.66739Z" fill="black"/>
<path d="M121.721 13.3292L120.633 13.4781C120.532 13.4918 120.447 13.4953 120.355 13.4418C120.28 13.398 120.209 13.3123 120.189 13.2264C120.168 13.1341 120.173 13.0305 120.226 12.9486C120.273 12.8758 120.351 12.7953 120.441 12.783L121.53 12.6342C121.63 12.6204 121.716 12.6169 121.807 12.6705C121.882 12.7142 121.953 12.7999 121.973 12.8859C121.994 12.9781 121.989 13.0817 121.937 13.1636C121.89 13.2364 121.811 13.3169 121.721 13.3292Z" fill="black"/>
<path d="M118.979 22.8267C118.42 22.3698 117.861 21.9129 117.302 21.4561C117.156 21.3362 117.168 21.069 117.302 20.9464C117.458 20.8034 117.655 20.8185 117.812 20.9464C118.371 21.4032 118.93 21.8601 119.489 22.317C119.635 22.4368 119.622 22.704 119.489 22.8267C119.333 22.9696 119.135 22.9545 118.979 22.8267Z" fill="black"/>
<path d="M97.3591 4.60826C97.301 4.51338 97.238 4.42182 97.1703 4.33354L97.2266 4.40648C97.0662 4.19967 96.8808 4.0141 96.6743 3.85337L96.7472 3.90973C96.659 3.8419 96.5675 3.77878 96.4728 3.72053C96.3122 3.62184 96.2364 3.39353 96.3435 3.22741C96.4473 3.06632 96.6647 2.9925 96.8366 3.09812C97.3023 3.38438 97.6959 3.77833 97.9815 4.24444C98.0802 4.40539 98.0219 4.64794 97.8522 4.73756C97.6765 4.83041 97.4644 4.78007 97.3591 4.60826Z" fill="black"/>
<path d="M96.1691 13.0482C95.4664 13.1726 94.7542 13.2299 94.0408 13.2077C93.8525 13.2019 93.6714 13.0461 93.6803 12.8473C93.6889 12.6571 93.8389 12.4806 94.0408 12.4869C94.3744 12.4973 94.7083 12.4917 95.0413 12.4684C95.2045 12.4569 95.3674 12.4414 95.5298 12.4217C95.5278 12.422 95.6443 12.4072 95.5897 12.4145C95.6286 12.4093 95.6675 12.4036 95.7063 12.3977C95.7969 12.3842 95.8873 12.3691 95.9775 12.3532C96.1624 12.3204 96.3748 12.4029 96.4208 12.6049C96.4608 12.7805 96.3676 13.0131 96.1691 13.0482Z" fill="black"/>
<path d="M98.216 22.176C97.7872 22.6647 97.2968 23.0945 96.7638 23.4664C96.6087 23.5747 96.3566 23.4998 96.2707 23.3371C96.1733 23.1528 96.2345 22.9595 96.4 22.844C96.4608 22.8015 96.5212 22.7584 96.5809 22.7142C96.6135 22.6901 96.6453 22.6615 96.6797 22.6398C96.6617 22.6511 96.6295 22.6792 96.6654 22.6508C96.6816 22.638 96.6979 22.6253 96.714 22.6125C96.8335 22.5176 96.9501 22.4191 97.0636 22.3172C97.2907 22.1133 97.505 21.8956 97.7063 21.6662C97.8311 21.5241 98.0902 21.5292 98.216 21.6662C98.3552 21.8178 98.3491 22.0243 98.216 22.176Z" fill="black"/>
<path d="M104.378 8.70432C103.77 8.05989 101.682 9.40511 101.727 10.1698C101.743 10.4425 101.994 10.718 102.259 10.6512C102.394 10.6171 102.495 10.5075 102.592 10.4067C102.893 10.0911 103.239 9.80825 103.642 9.63982C103.861 9.54853 104.1 9.48801 104.278 9.33183C104.456 9.17565 104.541 8.8765 104.378 8.70432Z" fill="white"/>
<path d="M104.123 8.95871C104.121 8.95598 104.084 8.91866 104.083 8.92027C104.061 8.93993 104.159 8.96632 104.111 8.94342C104.096 8.93627 104.076 8.92499 104.063 8.91533C104.013 8.87972 104.097 8.93757 104.097 8.92853C104.098 8.92036 104.016 8.90382 104.004 8.90058C103.937 8.88109 103.999 8.88104 104.02 8.90025C104.014 8.89442 103.965 8.89584 103.957 8.89546C103.92 8.89388 103.883 8.89456 103.847 8.89678C103.824 8.89815 103.801 8.90247 103.778 8.90292C103.865 8.90122 103.828 8.89435 103.803 8.89999C103.712 8.92074 103.621 8.93816 103.532 8.96674C103.489 8.98043 103.447 8.99542 103.404 9.01142C103.379 9.02126 103.353 9.03158 103.327 9.0421C103.339 9.03743 103.396 9.01059 103.336 9.0392C103.24 9.08464 103.145 9.13047 103.053 9.18271C102.968 9.23086 102.885 9.28241 102.804 9.33712C102.764 9.36433 102.724 9.39232 102.685 9.4211C102.674 9.42905 102.598 9.48896 102.666 9.43455C102.644 9.45228 102.621 9.47003 102.6 9.4882C102.529 9.54678 102.46 9.60824 102.395 9.67306C102.364 9.70384 102.334 9.73535 102.305 9.76773C102.287 9.78702 102.187 9.91357 102.25 9.82811C102.205 9.8886 102.163 9.95028 102.128 10.0168C102.121 10.0299 102.115 10.0521 102.105 10.063C102.076 10.0943 102.132 9.9774 102.114 10.0408C102.104 10.0759 102.094 10.1126 102.084 10.1472C102.066 10.2041 102.096 10.1012 102.089 10.1029C102.086 10.1035 102.086 10.1492 102.087 10.1529C102.094 10.1908 102.086 10.1546 102.085 10.1477C102.085 10.15 102.125 10.2554 102.1 10.2042C102.132 10.2708 102.124 10.2667 102.182 10.3072C102.137 10.2759 102.199 10.3071 102.2 10.3104C102.186 10.2992 102.17 10.2955 102.152 10.2994C102.196 10.2988 102.199 10.3 102.164 10.3032C102.152 10.306 102.123 10.362 102.191 10.2907C102.268 10.2093 102.165 10.322 102.248 10.2422C102.301 10.192 102.349 10.1379 102.4 10.0865C102.517 9.96854 102.64 9.85719 102.771 9.75402C103.071 9.51622 103.386 9.35168 103.743 9.21601C103.861 9.171 103.998 9.12051 104.074 9.02561C104.042 9.0649 104.077 9.01649 104.08 9.0097C104.1 8.97094 104.103 8.96662 104.089 8.99676C104.097 8.9742 104.104 8.95121 104.108 8.92777C104.101 8.97319 104.118 8.93724 104.104 8.9197C104.111 8.95919 104.11 8.95796 104.1 8.91602C104.103 8.93315 104.11 8.94743 104.123 8.95871C103.998 8.80994 103.978 8.59487 104.124 8.44896C104.252 8.32028 104.507 8.29939 104.633 8.44896C104.917 8.78559 104.863 9.27308 104.546 9.57393C104.255 9.85008 103.848 9.91006 103.523 10.1028C103.371 10.1933 103.238 10.292 103.107 10.409C102.964 10.5361 102.841 10.686 102.695 10.8083C102.515 10.9585 102.306 11.0448 102.07 11.0092C101.841 10.9749 101.659 10.833 101.528 10.6485C101.175 10.1543 101.47 9.60081 101.83 9.21998C102.191 8.8378 102.652 8.54607 103.136 8.34695C103.604 8.15416 104.239 8.04672 104.633 8.44896C104.958 8.78037 104.449 9.29052 104.123 8.95871Z" fill="white"/>
<path d="M100.641 12.4849C100.331 12.9206 99.7718 12.4772 100.014 12.0655C100.283 11.607 100.982 12.0041 100.641 12.4849Z" fill="white"/>
<path d="M100.951 12.6671C100.918 12.7133 100.884 12.7605 100.844 12.8016C100.806 12.8407 100.76 12.8744 100.717 12.9058C100.658 12.9488 100.587 12.9794 100.517 12.9995C100.448 13.0193 100.371 13.0305 100.299 13.0235C100.25 13.0187 100.2 13.0138 100.153 13.0018C100.105 12.9898 100.056 12.9666 100.013 12.9472C99.8851 12.89 99.779 12.7811 99.7047 12.6646C99.6293 12.5464 99.5842 12.3859 99.5947 12.2455C99.6004 12.1688 99.6106 12.092 99.6398 12.0206C99.6608 11.9695 99.6805 11.9176 99.71 11.8706C99.7381 11.8259 99.7714 11.7843 99.8054 11.7441C99.8932 11.6401 100.028 11.5599 100.16 11.5266C100.289 11.494 100.433 11.4938 100.56 11.534C100.685 11.5733 100.808 11.6415 100.896 11.7391C100.942 11.7901 100.987 11.8466 101.016 11.9097C101.062 12.0123 101.085 12.0913 101.092 12.2056C101.102 12.3646 101.042 12.538 100.951 12.6671C100.896 12.7453 100.831 12.8066 100.736 12.8327C100.65 12.8565 100.535 12.8457 100.458 12.7964C100.381 12.7467 100.314 12.6729 100.293 12.581C100.272 12.4908 100.274 12.3819 100.329 12.3032C100.352 12.2703 100.372 12.2358 100.388 12.1989L100.352 12.285C100.366 12.2507 100.376 12.2154 100.381 12.1787L100.369 12.2745C100.372 12.2434 100.373 12.2126 100.369 12.1815L100.382 12.2773C100.378 12.2482 100.37 12.2201 100.359 12.1927L100.396 12.2788C100.384 12.2506 100.368 12.2244 100.35 12.1999L100.406 12.2728C100.385 12.2457 100.361 12.2217 100.334 12.2007L100.407 12.2571C100.379 12.2363 100.35 12.2192 100.318 12.2057L100.404 12.242C100.372 12.2288 100.339 12.2195 100.304 12.2144L100.4 12.2273C100.365 12.2226 100.331 12.2224 100.296 12.2268L100.392 12.2139C100.36 12.2184 100.33 12.2267 100.3 12.2388L100.386 12.2025C100.358 12.2149 100.331 12.2306 100.306 12.2495L100.379 12.1931C100.35 12.2157 100.324 12.2416 100.302 12.2706L100.358 12.1977C100.334 12.229 100.315 12.2625 100.299 12.2984L100.335 12.2123C100.32 12.247 100.31 12.2828 100.305 12.3201L100.318 12.2243C100.314 12.2568 100.314 12.289 100.318 12.3215L100.305 12.2257C100.31 12.2613 100.319 12.2956 100.333 12.3287L100.296 12.2426C100.311 12.2749 100.328 12.3049 100.35 12.3328L100.293 12.2598C100.315 12.2871 100.34 12.3113 100.367 12.3326L100.294 12.2763C100.32 12.2956 100.347 12.3118 100.377 12.3248L100.291 12.2884C100.32 12.3008 100.35 12.3094 100.382 12.314L100.286 12.3012C100.316 12.305 100.346 12.305 100.376 12.3012L100.28 12.314C100.309 12.3097 100.337 12.3019 100.364 12.2907L100.278 12.327C100.307 12.3142 100.334 12.298 100.36 12.2787L100.287 12.3351C100.317 12.3108 100.344 12.283 100.369 12.2524L100.312 12.3254C100.318 12.3181 100.324 12.3107 100.329 12.3032C100.352 12.2613 100.383 12.2275 100.422 12.2021C100.457 12.1703 100.497 12.1488 100.544 12.1376C100.631 12.1139 100.746 12.1246 100.822 12.174C100.899 12.2236 100.967 12.2974 100.988 12.3894C101.008 12.4786 101.007 12.5897 100.951 12.6671Z" fill="white"/>
<path d="M21.648 153.101C21.6798 151.857 20.8643 150.657 19.7037 150.206C19.4302 150.1 19.1022 150.002 18.8054 150.028C18.4344 150.061 18.4133 150.613 18.3913 150.906C18.3344 151.661 18.529 152.396 18.9343 153.034L18.2756 153.311C18.1583 152.732 17.7413 152.241 17.1602 152.085C16.5762 151.929 15.913 152.187 15.5607 152.673C15.1404 153.252 15.2241 154.061 15.4945 154.685C15.7906 155.367 16.3065 155.928 16.7989 156.473L16.1965 156.824C16.1403 156.449 15.7846 156.327 15.4399 156.315C14.9782 156.3 14.5287 156.509 14.1838 156.808C13.8225 157.121 13.5565 157.555 13.5665 158.045C13.576 158.513 13.8134 158.939 14.235 159.15L13.8712 159.772C12.971 159.266 11.8169 159.3 10.9644 159.894C10.1567 160.458 9.75003 161.459 9.83892 162.424C9.88142 162.886 9.16033 162.883 9.11808 162.424C9.00526 161.199 9.59229 159.971 10.6005 159.272C11.6625 158.535 13.123 158.524 14.235 159.15C14.6425 159.379 14.2833 159.978 13.8712 159.772C13.2482 159.461 12.8927 158.806 12.849 158.125C12.8022 157.397 13.1867 156.696 13.7399 156.243C14.2553 155.821 14.9058 155.536 15.5822 155.604C16.1761 155.664 16.7949 155.988 16.8915 156.632C16.9397 156.953 16.5567 157.28 16.2891 156.983C15.6487 156.274 14.9882 155.53 14.6976 154.6C14.4266 153.732 14.5149 152.726 15.1535 152.039C15.7141 151.435 16.6385 151.159 17.43 151.413C18.2027 151.661 18.8093 152.323 18.9706 153.12C19.0508 153.516 18.5375 153.752 18.3119 153.397C17.7878 152.574 17.5682 151.584 17.7026 150.617C17.7648 150.169 17.8807 149.66 18.313 149.427C18.6907 149.223 19.1865 149.307 19.5817 149.41C21.1996 149.835 22.4116 151.428 22.3688 153.101C22.3569 153.564 21.6361 153.565 21.648 153.101Z" fill="black"/>
<path d="M20.3156 160.777C20.2462 160.771 20.1774 160.773 20.1083 160.782L20.2041 160.769C20.1215 160.781 20.0417 160.804 19.9646 160.836L20.0507 160.799C19.9695 160.834 19.8939 160.879 19.8239 160.933L19.8968 160.876C19.8313 160.928 19.7728 160.987 19.7217 161.053L19.778 160.98C19.7335 161.04 19.6963 161.103 19.6667 161.171L19.703 161.085C19.6977 161.098 19.6926 161.111 19.6877 161.124C19.6538 161.214 19.6077 161.289 19.5221 161.339C19.4448 161.384 19.331 161.404 19.2444 161.376C19.1572 161.347 19.073 161.293 19.029 161.21C18.9861 161.129 18.9589 161.022 18.9927 160.932C19.0523 160.774 19.1264 160.647 19.2335 160.516C19.3184 160.413 19.4271 160.326 19.5395 160.254C19.7636 160.112 20.0498 160.032 20.3156 160.057C20.4131 160.065 20.4991 160.091 20.5705 160.162C20.633 160.225 20.6801 160.327 20.676 160.417C20.6719 160.51 20.6412 160.607 20.5705 160.672C20.5037 160.733 20.4096 160.786 20.3156 160.777Z" fill="black"/>
<path d="M94.5895 155.606C95.759 155.021 97.4619 154.539 98.3826 155.806C99.207 156.941 98.5123 158.603 97.119 158.8C96.9388 158.826 96.7696 158.771 96.6939 158.591C96.63 158.44 96.6779 158.216 96.8413 158.141C98.0484 157.587 99.685 157.365 100.735 158.371C101.548 159.15 101.784 160.549 100.963 161.406L100.612 160.804C102.028 160.326 103.88 159.911 105.03 161.184C105.466 161.668 105.646 162.296 105.496 162.934C105.356 163.527 104.925 164.037 104.323 164.185C103.873 164.295 103.68 163.6 104.131 163.49C104.53 163.392 104.77 163.032 104.823 162.636C104.885 162.17 104.648 161.748 104.281 161.472C103.257 160.701 101.895 161.13 100.804 161.499C100.45 161.618 100.216 161.144 100.453 160.896C101.019 160.306 100.735 159.317 100.17 158.83C99.3615 158.132 98.0897 158.357 97.2051 158.764L96.9274 158.105C97.8756 157.971 98.4011 156.866 97.7101 156.115C96.9959 155.339 95.732 155.839 94.9532 156.228C94.5396 156.435 94.1741 155.814 94.5895 155.606Z" fill="black"/>
<path d="M76.6362 59.3849C76.6264 59.3957 76.6169 59.4067 76.6076 59.418C76.6391 59.376 76.6468 59.366 76.6307 59.3878C76.618 59.4091 76.6019 59.4288 76.5888 59.45C76.5683 59.4832 76.554 59.5337 76.5292 59.5627C76.5702 59.5147 76.5506 59.5088 76.5343 59.5553C76.5273 59.5753 76.5209 59.5955 76.5152 59.6159C76.5084 59.6397 76.5026 59.6637 76.4975 59.6879C76.4945 59.7023 76.486 59.7788 76.4912 59.7133C76.4968 59.6441 76.4895 59.7379 76.4886 59.7502C76.4871 59.7716 76.4863 59.793 76.486 59.8144C76.4853 59.8575 76.487 59.9006 76.4907 59.9435C76.492 59.9578 76.4935 59.9721 76.4952 59.9864C76.4872 59.93 76.4855 59.9159 76.49 59.9442C76.4954 59.965 76.4975 59.9871 76.502 60.0082C76.5118 60.0542 76.524 60.0997 76.5385 60.1445C76.5453 60.1652 76.5532 60.1855 76.5601 60.2061C76.5838 60.276 76.5273 60.1385 76.5571 60.2002C76.5777 60.2426 76.5981 60.2844 76.622 60.325C76.6434 60.3614 76.6845 60.4026 76.6995 60.4416C76.6763 60.3811 76.6663 60.4001 76.6968 60.4353C76.7108 60.4514 76.7252 60.4672 76.74 60.4825C76.7548 60.4978 76.77 60.5127 76.7856 60.5271C76.7961 60.5368 76.8666 60.5865 76.8138 60.5538C76.759 60.5199 76.836 60.5689 76.8457 60.5754C76.8634 60.5871 76.8814 60.5983 76.8997 60.6088C76.9181 60.6194 76.9369 60.6294 76.9559 60.6387C76.9654 60.6435 76.9751 60.648 76.9848 60.6523C77.0099 60.6636 76.9977 60.6583 76.9479 60.6366C76.9858 60.634 77.055 60.671 77.0931 60.6794L76.6369 61.027C76.6373 61.0082 76.6376 60.9895 76.637 60.9708C76.637 60.9683 76.6327 60.8781 76.6365 60.9349C76.6398 60.9843 76.6341 60.9242 76.6319 60.9137C76.6282 60.8954 76.6239 60.8772 76.6191 60.8592C76.6131 60.8365 76.6053 60.8145 76.5987 60.7921C76.5871 60.7527 76.5916 60.7739 76.604 60.7999C76.5858 60.7618 76.5673 60.7243 76.5452 60.6881C76.5356 60.6723 76.5237 60.6572 76.5147 60.641C76.491 60.5981 76.553 60.6832 76.5203 60.6467C76.4922 60.6152 76.465 60.5834 76.4341 60.5546C76.4205 60.5418 76.4056 60.5303 76.3921 60.5175C76.4126 60.537 76.4322 60.5453 76.398 60.5231C76.3584 60.4975 76.3189 60.4741 76.2766 60.4532C76.1072 60.3694 76.0469 60.1157 76.1473 59.96C76.2591 59.7866 76.4592 59.7412 76.6404 59.8308C77.0823 60.0491 77.3666 60.5372 77.3577 61.027C77.3533 61.2699 77.1317 61.4254 76.9015 61.3745C76.3831 61.2598 76.0028 60.827 75.8434 60.3361C75.6801 59.8333 75.7738 59.273 76.1264 58.8752C76.2519 58.7336 76.5099 58.7376 76.6361 58.8752C76.7748 59.0262 76.77 59.2339 76.6362 59.3849Z" fill="black"/>
<path d="M77.7065 56.0397C76.7612 55.6383 75.6913 55.7005 74.7346 56.027C73.9101 56.3084 73.0905 56.8554 72.7836 57.7066C72.6274 58.1397 71.9306 57.9528 72.0885 57.5149C72.9088 55.24 76.0307 54.5512 78.0703 55.4173C78.2509 55.4939 78.2871 55.7567 78.1996 55.9104C78.0934 56.097 77.8846 56.1153 77.7065 56.0397Z" fill="black"/>
<path d="M62.5344 63.5778C62.5246 63.5886 62.5151 63.5996 62.5058 63.6108C62.5373 63.5689 62.545 63.5589 62.5289 63.5806C62.5162 63.602 62.5001 63.6217 62.487 63.6429C62.4665 63.6761 62.4522 63.7265 62.4274 63.7556C62.4684 63.7076 62.4488 63.7017 62.4325 63.7482C62.4255 63.7681 62.4191 63.7884 62.4133 63.8087C62.4066 63.8325 62.4008 63.8566 62.3957 63.8808C62.3927 63.8951 62.3842 63.9717 62.3894 63.9062C62.395 63.837 62.3876 63.9307 62.3868 63.9431C62.3853 63.9645 62.3845 63.9859 62.3842 64.0073C62.3835 64.0504 62.3851 64.0934 62.3889 64.1363C62.3901 64.1507 62.3917 64.165 62.3934 64.1793C62.3854 64.1229 62.3837 64.1088 62.3882 64.1371C62.3936 64.1579 62.3957 64.18 62.4002 64.201C62.41 64.2471 62.4222 64.2926 62.4367 64.3374C62.4434 64.3581 62.4514 64.3783 62.4583 64.3989C62.482 64.4689 62.4255 64.3314 62.4553 64.3931C62.4759 64.4354 62.4963 64.4773 62.5202 64.5179C62.5416 64.5543 62.5827 64.5955 62.5976 64.6344C62.5745 64.5739 62.5645 64.593 62.595 64.6282C62.609 64.6443 62.6234 64.66 62.6382 64.6754C62.653 64.6906 62.6682 64.7055 62.6838 64.72C62.6943 64.7297 62.7647 64.7794 62.712 64.7467C62.6572 64.7127 62.7342 64.7618 62.7439 64.7683C62.7616 64.78 62.7796 64.7911 62.7979 64.8017C62.8163 64.8123 62.8351 64.8223 62.8541 64.8316C62.8636 64.8363 62.8733 64.8409 62.883 64.8451C62.9081 64.8564 62.8958 64.8512 62.8461 64.8295C62.884 64.8269 62.9532 64.8639 62.9913 64.8723L62.5351 65.2198C62.5354 65.2011 62.5358 65.1824 62.5352 65.1637C62.5352 65.1612 62.5309 65.071 62.5347 65.1278C62.538 65.1771 62.5323 65.1171 62.5301 65.1066C62.5264 65.0883 62.5221 65.0701 62.5173 65.052C62.5113 65.0294 62.5035 65.0074 62.4969 64.985C62.4853 64.9456 62.4898 64.9667 62.5022 64.9928C62.484 64.9546 62.4655 64.9172 62.4434 64.881C62.4338 64.8651 62.4218 64.85 62.4129 64.8338C62.3892 64.791 62.4512 64.876 62.4185 64.8395C62.3904 64.8081 62.3632 64.7763 62.3323 64.7474C62.3187 64.7347 62.3038 64.7232 62.2903 64.7104C62.3108 64.7298 62.3304 64.7382 62.2962 64.716C62.2566 64.6904 62.2171 64.6669 62.1748 64.646C62.0054 64.5623 61.9451 64.3086 62.0455 64.1529C62.1573 63.9795 62.3574 63.9341 62.5386 64.0236C62.9805 64.242 63.2648 64.7301 63.2559 65.2198C63.2515 65.4628 63.0299 65.6183 62.7997 65.5674C62.2813 65.4527 61.901 65.0198 61.7416 64.529C61.5783 64.0262 61.672 63.4659 62.0246 63.068C62.1501 62.9265 62.4081 62.9305 62.5343 63.068C62.673 63.2191 62.6682 63.4268 62.5344 63.5778Z" fill="black"/>
<path d="M63.6047 60.2316C62.6594 59.8302 61.5895 59.8924 60.6328 60.2189C59.8083 60.5002 58.9887 61.0473 58.6818 61.8985C58.5256 62.3316 57.8288 62.1447 57.9867 61.7068C58.807 59.4319 61.9289 58.7431 63.9685 59.6092C64.1491 59.6858 64.1852 59.9486 64.0978 60.1023C63.9916 60.2889 63.7828 60.3072 63.6047 60.2316Z" fill="black"/>
<path d="M70.5928 63.8069C71.42 63.3101 72.3717 63.0424 73.3225 62.9105C74.2124 62.787 75.18 62.8122 75.9767 63.2776C76.6553 63.674 77.1705 64.3818 77.2462 65.1733C77.3246 65.9932 76.831 66.6896 76.1843 67.1381C75.3334 67.7281 74.2167 67.9874 73.1988 67.8137C72.7424 67.7359 72.9359 67.0411 73.3904 67.1187C74.8146 67.3617 77.5454 66.0852 76.1602 64.3694C75.5869 63.6592 74.6483 63.5166 73.7872 63.5795C72.8139 63.6506 71.7953 63.9257 70.9567 64.4293C70.558 64.6687 70.1951 64.0457 70.5928 63.8069Z" fill="black"/>
<path d="M73.7957 70.7983C71.6374 71.5591 69.6898 69.9596 67.6116 69.6905C66.6803 69.5699 65.7567 69.7855 65.1395 70.53C64.6057 71.1739 64.3799 72.0593 64.3033 72.876C64.1127 74.9092 64.5912 77.0429 65.5112 78.8555C66.265 80.3406 67.713 82.4746 69.6716 82.1025C70.6388 81.9188 71.4009 81.1659 71.8464 80.3198C72.4218 79.2271 72.5301 77.9501 72.6409 76.7416C72.6829 76.2835 73.4041 76.279 73.3617 76.7416C73.1684 78.8513 72.8271 81.3699 70.7428 82.4761C69.8382 82.9563 68.8132 82.9624 67.8865 82.5388C66.9482 82.1099 66.205 81.3147 65.6295 80.4764C64.3281 78.5804 63.6129 76.2636 63.5527 73.9697C63.5041 72.1154 63.9725 69.8186 65.9439 69.1175C67.1515 68.6881 68.4953 69.0761 69.6447 69.5043C70.8942 69.9697 72.2673 70.5744 73.604 70.1032C74.0423 69.9487 74.2309 70.6448 73.7957 70.7983Z" fill="black"/>
<path d="M73.1082 76.7873C70.0176 76.8499 66.9143 76.1394 64.1589 74.7383C64.6895 76.8104 65.24 78.9278 66.4321 80.7037C66.7816 81.2244 67.2013 81.7246 67.7645 82.0006C68.975 82.5937 70.4992 81.9392 71.3243 80.8732C72.1495 79.8073 72.4438 78.436 72.7154 77.1156" fill="black"/>
<path d="M73.108 77.1473C69.9437 77.2023 66.801 76.4749 63.9768 75.0491L64.5063 74.642C65.0406 76.7278 65.5862 78.894 66.8502 80.6768C67.387 81.4339 68.1393 81.996 69.1093 81.8376C70.0136 81.6899 70.7836 81.0905 71.2659 80.3292C71.8959 79.3348 72.1335 78.1561 72.3677 77.0194C72.4612 76.5653 73.1562 76.7575 73.0628 77.211C72.6317 79.3037 71.9637 81.7414 69.6648 82.4452C68.6406 82.7588 67.5986 82.5095 66.8297 81.7648C66.0043 80.9653 65.4626 79.8448 65.03 78.7969C64.5015 77.5167 64.1542 76.1726 63.8112 74.8337C63.7301 74.517 64.0632 74.2866 64.3406 74.4266C67.0518 75.7954 70.0724 76.4792 73.108 76.4265C73.572 76.4184 73.5721 77.1392 73.108 77.1473Z" fill="black"/>
<path d="M73.4496 50.3347C71.9808 49.2694 69.951 49.1711 68.3978 50.1182C68.0006 50.3603 67.638 49.7372 68.0339 49.4958C69.7878 48.4263 72.1465 48.5034 73.8134 49.7123C74.1853 49.982 73.826 50.6077 73.4496 50.3347Z" fill="black"/>
<path d="M54.6062 55.2978C55.4719 53.3149 57.5082 51.962 59.6607 51.8739C60.1246 51.8549 60.1237 52.5758 59.6607 52.5947C57.7425 52.6733 55.993 53.9107 55.2286 55.6617C55.1501 55.8414 54.8904 55.8791 54.7355 55.791C54.5502 55.6855 54.5288 55.4752 54.6062 55.2978Z" fill="black"/>
<path d="M40.9113 64.3262C41.0043 64.5698 41.0757 64.8238 41.1091 65.0918C41.0032 64.8426 40.941 64.5858 40.9113 64.3262Z" fill="black"/>
<path d="M41.259 64.2316C41.3653 64.5117 41.4319 64.7962 41.4697 65.0931C41.4801 65.1745 41.4227 65.2943 41.3642 65.3479C41.3046 65.4026 41.2377 65.4363 41.1572 65.4471C41.0804 65.4574 40.9945 65.4476 40.9274 65.4043L40.8545 65.3479C40.8098 65.303 40.7789 65.25 40.7618 65.1889C40.6453 64.9127 40.5858 64.6242 40.5511 64.3274C40.5411 64.242 40.5985 64.1307 40.6566 64.0726C40.7191 64.0101 40.8217 63.963 40.9115 63.967C41.0047 63.9712 41.1013 64.0018 41.1663 64.0726L41.2227 64.1455C41.2553 64.2017 41.2717 64.2624 41.2719 64.3274C41.2741 64.3463 41.2764 64.3652 41.2789 64.384L41.266 64.2882C41.2991 64.532 41.3612 64.7704 41.4569 64.9973L40.7489 65.0931C40.7477 65.0835 40.7465 65.074 40.7452 65.0644L40.7581 65.1602C40.7232 64.9074 40.6544 64.6615 40.5639 64.4232C40.5326 64.3406 40.5573 64.2189 40.6003 64.1455C40.644 64.0707 40.7297 63.9994 40.8157 63.9799C40.9079 63.9589 41.0115 63.9634 41.0934 64.0162L41.1663 64.0726C41.211 64.1175 41.2419 64.1706 41.259 64.2316Z" fill="black"/>
<path d="M25.9181 55.5567C25.9503 55.3966 25.8674 55.2386 25.7894 55.0952C24.451 52.6339 23.7557 49.7969 23.9732 46.9941C24.1917 44.1781 25.3296 41.4895 26.8936 39.1375C30.2601 34.0746 35.6016 30.4833 41.4123 28.6942C47.223 26.905 53.4769 26.8381 59.464 27.8965C63.6573 28.6379 67.9199 30.018 70.9668 32.9928C74.0139 35.9675 75.4949 40.8613 73.5187 44.6333C74.3332 45.0697 75.1303 45.5424 75.9124 46.0414C67.7242 47.3836 59.3245 47.4288 51.1238 46.1648C50.4103 50.4281 49.5035 55.0499 46.2378 57.8818C45.0299 58.9292 43.5641 59.6603 42.4202 60.7773C41.47 61.7052 40.7649 63.0535 40.9107 64.327C40.131 62.2834 37.4168 61.1526 35.2902 61.9333C32.91 62.807 31.5017 65.463 31.5374 67.9983C31.5645 69.9235 32.6648 72.1106 34.5807 72.3023C31.6967 73.5821 28.8128 74.8617 25.9288 76.1414C24.3499 76.842 22.748 77.5436 21.0938 78.0209C20.9874 77.2345 20.9013 76.447 20.8383 75.6603C20.1899 68.7436 21.7471 61.492 25.7865 55.8103C25.8421 55.7321 25.8991 55.6508 25.9181 55.5567Z" fill="black"/>
<path d="M25.5582 55.556C25.5698 55.3844 25.4572 55.2383 25.3796 55.0911C25.2979 54.9361 25.2188 54.7797 25.1424 54.622C24.9911 54.3098 24.8508 53.9925 24.7187 53.6717C24.4446 53.0065 24.216 52.3227 24.0378 51.6257C23.6916 50.2722 23.5277 48.8634 23.5853 47.4666C23.7 44.6868 24.6963 42.0104 26.1378 39.6526C28.7537 35.3738 32.7693 32.0494 37.2789 29.9155C42.3731 27.505 48.0678 26.629 53.6714 26.8852C56.4746 27.0134 59.2919 27.3918 62.0179 28.0634C64.5257 28.6813 67.0064 29.6008 69.154 31.0583C71.162 32.421 72.8238 34.2376 73.8055 36.4723C74.7296 38.5758 75.0863 40.9754 74.4638 43.2162C74.3102 43.7694 74.0938 44.3046 73.8304 44.8145L73.7011 44.3214C74.5168 44.7603 75.3134 45.2323 76.0948 45.7295C76.3313 45.88 76.3342 46.3351 76.0087 46.3883C69.5594 47.4405 62.9891 47.7115 56.4767 47.1617C54.6537 47.0078 52.8367 46.789 51.0285 46.5116L51.4718 46.2599C51.0172 48.973 50.5115 51.7241 49.3424 54.2353C48.784 55.4349 48.0588 56.5642 47.1401 57.5207C46.1015 58.602 44.8028 59.3412 43.6134 60.2346C42.3278 61.2003 41.1021 62.6059 41.2717 64.3263C41.3147 64.7628 40.7004 64.7685 40.5637 64.4221C40.1376 63.3419 39.1198 62.5772 38.033 62.2444C36.8556 61.8839 35.631 62.0287 34.5827 62.678C32.4843 63.9778 31.4523 66.8839 32.0709 69.2427C32.39 70.4592 33.2188 71.7848 34.5812 71.9412C34.8888 71.9765 35.1302 72.4499 34.7631 72.6128C32.4844 73.6239 30.2057 74.635 27.927 75.6461C25.7171 76.6267 23.5171 77.6891 21.1901 78.3677C20.9407 78.4404 20.7639 78.244 20.7339 78.0202C20.3132 74.8823 20.1907 71.7178 20.5918 68.5712C20.9741 65.572 21.7715 62.6374 23.0284 59.8847C23.3821 59.1101 23.7722 58.3518 24.199 57.6149C24.4127 57.246 24.6353 56.8823 24.8671 56.5245C24.9742 56.3591 25.0832 56.195 25.1942 56.0322C25.3145 55.8557 25.5029 55.6638 25.5711 55.4601C25.7177 55.0225 26.4141 55.2102 26.2662 55.6518C26.1538 55.9873 25.9017 56.2676 25.7062 56.5593C25.487 56.8864 25.2755 57.2186 25.0718 57.5555C24.6819 58.2004 24.3204 58.8623 23.9876 59.5384C23.3206 60.8931 22.7739 62.3044 22.3391 63.7502C21.4759 66.6207 21.0586 69.614 21.0571 72.6099C21.0562 74.4185 21.2145 76.2286 21.4547 78.0201L20.9985 77.6726C23.3036 77.0003 25.4808 75.9477 27.67 74.9763C29.9131 73.981 32.1562 72.9857 34.3993 71.9904L34.5812 72.662C33.1501 72.4978 32.1512 71.4423 31.6207 70.1587C31.0644 68.8128 31.0639 67.2965 31.4547 65.9056C31.8518 64.4923 32.6651 63.1936 33.8468 62.3098C35.0014 61.4463 36.4397 61.1388 37.846 61.4497C39.347 61.7815 40.6882 62.7839 41.2588 64.2306L40.5508 64.3264C40.4063 62.8605 41.2067 61.4349 42.2393 60.451C43.3648 59.3786 44.769 58.6681 45.9447 57.6595C48.033 55.8678 49.145 53.2876 49.838 50.6818C50.2416 49.164 50.5174 47.6162 50.7767 46.0683C50.8115 45.8611 51.0446 45.7897 51.2201 45.8166C57.5755 46.7914 64.0509 46.9754 70.4526 46.3805C72.2483 46.2136 74.0372 45.9836 75.817 45.6932L75.7309 46.352C74.9495 45.8547 74.153 45.3827 73.3373 44.9438C73.1596 44.8482 73.1211 44.6189 73.208 44.4507C74.2428 42.4479 74.2618 40.1049 73.6058 37.9801C72.9206 35.7609 71.5444 33.8463 69.7484 32.3895C67.8215 30.8265 65.5013 29.8077 63.1359 29.1116C60.5798 28.3594 57.917 27.9292 55.2645 27.7089C49.7543 27.2513 44.1059 27.8417 38.9651 29.9525C34.5372 31.7704 30.4895 34.7274 27.6814 38.6306C26.1512 40.7575 24.9583 43.1668 24.4925 45.7603C24.0081 48.4575 24.4337 51.2859 25.5432 53.7811C25.6714 54.0694 25.8081 54.354 25.9533 54.6342C26.1056 54.928 26.3023 55.2114 26.2791 55.556C26.248 56.0164 25.5269 56.0198 25.5582 55.556Z" fill="black"/>
</svg>
