<svg width="23" height="23" viewBox="0 0 23 23" fill="none" xmlns="http://www.w3.org/2000/svg">
<circle cx="11.5" cy="11.5" r="11.5" fill="white"/>
<path d="M10.4224 12.0389C10.6539 12.3484 10.9492 12.6045 11.2884 12.7898C11.6276 12.9751 12.0026 13.0853 12.3881 13.1129C12.7736 13.1405 13.1606 13.0849 13.5227 12.9498C13.8848 12.8147 14.2137 12.6033 14.4869 12.33L16.1041 10.7128C16.5951 10.2045 16.8667 9.52361 16.8606 8.81691C16.8544 8.11021 16.571 7.43419 16.0712 6.93446C15.5715 6.43473 14.8955 6.15126 14.1888 6.14512C13.4821 6.13898 12.8013 6.41065 12.2929 6.90163L11.3657 7.82342" stroke="#585664" stroke-width="1.3" stroke-linecap="round" stroke-linejoin="round"/>
<path d="M12.5789 10.9608C12.3474 10.6513 12.0521 10.3952 11.7129 10.2099C11.3737 10.0246 10.9987 9.91438 10.6132 9.88677C10.2277 9.85916 9.84073 9.91478 9.47862 10.0499C9.1165 10.1849 8.78766 10.3963 8.51442 10.6697L6.89723 12.2869C6.40626 12.7952 6.13459 13.476 6.14073 14.1827C6.14687 14.8894 6.43033 15.5655 6.93006 16.0652C7.4298 16.5649 8.10581 16.8484 8.81252 16.8545C9.51922 16.8607 10.2001 16.589 10.7084 16.098L11.6302 15.1762" stroke="#585664" stroke-width="1.3" stroke-linecap="round" stroke-linejoin="round"/>
</svg>
