<svg width="145" height="191" viewBox="0 0 145 191" fill="none" xmlns="http://www.w3.org/2000/svg">
<path d="M53.5807 113.381C47.6931 131.028 47.4666 149.991 47.3027 168.594C47.2811 171.038 47.2278 173.606 46.0099 175.725C44.8689 177.711 42.8686 179.018 41.231 180.619C39.5935 182.22 38.2254 184.524 38.9012 186.712C39.4495 188.487 41.2397 189.65 43.0652 189.995C44.8907 190.341 46.7688 190.018 48.5985 189.696C50.6255 189.339 52.6525 188.982 54.6796 188.625C54.6927 188.623 54.7789 189.674 54.8145 189.754C55.0776 190.343 54.9027 190.208 55.5091 190.449C56.3414 190.781 57.9138 190.389 58.796 190.316C61.1464 190.121 63.4857 189.793 65.7987 189.333C65.6376 186.698 66.6554 142.608 73.6026 126.213" fill="#8683FF"/>
<path d="M92.2364 112.883C100.293 129.652 102.899 148.436 105.397 166.871C105.726 169.293 106.101 171.834 107.575 173.784C108.957 175.61 111.105 176.656 112.931 178.038C114.757 179.421 116.403 181.535 116.007 183.791C115.686 185.621 114.056 186.999 112.289 187.571C110.521 188.143 108.617 188.059 106.762 187.969C104.706 187.869 102.65 187.77 100.594 187.67C100.581 187.669 100.627 188.723 100.602 188.807C100.415 189.424 100.571 189.268 100 189.584C99.2162 190.018 97.607 189.826 96.7226 189.864C94.3664 189.966 92.0044 189.934 89.6519 189.768C88.985 179.495 86.8286 169.055 84.6906 159.015C83.3848 152.883 81.8935 146.766 79.889 140.821C78.2892 136.076 75.8879 127.426 69.3105 127.969" fill="#8683FF"/>
<path d="M53.1785 113.27C51.1362 119.408 49.7591 125.747 48.8461 132.147C47.93 138.569 47.4627 145.045 47.2117 151.524C47.0865 154.756 47.0146 157.99 46.9665 161.224C46.9421 162.862 46.9239 164.501 46.908 166.14C46.8931 167.682 46.916 169.231 46.8292 170.772C46.7459 172.251 46.5292 173.771 45.8644 175.112C45.2352 176.382 44.2332 177.384 43.1854 178.315C41.1521 180.122 38.7406 181.995 38.3544 184.889C37.9897 187.621 40.1169 189.712 42.6262 190.326C44.1687 190.703 45.7772 190.564 47.3293 190.329C48.9807 190.078 50.6237 189.76 52.2687 189.471C53.1092 189.323 53.9497 189.175 54.7901 189.027L54.2774 188.735C54.2489 188.656 54.2747 188.703 54.2826 188.775C54.2924 188.864 54.3009 188.954 54.3099 189.043C54.3293 189.234 54.3479 189.426 54.3725 189.616C54.4108 189.914 54.5193 190.29 54.7271 190.514C54.952 190.756 55.4292 190.887 55.7421 190.943C56.2962 191.043 56.8643 190.988 57.4181 190.917C60.2575 190.551 63.0958 190.291 65.9093 189.734C66.0784 189.701 66.2257 189.504 66.2153 189.332C66.106 187.513 66.1565 185.673 66.167 183.852C66.1889 180.041 66.2783 176.23 66.4242 172.421C66.6108 167.555 66.8917 162.691 67.3064 157.839C67.7342 152.834 68.2951 147.835 69.1413 142.883C69.86 138.677 70.7468 134.443 72.2462 130.438C72.395 130.04 72.5498 129.645 72.7149 129.254C72.9212 128.766 72.2034 128.34 71.9951 128.833C70.3693 132.682 69.4176 136.801 68.6527 140.896C67.737 145.799 67.13 150.759 66.6626 155.724C66.1964 160.675 65.8803 165.641 65.6646 170.61C65.49 174.631 65.3809 178.655 65.3424 182.68C65.322 184.807 65.2923 186.942 65.3698 189.069C65.373 189.157 65.3764 189.245 65.3817 189.332L65.6877 188.93C64.2967 189.205 62.8972 189.438 61.4905 189.616C60.2831 189.769 59.0664 189.843 57.8625 190.02C57.3636 190.093 56.8605 190.167 56.355 190.163C56.1315 190.162 55.9135 190.145 55.6999 190.076C55.6033 190.045 55.5005 189.976 55.4006 189.962C55.3849 189.96 55.2669 189.894 55.3396 189.949C55.4115 190.003 55.338 189.939 55.3451 189.953C55.2962 189.862 55.2439 189.738 55.2163 189.64C55.1895 189.545 55.1865 189.456 55.1753 189.351C55.1473 189.093 55.1694 188.761 55.0813 188.514C55.0001 188.286 54.8052 188.181 54.5685 188.223C52.937 188.51 51.3055 188.797 49.674 189.085C48.0666 189.368 46.4459 189.719 44.807 189.726C43.4212 189.733 42.0532 189.451 40.896 188.659C39.8501 187.943 39.1445 186.819 39.1412 185.533C39.1341 182.67 41.7477 180.695 43.6809 178.988C44.683 178.103 45.657 177.152 46.338 175.989C47.0596 174.758 47.3982 173.361 47.563 171.955C47.7356 170.482 47.7155 168.992 47.7289 167.511C47.7433 165.922 47.7589 164.332 47.7792 162.743C47.8196 159.582 47.8785 156.42 47.9831 153.261C48.1935 146.91 48.5873 140.558 49.3949 134.253C50.1989 127.976 51.4295 121.742 53.2808 115.687C53.5054 114.952 53.7398 114.22 53.9824 113.491C54.1522 112.981 53.3473 112.762 53.1785 113.27Z" fill="black"/>
<path d="M53.1895 173.957C52.155 173.894 51.1141 173.84 50.0978 173.624C49.6045 173.519 49.111 173.381 48.6509 173.172C48.1432 172.941 47.759 172.595 47.3657 172.207C47.1617 172.006 46.7202 172.069 46.669 172.391C46.4773 173.592 46.1356 174.764 45.4788 175.798C44.8956 176.716 44.1115 177.485 43.3061 178.207C41.6672 179.678 39.8666 181.039 38.907 183.084C38.4507 184.057 38.204 185.12 38.3606 186.194C38.5044 187.181 39.0045 188.079 39.7194 188.768C41.3823 190.369 43.7503 190.705 45.9629 190.5C47.4183 190.366 48.858 190.071 50.296 189.818C51.7942 189.554 53.2925 189.29 54.7907 189.026L54.2779 188.735C54.2947 188.777 54.2734 188.72 54.2751 188.701C54.2703 188.753 54.2877 188.818 54.293 188.87C54.3088 189.022 54.3233 189.175 54.3396 189.327C54.3694 189.607 54.4022 189.834 54.5096 190.093C54.6115 190.339 54.6931 190.538 54.9402 190.667C55.2598 190.834 55.624 190.936 55.9806 190.976C56.8277 191.07 57.6839 190.866 58.5205 190.761C59.6495 190.62 60.786 190.545 61.9149 190.394C63.2533 190.216 64.5853 189.996 65.9098 189.734C66.079 189.7 66.226 189.503 66.2158 189.332C66.1511 188.243 66.1669 187.145 66.1638 186.054C66.1574 183.767 66.1829 181.48 66.2281 179.194C66.2617 177.491 66.3077 175.788 66.3649 174.085C66.372 173.871 66.1678 173.653 65.948 173.668C61.7028 173.963 57.4437 174.211 53.1895 173.957C52.6536 173.925 52.6553 174.759 53.1894 174.791C57.4436 175.045 61.7028 174.797 65.948 174.502L65.5312 174.085C65.3761 178.707 65.2776 183.337 65.3455 187.961C65.3522 188.418 65.3551 188.876 65.3822 189.332L65.6882 188.93C64.2843 189.208 62.8715 189.442 61.4516 189.621C60.2432 189.773 59.0262 189.849 57.8212 190.025C57.3022 190.101 56.7761 190.179 56.2501 190.161C56.0583 190.155 55.874 190.133 55.6913 190.073C55.588 190.039 55.4898 189.99 55.3867 189.956C55.3602 189.947 55.2722 189.89 55.3388 189.947C55.4125 190.011 55.3365 189.931 55.3361 189.928C55.3176 189.825 55.2415 189.73 55.2128 189.63C55.1854 189.534 55.1892 189.475 55.1768 189.36C55.1493 189.107 55.1769 188.752 55.0818 188.513C54.9922 188.288 54.8128 188.179 54.5691 188.222C52.0844 188.66 49.6026 189.146 47.1082 189.524C44.9449 189.853 42.5458 189.919 40.7149 188.529C39.9792 187.97 39.4204 187.196 39.2206 186.287C39.0064 185.312 39.2438 184.289 39.6743 183.406C40.615 181.477 42.336 180.196 43.8955 178.797C44.7543 178.026 45.5775 177.197 46.1986 176.218C46.8908 175.127 47.2705 173.88 47.4728 172.612L46.7761 172.796C47.1874 173.202 47.6056 173.591 48.1305 173.845C48.6506 174.096 49.2017 174.277 49.7647 174.403C50.8879 174.656 52.0436 174.721 53.1894 174.791C53.7252 174.823 53.7234 173.99 53.1895 173.957Z" fill="black"/>
<path d="M50.3545 164.863C51.0138 164.113 51.4055 163.203 51.6761 162.25C51.9743 161.2 52.1742 160.107 52.2117 159.014C52.2774 157.1 51.7656 155.13 50.4656 153.681C49.7359 152.867 48.7725 152.303 47.7053 152.069C47.4352 152.01 47.1875 152.19 47.1776 152.471C47.0182 156.98 46.9544 161.491 46.9102 166.003C46.9074 166.287 47.1777 166.459 47.4378 166.404C48.5423 166.171 49.5768 165.699 50.3545 164.863C50.7196 164.47 50.1314 163.88 49.765 164.273C49.0789 165.011 48.1887 165.395 47.2162 165.601L47.7438 166.003C47.788 161.491 47.8518 156.98 48.0113 152.471L47.4836 152.873C49.652 153.348 50.952 155.304 51.2903 157.4C51.49 158.637 51.3644 159.917 51.0964 161.134C50.8524 162.241 50.5298 163.403 49.765 164.273C49.4121 164.675 49.9995 165.267 50.3545 164.863Z" fill="black"/>
<path d="M66.9897 145.075C64.2982 146.093 62.0019 148.141 60.9716 150.862C59.9233 153.631 60.3245 157.012 62.353 159.239C63.4598 160.453 64.9416 161.299 66.5008 161.786C66.7758 161.872 67.0097 161.643 67.0284 161.384C67.4202 155.98 67.9494 150.582 68.7644 145.225C68.8128 144.906 68.5858 144.641 68.2516 144.712C67.8217 144.803 67.4025 144.925 66.9897 145.075C66.4897 145.258 66.7056 146.064 67.2113 145.879C67.6242 145.729 68.0433 145.607 68.4732 145.516L67.9605 145.003C67.1343 150.434 66.592 155.906 66.1948 161.384L66.7224 160.982C65.461 160.588 64.2662 159.938 63.3068 159.022C62.3344 158.094 61.7041 156.913 61.4164 155.602C60.8369 152.961 61.733 150.205 63.582 148.271C64.5928 147.214 65.8438 146.396 67.2113 145.879C67.7084 145.691 67.4929 144.885 66.9897 145.075Z" fill="black"/>
<path d="M61.3086 135.756C61.7956 137.59 61.1496 139.741 59.9292 141.16C59.3268 141.86 58.5569 142.413 57.6408 142.603C56.5765 142.823 55.4565 142.451 54.611 141.801C52.5064 140.181 51.6072 136.825 52.7734 134.419C53.5759 132.763 55.1667 131.704 57.0368 131.917C59.1133 132.154 60.7559 133.792 61.3086 135.756C61.4538 136.271 62.2584 136.052 62.1125 135.534C61.5262 133.451 59.8917 131.706 57.7548 131.203C55.6612 130.709 53.575 131.567 52.4076 133.368C50.7343 135.949 51.3396 139.566 53.3668 141.781C54.2698 142.768 55.5318 143.451 56.8841 143.495C57.9995 143.532 59.0484 143.082 59.8915 142.372C61.7629 140.798 62.7433 137.91 62.1125 135.534C61.975 135.016 61.1706 135.236 61.3086 135.756Z" fill="black"/>
<path d="M58.8887 169.874C58.5667 169.89 58.3204 169.871 58.022 169.757C57.8314 169.685 57.651 169.551 57.4875 169.373C57.3705 169.246 57.2382 168.99 57.1818 168.811C57.0939 168.533 57.0758 168.387 57.0776 168.098C57.0807 167.586 57.2297 167.075 57.5246 166.62C57.6462 166.433 57.8597 166.195 58.0303 166.063C58.1399 165.978 58.2594 165.903 58.3797 165.835C58.4362 165.802 58.4937 165.772 58.552 165.743C58.5833 165.727 58.6148 165.712 58.6466 165.698C58.7262 165.662 58.609 165.711 58.6964 165.678C58.8034 165.638 58.912 165.603 59.0234 165.578C59.0702 165.567 59.1173 165.559 59.1645 165.551C59.069 165.567 59.2475 165.544 59.2769 165.543C59.3762 165.538 59.4743 165.543 59.5731 165.552C59.5376 165.549 59.5647 165.55 59.6355 165.565C59.6867 165.576 59.7374 165.589 59.7874 165.604C59.837 165.619 59.8856 165.636 59.9339 165.655C59.8323 165.616 59.9647 165.671 59.989 165.683C60.0766 165.728 60.158 165.781 60.2393 165.836C60.3355 165.901 60.2154 165.807 60.3015 165.885C60.3323 165.914 60.364 165.941 60.3941 165.97C60.4702 166.043 60.5404 166.121 60.6066 166.203C60.5421 166.123 60.6318 166.239 60.6463 166.26C60.6738 166.3 60.7003 166.341 60.7256 166.382C60.7827 166.475 60.8319 166.571 60.8799 166.669C60.8895 166.689 60.8981 166.709 60.907 166.729C60.871 166.648 60.8963 166.704 60.9032 166.721C60.9233 166.773 60.9428 166.825 60.9605 166.877C60.9943 166.977 61.0229 167.079 61.0463 167.182C61.0574 167.231 61.0673 167.281 61.0761 167.33C61.0809 167.358 61.0851 167.385 61.0895 167.413C61.1001 167.481 61.0799 167.31 61.0896 167.419C61.0991 167.525 61.1072 167.631 61.1076 167.737C61.1079 167.838 61.1001 167.938 61.0929 168.039C61.0856 168.139 61.1059 167.99 61.0831 168.111C61.0728 168.165 61.0628 168.22 61.05 168.275C61.022 168.394 60.9847 168.511 60.9406 168.625C60.9338 168.643 60.9081 168.698 60.9438 168.619C60.93 168.649 60.916 168.68 60.901 168.71C60.8761 168.76 60.8494 168.809 60.821 168.858C60.7893 168.911 60.7546 168.963 60.7198 169.014C60.7076 169.032 60.6603 169.094 60.7135 169.026C60.6922 169.053 60.6701 169.08 60.6476 169.106C60.5704 169.195 60.4858 169.275 60.3973 169.353C60.3993 169.351 60.3074 169.425 60.3547 169.388C60.3899 169.361 60.2886 169.435 60.2776 169.442C60.2254 169.477 60.1717 169.51 60.1169 169.542C60.0603 169.574 60.0023 169.603 59.9436 169.631C59.856 169.673 59.9054 169.652 59.7986 169.691C59.4868 169.803 59.1869 169.855 58.8887 169.874C58.3559 169.908 58.3521 170.742 58.8887 170.708C60.146 170.628 61.2927 170.039 61.7566 168.816C62.1124 167.878 61.9485 166.726 61.4021 165.893C60.8119 164.993 59.7943 164.513 58.7303 164.792C57.3567 165.151 56.4168 166.385 56.264 167.767C56.1871 168.462 56.3298 169.217 56.7554 169.785C57.2621 170.46 58.0598 170.748 58.8887 170.708C59.4227 170.682 59.4259 169.848 58.8887 169.874Z" fill="black"/>
<path d="M91.8764 113.095C94.5937 118.762 96.7042 124.699 98.3846 130.751C100.07 136.821 101.33 143.002 102.381 149.211C103.427 155.389 104.214 161.601 105.109 167.801C105.314 169.221 105.57 170.653 106.11 171.989C106.635 173.287 107.415 174.414 108.467 175.341C110.554 177.183 113.357 178.259 114.879 180.696C115.575 181.811 115.906 183.163 115.397 184.422C114.919 185.602 113.849 186.473 112.707 186.972C111.278 187.597 109.658 187.648 108.124 187.609C106.466 187.566 104.808 187.459 103.151 187.378C102.299 187.337 101.447 187.296 100.594 187.254C100.42 187.246 100.23 187.389 100.192 187.56C100.134 187.826 100.185 188.134 100.19 188.402C100.192 188.491 100.196 188.58 100.193 188.669C100.19 188.733 100.183 188.793 100.2 188.697C100.18 188.807 100.13 188.911 100.111 189.021C100.105 189.058 100.051 189.14 100.095 189.085C100.169 188.993 100.078 189.074 100.03 189.095C99.9469 189.132 99.8716 189.186 99.7898 189.225C99.6016 189.316 99.402 189.368 99.1958 189.401C98.6818 189.483 98.148 189.462 97.6297 189.452C96.3994 189.428 95.1693 189.509 93.9384 189.507C92.5081 189.505 91.0786 189.452 89.6518 189.353L90.0686 189.769C89.716 184.395 88.9748 179.053 88.0473 173.749C87.1226 168.461 86.0235 163.203 84.8888 157.957C83.7571 152.724 82.48 147.516 80.8499 142.414C79.8414 139.258 78.8774 135.993 77.3117 133.059C75.8875 130.391 73.7133 127.862 70.517 127.559C70.1152 127.52 69.7126 127.523 69.3105 127.554C68.7789 127.594 68.7745 128.428 69.3105 128.387C70.7904 128.275 72.1915 128.649 73.402 129.512C74.6139 130.376 75.5262 131.618 76.265 132.892C77.8174 135.57 78.7086 138.577 79.6764 141.5C81.321 146.466 82.6142 151.542 83.7491 156.646C84.8911 161.783 85.9644 166.94 86.9115 172.116C87.8642 177.323 88.6585 182.564 89.0929 187.841C89.1458 188.484 89.1928 189.126 89.235 189.769C89.2506 190.006 89.414 190.17 89.6519 190.186C92.496 190.384 95.3305 190.297 98.1767 190.292C98.7111 190.292 99.2776 190.279 99.7923 190.119C100.119 190.017 100.595 189.829 100.795 189.534C100.952 189.301 101.017 188.945 101.026 188.669C101.033 188.477 101.021 188.284 101.016 188.092C101.014 188.003 101.016 187.912 101.01 187.823C101.006 187.768 101.035 187.606 100.996 187.782L100.594 188.088C102.349 188.173 104.104 188.258 105.859 188.343C107.491 188.422 109.138 188.549 110.765 188.331C113.349 187.985 116.152 186.402 116.458 183.555C116.771 180.65 114.286 178.425 112.12 176.952C110.929 176.142 109.681 175.389 108.649 174.373C107.598 173.337 106.934 172.047 106.527 170.639C106.115 169.216 105.932 167.74 105.734 166.276C105.517 164.679 105.3 163.083 105.078 161.487C104.633 158.287 104.172 155.09 103.663 151.9C102.649 145.537 101.452 139.196 99.8385 132.955C98.2376 126.761 96.218 120.669 93.5969 114.828C93.2727 114.106 92.9387 113.388 92.5963 112.674C92.3645 112.191 91.6453 112.613 91.8764 113.095Z" fill="black"/>
<path d="M100.394 173.748C101.499 173.54 102.613 173.337 103.672 172.949C104.185 172.761 104.689 172.536 105.15 172.241C105.662 171.915 106.041 171.488 106.413 171.015L105.716 170.831C106.033 171.917 106.474 172.982 107.144 173.9C107.766 174.751 108.543 175.449 109.383 176.08C111.064 177.343 112.983 178.307 114.344 179.953C114.986 180.729 115.518 181.68 115.628 182.695C115.732 183.652 115.446 184.587 114.861 185.346C113.505 187.105 111.216 187.581 109.114 187.615C107.726 187.637 106.336 187.532 104.951 187.465C103.499 187.395 102.046 187.324 100.594 187.254C100.415 187.245 100.236 187.389 100.192 187.56C100.124 187.822 100.185 188.145 100.19 188.411C100.191 188.49 100.19 188.569 100.192 188.648C100.194 188.69 100.167 188.854 100.2 188.697C100.179 188.797 100.144 188.897 100.117 188.996C100.108 189.032 100.039 189.166 100.093 189.087C100.155 188.995 100.145 189.047 100.063 189.077C99.9682 189.111 99.8803 189.181 99.7894 189.225C99.6011 189.317 99.3995 189.368 99.1927 189.401C98.69 189.481 98.1695 189.462 97.6624 189.453C96.4148 189.429 95.1678 189.509 93.9196 189.506C92.4955 189.504 91.0721 189.451 89.6514 189.352L90.0683 189.769C89.9949 188.668 89.8393 187.568 89.7037 186.474C89.4195 184.179 89.1039 181.889 88.7683 179.602C88.521 177.917 88.2616 176.233 87.9911 174.551L87.5892 175.078C91.875 174.836 96.1687 174.541 100.394 173.748C100.921 173.649 100.698 172.846 100.172 172.944C96.0203 173.723 91.8006 174.007 87.5892 174.245C87.297 174.261 87.1428 174.497 87.1872 174.772C87.9168 179.31 88.5928 183.862 89.1018 188.43C89.1514 188.876 89.2048 189.322 89.2346 189.769C89.2504 190.006 89.4135 190.169 89.6515 190.186C92.0351 190.352 94.4088 190.347 96.7954 190.279C97.6216 190.256 98.4465 190.34 99.2693 190.226C99.8153 190.15 100.688 189.922 100.889 189.33C100.982 189.056 101.029 188.794 101.025 188.507C101.023 188.34 101.018 188.174 101.014 188.008C101.012 187.936 101.014 187.862 101.009 187.789C101.004 187.724 101.037 187.621 100.996 187.782L100.594 188.088C103.239 188.216 105.893 188.421 108.541 188.45C110.812 188.474 113.187 188.121 114.913 186.517C115.631 185.848 116.194 184.97 116.391 184C116.603 182.953 116.412 181.901 115.963 180.942C115.01 178.905 113.119 177.617 111.31 176.409C110.268 175.714 109.221 175.005 108.366 174.08C107.455 173.096 106.893 171.887 106.52 170.609C106.441 170.337 106.026 170.168 105.823 170.426C105.486 170.855 105.153 171.258 104.684 171.551C104.232 171.833 103.744 172.047 103.24 172.219C102.244 172.559 101.205 172.749 100.172 172.944C99.6457 173.044 99.8687 173.847 100.394 173.748Z" fill="black"/>
<path d="M102.452 162.929C101.63 162.203 101.16 161.2 100.784 160.188C100.355 159.032 100.05 157.819 100.036 156.58C100.013 154.4 101.02 152.088 103.195 151.315L102.682 151.024C103.407 155.477 104.036 159.945 104.647 164.415L105.049 163.887C104.11 163.81 103.185 163.541 102.452 162.929C102.043 162.588 101.45 163.174 101.863 163.519C102.779 164.284 103.872 164.624 105.049 164.721C105.35 164.746 105.484 164.436 105.451 164.193C104.84 159.723 104.211 155.255 103.486 150.802C103.452 150.59 103.169 150.441 102.973 150.511C101.097 151.178 99.8494 152.808 99.4033 154.719C98.9256 156.765 99.3667 158.895 100.136 160.811C100.539 161.815 101.04 162.793 101.863 163.519C102.264 163.873 102.855 163.285 102.452 162.929Z" fill="black"/>
<path d="M82.7441 146.827C85.2689 147.433 87.5872 149.001 88.8366 151.313C90.1172 153.683 90.1804 156.768 88.6035 159.016C87.7416 160.245 86.481 161.166 85.1269 161.785L85.7392 162.034C84.6646 156.686 83.4507 151.361 81.9593 146.112L81.5573 146.64C81.9583 146.674 82.3518 146.738 82.7441 146.827C83.2665 146.946 83.4895 146.142 82.9657 146.024C82.5012 145.918 82.032 145.846 81.5573 145.806C81.2849 145.783 81.0863 146.091 81.1554 146.334C82.6468 151.582 83.8608 156.907 84.9353 162.255C84.993 162.542 85.322 162.608 85.5476 162.504C86.8757 161.898 88.0976 161.002 89.009 159.855C89.9309 158.695 90.4526 157.321 90.5919 155.848C90.8706 152.9 89.5271 149.981 87.2465 148.131C85.9958 147.117 84.5315 146.399 82.9657 146.024C82.4443 145.898 82.2218 146.702 82.7441 146.827Z" fill="black"/>
<path d="M97.4719 125.463C95.3221 125.021 93.0984 125.933 91.7207 127.612C90.2652 129.387 89.8204 131.737 90.5081 133.92C91.1393 135.923 92.5609 137.839 94.5457 138.651C95.4956 139.039 96.5544 139.11 97.5438 138.829C98.156 138.655 98.7362 138.36 99.2435 137.978C99.506 137.779 99.7537 137.564 99.9801 137.325C100.193 137.1 100.566 136.763 100.647 136.457C100.698 136.265 100.6 136.035 100.555 135.847C100.504 135.632 100.453 135.417 100.4 135.201C100.291 134.75 100.18 134.298 100.066 133.848C99.8395 132.947 99.6044 132.049 99.3601 131.153C98.8667 129.342 98.3352 127.542 97.763 125.754C97.6 125.245 96.7948 125.463 96.9591 125.976C98.0643 129.428 99.0123 132.929 99.8432 136.457L99.8852 136.136C98.9425 137.444 97.3757 138.403 95.7179 138.125C94.3225 137.892 93.1471 136.921 92.3526 135.788C91.5377 134.627 90.9952 133.212 91.0035 131.78C91.0124 130.238 91.7116 128.709 92.8226 127.65C93.9884 126.539 95.6496 125.938 97.2502 126.267C97.7738 126.375 97.9978 125.571 97.4719 125.463Z" fill="black"/>
<path d="M94.1172 170.427C94.873 170.368 95.5691 170.083 96.0295 169.461C96.4113 168.946 96.5421 168.265 96.4786 167.635C96.3355 166.214 95.3646 164.996 93.9766 164.615C92.9063 164.321 91.8457 164.718 91.2441 165.65C90.7075 166.482 90.5879 167.626 90.933 168.552C91.1499 169.135 91.5255 169.632 92.0522 169.968C92.6602 170.356 93.4079 170.471 94.1172 170.427C94.6501 170.394 94.6539 169.56 94.1172 169.593C93.9693 169.602 93.8213 169.606 93.6732 169.6C93.5023 169.593 93.4215 169.585 93.2939 169.561C93.1726 169.538 93.0525 169.508 92.9351 169.47C92.8854 169.453 92.8363 169.436 92.7876 169.417C92.673 169.372 92.8306 169.437 92.7642 169.406C92.7302 169.391 92.6964 169.374 92.6631 169.357C92.5659 169.307 92.4743 169.25 92.3839 169.188C92.3069 169.136 92.4003 169.21 92.3152 169.135C92.2718 169.097 92.2286 169.059 92.1874 169.019C92.0093 168.844 91.9769 168.801 91.8475 168.565C91.8234 168.521 91.8013 168.476 91.7792 168.431C91.7694 168.411 91.7605 168.391 91.7515 168.37C91.7241 168.309 91.7864 168.463 91.7488 168.362C91.7119 168.262 91.6785 168.162 91.6521 168.059C91.627 167.962 91.6079 167.863 91.5927 167.763C91.5824 167.696 91.6018 167.866 91.5928 167.757C91.591 167.735 91.5884 167.713 91.5865 167.691C91.5818 167.635 91.5787 167.579 91.5772 167.523C91.5744 167.422 91.5765 167.321 91.5836 167.221C91.5875 167.165 91.593 167.11 91.5997 167.054C91.587 167.158 91.6098 166.999 91.616 166.967C91.6346 166.869 91.658 166.773 91.6862 166.677C91.6986 166.635 91.712 166.593 91.7263 166.552C91.7363 166.523 91.7909 166.383 91.7756 166.419C91.7562 166.464 91.8114 166.343 91.822 166.322C91.8434 166.278 91.866 166.236 91.8898 166.194C91.9394 166.106 91.9946 166.023 92.0539 165.941C91.9906 166.028 92.0918 165.897 92.107 165.879C92.1344 165.848 92.1627 165.818 92.1919 165.788C92.2283 165.752 92.2662 165.717 92.3048 165.682C92.3201 165.669 92.3363 165.656 92.352 165.643C92.4311 165.576 92.28 165.691 92.3656 165.633C92.4429 165.58 92.5205 165.532 92.6029 165.488C92.6355 165.471 92.7302 165.431 92.6451 165.465C92.6988 165.444 92.7534 165.424 92.8089 165.408C92.8551 165.394 92.9018 165.382 92.949 165.372C92.9702 165.367 92.9917 165.364 93.0129 165.359C93.1172 165.337 92.9495 165.365 93.0167 165.358C93.1255 165.347 93.2341 165.342 93.3434 165.348C93.3657 165.349 93.5421 165.367 93.4507 165.354C93.501 165.361 93.5511 165.371 93.6009 165.381C93.7347 165.409 93.8645 165.45 93.9933 165.495C94.1762 165.56 94.4818 165.72 94.6651 165.863C95.0812 166.189 95.391 166.674 95.5422 167.169C95.7051 167.704 95.7166 168.317 95.4847 168.76C95.2183 169.269 94.7518 169.544 94.1172 169.593C93.5858 169.634 93.5813 170.468 94.1172 170.427Z" fill="black"/>
<path d="M83.1018 130.628C83.8579 130.843 84.3166 131.719 84.5309 132.416C84.7611 133.163 84.6976 134.022 84.0955 134.588C83.3917 135.249 82.0055 134.916 81.448 134.211C80.916 133.538 80.9435 132.625 81.2536 131.865C81.5624 131.108 82.2212 130.416 83.1018 130.628C83.6231 130.754 83.8455 129.951 83.3234 129.825C82.2004 129.553 81.2183 130.169 80.6809 131.141C80.1302 132.137 79.995 133.398 80.5811 134.41C80.9222 134.999 81.4722 135.401 82.1174 135.602C82.7744 135.806 83.5342 135.848 84.1657 135.542C85.2298 135.026 85.642 133.713 85.4391 132.614C85.2312 131.488 84.4946 130.156 83.3234 129.825C82.8063 129.678 82.5856 130.482 83.1018 130.628Z" fill="black"/>
<path d="M62.677 122.848C63.4331 123.062 63.8918 123.939 64.1061 124.636C64.3363 125.383 64.2728 126.242 63.6707 126.807C62.9669 127.468 61.5807 127.135 61.0232 126.43C60.4912 125.758 60.5187 124.845 60.8288 124.085C61.1376 123.328 61.7964 122.635 62.677 122.848C63.1982 122.974 63.4207 122.17 62.8986 122.044C61.7756 121.773 60.7935 122.389 60.2561 123.361C59.7054 124.357 59.5702 125.618 60.1563 126.63C60.4974 127.219 61.0474 127.621 61.6926 127.821C62.3496 128.025 63.1094 128.068 63.7409 127.762C64.805 127.245 65.2172 125.933 65.0143 124.834C64.8064 123.708 64.0698 122.376 62.8986 122.044C62.3815 121.898 62.1608 122.702 62.677 122.848Z" fill="black"/>
<path d="M54.2024 112.536C53.6975 113.834 52.2345 116.442 52.4419 117.834C52.5952 118.863 54.704 119.755 55.5437 120.247C58.4699 121.959 61.7227 123.016 64.9524 123.992C68.7932 125.152 72.6817 126.225 76.6686 126.676C83.7586 127.478 91.0032 126.297 98.0312 127.529C96.889 123.968 95.0038 118.345 93.0586 114.732" fill="black"/>
<path d="M53.8001 112.424C53.3124 113.662 52.6577 114.829 52.2644 116.105C52.0903 116.67 51.9393 117.295 52.0322 117.889C52.1242 118.476 52.5728 118.908 53.0252 119.254C53.5328 119.641 54.0967 119.945 54.6603 120.243C55.3295 120.595 55.9791 120.983 56.6539 121.326C58.2879 122.155 60.0015 122.822 61.7356 123.409C65.3958 124.649 69.1507 125.755 72.9432 126.508C76.7937 127.272 80.6751 127.425 84.5909 127.39C89.0358 127.351 93.5196 127.168 97.9201 127.93C98.2131 127.98 98.5384 127.745 98.4329 127.417C97.3276 123.974 96.1642 120.537 94.7154 117.221C94.3156 116.306 93.8902 115.401 93.4182 114.521C93.1647 114.048 92.4447 114.469 92.6984 114.942C94.408 118.131 95.6177 121.593 96.7686 125.015C97.0621 125.887 97.3477 126.762 97.629 127.638L98.1418 127.126C90.515 125.805 82.7325 127.235 75.0948 126.046C71.3591 125.465 67.712 124.41 64.1056 123.297C62.3891 122.767 60.6797 122.202 59.0222 121.506C57.5577 120.891 56.1836 120.118 54.7877 119.367C54.2012 119.051 53.5729 118.721 53.1153 118.226C52.7072 117.785 52.8326 117.205 52.9709 116.669C53.3344 115.26 54.0738 113.991 54.6041 112.646C54.8008 112.146 53.9949 111.93 53.8001 112.424Z" fill="black"/>
<path d="M47.0057 96.9349C37.3455 100.323 27.4217 103.755 17.1877 103.503C13.7883 103.42 10.337 102.907 7.28796 101.401C4.13834 99.8459 1.29711 97.1141 0.763736 93.5786C0.117516 89.2949 0.410012 85.3637 1.24977 81.1148C2.72994 73.6255 5.12717 66.3179 8.37083 59.4071C8.56991 58.9829 8.77642 58.5423 8.77675 58.0737C8.7773 57.3166 8.25064 56.6757 7.97081 55.9721C7.24797 54.1546 8.60579 51.7855 10.0639 50.6938C12.0162 49.232 14.7492 49.6724 16.9706 50.0716C17.2598 48.8963 17.5879 47.7305 17.9542 46.5769C18.2745 45.5682 18.5346 44.2877 19.4191 43.5989C19.7422 43.3472 20.2076 43.233 20.5667 43.43C20.9644 43.6482 21.0978 44.1481 21.1642 44.5969C21.3156 45.6197 21.3198 46.6643 21.1765 47.6883C21.0374 48.6824 20.7598 49.6819 20.9087 50.6745C21.1423 52.2319 22.6095 53.1879 22.8215 54.6661C23.0209 56.0572 22.7353 57.467 22.4509 58.8433C20.7467 67.0917 19.0425 75.3401 17.3382 83.5885C25.4226 81.6287 33.507 79.6689 41.5914 77.7091" fill="white"/>
<path d="M46.8944 96.5324C40.133 98.9036 33.3138 101.284 26.2172 102.431C22.7132 102.998 19.1338 103.254 15.5879 103.013C12.3106 102.789 8.98835 102.06 6.17277 100.303C3.83294 98.8428 1.79956 96.6391 1.23613 93.8677C0.884425 92.1379 0.811652 90.3118 0.830378 88.5511C0.849459 86.7572 1.01898 84.9673 1.29919 83.196C1.8532 79.6941 2.7139 76.2248 3.71761 72.8265C4.71638 69.445 5.90331 66.1169 7.2783 62.8699C7.62561 62.0498 7.98504 61.2348 8.35572 60.4249C8.69058 59.6934 9.19518 58.9029 9.19313 58.0732C9.19119 57.285 8.72415 56.6514 8.41629 55.9606C8.14801 55.3587 8.13431 54.7033 8.28862 54.0688C8.60192 52.7806 9.48497 51.5132 10.621 50.8177C11.8617 50.058 13.377 50.0241 14.7837 50.1616C15.4805 50.2296 16.1706 50.3494 16.8593 50.4729C17.0764 50.5119 17.3141 50.4165 17.3721 50.1818C17.7389 48.6985 18.1745 47.2339 18.6315 45.7761C18.8153 45.1897 19.0321 44.5689 19.4664 44.1169C19.6601 43.9153 19.9253 43.7067 20.2246 43.7523C20.5332 43.7992 20.638 44.1249 20.7015 44.3889C21.0871 45.9914 20.7251 47.5992 20.5161 49.1909C20.4178 49.9405 20.4066 50.7148 20.6795 51.4312C20.8946 51.9956 21.2277 52.4908 21.5656 52.987C21.8871 53.4591 22.2235 53.9438 22.3652 54.505C22.5572 55.2649 22.4852 56.1219 22.3843 56.8906C22.1624 58.5808 21.7336 60.2563 21.3888 61.9249C20.6925 65.2952 19.9961 68.6655 19.2998 72.0358C18.5118 75.8496 17.7239 79.6634 16.9359 83.4771C16.8713 83.7898 17.127 84.0679 17.4486 83.9899C23.7439 82.4638 30.0391 80.9378 36.3343 79.4117C38.1235 78.9779 39.9127 78.5442 41.7018 78.1105C42.223 77.9842 42.0023 77.18 41.4802 77.3066C35.185 78.8327 28.8897 80.3587 22.5945 81.8848C20.8053 82.3186 19.0162 82.7523 17.227 83.186L17.7398 83.6988C19.2241 76.5147 20.7084 69.3306 22.1927 62.1465C22.5571 60.3833 23.0068 58.6137 23.226 56.8252C23.3274 55.9977 23.3754 55.0998 23.1692 54.2834C23.0175 53.6829 22.6819 53.1505 22.3381 52.6435C21.9932 52.1349 21.6101 51.6233 21.4206 51.0315C21.1585 50.2129 21.3195 49.338 21.4623 48.5125C21.613 47.6407 21.7178 46.7697 21.6932 45.8832C21.6734 45.169 21.6547 44.3285 21.3304 43.6748C20.9655 42.9393 20.1387 42.7398 19.427 43.1015C18.7665 43.4371 18.362 44.1524 18.0914 44.811C17.79 45.5444 17.59 46.327 17.3593 47.0847C17.0697 48.0359 16.807 48.9949 16.5683 49.9602L17.081 49.669C15.6224 49.4075 14.1214 49.1492 12.6365 49.3177C11.162 49.4849 9.85791 50.1039 8.88303 51.2368C7.97639 52.2904 7.24538 53.7236 7.36427 55.1508C7.43027 55.9432 7.81541 56.5578 8.14214 57.2617C8.29659 57.5944 8.40128 57.94 8.33882 58.3087C8.26515 58.7438 8.03273 59.1464 7.84902 59.542C4.77897 66.1529 2.46964 73.1157 0.998477 80.2551C0.247188 83.9011 -0.201234 87.6071 0.0893235 91.3318C0.215275 92.9465 0.397408 94.5544 1.08605 96.0373C1.69198 97.342 2.61328 98.4975 3.67568 99.4604C8.82071 104.123 16.5509 104.346 23.0869 103.679C30.4673 102.927 37.5757 100.651 44.5528 98.2316C45.4079 97.9351 46.262 97.6359 47.1161 97.3364C47.6191 97.16 47.4026 96.3542 46.8944 96.5324Z" fill="black"/>
<path d="M47.0057 96.9349C37.3455 100.323 27.4217 103.755 17.1877 103.503C13.7883 103.42 10.337 102.907 7.28796 101.401C4.13834 99.8459 1.29711 97.1141 0.763736 93.5786C0.117516 89.2949 0.410012 85.3637 1.24977 81.1148C2.72994 73.6255 5.12717 66.3179 8.37083 59.4071C8.56991 58.9829 8.77642 58.5423 8.77675 58.0737C8.7773 57.3166 8.25064 56.6757 7.97081 55.9721C7.24797 54.1546 8.60579 51.7855 10.0639 50.6938C12.0162 49.232 14.7492 49.6724 16.9706 50.0716C17.2598 48.8963 17.5879 47.7305 17.9542 46.5769C18.2745 45.5682 18.5346 44.2877 19.4191 43.5989C19.7422 43.3472 20.2076 43.233 20.5667 43.43C20.9644 43.6482 21.0978 44.1481 21.1642 44.5969C21.3156 45.6197 21.3198 46.6643 21.1765 47.6883C21.0374 48.6824 20.7598 49.6819 20.9087 50.6745C21.1423 52.2319 22.6095 53.1879 22.8215 54.6661C23.0209 56.0572 22.7353 57.467 22.4509 58.8433C20.7467 67.0917 19.0425 75.3401 17.3382 83.5885C25.4226 81.6287 33.507 79.6689 41.5914 77.7091" fill="white"/>
<path d="M46.8944 96.5324C40.133 98.9036 33.3138 101.284 26.2172 102.431C22.7132 102.998 19.1338 103.254 15.5879 103.013C12.3106 102.789 8.98835 102.06 6.17277 100.303C3.83294 98.8428 1.79956 96.6391 1.23613 93.8677C0.884425 92.1379 0.811652 90.3118 0.830378 88.5511C0.849459 86.7572 1.01898 84.9673 1.29919 83.196C1.8532 79.6941 2.7139 76.2248 3.71761 72.8265C4.71638 69.445 5.90331 66.1169 7.2783 62.8699C7.62561 62.0498 7.98504 61.2348 8.35572 60.4249C8.69058 59.6934 9.19518 58.9029 9.19313 58.0732C9.19119 57.285 8.72415 56.6514 8.41629 55.9606C8.14801 55.3587 8.13431 54.7033 8.28862 54.0688C8.60192 52.7806 9.48497 51.5132 10.621 50.8177C11.8617 50.058 13.377 50.0241 14.7837 50.1616C15.4805 50.2296 16.1706 50.3494 16.8593 50.4729C17.0764 50.5119 17.3141 50.4165 17.3721 50.1818C17.7389 48.6985 18.1745 47.2339 18.6315 45.7761C18.8153 45.1897 19.0321 44.5689 19.4664 44.1169C19.6601 43.9153 19.9253 43.7067 20.2246 43.7523C20.5332 43.7992 20.638 44.1249 20.7015 44.3889C21.0871 45.9914 20.7251 47.5992 20.5161 49.1909C20.4178 49.9405 20.4066 50.7148 20.6795 51.4312C20.8946 51.9956 21.2277 52.4908 21.5656 52.987C21.8871 53.4591 22.2235 53.9438 22.3652 54.505C22.5572 55.2649 22.4852 56.1219 22.3843 56.8906C22.1624 58.5808 21.7336 60.2563 21.3888 61.9249C20.6925 65.2952 19.9961 68.6655 19.2998 72.0358C18.5118 75.8496 17.7239 79.6634 16.9359 83.4771C16.8713 83.7898 17.127 84.0679 17.4486 83.9899C23.7439 82.4638 30.0391 80.9378 36.3343 79.4117C38.1235 78.9779 39.9127 78.5442 41.7018 78.1105C42.223 77.9842 42.0023 77.18 41.4802 77.3066C35.185 78.8327 28.8897 80.3587 22.5945 81.8848C20.8053 82.3186 19.0162 82.7523 17.227 83.186L17.7398 83.6988C19.2241 76.5147 20.7084 69.3306 22.1927 62.1465C22.5571 60.3833 23.0068 58.6137 23.226 56.8252C23.3274 55.9977 23.3754 55.0998 23.1692 54.2834C23.0175 53.6829 22.6819 53.1505 22.3381 52.6435C21.9932 52.1349 21.6101 51.6233 21.4206 51.0315C21.1585 50.2129 21.3195 49.338 21.4623 48.5125C21.613 47.6407 21.7178 46.7697 21.6932 45.8832C21.6734 45.169 21.6547 44.3285 21.3304 43.6748C20.9655 42.9393 20.1387 42.7398 19.427 43.1015C18.7665 43.4371 18.362 44.1524 18.0914 44.811C17.79 45.5444 17.59 46.327 17.3593 47.0847C17.0697 48.0359 16.807 48.9949 16.5683 49.9602L17.081 49.669C15.6224 49.4075 14.1214 49.1492 12.6365 49.3177C11.162 49.4849 9.85791 50.1039 8.88303 51.2368C7.97639 52.2904 7.24538 53.7236 7.36427 55.1508C7.43027 55.9432 7.81541 56.5578 8.14214 57.2617C8.29659 57.5944 8.40128 57.94 8.33882 58.3087C8.26515 58.7438 8.03273 59.1464 7.84902 59.542C4.77897 66.1529 2.46964 73.1157 0.998477 80.2551C0.247188 83.9011 -0.201234 87.6071 0.0893235 91.3318C0.215275 92.9465 0.397408 94.5544 1.08605 96.0373C1.69198 97.342 2.61328 98.4975 3.67568 99.4604C8.82071 104.123 16.5509 104.346 23.0869 103.679C30.4673 102.927 37.5757 100.651 44.5528 98.2316C45.4079 97.9351 46.262 97.6359 47.1161 97.3364C47.6191 97.16 47.4026 96.3542 46.8944 96.5324Z" fill="black"/>
<path d="M20.2285 51.9304C19.8574 51.3963 19.3582 50.9346 18.6862 50.8576C18.0562 50.7854 17.4274 51.0901 17.1822 51.691C16.678 52.9262 17.8553 54.3559 18.6747 55.1524L19.0803 54.4557C18.0124 54.2709 17.0952 55.1397 16.4948 55.9269C15.865 56.7527 15.5039 57.7304 15.4112 58.7621C15.3632 59.2963 16.1971 59.2931 16.2448 58.7621C16.3145 57.9872 16.5923 57.2475 17.028 56.6046C17.2455 56.2837 17.5102 55.9949 17.8029 55.7413C18.0779 55.503 18.4687 55.1921 18.8587 55.2596C19.2443 55.3264 19.5859 54.8756 19.2643 54.5629C18.6896 54.0043 17.9642 53.1953 17.9069 52.3523C17.8799 51.9541 18.1198 51.6624 18.5324 51.6775C18.9544 51.693 19.2827 52.0258 19.5087 52.3512C19.8128 52.7888 20.5357 52.3725 20.2285 51.9304Z" fill="black"/>
<path d="M7.52314 56.097C7.68049 56.8068 8.44822 57.2354 9.14488 57.089C9.92219 56.9256 10.3654 56.1593 10.4025 55.4133L9.6257 55.6237C10.0848 56.2558 10.7509 56.7719 11.5772 56.6392C12.3286 56.5186 12.9003 55.7416 12.6118 54.9917L11.8499 55.3129C12.2582 56.0329 13.1032 56.4251 13.9165 56.2486C14.7631 56.0649 15.342 55.2503 15.3588 54.4084C15.3695 53.8717 14.5358 53.8717 14.5251 54.4084C14.5033 55.499 13.0985 55.8246 12.5697 54.8921C12.3436 54.4933 11.6344 54.7623 11.8079 55.2133C11.9519 55.5875 11.6348 55.8541 11.268 55.8274C10.8752 55.7988 10.5663 55.5068 10.3456 55.2029C10.1058 54.8727 9.59041 54.9796 9.56882 55.4133C9.5517 55.7572 9.36739 56.1685 9.00471 56.2662C8.70684 56.3465 8.39373 56.1762 8.32704 55.8754C8.21097 55.3518 7.40707 55.5734 7.52314 56.097Z" fill="black"/>
<path d="M17.1929 82.3316C16.923 83.5902 16.6169 84.8406 16.2747 86.0815C16.1319 86.5995 16.936 86.8205 17.0786 86.3032C17.4208 85.0622 17.7269 83.8118 17.9968 82.5532C18.0439 82.3333 17.9315 82.1025 17.7057 82.0405C17.4979 81.9834 17.2403 82.1105 17.1929 82.3316Z" fill="black"/>
<path d="M28.4404 102.444C31.5866 102.038 34.7694 100.97 37.792 100.034C40.8876 99.0753 43.9478 98.0071 47.0055 96.9348C47.0057 96.9347 47.001 96.9187 47.0008 96.918C46.0801 93.6486 45.1594 90.3792 44.2387 87.1098C43.3592 83.9866 42.3518 80.8566 41.5969 77.708C40.9158 77.881 40.2612 77.7194 39.5836 77.8266C38.5939 77.9832 37.5841 78.498 36.6428 78.8352C36.4827 78.8926 36.3178 78.9529 36.194 79.0695C36.0605 79.1952 35.99 79.3723 35.9257 79.5441C35.2933 81.234 34.8808 83.006 34.7018 84.8014C34.4687 87.1393 34.6306 89.4988 34.5044 91.845C34.3782 94.1912 33.933 96.5975 32.6249 98.5493C31.8451 99.7128 30.7557 100.523 29.8142 101.528C29.6227 101.733 29.4093 101.943 29.1608 102.078C28.9116 102.213 28.5953 102.202 28.4404 102.444Z" fill="black"/>
<path d="M28.4404 102.861C30.9283 102.533 33.3415 101.851 35.7341 101.112C38.1543 100.364 40.5676 99.5975 42.965 98.779C44.3513 98.3057 45.734 97.8218 47.1163 97.337C47.3279 97.2628 47.4721 97.0537 47.4074 96.8243C46.0011 91.8305 44.5821 86.8414 43.1422 81.8572C42.7341 80.4446 42.3432 79.0271 41.9988 77.5975C41.9443 77.3712 41.7002 77.2582 41.4861 77.3064C40.9412 77.429 40.3881 77.3382 39.8366 77.3813C39.3229 77.4215 38.8248 77.5583 38.3407 77.7294C37.8259 77.9115 37.3258 78.1316 36.8163 78.3275C36.3883 78.492 35.9493 78.611 35.7004 79.0313C35.4364 79.4772 35.3008 80.0397 35.1476 80.5306C34.9876 81.0432 34.8475 81.562 34.7273 82.0854C34.4824 83.1526 34.3214 84.2397 34.2386 85.3314C33.9252 89.462 34.7485 94.0284 32.598 97.8005C32.0502 98.7612 31.29 99.5184 30.4932 100.273C30.1099 100.636 29.7465 101.016 29.3714 101.387C29.1811 101.575 28.9963 101.709 28.7424 101.791C28.5126 101.866 28.2997 101.957 28.1456 102.15C27.8143 102.565 28.4004 103.159 28.7351 102.739C28.8485 102.597 29.023 102.585 29.1863 102.521C29.4017 102.436 29.5858 102.307 29.7623 102.159C30.1168 101.862 30.4196 101.497 30.7534 101.176C31.449 100.507 32.1648 99.8625 32.7488 99.0896C33.9095 97.554 34.4775 95.6314 34.7393 93.7478C35.0354 91.6171 34.9541 89.4672 34.9887 87.3228C35.0241 85.1305 35.2714 82.9783 35.9135 80.8754C36.0013 80.5878 36.0953 80.302 36.1955 80.0185C36.2862 79.7616 36.3488 79.4211 36.6135 79.293C37.119 79.0484 37.6809 78.8676 38.2058 78.6655C38.7457 78.4577 39.3173 78.2464 39.8996 78.2114C40.509 78.1748 41.1048 78.2459 41.7076 78.1102L41.1949 77.8191C41.8009 80.3353 42.5542 82.8118 43.2816 85.2947C44.0169 87.8046 44.7113 90.3268 45.4202 92.8443C45.8146 94.2448 46.2091 95.6453 46.6035 97.0459L46.8946 96.5331C42.1772 98.1874 37.4376 99.8606 32.6066 101.158C31.2365 101.525 29.8478 101.842 28.4403 102.028C28.2153 102.057 28.026 102.198 28.0235 102.445C28.0214 102.647 28.2172 102.891 28.4404 102.861Z" fill="black"/>
<path d="M62.74 121.393C64.1744 121.855 65.6232 122.273 67.0839 122.644C74.1978 124.45 81.7437 125.242 89.0228 124.015C92.3922 123.446 95.2905 122.815 98.3954 121.31C101.623 119.745 104.681 117.815 107.41 115.483C115.507 108.565 119.629 97.9622 120.467 87.5045C121.217 79.505 119.416 71.1181 114.745 64.547C114.68 64.4565 114.614 64.3625 114.592 64.2537C114.555 64.0686 114.651 63.8858 114.741 63.72C116.289 60.8734 117.093 57.5923 116.842 54.3507C116.589 51.0938 115.273 47.9843 113.464 45.2641C109.571 39.4087 103.393 35.2552 96.6727 33.186C89.9523 31.1167 82.7195 31.0394 75.7951 32.2635C70.9453 33.1208 66.0155 34.717 62.4915 38.1575C58.9675 41.5979 57.2546 47.2578 59.5402 51.6203C53.0944 55.0735 47.4827 60.2917 43.3215 66.337C40.1081 71.0054 37.5754 76.2106 36.4687 81.769C34.1547 93.3919 38.6899 106.122 47.8316 113.663C52.1757 117.247 57.3797 119.666 62.74 121.393Z" fill="white"/>
<path d="M62.6289 121.795C69.5217 124.007 76.8322 125.331 84.0896 124.964C87.5153 124.791 90.9946 124.254 94.2954 123.31C97.527 122.387 100.552 120.817 103.368 119C106.059 117.264 108.567 115.226 110.714 112.845C112.732 110.606 114.449 108.101 115.854 105.436C118.661 100.114 120.257 94.1972 120.821 88.2212C121.424 81.8486 120.677 75.4185 118.059 69.5361C117.404 68.0635 116.635 66.6409 115.754 65.2908C115.548 64.9752 115.282 64.668 115.104 64.3368C114.916 63.9868 115.31 63.5423 115.472 63.2101C115.843 62.4488 116.166 61.6615 116.431 60.8571C117.484 57.6703 117.581 54.2432 116.65 51.0157C114.926 45.0369 110.403 40.0429 105.261 36.7167C99.7467 33.1496 93.2667 31.3853 86.7385 31.0904C83.1826 30.9298 79.6144 31.1967 76.1066 31.7888C73.027 32.3086 69.9657 33.0962 67.1428 34.4579C64.4505 35.7566 61.9896 37.6248 60.3263 40.136C58.8039 42.4344 57.9057 45.2589 58.114 48.0296C58.214 49.3607 58.5694 50.6436 59.18 51.8309L59.3296 51.2606C53.9031 54.1806 49.1236 58.2649 45.2571 63.0536C41.235 68.0351 37.9798 73.8403 36.4209 80.0801C35.0515 85.561 35.1734 91.3385 36.6472 96.7857C38.1019 102.162 40.8509 107.202 44.6683 111.266C48.9505 115.825 54.536 118.895 60.3647 121.019C61.1144 121.293 61.8696 121.55 62.6289 121.795C63.1405 121.961 63.3597 121.156 62.8506 120.992C56.9728 119.09 51.2205 116.351 46.6734 112.091C42.6909 108.36 39.7244 103.59 38.0086 98.417C36.3022 93.2724 35.8038 87.6995 36.7798 82.3556C37.9174 76.1262 40.8708 70.313 44.6078 65.2478C48.1834 60.4014 52.685 56.1902 57.8423 53.0686C58.4688 52.6893 59.1055 52.3275 59.7504 51.9805C59.9562 51.8698 60 51.6049 59.8999 51.4102C58.6439 48.9676 58.6859 46.1157 59.5605 43.5559C60.4873 40.8433 62.3161 38.5638 64.6339 36.9029C67.1204 35.1211 70.0177 34.0201 72.9689 33.2849C76.2043 32.4789 79.5475 32.0391 82.8776 31.9126C89.452 31.663 96.1358 32.7822 102.021 35.8072C107.287 38.5138 111.941 42.7016 114.598 48.0504C116.074 51.0223 116.783 54.3293 116.329 57.638C116.103 59.287 115.622 60.9114 114.926 62.4228C114.756 62.7917 114.566 63.1486 114.381 63.5098C114.234 63.7979 114.11 64.0907 114.208 64.4169C114.301 64.7298 114.555 64.9974 114.736 65.2634C114.966 65.6025 115.19 65.9467 115.405 66.2952C118.699 71.6114 120.236 77.899 120.214 84.1252C120.194 90.0098 119.013 95.996 116.797 101.446C114.581 106.897 111.169 111.852 106.615 115.608C104.044 117.729 101.184 119.501 98.1848 120.95C95.2572 122.364 92.1015 123.079 88.9118 123.613C81.8892 124.789 74.6618 124.075 67.7837 122.389C66.1231 121.982 64.4785 121.514 62.8506 120.992C62.3385 120.827 62.1192 121.632 62.6289 121.795Z" fill="black"/>
<path d="M101.402 55.2152C105.605 56.6402 109.417 59.1383 112.425 62.3996C113.281 63.3277 114.067 64.3157 114.78 65.3576C115.081 65.7977 115.804 65.3812 115.5 64.9368C112.894 61.1278 109.33 57.9955 105.209 55.9136C104.051 55.3288 102.851 54.8276 101.623 54.4113C101.114 54.2387 100.895 55.0436 101.402 55.2152Z" fill="black"/>
<path d="M58.4531 52.6413C62.9936 50.4749 68.1382 49.485 73.1576 49.8677C74.5597 49.9746 75.9481 50.2001 77.3118 50.5431C77.8322 50.674 78.0542 49.8702 77.5334 49.7392C72.4829 48.4688 67.0668 48.7869 62.1105 50.3232C60.7144 50.7559 59.3514 51.2921 58.0324 51.9214C57.5484 52.1523 57.9709 52.8714 58.4531 52.6413Z" fill="black"/>
<path d="M124.726 140.257C124.737 141.346 124.867 142.434 125.109 143.497C125.159 143.716 125.412 143.846 125.622 143.788C125.848 143.726 125.963 143.495 125.913 143.275C125.687 142.283 125.57 141.274 125.559 140.257C125.554 139.721 124.72 139.719 124.726 140.257Z" fill="black"/>
<path d="M109.939 105.16C113.098 106.767 116.238 108.41 119.36 110.088C122.353 111.698 125.38 113.156 127.944 115.367C128.094 115.496 128.252 115.637 128.307 115.827C128.375 116.063 128.27 116.311 128.167 116.535C124.694 124.134 122.584 132.5 123.183 140.834C123.231 141.504 123.319 142.225 123.778 142.715C124.236 143.206 125.195 143.254 125.488 142.65C125.682 144.98 126.751 147.583 128.237 149.375C128.498 149.69 128.789 149.999 129.164 150.165C129.726 150.413 130.436 150.274 130.863 149.833C131.29 149.391 131.406 148.677 131.14 148.124C131.63 148.738 132.298 149.419 133.065 149.249C133.941 149.054 134.189 147.94 134.23 147.043C134.711 147.572 135.563 147.718 136.192 147.38C136.822 147.041 137.169 146.25 136.993 145.557C137.471 146.057 138.398 145.674 138.662 145.035C138.927 144.396 138.745 143.668 138.557 143.002C138.082 141.324 136.807 138.794 137.035 137.04C137.127 136.325 137.434 135.658 137.736 135.004C139.902 130.304 142.453 125.317 143.626 120.253C145.229 113.334 143.139 105.396 138.006 100.415C134.954 97.4535 130.536 95.5956 126.792 93.6438C122.601 91.4582 118.328 89.4267 113.987 87.5552" fill="white"/>
<path d="M109.729 105.518C113.034 107.2 116.31 108.934 119.582 110.679C121.052 111.463 122.535 112.225 123.969 113.076C124.697 113.508 125.413 113.963 126.104 114.454C126.438 114.691 126.767 114.936 127.087 115.192C127.315 115.375 127.954 115.74 127.899 116.073C127.839 116.439 127.572 116.842 127.423 117.181C127.248 117.578 127.077 117.977 126.91 118.377C126.571 119.188 126.248 120.007 125.943 120.832C125.347 122.443 124.819 124.079 124.371 125.737C123.468 129.074 122.883 132.505 122.715 135.959C122.668 136.916 122.654 137.875 122.674 138.832C122.693 139.745 122.704 140.681 122.849 141.584C122.969 142.334 123.32 143.098 124.068 143.39C124.707 143.639 125.499 143.492 125.848 142.859L125.071 142.649C125.237 144.512 125.84 146.334 126.764 147.959C127.527 149.302 128.992 151.555 130.811 150.403C131.658 149.866 131.889 148.801 131.5 147.912L130.845 148.417C131.489 149.213 132.504 150.093 133.575 149.494C134.414 149.024 134.601 147.913 134.647 147.042L133.935 147.337C134.567 147.988 135.596 148.174 136.403 147.738C137.215 147.299 137.589 146.324 137.395 145.445L136.698 145.85C137.514 146.616 138.791 145.999 139.105 145.037C139.47 143.919 138.895 142.615 138.515 141.568C138.114 140.468 137.667 139.357 137.482 138.194C137.394 137.644 137.408 137.102 137.559 136.564C137.74 135.917 138.05 135.311 138.332 134.704C139.539 132.103 140.79 129.52 141.879 126.865C142.922 124.323 143.873 121.677 144.302 118.953C145.032 114.319 144.247 109.467 142.104 105.295C141.043 103.227 139.628 101.309 137.902 99.7453C136.006 98.0265 133.766 96.7353 131.505 95.5611C129.132 94.3281 126.739 93.1242 124.348 91.9243C121.683 90.5866 118.986 89.3106 116.262 88.0981C115.575 87.7927 114.887 87.4915 114.198 87.1939C113.71 86.9836 113.285 87.7016 113.777 87.9138C116.414 89.0516 119.026 90.2466 121.609 91.5003C124.059 92.6891 126.467 93.9609 128.903 95.1768C131.106 96.2766 133.324 97.3817 135.352 98.7887C137.268 100.118 138.913 101.771 140.209 103.712C142.702 107.448 143.913 112.005 143.718 116.485C143.61 118.968 142.992 121.369 142.187 123.711C141.28 126.349 140.129 128.894 138.951 131.419C138.376 132.653 137.784 133.879 137.226 135.121C136.957 135.72 136.712 136.328 136.625 136.983C136.558 137.494 136.606 138.007 136.695 138.512C136.887 139.607 137.296 140.655 137.676 141.695C137.854 142.181 138.031 142.669 138.17 143.168C138.321 143.706 138.552 144.451 138.227 144.971C138.054 145.249 137.576 145.532 137.287 145.261C136.978 144.97 136.501 145.26 136.591 145.666C136.705 146.185 136.46 146.769 135.982 147.018C135.496 147.272 134.895 147.13 134.525 146.747C134.262 146.476 133.832 146.693 133.813 147.042C133.784 147.588 133.713 148.386 133.221 148.733C132.548 149.208 131.805 148.286 131.435 147.828C131.112 147.429 130.608 147.938 130.78 148.333C131.12 149.109 130.459 149.961 129.631 149.864C129.156 149.808 128.819 149.425 128.531 149.079C128.241 148.73 127.981 148.356 127.741 147.971C126.747 146.376 126.072 144.526 125.905 142.649C125.871 142.263 125.343 142.049 125.128 142.438C124.861 142.922 124.176 142.605 123.947 142.255C123.54 141.634 123.586 140.731 123.55 140.02C123.464 138.335 123.487 136.645 123.609 134.962C123.85 131.626 124.486 128.325 125.411 125.112C125.875 123.502 126.412 121.912 127.012 120.347C127.314 119.56 127.632 118.779 127.967 118.004C128.133 117.621 128.303 117.239 128.475 116.858C128.638 116.498 128.823 116.119 128.709 115.715C128.611 115.367 128.317 115.134 128.053 114.912C127.746 114.655 127.432 114.406 127.112 114.164C126.468 113.677 125.798 113.224 125.114 112.796C123.72 111.926 122.266 111.158 120.815 110.39C117.267 108.511 113.728 106.619 110.15 104.798C109.673 104.556 109.25 105.275 109.729 105.518Z" fill="black"/>
<path d="M29.1702 24.3223C28.1416 25.9318 26.8803 27.3955 25.997 29.0966C25.5294 29.997 25.5513 30.4209 25.6119 31.3752C25.6644 32.2034 25.559 33.1473 24.957 33.7717C24.6571 34.0829 24.2611 34.2837 23.8586 34.441C22.6914 34.8971 21.3766 35.0266 20.1742 34.6738C19.271 34.4087 18.0337 33.714 17.6778 32.7745C17.4061 32.057 17.6301 31.2656 17.4774 30.5335C17.324 29.798 16.9474 28.9771 16.5372 28.3472C16.0615 27.6166 15.4323 27.0011 14.8084 26.3922C13.0793 24.7044 10.916 22.7707 10.2547 20.3639C9.87093 18.9673 9.88592 17.4898 10.0446 16.0501C10.596 11.0478 14.6381 7.88683 19.5019 7.40123C21.9813 7.15369 24.5582 7.55033 26.7353 8.76206C30.1143 10.6427 31.8924 14.2603 31.4976 18.0847C31.2676 20.3124 30.3762 22.4353 29.1702 24.3223Z" fill="#8683FF"/>
<path d="M20.0385 40.5706C20.8202 40.7664 21.626 40.878 22.4284 40.8194C23.3445 40.7524 24.2593 40.4515 24.9677 39.8667C25.1755 39.6951 25.3709 39.4896 25.4483 39.2314C25.5977 38.733 25.2725 38.1792 25.4376 37.6857C25.5086 37.4732 25.6638 37.2983 25.7462 37.0899C25.8584 36.8057 25.82 36.4666 25.6469 36.2147C25.5645 36.0947 25.4542 35.994 25.3857 35.8655C25.2541 35.6188 25.2992 35.3156 25.3859 35.0498C25.4726 34.7839 25.5982 34.5258 25.6207 34.2471C25.6974 33.2975 24.6871 33.0516 24.0183 32.7299C23.7565 32.6039 23.4881 32.4835 23.2022 32.4323C22.9326 32.384 22.6561 32.3986 22.3828 32.4153C21.5256 32.4675 20.6695 32.5372 19.8151 32.6243C19.0068 32.7068 18.0951 32.8672 17.6168 33.6122C17.3994 33.9509 17.3406 34.4084 17.5397 34.7581C17.6432 34.9399 17.812 35.093 17.848 35.2991C17.8832 35.5015 17.7809 35.6987 17.6998 35.8875C17.622 36.0685 17.5615 36.2568 17.5193 36.4492C17.4709 36.6696 17.452 36.9054 17.5269 37.1221C17.6117 37.3672 17.8247 37.46 17.9545 37.6691C18.1183 37.9331 18.0073 38.2736 18.0203 38.5841C18.0434 39.1353 18.4444 39.336 18.7115 39.7387C18.9849 40.1508 19.2033 40.3407 19.7073 40.4825C19.8171 40.5134 19.9276 40.5428 20.0385 40.5706Z" fill="#8683FF"/>
<path d="M23.8596 34.441C22.6924 34.897 21.3776 35.0266 20.1751 34.6737C19.7771 34.557 17.6311 33.6682 18.0905 33.0936C18.2008 32.9556 18.3848 32.9042 18.557 32.8646C20.5254 32.4108 22.6089 32.466 24.5505 33.0233C24.7119 33.0697 24.8761 33.1213 25.01 33.2227C25.0675 33.2663 25.1197 33.3204 25.1463 33.3876C25.3375 33.8716 24.1697 34.3198 23.8596 34.441Z" fill="black"/>
<path d="M23.7487 34.0391C22.6549 34.4549 21.4227 34.6232 20.2858 34.2719C19.7725 34.1134 19.263 33.8625 18.8153 33.5681C18.7084 33.4978 18.6022 33.4237 18.5146 33.3294C18.4983 33.3119 18.4588 33.2471 18.4434 33.242C18.3949 33.2259 18.4596 33.1799 18.4378 33.2294C18.4374 33.2304 18.4423 33.3097 18.438 33.3069C18.4456 33.3118 18.4169 33.3318 18.4325 33.3418C18.4349 33.3433 18.532 33.3017 18.5379 33.3004C18.6636 33.2731 18.7881 33.2388 18.9143 33.2126C19.228 33.1475 19.5443 33.0939 19.8625 33.0569C21.0572 32.9182 22.2776 32.9565 23.4581 33.1887C23.8043 33.2568 24.1505 33.3367 24.488 33.4399C24.5214 33.4501 24.7656 33.5568 24.7499 33.4861C24.7463 33.47 24.6797 33.5491 24.6627 33.5618C24.3846 33.7695 24.0711 33.9132 23.7487 34.0391C23.2544 34.2322 23.4694 35.0387 23.9703 34.8431C24.3905 34.6789 24.8175 34.5047 25.1714 34.2187C25.606 33.8676 25.7586 33.2815 25.2624 32.8955C25.0047 32.6951 24.6667 32.6188 24.3567 32.5388C23.9492 32.4335 23.5363 32.3502 23.12 32.2886C22.3328 32.1722 21.5388 32.1215 20.7433 32.1544C19.9648 32.1866 19.1577 32.2733 18.4028 32.4734C17.9354 32.5972 17.4784 32.9517 17.6456 33.4881C17.7657 33.8737 18.1564 34.1407 18.4809 34.3433C18.8565 34.5777 19.2625 34.7632 19.6716 34.9305C21.0368 35.4888 22.6134 35.3589 23.9703 34.8431C24.4669 34.6543 24.2515 33.848 23.7487 34.0391Z" fill="black"/>
<path d="M17.9665 36.628C18.6673 37.1528 19.5328 37.4384 20.4057 37.4656C20.6238 37.4724 20.8324 37.269 20.8225 37.0488C20.8121 36.8171 20.6394 36.6392 20.4057 36.6319C20.3041 36.6287 20.2028 36.6225 20.1017 36.6117C20.0765 36.609 20.0512 36.606 20.0261 36.6028C20.074 36.6092 20.0732 36.6088 20.0238 36.6016C19.9863 36.5949 19.9486 36.5892 19.9112 36.5822C19.7178 36.5458 19.5272 36.4947 19.3414 36.4296C19.2995 36.4149 19.2578 36.3996 19.2163 36.3835C19.1927 36.3743 19.1691 36.3648 19.1456 36.3552C19.1866 36.3726 19.1848 36.3716 19.1401 36.3522C19.0537 36.3119 18.9678 36.2714 18.8838 36.2263C18.7102 36.133 18.5449 36.0262 18.3872 35.9081C18.212 35.7769 17.9139 35.874 17.8169 36.0576C17.7014 36.2764 17.7794 36.4879 17.9665 36.628Z" fill="black"/>
<path d="M24.1153 37.1423C24.475 37.1397 24.8448 37.0322 25.1403 36.8246C25.2308 36.7611 25.3016 36.6853 25.3319 36.5755C25.3594 36.4757 25.3469 36.3429 25.2899 36.2543C25.2325 36.1653 25.147 36.087 25.0407 36.0628C24.9366 36.0391 24.8104 36.041 24.7195 36.1048C24.6352 36.164 24.5454 36.2137 24.4506 36.2541L24.5502 36.2121C24.4333 36.2606 24.3115 36.2938 24.1861 36.3112L24.2969 36.2963C24.2366 36.3041 24.1762 36.3082 24.1153 36.3087C24.008 36.3095 23.8967 36.3546 23.8206 36.4307C23.7483 36.503 23.6939 36.6217 23.6985 36.7255C23.7034 36.8333 23.7388 36.9451 23.8206 37.0202C23.9018 37.0948 24.0027 37.1431 24.1153 37.1423Z" fill="black"/>
<path d="M21.2588 39.3429C21.3863 39.3761 21.5197 39.3948 21.6513 39.4005C21.7838 39.4062 21.9161 39.3894 22.0465 39.3672C22.1007 39.3543 22.148 39.3295 22.1882 39.2926C22.2336 39.2632 22.2694 39.2242 22.2956 39.1757C22.3261 39.1278 22.3425 39.0762 22.3451 39.0207C22.3575 38.9653 22.355 38.9099 22.3376 38.8545C22.305 38.7536 22.2425 38.6563 22.146 38.6054L22.0465 38.5633C21.9726 38.5435 21.8987 38.5435 21.8248 38.5633C21.8074 38.5663 21.7901 38.569 21.7726 38.5714L21.8834 38.5565C21.7677 38.5715 21.6511 38.5715 21.5355 38.5568L21.6463 38.5717C21.5903 38.5641 21.535 38.5532 21.4804 38.539C21.3748 38.5115 21.2538 38.5257 21.1592 38.581C21.1106 38.6072 21.0716 38.643 21.0422 38.6884C21.0054 38.7287 20.9805 38.7759 20.9676 38.8302C20.9433 38.9369 20.9486 39.0566 21.0096 39.1513C21.0681 39.242 21.1521 39.3151 21.2588 39.3429Z" fill="black"/>
<path d="M20.6975 40.6813C20.6849 41.292 21.2859 41.6804 21.8471 41.6622C22.1377 41.6528 22.4111 41.5531 22.6283 41.3583C22.832 41.1756 22.9441 40.9102 22.9559 40.6398C22.9653 40.4217 22.7574 40.2132 22.539 40.223C22.3051 40.2335 22.1323 40.4061 22.1222 40.6398C22.1212 40.661 22.1195 40.6815 22.1169 40.7026L22.1318 40.5918C22.1266 40.6228 22.1199 40.6533 22.11 40.6833C22.1051 40.6983 22.0851 40.7476 22.1122 40.6824C22.1391 40.6175 22.1181 40.6658 22.1105 40.6799C22.1022 40.6954 22.0921 40.7098 22.0836 40.7252C22.0545 40.7782 22.1045 40.6887 22.1115 40.6921C22.1114 40.692 22.0497 40.7587 22.0465 40.7616C22.0351 40.7722 21.9936 40.805 22.0484 40.7632C22.1034 40.7212 22.0607 40.7533 22.0479 40.7617C22.0299 40.7736 21.9786 40.8161 21.9565 40.8126C21.9631 40.8137 22.0489 40.779 21.9908 40.7971C21.9758 40.8018 21.961 40.8071 21.9459 40.8114C21.908 40.8223 21.8695 40.8297 21.8306 40.8356L21.9414 40.8207C21.8544 40.8315 21.7686 40.8306 21.6817 40.8191L21.7925 40.8339C21.7312 40.8242 21.6734 40.8083 21.6145 40.7894C21.5737 40.7735 21.5858 40.7787 21.6507 40.8048C21.6369 40.7983 21.6233 40.7913 21.61 40.7839C21.5967 40.7765 21.5837 40.7686 21.5709 40.7603C21.5355 40.7358 21.5452 40.744 21.6 40.7851C21.5846 40.7638 21.5554 40.7429 21.5364 40.7239C21.5089 40.6911 21.5171 40.702 21.5611 40.7566C21.5529 40.7446 21.5451 40.7323 21.5378 40.7196C21.5306 40.707 21.5239 40.6941 21.5177 40.681C21.5443 40.7477 21.5505 40.7606 21.5361 40.7199C21.5298 40.6914 21.5222 40.6644 21.5183 40.6354L21.5332 40.7462C21.5313 40.7243 21.5306 40.7033 21.5311 40.6813C21.5356 40.4631 21.3361 40.2545 21.1142 40.2644C20.8846 40.2747 20.7023 40.4476 20.6975 40.6813Z" fill="black"/>
<path d="M20.4347 33.4596C20.5103 30.5515 20.039 27.6709 19.5339 24.8171C19.2982 23.4853 19.0756 22.1465 18.7168 20.841C18.5346 20.1782 18.3145 19.5277 18.0457 18.8949C17.8388 18.4079 17.4753 17.8839 16.8661 18.0711C16.2554 18.2587 16.3266 18.9739 16.7062 19.3432C17.117 19.7428 17.803 19.8705 18.3493 19.939C19.6562 20.1027 20.9381 19.7481 22.2201 19.5524C22.5594 19.5007 22.9015 19.4638 23.2447 19.4543C23.4636 19.4482 23.8678 19.4007 24.0444 19.5675C24.1079 19.6275 24.0755 19.6386 24.1057 19.6872C24.1154 19.7028 24.0863 19.7176 24.0872 19.7301C24.0811 19.6444 24.2247 19.7295 24.0747 19.6718C23.7961 19.5646 23.4837 19.7459 23.358 19.988C23.2159 20.2616 23.2128 20.6342 23.1656 20.9348C23.107 21.3085 23.0512 21.6826 22.9982 22.0571C22.8995 22.7549 22.8095 23.454 22.7297 24.1542C22.3613 27.3825 22.2067 30.6329 22.2589 33.8815C22.2675 34.4174 23.1012 34.4191 23.0926 33.8815C23.0489 31.167 23.149 28.4512 23.3988 25.7478C23.5223 24.4112 23.6814 23.0779 23.8788 21.7503C23.9278 21.4201 23.9792 21.0904 24.0327 20.7609C24.0417 20.7052 24.1222 20.3508 24.106 20.3419C24.1542 20.3686 23.8062 20.4244 24.0282 20.5134C24.0786 20.5336 24.1546 20.5304 24.2089 20.5276C24.681 20.5024 24.9596 20.0333 24.937 19.597C24.8735 18.3714 23.0967 18.5982 22.3054 18.7046C21.0695 18.8709 19.8406 19.2396 18.5824 19.1303C18.3092 19.1066 18.0391 19.0539 17.7773 18.9719C17.6401 18.9289 17.4825 18.8825 17.3614 18.8023C17.3435 18.7904 17.245 18.6985 17.2422 18.6984C17.1889 18.6971 17.114 18.8673 17.1155 18.8882C17.1212 18.9711 17.2786 19.2036 17.3114 19.282C17.3679 19.417 17.4209 19.5535 17.4722 19.6905C17.5823 19.9838 17.6821 20.2809 17.7736 20.5806C18.1469 21.8047 18.3787 23.0658 18.603 24.324C19.1414 27.3431 19.6811 30.3804 19.6011 33.4595C19.5872 33.9962 20.4208 33.9959 20.4347 33.4596Z" fill="black"/>
<path d="M20.0277 0.41717C19.9949 1.1166 19.962 1.81602 19.9291 2.51545C19.9188 2.73356 20.1281 2.94203 20.3459 2.93228C20.5805 2.92177 20.7517 2.74912 20.7627 2.51545C20.7956 1.81602 20.8285 1.1166 20.8614 0.41717C20.8717 0.199059 20.6624 -0.00941658 20.4446 0.000328766C20.21 0.0108384 20.0388 0.1835 20.0277 0.41717Z" fill="black"/>
<path d="M8.89245 4.24148C9.28174 4.63577 9.67104 5.0301 10.0603 5.42439C10.2137 5.57979 10.4982 5.58957 10.6498 5.42439C10.8033 5.2571 10.8135 5.00072 10.6498 4.83489C10.2605 4.4406 9.87121 4.04628 9.48194 3.65199C9.3285 3.49658 9.04409 3.48681 8.89245 3.65199C8.7389 3.81927 8.72872 4.07565 8.89245 4.24148Z" fill="black"/>
<path d="M3.79197 15.4159L5.05077 15.5881C5.16701 15.604 5.26618 15.608 5.37196 15.5461C5.45841 15.4955 5.54088 15.3964 5.56351 15.297C5.5878 15.1903 5.58256 15.0705 5.5215 14.9758C5.4672 14.8916 5.3766 14.7985 5.27238 14.7842L4.01357 14.6121C3.89733 14.5962 3.79816 14.5922 3.69238 14.6541C3.60593 14.7047 3.52347 14.8038 3.50084 14.9032C3.47654 15.0099 3.48178 15.1297 3.54285 15.2244C3.59714 15.3086 3.68774 15.4017 3.79197 15.4159Z" fill="black"/>
<path d="M6.96403 26.4001C7.61046 25.8717 8.25688 25.3433 8.90332 24.8149C9.07287 24.6764 9.05788 24.3673 8.90332 24.2254C8.72321 24.0601 8.49469 24.0776 8.31382 24.2254C7.66738 24.7538 7.02097 25.2822 6.37453 25.8106C6.20499 25.9492 6.21997 26.2582 6.37453 26.4001C6.55465 26.5654 6.78315 26.548 6.96403 26.4001Z" fill="black"/>
<path d="M31.9678 5.32992C32.035 5.22018 32.1078 5.11429 32.1862 5.0122L32.121 5.09655C32.3066 4.85737 32.5209 4.64275 32.7598 4.45685L32.6755 4.52204C32.7774 4.44359 32.8832 4.37059 32.9929 4.30322C33.1786 4.18909 33.2663 3.92503 33.1424 3.73291C33.0223 3.5466 32.7709 3.46122 32.5721 3.58338C32.0335 3.91444 31.5783 4.37007 31.2479 4.90915C31.1338 5.09529 31.2013 5.37581 31.3975 5.47946C31.6007 5.58685 31.846 5.52862 31.9678 5.32992Z" fill="black"/>
<path d="M33.3436 15.0912C34.1563 15.235 34.98 15.3014 35.8052 15.2757C36.0229 15.2689 36.2323 15.0888 36.222 14.8589C36.2122 14.6388 36.0387 14.4348 35.8052 14.442C35.4193 14.454 35.0332 14.4476 34.648 14.4206C34.4593 14.4074 34.2709 14.3894 34.083 14.3667C34.0854 14.367 33.9506 14.3498 34.0137 14.3583C33.9687 14.3523 33.9238 14.3457 33.8789 14.3389C33.7741 14.3232 33.6696 14.3058 33.5653 14.2873C33.3514 14.2495 33.1057 14.3449 33.0525 14.5785C33.0063 14.7816 33.114 15.0506 33.3436 15.0912Z" fill="black"/>
<path d="M30.9775 25.6476C31.4734 26.2129 32.0406 26.71 32.657 27.1401C32.8364 27.2653 33.128 27.1787 33.2273 26.9906C33.34 26.7774 33.2692 26.5539 33.0778 26.4203C33.0074 26.3712 32.9376 26.3212 32.8686 26.2702C32.8308 26.2422 32.794 26.2092 32.7543 26.1841C32.775 26.1972 32.8124 26.2296 32.7708 26.1968C32.752 26.182 32.7332 26.1673 32.7146 26.1525C32.5764 26.0428 32.4416 25.9289 32.3103 25.811C32.0476 25.5752 31.7997 25.3234 31.567 25.0581C31.4227 24.8937 31.123 24.8996 30.9775 25.0581C30.8165 25.2335 30.8236 25.4723 30.9775 25.6476Z" fill="black"/>
<path d="M23.85 10.0668C24.5533 9.3215 26.9681 10.8773 26.916 11.7617C26.8974 12.0771 26.6072 12.3958 26.3008 12.3185C26.1443 12.279 26.0278 12.1523 25.9163 12.0356C25.5671 11.6706 25.167 11.3436 24.701 11.1488C24.4484 11.0432 24.1717 10.9732 23.9661 10.7926C23.7605 10.6119 23.6622 10.266 23.85 10.0668Z" fill="white"/>
<path d="M24.1449 10.3612C24.148 10.358 24.19 10.3149 24.192 10.3168C24.2172 10.3395 24.1034 10.37 24.1593 10.3435C24.1767 10.3353 24.1993 10.3222 24.215 10.311C24.273 10.2699 24.1756 10.3368 24.1751 10.3263C24.1747 10.3169 24.2696 10.2977 24.2826 10.294C24.3608 10.2714 24.2891 10.2714 24.2644 10.2936C24.2719 10.2869 24.3276 10.2885 24.3374 10.2881C24.3799 10.2862 24.4224 10.287 24.4649 10.2896C24.4913 10.2912 24.5182 10.2962 24.5445 10.2967C24.444 10.2947 24.4867 10.2868 24.5155 10.2933C24.621 10.3173 24.7255 10.3374 24.829 10.3705C24.8786 10.3863 24.9278 10.4037 24.9764 10.4222C25.0064 10.4336 25.0361 10.4455 25.0657 10.4577C25.0526 10.4523 24.9861 10.4212 25.0557 10.4543C25.1664 10.5069 25.2761 10.5599 25.3828 10.6203C25.4811 10.676 25.5772 10.7356 25.6708 10.7989C25.7174 10.8303 25.7633 10.8627 25.8086 10.896C25.8211 10.9052 25.9096 10.9745 25.8304 10.9115C25.8562 10.932 25.882 10.9526 25.9074 10.9736C25.9893 11.0413 26.0684 11.1124 26.1438 11.1874C26.1795 11.223 26.2145 11.2594 26.2484 11.2969C26.2685 11.3192 26.3844 11.4656 26.3116 11.3667C26.3632 11.4367 26.4123 11.508 26.4531 11.5849C26.4611 11.6001 26.4682 11.6257 26.4797 11.6384C26.5125 11.6745 26.4486 11.5394 26.4689 11.6127C26.4802 11.6533 26.4917 11.6957 26.5042 11.7358C26.5246 11.8015 26.49 11.6825 26.4978 11.6845C26.5009 11.6852 26.5008 11.738 26.5 11.7424C26.492 11.7862 26.5011 11.7443 26.5025 11.7363C26.502 11.7389 26.4563 11.8609 26.4855 11.8016C26.4476 11.8787 26.4569 11.874 26.3899 11.9208C26.4418 11.8846 26.3701 11.9207 26.3698 11.9245C26.3859 11.9116 26.4042 11.9073 26.4246 11.9118C26.3746 11.9111 26.3702 11.9125 26.4116 11.9161C26.4252 11.9194 26.4586 11.9841 26.3802 11.9017C26.2908 11.8076 26.4101 11.938 26.3137 11.8456C26.2532 11.7876 26.1971 11.725 26.1381 11.6656C26.0026 11.5291 25.8601 11.4003 25.7094 11.281C25.362 11.006 24.9984 10.8157 24.5851 10.6588C24.448 10.6067 24.2905 10.5483 24.2026 10.4386C24.239 10.484 24.199 10.428 24.1947 10.4202C24.1721 10.3754 24.1686 10.3704 24.1843 10.4052C24.1752 10.3791 24.1679 10.3525 24.1625 10.3254C24.1712 10.378 24.1515 10.3364 24.1672 10.3161C24.1588 10.3618 24.1605 10.3603 24.1722 10.3118C24.169 10.3317 24.1599 10.3482 24.1449 10.3612C24.2898 10.1892 24.3136 9.94042 24.1449 9.77166C23.996 9.62284 23.7011 9.59868 23.5554 9.77166C23.2274 10.161 23.2897 10.7248 23.6564 11.0727C23.993 11.3921 24.4633 11.4615 24.8392 11.6844C25.0157 11.7891 25.1685 11.9032 25.3206 12.0386C25.4857 12.1855 25.6276 12.3589 25.797 12.5003C26.005 12.6741 26.2466 12.7739 26.5202 12.7327C26.7848 12.693 26.995 12.5289 27.1472 12.3155C27.5547 11.744 27.2134 11.1038 26.7972 10.6634C26.3794 10.2214 25.8472 9.88397 25.2873 9.65369C24.7451 9.43072 24.0118 9.30645 23.5554 9.77166C23.1793 10.155 23.7684 10.745 24.1449 10.3612Z" fill="white"/>
<path d="M28.1729 14.4393C28.531 14.9432 29.1777 14.4303 28.898 13.9542C28.5866 13.4239 27.7778 13.8831 28.1729 14.4393Z" fill="white"/>
<path d="M27.8134 14.6501C27.852 14.7036 27.8914 14.7581 27.9373 14.8057C27.9809 14.8509 28.0341 14.8899 28.0842 14.9262C28.1526 14.9759 28.2349 15.0113 28.3157 15.0345C28.3953 15.0575 28.4847 15.0705 28.5679 15.0623C28.6239 15.0568 28.6817 15.0511 28.7367 15.0373C28.7919 15.0234 28.8485 14.9965 28.8988 14.974C29.0465 14.9079 29.1692 14.7819 29.2551 14.6472C29.3423 14.5105 29.3945 14.3249 29.3823 14.1625C29.3756 14.0738 29.3639 13.985 29.3301 13.9024C29.3058 13.8433 29.2831 13.7832 29.249 13.7289C29.2165 13.6773 29.1779 13.6291 29.1386 13.5826C29.037 13.4624 28.881 13.3696 28.7288 13.3311C28.5797 13.2934 28.4127 13.2931 28.2654 13.3396C28.1215 13.3851 27.9795 13.464 27.8773 13.5768C27.8238 13.6359 27.7721 13.7012 27.7389 13.7742C27.6848 13.8928 27.6584 13.9842 27.6506 14.1163C27.6396 14.3003 27.7088 14.5008 27.8134 14.6501C27.8767 14.7406 27.9528 14.8115 28.0624 14.8416C28.1622 14.8691 28.295 14.8567 28.3836 14.7996C28.4726 14.7422 28.5509 14.6568 28.5751 14.5505C28.5989 14.4463 28.5969 14.3203 28.5331 14.2293C28.5064 14.1912 28.4833 14.1513 28.4648 14.1086L28.5068 14.2082C28.4904 14.1685 28.4786 14.1277 28.4724 14.0852L28.4873 14.196C28.4828 14.1601 28.4824 14.1245 28.4868 14.0885L28.4719 14.1993C28.4767 14.1656 28.4853 14.1331 28.4981 14.1015L28.4561 14.2011C28.4699 14.1685 28.4875 14.1381 28.5087 14.1098L28.4436 14.1942C28.4679 14.1627 28.4959 14.135 28.5273 14.1107L28.443 14.1759C28.4749 14.1519 28.5093 14.1321 28.546 14.1164L28.4464 14.1585C28.4835 14.1432 28.5219 14.1325 28.5616 14.1266L28.4508 14.1415C28.4909 14.1361 28.5311 14.1358 28.5713 14.1409L28.4605 14.126C28.4969 14.1312 28.5321 14.1408 28.5662 14.1548L28.4666 14.1128C28.5 14.1271 28.531 14.1452 28.5601 14.1671L28.4757 14.1019C28.5093 14.128 28.5386 14.1581 28.5647 14.1916L28.4995 14.1072C28.5268 14.1434 28.5498 14.1822 28.5681 14.2237L28.5261 14.1241C28.5431 14.1643 28.5548 14.2056 28.5609 14.2488L28.546 14.138C28.5506 14.1756 28.5507 14.2129 28.5463 14.2504L28.5612 14.1396C28.5556 14.1808 28.5447 14.2204 28.5287 14.2588L28.5707 14.1592C28.5544 14.1965 28.5338 14.2312 28.5089 14.2635L28.5741 14.1791C28.5491 14.2106 28.5208 14.2386 28.4891 14.2633L28.5734 14.1981C28.5437 14.2205 28.512 14.2392 28.4779 14.2542L28.5775 14.2122C28.5434 14.2265 28.5083 14.2364 28.4716 14.2418L28.5824 14.2269C28.5478 14.2313 28.5134 14.2314 28.4787 14.2269L28.5895 14.2418C28.556 14.2368 28.5238 14.2278 28.4925 14.2148L28.5921 14.2568C28.5583 14.242 28.5271 14.2233 28.4977 14.201L28.582 14.2661C28.5464 14.238 28.5152 14.2059 28.487 14.1705L28.5522 14.2549C28.5456 14.2465 28.5394 14.2379 28.5331 14.2293C28.5069 14.1808 28.4711 14.1417 28.4257 14.1124C28.3854 14.0755 28.3382 14.0507 28.284 14.0378C28.1842 14.0103 28.0513 14.0227 27.9628 14.0798C27.8738 14.1372 27.7954 14.2226 27.7712 14.3289C27.7477 14.4322 27.7487 14.5606 27.8134 14.6501Z" fill="white"/>
<path d="M119.531 177.068C119.494 175.629 120.438 174.242 121.78 173.72C122.096 173.597 122.476 173.484 122.819 173.515C123.248 173.553 123.272 174.191 123.298 174.529C123.363 175.403 123.138 176.253 122.67 176.99L123.432 177.311C123.567 176.641 124.049 176.073 124.721 175.893C125.397 175.713 126.164 176.011 126.571 176.573C127.058 177.243 126.961 178.179 126.648 178.9C126.305 179.689 125.709 180.338 125.139 180.969L125.836 181.374C125.901 180.941 126.312 180.799 126.711 180.786C127.245 180.768 127.765 181.01 128.164 181.355C128.582 181.718 128.889 182.219 128.878 182.786C128.867 183.327 128.592 183.82 128.105 184.064L128.525 184.784C129.567 184.198 130.901 184.237 131.887 184.925C132.821 185.577 133.292 186.734 133.189 187.851C133.14 188.385 133.974 188.382 134.023 187.851C134.153 186.434 133.474 185.014 132.308 184.205C131.08 183.353 129.391 183.341 128.105 184.064C127.633 184.329 128.049 185.022 128.525 184.784C129.246 184.423 129.657 183.666 129.708 182.879C129.762 182.036 129.317 181.226 128.677 180.702C128.081 180.214 127.329 179.885 126.547 179.964C125.86 180.033 125.144 180.408 125.032 181.153C124.977 181.524 125.42 181.901 125.729 181.558C126.47 180.738 127.234 179.878 127.57 178.801C127.883 177.798 127.781 176.635 127.042 175.84C126.394 175.142 125.325 174.823 124.409 175.116C123.516 175.403 122.814 176.168 122.628 177.09C122.535 177.548 123.129 177.821 123.39 177.411C123.996 176.458 124.25 175.314 124.094 174.195C124.022 173.677 123.888 173.089 123.388 172.819C122.951 172.583 122.378 172.68 121.921 172.8C120.05 173.291 118.648 175.134 118.698 177.068C118.711 177.603 119.545 177.605 119.531 177.068Z" fill="black"/>
<path d="M121.072 185.947C121.153 185.939 121.232 185.941 121.312 185.952L121.201 185.937C121.297 185.951 121.389 185.977 121.478 186.014L121.379 185.972C121.473 186.012 121.56 186.064 121.641 186.126L121.557 186.061C121.633 186.121 121.7 186.189 121.759 186.266L121.694 186.181C121.746 186.25 121.789 186.323 121.823 186.402L121.781 186.302C121.787 186.317 121.793 186.332 121.799 186.347C121.838 186.451 121.891 186.538 121.99 186.596C122.079 186.649 122.211 186.671 122.311 186.638C122.412 186.606 122.51 186.543 122.56 186.447C122.61 186.353 122.642 186.229 122.602 186.126C122.533 185.943 122.448 185.796 122.324 185.645C122.226 185.525 122.1 185.424 121.97 185.342C121.711 185.177 121.38 185.085 121.072 185.113C120.96 185.123 120.86 185.153 120.778 185.235C120.705 185.307 120.651 185.426 120.656 185.53C120.66 185.638 120.696 185.749 120.778 185.824C120.855 185.895 120.964 185.956 121.072 185.947Z" fill="black"/>
<path d="M35.1712 179.965C33.8186 179.289 31.8491 178.731 30.7842 180.197C29.8308 181.509 30.6343 183.432 32.2457 183.659C32.4541 183.689 32.6499 183.626 32.7374 183.418C32.8112 183.243 32.7559 182.984 32.5668 182.898C31.1708 182.256 29.278 181.999 28.064 183.163C27.1229 184.064 26.851 185.683 27.8 186.673L28.2056 185.977C26.5684 185.424 24.4266 184.944 23.0964 186.417C22.5916 186.976 22.3838 187.703 22.5573 188.44C22.7187 189.126 23.2179 189.716 23.9139 189.887C24.4349 190.015 24.6572 189.211 24.1356 189.083C23.6746 188.97 23.3974 188.554 23.3362 188.096C23.2641 187.557 23.5382 187.069 23.962 186.75C25.1472 185.858 26.7222 186.354 27.984 186.78C28.3936 186.919 28.6637 186.37 28.3895 186.084C27.7357 185.401 28.0638 184.257 28.7169 183.694C29.6521 182.887 31.1231 183.147 32.1462 183.617L32.4673 182.856C31.3706 182.7 30.7628 181.423 31.5621 180.554C32.3881 179.657 33.8498 180.235 34.7505 180.685C35.2289 180.925 35.6516 180.206 35.1712 179.965Z" fill="black"/>
<path d="M55.9353 68.6813C55.9466 68.6938 55.9576 68.7065 55.9684 68.7195C55.932 68.671 55.923 68.6594 55.9416 68.6846C55.9563 68.7093 55.975 68.732 55.9901 68.7566C56.0138 68.795 56.0303 68.8533 56.059 68.887C56.0116 68.8314 56.0343 68.8246 56.0532 68.8784C56.0612 68.9015 56.0686 68.9248 56.0753 68.9484C56.0831 68.9759 56.0898 69.0037 56.0957 69.0317C56.0992 69.0483 56.109 69.1369 56.1029 69.0611C56.0965 68.981 56.105 69.0895 56.106 69.1038C56.1077 69.1285 56.1087 69.1533 56.109 69.1781C56.1098 69.2279 56.1079 69.2777 56.1035 69.3273C56.1021 69.3439 56.1004 69.3604 56.0984 69.377C56.1076 69.3117 56.1096 69.2954 56.1044 69.3282C56.0981 69.3522 56.0957 69.3777 56.0905 69.4021C56.0791 69.4554 56.0651 69.508 56.0482 69.5598C56.0405 69.5838 56.0313 69.6072 56.0232 69.631C55.9959 69.7119 56.0612 69.5529 56.0267 69.6242C56.003 69.6732 55.9794 69.7216 55.9517 69.7686C55.9269 69.8107 55.8794 69.8583 55.8621 69.9033C55.8889 69.8334 55.9004 69.8554 55.8652 69.8961C55.849 69.9148 55.8324 69.933 55.8152 69.9507C55.7981 69.9684 55.7805 69.9856 55.7625 70.0023C55.7503 70.0135 55.6689 70.071 55.7299 70.0331C55.7932 69.9939 55.7042 70.0506 55.6929 70.0581C55.6725 70.0717 55.6517 70.0846 55.6305 70.0968C55.6092 70.109 55.5875 70.1206 55.5655 70.1314C55.5545 70.1369 55.5434 70.1421 55.5321 70.1471C55.503 70.1601 55.5172 70.154 55.5748 70.1289C55.5309 70.126 55.4509 70.1687 55.4068 70.1785L55.9344 70.5804C55.9341 70.5587 55.9336 70.5371 55.9343 70.5154C55.9344 70.5126 55.9393 70.4082 55.9349 70.4739C55.9311 70.531 55.9377 70.4616 55.9402 70.4494C55.9445 70.4282 55.9495 70.4072 55.955 70.3863C55.962 70.3601 55.971 70.3347 55.9787 70.3088C55.9921 70.2632 55.9868 70.2877 55.9725 70.3178C55.9935 70.2737 56.015 70.2304 56.0405 70.1885C56.0516 70.1702 56.0654 70.1527 56.0758 70.134C56.1032 70.0844 56.0315 70.1828 56.0693 70.1406C56.1018 70.1042 56.1332 70.0675 56.169 70.034C56.1848 70.0193 56.202 70.006 56.2176 69.9912C56.1939 70.0137 56.1712 70.0233 56.2107 69.9977C56.2565 69.9681 56.3022 69.941 56.3512 69.9168C56.5471 69.8199 56.6168 69.5265 56.5007 69.3465C56.3714 69.1458 56.14 69.0934 55.9304 69.1969C55.4193 69.4495 55.0905 70.0139 55.1008 70.5804C55.1059 70.8614 55.3622 71.0412 55.6285 70.9823C56.2279 70.8497 56.6678 70.3491 56.8522 69.7814C57.041 69.1999 56.9326 68.5519 56.5248 68.0917C56.3798 67.928 56.0814 67.9327 55.9353 68.0917C55.775 68.2664 55.7805 68.5067 55.9353 68.6813Z" fill="black"/>
<path d="M54.6972 64.8128C55.7905 64.3485 57.0278 64.4205 58.1343 64.7981C59.0878 65.1235 60.0358 65.7562 60.3907 66.7406C60.5713 67.2415 61.3772 67.0254 61.1946 66.519C60.2459 63.888 56.6352 63.0913 54.2764 64.0929C54.0676 64.1816 54.0257 64.4855 54.1269 64.6633C54.2497 64.8791 54.4911 64.9003 54.6972 64.8128Z" fill="black"/>
<path d="M72.2439 73.5309C72.2552 73.5434 72.2662 73.5561 72.277 73.5691C72.2405 73.5206 72.2316 73.509 72.2502 73.5342C72.2649 73.5589 72.2836 73.5817 72.2987 73.6062C72.3224 73.6446 72.3389 73.7029 72.3676 73.7366C72.3202 73.681 72.3429 73.6742 72.3618 73.728C72.3698 73.7511 72.3772 73.7744 72.3839 73.798C72.3917 73.8255 72.3984 73.8533 72.4043 73.8813C72.4078 73.8979 72.4176 73.9865 72.4115 73.9107C72.4051 73.8306 72.4136 73.9391 72.4146 73.9534C72.4163 73.9782 72.4172 74.0029 72.4176 74.0277C72.4184 74.0775 72.4165 74.1273 72.4121 74.1769C72.4107 74.1935 72.4089 74.2101 72.407 74.2266C72.4162 74.1613 72.4182 74.1451 72.413 74.1778C72.4067 74.2018 72.4043 74.2273 72.3991 74.2517C72.3877 74.305 72.3737 74.3576 72.3568 74.4094C72.3491 74.4334 72.3399 74.4568 72.3318 74.4806C72.3045 74.5615 72.3698 74.4025 72.3353 74.4738C72.3116 74.5228 72.288 74.5712 72.2603 74.6182C72.2355 74.6603 72.188 74.7079 72.1707 74.7529C72.1975 74.683 72.2091 74.705 72.1738 74.7457C72.1576 74.7644 72.141 74.7826 72.1238 74.8003C72.1067 74.818 72.0891 74.8352 72.0711 74.8519C72.0589 74.8631 71.9775 74.9206 72.0385 74.8827C72.1018 74.8435 72.0128 74.9003 72.0015 74.9078C71.9811 74.9213 71.9603 74.9342 71.9391 74.9464C71.9178 74.9586 71.8961 74.9702 71.8741 74.981C71.8631 74.9865 71.852 74.9917 71.8407 74.9967C71.8116 75.0097 71.8258 75.0037 71.8834 74.9785C71.8395 74.9756 71.7595 75.0183 71.7154 75.0281L72.243 75.43C72.2427 75.4083 72.2422 75.3867 72.2429 75.365C72.243 75.3622 72.2479 75.2578 72.2435 75.3236C72.2397 75.3806 72.2463 75.3112 72.2488 75.299C72.2531 75.2778 72.2581 75.2568 72.2636 75.2359C72.2706 75.2098 72.2796 75.1843 72.2873 75.1584C72.3007 75.1128 72.2954 75.1373 72.2811 75.1674C72.3021 75.1233 72.3236 75.08 72.3491 75.0381C72.3602 75.0198 72.374 75.0023 72.3844 74.9836C72.4118 74.934 72.3401 75.0324 72.3779 74.9902C72.4104 74.9538 72.4418 74.9171 72.4776 74.8836C72.4934 74.8689 72.5106 74.8556 72.5262 74.8408C72.5025 74.8633 72.4798 74.8729 72.5193 74.8473C72.5651 74.8177 72.6108 74.7906 72.6598 74.7664C72.8557 74.6696 72.9254 74.3761 72.8093 74.1961C72.68 73.9955 72.4486 73.943 72.239 74.0465C71.7279 74.2991 71.3991 74.8636 71.4094 75.43C71.4145 75.711 71.6708 75.8908 71.9371 75.8319C72.5365 75.6993 72.9764 75.1987 73.1608 74.631C73.3496 74.0495 73.2412 73.4015 72.8334 72.9414C72.6884 72.7777 72.39 72.7823 72.2439 72.9414C72.0836 73.116 72.0891 73.3563 72.2439 73.5309Z" fill="black"/>
<path d="M71.0067 69.6609C72.1 69.1967 73.3374 69.2686 74.4438 69.6462C75.3974 69.9717 76.3453 70.6044 76.7003 71.5888C76.8809 72.0897 77.6868 71.8736 77.5042 71.3671C76.5554 68.7361 72.9448 67.9395 70.586 68.9411C70.3771 69.0298 70.3353 69.3337 70.4364 69.5114C70.5592 69.7272 70.8007 69.7484 71.0067 69.6609Z" fill="black"/>
<path d="M62.9241 73.7955C61.9674 73.2209 60.8668 72.9113 59.7672 72.7588C58.7379 72.616 57.6189 72.6452 56.6974 73.1834C55.9126 73.6419 55.3168 74.4605 55.2292 75.3759C55.1385 76.3241 55.7094 77.1295 56.4573 77.6482C57.4414 78.3306 58.733 78.6305 59.9102 78.4296C60.438 78.3396 60.2142 77.5361 59.6886 77.6257C58.0414 77.9068 54.8832 76.4305 56.4852 74.446C57.1482 73.6247 58.2338 73.4598 59.2297 73.5325C60.3554 73.6147 61.5334 73.9329 62.5033 74.5154C62.9644 74.7923 63.3841 74.0717 62.9241 73.7955Z" fill="black"/>
<path d="M59.22 81.8816C61.7161 82.7616 63.9686 80.9116 66.3722 80.6004C67.4493 80.461 68.5175 80.7104 69.2312 81.5714C69.8486 82.3161 70.1098 83.3401 70.1983 84.2846C70.4188 86.6361 69.8653 89.1039 68.8014 91.2002C67.9296 92.9178 66.2549 95.3859 63.9897 94.9556C62.8711 94.7431 61.9897 93.8723 61.4744 92.8937C60.809 91.63 60.6837 90.1531 60.5556 88.7554C60.507 88.2255 59.6729 88.2204 59.7219 88.7554C59.9455 91.1954 60.3402 94.1082 62.7508 95.3876C63.797 95.9429 64.9825 95.95 66.0542 95.4601C67.1394 94.9641 67.999 94.0444 68.6645 93.0748C70.1696 90.8821 70.9969 88.2026 71.0665 85.5496C71.1227 83.405 70.581 80.7486 68.301 79.9378C66.9043 79.4411 65.3502 79.8899 64.0208 80.3851C62.5757 80.9234 60.9877 81.6227 59.4417 81.0778C58.9347 80.8991 58.7166 81.7042 59.22 81.8816Z" fill="black"/>
<path d="M60.0156 88.8082C63.59 88.8806 67.1791 88.0589 70.3659 86.4385C69.7522 88.835 69.1155 91.2838 67.7368 93.3377C67.3325 93.9399 66.8471 94.5185 66.1958 94.8376C64.7958 95.5236 63.033 94.7666 62.0787 93.5338C61.1244 92.301 60.784 90.715 60.4699 89.1879" fill="black"/>
<path d="M60.0149 89.2242C63.6745 89.2879 67.3092 88.4466 70.5755 86.7976L69.9632 86.3269C69.3452 88.7392 68.7141 91.2444 67.2523 93.3063C66.6314 94.182 65.7613 94.8321 64.6396 94.6489C63.5936 94.478 62.7031 93.7848 62.1453 92.9043C61.4167 91.7542 61.1419 90.391 60.8711 89.0763C60.7629 88.5512 59.9591 88.7735 60.0672 89.298C60.5657 91.7182 61.3383 94.5375 63.997 95.3516C65.1815 95.7142 66.3867 95.4259 67.276 94.5646C68.2307 93.64 68.8571 92.3441 69.3574 91.1321C69.9687 89.6515 70.3703 88.097 70.767 86.5485C70.8609 86.1822 70.4755 85.9158 70.1547 86.0777C67.0192 87.6608 63.5256 88.4516 60.0148 88.3906C59.4782 88.3813 59.4781 89.2149 60.0149 89.2242Z" fill="black"/>
<path d="M59.6204 58.2147C61.3191 56.9827 63.6667 56.8689 65.4631 57.9643C65.9223 58.2444 66.3417 57.5237 65.8838 57.2445C63.8554 56.0076 61.1274 56.0967 59.1997 57.4949C58.7695 57.8068 59.1851 58.5304 59.6204 58.2147Z" fill="black"/>
<path d="M81.4138 63.9545C80.4126 61.6611 78.0575 60.0965 75.568 59.9946C75.0315 59.9726 75.0325 60.8063 75.568 60.8282C77.7865 60.9191 79.8099 62.3503 80.6939 64.3753C80.7847 64.5832 81.0851 64.6267 81.2642 64.5248C81.4785 64.4029 81.5033 64.1596 81.4138 63.9545Z" fill="black"/>
<path d="M97.2522 74.3965C97.1447 74.6783 97.0621 74.972 97.0234 75.282C97.1459 74.9938 97.2179 74.6968 97.2522 74.3965Z" fill="black"/>
<path d="M96.8506 74.2868C96.7276 74.6106 96.6506 74.9397 96.6069 75.2831C96.5949 75.3772 96.6613 75.5158 96.729 75.5778C96.7978 75.641 96.8752 75.68 96.9683 75.6925C97.0572 75.7044 97.1565 75.6931 97.2341 75.643L97.3185 75.5778C97.3701 75.5258 97.4058 75.4645 97.4257 75.3939C97.5603 75.0744 97.6292 74.7408 97.6693 74.3976C97.6809 74.2987 97.6145 74.17 97.5473 74.1028C97.475 74.0305 97.3563 73.9761 97.2525 73.9807C97.1447 73.9856 97.0329 74.021 96.9578 74.1028L96.8926 74.1872C96.8549 74.2522 96.8359 74.3223 96.8357 74.3976C96.8331 74.4194 96.8305 74.4412 96.8276 74.463L96.8425 74.3522C96.8042 74.6342 96.7323 74.9099 96.6218 75.1723L97.4405 75.2831C97.4419 75.272 97.4433 75.261 97.4448 75.2499L97.43 75.3607C97.4703 75.0683 97.5498 74.784 97.6545 74.5083C97.6907 74.4128 97.6622 74.2721 97.6125 74.1871C97.5618 74.1007 97.4627 74.0182 97.3633 73.9956C97.2566 73.9713 97.1368 73.9765 97.0421 74.0376L96.9578 74.1028C96.9062 74.1548 96.8704 74.2161 96.8506 74.2868Z" fill="black"/>
<path d="M114.592 64.2536C114.555 64.0686 114.651 63.8857 114.741 63.7199C116.289 60.8734 117.093 57.5923 116.841 54.3507C116.589 51.0938 115.273 47.9843 113.464 45.2641C109.57 39.4087 103.393 35.2552 96.6723 33.1859C89.952 31.1167 82.7191 31.0394 75.7948 32.2635C70.945 33.1208 66.0152 34.717 62.4912 38.1575C58.9672 41.598 57.2542 47.2578 59.5399 51.6203C58.5978 52.1251 57.676 52.6717 56.7715 53.2488C66.2415 54.8011 75.9561 54.8534 85.4406 53.3916C86.2657 58.3222 87.3145 63.6675 91.0915 66.9427C92.4885 68.1541 94.1837 68.9997 95.5066 70.2916C96.6056 71.3647 97.4211 72.9241 97.2524 74.397C98.1543 72.0334 101.293 70.7256 103.753 71.6285C106.506 72.639 108.134 75.7108 108.093 78.643C108.062 80.8695 106.789 83.399 104.573 83.6207C107.909 85.1008 111.244 86.5808 114.58 88.0608C116.406 88.8711 118.258 89.6825 120.172 90.2345C120.295 89.325 120.394 88.4142 120.467 87.5045C121.217 79.505 119.416 71.1181 114.744 64.5469C114.68 64.4565 114.614 64.3625 114.592 64.2536Z" fill="black"/>
<path d="M115.009 64.2531C114.996 64.0547 115.126 63.8858 115.216 63.7155C115.31 63.5362 115.402 63.3553 115.49 63.1729C115.665 62.8118 115.828 62.4448 115.98 62.0739C116.297 61.3046 116.562 60.5137 116.768 59.7076C117.168 58.1422 117.358 56.5128 117.291 54.8974C117.159 51.6824 116.006 48.5871 114.339 45.8602C111.314 40.9115 106.669 37.0667 101.454 34.5988C95.5621 31.8109 88.9761 30.7978 82.4952 31.0941C79.2531 31.2423 75.9949 31.68 72.8421 32.4568C69.9417 33.1714 67.0727 34.2348 64.5888 35.9205C62.2665 37.4965 60.3446 39.5974 59.2092 42.182C58.1404 44.6148 57.7279 47.3901 58.4478 49.9816C58.6255 50.6214 58.8757 51.2404 59.1804 51.8301L59.33 51.2598C58.3865 51.7674 57.4653 52.3133 56.5615 52.8884C56.288 53.0624 56.2846 53.5888 56.6611 53.6502C64.12 54.8672 71.7189 55.1806 79.2507 54.5447C81.3591 54.3667 83.4606 54.1137 85.5519 53.7929L85.0391 53.5018C85.5649 56.6396 86.1497 59.8213 87.5018 62.7256C88.1477 64.1131 88.9864 65.4191 90.049 66.5254C91.2501 67.776 92.7521 68.6309 94.1277 69.6642C95.6146 70.781 97.0322 72.4067 96.8361 74.3964C96.7863 74.9012 97.4968 74.9078 97.6548 74.5072C98.1476 73.2578 99.3248 72.3735 100.582 71.9886C101.943 71.5716 103.36 71.7391 104.572 72.49C106.999 73.9933 108.193 77.3543 107.477 80.0824C107.108 81.4894 106.15 83.0225 104.574 83.2033C104.218 83.2441 103.939 83.7917 104.364 83.9801C106.999 85.1495 109.634 86.3189 112.27 87.4883C114.826 88.6223 117.37 89.851 120.061 90.6359C120.35 90.72 120.554 90.4928 120.589 90.2339C121.075 86.6049 121.217 82.9449 120.753 79.3058C120.311 75.8371 119.389 72.4431 117.935 69.2595C117.526 68.3636 117.075 67.4866 116.581 66.6343C116.334 66.2077 116.077 65.787 115.809 65.3732C115.685 65.182 115.559 64.9922 115.43 64.8039C115.291 64.5998 115.073 64.3778 114.994 64.1423C114.825 63.6361 114.02 63.8532 114.191 64.3639C114.321 64.752 114.612 65.0762 114.838 65.4135C115.092 65.7918 115.336 66.176 115.572 66.5657C116.023 67.3114 116.441 68.0771 116.826 68.8589C117.597 70.4257 118.23 72.058 118.732 73.7301C119.731 77.05 120.213 80.5118 120.215 83.9767C120.216 86.0684 120.033 88.1619 119.755 90.2339L120.283 89.832C117.617 89.0545 115.099 87.837 112.567 86.7136C109.973 85.5625 107.379 84.4114 104.784 83.2602L104.574 84.037C106.229 83.8471 107.384 82.6264 107.998 81.1418C108.641 79.5852 108.642 77.8315 108.19 76.2229C107.731 74.5884 106.79 73.0863 105.423 72.0642C104.088 71.0655 102.424 70.7099 100.798 71.0695C99.062 71.4532 97.5109 72.6126 96.851 74.2856L97.6697 74.3965C97.8369 72.7011 96.9111 71.0524 95.7169 69.9145C94.4152 68.6741 92.7913 67.8524 91.4315 66.6859C89.0162 64.6138 87.7302 61.6296 86.9287 58.6159C86.4619 56.8605 86.143 55.0703 85.843 53.2802C85.8028 53.0406 85.5332 52.958 85.3302 52.9891C77.98 54.1165 70.4908 54.3293 63.0869 53.6412C61.0102 53.4482 58.9412 53.1823 56.8828 52.8464L56.9823 53.6082C57.8861 53.0332 58.8073 52.4873 59.7507 51.9797C59.9563 51.8691 60.0008 51.6039 59.9003 51.4094C58.7035 49.093 58.6815 46.3833 59.4402 43.9258C60.2326 41.3592 61.8243 39.1449 63.9015 37.46C66.13 35.6524 68.8134 34.4741 71.549 33.669C74.5054 32.799 77.585 32.3015 80.6527 32.0467C87.0255 31.5175 93.5581 32.2003 99.5037 34.6415C104.625 36.7441 109.306 40.164 112.554 44.6781C114.324 47.138 115.703 49.9244 116.242 52.924C116.802 56.0434 116.31 59.3146 115.027 62.2003C114.878 62.5338 114.72 62.8629 114.552 63.187C114.376 63.5268 114.149 63.8546 114.176 64.2531C114.212 64.7856 115.046 64.7895 115.009 64.2531Z" fill="black"/>
</svg>
