<svg width="20" height="20" viewBox="0 0 20 20" fill="none" xmlns="http://www.w3.org/2000/svg">
<path d="M12.6111 19.8873L6.66665 17.7746L1.5 19.8028C1.31481 19.8779 1.13407 19.9016 0.957776 19.8738C0.78148 19.846 0.619628 19.7848 0.472221 19.6901C0.324814 19.5955 0.209259 19.4689 0.125555 19.3104C0.0418517 19.1519 0 18.9686 0 18.7606V2.95775C0 2.71362 0.0696295 2.49765 0.208888 2.30986C0.348147 2.12207 0.537777 1.98122 0.777776 1.88732L5.94443 0.112676C6.05554 0.0751173 6.17147 0.0469485 6.29221 0.0281691C6.41295 0.00938978 6.53777 0 6.66665 0C6.79554 0 6.92073 0.00938978 7.04221 0.0281691C7.16369 0.0469485 7.27925 0.0751173 7.38887 0.112676L13.3333 2.22535L18.5 0.197183C18.6851 0.122066 18.8659 0.0987793 19.0422 0.127324C19.2185 0.155868 19.3803 0.216714 19.5277 0.309859C19.6751 0.403005 19.7911 0.529953 19.8755 0.690704C19.96 0.851455 20.0014 1.03437 20 1.23944V17.0423C20 17.2864 19.9307 17.5023 19.7922 17.6901C19.6537 17.8779 19.4637 18.0188 19.2222 18.1127L14.0555 19.8873C13.9444 19.9249 13.8289 19.9531 13.7089 19.9718C13.5889 19.9906 13.4637 20 13.3333 20C13.2029 20 13.0781 19.9906 12.9589 19.9718C12.8396 19.9531 12.7237 19.9249 12.6111 19.8873ZM12.2222 17.3803V4.19718L7.77776 2.61972V15.8028L12.2222 17.3803ZM14.4444 17.3803L17.7777 16.2535V2.90141L14.4444 4.19718V17.3803ZM2.22222 17.0986L5.55555 15.8028V2.61972L2.22222 3.74648V17.0986Z" fill="#09081E"/>
</svg>
