<svg width="11" height="18" viewBox="0 0 11 18" fill="none" xmlns="http://www.w3.org/2000/svg">
<path d="M8.28978 9.69165L9.48632 16.4964C9.49972 16.5765 9.4886 16.6589 9.45443 16.7324C9.42027 16.806 9.36469 16.8673 9.29514 16.9081C9.22558 16.9488 9.14536 16.9672 9.06521 16.9607C8.98505 16.9541 8.90878 16.923 8.84659 16.8715L6.01913 14.727C5.88263 14.6239 5.71682 14.5682 5.54643 14.5682C5.37605 14.5682 5.21024 14.6239 5.07374 14.727L2.24154 16.8707C2.1794 16.9221 2.10322 16.9532 2.02316 16.9597C1.9431 16.9663 1.86297 16.948 1.79346 16.9073C1.72395 16.8666 1.66837 16.8055 1.63412 16.7321C1.59988 16.6587 1.58861 16.5765 1.6018 16.4964L2.79755 9.69165" stroke="#7471F9" stroke-width="1.3" stroke-linecap="round" stroke-linejoin="round"/>
<path d="M5.54394 10.5774C8.16109 10.5774 10.2827 8.43343 10.2827 5.7887C10.2827 3.14397 8.16109 1 5.54394 1C2.92679 1 0.805176 3.14397 0.805176 5.7887C0.805176 8.43343 2.92679 10.5774 5.54394 10.5774Z" stroke="#7471F9" stroke-width="1.3" stroke-linecap="round" stroke-linejoin="round"/>
</svg>
