<svg width="22" height="22" viewBox="0 0 22 22" fill="none" xmlns="http://www.w3.org/2000/svg">
<path d="M19.25 11C19.25 6.44531 15.5547 2.75 11 2.75C6.44531 2.75 2.75 6.44531 2.75 11C2.75 15.5547 6.44531 19.25 11 19.25C15.5547 19.25 19.25 15.5547 19.25 11Z" stroke="#A7A7A7" stroke-width="1.5" stroke-miterlimit="10"/>
<path d="M10.7534 7.13478L11.0001 12.3748L11.2463 7.13478C11.2478 7.10128 11.2425 7.06782 11.2306 7.03645C11.2188 7.00508 11.2007 6.97646 11.1774 6.95233C11.1541 6.9282 11.1261 6.90907 11.0952 6.89611C11.0643 6.88315 11.031 6.87664 10.9975 6.87696C10.9644 6.87728 10.9316 6.88426 10.9013 6.8975C10.8709 6.91075 10.8435 6.92997 10.8207 6.95403C10.7979 6.9781 10.7802 7.0065 10.7687 7.03756C10.7571 7.06861 10.7519 7.10168 10.7534 7.13478Z" fill="#B5B5B5" stroke="#B5B5B5" stroke-width="1.5" stroke-linecap="round" stroke-linejoin="round"/>
<path d="M11.042 14.8486C11.0619 14.8569 11.0789 14.8708 11.0908 14.8887C11.1028 14.9066 11.1094 14.9276 11.1094 14.9492C11.1094 14.9782 11.0977 15.0059 11.0771 15.0264C11.0566 15.0469 11.029 15.0586 11 15.0586C10.9784 15.0586 10.9574 15.052 10.9395 15.04C10.9216 15.0281 10.9077 15.0111 10.8994 14.9912C10.8911 14.9712 10.8884 14.949 10.8926 14.9277C10.8968 14.9066 10.9076 14.8873 10.9229 14.8721C10.9381 14.8568 10.9573 14.846 10.9785 14.8418C10.9997 14.8376 11.022 14.8404 11.042 14.8486Z" fill="#B5B5B5" stroke="#B5B5B5" stroke-width="1.5"/>
</svg>
