<svg width="19" height="18" viewBox="0 0 19 18" fill="none" xmlns="http://www.w3.org/2000/svg">
<mask id="path-1-outside-1_32_54" maskUnits="userSpaceOnUse" x="-0.17334" y="-0.79248" width="19" height="19" fill="black">
<rect fill="white" x="-0.17334" y="-0.79248" width="19" height="19"/>
<path d="M5.76314 17.4833C4.39272 17.4833 3.22737 16.9971 2.26709 16.0246C1.3068 15.0521 0.82666 13.8694 0.82666 12.4766C0.82666 11.8949 0.925105 11.3284 1.122 10.7771C1.31889 10.2257 1.6032 9.72359 1.97495 9.27082L5.71942 4.71758L4.13186 1.46217C3.98188 1.17136 3.98828 0.889553 4.15105 0.61674C4.31454 0.343926 4.55976 0.20752 4.88673 0.20752H13.8257C14.1527 0.20752 14.3979 0.343926 14.5614 0.61674C14.7249 0.889553 14.7313 1.17136 14.5806 1.46217L12.993 4.71758L16.7375 9.27082C17.1092 9.72359 17.3935 10.2257 17.5904 10.7771C17.7873 11.3277 17.8858 11.8942 17.8858 12.4766C17.8858 13.8694 17.406 15.0521 16.4464 16.0246C15.4868 16.9971 14.3211 17.4833 12.9493 17.4833H5.76314ZM9.35301 12.6029C8.8782 12.6029 8.47305 12.4319 8.13755 12.09C7.80206 11.7481 7.63431 11.3367 7.63431 10.8559C7.63431 10.375 7.80312 9.96473 8.14075 9.62497C8.47838 9.28522 8.88495 9.11534 9.36048 9.11534C9.836 9.11534 10.2412 9.28666 10.5759 9.62929C10.9107 9.97193 11.0785 10.3833 11.0792 10.8634C11.0799 11.3436 10.9107 11.7539 10.5717 12.0943C10.2326 12.4348 9.8264 12.6047 9.35301 12.604M6.70139 4.25653H12.0324L13.4877 1.28726H5.22471L6.70139 4.25653ZM5.76314 16.4036H12.9493C14.0304 16.4036 14.9459 16.0206 15.6958 15.2547C16.445 14.4874 16.8196 13.5621 16.8196 12.4787C16.8196 12.0223 16.7439 11.5779 16.5925 11.1452C16.4411 10.7126 16.2189 10.3203 15.9261 9.96833L12.1091 5.33626H6.62889L2.80765 9.96293C2.51338 10.3142 2.28735 10.7083 2.12955 11.1452C1.97175 11.5815 1.89285 12.0274 1.89285 12.483C1.89285 13.5642 2.27135 14.4881 3.02835 15.2547C3.78464 16.0206 4.69623 16.4036 5.76314 16.4036Z"/>
</mask>
<path d="M5.76314 17.4833C4.39272 17.4833 3.22737 16.9971 2.26709 16.0246C1.3068 15.0521 0.82666 13.8694 0.82666 12.4766C0.82666 11.8949 0.925105 11.3284 1.122 10.7771C1.31889 10.2257 1.6032 9.72359 1.97495 9.27082L5.71942 4.71758L4.13186 1.46217C3.98188 1.17136 3.98828 0.889553 4.15105 0.61674C4.31454 0.343926 4.55976 0.20752 4.88673 0.20752H13.8257C14.1527 0.20752 14.3979 0.343926 14.5614 0.61674C14.7249 0.889553 14.7313 1.17136 14.5806 1.46217L12.993 4.71758L16.7375 9.27082C17.1092 9.72359 17.3935 10.2257 17.5904 10.7771C17.7873 11.3277 17.8858 11.8942 17.8858 12.4766C17.8858 13.8694 17.406 15.0521 16.4464 16.0246C15.4868 16.9971 14.3211 17.4833 12.9493 17.4833H5.76314ZM9.35301 12.6029C8.8782 12.6029 8.47305 12.4319 8.13755 12.09C7.80206 11.7481 7.63431 11.3367 7.63431 10.8559C7.63431 10.375 7.80312 9.96473 8.14075 9.62497C8.47838 9.28522 8.88495 9.11534 9.36048 9.11534C9.836 9.11534 10.2412 9.28666 10.5759 9.62929C10.9107 9.97193 11.0785 10.3833 11.0792 10.8634C11.0799 11.3436 10.9107 11.7539 10.5717 12.0943C10.2326 12.4348 9.8264 12.6047 9.35301 12.604M6.70139 4.25653H12.0324L13.4877 1.28726H5.22471L6.70139 4.25653ZM5.76314 16.4036H12.9493C14.0304 16.4036 14.9459 16.0206 15.6958 15.2547C16.445 14.4874 16.8196 13.5621 16.8196 12.4787C16.8196 12.0223 16.7439 11.5779 16.5925 11.1452C16.4411 10.7126 16.2189 10.3203 15.9261 9.96833L12.1091 5.33626H6.62889L2.80765 9.96293C2.51338 10.3142 2.28735 10.7083 2.12955 11.1452C1.97175 11.5815 1.89285 12.0274 1.89285 12.483C1.89285 13.5642 2.27135 14.4881 3.02835 15.2547C3.78464 16.0206 4.69623 16.4036 5.76314 16.4036Z" fill="#7471F9"/>
<path d="M0.82666 12.4766H0.62666H0.82666ZM1.97495 9.27082L1.82048 9.14379L1.82038 9.14391L1.97495 9.27082ZM5.71942 4.71758L5.8739 4.84461L5.9555 4.74538L5.89919 4.62991L5.71942 4.71758ZM4.13186 1.46217L4.31167 1.37449L4.30961 1.3705L4.13186 1.46217ZM4.15105 0.61674L3.9795 0.513935L3.9793 0.514265L4.15105 0.61674ZM14.5806 1.46217L14.4029 1.37013L14.4008 1.37451L14.5806 1.46217ZM12.993 4.71758L12.8132 4.62991L12.7569 4.74538L12.8385 4.84461L12.993 4.71758ZM16.7375 9.27082L16.892 9.14391L16.8919 9.14379L16.7375 9.27082ZM17.5904 10.7771L17.4021 10.8443L17.4021 10.8444L17.5904 10.7771ZM12.9493 17.4833V17.6833V17.4833ZM6.70139 4.25653L6.52231 4.34559L6.57749 4.45653H6.70139V4.25653ZM12.0324 4.25653V4.45653H12.1571L12.2119 4.34455L12.0324 4.25653ZM13.4877 1.28726L13.6673 1.37528L13.8085 1.08726H13.4877V1.28726ZM5.22471 1.28726V1.08726H4.90188L5.04563 1.37631L5.22471 1.28726ZM15.6958 15.2547L15.8387 15.3946L15.8389 15.3944L15.6958 15.2547ZM15.9261 9.96833L15.7717 10.0955L15.7724 10.0962L15.9261 9.96833ZM12.1091 5.33626L12.2635 5.20908L12.2035 5.13626H12.1091V5.33626ZM6.62889 5.33626V5.13626H6.53468L6.47468 5.2089L6.62889 5.33626ZM2.80765 9.96293L2.96096 10.0914L2.96185 10.0903L2.80765 9.96293ZM2.12955 11.1452L2.31762 11.2133L2.31766 11.2132L2.12955 11.1452ZM5.76314 17.4833V17.2833C4.44604 17.2833 3.33199 16.8184 2.4094 15.884L2.26709 16.0246L2.12478 16.1651C3.12275 17.1757 4.33941 17.6833 5.76314 17.6833V17.4833ZM2.26709 16.0246L2.4094 15.884C1.48686 14.9498 1.02666 13.8179 1.02666 12.4766H0.82666H0.62666C0.62666 13.9209 1.12674 15.1544 2.12478 16.1651L2.26709 16.0246ZM0.82666 12.4766H1.02666C1.02666 11.918 1.12111 11.3743 1.31035 10.8443L1.122 10.7771L0.933644 10.7098C0.729098 11.2826 0.62666 11.8719 0.62666 12.4766H0.82666ZM1.122 10.7771L1.31035 10.8443C1.49949 10.3146 1.77238 9.83272 2.12953 9.39773L1.97495 9.27082L1.82038 9.14391C1.43403 9.61446 1.13828 10.1367 0.933644 10.7098L1.122 10.7771ZM1.97495 9.27082L2.12942 9.39786L5.8739 4.84461L5.71942 4.71758L5.56495 4.59054L1.82048 9.14379L1.97495 9.27082ZM5.71942 4.71758L5.89919 4.62991L4.31162 1.37451L4.13186 1.46217L3.9521 1.54984L5.53966 4.80524L5.71942 4.71758ZM4.13186 1.46217L4.30961 1.3705C4.19015 1.13886 4.19671 0.93056 4.32281 0.719215L4.15105 0.61674L3.9793 0.514265C3.77985 0.848545 3.77362 1.20387 3.95411 1.55384L4.13186 1.46217ZM4.15105 0.61674L4.32261 0.719544C4.44873 0.509071 4.62763 0.40752 4.88673 0.40752V0.20752V0.00751953C4.49189 0.00751953 4.18034 0.178782 3.9795 0.513935L4.15105 0.61674ZM4.88673 0.20752V0.40752H13.8257V0.20752V0.00751953H4.88673V0.20752ZM13.8257 0.20752V0.40752C14.0848 0.40752 14.2637 0.509071 14.3898 0.719544L14.5614 0.61674L14.7329 0.513935C14.5321 0.178782 14.2205 0.00751953 13.8257 0.00751953V0.20752ZM14.5614 0.61674L14.3898 0.719544C14.5164 0.930724 14.5229 1.1387 14.403 1.37016L14.5806 1.46217L14.7581 1.55419C14.9396 1.20403 14.9333 0.848382 14.7329 0.513935L14.5614 0.61674ZM14.5806 1.46217L14.4008 1.37451L12.8132 4.62991L12.993 4.71758L13.1728 4.80524L14.7603 1.54984L14.5806 1.46217ZM12.993 4.71758L12.8385 4.84461L16.583 9.39786L16.7375 9.27082L16.8919 9.14379L13.1475 4.59054L12.993 4.71758ZM16.7375 9.27082L16.5829 9.39773C16.94 9.83272 17.2129 10.3146 17.4021 10.8443L17.5904 10.7771L17.7788 10.7098C17.5741 10.1367 17.2784 9.61446 16.892 9.14391L16.7375 9.27082ZM17.5904 10.7771L17.4021 10.8444C17.5913 11.3735 17.6858 11.9173 17.6858 12.4766H17.8858H18.0858C18.0858 11.8712 17.9833 11.2819 17.7788 10.7097L17.5904 10.7771ZM17.8858 12.4766H17.6858C17.6858 13.818 17.2259 14.9499 16.304 15.8841L16.4464 16.0246L16.5888 16.165C17.5861 15.1543 18.0858 13.9208 18.0858 12.4766H17.8858ZM16.4464 16.0246L16.304 15.8841C15.3822 16.8183 14.2679 17.2833 12.9493 17.2833V17.4833V17.6833C14.3744 17.6833 15.5914 17.1758 16.5888 16.165L16.4464 16.0246ZM12.9493 17.4833V17.2833H5.76314V17.4833V17.6833H12.9493V17.4833ZM9.35301 12.6029V12.4029C8.93244 12.4029 8.57857 12.2539 8.28031 11.9499L8.13755 12.09L7.9948 12.2301C8.36753 12.6099 8.82397 12.8029 9.35301 12.8029V12.6029ZM8.13755 12.09L8.28031 11.9499C7.98166 11.6456 7.83431 11.2846 7.83431 10.8559H7.63431H7.43431C7.43431 11.3889 7.62246 11.8506 7.9948 12.2301L8.13755 12.09ZM7.63431 10.8559H7.83431C7.83431 10.4276 7.98239 10.0681 8.28262 9.76595L8.14075 9.62497L7.99889 9.484C7.62386 9.86139 7.43431 10.3224 7.43431 10.8559H7.63431ZM8.14075 9.62497L8.28262 9.76595C8.58301 9.46366 8.93865 9.31534 9.36048 9.31534V9.11534V8.91534C8.83126 8.91534 8.37375 9.10677 7.99889 9.484L8.14075 9.62497ZM9.36048 9.11534V9.31534C9.7817 9.31534 10.1354 9.46462 10.4329 9.76907L10.5759 9.62929L10.719 9.48952C10.3469 9.10869 9.89029 8.91534 9.36048 8.91534V9.11534ZM10.5759 9.62929L10.4329 9.76907C10.7311 10.0743 10.8785 10.4356 10.8792 10.8637L11.0792 10.8634L11.2792 10.8631C11.2784 10.331 11.0903 9.86954 10.719 9.48952L10.5759 9.62929ZM11.0792 10.8634L10.8792 10.8637C10.8798 11.2908 10.7316 11.6503 10.43 11.9532L10.5717 12.0943L10.7134 12.2355C11.0898 11.8575 11.28 11.3963 11.2792 10.8631L11.0792 10.8634ZM10.5717 12.0943L10.43 11.9532C10.1279 12.2566 9.77252 12.4046 9.35332 12.404L9.35301 12.604L9.35271 12.804C9.88029 12.8048 10.3374 12.6131 10.7134 12.2355L10.5717 12.0943ZM6.70139 4.25653V4.45653H12.0324V4.25653V4.05653H6.70139V4.25653ZM12.0324 4.25653L12.2119 4.34455L13.6673 1.37528L13.4877 1.28726L13.3081 1.19923L11.8528 4.16851L12.0324 4.25653ZM13.4877 1.28726V1.08726H5.22471V1.28726V1.48726H13.4877V1.28726ZM5.22471 1.28726L5.04563 1.37631L6.52231 4.34559L6.70139 4.25653L6.88047 4.16747L5.40379 1.1982L5.22471 1.28726ZM5.76314 16.4036V16.6036H12.9493V16.4036V16.2036H5.76314V16.4036ZM12.9493 16.4036V16.6036C14.0837 16.6036 15.0508 16.1993 15.8387 15.3946L15.6958 15.2547L15.5529 15.1148C14.841 15.8419 13.9772 16.2036 12.9493 16.2036V16.4036ZM15.6958 15.2547L15.8389 15.3944C16.625 14.5893 17.0196 13.6137 17.0196 12.4787H16.8196H16.6196C16.6196 13.5104 16.265 14.3855 15.5527 15.115L15.6958 15.2547ZM16.8196 12.4787H17.0196C17.0196 11.9998 16.94 11.5329 16.7812 11.0792L16.5925 11.1452L16.4037 11.2113C16.5477 11.6228 16.6196 12.0449 16.6196 12.4787H16.8196ZM16.5925 11.1452L16.7812 11.0792C16.622 10.624 16.388 10.2108 16.0798 9.84042L15.9261 9.96833L15.7724 10.0962C16.0499 10.4299 16.2602 10.8012 16.4037 11.2113L16.5925 11.1452ZM15.9261 9.96833L16.0804 9.84114L12.2635 5.20908L12.1091 5.33626L11.9548 5.46345L15.7718 10.0955L15.9261 9.96833ZM12.1091 5.33626V5.13626H6.62889V5.33626V5.53626H12.1091V5.33626ZM6.62889 5.33626L6.47468 5.2089L2.65344 9.83557L2.80765 9.96293L2.96185 10.0903L6.78309 5.46363L6.62889 5.33626ZM2.80765 9.96293L2.65434 9.8345C2.3448 10.204 2.10709 10.6186 1.94144 11.0773L2.12955 11.1452L2.31766 11.2132C2.4676 10.798 2.68196 10.4244 2.96096 10.0914L2.80765 9.96293ZM2.12955 11.1452L1.94148 11.0772C1.77593 11.5348 1.69285 12.0038 1.69285 12.483H1.89285H2.09285C2.09285 12.051 2.16757 11.6281 2.31762 11.2133L2.12955 11.1452ZM1.89285 12.483H1.69285C1.69285 13.6166 2.09193 14.5911 2.88604 15.3952L3.02835 15.2547L3.17066 15.1142C2.45077 14.3852 2.09285 13.5118 2.09285 12.483H1.89285ZM3.02835 15.2547L2.88604 15.3952C3.67953 16.1988 4.64222 16.6036 5.76314 16.6036V16.4036V16.2036C4.75025 16.2036 3.88975 15.8424 3.17066 15.1142L3.02835 15.2547Z" fill="#7471F9" mask="url(#path-1-outside-1_32_54)"/>
</svg>
