<svg width="18" height="17" viewBox="0 0 18 17" fill="none" xmlns="http://www.w3.org/2000/svg">
<path d="M11.2465 7.42855H12.5364C12.6713 7.42855 12.8007 7.485 12.896 7.58546C12.9914 7.68593 13.045 7.82219 13.045 7.96427C13.045 8.10635 12.9914 8.24261 12.896 8.34308C12.8007 8.44354 12.6713 8.49999 12.5364 8.49999H5.41541C5.28051 8.49999 5.15114 8.44354 5.05575 8.34308C4.96036 8.24261 4.90677 8.10635 4.90677 7.96427C4.90677 7.82219 4.96036 7.68593 5.05575 7.58546C5.15114 7.485 5.28051 7.42855 5.41541 7.42855H6.18549C6.04153 7.26035 5.95187 7.04842 5.92939 6.8232C5.90691 6.59798 5.95276 6.37104 6.06037 6.17498L8.60357 1.53569C8.73847 1.28961 8.96066 1.11005 9.22126 1.03651C9.48186 0.962967 9.75953 1.00147 9.99317 1.14354L12.6361 2.75069C12.8697 2.89277 13.0402 3.12679 13.11 3.40126C13.1798 3.67573 13.1433 3.96818 13.0084 4.21426L11.2465 7.42855ZM12.1274 3.67855L9.48453 2.0714L6.94133 6.7107L8.12138 7.42855H10.0725L12.1274 3.67855ZM13.0043 6.35712L13.5913 5.28569C13.7428 5.29169 13.8912 5.33328 14.0255 5.40743C14.1598 5.48158 14.2766 5.58642 14.3675 5.71427L16.9107 9.28534C17.0427 9.4708 17.1141 9.69638 17.1141 9.9282V14.9286C17.1141 15.2127 17.007 15.4853 16.8162 15.6862C16.6254 15.8871 16.3667 16 16.0969 16H1.85493C1.58513 16 1.32638 15.8871 1.1356 15.6862C0.944824 15.4853 0.837646 15.2127 0.837646 14.9286V9.9282C0.837646 9.69638 0.909037 9.4708 1.0411 9.28534L3.5843 5.71427C3.67906 5.5812 3.80193 5.47319 3.94319 5.39881C4.08444 5.32442 4.2402 5.28569 4.39813 5.28569H5.37777L4.89049 6.17498C4.8587 6.23295 4.83213 6.29393 4.81115 6.35712H4.39813L2.10925 9.57142H15.8425L13.5537 6.35712H13.0043ZM1.85493 14.9286H16.0969V10.6428H1.85493V14.9286Z" fill="#7471F9" stroke="#7471F9" stroke-width="0.2"/>
</svg>
