<svg width="78" height="19" viewBox="0 0 78 19" fill="none" xmlns="http://www.w3.org/2000/svg">
<rect x="0.25" y="0.25" width="77.5" height="18.5" rx="9.25" fill="#4191E6" fill-opacity="0.84" stroke="#69ACFB" stroke-width="0.5"/>
<path d="M13.7305 6.30078H9.875V11.6094C10.8672 11.6094 11.7012 11.5859 12.377 11.5391C13.0566 11.4922 13.7422 11.4023 14.4336 11.2695L14.5508 12.0312C13.8125 12.1719 13.0898 12.2676 12.3828 12.3184C11.6758 12.3691 10.7969 12.3945 9.74609 12.3945H8.94922V5.52734H13.7305V6.30078ZM17.0703 14.9727H16.1445V9.08984H13.1094V8.32812H16.1445V4.53125H17.0703V14.9727ZM20.9727 5.70312H26.1289V4.70703H27.043V8.12891H20.0586V4.70703H20.9727V5.70312ZM26.1289 7.41406V6.40625H20.9727V7.41406H26.1289ZM28.2852 9.75781H23.9844V10.7773H27.0664V13.0859H20.8789V14.1055H27.3828V14.832H19.9648V12.4062H26.1641V11.4805H19.9414V10.7773H23.0703V9.75781H18.793V8.99609H28.2852V9.75781ZM31.9648 5.33984C32.4336 5.34375 32.8535 5.47461 33.2246 5.73242C33.5996 5.99023 33.9023 6.35742 34.1328 6.83398C34.3633 7.31055 34.502 7.87109 34.5488 8.51562H36.8867V4.53125H37.8008V14.9727H36.8867V9.27734H34.5605C34.5254 9.94922 34.3945 10.5352 34.168 11.0352C33.9414 11.5352 33.6367 11.9199 33.2539 12.1895C32.875 12.459 32.4453 12.5938 31.9648 12.5938C31.457 12.5938 31.0039 12.4453 30.6055 12.1484C30.2109 11.8516 29.9023 11.4297 29.6797 10.8828C29.4609 10.3359 29.3516 9.69922 29.3516 8.97266C29.3516 8.24609 29.4609 7.60938 29.6797 7.0625C29.9023 6.51562 30.2109 6.09375 30.6055 5.79688C31 5.49609 31.4531 5.34375 31.9648 5.33984ZM31.9648 6.16016C31.625 6.16406 31.3223 6.2832 31.0566 6.51758C30.7949 6.74805 30.5918 7.07617 30.4473 7.50195C30.3027 7.92383 30.2305 8.41406 30.2305 8.97266C30.2305 9.53125 30.3027 10.0234 30.4473 10.4492C30.5918 10.8711 30.7949 11.1973 31.0566 11.4277C31.3223 11.6582 31.625 11.7734 31.9648 11.7734C32.3008 11.7734 32.5996 11.6582 32.8613 11.4277C33.127 11.1973 33.332 10.8711 33.4766 10.4492C33.625 10.0234 33.6992 9.53125 33.6992 8.97266C33.6992 8.41406 33.625 7.92383 33.4766 7.50195C33.332 7.07617 33.1289 6.74805 32.8672 6.51758C32.6055 6.2832 32.3047 6.16406 31.9648 6.16016ZM44.9727 10.2734H40.0859V5.44531H44.9727V10.2734ZM40.9883 9.53516H44.0703V6.20703H40.9883V9.53516ZM48.1367 12.0312H47.2227V4.54297H48.1367V12.0312ZM48.4648 14.5977H41.4102V11.3047H42.3242V13.8359H48.4648V14.5977ZM55.168 6.00781C55.1641 6.45312 55.3379 6.87891 55.6895 7.28516C56.041 7.6875 56.5 8.02734 57.0664 8.30469C57.6328 8.58203 58.2227 8.76562 58.8359 8.85547L58.4961 9.58203C57.9453 9.48828 57.4141 9.33203 56.9023 9.11328C56.3945 8.89453 55.9434 8.62109 55.5488 8.29297C55.1543 7.96094 54.8555 7.5918 54.6523 7.18555C54.4492 7.5918 54.1504 7.95898 53.7559 8.28711C53.3613 8.61523 52.9102 8.89062 52.4023 9.11328C51.8984 9.33203 51.375 9.48828 50.832 9.58203L50.4688 8.85547C51.0781 8.76562 51.666 8.58203 52.2324 8.30469C52.7988 8.02734 53.2578 7.6875 53.6094 7.28516C53.9609 6.87891 54.1367 6.45312 54.1367 6.00781V5.9375H50.7969V5.1875H58.4961V5.9375H55.168V6.00781ZM59.3984 11.2344H55.0859V14.9492H54.1836V11.2344H49.9062V10.4727H59.3984V11.2344ZM68.4336 7.25H69.9922V8.02344H68.4336V10.7539H67.5078V4.53125H68.4336V7.25ZM65.082 10.9531C65.7852 10.9531 66.3945 11.0332 66.9102 11.1934C67.4258 11.3496 67.8223 11.5762 68.0996 11.873C68.377 12.1699 68.5156 12.5234 68.5156 12.9336C68.5156 13.3516 68.377 13.709 68.0996 14.0059C67.8223 14.3066 67.4258 14.5352 66.9102 14.6914C66.3984 14.8477 65.7891 14.9258 65.082 14.9258C64.3711 14.9258 63.7559 14.8477 63.2363 14.6914C62.7207 14.5352 62.3223 14.3066 62.041 14.0059C61.7637 13.709 61.625 13.3516 61.625 12.9336C61.625 12.5234 61.7637 12.1699 62.041 11.873C62.3223 11.5762 62.7227 11.3496 63.2422 11.1934C63.7617 11.0332 64.375 10.9531 65.082 10.9531ZM65.082 11.7148C64.5625 11.7109 64.1094 11.7578 63.7227 11.8555C63.3398 11.9531 63.0449 12.0957 62.8379 12.2832C62.6309 12.4668 62.5273 12.6836 62.5273 12.9336C62.5273 13.1875 62.6309 13.4102 62.8379 13.6016C63.0449 13.7891 63.3398 13.9336 63.7227 14.0352C64.1094 14.1367 64.5625 14.1875 65.082 14.1875C65.5977 14.1875 66.0469 14.1367 66.4297 14.0352C66.8125 13.9336 67.1074 13.7891 67.3145 13.6016C67.5215 13.4102 67.625 13.1875 67.625 12.9336C67.625 12.6836 67.5215 12.4668 67.3145 12.2832C67.1074 12.0957 66.8125 11.9531 66.4297 11.8555C66.0469 11.7578 65.5977 11.7109 65.082 11.7148ZM65.3867 6.08984H61.6602V9.14844C62.7734 9.14062 63.6719 9.11328 64.3555 9.06641C65.0391 9.01562 65.7148 8.92188 66.3828 8.78516L66.4766 9.54688C65.7812 9.6875 65.0801 9.78125 64.373 9.82812C63.666 9.875 62.7305 9.89844 61.5664 9.89844H60.7578V5.32812H65.3867V6.08984Z" fill="white"/>
</svg>
