<svg width="338" height="183" viewBox="0 0 338 183" fill="none" xmlns="http://www.w3.org/2000/svg">
<rect x="23.5" y="23.5" width="107" height="141" rx="5.5" fill="white" stroke="#32A7D3"/>
<rect x="206.5" y="23.5" width="107" height="141" rx="5.5" fill="white" stroke="#7471F9"/>
<path d="M29 19.5H125C128.038 19.5 130.5 21.9624 130.5 25V46.5H23.5V25C23.5 21.9624 25.9624 19.5 29 19.5Z" fill="#32A7D3" stroke="#3DB8E6"/>
<path d="M206 25C206 21.6863 208.686 19 212 19H308C311.314 19 314 21.6863 314 25V47H206V25Z" fill="#7471F9"/>
<path d="M151.219 102.5L141.844 110.727L141.844 94.2728L151.219 102.5Z" fill="#71CCF9"/>
<rect x="143.213" y="99.1074" width="6.78572" height="12.2143" transform="rotate(90 143.213 99.1074)" fill="#71CCF9"/>
<path d="M187 102.5L196.374 110.727L196.374 94.2728L187 102.5Z" fill="#7471F9"/>
<rect width="6.78572" height="12.2143" transform="matrix(4.37114e-08 1 1 -4.37114e-08 195.006 99.1074)" fill="#7471F9"/>
<path d="M54.9786 27.8619V35.6305H53.5331V32.2659H52.3246V35.2099H50.9033V28.0988H52.3246V31.0235H53.5331V27.8619H54.9786ZM44.3432 30.3902V29.201H46.6782V27.9634H48.1865V29.201H50.4972V30.3902H44.3432ZM44.7735 33.0297C44.7686 31.739 45.8854 30.8881 47.4323 30.8881C49.0035 30.8881 50.1153 31.739 50.1202 33.0297C50.1153 34.3059 49.0035 35.1568 47.4323 35.1568C45.8854 35.1568 44.7686 34.3059 44.7735 33.0297ZM46.1319 33.0297C46.1319 33.663 46.6588 34.0642 47.4323 34.0642C48.2106 34.0642 48.7424 33.663 48.7424 33.0297C48.7424 32.3867 48.2106 31.9903 47.4323 31.9903C46.6588 31.9903 46.1319 32.3867 46.1319 33.0297ZM46.5767 37.9945C46.567 36.578 48.1671 35.7756 50.8066 35.7756C53.4461 35.7756 55.0366 36.578 55.0414 37.9945C55.0366 39.4012 53.4461 40.2037 50.8066 40.1989C48.1671 40.2037 46.567 39.4012 46.5767 37.9945ZM48.0898 37.9945C48.0849 38.6809 49.047 39.0483 50.8066 39.0387C52.5615 39.0483 53.509 38.6809 53.5186 37.9945C53.509 37.279 52.5615 36.9213 50.8066 36.9309C49.047 36.9213 48.0849 37.279 48.0898 37.9945ZM66.8607 27.8619V35.2051H65.3427V32.1837H63.2301V30.9413H65.3427V27.8619H66.8607ZM56.4718 33.9627C58.4587 33.2859 59.5029 31.6229 59.5029 29.9841V29.8923H56.9263V28.6644H63.6072V29.8923H61.0499V29.9696C61.0499 31.4827 62.0457 33.0007 63.9553 33.6388L63.1963 34.8425C61.8234 34.3785 60.8468 33.4358 60.3054 32.2707C59.764 33.5856 58.7343 34.6492 57.2647 35.1664L56.4718 33.9627ZM58.4732 37.864C58.4684 36.3798 60.0685 35.5145 62.679 35.5097C65.2944 35.5145 66.8945 36.3798 66.8945 37.864C66.8945 39.3481 65.2944 40.2134 62.679 40.2182C60.0685 40.2134 58.4684 39.3481 58.4732 37.864ZM59.9863 37.864C59.9767 38.6326 60.958 39.0483 62.679 39.0387C64.4049 39.0483 65.3814 38.6326 65.3862 37.864C65.3814 37.0905 64.4049 36.6796 62.679 36.6796C60.958 36.6796 59.9767 37.0905 59.9863 37.864ZM73.0673 28.6354L69.8767 40.489H68.3539L71.5445 28.6354H73.0673ZM80.9226 28.5919V29.8101H78.3218C78.3363 31.2555 79.3998 32.6526 81.348 33.2037L80.589 34.3881C79.1581 33.9675 78.1236 33.0732 77.5628 31.9275C77.0069 33.1602 75.9482 34.1367 74.4785 34.6008L73.7051 33.4068C75.6871 32.8218 76.7603 31.3425 76.7796 29.8101H74.1208V28.5919H80.9226ZM75.7499 40.0635V35.0988H77.2437V36.3702H82.4019V35.0988H83.915V40.0635H75.7499ZM77.2437 38.8356H82.4019V37.5546H77.2437V38.8356ZM82.3922 34.5573V27.8619H83.915V34.5573H82.3922ZM96.295 27.8619V35.6305H94.8496V32.2659H93.641V35.2099H92.2197V28.0988H93.641V31.0235H94.8496V27.8619H96.295ZM85.6596 30.3902V29.201H87.9946V27.9634H89.5029V29.201H91.8136V30.3902H85.6596ZM86.0899 33.0297C86.0851 31.739 87.2018 30.8881 88.7487 30.8881C90.3199 30.8881 91.4317 31.739 91.4366 33.0297C91.4317 34.3059 90.3199 35.1568 88.7487 35.1568C87.2018 35.1568 86.0851 34.3059 86.0899 33.0297ZM87.4483 33.0297C87.4483 33.663 87.9752 34.0642 88.7487 34.0642C89.527 34.0642 90.0588 33.663 90.0588 33.0297C90.0588 32.3867 89.527 31.9903 88.7487 31.9903C87.9752 31.9903 87.4483 32.3867 87.4483 33.0297ZM87.8931 37.9945C87.8834 36.578 89.4835 35.7756 92.123 35.7756C94.7625 35.7756 96.353 36.578 96.3578 37.9945C96.353 39.4012 94.7625 40.2037 92.123 40.1989C89.4835 40.2037 87.8834 39.4012 87.8931 37.9945ZM89.4062 37.9945C89.4014 38.6809 90.3634 39.0483 92.123 39.0387C93.8779 39.0483 94.8254 38.6809 94.8351 37.9945C94.8254 37.279 93.8779 36.9213 92.123 36.9309C90.3634 36.9213 89.4014 37.279 89.4062 37.9945ZM108.279 27.8715V37.1823H106.727V35.6934H104.213V34.4896H106.727V27.8715H108.279ZM97.7447 32.6188C99.253 32.6043 101.119 32.5898 102.975 32.4738C103.159 31.3232 103.212 30.4095 103.232 29.7376H98.8615V28.5242H104.754V28.9979C104.754 29.6409 104.754 30.7866 104.503 32.3529C104.933 32.3142 105.354 32.2659 105.77 32.2079L105.871 33.2907C104.812 33.4744 103.71 33.6001 102.627 33.6775V36.3895H101.119V33.7645C99.9733 33.8177 98.8905 33.8273 97.9381 33.8273L97.7447 32.6188ZM99.5044 39.9765V36.1961H101.027V38.7438H108.564V39.9765H99.5044Z" fill="white"/>
<path d="M56.8729 66.0283C56.8681 68.2714 58.125 70.5048 59.9959 71.346L59.2127 72.3902C57.8156 71.6892 56.7617 70.3066 56.2251 68.6291C55.6837 70.3936 54.6153 71.8826 53.2086 72.6126L52.3867 71.5684C54.2818 70.6595 55.5483 68.2956 55.558 66.0283V63.9302H56.8729V66.0283ZM58.6519 68.0345V66.9807H61.3833V62.9102H62.6692V75.1844H61.3833V68.0345H58.6519ZM70.1279 63.0456C72.8883 63.0456 74.4981 63.7997 74.4981 65.1581C74.4981 66.5262 72.8883 67.2707 70.1279 67.2804C67.3676 67.2707 65.7481 66.5262 65.7481 65.1581C65.7481 63.7997 67.3676 63.0456 70.1279 63.0456ZM64.554 69.0304V68.0007H75.7212V69.0304H70.7709V70.0746H74.3047V72.9413H67.179V74.0387H74.6576V75.0442H65.9076V72.0083H73.0285V71.0463H65.8834V70.0746H69.4705V69.0304H64.554ZM67.1065 65.1581C67.0968 65.9123 68.1797 66.299 70.1279 66.3039C72.0906 66.299 73.1687 65.9123 73.1687 65.1581C73.1687 64.4378 72.0906 64.0269 70.1279 64.0221C68.1797 64.0269 67.0968 64.4378 67.1065 65.1581ZM81.1495 66.0283C81.1398 68.2666 82.4886 70.5193 84.3884 71.3557L83.6053 72.3902C82.1985 71.7182 81.0866 70.3405 80.5114 68.663C79.9458 70.4565 78.8194 71.9406 77.3546 72.6512L76.5521 71.5684C78.481 70.7079 79.8346 68.3681 79.8442 66.0283V63.9302H81.1495V66.0283ZM85.4955 75.1844V62.9102H86.8007V75.1844H85.4955ZM93.0267 65.1727C93.0267 66.7244 94.1096 68.1457 95.9708 68.7403L95.352 69.7555C93.9549 69.3059 92.9397 68.3826 92.4031 67.2175C91.8713 68.5566 90.7933 69.6202 89.3189 70.1326L88.6566 69.0981C90.5661 68.4648 91.7215 66.8791 91.7311 65.1823V64.8439H89.0336V63.7901H95.6711V64.8439H93.0267V65.1727ZM90.3099 72.8398C90.3099 71.3992 91.8713 70.5628 94.419 70.5628C96.9473 70.5628 98.4894 71.3992 98.4894 72.8398C98.4894 74.2949 96.9473 75.1409 94.419 75.1409C91.8713 75.1409 90.3099 74.2949 90.3099 72.8398ZM91.6103 72.8398C91.6006 73.6568 92.6497 74.116 94.419 74.116C96.1835 74.116 97.218 73.6568 97.218 72.8398C97.218 72.0373 96.1835 71.5877 94.419 71.5925C92.6497 71.5877 91.6006 72.0373 91.6103 72.8398ZM97.0778 70.2631V62.9102H98.3782V65.9413H100.152V67.0145H98.3782V70.2631H97.0778Z" fill="black"/>
<path d="M69.2003 134.684V135.762C69.1954 136.917 69.1954 138.179 68.8619 139.929H70.6215V140.988H65.6519V146.18H64.3515V140.988H59.4544V139.929H67.5421C67.9095 138.184 67.9095 136.903 67.9095 135.762V135.738H60.8128V134.684H69.2003ZM75.8468 136.526C75.8468 137.966 77.0264 139.31 78.8973 139.832L78.2785 140.843C76.8572 140.441 75.7888 139.561 75.2281 138.435C74.6963 139.697 73.6279 140.698 72.168 141.162L71.5492 140.156C73.4104 139.561 74.5561 138.102 74.5561 136.526V136.366H71.8924V135.331H74.5561V133.857H75.8662V135.331H78.5057V136.366H75.8468V136.526ZM73.5216 143.869C73.5119 142.428 75.0879 141.611 77.6597 141.611C80.2218 141.611 81.7978 142.428 81.8026 143.869C81.7978 145.309 80.2218 146.141 77.6597 146.141C75.0879 146.141 73.5119 145.309 73.5216 143.869ZM74.8075 143.869C74.7978 144.662 75.8662 145.131 77.6597 145.131C79.4629 145.131 80.5119 144.662 80.5167 143.869C80.5119 143.071 79.4629 142.622 77.6597 142.617C75.8662 142.622 74.7978 143.071 74.8075 143.869ZM78.1286 138.401V137.343H80.4684V133.91H81.764V141.331H80.4684V138.401H78.1286ZM87.9271 136.173C87.9271 137.724 89.01 139.146 90.8712 139.74L90.2524 140.756C88.8553 140.306 87.8401 139.383 87.3035 138.218C86.7717 139.557 85.6937 140.62 84.2192 141.133L83.557 140.098C85.4665 139.465 86.6219 137.879 86.6315 136.182V135.844H83.934V134.79H90.5715V135.844H87.9271V136.173ZM85.2103 143.84C85.2103 142.399 86.7717 141.563 89.3194 141.563C91.8477 141.563 93.3898 142.399 93.3898 143.84C93.3898 145.295 91.8477 146.141 89.3194 146.141C86.7717 146.141 85.2103 145.295 85.2103 143.84ZM86.5107 143.84C86.501 144.657 87.55 145.116 89.3194 145.116C91.0839 145.116 92.1184 144.657 92.1184 143.84C92.1184 143.037 91.0839 142.588 89.3194 142.593C87.55 142.588 86.501 143.037 86.5107 143.84ZM91.9782 141.263V133.91H93.2786V136.941H95.0528V138.015H93.2786V141.263H91.9782Z" fill="black"/>
<path d="M239.512 63.2365V64.0849C239.512 64.9289 239.512 65.9299 239.247 67.2497H240.832V68.2282H236.204V70.1675H239.561V74.0773H238.349V71.1371H231.486V70.1675H235.005V68.2282H230.422V67.2497H238.035C238.3 65.9748 238.314 65.0276 238.314 64.2106H231.724V63.2365H239.512ZM251.062 62.7023V74.0773H249.859V62.7023H251.062ZM241.716 70.9845C242.654 70.98 243.722 70.971 244.835 70.9396V69.7994C243.511 69.6243 242.649 68.8387 242.658 67.73C242.649 66.4461 243.767 65.6022 245.419 65.6022C247.08 65.6022 248.211 66.4461 248.211 67.73C248.211 68.8298 247.354 69.6108 246.039 69.7949V70.8947C247.089 70.8453 248.153 70.7645 249.154 70.6343L249.244 71.5411C246.721 71.9586 243.969 71.99 241.886 71.99L241.716 70.9845ZM241.954 65.0231V64.058H244.835V62.7248H246.043V64.058H248.898V65.0231H241.954ZM243.794 67.73C243.785 68.4527 244.463 68.9016 245.419 68.8971C246.393 68.9016 247.062 68.4527 247.062 67.73C247.062 67.0028 246.393 66.5359 245.419 66.5359C244.463 66.5359 243.785 67.0028 243.794 67.73ZM256.596 63.5104C258.396 63.5104 259.684 64.6236 259.693 66.2217C259.684 67.8242 258.396 68.933 256.596 68.933C254.805 68.933 253.49 67.8242 253.499 66.2217C253.49 64.6236 254.805 63.5104 256.596 63.5104ZM252.951 70.6478C255.025 70.6523 257.893 70.6298 260.38 70.2707L260.475 71.1506C257.898 71.6398 255.133 71.6533 253.099 71.6533L252.951 70.6478ZM254.688 66.2217C254.679 67.2272 255.492 67.8871 256.596 67.8871C257.7 67.8871 258.513 67.2272 258.517 66.2217C258.513 65.2206 257.7 64.5563 256.596 64.5563C255.492 64.5563 254.679 65.2206 254.688 66.2217ZM261.094 74.0998V62.7023H262.297V74.0998H261.094ZM273.591 62.7113V71.3391H272.379V70.2483H270.089V69.3954H272.379V62.7113H273.591ZM264.07 67.905C266.175 67.8916 269.012 67.8691 271.436 67.5639L271.517 68.4347C270.538 68.5963 269.519 68.6996 268.514 68.7624V70.9845H267.311V68.8298C266.206 68.8702 265.147 68.8791 264.222 68.8747L264.07 67.905ZM264.958 65.1488C264.958 63.9503 266.108 63.1468 267.795 63.1468C269.456 63.1468 270.61 63.9503 270.619 65.1488C270.61 66.3653 269.456 67.1329 267.795 67.1329C266.108 67.1329 264.958 66.3653 264.958 65.1488ZM265.645 73.8439V70.4952H266.848V72.8564H273.86V73.8439H265.645ZM266.103 65.1488C266.099 65.8267 266.785 66.2486 267.795 66.2486C268.765 66.2486 269.461 65.8267 269.47 65.1488C269.461 64.4755 268.765 64.0401 267.795 64.0445C266.785 64.0401 266.099 64.4755 266.103 65.1488ZM287.475 62.7023V65.3284H289.122V66.3249H287.475V68.8612H286.254V62.7023H287.475ZM278.537 68.0262C281.293 67.3888 282.833 66.0287 283.022 64.3408H279.062V63.3712H284.35C284.35 66.2711 282.375 68.1968 278.982 69.0048L278.537 68.0262ZM280.162 73.9337V69.3595H281.37V70.6837H286.267V69.3595H287.475V73.9337H280.162ZM281.37 72.9506H286.267V71.6354H281.37V72.9506Z" fill="black"/>
<path d="M239.512 134.237V135.085C239.512 135.929 239.512 136.93 239.247 138.25H240.832V139.228H236.204V141.167H239.561V145.077H238.349V142.137H231.486V141.167H235.005V139.228H230.422V138.25H238.035C238.3 136.975 238.314 136.028 238.314 135.211H231.724V134.237H239.512ZM251.062 133.702V145.077H249.859V133.702H251.062ZM241.716 141.984C242.654 141.98 243.722 141.971 244.835 141.94V140.799C243.511 140.624 242.649 139.839 242.658 138.73C242.649 137.446 243.767 136.602 245.419 136.602C247.08 136.602 248.211 137.446 248.211 138.73C248.211 139.83 247.354 140.611 246.039 140.795V141.895C247.089 141.845 248.153 141.765 249.154 141.634L249.244 142.541C246.721 142.959 243.969 142.99 241.886 142.99L241.716 141.984ZM241.954 136.023V135.058H244.835V133.725H246.043V135.058H248.898V136.023H241.954ZM243.794 138.73C243.785 139.453 244.463 139.902 245.419 139.897C246.393 139.902 247.062 139.453 247.062 138.73C247.062 138.003 246.393 137.536 245.419 137.536C244.463 137.536 243.785 138.003 243.794 138.73ZM256.596 134.51C258.396 134.51 259.684 135.624 259.693 137.222C259.684 138.824 258.396 139.933 256.596 139.933C254.805 139.933 253.49 138.824 253.499 137.222C253.49 135.624 254.805 134.51 256.596 134.51ZM252.951 141.648C255.025 141.652 257.893 141.63 260.38 141.271L260.475 142.151C257.898 142.64 255.133 142.653 253.099 142.653L252.951 141.648ZM254.688 137.222C254.679 138.227 255.492 138.887 256.596 138.887C257.7 138.887 258.513 138.227 258.517 137.222C258.513 136.221 257.7 135.556 256.596 135.556C255.492 135.556 254.679 136.221 254.688 137.222ZM261.094 145.1V133.702H262.297V145.1H261.094ZM273.591 133.711V142.339H272.379V141.248H270.089V140.395H272.379V133.711H273.591ZM264.07 138.905C266.175 138.892 269.012 138.869 271.436 138.564L271.517 139.435C270.538 139.596 269.519 139.7 268.514 139.762V141.984H267.311V139.83C266.206 139.87 265.147 139.879 264.222 139.875L264.07 138.905ZM264.958 136.149C264.958 134.95 266.108 134.147 267.795 134.147C269.456 134.147 270.61 134.95 270.619 136.149C270.61 137.365 269.456 138.133 267.795 138.133C266.108 138.133 264.958 137.365 264.958 136.149ZM265.645 144.844V141.495H266.848V143.856H273.86V144.844H265.645ZM266.103 136.149C266.099 136.827 266.785 137.249 267.795 137.249C268.765 137.249 269.461 136.827 269.47 136.149C269.461 135.475 268.765 135.04 267.795 135.045C266.785 135.04 266.099 135.475 266.103 136.149ZM283.713 133.891C286.276 133.891 287.771 134.582 287.771 135.844C287.771 137.123 286.276 137.814 283.713 137.823C281.15 137.814 279.646 137.123 279.646 135.844C279.646 134.582 281.15 133.891 283.713 133.891ZM278.537 139.48V138.515H288.907V139.48H278.537ZM279.772 141.257V140.355H287.591V143.017H280.975V144.036H287.919V144.97H279.794V142.151H286.406V141.257H279.772ZM280.907 135.844C280.898 136.553 281.904 136.916 283.713 136.916C285.535 136.916 286.537 136.553 286.537 135.844C286.537 135.179 285.535 134.784 283.713 134.789C281.904 134.784 280.898 135.179 280.907 135.844Z" fill="black"/>
<path d="M161.081 99.8301C161.071 102.093 162.265 104.365 164.271 105.225L163.367 106.443C161.951 105.786 160.907 104.476 160.331 102.861C159.771 104.602 158.707 106.028 157.209 106.729L156.28 105.462C158.33 104.573 159.534 102.209 159.544 99.8301V97.8529H161.081V99.8301ZM165.161 109.238V96.8619H166.693V109.238H165.161ZM175.095 97.8819V103.76H169.144V97.8819H175.095ZM170.623 108.885V104.858H172.156V107.657H179.146V108.885H170.623ZM170.638 102.552H173.591V99.1001H170.638V102.552ZM177.275 105.689V96.8715H178.798V105.689H177.275Z" fill="black"/>
<path d="M237.698 27.8619V34.4945H236.175V27.8619H237.698ZM227.633 31.3039C227.628 29.5877 229.055 28.3985 230.964 28.4033C232.869 28.3985 234.29 29.5877 234.29 31.3039C234.29 32.9862 232.869 34.1802 230.964 34.1754C229.055 34.1802 227.628 32.9862 227.633 31.3039ZM229.117 31.3039C229.113 32.2949 229.886 32.9233 230.964 32.9233C232.023 32.9233 232.796 32.2949 232.796 31.3039C232.796 30.3128 232.023 29.6699 230.964 29.6747C229.886 29.6699 229.113 30.3128 229.117 31.3039ZM229.533 40.0635V35.0649H231.027V36.3267H236.185V35.0649H237.698V40.0635H229.533ZM231.027 38.8308H236.185V37.5159H231.027V38.8308ZM241.594 28.4952V30.1823H244.354V28.4952H245.858V30.7528H248.343V27.8619H249.861V34.6153H248.343V32.0097H245.858V34.2286H240.066V28.4952H241.594ZM241.594 33.0055H244.354V31.3619H241.594V33.0055ZM241.715 40.0442V35.1568H243.228V36.4185H248.343V35.1568H249.856V40.0442H241.715ZM243.228 38.8163H248.343V37.5981H243.228V38.8163ZM256.067 28.6354L252.877 40.489H251.354L254.545 28.6354H256.067ZM266.915 27.8619V34.4945H265.392V27.8619H266.915ZM256.85 31.3039C256.845 29.5877 258.271 28.3985 260.181 28.4033C262.086 28.3985 263.507 29.5877 263.507 31.3039C263.507 32.9862 262.086 34.1802 260.181 34.1754C258.271 34.1802 256.845 32.9862 256.85 31.3039ZM258.334 31.3039C258.329 32.2949 259.103 32.9233 260.181 32.9233C261.24 32.9233 262.013 32.2949 262.013 31.3039C262.013 30.3128 261.24 29.6699 260.181 29.6747C259.103 29.6699 258.329 30.3128 258.334 31.3039ZM258.75 40.0635V35.0649H260.244V36.3267H265.402V35.0649H266.915V40.0635H258.75ZM260.244 38.8308H265.402V37.5159H260.244V38.8308ZM270.811 28.4952V30.1823H273.571V28.4952H275.075V30.7528H277.56V27.8619H279.077V34.6153H277.56V32.0097H275.075V34.2286H269.283V28.4952H270.811ZM270.811 33.0055H273.571V31.3619H270.811V33.0055ZM270.932 40.0442V35.1568H272.445V36.4185H277.56V35.1568H279.073V40.0442H270.932ZM272.445 38.8163H277.56V37.5981H272.445V38.8163ZM291.279 27.8715V37.1823H289.727V35.6934H287.213V34.4896H289.727V27.8715H291.279ZM280.745 32.6188C282.253 32.6043 284.119 32.5898 285.975 32.4738C286.159 31.3232 286.212 30.4095 286.232 29.7376H281.861V28.5242H287.754V28.9979C287.754 29.6409 287.754 30.7866 287.503 32.3529C287.933 32.3142 288.354 32.2659 288.77 32.2079L288.871 33.2907C287.812 33.4744 286.71 33.6001 285.627 33.6775V36.3895H284.119V33.7645C282.973 33.8177 281.89 33.8273 280.938 33.8273L280.745 32.6188ZM282.504 39.9765V36.1961H284.027V38.7438H291.564V39.9765H282.504Z" fill="white"/>
<path d="M68.5 86C68.5 85.7239 68.2761 85.5 68 85.5C67.7239 85.5 67.5 85.7239 67.5 86L68 86L68.5 86ZM67.6464 119.576C67.8417 119.771 68.1583 119.771 68.3536 119.576L71.5355 116.394C71.7308 116.199 71.7308 115.882 71.5355 115.687C71.3403 115.491 71.0237 115.491 70.8284 115.687L68 118.515L65.1716 115.687C64.9763 115.491 64.6597 115.491 64.4645 115.687C64.2692 115.882 64.2692 116.199 64.4645 116.394L67.6464 119.576ZM68 86L67.5 86L67.5 119.222L68 119.222L68.5 119.222L68.5 86L68 86Z" fill="black"/>
<path d="M78.3536 85.6464C78.1583 85.4512 77.8417 85.4512 77.6464 85.6464L74.4645 88.8284C74.2692 89.0237 74.2692 89.3403 74.4645 89.5355C74.6597 89.7308 74.9763 89.7308 75.1716 89.5355L78 86.7071L80.8284 89.5355C81.0237 89.7308 81.3403 89.7308 81.5355 89.5355C81.7308 89.3403 81.7308 89.0237 81.5355 88.8284L78.3536 85.6464ZM77.5 119.222C77.5 119.498 77.7239 119.722 78 119.722C78.2761 119.722 78.5 119.498 78.5 119.222L78 119.222L77.5 119.222ZM78 86L77.5 86L77.5 119.222L78 119.222L78.5 119.222L78.5 86L78 86Z" fill="black"/>
<path d="M93.3108 93.5055V94.4006H87.4019V93.5055H89.855V92.3992H90.9613V93.5055H93.3108ZM87.9903 96.7459C87.982 95.6064 88.9682 94.8439 90.3978 94.8439C91.8149 94.8439 92.8177 95.6064 92.826 96.7459C92.8177 97.8812 91.8149 98.6312 90.3978 98.6312C88.9682 98.6312 87.982 97.8812 87.9903 96.7459ZM89.0304 96.7459C89.0221 97.3881 89.5649 97.8066 90.3978 97.8066C91.2182 97.8066 91.7818 97.3881 91.7901 96.7459C91.7818 96.0994 91.2182 95.6892 90.3978 95.6892C89.5649 95.6892 89.0221 96.0994 89.0304 96.7459ZM89.2251 102.862V99.145H90.3315V100.135H95.0387V99.145H96.1409V102.862H89.2251ZM90.3315 101.983H95.0387V100.985H90.3315V101.983ZM93.3315 97.8398V96.9323H95.0304V95.7845H93.3439V94.8771H95.0304V92.4945H96.1409V98.7182H95.0304V97.8398H93.3315ZM102.758 93.1285V96.1865H99.2979V97.645C101.125 97.6409 102.12 97.5994 103.297 97.3798L103.404 98.2873C102.124 98.5028 101.047 98.5359 98.954 98.5401H98.1957V95.3412H101.651V94.0152H98.175V93.1285H102.758ZM99.3808 100.392V99.4931H106.512V103.007H105.401V100.392H99.3808ZM103.425 97.1188V96.2196H105.401V94.9227H103.425V94.0318H105.401V92.5028H106.512V98.9586H105.401V97.1188H103.425ZM93.232 107.29V107.883C93.2238 108.583 93.2238 109.627 92.9669 110.978L91.8646 110.883C92.0925 109.714 92.1298 108.869 92.1381 108.21H87.9365V107.29H93.232ZM87.3025 111.885C87.9489 111.881 88.6823 111.877 89.453 111.86V109.652H90.5552V111.823C91.6823 111.778 92.8384 111.695 93.895 111.546L93.9613 112.358C91.7693 112.743 89.2624 112.785 87.4061 112.789L87.3025 111.885ZM88.8978 116.779V113.671H90.0083V115.867H96.029V116.779H88.8978ZM94.5622 114.384V106.494H95.6934V109.838H97.1395V110.779H95.6934V114.384H94.5622ZM106.785 106.494V116.994H105.729V106.494H106.785ZM97.6984 113.961C99.9277 112.64 100.997 110.87 101.187 108.715H98.2164V107.8H102.294C102.294 108.334 102.252 108.86 102.169 109.366H103.578V106.764H104.639V116.485H103.578V112.905H101.784V111.993H103.578V110.278H101.962C101.457 112.043 100.338 113.576 98.3614 114.753L97.6984 113.961Z" fill="#43A9D1"/>
<path d="M272.974 97.6036V98.4945H263.39V97.6036H267.637V96.4889H264.583V92.9793H271.793V93.8577H265.685V95.5981H271.855V96.4889H268.722V97.6036H272.974ZM264.521 101.088C264.521 99.8702 265.888 99.1823 268.163 99.1823C270.425 99.1823 271.785 99.8702 271.793 101.088C271.785 102.302 270.425 102.986 268.163 102.994C265.888 102.986 264.521 102.302 264.521 101.088ZM265.652 101.088C265.644 101.76 266.559 102.128 268.163 102.12C269.75 102.128 270.674 101.76 270.682 101.088C270.674 100.421 269.75 100.04 268.163 100.04C266.559 100.04 265.644 100.421 265.652 101.088ZM283.345 97.4254V98.3453H273.761V97.4254H283.345ZM274.892 101.072C274.892 99.8536 276.259 99.1657 278.534 99.1657C280.797 99.1657 282.156 99.8536 282.164 101.072C282.156 102.294 280.797 102.978 278.534 102.978C276.259 102.978 274.892 102.294 274.892 101.072ZM274.954 96.5138V92.8715H282.164V93.779H276.056V95.6146H282.226V96.5138H274.954ZM276.023 101.072C276.015 101.747 276.93 102.112 278.534 102.112C280.121 102.112 281.045 101.747 281.053 101.072C281.045 100.405 280.121 100.032 278.534 100.023C276.93 100.032 276.015 100.405 276.023 101.072ZM269.232 107.29V107.883C269.224 108.583 269.224 109.627 268.967 110.978L267.865 110.883C268.093 109.714 268.13 108.869 268.138 108.21H263.936V107.29H269.232ZM263.302 111.885C263.949 111.881 264.682 111.877 265.453 111.86V109.652H266.555V111.823C267.682 111.778 268.838 111.695 269.895 111.546L269.961 112.358C267.769 112.743 265.262 112.785 263.406 112.789L263.302 111.885ZM264.898 116.779V113.671H266.008V115.867H272.029V116.779H264.898ZM270.562 114.384V106.494H271.693V109.838H273.14V110.779H271.693V114.384H270.562ZM282.785 106.494V116.994H281.729V106.494H282.785ZM273.698 113.961C275.928 112.64 276.997 110.87 277.187 108.715H274.216V107.8H278.294C278.294 108.334 278.252 108.86 278.169 109.366H279.578V106.764H280.639V116.485H279.578V112.905H277.784V111.993H279.578V110.278H277.962C277.457 112.043 276.338 113.576 274.361 114.753L273.698 113.961Z" fill="#7471F9"/>
<line x1="247.5" y1="86.5" x2="247.5" y2="119.5" stroke="black" stroke-linecap="round"/>
<line x1="254.5" y1="86.5" x2="254.5" y2="119.5" stroke="black" stroke-linecap="round"/>
<rect x="23.5" y="23.5" width="107" height="141" rx="5.5" fill="white" stroke="#32A7D3"/>
<rect x="206.5" y="23.5" width="107" height="141" rx="5.5" fill="white" stroke="#7471F9"/>
<path d="M29 19.5H125C128.038 19.5 130.5 21.9624 130.5 25V46.5H23.5V25C23.5 21.9624 25.9624 19.5 29 19.5Z" fill="#32A7D3" stroke="#3DB8E6"/>
<path d="M206 25C206 21.6863 208.686 19 212 19H308C311.314 19 314 21.6863 314 25V47H206V25Z" fill="#7471F9"/>
<path d="M151.219 102.5L141.844 110.727L141.844 94.2728L151.219 102.5Z" fill="#71CCF9"/>
<rect x="143.213" y="99.1074" width="6.78572" height="12.2143" transform="rotate(90 143.213 99.1074)" fill="#71CCF9"/>
<path d="M187 102.5L196.374 110.727L196.374 94.2728L187 102.5Z" fill="#7471F9"/>
<rect width="6.78572" height="12.2143" transform="matrix(4.37114e-08 1 1 -4.37114e-08 195.006 99.1074)" fill="#7471F9"/>
<path d="M54.9786 27.8619V35.6305H53.5331V32.2659H52.3246V35.2099H50.9033V28.0988H52.3246V31.0235H53.5331V27.8619H54.9786ZM44.3432 30.3902V29.201H46.6782V27.9634H48.1865V29.201H50.4972V30.3902H44.3432ZM44.7735 33.0297C44.7686 31.739 45.8854 30.8881 47.4323 30.8881C49.0035 30.8881 50.1153 31.739 50.1202 33.0297C50.1153 34.3059 49.0035 35.1568 47.4323 35.1568C45.8854 35.1568 44.7686 34.3059 44.7735 33.0297ZM46.1319 33.0297C46.1319 33.663 46.6588 34.0642 47.4323 34.0642C48.2106 34.0642 48.7424 33.663 48.7424 33.0297C48.7424 32.3867 48.2106 31.9903 47.4323 31.9903C46.6588 31.9903 46.1319 32.3867 46.1319 33.0297ZM46.5767 37.9945C46.567 36.578 48.1671 35.7756 50.8066 35.7756C53.4461 35.7756 55.0366 36.578 55.0414 37.9945C55.0366 39.4012 53.4461 40.2037 50.8066 40.1989C48.1671 40.2037 46.567 39.4012 46.5767 37.9945ZM48.0898 37.9945C48.0849 38.6809 49.047 39.0483 50.8066 39.0387C52.5615 39.0483 53.509 38.6809 53.5186 37.9945C53.509 37.279 52.5615 36.9213 50.8066 36.9309C49.047 36.9213 48.0849 37.279 48.0898 37.9945ZM66.8607 27.8619V35.2051H65.3427V32.1837H63.2301V30.9413H65.3427V27.8619H66.8607ZM56.4718 33.9627C58.4587 33.2859 59.5029 31.6229 59.5029 29.9841V29.8923H56.9263V28.6644H63.6072V29.8923H61.0499V29.9696C61.0499 31.4827 62.0457 33.0007 63.9553 33.6388L63.1963 34.8425C61.8234 34.3785 60.8468 33.4358 60.3054 32.2707C59.764 33.5856 58.7343 34.6492 57.2647 35.1664L56.4718 33.9627ZM58.4732 37.864C58.4684 36.3798 60.0685 35.5145 62.679 35.5097C65.2944 35.5145 66.8945 36.3798 66.8945 37.864C66.8945 39.3481 65.2944 40.2134 62.679 40.2182C60.0685 40.2134 58.4684 39.3481 58.4732 37.864ZM59.9863 37.864C59.9767 38.6326 60.958 39.0483 62.679 39.0387C64.4049 39.0483 65.3814 38.6326 65.3862 37.864C65.3814 37.0905 64.4049 36.6796 62.679 36.6796C60.958 36.6796 59.9767 37.0905 59.9863 37.864ZM73.0673 28.6354L69.8767 40.489H68.3539L71.5445 28.6354H73.0673ZM80.9226 28.5919V29.8101H78.3218C78.3363 31.2555 79.3998 32.6526 81.348 33.2037L80.589 34.3881C79.1581 33.9675 78.1236 33.0732 77.5628 31.9275C77.0069 33.1602 75.9482 34.1367 74.4785 34.6008L73.7051 33.4068C75.6871 32.8218 76.7603 31.3425 76.7796 29.8101H74.1208V28.5919H80.9226ZM75.7499 40.0635V35.0988H77.2437V36.3702H82.4019V35.0988H83.915V40.0635H75.7499ZM77.2437 38.8356H82.4019V37.5546H77.2437V38.8356ZM82.3922 34.5573V27.8619H83.915V34.5573H82.3922ZM96.295 27.8619V35.6305H94.8496V32.2659H93.641V35.2099H92.2197V28.0988H93.641V31.0235H94.8496V27.8619H96.295ZM85.6596 30.3902V29.201H87.9946V27.9634H89.5029V29.201H91.8136V30.3902H85.6596ZM86.0899 33.0297C86.0851 31.739 87.2018 30.8881 88.7487 30.8881C90.3199 30.8881 91.4317 31.739 91.4366 33.0297C91.4317 34.3059 90.3199 35.1568 88.7487 35.1568C87.2018 35.1568 86.0851 34.3059 86.0899 33.0297ZM87.4483 33.0297C87.4483 33.663 87.9752 34.0642 88.7487 34.0642C89.527 34.0642 90.0588 33.663 90.0588 33.0297C90.0588 32.3867 89.527 31.9903 88.7487 31.9903C87.9752 31.9903 87.4483 32.3867 87.4483 33.0297ZM87.8931 37.9945C87.8834 36.578 89.4835 35.7756 92.123 35.7756C94.7625 35.7756 96.353 36.578 96.3578 37.9945C96.353 39.4012 94.7625 40.2037 92.123 40.1989C89.4835 40.2037 87.8834 39.4012 87.8931 37.9945ZM89.4062 37.9945C89.4014 38.6809 90.3634 39.0483 92.123 39.0387C93.8779 39.0483 94.8254 38.6809 94.8351 37.9945C94.8254 37.279 93.8779 36.9213 92.123 36.9309C90.3634 36.9213 89.4014 37.279 89.4062 37.9945ZM108.279 27.8715V37.1823H106.727V35.6934H104.213V34.4896H106.727V27.8715H108.279ZM97.7447 32.6188C99.253 32.6043 101.119 32.5898 102.975 32.4738C103.159 31.3232 103.212 30.4095 103.232 29.7376H98.8615V28.5242H104.754V28.9979C104.754 29.6409 104.754 30.7866 104.503 32.3529C104.933 32.3142 105.354 32.2659 105.77 32.2079L105.871 33.2907C104.812 33.4744 103.71 33.6001 102.627 33.6775V36.3895H101.119V33.7645C99.9733 33.8177 98.8905 33.8273 97.9381 33.8273L97.7447 32.6188ZM99.5044 39.9765V36.1961H101.027V38.7438H108.564V39.9765H99.5044Z" fill="white"/>
<path d="M56.8729 66.0283C56.8681 68.2714 58.125 70.5048 59.9959 71.346L59.2127 72.3902C57.8156 71.6892 56.7617 70.3066 56.2251 68.6291C55.6837 70.3936 54.6153 71.8826 53.2086 72.6126L52.3867 71.5684C54.2818 70.6595 55.5483 68.2956 55.558 66.0283V63.9302H56.8729V66.0283ZM58.6519 68.0345V66.9807H61.3833V62.9102H62.6692V75.1844H61.3833V68.0345H58.6519ZM70.1279 63.0456C72.8883 63.0456 74.4981 63.7997 74.4981 65.1581C74.4981 66.5262 72.8883 67.2707 70.1279 67.2804C67.3676 67.2707 65.7481 66.5262 65.7481 65.1581C65.7481 63.7997 67.3676 63.0456 70.1279 63.0456ZM64.554 69.0304V68.0007H75.7212V69.0304H70.7709V70.0746H74.3047V72.9413H67.179V74.0387H74.6576V75.0442H65.9076V72.0083H73.0285V71.0463H65.8834V70.0746H69.4705V69.0304H64.554ZM67.1065 65.1581C67.0968 65.9123 68.1797 66.299 70.1279 66.3039C72.0906 66.299 73.1687 65.9123 73.1687 65.1581C73.1687 64.4378 72.0906 64.0269 70.1279 64.0221C68.1797 64.0269 67.0968 64.4378 67.1065 65.1581ZM81.1495 66.0283C81.1398 68.2666 82.4886 70.5193 84.3884 71.3557L83.6053 72.3902C82.1985 71.7182 81.0866 70.3405 80.5114 68.663C79.9458 70.4565 78.8194 71.9406 77.3546 72.6512L76.5521 71.5684C78.481 70.7079 79.8346 68.3681 79.8442 66.0283V63.9302H81.1495V66.0283ZM85.4955 75.1844V62.9102H86.8007V75.1844H85.4955ZM93.0267 65.1727C93.0267 66.7244 94.1096 68.1457 95.9708 68.7403L95.352 69.7555C93.9549 69.3059 92.9397 68.3826 92.4031 67.2175C91.8713 68.5566 90.7933 69.6202 89.3189 70.1326L88.6566 69.0981C90.5661 68.4648 91.7215 66.8791 91.7311 65.1823V64.8439H89.0336V63.7901H95.6711V64.8439H93.0267V65.1727ZM90.3099 72.8398C90.3099 71.3992 91.8713 70.5628 94.419 70.5628C96.9473 70.5628 98.4894 71.3992 98.4894 72.8398C98.4894 74.2949 96.9473 75.1409 94.419 75.1409C91.8713 75.1409 90.3099 74.2949 90.3099 72.8398ZM91.6103 72.8398C91.6006 73.6568 92.6497 74.116 94.419 74.116C96.1835 74.116 97.218 73.6568 97.218 72.8398C97.218 72.0373 96.1835 71.5877 94.419 71.5925C92.6497 71.5877 91.6006 72.0373 91.6103 72.8398ZM97.0778 70.2631V62.9102H98.3782V65.9413H100.152V67.0145H98.3782V70.2631H97.0778Z" fill="black"/>
<path d="M69.2003 134.684V135.762C69.1954 136.917 69.1954 138.179 68.8619 139.929H70.6215V140.988H65.6519V146.18H64.3515V140.988H59.4544V139.929H67.5421C67.9095 138.184 67.9095 136.903 67.9095 135.762V135.738H60.8128V134.684H69.2003ZM75.8468 136.526C75.8468 137.966 77.0264 139.31 78.8973 139.832L78.2785 140.843C76.8572 140.441 75.7888 139.561 75.2281 138.435C74.6963 139.697 73.6279 140.698 72.168 141.162L71.5492 140.156C73.4104 139.561 74.5561 138.102 74.5561 136.526V136.366H71.8924V135.331H74.5561V133.857H75.8662V135.331H78.5057V136.366H75.8468V136.526ZM73.5216 143.869C73.5119 142.428 75.0879 141.611 77.6597 141.611C80.2218 141.611 81.7978 142.428 81.8026 143.869C81.7978 145.309 80.2218 146.141 77.6597 146.141C75.0879 146.141 73.5119 145.309 73.5216 143.869ZM74.8075 143.869C74.7978 144.662 75.8662 145.131 77.6597 145.131C79.4629 145.131 80.5119 144.662 80.5167 143.869C80.5119 143.071 79.4629 142.622 77.6597 142.617C75.8662 142.622 74.7978 143.071 74.8075 143.869ZM78.1286 138.401V137.343H80.4684V133.91H81.764V141.331H80.4684V138.401H78.1286ZM87.9271 136.173C87.9271 137.724 89.01 139.146 90.8712 139.74L90.2524 140.756C88.8553 140.306 87.8401 139.383 87.3035 138.218C86.7717 139.557 85.6937 140.62 84.2192 141.133L83.557 140.098C85.4665 139.465 86.6219 137.879 86.6315 136.182V135.844H83.934V134.79H90.5715V135.844H87.9271V136.173ZM85.2103 143.84C85.2103 142.399 86.7717 141.563 89.3194 141.563C91.8477 141.563 93.3898 142.399 93.3898 143.84C93.3898 145.295 91.8477 146.141 89.3194 146.141C86.7717 146.141 85.2103 145.295 85.2103 143.84ZM86.5107 143.84C86.501 144.657 87.55 145.116 89.3194 145.116C91.0839 145.116 92.1184 144.657 92.1184 143.84C92.1184 143.037 91.0839 142.588 89.3194 142.593C87.55 142.588 86.501 143.037 86.5107 143.84ZM91.9782 141.263V133.91H93.2786V136.941H95.0528V138.015H93.2786V141.263H91.9782Z" fill="black"/>
<path d="M239.512 63.2365V64.0849C239.512 64.9289 239.512 65.9299 239.247 67.2497H240.832V68.2282H236.204V70.1675H239.561V74.0773H238.349V71.1371H231.486V70.1675H235.005V68.2282H230.422V67.2497H238.035C238.3 65.9748 238.314 65.0276 238.314 64.2106H231.724V63.2365H239.512ZM251.062 62.7023V74.0773H249.859V62.7023H251.062ZM241.716 70.9845C242.654 70.98 243.722 70.971 244.835 70.9396V69.7994C243.511 69.6243 242.649 68.8387 242.658 67.73C242.649 66.4461 243.767 65.6022 245.419 65.6022C247.08 65.6022 248.211 66.4461 248.211 67.73C248.211 68.8298 247.354 69.6108 246.039 69.7949V70.8947C247.089 70.8453 248.153 70.7645 249.154 70.6343L249.244 71.5411C246.721 71.9586 243.969 71.99 241.886 71.99L241.716 70.9845ZM241.954 65.0231V64.058H244.835V62.7248H246.043V64.058H248.898V65.0231H241.954ZM243.794 67.73C243.785 68.4527 244.463 68.9016 245.419 68.8971C246.393 68.9016 247.062 68.4527 247.062 67.73C247.062 67.0028 246.393 66.5359 245.419 66.5359C244.463 66.5359 243.785 67.0028 243.794 67.73ZM256.596 63.5104C258.396 63.5104 259.684 64.6236 259.693 66.2217C259.684 67.8242 258.396 68.933 256.596 68.933C254.805 68.933 253.49 67.8242 253.499 66.2217C253.49 64.6236 254.805 63.5104 256.596 63.5104ZM252.951 70.6478C255.025 70.6523 257.893 70.6298 260.38 70.2707L260.475 71.1506C257.898 71.6398 255.133 71.6533 253.099 71.6533L252.951 70.6478ZM254.688 66.2217C254.679 67.2272 255.492 67.8871 256.596 67.8871C257.7 67.8871 258.513 67.2272 258.517 66.2217C258.513 65.2206 257.7 64.5563 256.596 64.5563C255.492 64.5563 254.679 65.2206 254.688 66.2217ZM261.094 74.0998V62.7023H262.297V74.0998H261.094ZM273.591 62.7113V71.3391H272.379V70.2483H270.089V69.3954H272.379V62.7113H273.591ZM264.07 67.905C266.175 67.8916 269.012 67.8691 271.436 67.5639L271.517 68.4347C270.538 68.5963 269.519 68.6996 268.514 68.7624V70.9845H267.311V68.8298C266.206 68.8702 265.147 68.8791 264.222 68.8747L264.07 67.905ZM264.958 65.1488C264.958 63.9503 266.108 63.1468 267.795 63.1468C269.456 63.1468 270.61 63.9503 270.619 65.1488C270.61 66.3653 269.456 67.1329 267.795 67.1329C266.108 67.1329 264.958 66.3653 264.958 65.1488ZM265.645 73.8439V70.4952H266.848V72.8564H273.86V73.8439H265.645ZM266.103 65.1488C266.099 65.8267 266.785 66.2486 267.795 66.2486C268.765 66.2486 269.461 65.8267 269.47 65.1488C269.461 64.4755 268.765 64.0401 267.795 64.0445C266.785 64.0401 266.099 64.4755 266.103 65.1488ZM287.475 62.7023V65.3284H289.122V66.3249H287.475V68.8612H286.254V62.7023H287.475ZM278.537 68.0262C281.293 67.3888 282.833 66.0287 283.022 64.3408H279.062V63.3712H284.35C284.35 66.2711 282.375 68.1968 278.982 69.0048L278.537 68.0262ZM280.162 73.9337V69.3595H281.37V70.6837H286.267V69.3595H287.475V73.9337H280.162ZM281.37 72.9506H286.267V71.6354H281.37V72.9506Z" fill="black"/>
<path d="M239.512 134.237V135.085C239.512 135.929 239.512 136.93 239.247 138.25H240.832V139.228H236.204V141.167H239.561V145.077H238.349V142.137H231.486V141.167H235.005V139.228H230.422V138.25H238.035C238.3 136.975 238.314 136.028 238.314 135.211H231.724V134.237H239.512ZM251.062 133.702V145.077H249.859V133.702H251.062ZM241.716 141.984C242.654 141.98 243.722 141.971 244.835 141.94V140.799C243.511 140.624 242.649 139.839 242.658 138.73C242.649 137.446 243.767 136.602 245.419 136.602C247.08 136.602 248.211 137.446 248.211 138.73C248.211 139.83 247.354 140.611 246.039 140.795V141.895C247.089 141.845 248.153 141.765 249.154 141.634L249.244 142.541C246.721 142.959 243.969 142.99 241.886 142.99L241.716 141.984ZM241.954 136.023V135.058H244.835V133.725H246.043V135.058H248.898V136.023H241.954ZM243.794 138.73C243.785 139.453 244.463 139.902 245.419 139.897C246.393 139.902 247.062 139.453 247.062 138.73C247.062 138.003 246.393 137.536 245.419 137.536C244.463 137.536 243.785 138.003 243.794 138.73ZM256.596 134.51C258.396 134.51 259.684 135.624 259.693 137.222C259.684 138.824 258.396 139.933 256.596 139.933C254.805 139.933 253.49 138.824 253.499 137.222C253.49 135.624 254.805 134.51 256.596 134.51ZM252.951 141.648C255.025 141.652 257.893 141.63 260.38 141.271L260.475 142.151C257.898 142.64 255.133 142.653 253.099 142.653L252.951 141.648ZM254.688 137.222C254.679 138.227 255.492 138.887 256.596 138.887C257.7 138.887 258.513 138.227 258.517 137.222C258.513 136.221 257.7 135.556 256.596 135.556C255.492 135.556 254.679 136.221 254.688 137.222ZM261.094 145.1V133.702H262.297V145.1H261.094ZM273.591 133.711V142.339H272.379V141.248H270.089V140.395H272.379V133.711H273.591ZM264.07 138.905C266.175 138.892 269.012 138.869 271.436 138.564L271.517 139.435C270.538 139.596 269.519 139.7 268.514 139.762V141.984H267.311V139.83C266.206 139.87 265.147 139.879 264.222 139.875L264.07 138.905ZM264.958 136.149C264.958 134.95 266.108 134.147 267.795 134.147C269.456 134.147 270.61 134.95 270.619 136.149C270.61 137.365 269.456 138.133 267.795 138.133C266.108 138.133 264.958 137.365 264.958 136.149ZM265.645 144.844V141.495H266.848V143.856H273.86V144.844H265.645ZM266.103 136.149C266.099 136.827 266.785 137.249 267.795 137.249C268.765 137.249 269.461 136.827 269.47 136.149C269.461 135.475 268.765 135.04 267.795 135.045C266.785 135.04 266.099 135.475 266.103 136.149ZM283.713 133.891C286.276 133.891 287.771 134.582 287.771 135.844C287.771 137.123 286.276 137.814 283.713 137.823C281.15 137.814 279.646 137.123 279.646 135.844C279.646 134.582 281.15 133.891 283.713 133.891ZM278.537 139.48V138.515H288.907V139.48H278.537ZM279.772 141.257V140.355H287.591V143.017H280.975V144.036H287.919V144.97H279.794V142.151H286.406V141.257H279.772ZM280.907 135.844C280.898 136.553 281.904 136.916 283.713 136.916C285.535 136.916 286.537 136.553 286.537 135.844C286.537 135.179 285.535 134.784 283.713 134.789C281.904 134.784 280.898 135.179 280.907 135.844Z" fill="black"/>
<path d="M161.081 99.8301C161.071 102.093 162.265 104.365 164.271 105.225L163.367 106.443C161.951 105.786 160.907 104.476 160.331 102.861C159.771 104.602 158.707 106.028 157.209 106.729L156.28 105.462C158.33 104.573 159.534 102.209 159.544 99.8301V97.8529H161.081V99.8301ZM165.161 109.238V96.8619H166.693V109.238H165.161ZM175.095 97.8819V103.76H169.144V97.8819H175.095ZM170.623 108.885V104.858H172.156V107.657H179.146V108.885H170.623ZM170.638 102.552H173.591V99.1001H170.638V102.552ZM177.275 105.689V96.8715H178.798V105.689H177.275Z" fill="black"/>
<path d="M237.698 27.8619V34.4945H236.175V27.8619H237.698ZM227.633 31.3039C227.628 29.5877 229.055 28.3985 230.964 28.4033C232.869 28.3985 234.29 29.5877 234.29 31.3039C234.29 32.9862 232.869 34.1802 230.964 34.1754C229.055 34.1802 227.628 32.9862 227.633 31.3039ZM229.117 31.3039C229.113 32.2949 229.886 32.9233 230.964 32.9233C232.023 32.9233 232.796 32.2949 232.796 31.3039C232.796 30.3128 232.023 29.6699 230.964 29.6747C229.886 29.6699 229.113 30.3128 229.117 31.3039ZM229.533 40.0635V35.0649H231.027V36.3267H236.185V35.0649H237.698V40.0635H229.533ZM231.027 38.8308H236.185V37.5159H231.027V38.8308ZM241.594 28.4952V30.1823H244.354V28.4952H245.858V30.7528H248.343V27.8619H249.861V34.6153H248.343V32.0097H245.858V34.2286H240.066V28.4952H241.594ZM241.594 33.0055H244.354V31.3619H241.594V33.0055ZM241.715 40.0442V35.1568H243.228V36.4185H248.343V35.1568H249.856V40.0442H241.715ZM243.228 38.8163H248.343V37.5981H243.228V38.8163ZM256.067 28.6354L252.877 40.489H251.354L254.545 28.6354H256.067ZM266.915 27.8619V34.4945H265.392V27.8619H266.915ZM256.85 31.3039C256.845 29.5877 258.271 28.3985 260.181 28.4033C262.086 28.3985 263.507 29.5877 263.507 31.3039C263.507 32.9862 262.086 34.1802 260.181 34.1754C258.271 34.1802 256.845 32.9862 256.85 31.3039ZM258.334 31.3039C258.329 32.2949 259.103 32.9233 260.181 32.9233C261.24 32.9233 262.013 32.2949 262.013 31.3039C262.013 30.3128 261.24 29.6699 260.181 29.6747C259.103 29.6699 258.329 30.3128 258.334 31.3039ZM258.75 40.0635V35.0649H260.244V36.3267H265.402V35.0649H266.915V40.0635H258.75ZM260.244 38.8308H265.402V37.5159H260.244V38.8308ZM270.811 28.4952V30.1823H273.571V28.4952H275.075V30.7528H277.56V27.8619H279.077V34.6153H277.56V32.0097H275.075V34.2286H269.283V28.4952H270.811ZM270.811 33.0055H273.571V31.3619H270.811V33.0055ZM270.932 40.0442V35.1568H272.445V36.4185H277.56V35.1568H279.073V40.0442H270.932ZM272.445 38.8163H277.56V37.5981H272.445V38.8163ZM291.279 27.8715V37.1823H289.727V35.6934H287.213V34.4896H289.727V27.8715H291.279ZM280.745 32.6188C282.253 32.6043 284.119 32.5898 285.975 32.4738C286.159 31.3232 286.212 30.4095 286.232 29.7376H281.861V28.5242H287.754V28.9979C287.754 29.6409 287.754 30.7866 287.503 32.3529C287.933 32.3142 288.354 32.2659 288.77 32.2079L288.871 33.2907C287.812 33.4744 286.71 33.6001 285.627 33.6775V36.3895H284.119V33.7645C282.973 33.8177 281.89 33.8273 280.938 33.8273L280.745 32.6188ZM282.504 39.9765V36.1961H284.027V38.7438H291.564V39.9765H282.504Z" fill="white"/>
<path d="M68.5 86C68.5 85.7239 68.2761 85.5 68 85.5C67.7239 85.5 67.5 85.7239 67.5 86L68 86L68.5 86ZM67.6464 119.576C67.8417 119.771 68.1583 119.771 68.3536 119.576L71.5355 116.394C71.7308 116.199 71.7308 115.882 71.5355 115.687C71.3403 115.491 71.0237 115.491 70.8284 115.687L68 118.515L65.1716 115.687C64.9763 115.491 64.6597 115.491 64.4645 115.687C64.2692 115.882 64.2692 116.199 64.4645 116.394L67.6464 119.576ZM68 86L67.5 86L67.5 119.222L68 119.222L68.5 119.222L68.5 86L68 86Z" fill="black"/>
<path d="M78.3536 85.6464C78.1583 85.4512 77.8417 85.4512 77.6464 85.6464L74.4645 88.8284C74.2692 89.0237 74.2692 89.3403 74.4645 89.5355C74.6597 89.7308 74.9763 89.7308 75.1716 89.5355L78 86.7071L80.8284 89.5355C81.0237 89.7308 81.3403 89.7308 81.5355 89.5355C81.7308 89.3403 81.7308 89.0237 81.5355 88.8284L78.3536 85.6464ZM77.5 119.222C77.5 119.498 77.7239 119.722 78 119.722C78.2761 119.722 78.5 119.498 78.5 119.222L78 119.222L77.5 119.222ZM78 86L77.5 86L77.5 119.222L78 119.222L78.5 119.222L78.5 86L78 86Z" fill="black"/>
<path d="M93.3108 93.5055V94.4006H87.4019V93.5055H89.855V92.3992H90.9613V93.5055H93.3108ZM87.9903 96.7459C87.982 95.6064 88.9682 94.8439 90.3978 94.8439C91.8149 94.8439 92.8177 95.6064 92.826 96.7459C92.8177 97.8812 91.8149 98.6312 90.3978 98.6312C88.9682 98.6312 87.982 97.8812 87.9903 96.7459ZM89.0304 96.7459C89.0221 97.3881 89.5649 97.8066 90.3978 97.8066C91.2182 97.8066 91.7818 97.3881 91.7901 96.7459C91.7818 96.0994 91.2182 95.6892 90.3978 95.6892C89.5649 95.6892 89.0221 96.0994 89.0304 96.7459ZM89.2251 102.862V99.145H90.3315V100.135H95.0387V99.145H96.1409V102.862H89.2251ZM90.3315 101.983H95.0387V100.985H90.3315V101.983ZM93.3315 97.8398V96.9323H95.0304V95.7845H93.3439V94.8771H95.0304V92.4945H96.1409V98.7182H95.0304V97.8398H93.3315ZM102.758 93.1285V96.1865H99.2979V97.645C101.125 97.6409 102.12 97.5994 103.297 97.3798L103.404 98.2873C102.124 98.5028 101.047 98.5359 98.954 98.5401H98.1957V95.3412H101.651V94.0152H98.175V93.1285H102.758ZM99.3808 100.392V99.4931H106.512V103.007H105.401V100.392H99.3808ZM103.425 97.1188V96.2196H105.401V94.9227H103.425V94.0318H105.401V92.5028H106.512V98.9586H105.401V97.1188H103.425ZM93.232 107.29V107.883C93.2238 108.583 93.2238 109.627 92.9669 110.978L91.8646 110.883C92.0925 109.714 92.1298 108.869 92.1381 108.21H87.9365V107.29H93.232ZM87.3025 111.885C87.9489 111.881 88.6823 111.877 89.453 111.86V109.652H90.5552V111.823C91.6823 111.778 92.8384 111.695 93.895 111.546L93.9613 112.358C91.7693 112.743 89.2624 112.785 87.4061 112.789L87.3025 111.885ZM88.8978 116.779V113.671H90.0083V115.867H96.029V116.779H88.8978ZM94.5622 114.384V106.494H95.6934V109.838H97.1395V110.779H95.6934V114.384H94.5622ZM106.785 106.494V116.994H105.729V106.494H106.785ZM97.6984 113.961C99.9277 112.64 100.997 110.87 101.187 108.715H98.2164V107.8H102.294C102.294 108.334 102.252 108.86 102.169 109.366H103.578V106.764H104.639V116.485H103.578V112.905H101.784V111.993H103.578V110.278H101.962C101.457 112.043 100.338 113.576 98.3614 114.753L97.6984 113.961Z" fill="#43A9D1"/>
<path d="M281.974 97.6036V98.4945H272.39V97.6036H276.637V96.4889H273.583V92.9793H280.793V93.8577H274.685V95.5981H280.855V96.4889H277.722V97.6036H281.974ZM273.521 101.088C273.521 99.8702 274.888 99.1823 277.163 99.1823C279.425 99.1823 280.785 99.8702 280.793 101.088C280.785 102.302 279.425 102.986 277.163 102.994C274.888 102.986 273.521 102.302 273.521 101.088ZM274.652 101.088C274.644 101.76 275.559 102.128 277.163 102.12C278.75 102.128 279.674 101.76 279.682 101.088C279.674 100.421 278.75 100.04 277.163 100.04C275.559 100.04 274.644 100.421 274.652 101.088ZM292.345 97.4254V98.3453H282.761V97.4254H292.345ZM283.892 101.072C283.892 99.8536 285.259 99.1657 287.534 99.1657C289.797 99.1657 291.156 99.8536 291.164 101.072C291.156 102.294 289.797 102.978 287.534 102.978C285.259 102.978 283.892 102.294 283.892 101.072ZM283.954 96.5138V92.8715H291.164V93.779H285.056V95.6146H291.226V96.5138H283.954ZM285.023 101.072C285.015 101.747 285.93 102.112 287.534 102.112C289.121 102.112 290.045 101.747 290.053 101.072C290.045 100.405 289.121 100.032 287.534 100.023C285.93 100.032 285.015 100.405 285.023 101.072ZM278.232 107.29V107.883C278.224 108.583 278.224 109.627 277.967 110.978L276.865 110.883C277.093 109.714 277.13 108.869 277.138 108.21H272.936V107.29H278.232ZM272.302 111.885C272.949 111.881 273.682 111.877 274.453 111.86V109.652H275.555V111.823C276.682 111.778 277.838 111.695 278.895 111.546L278.961 112.358C276.769 112.743 274.262 112.785 272.406 112.789L272.302 111.885ZM273.898 116.779V113.671H275.008V115.867H281.029V116.779H273.898ZM279.562 114.384V106.494H280.693V109.838H282.14V110.779H280.693V114.384H279.562ZM291.785 106.494V116.994H290.729V106.494H291.785ZM282.698 113.961C284.928 112.64 285.997 110.87 286.187 108.715H283.216V107.8H287.294C287.294 108.334 287.252 108.86 287.169 109.366H288.578V106.764H289.639V116.485H288.578V112.905H286.784V111.993H288.578V110.278H286.962C286.457 112.043 285.338 113.576 283.361 114.753L282.698 113.961Z" fill="#7471F9"/>
<line x1="253.5" y1="86.5" x2="253.5" y2="119.5" stroke="black" stroke-linecap="round"/>
<line x1="263.5" y1="86.5" x2="263.5" y2="119.5" stroke="black" stroke-linecap="round"/>
</svg>
