<svg width="78" height="19" viewBox="0 0 78 19" fill="none" xmlns="http://www.w3.org/2000/svg">
<rect x="0.25" y="0.25" width="77.5" height="18.5" rx="9.25" fill="#F8575E" fill-opacity="0.78" stroke="#FF8D98" stroke-width="0.5"/>
<path d="M25.707 5.79688C25.707 6.33984 25.6914 6.83203 25.6602 7.27344C25.6328 7.71094 25.5625 8.20703 25.4492 8.76172H26.9609V9.51172H22.625V11.4336H25.7773V14.9492H24.8516V12.1953H18.4062V11.4336H21.7109V9.51172H17.4219V8.76172H24.5234C24.6406 8.19922 24.7148 7.69922 24.7461 7.26172C24.7773 6.82422 24.793 6.33594 24.793 5.79688H18.6289V5.04688H25.707V5.79688ZM33.2305 10.2734H28.3438V5.44531H33.2305V10.2734ZM29.2461 9.53516H32.3281V6.20703H29.2461V9.53516ZM36.3945 12.0312H35.4805V4.54297H36.3945V12.0312ZM36.7227 14.5977H29.668V11.3047H30.582V13.8359H36.7227V14.5977ZM41.5742 5.29297C42.1172 5.29297 42.5996 5.39648 43.0215 5.60352C43.4473 5.81055 43.7793 6.09961 44.0176 6.4707C44.2559 6.8418 44.375 7.26562 44.375 7.74219C44.375 8.21875 44.2559 8.64258 44.0176 9.01367C43.7793 9.38477 43.4473 9.67383 43.0215 9.88086C42.5996 10.0879 42.1172 10.1914 41.5742 10.1914C41.0312 10.1914 40.5449 10.0879 40.1152 9.88086C39.6895 9.67383 39.3555 9.38477 39.1133 9.01367C38.875 8.64258 38.7578 8.21875 38.7617 7.74219C38.7578 7.26562 38.875 6.8418 39.1133 6.4707C39.3555 6.09961 39.6895 5.81055 40.1152 5.60352C40.5449 5.39648 41.0312 5.29297 41.5742 5.29297ZM41.5742 6.10156C41.207 6.10156 40.877 6.17188 40.584 6.3125C40.2949 6.44922 40.0684 6.64258 39.9043 6.89258C39.7402 7.13867 39.6602 7.42188 39.6641 7.74219C39.6602 8.0625 39.7402 8.34766 39.9043 8.59766C40.0684 8.84375 40.2949 9.03711 40.584 9.17773C40.877 9.31445 41.207 9.38281 41.5742 9.38281C41.9375 9.38281 42.2637 9.31445 42.5527 9.17773C42.8418 9.03711 43.0664 8.84375 43.2266 8.59766C43.3906 8.34766 43.4727 8.0625 43.4727 7.74219C43.4727 7.42188 43.3906 7.13867 43.2266 6.89258C43.0664 6.64258 42.8418 6.44922 42.5527 6.3125C42.2637 6.17188 41.9375 6.10156 41.5742 6.10156ZM46.707 14.9727H45.793V4.53125H46.707V14.9727ZM38.2227 11.8906C39.5742 11.8906 40.8027 11.8691 41.9082 11.8262C43.0176 11.7832 44.082 11.6875 45.1016 11.5391L45.1719 12.2188C44.125 12.4141 43.0566 12.5391 41.9668 12.5938C40.8809 12.6484 39.6758 12.6758 38.3516 12.6758L38.2227 11.8906ZM60.1484 10.8477H59.2344V4.53125H60.1484V10.8477ZM60.1484 14.8086H53.375V11.4102H60.1484V14.8086ZM54.2773 14.0586H59.2461V12.1484H54.2773V14.0586ZM58.0859 6.40625H51.6992V5.65625H54.4297V4.44922H55.3555V5.65625H58.0859V6.40625ZM54.8984 6.92188C55.4062 6.92188 55.8535 6.99805 56.2402 7.15039C56.627 7.30273 56.9258 7.51953 57.1367 7.80078C57.3477 8.07812 57.4531 8.40234 57.4531 8.77344C57.4531 9.14844 57.3477 9.47656 57.1367 9.75781C56.9258 10.0391 56.627 10.2559 56.2402 10.4082C55.8535 10.5605 55.4062 10.6367 54.8984 10.6367C54.3867 10.6367 53.9375 10.5605 53.5508 10.4082C53.1641 10.2559 52.8652 10.0391 52.6543 9.75781C52.4434 9.47656 52.3398 9.14844 52.3438 8.77344C52.3398 8.40234 52.4434 8.07812 52.6543 7.80078C52.8652 7.51953 53.1641 7.30273 53.5508 7.15039C53.9375 6.99805 54.3867 6.92188 54.8984 6.92188ZM54.8984 7.625C54.5625 7.625 54.2676 7.67383 54.0137 7.77148C53.7598 7.86523 53.5625 8 53.4219 8.17578C53.2852 8.34766 53.2188 8.54688 53.2227 8.77344C53.2188 9.00781 53.2852 9.21289 53.4219 9.38867C53.5586 9.56055 53.7539 9.69336 54.0078 9.78711C54.2617 9.88086 54.5586 9.92969 54.8984 9.93359C55.2344 9.92969 55.5273 9.88086 55.7773 9.78711C56.0312 9.69336 56.2266 9.56055 56.3633 9.38867C56.5039 9.21289 56.5742 9.00781 56.5742 8.77344C56.5742 8.54688 56.5039 8.34766 56.3633 8.17578C56.2266 8 56.0312 7.86523 55.7773 7.77148C55.5234 7.67383 55.2305 7.625 54.8984 7.625Z" fill="white"/>
</svg>
