<svg width="32" height="32" viewBox="0 0 32 32" fill="none" xmlns="http://www.w3.org/2000/svg">
<circle cx="16" cy="16" r="16" fill="white"/>
<path d="M14.5 16.751C14.8221 17.1815 15.233 17.5378 15.7049 17.7957C16.1768 18.0535 16.6986 18.2068 17.235 18.2452C17.7713 18.2836 18.3097 18.2062 18.8135 18.0183C19.3173 17.8303 19.7748 17.5363 20.155 17.156L22.405 14.906C23.0881 14.1987 23.4661 13.2514 23.4575 12.2682C23.449 11.285 23.0546 10.3444 22.3593 9.64913C21.664 8.95385 20.7235 8.55947 19.7403 8.55092C18.757 8.54238 17.8098 8.92036 17.1025 9.60345L15.8125 10.886" stroke="#585664" stroke-width="2" stroke-linecap="round" stroke-linejoin="round"/>
<path d="M17.5001 15.2499C17.1781 14.8193 16.7671 14.463 16.2952 14.2052C15.8233 13.9474 15.3015 13.7941 14.7652 13.7557C14.2288 13.7173 13.6905 13.7946 13.1866 13.9826C12.6828 14.1705 12.2253 14.4646 11.8451 14.8449L9.59515 17.0949C8.91206 17.8022 8.53408 18.7494 8.54262 19.7327C8.55117 20.7159 8.94555 21.6565 9.64083 22.3517C10.3361 23.047 11.2767 23.4414 12.2599 23.45C13.2431 23.4585 14.1904 23.0805 14.8976 22.3974L16.1801 21.1149" stroke="#585664" stroke-width="2" stroke-linecap="round" stroke-linejoin="round"/>
</svg>
