<svg width="347" height="75" viewBox="0 0 347 75" fill="none" xmlns="http://www.w3.org/2000/svg">
<rect x="0.5" y="0.5" width="346" height="74" rx="7.5" fill="#F3F3F3" stroke="#E1E1E1"/>
<path d="M26.8593 17.9102V30.1844H25.5541V17.9102H26.8593ZM17.1328 23.1264C17.1328 20.5014 18.4526 18.8336 20.2992 18.8287C22.1266 18.8336 23.4609 20.5014 23.4609 23.1264C23.4609 25.7659 22.1266 27.4337 20.2992 27.4337C18.4526 27.4337 17.1328 25.7659 17.1328 23.1264ZM18.3849 23.1264C18.3849 25.0698 19.168 26.2686 20.2992 26.2686C21.4305 26.2686 22.2039 25.0698 22.2039 23.1264C22.2039 21.1975 21.4305 19.9986 20.2992 19.989C19.168 19.9986 18.3849 21.1975 18.3849 23.1264ZM40.0031 24.8329V25.8964H37.2621V30.2279H35.9617V25.8964H32.8774V30.2279H31.5819V25.8964H28.7925V24.8329H40.0031ZM29.3339 22.5173C31.7269 22.174 33.7234 20.6512 33.7234 18.9883V18.3211H35.077V18.9883C35.077 20.6271 37.0881 22.1837 39.4665 22.5173L38.9541 23.5808C36.9624 23.2472 35.2027 22.1934 34.4051 20.7383C33.6123 22.1982 31.8574 23.2472 29.856 23.5808L29.3339 22.5173ZM52.1028 23.5325V24.5283H40.8921V23.5325H52.1028ZM42.2215 26.3218V25.384H50.725V28.0863H43.5316V29.0967H51.1069V30.0152H42.236V27.221H49.4391V26.3218H42.2215ZM42.2989 19.143V18.2293H50.6911V20.8785H43.6186V21.8115H50.9039V22.7251H42.3327V20.0228H49.3956V19.143H42.2989ZM65.9718 17.9102V22.6526H67.9346V23.7307H65.9718V30.1844H64.6714V17.9102H65.9718ZM56.9463 27.1436V19.0898H62.6749V20.1436H58.2419V26.0608C60.2964 26.0511 61.8386 25.9641 63.5934 25.645L63.7481 26.7521C61.8337 27.0856 60.2046 27.1485 57.9325 27.1436H56.9463ZM79.7103 24.6443V25.6982H74.876V27.6948H73.5756V25.6982H68.5286V24.6443H79.7103ZM69.9161 19.288V18.268H78.3083V21.4199H71.2358V22.6091H78.5597V23.6146H69.9499V20.482H77.0128V19.288H69.9161ZM69.9499 29.9088V26.6215H71.2552V28.8453H78.5742V29.9088H69.9499ZM87.7106 21.6519C87.7106 23.5663 88.5953 25.5338 90.3017 26.433L89.5621 27.4047C88.3777 26.7714 87.5511 25.6064 87.1111 24.2238C86.6712 25.703 85.8494 26.9793 84.665 27.6657L83.906 26.6989C85.5932 25.7175 86.4778 23.6291 86.4875 21.6519V21.2023H84.2251V20.1291H86.4875V18.3501H87.7106V20.1291H89.9392V21.2023H87.7106V21.6519ZM90.6885 29.5559V18.1471H91.9164V22.7831H93.3812V17.9102H94.6236V30.1602H93.3812V23.8709H91.9164V29.5559H90.6885ZM98.152 18.4758V22.6768C99.9165 22.6623 101.526 22.5608 103.281 22.2272L103.455 23.2907C101.502 23.6533 99.7812 23.7645 97.8185 23.7548H96.8613V18.4758H98.152ZM98.3454 25.7804V24.741H106.356V27.8059H99.6603V28.9517H106.747V30.0055H98.3696V26.8101H105.055V25.7804H98.3454ZM101.696 20.9075V19.8536H105.06V17.9102H106.356V24.2141H105.06V20.9075H101.696ZM112.234 18.7804C114.172 18.7804 115.56 19.9793 115.569 21.7003C115.56 23.4261 114.172 24.6202 112.234 24.6202C110.305 24.6202 108.888 23.4261 108.898 21.7003C108.888 19.9793 110.305 18.7804 112.234 18.7804ZM108.308 26.4669C110.542 26.4717 113.631 26.4475 116.309 26.0608L116.41 27.0083C113.636 27.5352 110.658 27.5497 108.468 27.5497L108.308 26.4669ZM110.179 21.7003C110.169 22.7831 111.044 23.4938 112.234 23.4938C113.423 23.4938 114.298 22.7831 114.303 21.7003C114.298 20.6222 113.423 19.9068 112.234 19.9068C111.044 19.9068 110.169 20.6222 110.179 21.7003ZM117.078 30.1844V17.9102H118.373V30.1844H117.078ZM133.973 17.9102V25.2003H132.677V22.1015H130.391V21.0331H132.677V17.9102H133.973ZM123.768 24.0981C125.663 23.4309 126.828 21.7776 126.828 20.0856V19.8149H124.169V18.7562H130.782V19.8149H128.143V20.076C128.143 21.6278 129.25 23.136 131.097 23.7597L130.434 24.7942C129.057 24.3156 128.046 23.3343 127.514 22.1257C126.978 23.4938 125.905 24.5912 124.44 25.1278L123.768 24.0981ZM125.731 27.8543C125.721 26.3943 127.297 25.5435 129.869 25.5435C132.436 25.5435 134.007 26.3943 134.012 27.8543C134.007 29.3094 132.436 30.1506 129.869 30.1602C127.297 30.1506 125.721 29.3094 125.731 27.8543ZM127.016 27.8543C127.007 28.6761 128.075 29.1499 129.869 29.1402C131.657 29.1499 132.721 28.6761 132.726 27.8543C132.721 27.0228 131.657 26.549 129.869 26.549C128.075 26.549 127.007 27.0228 127.016 27.8543ZM146.005 17.9102V30.1602H144.704V17.9102H146.005ZM136.041 26.8149C137.932 25.9641 139.189 23.9047 139.193 21.8453V21.0428H136.399V19.9986H139.184V18.1519H140.47V19.9986H143.216V21.0428H140.475V21.8453C140.475 23.808 141.76 25.7997 143.67 26.6022L142.954 27.6077C141.543 26.9938 140.421 25.7175 139.851 24.1754C139.295 25.8094 138.183 27.1678 136.762 27.8156L136.041 26.8149ZM155.731 19.7521C155.721 21.4586 156.833 22.991 158.69 23.5953L157.984 24.6105C156.635 24.1222 155.644 23.1796 155.112 21.9517C154.58 23.3536 153.512 24.4461 152.028 24.9827L151.332 23.9385C153.29 23.2714 154.426 21.6423 154.435 19.8052V18.5919H155.731V19.7521ZM153.348 27.8253C153.338 26.3412 154.914 25.4807 157.486 25.4807C160.053 25.4807 161.624 26.3412 161.629 27.8253C161.624 29.3046 160.053 30.1409 157.486 30.1409C154.914 30.1409 153.338 29.3046 153.348 27.8253ZM154.634 27.8253C154.624 28.6423 155.692 29.116 157.486 29.116C159.275 29.116 160.338 28.6423 160.343 27.8253C160.338 26.9793 159.275 26.5007 157.486 26.5007C155.692 26.5007 154.624 26.9793 154.634 27.8253ZM157.713 21.4731V20.4047H160.295V17.9102H161.59V25.1423H160.295V21.4731H157.713ZM174.84 19.9358V20.9993H173.105V22.5463H174.84V23.6146H173.105V25.7707H171.804V17.9102H173.105V19.9358H174.84ZM163.494 20.2548V19.23H166.501V17.8232H167.792V19.23H170.784V20.2548H163.494ZM164.161 22.991C164.157 21.6809 165.356 20.8156 167.144 20.8156C168.909 20.8156 170.108 21.6809 170.112 22.991C170.108 24.3108 168.909 25.1664 167.144 25.1616C165.356 25.1664 164.157 24.3108 164.161 22.991ZM165.128 28.0138C165.119 26.6602 166.661 25.8674 169.189 25.8674C171.688 25.8674 173.24 26.6602 173.24 28.0138C173.24 29.3481 171.688 30.1409 169.189 30.1409C166.661 30.1409 165.119 29.3481 165.128 28.0138ZM165.414 22.991C165.404 23.7258 166.1 24.1754 167.144 24.1754C168.179 24.1754 168.875 23.7258 168.885 22.991C168.875 22.2514 168.179 21.7825 167.144 21.7728C166.1 21.7825 165.404 22.2514 165.414 22.991ZM166.414 28.0138C166.405 28.7293 167.429 29.1547 169.189 29.145C170.925 29.1547 171.945 28.7293 171.945 28.0138C171.945 27.2693 170.925 26.8729 169.189 26.8729C167.429 26.8729 166.405 27.2693 166.414 28.0138ZM190.189 24.3253V25.3695H185.33V27.6222H184.044V25.3695H178.978V24.3253H190.189ZM180.375 29.9088V26.549H181.661V28.8453H188.946V29.9088H180.375ZM180.457 23.2424V18.3018H181.748V19.7762H187.423V18.3018H188.714V23.2424H180.457ZM181.748 22.203H187.423V20.7576H181.748V22.203ZM202.308 27.5981V28.6906H191.097V27.5981H196.018V24.9827H192.078V23.9482H193.906V20.1001H192.049V19.0463H201.283V20.1001H199.407V23.9482H201.244V24.9827H197.295V27.5981H202.308ZM195.196 23.9482H198.131V20.1001H195.196V23.9482Z" fill="#1A1A1A"/>
<rect x="16" y="40" width="317" height="21" rx="10.5" fill="url(#paint0_linear_1902_1211)"/>
<path d="M58.1758 53.6133H48.6367V52.8516H52.9258V50.6016H49.7617V45.2695H50.6875V47.1562H56.1015V45.2695H57.0039V50.6016H53.8281V52.8516H58.1758V53.6133ZM56.1015 49.8516V47.9062H50.6875V49.8516H56.1015ZM64.2344 45.5039C64.2344 45.9727 64.416 46.4219 64.7793 46.8516C65.1465 47.2812 65.623 47.6426 66.209 47.9355C66.7949 48.2285 67.4023 48.418 68.0312 48.5039L67.6562 49.2539C67.1094 49.1641 66.5801 49.0078 66.0683 48.7852C65.5566 48.5586 65.0996 48.2773 64.6972 47.9414C64.2949 47.6016 63.9844 47.2246 63.7656 46.8105C63.5508 47.2246 63.2402 47.6016 62.834 47.9414C62.4316 48.2773 61.9746 48.5586 61.4629 48.7852C60.9512 49.0078 60.4219 49.1641 59.875 49.2539L59.5 48.5039C60.1328 48.418 60.7402 48.2305 61.3222 47.9414C61.9043 47.6484 62.3769 47.2891 62.7402 46.8633C63.1035 46.4336 63.2851 45.9805 63.2851 45.5039V44.9062H64.2344V45.5039ZM68.5 51.1758H64.1875V54.9492H63.2851V51.1758H59.0078V50.4023H68.5V51.1758ZM75.6953 54.1172C75.1367 54.1172 74.6367 54.0234 74.1953 53.8359C73.7578 53.6484 73.4101 53.3848 73.1523 53.0449C72.8984 52.7051 72.7617 52.3125 72.7422 51.8672H73.8086C73.8281 52.1289 73.9219 52.3594 74.0898 52.5586C74.2617 52.7578 74.4863 52.9121 74.7637 53.0215C75.041 53.127 75.3476 53.1797 75.6836 53.1797C76.0508 53.1797 76.3808 53.1172 76.6738 52.9922C76.9707 52.8633 77.2012 52.6875 77.3652 52.4648C77.5332 52.2383 77.6172 51.9805 77.6172 51.6914C77.6172 51.3789 77.5351 51.1035 77.3711 50.8652C77.2109 50.627 76.9765 50.4414 76.6679 50.3086C76.3594 50.1758 75.9883 50.1094 75.5547 50.1094H74.8633V49.1836H75.5547C75.8945 49.1836 76.1972 49.123 76.4629 49.002C76.7285 48.8809 76.9336 48.7109 77.0781 48.4922C77.2265 48.2734 77.3008 48.0195 77.3008 47.7305C77.3008 47.4531 77.2344 47.207 77.1015 46.9922C76.9726 46.7773 76.789 46.6113 76.5508 46.4941C76.3125 46.373 76.0351 46.3125 75.7187 46.3125C75.414 46.3125 75.1289 46.3672 74.8633 46.4766C74.5976 46.5859 74.3808 46.7422 74.2129 46.9453C74.0449 47.1445 73.9531 47.3789 73.9375 47.6484H72.9179C72.9375 47.2109 73.0742 46.8223 73.3281 46.4824C73.582 46.1387 73.9199 45.873 74.3418 45.6855C74.7637 45.4941 75.2265 45.3984 75.7304 45.3984C76.2539 45.3984 76.7109 45.502 77.1015 45.709C77.4961 45.9121 77.7988 46.1875 78.0097 46.5352C78.2207 46.8828 78.3242 47.2617 78.3203 47.6719C78.3242 48.1484 78.1972 48.5566 77.9394 48.8965C77.6816 49.2363 77.3281 49.4688 76.8789 49.5938V49.6523C77.2422 49.7109 77.5566 49.834 77.8222 50.0215C78.0918 50.2051 78.2969 50.4414 78.4375 50.7305C78.582 51.0156 78.6523 51.3359 78.6484 51.6914C78.6523 52.1484 78.5254 52.5625 78.2676 52.9336C78.0097 53.3008 77.6543 53.5898 77.2012 53.8008C76.7519 54.0117 76.25 54.1172 75.6953 54.1172ZM79.9609 51.3984L83.7812 45.5156H85.082V51.3398H86.2656V52.2656H85.082V54H84.0742V52.2656H79.9609V51.3984ZM84.0742 51.3398V46.8516H83.9687L81.0976 51.2695V51.3398H84.0742ZM89.4531 49.4531C89.0937 49.4531 88.7851 49.3691 88.5273 49.2012C88.2734 49.0332 88.0801 48.7969 87.9472 48.4922C87.8183 48.1836 87.7539 47.8242 87.7539 47.4141C87.7539 47.0156 87.8203 46.6641 87.9531 46.3594C88.0898 46.0508 88.2851 45.8125 88.539 45.6445C88.7969 45.4727 89.1015 45.3867 89.4531 45.3867C89.8164 45.3867 90.125 45.4727 90.3789 45.6445C90.6328 45.8125 90.8242 46.0488 90.9531 46.3535C91.0859 46.6582 91.1523 47.0117 91.1523 47.4141C91.1523 47.8203 91.0859 48.1777 90.9531 48.4863C90.8203 48.791 90.625 49.0293 90.3672 49.2012C90.1133 49.3691 89.8086 49.4531 89.4531 49.4531ZM89.4531 48.7266C89.7344 48.7266 89.9453 48.6113 90.0859 48.3809C90.2265 48.1465 90.2969 47.8242 90.2969 47.4141C90.2969 47.0039 90.2285 46.6836 90.0918 46.4531C89.9551 46.2227 89.7422 46.1094 89.4531 46.1133C89.1797 46.1133 88.9707 46.2305 88.8262 46.4648C88.6816 46.6953 88.6094 47.0117 88.6094 47.4141C88.6094 47.8203 88.6816 48.1406 88.8262 48.375C88.9707 48.6094 89.1797 48.7266 89.4531 48.7266ZM94.6328 54.1172C94.2734 54.1211 93.9648 54.0391 93.707 53.8711C93.4492 53.7031 93.2539 53.4668 93.1211 53.1621C92.9922 52.8535 92.9297 52.4961 92.9336 52.0898C92.9297 51.6875 92.9941 51.332 93.1269 51.0234C93.2637 50.7148 93.4609 50.4766 93.7187 50.3086C93.9765 50.1367 94.2812 50.0508 94.6328 50.0508C94.9922 50.0508 95.2988 50.1367 95.5527 50.3086C95.8066 50.4766 95.998 50.7148 96.1269 51.0234C96.2558 51.3281 96.3203 51.6836 96.3203 52.0898C96.3203 52.4922 96.2539 52.8477 96.1211 53.1562C95.9883 53.4648 95.7949 53.7031 95.541 53.8711C95.2871 54.0391 94.9844 54.1211 94.6328 54.1172ZM94.6328 53.3906C94.9062 53.3906 95.1133 53.2754 95.2539 53.0449C95.3945 52.8145 95.4648 52.4961 95.4648 52.0898C95.4648 51.6797 95.3984 51.3594 95.2656 51.1289C95.1328 50.8945 94.9297 50.7773 94.6562 50.7773C94.375 50.7773 94.1582 50.8945 94.0058 51.1289C93.8535 51.3594 93.7773 51.6797 93.7773 52.0898C93.7773 52.4922 93.8496 52.8105 93.9941 53.0449C94.1387 53.2754 94.3515 53.3906 94.6328 53.3906ZM94.4219 45.5156H95.3711L89.5351 54H88.5859L94.4219 45.5156Z" fill="#1A1A1A"/>
<path d="M168.046 50.168H163.745V51.2812C164.737 51.3242 165.507 51.5039 166.054 51.8203C166.605 52.1328 166.882 52.5625 166.886 53.1094C166.882 53.4922 166.737 53.8184 166.452 54.0879C166.167 54.3613 165.757 54.5684 165.222 54.709C164.687 54.8535 164.046 54.9258 163.3 54.9258C162.55 54.9258 161.905 54.8535 161.366 54.709C160.827 54.5684 160.415 54.3613 160.13 54.0879C159.845 53.8184 159.702 53.4922 159.702 53.1094C159.702 52.5625 159.976 52.1328 160.523 51.8203C161.069 51.5039 161.843 51.3242 162.843 51.2812V50.168H158.554V49.4062H168.046V50.168ZM163.3 51.9844C162.741 51.9883 162.263 52.0352 161.864 52.125C161.466 52.2148 161.161 52.3438 160.95 52.5117C160.739 52.6758 160.636 52.875 160.64 53.1094C160.636 53.3398 160.739 53.5371 160.95 53.7012C161.161 53.8652 161.466 53.9902 161.864 54.0762C162.267 54.166 162.745 54.2109 163.3 54.2109C163.847 54.2109 164.319 54.166 164.718 54.0762C165.12 53.9902 165.427 53.8652 165.638 53.7012C165.853 53.5371 165.96 53.3398 165.96 53.1094C165.96 52.8789 165.853 52.6797 165.638 52.5117C165.427 52.3438 165.122 52.2148 164.724 52.125C164.325 52.0352 163.851 51.9883 163.3 51.9844ZM167.202 45.7734H163.898C163.917 46.1523 164.097 46.5039 164.437 46.8281C164.777 47.1484 165.22 47.416 165.767 47.6309C166.314 47.8418 166.898 47.9805 167.519 48.0469L167.179 48.7734C166.601 48.7031 166.052 48.5742 165.532 48.3867C165.013 48.1953 164.558 47.9512 164.167 47.6543C163.777 47.3574 163.487 47.0215 163.3 46.6465C163.116 47.0215 162.829 47.3574 162.439 47.6543C162.048 47.9512 161.593 48.1953 161.073 48.3867C160.554 48.5742 160.003 48.7031 159.421 48.7734L159.093 48.0469C159.702 47.9805 160.278 47.8418 160.821 47.6309C161.368 47.416 161.812 47.1465 162.152 46.8223C162.495 46.498 162.679 46.1484 162.702 45.7734H159.421V45.0234H167.202V45.7734ZM177.339 50.168H174.116V52.8633H178.464V53.6367H168.925V52.8633H173.214V50.168H170.144V45.3867H177.234V46.1367H171.069V49.418H177.339V50.168ZM182.472 51.3984L186.292 45.5156H187.593V51.3398H188.777V52.2656H187.593V54H186.585V52.2656H182.472V51.3984ZM186.585 51.3398V46.8516H186.48L183.609 51.2695V51.3398H186.585ZM193.054 54H191.987V46.6172H191.941L189.878 47.9883V46.9219L191.987 45.5156H193.054V54ZM197.109 49.4531C196.749 49.4531 196.441 49.3691 196.183 49.2012C195.929 49.0332 195.736 48.7969 195.603 48.4922C195.474 48.1836 195.409 47.8242 195.409 47.4141C195.409 47.0156 195.476 46.6641 195.609 46.3594C195.745 46.0508 195.941 45.8125 196.194 45.6445C196.452 45.4727 196.757 45.3867 197.109 45.3867C197.472 45.3867 197.78 45.4727 198.034 45.6445C198.288 45.8125 198.48 46.0488 198.609 46.3535C198.741 46.6582 198.808 47.0117 198.808 47.4141C198.808 47.8203 198.741 48.1777 198.609 48.4863C198.476 48.791 198.28 49.0293 198.023 49.2012C197.769 49.3691 197.464 49.4531 197.109 49.4531ZM197.109 48.7266C197.39 48.7266 197.601 48.6113 197.741 48.3809C197.882 48.1465 197.952 47.8242 197.952 47.4141C197.952 47.0039 197.884 46.6836 197.747 46.4531C197.611 46.2227 197.398 46.1094 197.109 46.1133C196.835 46.1133 196.626 46.2305 196.482 46.4648C196.337 46.6953 196.265 47.0117 196.265 47.4141C196.265 47.8203 196.337 48.1406 196.482 48.375C196.626 48.6094 196.835 48.7266 197.109 48.7266ZM202.288 54.1172C201.929 54.1211 201.62 54.0391 201.362 53.8711C201.105 53.7031 200.909 53.4668 200.777 53.1621C200.648 52.8535 200.585 52.4961 200.589 52.0898C200.585 51.6875 200.65 51.332 200.782 51.0234C200.919 50.7148 201.116 50.4766 201.374 50.3086C201.632 50.1367 201.937 50.0508 202.288 50.0508C202.648 50.0508 202.954 50.1367 203.208 50.3086C203.462 50.4766 203.653 50.7148 203.782 51.0234C203.911 51.3281 203.976 51.6836 203.976 52.0898C203.976 52.4922 203.909 52.8477 203.777 53.1562C203.644 53.4648 203.45 53.7031 203.196 53.8711C202.943 54.0391 202.64 54.1211 202.288 54.1172ZM202.288 53.3906C202.562 53.3906 202.769 53.2754 202.909 53.0449C203.05 52.8145 203.12 52.4961 203.12 52.0898C203.12 51.6797 203.054 51.3594 202.921 51.1289C202.788 50.8945 202.585 50.7773 202.312 50.7773C202.03 50.7773 201.814 50.8945 201.661 51.1289C201.509 51.3594 201.433 51.6797 201.433 52.0898C201.433 52.4922 201.505 52.8105 201.65 53.0449C201.794 53.2754 202.007 53.3906 202.288 53.3906ZM202.077 45.5156H203.027L197.191 54H196.241L202.077 45.5156Z" fill="#1A1A1A"/>
<path d="M265.625 46.7695C265.625 47.2305 265.739 47.6738 265.965 48.0996C266.192 48.5215 266.508 48.8926 266.915 49.2129C267.321 49.5293 267.782 49.7695 268.297 49.9336L267.829 50.6719C267.219 50.4648 266.684 50.1562 266.223 49.7461C265.762 49.3359 265.415 48.8555 265.18 48.3047C264.954 48.8984 264.606 49.4199 264.137 49.8691C263.672 50.3184 263.129 50.6562 262.508 50.8828L262.028 50.1445C262.543 49.9609 263.004 49.6973 263.411 49.3535C263.817 49.0098 264.133 48.6152 264.36 48.1699C264.586 47.7207 264.7 47.2539 264.7 46.7695V46.1602H262.262V45.4102H268.028V46.1602H265.625V46.7695ZM270.477 52.1836H269.563V44.543H270.477V52.1836ZM270.805 54.7266H263.75V51.457H264.665V53.9531H270.805V54.7266ZM281.786 53.6133H272.247V52.8516H276.536V50.6016H273.372V45.2695H274.297V47.1562H279.711V45.2695H280.614V50.6016H277.438V52.8516H281.786V53.6133ZM279.711 49.8516V47.9062H274.297V49.8516H279.711ZM285.993 53.2266L288.887 50.1797C289.27 49.7773 289.561 49.4531 289.76 49.207C289.963 48.957 290.116 48.7168 290.217 48.4863C290.323 48.252 290.375 48.0078 290.375 47.7539C290.375 47.4727 290.301 47.2227 290.153 47.0039C290.004 46.7852 289.801 46.6152 289.543 46.4941C289.29 46.373 289.004 46.3125 288.688 46.3125C288.356 46.3125 288.065 46.3789 287.815 46.5117C287.565 46.6445 287.372 46.832 287.235 47.0742C287.102 47.3164 287.036 47.5938 287.036 47.9062H286.04C286.036 47.4141 286.149 46.9785 286.379 46.5996C286.614 46.2207 286.936 45.9258 287.346 45.7148C287.756 45.5039 288.215 45.3984 288.723 45.3984C289.227 45.3984 289.678 45.502 290.077 45.709C290.479 45.916 290.793 46.1992 291.02 46.5586C291.247 46.918 291.36 47.3164 291.36 47.7539C291.36 48.0781 291.301 48.3887 291.184 48.6855C291.067 48.9785 290.87 49.3047 290.592 49.6641C290.319 50.0195 289.926 50.4609 289.415 50.9883L287.469 52.9922V53.0625H291.512V54H286.004L285.993 53.2266ZM295.813 54.1172C295.309 54.1172 294.85 54.0215 294.436 53.8301C294.026 53.6348 293.698 53.3672 293.452 53.0273C293.209 52.6836 293.079 52.2969 293.059 51.8672H294.079C294.106 52.1172 294.2 52.3438 294.36 52.5469C294.52 52.7461 294.727 52.9043 294.981 53.0215C295.235 53.1348 295.512 53.1914 295.813 53.1914C296.172 53.1914 296.497 53.1094 296.786 52.9453C297.075 52.7812 297.301 52.5566 297.465 52.2715C297.629 51.9863 297.711 51.668 297.711 51.3164C297.711 50.9531 297.625 50.627 297.454 50.3379C297.286 50.0449 297.051 49.8164 296.75 49.6523C296.454 49.4844 296.118 49.3984 295.743 49.3945C294.989 49.3828 294.461 49.6367 294.161 50.1562H293.141L293.739 45.5156H298.333V46.4531H294.618L294.301 48.9375H294.383C294.575 48.7891 294.807 48.6699 295.081 48.5801C295.354 48.4902 295.637 48.4453 295.93 48.4453C296.461 48.4453 296.94 48.5684 297.366 48.8145C297.795 49.0566 298.131 49.3945 298.374 49.8281C298.62 50.2617 298.743 50.75 298.743 51.293C298.743 51.832 298.616 52.3164 298.362 52.7461C298.108 53.1758 297.758 53.5117 297.313 53.7539C296.868 53.9961 296.368 54.1172 295.813 54.1172ZM302 49.4531C301.641 49.4531 301.333 49.3691 301.075 49.2012C300.821 49.0332 300.627 48.7969 300.495 48.4922C300.366 48.1836 300.301 47.8242 300.301 47.4141C300.301 47.0156 300.368 46.6641 300.5 46.3594C300.637 46.0508 300.833 45.8125 301.086 45.6445C301.344 45.4727 301.649 45.3867 302 45.3867C302.364 45.3867 302.672 45.4727 302.926 45.6445C303.18 45.8125 303.372 46.0488 303.5 46.3535C303.633 46.6582 303.7 47.0117 303.7 47.4141C303.7 47.8203 303.633 48.1777 303.5 48.4863C303.368 48.791 303.172 49.0293 302.915 49.2012C302.661 49.3691 302.356 49.4531 302 49.4531ZM302 48.7266C302.282 48.7266 302.493 48.6113 302.633 48.3809C302.774 48.1465 302.844 47.8242 302.844 47.4141C302.844 47.0039 302.776 46.6836 302.639 46.4531C302.502 46.2227 302.29 46.1094 302 46.1133C301.727 46.1133 301.518 46.2305 301.374 46.4648C301.229 46.6953 301.157 47.0117 301.157 47.4141C301.157 47.8203 301.229 48.1406 301.374 48.375C301.518 48.6094 301.727 48.7266 302 48.7266ZM307.18 54.1172C306.821 54.1211 306.512 54.0391 306.254 53.8711C305.997 53.7031 305.801 53.4668 305.668 53.1621C305.54 52.8535 305.477 52.4961 305.481 52.0898C305.477 51.6875 305.541 51.332 305.674 51.0234C305.811 50.7148 306.008 50.4766 306.266 50.3086C306.524 50.1367 306.829 50.0508 307.18 50.0508C307.54 50.0508 307.846 50.1367 308.1 50.3086C308.354 50.4766 308.545 50.7148 308.674 51.0234C308.803 51.3281 308.868 51.6836 308.868 52.0898C308.868 52.4922 308.801 52.8477 308.668 53.1562C308.536 53.4648 308.342 53.7031 308.088 53.8711C307.834 54.0391 307.532 54.1211 307.18 54.1172ZM307.18 53.3906C307.454 53.3906 307.661 53.2754 307.801 53.0449C307.942 52.8145 308.012 52.4961 308.012 52.0898C308.012 51.6797 307.946 51.3594 307.813 51.1289C307.68 50.8945 307.477 50.7773 307.204 50.7773C306.922 50.7773 306.706 50.8945 306.553 51.1289C306.401 51.3594 306.325 51.6797 306.325 52.0898C306.325 52.4922 306.397 52.8105 306.541 53.0449C306.686 53.2754 306.899 53.3906 307.18 53.3906ZM306.969 45.5156H307.918L302.083 54H301.133L306.969 45.5156Z" fill="#1A1A1A"/>
<defs>
<linearGradient id="paint0_linear_1902_1211" x1="16" y1="50.5" x2="333" y2="50.5" gradientUnits="userSpaceOnUse">
<stop offset="0.110577" stop-color="#FF5148"/>
<stop offset="0.360577" stop-color="white"/>
<stop offset="0.495192" stop-color="white"/>
<stop offset="0.682692" stop-color="white"/>
<stop offset="0.956731" stop-color="#0097C5"/>
</linearGradient>
</defs>
</svg>
