<svg width="195" height="258" viewBox="0 0 195 258" fill="none" xmlns="http://www.w3.org/2000/svg">
<rect y="2" width="195" height="256" rx="10" fill="url(#paint0_linear_128_574)"/>
<path d="M26.6025 211.842H24.543V207.741H21.6855V206.053H24.543V201.878H26.6025V211.842ZM20.9248 212.269C22.1061 212.269 23.1266 212.395 23.9863 212.649C24.8522 212.896 25.514 213.261 25.9717 213.744C26.4294 214.22 26.6582 214.792 26.6582 215.46C26.6582 216.128 26.4294 216.7 25.9717 217.176C25.514 217.659 24.8522 218.024 23.9863 218.271C23.1266 218.525 22.1061 218.651 20.9248 218.651C19.7497 218.651 18.7323 218.525 17.8726 218.271C17.0129 218.024 16.3542 217.659 15.8965 217.176C15.445 216.7 15.2223 216.128 15.2285 215.46C15.2223 214.792 15.445 214.22 15.8965 213.744C16.3542 213.261 17.0129 212.896 17.8726 212.649C18.7323 212.395 19.7497 212.269 20.9248 212.269ZM20.9248 213.846C19.7497 213.846 18.8467 213.985 18.2158 214.263C17.585 214.535 17.2695 214.934 17.2695 215.46C17.2695 215.979 17.585 216.375 18.2158 216.647C18.8467 216.92 19.7497 217.056 20.9248 217.056C22.0999 217.056 23.006 216.92 23.6431 216.647C24.2801 216.375 24.5986 215.979 24.5986 215.46C24.5986 214.934 24.2801 214.535 23.6431 214.263C23.006 213.985 22.0999 213.846 20.9248 213.846ZM18.7168 204.754C18.7168 205.447 18.8683 206.121 19.1714 206.776C19.4744 207.426 19.9229 208.01 20.5166 208.53C21.1104 209.043 21.8278 209.442 22.6689 209.727L21.6299 211.359C20.7207 211.05 19.9321 210.596 19.2642 209.996C18.6024 209.389 18.0828 208.684 17.7056 207.88C17.3283 208.79 16.7902 209.584 16.0913 210.265C15.3924 210.939 14.5544 211.452 13.5771 211.805L12.501 210.172C13.373 209.875 14.1183 209.445 14.7368 208.882C15.3553 208.313 15.8223 207.673 16.1377 206.962C16.4593 206.251 16.6201 205.521 16.6201 204.772V204.643H13.1318V202.973H22.1865V204.643H18.7168V204.754ZM42.2256 205.997H44.5449V207.686H42.2256V211.675H40.1475V201.878H42.2256V205.997ZM36.752 211.99C37.89 211.99 38.8796 212.123 39.7207 212.389C40.568 212.649 41.2205 213.026 41.6782 213.521C42.1359 214.016 42.3678 214.606 42.374 215.293C42.3678 215.992 42.1359 216.592 41.6782 217.093C41.2205 217.594 40.5711 217.974 39.73 218.234C38.8888 218.5 37.8962 218.633 36.752 218.633C35.5954 218.633 34.5903 218.5 33.7368 218.234C32.8833 217.974 32.2246 217.594 31.7607 217.093C31.3031 216.592 31.0742 215.992 31.0742 215.293C31.0742 214.606 31.3031 214.016 31.7607 213.521C32.2246 213.026 32.8833 212.649 33.7368 212.389C34.5965 212.123 35.6016 211.99 36.752 211.99ZM36.752 213.642C35.5892 213.642 34.6893 213.784 34.0522 214.068C33.4214 214.353 33.109 214.761 33.1152 215.293C33.109 215.837 33.4214 216.255 34.0522 216.545C34.6893 216.836 35.5892 216.981 36.752 216.981C37.8962 216.981 38.7837 216.836 39.4146 216.545C40.0516 216.255 40.3701 215.837 40.3701 215.293C40.3701 214.761 40.0516 214.353 39.4146 214.068C38.7837 213.784 37.8962 213.642 36.752 213.642ZM37.1416 204.735H31.668V208.947C33.3503 208.941 34.6955 208.904 35.7036 208.836C36.7118 208.762 37.6921 208.626 38.6445 208.428L38.8486 210.079C37.8158 210.302 36.7427 210.447 35.6294 210.515C34.5161 210.583 32.9668 210.617 30.9814 210.617H29.627V203.065H37.1416V204.735ZM55.8818 217H53.2842L49.6846 206.925H52.208L54.5273 214.421H54.6387L56.9766 206.925H59.4814L55.8818 217ZM66.6807 209.801C66.6064 209.417 66.4147 209.114 66.1055 208.892C65.7962 208.669 65.3942 208.558 64.8994 208.558C64.5654 208.558 64.2624 208.61 63.9902 208.715C63.7243 208.814 63.5171 208.957 63.3687 209.142C63.2202 209.321 63.1491 209.522 63.1553 209.745C63.1367 210.283 63.613 210.667 64.584 210.896L66.291 211.248C67.2497 211.465 67.9609 211.795 68.4248 212.241C68.8887 212.686 69.1237 213.271 69.1299 213.994C69.1237 214.625 68.9443 215.185 68.5918 215.673C68.2393 216.156 67.7383 216.533 67.0889 216.805C66.4456 217.071 65.6911 217.204 64.8252 217.204C63.5573 217.204 62.5492 216.935 61.8008 216.397C61.0586 215.853 60.6257 215.095 60.502 214.124H62.9141C62.9883 214.551 63.1862 214.872 63.5078 215.089C63.8356 215.299 64.2747 215.404 64.8252 215.404C65.3942 215.404 65.8519 215.296 66.1982 215.08C66.5446 214.863 66.7178 214.569 66.7178 214.198C66.7178 213.908 66.5972 213.669 66.356 213.484C66.1209 213.292 65.7529 213.141 65.252 213.029L63.6377 212.677C62.7038 212.491 61.9956 212.16 61.5132 211.684C61.0369 211.208 60.7988 210.605 60.7988 209.875C60.7988 209.263 60.9658 208.725 61.2998 208.261C61.6338 207.791 62.1069 207.429 62.7192 207.175C63.3315 206.922 64.0459 206.795 64.8623 206.795C65.654 206.795 66.3436 206.919 66.9312 207.166C67.5249 207.407 67.9919 207.754 68.332 208.205C68.6722 208.657 68.8701 209.188 68.9258 209.801H66.6807ZM90.1709 213.048H83.4912V218.633H81.4502V213.048H74.8447V211.378H90.1709V213.048ZM88.2969 209.411H76.7188V202.731H88.2969V209.411ZM78.7412 207.797H86.2373V204.383H78.7412V207.797ZM106.61 216.573H91.2842V214.903H97.8525V211.025H99.8936V214.903H106.61V216.573ZM99.9492 204.123C99.9492 204.964 100.209 205.781 100.729 206.572C101.254 207.364 101.978 208.044 102.899 208.613C103.827 209.176 104.866 209.547 106.017 209.727L105.126 211.434C103.71 211.168 102.448 210.651 101.341 209.884C100.24 209.111 99.4111 208.177 98.8545 207.083C98.4834 207.806 97.9886 208.468 97.3701 209.068C96.7516 209.662 96.0373 210.163 95.2271 210.571C94.4168 210.973 93.5479 211.26 92.6201 211.434L91.7295 209.727C92.8675 209.547 93.8942 209.176 94.8096 208.613C95.7311 208.044 96.4517 207.364 96.9712 206.572C97.4907 205.774 97.7536 204.958 97.7598 204.123V202.898H99.9492V204.123ZM122.994 211.786H107.705V210.116H114.311V207.778H116.352V210.116H122.994V211.786ZM116.37 202.787C116.37 203.467 116.605 204.114 117.075 204.726C117.551 205.332 118.226 205.849 119.098 206.275C119.97 206.702 120.978 206.987 122.122 207.129L121.324 208.743C119.945 208.527 118.73 208.122 117.678 207.528C116.633 206.928 115.844 206.189 115.312 205.311C114.774 206.189 113.98 206.928 112.928 207.528C111.883 208.122 110.668 208.527 109.282 208.743L108.54 207.129C109.666 206.987 110.661 206.699 111.527 206.266C112.399 205.833 113.074 205.314 113.55 204.708C114.032 204.095 114.273 203.455 114.273 202.787V202.156H116.37V202.787ZM121.12 218.651H119.061V214.736H109.394V213.122H121.12V218.651Z" fill="#2C2C2C"/>
<path d="M21.1201 232.572H17.1348V235.87H16.3076V232.572H12.376V231.874H21.1201V232.572ZM19.9814 230.574H13.5039V226.857H19.9814V230.574ZM14.3311 229.908H19.1436V227.545H14.3311V229.908ZM30.6377 234.624H21.8936V233.926H25.8037V231.584H26.6309V233.926H30.6377V234.624ZM26.6523 227.706C26.6523 228.215 26.8278 228.703 27.1787 229.172C27.5332 229.641 27.9844 230.039 28.5322 230.365C29.0837 230.687 29.6423 230.896 30.208 230.993L29.832 231.691C29.3379 231.591 28.8527 231.417 28.3765 231.17C27.9002 230.923 27.4705 230.615 27.0874 230.247C26.7078 229.878 26.4178 229.471 26.2173 229.027C26.0168 229.471 25.7267 229.878 25.3472 230.247C24.9676 230.615 24.5397 230.923 24.0635 231.17C23.5908 231.417 23.1074 231.591 22.6133 231.691L22.2373 230.993C22.8031 230.896 23.3581 230.687 23.9023 230.365C24.4502 230.039 24.8978 229.643 25.2451 229.178C25.596 228.709 25.7715 228.218 25.7715 227.706V226.976H26.6523V227.706ZM40.1338 231.82H31.4004V231.122H35.332V229.65H36.1592V231.122H40.1338V231.82ZM36.1699 226.922C36.1699 227.326 36.3328 227.711 36.6587 228.077C36.9845 228.442 37.4089 228.75 37.9316 229C38.458 229.248 39.0059 229.41 39.5752 229.489L39.2314 230.166C38.7409 230.08 38.2664 229.94 37.8081 229.747C37.3498 229.55 36.9398 229.307 36.5781 229.017C36.2201 228.727 35.9443 228.403 35.751 228.044C35.5576 228.403 35.2801 228.727 34.9185 229.017C34.5568 229.307 34.145 229.55 33.6831 229.747C33.2212 229.94 32.7432 230.08 32.249 230.166L31.9268 229.489C32.4961 229.41 33.0422 229.248 33.5649 229C34.0877 228.75 34.5103 228.442 34.8325 228.077C35.1584 227.711 35.3213 227.326 35.3213 226.922V226.471H36.1699V226.922ZM39.0273 235.87H38.1787V233.432H32.3672V232.755H39.0273V235.87ZM51.585 232.014H50.7363V229.511H48.8135V228.812H50.7363V226.32H51.585V232.014ZM48.416 232.314C49.0785 232.314 49.6496 232.384 50.1294 232.524C50.6092 232.664 50.9762 232.866 51.2305 233.131C51.4883 233.396 51.6172 233.715 51.6172 234.087C51.6172 234.459 51.4883 234.778 51.2305 235.043C50.9762 235.312 50.6092 235.516 50.1294 235.655C49.6496 235.795 49.0785 235.867 48.416 235.87C47.7536 235.867 47.1825 235.795 46.7026 235.655C46.2228 235.516 45.854 235.312 45.5962 235.043C45.342 234.778 45.2148 234.459 45.2148 234.087C45.2148 233.715 45.342 233.396 45.5962 233.131C45.854 232.866 46.2228 232.664 46.7026 232.524C47.1825 232.384 47.7536 232.314 48.416 232.314ZM48.416 232.97C47.9326 232.97 47.5119 233.014 47.1538 233.104C46.7957 233.194 46.5218 233.322 46.332 233.491C46.1423 233.659 46.0492 233.858 46.0527 234.087C46.0492 234.312 46.1423 234.509 46.332 234.678C46.5218 234.842 46.7957 234.97 47.1538 235.059C47.5119 235.149 47.9326 235.193 48.416 235.193C48.8994 235.193 49.3184 235.149 49.6729 235.059C50.0309 234.97 50.3049 234.842 50.4946 234.678C50.6844 234.509 50.7793 234.312 50.7793 234.087C50.7793 233.858 50.6844 233.659 50.4946 233.491C50.3049 233.322 50.0309 233.194 49.6729 233.104C49.3184 233.014 48.8994 232.97 48.416 232.97ZM46.9873 228.071C46.9873 228.483 47.0858 228.882 47.2827 229.269C47.4797 229.652 47.7554 229.994 48.1099 230.295C48.4679 230.592 48.8779 230.821 49.3398 230.982L48.8994 231.659C48.3659 231.466 47.8968 231.179 47.4922 230.8C47.0911 230.42 46.7886 229.982 46.5845 229.484C46.3768 230.042 46.0599 230.537 45.6338 230.966C45.2113 231.392 44.7171 231.713 44.1514 231.928L43.7109 231.251C44.18 231.079 44.599 230.832 44.9678 230.51C45.3366 230.184 45.623 229.81 45.8271 229.387C46.0348 228.965 46.1387 228.53 46.1387 228.082V227.728H43.9795V227.019H49.125V227.728H46.9873V228.071ZM61.0488 235.87H60.2002V226.32H61.0488V235.87ZM56.6982 229.436C56.6982 229.958 56.8092 230.47 57.0312 230.972C57.2568 231.473 57.5648 231.919 57.9551 232.309C58.3454 232.696 58.7786 232.991 59.2549 233.195L58.7822 233.851C58.2308 233.604 57.7349 233.235 57.2944 232.744C56.854 232.254 56.5228 231.693 56.3008 231.063C56.0859 231.729 55.7601 232.323 55.3232 232.846C54.89 233.369 54.3958 233.761 53.8408 234.022L53.3682 233.367C53.8372 233.152 54.2616 232.843 54.6411 232.438C55.0243 232.03 55.325 231.564 55.5435 231.042C55.7619 230.519 55.8711 229.983 55.8711 229.436V228.673H53.626V227.985H55.8604V226.503H56.6982V227.985H58.9219V228.673H56.6982V229.436ZM70.5664 233.313H69.7285V226.331H70.5664V233.313ZM70.8672 235.666H64.4004V232.604H65.2383V234.957H70.8672V235.666ZM65.4102 226.997C65.8828 226.997 66.3089 227.097 66.6885 227.298C67.0716 227.495 67.3706 227.772 67.5854 228.13C67.8039 228.485 67.9131 228.888 67.9131 229.339C67.9131 229.797 67.8039 230.205 67.5854 230.563C67.3706 230.918 67.0716 231.195 66.6885 231.396C66.3089 231.593 65.8828 231.691 65.4102 231.691C64.9375 231.691 64.5096 231.593 64.1265 231.396C63.7469 231.195 63.4479 230.918 63.2295 230.563C63.0146 230.205 62.9072 229.797 62.9072 229.339C62.9072 228.888 63.0146 228.485 63.2295 228.13C63.4479 227.772 63.7469 227.495 64.1265 227.298C64.5096 227.097 64.9375 226.997 65.4102 226.997ZM65.4102 227.738C65.0915 227.738 64.8032 227.806 64.5454 227.942C64.2912 228.078 64.0907 228.268 63.9438 228.512C63.8006 228.755 63.7308 229.031 63.7344 229.339C63.7308 229.65 63.8006 229.93 63.9438 230.177C64.0907 230.42 64.2912 230.61 64.5454 230.746C64.8032 230.882 65.0915 230.95 65.4102 230.95C65.7217 230.95 66.0046 230.882 66.2588 230.746C66.5166 230.61 66.7189 230.42 66.8657 230.177C67.0125 229.93 67.0859 229.65 67.0859 229.339C67.0859 229.035 67.0125 228.761 66.8657 228.517C66.7189 228.274 66.5166 228.084 66.2588 227.948C66.0046 227.808 65.7217 227.738 65.4102 227.738ZM75.3145 227.019C75.8122 227.019 76.2544 227.113 76.6411 227.303C77.0314 227.493 77.3358 227.758 77.5542 228.098C77.7726 228.438 77.8818 228.827 77.8818 229.264C77.8818 229.701 77.7726 230.089 77.5542 230.429C77.3358 230.769 77.0314 231.034 76.6411 231.224C76.2544 231.414 75.8122 231.509 75.3145 231.509C74.8167 231.509 74.3709 231.414 73.9771 231.224C73.5868 231.034 73.2806 230.769 73.0586 230.429C72.8402 230.089 72.7327 229.701 72.7363 229.264C72.7327 228.827 72.8402 228.438 73.0586 228.098C73.2806 227.758 73.5868 227.493 73.9771 227.303C74.3709 227.113 74.8167 227.019 75.3145 227.019ZM75.3145 227.76C74.9779 227.76 74.6753 227.824 74.4067 227.953C74.1418 228.078 73.9341 228.256 73.7837 228.485C73.6333 228.71 73.5599 228.97 73.5635 229.264C73.5599 229.557 73.6333 229.819 73.7837 230.048C73.9341 230.273 74.1418 230.451 74.4067 230.58C74.6753 230.705 74.9779 230.768 75.3145 230.768C75.6475 230.768 75.9465 230.705 76.2114 230.58C76.4764 230.451 76.6823 230.273 76.8291 230.048C76.9795 229.819 77.0547 229.557 77.0547 229.264C77.0547 228.97 76.9795 228.71 76.8291 228.485C76.6823 228.256 76.4764 228.078 76.2114 227.953C75.9465 227.824 75.6475 227.76 75.3145 227.76ZM80.0195 235.892H79.1816V226.32H80.0195V235.892ZM72.2422 233.066C73.4811 233.066 74.6073 233.047 75.6206 233.007C76.6375 232.968 77.6133 232.88 78.5479 232.744L78.6123 233.367C77.6527 233.546 76.6733 233.661 75.6743 233.711C74.6789 233.761 73.5742 233.786 72.3604 233.786L72.2422 233.066ZM93.1572 231.777H84.4561V231.09H88.3877V229.93H85.5625V226.707H92.083V227.405H86.4004V229.231H92.1689V229.93H89.2256V231.09H93.1572V231.777ZM92.0938 235.945H91.2559V233.399H85.4229V232.712H92.0938V235.945ZM101.848 231.573H101.01V226.331H101.848V231.573ZM98.8076 229.371H95.2842V230.671C96.2725 230.664 97.096 230.642 97.7549 230.606C98.4173 230.567 99.1048 230.488 99.8174 230.37L99.9141 231.068C99.1693 231.187 98.4513 231.267 97.7603 231.31C97.0692 231.349 96.2295 231.373 95.2412 231.38H94.4678V228.705H97.9697V227.491H94.4463V226.793H98.8076V229.371ZM96.4873 233.195H101.01V232.057H101.848V235.741H95.6387V232.057H96.4873V233.195ZM101.01 235.054V233.872H96.4873V235.054H101.01ZM106.789 228.082C106.789 228.494 106.888 228.893 107.084 229.28C107.281 229.663 107.557 230.005 107.912 230.306C108.27 230.603 108.68 230.832 109.142 230.993L108.701 231.659C108.168 231.466 107.699 231.179 107.294 230.8C106.893 230.42 106.589 229.983 106.381 229.489C106.173 230.041 105.858 230.526 105.436 230.945C105.013 231.364 104.519 231.677 103.953 231.885L103.513 231.219C103.978 231.05 104.395 230.807 104.764 230.488C105.133 230.166 105.421 229.797 105.629 229.382C105.837 228.963 105.94 228.533 105.94 228.093V227.674H103.781V226.986H108.927V227.674H106.789V228.082ZM111.387 235.87H110.538V233.249H104.963V232.551H111.387V235.87ZM111.387 232.046H110.538V229.532H108.626V228.823H110.538V226.32H111.387V232.046ZM120.088 226.503C120.775 226.503 121.373 226.575 121.882 226.718C122.39 226.861 122.781 227.069 123.053 227.341C123.325 227.609 123.461 227.932 123.461 228.308C123.461 228.676 123.325 228.995 123.053 229.264C122.781 229.529 122.39 229.731 121.882 229.871C121.373 230.01 120.775 230.08 120.088 230.08C119.4 230.08 118.801 230.01 118.289 229.871C117.78 229.731 117.388 229.529 117.112 229.264C116.84 228.995 116.704 228.676 116.704 228.308C116.704 227.932 116.84 227.609 117.112 227.341C117.388 227.069 117.78 226.861 118.289 226.718C118.797 226.575 119.397 226.503 120.088 226.503ZM120.088 227.169C119.572 227.169 119.125 227.214 118.745 227.303C118.369 227.393 118.079 227.523 117.875 227.695C117.671 227.867 117.571 228.071 117.574 228.308C117.571 228.537 117.671 228.736 117.875 228.904C118.079 229.069 118.369 229.196 118.745 229.285C119.125 229.371 119.572 229.414 120.088 229.414C120.596 229.414 121.039 229.371 121.415 229.285C121.794 229.196 122.086 229.069 122.29 228.904C122.498 228.736 122.602 228.537 122.602 228.308C122.602 228.071 122.498 227.867 122.29 227.695C122.086 227.523 121.794 227.393 121.415 227.303C121.039 227.214 120.596 227.169 120.088 227.169ZM123.375 235.741H116.801V232.604H119.669V231.509H115.737V230.811H124.438V231.509H120.496V232.604H123.375V235.741ZM117.639 235.054H122.548V233.281H117.639V235.054ZM128.682 228.093C128.682 228.515 128.785 228.922 128.993 229.312C129.201 229.702 129.491 230.046 129.863 230.343C130.236 230.637 130.658 230.861 131.131 231.015L130.701 231.67C130.143 231.48 129.652 231.197 129.229 230.821C128.807 230.442 128.488 230 128.273 229.495C128.066 230.035 127.747 230.512 127.317 230.923C126.888 231.335 126.39 231.645 125.824 231.853L125.384 231.197C125.856 231.029 126.279 230.787 126.651 230.472C127.024 230.153 127.314 229.788 127.521 229.376C127.729 228.965 127.833 228.537 127.833 228.093V227.685H125.599V226.997H130.884V227.685H128.682V228.093ZM133.129 232.1H132.291V226.32H133.129V232.1ZM133.129 235.87H132.291V233.303H126.705V232.604H133.129V235.87ZM142.636 231.788H141.798V226.331H142.636V231.788ZM142.636 235.741H136.427V232.304H142.636V235.741ZM137.254 235.054H141.809V232.991H137.254V235.054ZM137.479 226.836C137.959 226.836 138.389 226.931 138.769 227.121C139.148 227.307 139.445 227.57 139.66 227.91C139.875 228.247 139.982 228.633 139.982 229.07C139.982 229.5 139.875 229.885 139.66 230.225C139.445 230.562 139.148 230.825 138.769 231.015C138.389 231.201 137.959 231.294 137.479 231.294C137 231.294 136.57 231.201 136.19 231.015C135.811 230.825 135.514 230.562 135.299 230.225C135.084 229.885 134.977 229.5 134.977 229.07C134.977 228.633 135.084 228.247 135.299 227.91C135.514 227.57 135.811 227.307 136.19 227.121C136.57 226.931 137 226.836 137.479 226.836ZM137.479 227.556C137.157 227.552 136.867 227.615 136.609 227.744C136.355 227.873 136.156 228.053 136.013 228.286C135.87 228.515 135.8 228.777 135.804 229.07C135.8 229.36 135.87 229.62 136.013 229.849C136.156 230.075 136.355 230.252 136.609 230.381C136.867 230.51 137.157 230.574 137.479 230.574C137.798 230.574 138.085 230.51 138.339 230.381C138.593 230.252 138.792 230.075 138.935 229.849C139.082 229.62 139.155 229.36 139.155 229.07C139.155 228.777 139.082 228.515 138.935 228.286C138.792 228.053 138.593 227.873 138.339 227.744C138.085 227.615 137.798 227.552 137.479 227.556Z" fill="#2C2C2C"/>
<path d="M164.786 173.35C165.235 173.351 165.68 173.448 166.095 173.636C166.51 173.823 166.888 174.099 167.206 174.446L167.208 174.448L167.737 175.021L167.994 175.299L168.251 175.02L168.772 174.454C169.092 174.107 169.473 173.834 169.89 173.648C170.306 173.463 170.752 173.368 171.201 173.369C171.651 173.37 172.097 173.467 172.513 173.655C172.929 173.843 173.308 174.118 173.626 174.467L173.627 174.469C174.278 175.173 174.648 176.129 174.65 177.13C174.653 178.13 174.288 179.088 173.642 179.797L168.177 185.709V185.71C168.088 185.806 167.956 185.806 167.867 185.71V185.709L162.375 179.763C161.014 178.289 161.008 175.897 162.36 174.433C162.68 174.087 163.06 173.814 163.476 173.629C163.892 173.444 164.337 173.348 164.786 173.35Z" fill="#F7F8FA" fill-opacity="0.38" stroke="#F7F8FA" stroke-width="0.7"/>
<g filter="url(#filter0_d_128_574)">
<path d="M132 64V2H175V64L153.5 56.5L132 64Z" fill="#FF5148"/>
</g>
<path d="M142.862 19V10.5138H144.151V14.1975H148.373V10.5138H149.666V19H148.373V15.3039H144.151V19H142.862ZM158.769 14.7569C158.769 17.471 157.14 19.116 154.944 19.116C152.736 19.116 151.12 17.4669 151.12 14.7569C151.12 12.0428 152.736 10.3978 154.944 10.3978C157.14 10.3978 158.769 12.0428 158.769 14.7569ZM152.4 14.7569C152.4 16.8204 153.486 17.9392 154.944 17.9392C156.403 17.9392 157.488 16.8204 157.488 14.7569C157.488 12.6934 156.403 11.5746 154.944 11.5746C153.486 11.5746 152.4 12.6934 152.4 14.7569ZM159.447 11.6243V10.5138H166.023V11.6243H163.384V19H162.095V11.6243H159.447Z" fill="#F7B0B0"/>
<path d="M146.372 42.9945V40.481L155.424 26.4917H159.29V40.3608H162.074V42.9945H159.29V47H156.316V42.9945H146.372ZM149.636 40.3608H156.336V30.1968H156.115L149.636 40.2006V40.3608Z" fill="white"/>
<rect x="12.25" y="166.25" width="74.5" height="23.5" rx="11.75" fill="white" fill-opacity="0.3"/>
<rect x="12.25" y="166.25" width="74.5" height="23.5" rx="11.75" stroke="white" stroke-width="0.5"/>
<path d="M31.9986 180.753V181.66H22.3895V180.753H26.5953V178.25H27.6892V180.753H31.9986ZM22.7127 177.517C24.7348 177.185 26.5414 175.627 26.5497 173.957V173.17H27.7224V173.957C27.7224 175.627 29.5497 177.185 31.5801 177.517L31.0912 178.441C29.3923 178.105 27.8301 177.052 27.1381 175.61C26.442 177.044 24.8964 178.109 23.2017 178.441L22.7127 177.517ZM42.349 177.715V178.623H32.7606V177.715H36.9913V176.174H38.0852V177.715H42.349ZM33.3076 175.876C35.3214 175.61 36.9705 174.43 36.9705 173.104V172.66H38.0976V173.104C38.0976 174.446 39.7426 175.61 41.773 175.876L41.3297 176.754C39.6681 176.485 38.2012 175.673 37.5341 174.517C36.8628 175.677 35.396 176.485 33.7178 176.754L33.3076 175.876ZM33.8214 180.434V179.555H41.1556V182.994H40.0368V180.434H33.8214ZM48.9784 173.617V174.268C48.9701 175.151 48.9701 176.506 48.6759 178.383L47.5737 178.296C47.843 176.617 47.8637 175.391 47.8679 174.517H43.6041V173.617H48.9784ZM43.0281 179.829C43.6828 179.825 44.4162 179.816 45.1787 179.8V176.622H46.2767V179.767C47.3914 179.721 48.535 179.646 49.5833 179.518L49.6455 180.351C47.4577 180.703 45.017 180.749 43.1524 180.74L43.0281 179.829ZM50.1883 182.994V172.494H51.303V176.829H52.9148V177.778H51.303V182.994H50.1883ZM66.0043 177.682V178.581H56.4325V177.682H60.6631V176.526H57.6258V172.921H64.8358V173.816H58.7363V175.61H64.9311V176.526H61.7695V177.682H66.0043ZM57.4932 180.401V179.506H64.8399V183.057H63.7419V180.401H57.4932ZM75.5135 172.503V178.296H74.3989V172.503H75.5135ZM67.334 173.899V173H72.1572V175.93H68.4403V177.169C70.2801 177.16 71.6268 177.123 73.2221 176.854L73.363 177.761C71.6475 178.039 70.2179 178.088 68.229 178.093H67.3547V175.068H71.0549V173.899H67.334ZM68.6143 182.862V178.793H69.729V179.928H74.4072V178.793H75.5135V182.862H68.6143ZM69.729 181.959H74.4072V180.802H69.729V181.959Z" fill="#2C2C2C"/>
<defs>
<filter id="filter0_d_128_574" x="128" y="0" width="51" height="70" filterUnits="userSpaceOnUse" color-interpolation-filters="sRGB">
<feFlood flood-opacity="0" result="BackgroundImageFix"/>
<feColorMatrix in="SourceAlpha" type="matrix" values="0 0 0 0 0 0 0 0 0 0 0 0 0 0 0 0 0 0 127 0" result="hardAlpha"/>
<feOffset dy="2"/>
<feGaussianBlur stdDeviation="2"/>
<feComposite in2="hardAlpha" operator="out"/>
<feColorMatrix type="matrix" values="0 0 0 0 0 0 0 0 0 0 0 0 0 0 0 0 0 0 0.15 0"/>
<feBlend mode="normal" in2="BackgroundImageFix" result="effect1_dropShadow_128_574"/>
<feBlend mode="normal" in="SourceGraphic" in2="effect1_dropShadow_128_574" result="shape"/>
</filter>
<linearGradient id="paint0_linear_128_574" x1="97.5" y1="2" x2="97.5" y2="258" gradientUnits="userSpaceOnUse">
<stop stop-color="#FBEAAD"/>
<stop offset="1" stop-color="#F6E298"/>
</linearGradient>
</defs>
</svg>
