<svg width="190" height="127" viewBox="0 0 190 127" fill="none" xmlns="http://www.w3.org/2000/svg">
<path d="M48.3836 68.1704C49.3642 69.8322 49.0794 72.3082 48.1549 74.0229C47.2305 75.7375 45.8034 76.8658 44.4182 77.9444C43.067 78.9966 41.7158 80.0488 40.3646 81.1009C38.8858 82.2524 38.6236 83.1649 38.1374 85.118C39.5092 85.7247 41.3075 84.4545 42.648 84.0262C44.2608 83.5108 45.8676 82.9639 47.4701 82.3974C50.6755 81.2642 53.8629 80.0486 57.0498 78.8324C57.6214 80.7105 58.193 82.5887 58.7646 84.4669C57.5038 85.3505 55.9571 87.8284 57.8005 89.2921C58.1667 89.5828 58.6019 89.6951 58.9806 89.9577C60.0181 90.6772 60.408 92.3125 60.703 93.7854C60.9566 95.0512 61.2102 96.3171 61.4638 97.583C61.8336 99.4285 61.5963 103.218 59.9476 104.041C59.1251 104.451 58.1757 104.203 57.4046 103.651C56.6335 103.098 56.0059 102.271 55.3902 101.456C54.4761 100.245 53.5408 98.4722 52.4478 97.5612C51.009 96.3618 48.9083 97.3202 47.3715 97.6878C44.1331 98.4626 40.8919 99.5533 37.5982 99.5456C34.5202 99.5384 31.728 100.343 29.0476 97.7331C23.7994 92.6238 25.1525 82.9764 27.817 76.4632C29.436 72.5056 31.6349 69.0022 33.819 65.5273" fill="white"/>
<path d="M48.1029 68.3355C48.777 69.5102 48.7894 70.9621 48.4793 72.2505C48.1442 73.6424 47.3716 74.8413 46.3719 75.852C45.3181 76.9174 44.0822 77.7985 42.903 78.7167C42.2109 79.2557 41.5188 79.7946 40.8267 80.3335C40.2877 80.7532 39.7232 81.1544 39.2682 81.6688C38.4274 82.6194 38.1237 83.8305 37.8239 85.0328C37.7775 85.2191 37.8849 85.3637 38.0508 85.4324C39.0425 85.8433 40.1309 85.4407 41.0577 85.0444C41.5395 84.8383 42.0102 84.6026 42.5022 84.4209C43.1399 84.1854 43.798 83.9974 44.4431 83.7825C47.178 82.871 49.8875 81.8853 52.5865 80.8729C54.1051 80.3033 55.6206 79.7251 57.1359 79.1468L56.7363 78.9199C57.3079 80.7981 57.8795 82.6762 58.4511 84.5544L58.6004 84.1876C57.6387 84.8759 56.8331 85.988 56.6605 87.1758C56.5748 87.7656 56.6656 88.3754 56.991 88.8828C57.1625 89.1503 57.3833 89.3824 57.6363 89.5737C58.0004 89.8492 58.4464 89.9759 58.8163 90.2394C59.3623 90.6283 59.6725 91.2819 59.8879 91.8975C60.154 92.6579 60.3053 93.4524 60.4631 94.2404C60.6513 95.1796 60.8395 96.1188 61.0276 97.058C61.151 97.6738 61.2581 98.2718 61.2818 98.9002C61.3514 100.741 60.8544 105.224 57.9217 103.596C57.152 103.168 56.5654 102.454 56.0333 101.769C55.5477 101.144 55.1054 100.493 54.6686 99.8334C53.9001 98.673 53.0148 97.1284 51.5667 96.7575C50.1272 96.3886 48.6629 97.0374 47.2849 97.3758C45.447 97.827 43.6252 98.3529 41.7718 98.7391C40.8639 98.9282 39.9479 99.0817 39.0234 99.1607C38.1729 99.2333 37.3204 99.2122 36.4684 99.2485C35.0718 99.3081 33.6383 99.4581 32.2594 99.1516C29.5003 98.5383 27.6174 95.9708 26.7016 93.4381C25.7758 90.8779 25.6478 88.0902 25.9018 85.4007C26.1629 82.6367 26.8473 79.9032 27.8309 77.3098C29.0843 74.0049 30.8564 70.9208 32.7075 67.9205C33.1673 67.1753 33.6332 66.4339 34.0992 65.6925C34.3224 65.3375 33.7604 65.0111 33.5382 65.3646C31.5543 68.521 29.5738 71.6947 28.0483 75.1048C26.8693 77.7406 25.9912 80.5048 25.5194 83.3563C25.061 86.1266 24.9525 89.0008 25.5475 91.7598C26.1157 94.3944 27.4295 97.0194 29.6325 98.6564C30.8352 99.5501 32.2652 99.9254 33.7463 99.9757C34.4688 100 35.1914 99.9603 35.9128 99.9245C36.7123 99.8848 37.5122 99.8912 38.3114 99.8566C40.2598 99.7723 42.1757 99.3472 44.06 98.8697C45.7459 98.4425 47.423 97.9825 49.1063 97.5474C49.8127 97.3648 50.5814 97.2022 51.3077 97.3634C52.0564 97.5295 52.5749 98.0759 53.0408 98.6524C54.0784 99.9367 54.8673 101.398 55.9276 102.67C56.9087 103.847 58.5059 105.138 60.1113 104.322C61.0816 103.829 61.4984 102.622 61.7094 101.629C61.9603 100.448 62.0131 99.2001 61.8574 98.0031C61.7497 97.1754 61.548 96.3558 61.3841 95.5377C61.2042 94.6395 61.0421 93.7355 60.8322 92.8438C60.6611 92.1174 60.4463 91.3805 60.0742 90.7286C59.6942 90.0628 59.1789 89.6675 58.5029 89.3336C57.8729 89.0223 57.3527 88.5188 57.2832 87.7874C57.2247 87.1716 57.4579 86.5606 57.7694 86.0407C58.0657 85.546 58.4575 85.0855 58.9283 84.7486C59.0441 84.6657 59.122 84.5279 59.0776 84.3817C58.506 82.5035 57.9344 80.6254 57.3628 78.7472C57.3153 78.5914 57.1312 78.4562 56.9632 78.5203C54.3224 79.5281 51.6813 80.5355 49.0237 81.4981C47.6988 81.978 46.3697 82.4467 45.0351 82.899C43.8728 83.2928 42.6783 83.6182 41.5555 84.1169C40.5608 84.5586 39.3267 85.263 38.2235 84.8059L38.4504 85.2056C38.7198 84.1249 38.9692 82.9856 39.7276 82.1282C40.2098 81.583 40.8138 81.1606 41.3849 80.7159C42.077 80.177 42.7691 79.6381 43.4612 79.0992C45.7687 77.3023 48.3175 75.5138 49.0822 72.518C49.4606 71.0355 49.4413 69.3623 48.6638 68.0076C48.4557 67.645 47.8942 67.9719 48.1029 68.3355Z" fill="black"/>
<path d="M48.1979 82.1384C48.2999 82.6441 48.4621 83.1941 48.6376 83.8554C49.2678 86.2302 49.6913 88.6976 49.8984 91.1937C48.7304 91.991 47.4194 93.0474 47.2779 94.7444C47.2108 95.5477 47.3769 96.5686 47.6589 97.6146C49.1622 97.2113 51.0967 96.4352 52.4477 97.5613C53.5406 98.4723 54.4759 100.245 55.3901 101.456C56.0058 102.271 56.6333 103.098 57.4044 103.651C58.1755 104.203 59.1249 104.451 59.9474 104.041C61.5961 103.218 61.8334 99.4287 61.4637 97.5831C61.2101 96.3172 60.9565 95.0514 60.7028 93.7855C60.4078 92.3126 60.0179 90.6773 58.9804 89.9579C58.6017 89.6952 58.1665 89.5829 57.8004 89.2922C55.9569 87.8286 57.5036 85.3506 58.7644 84.467C58.1929 82.5888 57.6213 80.7107 57.0497 78.8325C54.1086 79.9549 51.1595 81.0791 48.1979 82.1384Z" fill="white"/>
<path d="M47.8852 82.2252C48.1831 83.6613 48.6315 85.0612 48.9172 86.5023C49.2247 88.0529 49.4412 89.6191 49.5741 91.1941L49.735 90.9136C48.7622 91.5803 47.7782 92.3588 47.2847 93.463C46.6835 94.8081 46.9825 96.3319 47.3462 97.7013C47.3913 97.8714 47.5773 97.9739 47.7458 97.9282C48.9306 97.6068 50.2802 97.0381 51.5149 97.4175C52.1312 97.6068 52.5808 98.0935 52.98 98.5766C53.4366 99.1291 53.8267 99.7351 54.2215 100.332C54.9998 101.509 55.8237 102.783 56.9233 103.687C57.8786 104.472 59.3026 104.964 60.3962 104.14C61.1582 103.566 61.5067 102.563 61.7018 101.666C61.9284 100.624 61.9914 99.5318 61.9071 98.4692C61.8645 97.9327 61.7602 97.4117 61.6546 96.8847C61.4828 96.0271 61.3111 95.1696 61.1392 94.3121C60.8825 93.0304 60.6773 91.6184 59.9386 90.5066C59.755 90.2303 59.5381 89.9797 59.2759 89.7757C58.9816 89.5469 58.6436 89.4155 58.3187 89.2394C57.7439 88.9278 57.3119 88.3813 57.2789 87.7123C57.2227 86.5731 58.0325 85.3895 58.9288 84.7479C59.0447 84.665 59.1226 84.5272 59.0781 84.3811C58.5065 82.5029 57.9349 80.6247 57.3633 78.7466C57.3159 78.5907 57.1317 78.4556 56.9637 78.5197C54.0211 79.6427 51.0775 80.764 48.112 81.8256C47.7212 81.9655 47.8897 82.5935 48.2847 82.4521C51.2502 81.3905 54.1938 80.2692 57.1365 79.1462L56.7369 78.9193C57.3085 80.7975 57.8801 82.6756 58.4517 84.5538L58.6009 84.187C56.9681 85.3556 55.6632 88.08 57.6369 89.5731C58.183 89.9863 58.8485 90.1272 59.2799 90.6955C59.6592 91.195 59.8767 91.804 60.0473 92.4008C60.476 93.9009 60.7097 95.4678 61.0159 96.9961C61.2288 98.0591 61.3382 99.0854 61.2603 100.172C61.1896 101.157 61.0158 102.232 60.4834 103.083C60.2474 103.461 59.9275 103.754 59.4886 103.868C58.7957 104.048 58.078 103.748 57.5263 103.339C56.9072 102.881 56.4113 102.261 55.9458 101.655C55.5248 101.106 55.1356 100.538 54.7542 99.9614C53.9961 98.8148 53.1486 97.295 51.7727 96.8188C50.3987 96.3432 48.8996 96.9419 47.573 97.3018L47.9726 97.5286C47.6522 96.322 47.3221 94.8971 47.8828 93.7101C48.3389 92.7445 49.202 92.0646 50.0628 91.4746C50.1528 91.4129 50.2336 91.3114 50.2237 91.1941C50.0894 89.6017 49.8732 88.0159 49.5668 86.4473C49.2774 84.9657 48.8177 83.5279 48.5116 82.0525C48.4267 81.6434 47.8004 81.8165 47.8852 82.2252Z" fill="black"/>
<path d="M52.7717 80.4561C54.1656 85.3702 55.5595 90.2842 56.9534 95.1983C57.2987 96.4156 57.6221 97.8757 57.0299 98.9222C56.5563 99.7591 55.8976 100.63 55.4598 101.548C56.0533 102.333 56.6621 103.119 57.4041 103.651C58.1752 104.203 59.1246 104.451 59.9471 104.041C61.5958 103.218 61.833 99.4287 61.4633 97.5831C61.2097 96.3172 60.9561 95.0513 60.7025 93.7855C60.4074 92.3126 60.0175 90.6773 58.98 89.9579C58.6014 89.6952 58.1662 89.5829 57.8 89.2922C55.9566 87.8286 57.5033 85.3506 58.7641 84.467C58.1925 82.5888 57.6209 80.7107 57.0493 78.8325C55.6255 79.3759 54.1998 79.9195 52.7717 80.4561Z" fill="black"/>
<path d="M52.4586 80.5429C53.2812 83.443 54.1039 86.3431 54.9265 89.2432C55.3321 90.6731 55.7377 92.103 56.1433 93.5329C56.504 94.8046 57.0275 96.1424 57.0332 97.4801C57.0363 98.2176 56.7659 98.7588 56.3809 99.3693C55.9632 100.031 55.5226 100.679 55.1794 101.385C55.1323 101.482 55.1078 101.618 55.1794 101.713C55.8549 102.605 56.56 103.561 57.5486 104.13C58.3784 104.607 59.4706 104.774 60.3041 104.208C61.5434 103.365 61.8183 101.506 61.9121 100.132C62.0474 98.1508 61.5248 96.2398 61.1385 94.3121C60.9312 93.2775 60.7464 92.2253 60.3291 91.2498C60.1526 90.8371 59.9311 90.4447 59.6321 90.1074C59.2908 89.7224 58.8597 89.5174 58.4101 89.2871C57.4725 88.807 57.089 87.9018 57.3839 86.8975C57.6302 86.0587 58.218 85.2562 58.9281 84.7479C59.044 84.665 59.1219 84.5273 59.0774 84.3811C58.5058 82.5029 57.9343 80.6247 57.3626 78.7466C57.3152 78.5907 57.1311 78.4556 56.963 78.5197C55.5382 79.0635 54.113 79.6066 52.6854 80.1433C52.2977 80.2891 52.4657 80.9173 52.8582 80.7698C54.2858 80.2331 55.7109 79.69 57.1358 79.1462L56.7362 78.9193C57.3078 80.7975 57.8794 82.6757 58.451 84.5538L58.6003 84.187C57.4137 85.0362 56.3435 86.6513 56.6905 88.1684C56.7797 88.5584 56.9793 88.9136 57.2421 89.2126C57.5789 89.5958 58.0084 89.8027 58.4543 90.0295C59.3186 90.4693 59.7187 91.3244 59.9917 92.2153C60.3102 93.2546 60.483 94.3395 60.6962 95.4036C60.8944 96.3933 61.1638 97.3926 61.251 98.4001C61.3763 99.846 61.3013 101.545 60.6128 102.856C60.1936 103.653 59.473 104.093 58.5493 103.85C57.3138 103.525 56.4714 102.351 55.7404 101.385V101.713C56.0588 101.058 56.4609 100.453 56.8513 99.8398C57.1794 99.3249 57.5143 98.8162 57.6218 98.2045C57.8483 96.9166 57.4086 95.6122 57.0612 94.3873C56.2157 91.4067 55.3702 88.426 54.5247 85.4453C54.0448 83.7536 53.565 82.0619 53.0851 80.3702C52.9712 79.9686 52.3441 80.1393 52.4586 80.5429Z" fill="black"/>
<path d="M38.4101 62.4629C40.7864 62.8541 43.1628 63.2453 45.5391 63.6365C47.0465 63.8846 48.5896 64.1467 49.9391 65.049C55.8104 68.9745 50.0075 79.5537 48.2533 84.7842C43.8911 97.7906 41.7617 111.831 39.6622 125.744C38.1089 125.532 36.5556 125.32 35.0023 125.109C34.9775 123.256 33.9902 120.339 32.1345 121.776C31.7658 122.062 31.4879 122.509 31.1328 122.822C30.16 123.679 28.8572 123.371 27.7099 123.029C26.7237 122.736 25.7375 122.442 24.7514 122.149C23.3136 121.721 20.8213 119.7 21.0177 117.43C21.1157 116.298 21.724 115.324 22.4591 114.695C23.1942 114.066 24.0518 113.729 24.8958 113.399C26.1488 112.91 27.7978 112.657 28.9278 111.824C30.4153 110.729 30.727 107.878 31.1839 105.947C31.8064 103.316 32.429 100.684 33.0516 98.0526C34.7465 90.8886 35.8646 83.097 38.5637 76.432" fill="white"/>
<path d="M38.3233 62.7752C39.7983 63.018 41.2732 63.2608 42.7482 63.5036C44.1232 63.7299 45.5118 63.9175 46.8755 64.206C48.8715 64.6284 50.7458 65.5696 51.6195 67.503C52.3064 69.0229 52.2707 70.8045 52.0284 72.4208C51.7389 74.3521 51.1466 76.2307 50.4846 78.0629C49.858 79.7969 49.1427 81.4962 48.4798 83.2161C47.6395 85.3964 46.9712 87.6467 46.3261 89.891C44.7502 95.3728 43.5201 100.949 42.4672 106.553C41.4061 112.201 40.5251 117.881 39.6649 123.563C39.5592 124.261 39.4538 124.959 39.3485 125.656L39.7481 125.43C38.1948 125.218 36.6415 125.006 35.0882 124.794L35.3266 125.108C35.3106 124.288 35.1611 123.449 34.8519 122.688C34.5917 122.047 34.1784 121.339 33.4737 121.124C32.5984 120.856 31.8541 121.531 31.3299 122.138C30.9399 122.59 30.5296 122.941 29.9194 123.029C29.401 123.104 28.8655 123.001 28.3641 122.874C27.7352 122.714 27.1157 122.513 26.494 122.328C25.9062 122.153 25.308 121.997 24.7275 121.799C23.955 121.536 23.2502 121.007 22.6793 120.435C22.02 119.774 21.4465 118.927 21.3456 117.977C21.2312 116.899 21.7517 115.811 22.5186 115.078C24.1913 113.479 26.7047 113.482 28.6448 112.39C30.3382 111.437 30.7852 109.395 31.1559 107.633C32.1972 102.685 33.4892 97.7938 34.5257 92.8438C35.5552 87.9265 36.5306 82.9648 38.2271 78.2235C38.4322 77.6505 38.6488 77.0817 38.8764 76.5173C39.0328 76.1297 38.4046 75.9612 38.25 76.3446C36.3678 81.0102 35.3055 85.9555 34.277 90.8642C33.7546 93.3571 33.2381 95.8508 32.6517 98.3295C32.0338 100.941 31.3785 103.547 30.7999 106.168C30.5924 107.107 30.4284 108.057 30.1655 108.984C29.9236 109.836 29.6042 110.758 28.9464 111.384C28.1816 112.112 27.0296 112.384 26.0477 112.678C24.9911 112.994 23.9045 113.358 22.9582 113.936C21.1264 115.053 20.1261 117.281 21.0701 119.305C21.4647 120.15 22.1208 120.877 22.849 121.451C23.5514 122.005 24.286 122.348 25.1379 122.602C25.8084 122.801 26.479 123.001 27.1496 123.201C27.6847 123.36 28.2198 123.533 28.7718 123.625C29.898 123.812 30.9115 123.596 31.686 122.717C32.1285 122.214 32.8476 121.332 33.5756 121.901C34.1577 122.355 34.398 123.227 34.542 123.915C34.6243 124.308 34.6691 124.706 34.6769 125.108C34.6794 125.235 34.775 125.402 34.9154 125.421C36.4687 125.633 38.022 125.844 39.5753 126.056C39.7324 126.077 39.9461 126.02 39.9749 125.829C40.8477 120.045 41.722 114.261 42.7653 108.505C43.7981 102.807 44.9958 97.1335 46.5345 91.5489C47.2265 89.0372 47.9477 86.5128 48.8498 84.0673C49.4713 82.3825 50.1781 80.7304 50.8105 79.0497C51.5157 77.1757 52.163 75.2634 52.536 73.2923C52.8598 71.581 53.0075 69.7519 52.5109 68.0577C51.9864 66.2689 50.7012 64.9037 48.9939 64.1738C47.7659 63.6489 46.4417 63.4566 45.1333 63.2412C43.6583 62.9984 42.1833 62.7556 40.7084 62.5128C39.9709 62.3914 39.2334 62.27 38.4959 62.1486C38.0869 62.0813 37.9111 62.7073 38.3233 62.7752Z" fill="black"/>
<path d="M41.4781 114.071C41.0839 113.955 40.6314 113.887 40.0964 113.783C38.1751 113.409 36.2856 112.755 34.4762 111.841C34.4679 110.134 34.3477 108.144 33.248 107.198C32.7274 106.75 31.9498 106.47 31.1015 106.31C30.6845 108.219 30.3245 110.795 28.9278 111.824C27.7978 112.656 26.1488 112.91 24.8958 113.399C24.0518 113.728 23.1942 114.066 22.4591 114.695C21.724 115.323 21.1157 116.297 21.0177 117.429C20.8213 119.699 23.3137 121.72 24.7514 122.148C25.7376 122.442 26.7237 122.735 27.7099 123.029C28.8573 123.37 30.16 123.678 31.1328 122.821C31.4879 122.508 31.7659 122.061 32.1345 121.776C33.9902 120.338 34.9776 123.255 35.0023 125.108C36.5556 125.32 38.1089 125.531 39.6623 125.743C40.2491 121.854 40.8385 117.955 41.4781 114.071Z" fill="white"/>
<path d="M41.5637 113.758C41.0369 113.608 40.4918 113.535 39.9561 113.424C39.3516 113.299 38.7528 113.148 38.1617 112.97C36.9474 112.605 35.7721 112.129 34.6394 111.56L34.8003 111.841C34.7926 110.575 34.7582 109.231 34.2434 108.053C33.6901 106.787 32.4788 106.249 31.1871 105.997C31.0223 105.965 30.827 106.042 30.7875 106.224C30.5261 107.429 30.3301 108.661 29.8937 109.82C29.7029 110.326 29.4543 110.838 29.0864 111.241C28.6821 111.684 28.1227 111.964 27.5716 112.18C26.3133 112.674 24.9954 112.957 23.759 113.518C22.5256 114.078 21.4916 114.947 20.9761 116.225C20.0375 118.553 21.6487 120.812 23.6084 121.98C24.0558 122.246 24.5221 122.419 25.0193 122.567C25.8083 122.802 26.5972 123.037 27.3861 123.272C28.5907 123.63 30.0185 124.033 31.1398 123.227C31.8447 122.721 32.7624 121.002 33.741 122.058C34.4483 122.822 34.6573 124.107 34.6767 125.108C34.6792 125.235 34.7749 125.402 34.9152 125.421C36.4685 125.633 38.0218 125.845 39.5752 126.056C39.7322 126.078 39.9459 126.02 39.9748 125.829C40.5623 121.936 41.1512 118.043 41.7906 114.157C41.8579 113.748 41.232 113.573 41.1642 113.985C40.5248 117.87 39.9358 121.763 39.3483 125.657L39.7479 125.43C38.1946 125.218 36.6413 125.006 35.0879 124.795L35.3264 125.108C35.3071 124.116 35.1006 123.065 34.6194 122.19C34.2196 121.462 33.4945 120.853 32.6203 121.142C32.0417 121.333 31.6494 121.773 31.261 122.218C30.8042 122.742 30.2866 123.045 29.5792 123.05C28.9078 123.055 28.255 122.852 27.618 122.663C26.8093 122.422 26.0007 122.181 25.1921 121.94C24.1806 121.639 23.3225 121.106 22.588 120.342C21.8028 119.526 21.1922 118.436 21.3607 117.269C21.7982 114.241 25.2071 113.741 27.5599 112.876C28.2102 112.637 28.8741 112.341 29.3863 111.862C29.8185 111.459 30.1239 110.932 30.3572 110.394C30.9084 109.123 31.1222 107.742 31.4141 106.397L31.0145 106.623C31.6322 106.744 32.2561 106.914 32.7894 107.26C33.229 107.545 33.5273 107.977 33.7141 108.462C34.1248 109.526 34.1438 110.714 34.1507 111.841C34.1513 111.95 34.2107 112.071 34.3116 112.121C35.4586 112.697 36.6501 113.186 37.8777 113.563C38.4682 113.744 39.0665 113.899 39.6706 114.027C40.2432 114.148 40.8274 114.224 41.3911 114.384C41.794 114.499 41.9659 113.872 41.5637 113.758Z" fill="black"/>
<path d="M40.5219 120.091C36.5047 119.421 32.4875 118.75 28.4703 118.08C27.4751 117.914 26.3235 117.611 25.8783 116.449C25.5223 115.52 25.2283 114.363 24.7999 113.437C23.987 113.755 23.1664 114.09 22.4591 114.695C21.724 115.324 21.1157 116.298 21.0177 117.43C20.8213 119.699 23.3137 121.721 24.7514 122.149C25.7376 122.442 26.7237 122.736 27.7099 123.029C28.8573 123.371 30.16 123.679 31.1328 122.822C31.4879 122.509 31.7659 122.062 32.1345 121.776C33.9902 120.339 34.9776 123.256 35.0023 125.109C36.5556 125.32 38.1089 125.532 39.6623 125.744C39.9464 123.861 40.2313 121.976 40.5219 120.091Z" fill="black"/>
<path d="M40.6075 119.777C37.9841 119.34 35.3606 118.902 32.7371 118.464C31.4254 118.245 30.1136 118.026 28.8019 117.807C27.9549 117.666 26.9505 117.512 26.4106 116.762C26.0736 116.294 25.9403 115.656 25.7639 115.115C25.5606 114.491 25.3513 113.87 25.0797 113.272C25.0259 113.154 24.8353 113.075 24.7128 113.123C23.7504 113.5 22.7838 113.913 22.0317 114.645C21.3641 115.295 20.8806 116.165 20.735 117.089C20.4648 118.802 21.4878 120.356 22.7748 121.393C23.3249 121.836 23.935 122.225 24.6106 122.445C25.7242 122.807 26.8601 123.138 27.9897 123.447C28.8631 123.686 29.8276 123.85 30.6891 123.48C31.1564 123.279 31.4968 122.938 31.8233 122.558C32.095 122.242 32.3865 121.908 32.793 121.768C33.4716 121.535 33.9191 122.203 34.1683 122.735C34.5102 123.464 34.6611 124.306 34.6767 125.108C34.6792 125.235 34.7749 125.402 34.9152 125.421C36.4685 125.633 38.0218 125.845 39.5751 126.056C39.7322 126.078 39.9459 126.02 39.9747 125.829C40.2591 123.945 40.544 122.061 40.8344 120.177C40.8975 119.768 40.2715 119.592 40.2079 120.004C39.9175 121.888 39.6327 123.772 39.3483 125.657L39.7479 125.43C38.1946 125.218 36.6413 125.006 35.0879 124.795L35.3264 125.108C35.3125 124.394 35.1949 123.668 34.9647 122.991C34.7618 122.394 34.4665 121.769 33.9537 121.378C33.4546 120.996 32.8417 120.992 32.2957 121.282C31.4699 121.72 31.114 122.723 30.1738 122.975C29.2513 123.223 28.2596 122.854 27.3813 122.592C26.829 122.428 26.2767 122.263 25.7245 122.099C25.3036 121.974 24.8635 121.875 24.4613 121.695C23.1138 121.094 21.7856 119.833 21.4178 118.371C21.1709 117.389 21.4925 116.347 22.0914 115.554C22.7859 114.634 23.8415 114.159 24.8854 113.75L24.5186 113.6C24.7742 114.163 24.963 114.753 25.1542 115.34C25.3197 115.847 25.4595 116.392 25.7119 116.865C26.156 117.698 27.0318 118.108 27.9159 118.304C29.1825 118.584 30.4855 118.743 31.765 118.957C33.1177 119.183 34.4704 119.409 35.8232 119.634C37.3603 119.891 38.8976 120.147 40.4347 120.404C40.8437 120.472 41.0196 119.846 40.6075 119.777Z" fill="black"/>
<path d="M131.956 68.1704C130.976 69.8322 131.26 72.3082 132.185 74.0229C133.109 75.7376 134.536 76.8658 135.922 77.9445C137.273 78.9966 138.624 80.0488 139.975 81.1009C141.454 82.2525 141.716 83.1649 142.202 85.1181C140.831 85.7248 139.032 84.4545 137.692 84.0262C136.079 83.5108 134.472 82.964 132.87 82.3974C131.162 81.7937 129.462 81.1562 127.759 80.5285C126.356 80.0112 124.799 79.5697 123.705 81.2026C123.009 82.2407 122.803 83.7389 123.036 85.0789C123.14 85.6781 123.325 86.2553 123.378 86.8658C123.55 88.8378 122.443 89.2059 121.359 89.9577C120.322 90.6772 119.932 92.3125 119.637 93.7853C119.383 95.0512 119.129 96.3171 118.876 97.583C118.506 99.4285 118.743 103.218 120.392 104.041C121.215 104.451 122.164 104.203 122.935 103.651C123.706 103.098 124.334 102.271 124.949 101.456C125.864 100.245 126.799 98.4722 127.892 97.5612C129.331 96.3618 131.431 97.3202 132.968 97.6878C136.207 98.4626 139.448 99.5533 142.742 99.5456C145.819 99.5384 148.612 100.343 151.292 97.7331C156.54 92.6238 155.187 82.9764 152.523 76.4632C150.904 72.5056 148.705 69.0022 146.521 65.5273" fill="white"/>
<path d="M131.676 68.0075C130.259 70.4754 131.235 73.6818 132.961 75.7155C133.92 76.8457 135.122 77.7317 136.285 78.6372C137.01 79.2017 137.735 79.7663 138.46 80.3309C139.071 80.8068 139.72 81.2573 140.284 81.7902C141.263 82.7159 141.573 83.9386 141.889 85.2055L142.116 84.8059C141.272 85.1554 140.356 84.8028 139.566 84.4643C139.139 84.2814 138.72 84.0816 138.29 83.9047C137.816 83.7094 137.322 83.5682 136.835 83.4088C134.518 82.6504 132.221 81.8328 129.935 80.9886C128.931 80.618 127.93 80.1805 126.894 79.9046C126.146 79.7053 125.342 79.6385 124.619 79.9661C122.817 80.7833 122.441 83.2801 122.699 85.0149C122.845 86.0012 123.281 87.0272 122.963 88.0255C122.759 88.6706 122.184 89.035 121.645 89.382C121.335 89.5815 121.017 89.7771 120.763 90.0472C120.467 90.3609 120.24 90.7361 120.063 91.1278C119.669 92.0034 119.474 92.9471 119.287 93.8839C119.045 95.0884 118.794 96.2914 118.563 97.4978C118.433 98.1711 118.39 98.8593 118.402 99.5442C118.427 100.942 118.618 102.607 119.526 103.734C120.015 104.341 120.761 104.638 121.537 104.555C122.561 104.444 123.408 103.784 124.082 103.048C124.776 102.291 125.382 101.442 125.95 100.588C126.496 99.7651 127.02 98.9073 127.703 98.1881C128.021 97.853 128.369 97.5595 128.818 97.4204C129.238 97.2898 129.68 97.2824 130.116 97.3274C131.021 97.421 131.884 97.7503 132.761 97.9724C135.058 98.5535 137.35 99.2299 139.692 99.6066C140.801 99.7851 141.904 99.8589 143.026 99.8731C143.949 99.8847 144.869 99.962 145.791 99.9796C147.622 100.015 149.38 99.689 150.856 98.5423C153.547 96.4532 154.782 93.0131 155.104 89.7263C155.444 86.2598 154.89 82.7071 153.897 79.3863C152.703 75.3983 150.712 71.7166 148.552 68.1781C147.977 67.2352 147.389 66.2998 146.801 65.3645C146.579 65.0114 146.017 65.337 146.24 65.6924C148.544 69.3583 150.867 73.063 152.435 77.1175C153.64 80.2348 154.421 83.5692 154.536 86.9159C154.646 90.1078 154.124 93.4649 152.245 96.125C151.215 97.5823 149.813 98.778 148.037 99.1609C146.348 99.5249 144.592 99.2314 142.884 99.2222C140.569 99.2097 138.333 98.7271 136.1 98.1533C135.018 97.8753 133.934 97.6064 132.853 97.325C132.004 97.104 131.174 96.8135 130.301 96.6999C129.45 96.5892 128.552 96.6732 127.841 97.1935C127.116 97.7244 126.575 98.4999 126.073 99.2334C125.518 100.045 124.993 100.874 124.394 101.655C123.773 102.466 123.059 103.375 122.077 103.758C121.335 104.048 120.512 103.944 120.005 103.299C119.601 102.786 119.401 102.122 119.265 101.494C118.943 100.016 119.017 98.5294 119.312 97.0579C119.54 95.9175 119.763 94.7756 119.998 93.6365C120.179 92.7584 120.378 91.8429 120.826 91.0564C121.026 90.7053 121.278 90.4055 121.614 90.1776C121.883 89.9942 122.165 89.8277 122.431 89.6397C122.977 89.2559 123.427 88.7832 123.611 88.1263C123.884 87.1544 123.584 86.1717 123.392 85.2174C123.196 84.2492 123.224 83.2256 123.538 82.285C123.811 81.4704 124.359 80.6446 125.242 80.4355C125.987 80.2589 126.78 80.523 127.477 80.7717C129.68 81.5576 131.863 82.3984 134.074 83.1633C135.188 83.5486 136.306 83.9235 137.428 84.2838C138.276 84.5561 139.059 84.9841 139.894 85.2912C140.652 85.5702 141.514 85.7535 142.289 85.4324C142.454 85.3639 142.563 85.2211 142.516 85.0328C142.249 83.9647 141.99 82.8535 141.31 81.9616C140.941 81.4769 140.486 81.0911 140.007 80.7184C139.315 80.1795 138.623 79.6405 137.931 79.1016C135.673 77.3434 132.889 75.6037 131.99 72.7196C131.55 71.3098 131.481 69.6517 132.237 68.3354C132.445 67.9722 131.884 67.6446 131.676 68.0075Z" fill="black"/>
<path d="M133.399 82.9939C133.273 83.4904 133.084 84.0263 132.877 84.6722C132.134 86.9916 131.592 89.4202 131.265 91.8948C132.392 92.7845 133.65 93.9443 133.71 95.6494C133.738 96.4566 133.523 97.4622 133.191 98.4834C131.71 97.9599 129.817 97.0297 128.414 98.045C127.279 98.8663 126.26 100.561 125.29 101.695C124.636 102.46 123.97 103.235 123.173 103.724C122.117 104.373 120.609 104.518 119.639 103.548C119.185 103.095 118.859 102.418 118.718 101.703C118.659 101.402 118.839 99.835 118.803 99.7772C118.23 98.8678 117.987 97.6259 118.156 96.4742C118.325 95.3223 118.904 94.2819 119.694 93.7067C119.249 92.6896 119.165 91.4203 119.469 90.32C119.774 89.2196 120.462 88.3074 121.306 87.886C120.667 86.1982 121.376 83.894 122.737 83.2338C122.849 83.1798 122.969 83.1306 123.046 83.014C123.187 82.8023 123.125 82.4834 123.082 82.2101C122.95 81.3772 123.089 80.4533 123.527 79.8193C124.353 78.6248 125.345 79.2751 126.295 79.7216C127.097 80.0992 127.901 80.4753 128.704 80.8494C130.266 81.576 131.83 82.2942 133.399 82.9939Z" fill="black"/>
<path d="M133.086 82.9069C132.804 83.9883 132.406 85.0377 132.107 86.1152C131.783 87.2859 131.511 88.471 131.291 89.6657C131.182 90.2579 131.085 90.8525 131.001 91.4489C130.971 91.6618 130.873 91.9453 131.036 92.1239C131.185 92.2886 131.401 92.4172 131.571 92.5636C132.262 93.161 132.925 93.8651 133.219 94.7491C133.614 95.9374 133.246 97.2482 132.878 98.3964L133.277 98.1695C131.696 97.6056 129.729 96.6563 128.181 97.8152C127.458 98.3564 126.896 99.0809 126.352 99.7936C125.754 100.578 125.169 101.363 124.51 102.098C123.88 102.8 123.173 103.507 122.247 103.786C121.445 104.027 120.53 103.953 119.903 103.351C119.567 103.028 119.33 102.605 119.179 102.167C119.055 101.803 119.022 101.636 119.036 101.282C119.049 100.971 119.076 100.659 119.1 100.348C119.115 100.155 119.16 99.9345 119.124 99.7411C119.086 99.5299 118.913 99.3277 118.825 99.132C118.71 98.8766 118.624 98.607 118.559 98.3347C118.431 97.796 118.397 97.2346 118.455 96.6839C118.562 95.6736 119.03 94.6086 119.858 93.9866C120.013 93.8706 120.051 93.7206 119.975 93.5422C119.216 91.753 119.612 89.1311 121.47 88.1659C121.588 88.1045 121.666 87.9278 121.619 87.7991C121.25 86.7843 121.338 85.6 121.835 84.641C122.055 84.218 122.357 83.8213 122.776 83.5803C123.009 83.4462 123.238 83.3581 123.366 83.103C123.506 82.8261 123.453 82.5085 123.41 82.2157C123.317 81.5776 123.342 80.9008 123.62 80.3076C123.855 79.808 124.264 79.3805 124.853 79.4803C125.38 79.5695 125.872 79.88 126.35 80.1044C127.043 80.4302 127.737 80.755 128.431 81.0783C130.027 81.8214 131.627 82.5562 133.235 83.2738C133.613 83.4427 133.944 82.8831 133.563 82.7128C131.992 82.0116 130.428 81.2941 128.869 80.5683C128.119 80.2196 127.371 79.8692 126.623 79.5177C126.109 79.2763 125.589 78.9617 125.025 78.8537C123.623 78.5851 122.855 79.988 122.731 81.1907C122.696 81.5266 122.708 81.8613 122.754 82.1954C122.774 82.3411 122.807 82.4866 122.807 82.6342C122.808 82.8585 122.684 82.8915 122.51 82.9848C122.04 83.2371 121.667 83.6481 121.393 84.1008C120.71 85.2306 120.54 86.7286 120.993 87.9717L121.142 87.6049C118.944 88.7463 118.524 91.7706 119.414 93.87L119.531 93.4256C117.925 94.6306 117.451 96.8924 118 98.7593C118.065 98.9828 118.148 99.2014 118.243 99.414C118.291 99.5207 118.342 99.6255 118.398 99.7281C118.422 99.7715 118.447 99.8137 118.471 99.8569C118.471 99.8562 118.468 99.7636 118.483 99.8294C118.533 100.059 118.447 100.383 118.43 100.614C118.406 100.923 118.373 101.236 118.382 101.546C118.392 101.944 118.538 102.342 118.696 102.703C119.065 103.546 119.726 104.243 120.637 104.475C121.493 104.692 122.422 104.511 123.187 104.091C124.123 103.578 124.839 102.725 125.52 101.924C126.161 101.17 126.714 100.346 127.34 99.5792C128.016 98.7515 128.767 97.9133 129.916 97.915C131.023 97.9166 132.081 98.431 133.105 98.7959C133.275 98.8567 133.454 98.7263 133.504 98.5691C133.926 97.2547 134.305 95.7441 133.783 94.403C133.337 93.2603 132.437 92.4107 131.495 91.6644L131.59 91.8941C131.798 90.3364 132.094 88.7898 132.476 87.2653C132.83 85.8516 133.346 84.4876 133.712 83.0796C133.817 82.6746 133.191 82.5019 133.086 82.9069Z" fill="black"/>
<path d="M127.456 69.3511C128.336 74.7615 130.385 79.7106 132.086 84.7834C135.119 93.8256 137.076 103.392 138.684 113.003C139.056 115.221 139.409 117.445 139.753 119.671C140.013 121.348 140.304 123.351 141.52 124.331C142.336 124.989 143.368 124.969 144.324 124.831C144.521 124.803 144.726 124.766 144.888 124.619C145.014 124.505 145.102 124.335 145.186 124.169C145.917 122.74 146.556 120.499 148.205 121.776C148.574 122.061 148.852 122.508 149.207 122.821C150.18 123.678 151.482 123.37 152.63 123.029C153.616 122.735 154.602 122.442 155.588 122.148C157.026 121.72 159.518 119.699 159.322 117.429C159.224 116.297 158.616 115.324 157.881 114.695C157.146 114.066 156.288 113.728 155.444 113.399C154.191 112.91 152.542 112.656 151.412 111.824C149.924 110.728 149.613 107.878 149.156 105.947C148.533 103.315 147.911 100.683 147.288 98.0518C145.593 90.8879 144.658 79.9628 141.959 73.2978" fill="white"/>
<path d="M127.143 69.437C127.939 74.2831 129.703 78.8736 131.304 83.4935C132.938 88.2111 134.278 93.0215 135.405 97.8846C136.543 102.798 137.474 107.757 138.311 112.73C138.736 115.252 139.122 117.78 139.526 120.305C139.808 122.069 140.247 124.38 142.173 125.052C142.641 125.215 143.154 125.252 143.646 125.225C144.098 125.201 144.674 125.193 145.046 124.905C145.378 124.648 145.538 124.198 145.71 123.828C145.879 123.466 146.041 123.1 146.232 122.749C146.5 122.252 146.925 121.52 147.596 121.784C148.064 121.969 148.364 122.395 148.688 122.756C149.034 123.142 149.446 123.443 149.948 123.589C150.902 123.866 151.916 123.58 152.835 123.306C153.466 123.119 154.097 122.93 154.728 122.743C155.193 122.604 155.671 122.488 156.117 122.295C157.6 121.653 159.001 120.303 159.492 118.742C160.118 116.751 158.87 114.751 157.15 113.801C156.249 113.303 155.256 112.966 154.274 112.672C153.331 112.39 152.271 112.128 151.501 111.481C150.858 110.942 150.52 110.103 150.275 109.323C150 108.449 149.829 107.548 149.643 106.653C149.139 104.231 148.516 101.83 147.946 99.4225C147.016 95.491 146.352 91.5225 145.681 87.5403C145.006 83.5428 144.327 79.5103 143.126 75.6307C142.873 74.8134 142.592 74.0047 142.272 73.211C142.118 72.8281 141.489 72.9953 141.646 73.3837C143.067 76.9112 143.806 80.7037 144.483 84.4316C145.196 88.3576 145.756 92.3126 146.555 96.2227C147.007 98.4317 147.562 100.62 148.081 102.814C148.362 104.002 148.66 105.188 148.922 106.38C149.112 107.249 149.268 108.125 149.5 108.985C149.723 109.809 150.009 110.661 150.517 111.357C151.048 112.085 151.813 112.505 152.641 112.824C154.503 113.54 156.813 113.804 158.158 115.439C158.768 116.181 159.143 117.207 158.966 118.169C158.81 119.016 158.314 119.764 157.722 120.372C157.182 120.926 156.534 121.419 155.818 121.721C155.358 121.916 154.856 122.027 154.378 122.169C153.766 122.351 153.155 122.534 152.544 122.715C151.645 122.98 150.556 123.296 149.689 122.773C149.237 122.501 148.967 122.031 148.588 121.677C148.295 121.403 147.928 121.163 147.526 121.094C145.985 120.83 145.404 123.078 144.863 124.088C144.738 124.321 144.63 124.445 144.365 124.496C144.113 124.545 143.853 124.567 143.597 124.578C143.091 124.601 142.568 124.556 142.109 124.325C141.268 123.902 140.838 122.99 140.578 122.131C140.29 121.181 140.161 120.191 140.009 119.213C139.811 117.936 139.609 116.659 139.403 115.383C138.607 110.455 137.737 105.537 136.688 100.655C135.655 95.8488 134.447 91.0762 132.954 86.391C131.5 81.8288 129.663 77.3839 128.494 72.7335C128.206 71.5872 127.961 70.4306 127.77 69.2643C127.702 68.8527 127.076 69.0273 127.143 69.437Z" fill="black"/>
<path d="M138.861 114.071C139.256 113.955 139.708 113.887 140.243 113.783C142.165 113.409 144.054 112.755 145.863 111.841C145.872 110.134 145.992 108.144 147.092 107.198C147.612 106.75 148.39 106.47 149.238 106.31C149.655 108.219 150.015 110.795 151.412 111.824C152.542 112.656 154.191 112.91 155.444 113.399C156.288 113.728 157.145 114.066 157.881 114.695C158.856 115.529 159.73 117.123 159.588 118.698C159.521 119.434 159.241 120.144 158.839 120.669C158.671 120.89 157.538 121.498 157.519 121.568C157.211 122.671 156.513 123.581 155.662 123.988C154.811 124.395 153.823 124.292 153.034 123.713C152.589 124.731 151.791 125.479 150.905 125.71C150.018 125.94 149.058 125.649 148.344 124.933C147.554 126.51 145.661 126.914 144.521 125.748C144.427 125.653 144.333 125.545 144.216 125.52C144.003 125.473 143.823 125.706 143.664 125.895C143.18 126.471 142.496 126.793 141.849 126.635C140.631 126.337 140.551 124.904 140.357 123.623C140.193 122.539 140.028 121.456 139.861 120.373C139.538 118.27 139.207 116.169 138.861 114.071Z" fill="black"/>
<path d="M138.948 114.384C139.494 114.229 140.058 114.155 140.613 114.039C141.236 113.908 141.853 113.749 142.462 113.563C143.69 113.186 144.881 112.697 146.028 112.121C146.129 112.07 146.188 111.95 146.189 111.841C146.196 110.714 146.215 109.526 146.626 108.462C146.806 107.994 147.091 107.567 147.511 107.286C148.053 106.923 148.692 106.747 149.325 106.623L148.926 106.396C149.272 107.994 149.483 109.766 150.388 111.169C151.367 112.686 153.241 113.002 154.838 113.527C155.764 113.831 156.738 114.207 157.512 114.811C158.242 115.38 158.783 116.206 159.067 117.083C159.387 118.075 159.347 119.155 158.836 120.079C158.667 120.386 158.512 120.544 158.225 120.728C157.978 120.887 157.72 121.029 157.477 121.193C157.144 121.418 157.127 121.799 156.96 122.147C156.745 122.597 156.452 123.009 156.073 123.335C155.229 124.061 154.094 124.064 153.199 123.433C153.066 123.339 152.822 123.399 152.754 123.549C152.409 124.315 151.836 125.045 151.019 125.335C150.136 125.648 149.227 125.336 148.574 124.703C148.431 124.563 148.162 124.579 148.064 124.769C147.581 125.7 146.546 126.359 145.486 125.993C145.26 125.915 145.049 125.79 144.87 125.631C144.626 125.417 144.417 125.135 144.052 125.201C143.78 125.251 143.607 125.47 143.435 125.665C143.195 125.939 142.914 126.18 142.56 126.29C141.245 126.698 140.912 125.167 140.771 124.227C140.543 122.707 140.315 121.187 140.08 119.668C139.787 117.772 139.487 115.878 139.175 113.985C139.108 113.573 138.482 113.748 138.549 114.157C139.119 117.624 139.614 121.103 140.171 124.571C140.351 125.695 140.838 127.022 142.205 127C142.922 126.988 143.5 126.57 143.955 126.052C143.992 126.011 144.038 125.939 144.083 125.911C144.206 125.833 144.185 125.877 144.292 125.978C144.391 126.072 144.489 126.162 144.599 126.244C144.836 126.422 145.101 126.557 145.385 126.642C146.698 127.035 148.022 126.26 148.625 125.096L148.115 125.162C148.905 125.929 150.032 126.327 151.112 125.988C152.126 125.67 152.888 124.824 153.315 123.877L152.871 123.994C153.684 124.567 154.729 124.728 155.658 124.343C156.492 123.997 157.135 123.278 157.521 122.475C157.576 122.361 157.626 122.245 157.672 122.128C157.704 122.048 157.801 121.879 157.79 121.799C157.778 121.72 157.741 121.803 157.771 121.777C157.817 121.736 157.879 121.707 157.931 121.674C158.21 121.5 158.498 121.338 158.766 121.148C159.482 120.641 159.805 119.645 159.902 118.808C160.135 116.786 158.887 114.761 157.15 113.802C156.279 113.32 155.319 112.986 154.368 112.701C153.437 112.422 152.457 112.166 151.653 111.598C150.883 111.054 150.509 110.091 150.245 109.224C149.945 108.241 149.77 107.226 149.552 106.224C149.513 106.043 149.317 105.965 149.152 105.997C147.861 106.249 146.65 106.787 146.096 108.053C145.581 109.23 145.547 110.575 145.539 111.841L145.7 111.56C144.568 112.129 143.392 112.605 142.178 112.97C141.587 113.147 140.988 113.299 140.383 113.424C139.848 113.534 139.303 113.608 138.776 113.758C138.374 113.872 138.545 114.499 138.948 114.384Z" fill="black"/>
<path d="M29.5093 57.2613C28.6615 58.6261 27.5769 59.718 26.4298 60.6483C23.6284 62.9202 20.3461 64.2944 17.0397 64.1839C13.7334 64.0734 10.4195 62.4053 8.12886 59.3225C7.12024 57.9651 6.32223 56.3656 5.65901 54.6903C3.86756 50.1653 3.37693 45.3861 3.07005 40.3989C2.97089 38.7872 3.04828 37.0332 2.59123 35.4986C2.07898 33.7786 0.482105 33.3268 0.0873421 31.2516C-0.0445225 30.5584 -0.0502633 29.7855 0.234235 29.1735C0.542196 28.5111 1.12471 28.159 1.68386 27.8847C3.47562 27.0057 5.3872 26.5363 7.30359 26.5047C7.80235 26.4965 8.3145 26.5211 8.77532 26.7678C9.49496 27.153 9.98826 28.0248 10.3415 28.9218C10.8696 30.2631 11.1657 31.7326 11.4763 33.183C12.7045 38.9183 14.218 44.5516 16.0043 50.0366C17.8819 49.3491 19.6557 48.1912 21.1981 46.6462" fill="#8683FF"/>
<path d="M153.002 60.5139C153.694 62.0183 154.65 63.2954 155.685 64.4238C158.213 67.1794 161.315 69.1328 164.601 69.6205C167.887 70.1083 171.348 69.055 173.95 66.4162C175.095 65.2542 176.059 63.8146 176.897 62.2755C179.16 58.1184 180.163 53.4747 181.006 48.5919C181.279 47.0139 181.392 45.2631 182.01 43.8261C182.704 42.2156 184.334 42.0566 184.949 40.0731C185.155 39.4105 185.244 38.6462 185.028 37.9889C184.795 37.2773 184.256 36.8235 183.732 36.4509C182.053 35.257 180.211 34.447 178.317 34.0696C177.824 33.9713 177.314 33.9032 176.831 34.0642C176.077 34.3158 175.494 35.0899 175.048 35.9143C174.38 37.147 173.927 38.5487 173.463 39.9287C171.626 45.3859 169.518 50.6906 167.156 55.7992C165.372 54.7792 163.74 53.3124 162.38 51.504" fill="#8683FF"/>
<path d="M182.321 41.3379C181.713 41.7574 181.21 41.0926 181.154 40.5151C181.12 40.162 180.629 40.0602 180.516 40.4288C180.457 40.623 180.338 40.7979 180.151 40.8885C180.011 40.9569 179.869 40.9632 179.729 40.8827C179.34 40.6585 179.229 40.0506 179.296 39.6451C179.325 39.4722 179.251 39.2954 179.069 39.2455C178.914 39.2028 178.699 39.2983 178.67 39.4724C178.551 40.1884 178.757 41.1385 179.475 41.4819C180.19 41.8237 180.932 41.2948 181.143 40.6015L180.505 40.5151C180.554 41.0209 180.749 41.5253 181.158 41.8478C181.592 42.1904 182.192 42.2141 182.649 41.8989C182.793 41.7994 182.859 41.6139 182.766 41.4544C182.682 41.3115 182.466 41.2378 182.321 41.3379Z" fill="black"/>
<path d="M177.6 36.5216C177.89 36.5124 178.271 36.5035 178.433 36.7946C178.623 37.138 178.447 37.6489 178.268 37.9601C177.923 38.5591 177.289 38.9 176.685 39.1862C176.47 39.2882 176.475 39.6435 176.685 39.7472C177.78 40.2899 177.615 42.016 177.565 43.0152C177.544 43.4331 178.193 43.4319 178.214 43.0152C178.277 41.768 178.353 39.8504 177.013 39.1862V39.7472C177.886 39.3333 178.728 38.7684 179.042 37.8051C179.201 37.3166 179.225 36.7081 178.872 36.2957C178.555 35.9246 178.062 35.8573 177.6 35.8719C177.183 35.8852 177.181 36.5349 177.6 36.5216Z" fill="black"/>
<path d="M165.826 44.1201C168.718 31.4901 166.587 17.3118 157.227 9.17715C149.231 2.22709 138.456 3.01015 129.444 7.42259C120.432 11.835 112.597 19.4037 104.307 25.7554C101.64 27.7989 98.8625 29.7487 95.8212 30.53C88.8243 32.3274 82.8317 29.2319 77.0348 24.2736C70.2197 18.4442 64.2942 10.8983 57.1125 5.85703C49.7258 0.671967 40.6877 -1.6035 32.8298 2.25506C27.2981 4.97131 22.7305 10.6007 20.0339 17.4069C11.8725 38.007 20.152 62.2809 37.1899 68.7252C45.5036 71.8697 55.3055 70.8053 63.8909 70.8266C68.0454 70.8369 72.2 70.8472 76.3545 70.8575C90.6806 70.8931 105.007 70.9286 119.333 70.9641C131.796 70.995 145.186 73.9919 155.744 63.4713C160.582 58.6503 164.099 51.6612 165.826 44.1201Z" fill="#8683FF"/>
<path d="M48.1529 40.1476C52.9859 39.189 58.0863 40.7013 62.1122 44.2867C66.1382 47.8721 69.0471 53.4927 70.0737 59.6697C70.5459 62.5111 70.6301 65.4227 70.8255 68.3091C70.9383 69.9756 70.8808 74.5163 72.5996 75.0517C72.8242 75.1217 73.0608 75.0937 73.2875 75.1511C73.7599 75.2708 74.1549 75.7937 74.2359 76.4068C74.317 77.0199 74.0788 77.6826 73.6639 77.9981C74.202 78.3051 74.5035 79.1734 74.3232 79.8968C74.143 80.6202 73.506 81.0981 72.9304 80.9418C73.2609 81.3813 73.0086 82.186 72.5795 82.4469C72.1504 82.7078 71.6475 82.5949 71.1822 82.4766C71.2248 83.0517 70.6457 83.3327 70.1986 83.3313C69.0753 83.3279 67.8067 82.7558 67.0794 81.6113C66.3442 80.4544 65.5115 79.3637 64.8143 78.1507C62.2877 73.7546 60.7971 68.5803 59.0785 63.6236C58.6421 62.3651 58.1908 61.1147 57.702 59.8885C57.3868 59.0976 56.899 57.2342 56.2823 56.8139C55.9142 56.563 55.0031 56.758 54.5793 56.7352C53.9437 56.7012 53.3083 56.6581 52.6735 56.6061C51.4525 56.5062 50.2332 56.3731 49.0166 56.2071C47.0214 55.9349 45.0334 55.574 43.0574 55.1251" fill="#8683FF"/>
<path d="M2.12957 33.4584C2.52763 33.8338 3.08794 33.9644 3.59014 33.7167C4.04417 33.4927 4.33005 33.0025 4.43113 32.5216H3.80466C3.93187 33.2021 4.59275 33.8426 5.3247 33.639C6.07196 33.4312 6.41217 32.5265 6.37456 31.8217C6.35238 31.4058 5.70255 31.4032 5.72488 31.8217C5.74633 32.2237 5.62101 32.8294 5.19374 32.9994C4.79478 33.1582 4.49336 32.6817 4.43113 32.3489C4.3725 32.0352 3.86898 32.0428 3.80466 32.3489C3.74313 32.6417 3.61011 32.9446 3.34673 33.1093C3.09174 33.2688 2.79906 33.1971 2.58898 32.999C2.28494 32.7122 1.82465 33.1707 2.12957 33.4584Z" fill="black"/>
<path d="M7.86958 28.4286C7.42618 28.3334 6.92094 28.2861 6.54725 28.5965C6.11377 28.9565 6.08298 29.5696 6.1785 30.0855C6.3697 31.1182 7.18878 31.8278 8.00952 32.3959L8.08711 31.8022C6.62313 32.2372 6.5069 34.1953 6.43429 35.441C6.40995 35.8587 7.05971 35.8573 7.08398 35.441C7.1205 34.8141 7.15444 34.1795 7.34322 33.5761C7.48687 33.117 7.7645 32.5758 8.25981 32.4286C8.54121 32.345 8.56356 31.9914 8.33739 31.8349C7.7798 31.449 7.20718 30.9971 6.93348 30.356C6.79714 30.0366 6.67635 29.529 6.86707 29.2082C7.03821 28.9204 7.42325 28.9963 7.69685 29.0551C8.10455 29.1427 8.27879 28.5165 7.86958 28.4286Z" fill="black"/>
<path d="M139.624 39.5423C135.803 35.5997 127.874 30.3836 123.001 30.9003C118.127 31.4171 113.438 34.4175 110.166 39.1122C108.661 41.2717 107.465 43.742 106.182 46.1188C105.442 47.491 103.741 51.465 102.044 50.8226C101.822 50.7387 101.628 50.562 101.409 50.4659C100.954 50.2655 100.409 50.4647 100.103 50.9441C99.7961 51.4235 99.747 52.1514 99.9851 52.692C99.4002 52.6118 98.804 53.1705 98.6813 53.9138C98.5586 54.657 98.9266 55.4814 99.4859 55.7165C99.0299 55.8848 98.9384 56.745 99.2098 57.2474C99.4812 57.7499 99.9608 57.9757 100.41 58.1728C100.151 58.644 100.545 59.2604 100.933 59.547C101.908 60.2673 103.229 60.588 104.301 60.064C105.384 59.5342 106.527 59.1246 107.599 58.5218C111.485 56.3369 114.773 52.8102 118.174 49.6191C119.038 48.8089 119.911 48.0153 120.808 47.2668C121.386 46.784 122.528 45.4825 123.225 45.515C123.641 45.5345 124.355 46.2901 124.731 46.5433C125.296 46.9229 125.863 47.2946 126.434 47.6583C127.531 48.3576 128.639 49.0273 129.758 49.6666C131.593 50.7151 133.456 51.682 135.342 52.565" fill="#8683FF"/>
<path d="M26.0519 60.9937C25.912 61.2547 25.7001 61.4335 25.4937 61.6056C25.159 61.8847 24.8214 62.1657 24.4498 62.3508C24.1754 62.4875 23.8869 62.5697 23.5997 62.6513C22.8767 62.8567 22.2653 63.1888 21.5599 63.46C21.9534 62.5382 21.8714 61.3858 21.5857 60.3999C21.2999 59.414 20.8313 58.5373 20.4505 57.6065C19.8303 56.0904 19.4444 54.4316 19.1573 52.7573C19.0065 51.8783 18.881 50.9874 18.6391 50.143C18.5466 49.8198 18.4352 49.4801 18.4887 49.1426C18.5964 48.4619 19.1087 48.582 19.2845 49.0625C19.5092 49.6768 19.646 50.3695 19.8587 50.9974C20.2965 52.2898 20.815 53.5366 21.4062 54.7227C22.6016 57.1212 24.0951 59.2731 25.8208 61.0537" fill="black"/>
<path d="M163.184 52.8208C161.86 55.7065 160.237 58.3627 158.377 60.7025C157.911 61.2874 157.431 61.8526 156.937 62.3968C156.584 62.7855 156.088 63.0525 155.84 63.5689C155.5 64.2764 156.142 64.6804 156.533 65.118C157.439 66.1337 158.407 67.0934 159.523 67.6905C160.659 68.2979 161.804 68.4669 162.981 68.8736C162.126 64.1025 162.83 59.1004 163.831 54.3769C163.926 53.9259 163.964 53.3031 163.628 53.1295C163.482 53.0539 163.285 53.0849 163.199 52.9147" fill="black"/>
<path d="M32.5122 28.4724C33.372 28.3769 36.3938 28.1203 36.0071 30.2627C35.6847 32.0491 32.6448 31.4537 31.8282 30.9927C31.4643 30.7872 31.0983 30.4305 31.0498 29.9212C31.0078 29.4795 31.2303 29.0492 31.5236 28.8157C31.8168 28.5823 32.169 28.5105 32.5122 28.4724Z" fill="white"/>
<path d="M32.5116 28.7984C33.1048 28.7329 33.7159 28.6986 34.3092 28.7804C34.9018 28.8621 35.6167 29.086 35.7079 29.7457C35.953 31.5203 33.436 31.2207 32.4129 30.888C32.0461 30.7687 31.6082 30.5595 31.4324 30.1373C31.3076 29.8379 31.3762 29.4885 31.568 29.2332C31.7911 28.9363 32.16 28.8403 32.5116 28.7984C32.6872 28.7774 32.8345 28.664 32.8365 28.4735C32.8382 28.3139 32.6858 28.1279 32.5117 28.1486C31.7406 28.2405 31.0494 28.5564 30.7935 29.3448C30.5546 30.0813 30.9323 30.7982 31.5491 31.2043C32.2552 31.6693 33.277 31.812 34.1024 31.7964C35.0283 31.7789 36.0704 31.4335 36.3045 30.4237C36.4116 29.9618 36.389 29.4426 36.1256 29.0349C35.8889 28.6688 35.5112 28.4418 35.1071 28.301C34.2892 28.0162 33.3606 28.055 32.5117 28.1486C32.1006 28.194 32.096 28.8442 32.5116 28.7984Z" fill="black"/>
<path d="M33.8981 29.3428C33.917 29.2933 33.938 29.2451 33.9612 29.1987C34.1392 28.8421 34.4411 28.5799 34.7689 28.5531C35.4785 28.4951 36.1729 29.3432 36.007 30.2624C35.8176 31.3117 34.5147 31.7304 33.9924 30.8671C33.7359 30.443 33.7142 29.826 33.8981 29.3428Z" fill="black"/>
<path d="M34.2113 29.429C34.3024 29.1979 34.4569 29.011 34.6646 28.9087C34.6089 28.9362 34.6986 28.897 34.7038 28.8954C34.7286 28.8879 34.7536 28.882 34.7789 28.8768C34.8312 28.8662 34.7123 28.8739 34.7969 28.8759C34.8248 28.8766 34.8526 28.8746 34.8806 28.876C34.8951 28.8767 34.9811 28.8929 34.9051 28.877C34.9326 28.8827 34.9599 28.888 34.9871 28.8954C35.0144 28.9028 35.0408 28.9124 35.0678 28.9211C35.1317 28.9419 35.0309 28.8972 35.0953 28.9336C35.1465 28.9626 35.1965 28.9912 35.246 29.0232C35.3233 29.0734 35.2061 28.9829 35.275 29.0457C35.2975 29.0663 35.3206 29.0859 35.3425 29.1072C35.3796 29.1433 35.4143 29.1817 35.4474 29.2214C35.4076 29.1737 35.4714 29.2543 35.4729 29.2566C35.4973 29.2918 35.5201 29.3281 35.5415 29.3652C35.6118 29.4876 35.6237 29.5171 35.6613 29.6529C35.7014 29.7976 35.7093 29.8492 35.7067 30.0107C35.7047 30.1353 35.6977 30.1891 35.6607 30.3163C35.6529 30.3433 35.6442 30.3701 35.6347 30.3965C35.6308 30.4074 35.5931 30.4893 35.6259 30.4211C35.5987 30.4778 35.5699 30.5331 35.5359 30.5861C35.524 30.6046 35.5113 30.6225 35.4989 30.6406C35.4697 30.6833 35.5489 30.5845 35.494 30.6472C35.4601 30.6859 35.4264 30.7242 35.389 30.7598C35.3706 30.7773 35.351 30.7934 35.3325 30.8106C35.2716 30.8671 35.3875 30.7754 35.3192 30.8217C35.278 30.8495 35.2373 30.8772 35.1939 30.9013C35.1725 30.9133 35.1508 30.9245 35.1288 30.9351C35.1132 30.9426 35.0388 30.968 35.1174 30.941C35.0796 30.954 35.0424 30.9679 35.0038 30.9786C34.978 30.9857 34.8327 31.0092 34.9283 30.999C34.8743 31.0047 34.8204 31.0081 34.766 31.0062C34.7509 31.0056 34.735 31.0032 34.72 31.0035C34.6444 31.0049 34.7881 31.0228 34.7152 31.0033C34.6708 30.9914 34.626 30.982 34.5818 30.9691C34.5628 30.9636 34.4984 30.9295 34.5734 30.9678C34.5596 30.9607 34.5454 30.9545 34.5316 30.9473C34.5107 30.9364 34.4903 30.9246 34.4704 30.9121C34.4539 30.9018 34.3774 30.8366 34.439 30.8925C34.3951 30.8527 34.3544 30.8125 34.3151 30.7682C34.3232 30.7773 34.3512 30.8216 34.3177 30.7713C34.2963 30.739 34.2749 30.7073 34.2558 30.6737C34.2093 30.592 34.1999 30.5668 34.1775 30.4989C34.1551 30.4314 34.1375 30.3623 34.124 30.2925C34.11 30.2199 34.1067 30.1869 34.1033 30.0903C34.1007 30.017 34.1023 29.9436 34.1077 29.8705C34.1166 29.7506 34.1561 29.5787 34.2113 29.429C34.272 29.2644 34.1434 29.073 33.9845 29.0294C33.8031 28.9795 33.6458 29.091 33.5849 29.2562C33.3465 29.9027 33.4069 30.7571 33.8983 31.2753C34.2958 31.6946 34.9042 31.7411 35.4125 31.5163C35.9572 31.2754 36.2863 30.7317 36.3475 30.1537C36.4187 29.4809 36.0791 28.749 35.4871 28.4069C35.1744 28.2262 34.7837 28.1634 34.4431 28.3017C34.0202 28.4733 33.748 28.8426 33.5849 29.2562C33.5205 29.4195 33.6555 29.6129 33.8118 29.6558C33.9962 29.7065 34.1467 29.5928 34.2113 29.429Z" fill="black"/>
<path d="M20.394 27.466C21.2538 27.3705 24.2756 27.114 23.889 29.2563C23.5665 31.0428 20.5266 30.4474 19.7101 29.9863C19.3462 29.7809 18.9801 29.4241 18.9317 28.9149C18.8897 28.4731 19.1121 28.0429 19.4054 27.8094C19.6986 27.5759 20.0508 27.5042 20.394 27.466Z" fill="white"/>
<path d="M20.394 27.792C20.9872 27.7266 21.5983 27.6922 22.1915 27.774C22.7842 27.8558 23.4991 28.0796 23.5902 28.7394C23.8353 30.5139 21.3184 30.2143 20.2953 29.8816C19.9284 29.7623 19.4906 29.5532 19.3147 29.131C19.19 28.8315 19.2586 28.4821 19.4504 28.2268C19.6735 27.93 20.0424 27.8339 20.394 27.792C20.5696 27.7711 20.7169 27.6576 20.7189 27.4671C20.7206 27.3076 20.5682 27.1216 20.394 27.1423C19.623 27.2342 18.9318 27.55 18.6759 28.3385C18.437 29.075 18.8147 29.7919 19.4315 30.198C20.1376 30.663 21.1594 30.8056 21.9848 30.79C22.9107 30.7725 23.9528 30.4272 24.1869 29.4174C24.294 28.9554 24.2714 28.4362 24.0079 28.0285C23.7713 27.6624 23.3936 27.4354 22.9895 27.2947C22.1716 27.0098 21.243 27.0487 20.394 27.1423C19.983 27.1876 19.9783 27.8378 20.394 27.792Z" fill="black"/>
<path d="M21.78 28.3384C21.7988 28.2889 21.8198 28.2407 21.843 28.1943C22.021 27.8377 22.323 27.5755 22.6508 27.5487C23.3603 27.4907 24.0547 28.3388 23.8888 29.258C23.6994 30.3073 22.3965 30.726 21.8743 29.8627C21.6178 29.4386 21.5961 28.8216 21.78 28.3384Z" fill="black"/>
<path d="M22.0943 28.4236C22.1854 28.1926 22.3398 28.0056 22.5475 27.9034C22.4918 27.9308 22.5816 27.8916 22.5868 27.8901C22.6115 27.8825 22.6365 27.8766 22.6619 27.8715C22.7141 27.8609 22.5952 27.8685 22.6798 27.8706C22.7077 27.8713 22.7355 27.8693 22.7636 27.8706C22.7781 27.8714 22.864 27.8875 22.788 27.8716C22.8155 27.8774 22.8429 27.8827 22.87 27.89C22.8974 27.8975 22.9238 27.907 22.9507 27.9158C23.0146 27.9365 22.9139 27.8918 22.9782 27.9282C23.0294 27.9572 23.0794 27.9858 23.1289 28.0179C23.2062 28.068 23.0891 27.9775 23.1579 28.0403C23.1804 28.0609 23.2036 28.0806 23.2254 28.1019C23.2625 28.138 23.2972 28.1763 23.3304 28.216C23.2905 28.1684 23.3543 28.2489 23.3558 28.2512C23.3802 28.2864 23.4031 28.3227 23.4244 28.3599C23.4948 28.4822 23.5066 28.5117 23.5442 28.6475C23.5843 28.7923 23.5922 28.8438 23.5896 29.0054C23.5876 29.13 23.5806 29.1837 23.5437 29.3109C23.5358 29.3379 23.5272 29.3647 23.5176 29.3912C23.5137 29.402 23.4761 29.484 23.5088 29.4157C23.4816 29.4724 23.4529 29.5278 23.4188 29.5807C23.407 29.5992 23.3942 29.6171 23.3818 29.6352C23.3526 29.6779 23.4319 29.5792 23.377 29.6418C23.343 29.6806 23.3093 29.7189 23.2719 29.7545C23.2536 29.772 23.234 29.788 23.2154 29.8053C23.1545 29.8617 23.2705 29.7701 23.2021 29.8163C23.1609 29.8441 23.1203 29.8718 23.0768 29.896C23.0554 29.9079 23.0337 29.9192 23.0117 29.9298C22.9961 29.9373 22.9217 29.9627 23.0004 29.9356C22.9625 29.9486 22.9254 29.9626 22.8867 29.9732C22.8609 29.9803 22.7157 30.0038 22.8113 29.9937C22.7572 29.9994 22.7033 30.0027 22.649 30.0008C22.6338 30.0003 22.618 29.9979 22.6029 29.9981C22.5274 29.9995 22.671 30.0174 22.5981 29.9979C22.5537 29.9861 22.509 29.9766 22.4647 29.9637C22.4457 29.9582 22.3813 29.9242 22.4564 29.9624C22.4425 29.9553 22.4283 29.9491 22.4145 29.9419C22.3937 29.931 22.3733 29.9193 22.3533 29.9068C22.3369 29.8964 22.2603 29.8313 22.322 29.8871C22.2781 29.8473 22.2374 29.8072 22.198 29.7628C22.2062 29.772 22.2341 29.8163 22.2007 29.7659C22.1793 29.7337 22.1578 29.702 22.1387 29.6683C22.0922 29.5867 22.0829 29.5615 22.0604 29.4935C22.0381 29.426 22.0204 29.3569 22.0069 29.2871C21.9929 29.2146 21.9897 29.1816 21.9862 29.085C21.9836 29.0117 21.9852 28.9382 21.9906 28.8651C21.9995 28.7452 22.039 28.5734 22.0943 28.4236C22.1549 28.259 22.0264 28.0677 21.8674 28.024C21.686 27.9741 21.5287 28.0856 21.4678 28.2509C21.2295 28.8973 21.2899 29.7518 21.7812 30.27C22.1787 30.6892 22.7872 30.7357 23.2954 30.5109C23.8401 30.27 24.1693 29.7264 24.2304 29.1484C24.3016 28.4755 23.962 27.7436 23.37 27.4016C23.0573 27.2208 22.6666 27.158 22.326 27.2963C21.9031 27.4679 21.6309 27.8373 21.4678 28.2509C21.4034 28.4141 21.5384 28.6075 21.6947 28.6505C21.8792 28.7011 22.0296 28.5875 22.0943 28.4236Z" fill="black"/>
<path d="M147.281 28.4724C146.421 28.3769 143.399 28.1203 143.786 30.2627C144.108 32.0491 147.148 31.4537 147.965 30.9927C148.329 30.7872 148.695 30.4305 148.743 29.9212C148.785 29.4795 148.563 29.0492 148.27 28.8157C147.976 28.5823 147.624 28.5105 147.281 28.4724Z" fill="white"/>
<path d="M147.28 28.149C145.9 27.9968 143.305 28.0179 143.431 30.0195C143.568 32.2277 146.527 32.0152 147.985 31.3464C148.64 31.0462 149.146 30.3931 149.06 29.6477C149.015 29.255 148.826 28.8686 148.524 28.6091C148.169 28.304 147.734 28.203 147.28 28.149C147.105 28.128 146.957 28.3133 146.956 28.4738C146.954 28.6666 147.107 28.778 147.28 28.7987C147.874 28.8694 148.51 29.2281 148.418 29.9227C148.36 30.3621 147.923 30.6826 147.595 30.8116C146.915 31.079 146.141 31.1968 145.414 31.1327C144.726 31.0721 144.115 30.7478 144.079 29.9936C144.044 29.2829 144.581 28.9659 145.217 28.8284C145.889 28.6832 146.602 28.7238 147.28 28.7987C147.695 28.8444 147.692 28.1944 147.28 28.149Z" fill="black"/>
<path d="M145.895 29.3428C145.876 29.2933 145.855 29.2451 145.832 29.1987C145.654 28.8421 145.352 28.5799 145.024 28.5531C144.315 28.4951 143.62 29.3432 143.786 30.2624C143.976 31.3117 145.279 31.7304 145.801 30.8671C146.057 30.443 146.079 29.826 145.895 29.3428Z" fill="black"/>
<path d="M146.209 29.2561C146.069 28.9023 145.85 28.5716 145.513 28.3776C145.219 28.2081 144.858 28.18 144.54 28.2996C143.881 28.5471 143.474 29.2177 143.439 29.9049C143.407 30.5163 143.703 31.1172 144.229 31.4374C144.676 31.7092 145.287 31.7479 145.72 31.4252C146.366 30.9424 146.474 29.9748 146.209 29.2561C146.148 29.0916 145.988 28.98 145.809 29.0293C145.651 29.0728 145.521 29.2634 145.582 29.4289C145.685 29.7067 145.716 29.9362 145.68 30.2358C145.686 30.1812 145.669 30.2971 145.669 30.2924C145.664 30.3217 145.657 30.3508 145.65 30.3798C145.635 30.4425 145.616 30.5045 145.593 30.5647C145.612 30.5145 145.568 30.6163 145.57 30.6135C145.555 30.6439 145.538 30.6737 145.521 30.7028C145.506 30.7262 145.491 30.7484 145.476 30.7712C145.439 30.827 145.512 30.7372 145.462 30.7877C145.426 30.8234 145.392 30.8585 145.354 30.8923C145.413 30.8389 145.358 30.8894 145.343 30.8991C145.323 30.9122 145.303 30.9245 145.283 30.936C145.269 30.9436 145.255 30.9501 145.241 30.9577C145.175 30.9951 145.307 30.9415 145.233 30.9613C145.182 30.9753 145.13 30.9894 145.078 31.0032C145.005 31.0226 145.149 31.0048 145.073 31.0034C145.058 31.0031 145.042 31.0055 145.027 31.0061C144.981 31.0077 144.935 31.0046 144.888 31.0015C144.809 30.9962 144.96 31.0185 144.882 30.9998C144.859 30.9942 144.836 30.9903 144.813 30.9845C144.766 30.9727 144.721 30.9564 144.676 30.9409C144.755 30.9679 144.68 30.9425 144.665 30.935C144.643 30.9244 144.621 30.9131 144.6 30.9012C144.564 30.8812 144.529 30.8594 144.495 30.8359C144.483 30.8276 144.42 30.775 144.48 30.8266C144.461 30.8102 144.442 30.7942 144.423 30.7771C144.379 30.7364 144.339 30.6923 144.299 30.6471C144.245 30.5844 144.324 30.6831 144.295 30.6405C144.282 30.6223 144.269 30.6045 144.258 30.586C144.228 30.5406 144.205 30.4929 144.179 30.4456C144.137 30.3684 144.198 30.5063 144.168 30.4225C144.159 30.3961 144.149 30.37 144.141 30.3433C144.124 30.2883 144.111 30.2323 144.1 30.1758C144.086 30.1055 144.084 29.9503 144.094 29.8354C144.103 29.7305 144.079 29.887 144.102 29.7852C144.109 29.752 144.115 29.7185 144.123 29.6855C144.132 29.6528 144.141 29.6204 144.151 29.5884C144.155 29.5773 144.198 29.4655 144.178 29.5108C144.224 29.4033 144.285 29.2969 144.358 29.205C144.319 29.2539 144.385 29.1757 144.387 29.174C144.401 29.1587 144.415 29.1436 144.429 29.1289C144.451 29.1071 144.473 29.0859 144.496 29.0656C144.511 29.0521 144.526 29.0391 144.542 29.0264C144.515 29.0464 144.517 29.0453 144.547 29.0232C144.605 28.9859 144.662 28.9508 144.724 28.9211C144.712 28.927 144.667 28.94 144.726 28.9211C144.762 28.9094 144.797 28.8972 144.834 28.8884C144.846 28.8855 144.937 28.8713 144.857 28.8805C144.894 28.8762 144.931 28.8744 144.969 28.875C144.966 28.875 145.057 28.8813 145.012 28.8758C144.981 28.872 145.077 28.8916 145.09 28.8954C145.182 28.9235 145.264 28.9798 145.355 29.0742C145.443 29.1647 145.532 29.3023 145.582 29.4289C145.646 29.592 145.8 29.7059 145.982 29.6558C146.137 29.6131 146.273 29.4203 146.209 29.2561Z" fill="black"/>
<path d="M159.399 27.466C158.539 27.3705 155.518 27.114 155.904 29.2563C156.227 31.0428 159.267 30.4474 160.083 29.9863C160.447 29.7809 160.813 29.4241 160.862 28.9149C160.904 28.4731 160.681 28.0429 160.388 27.8094C160.095 27.5759 159.742 27.5042 159.399 27.466Z" fill="white"/>
<path d="M159.399 27.1416C158.019 26.9895 155.424 27.0106 155.549 29.0122C155.687 31.2203 158.645 31.0079 160.104 30.3391C160.758 30.0389 161.265 29.3858 161.179 28.6403C161.133 28.2477 160.945 27.8613 160.642 27.6017C160.287 27.2967 159.852 27.1957 159.399 27.1416C159.223 27.1207 159.075 27.306 159.074 27.4665C159.072 27.6592 159.225 27.7707 159.399 27.7914C159.992 27.8621 160.628 28.2208 160.536 28.9153C160.478 29.3548 160.041 29.6752 159.713 29.8043C159.034 30.0716 158.259 30.1894 157.532 30.1254C156.844 30.0647 156.233 29.7405 156.197 28.9863C156.162 28.2756 156.699 27.9585 157.335 27.821C158.007 27.6758 158.72 27.7165 159.399 27.7914C159.814 27.8371 159.81 27.187 159.399 27.1416Z" fill="black"/>
<path d="M158.013 28.3384C157.994 28.2889 157.973 28.2407 157.95 28.1943C157.772 27.8377 157.47 27.5755 157.142 27.5487C156.432 27.4907 155.738 28.3388 155.904 29.258C156.093 30.3073 157.396 30.726 157.918 29.8627C158.175 29.4386 158.197 28.8216 158.013 28.3384Z" fill="black"/>
<path d="M158.326 28.2508C158.186 27.897 157.968 27.5662 157.631 27.3723C157.336 27.2027 156.975 27.1747 156.657 27.2942C155.998 27.5417 155.592 28.2123 155.556 28.8995C155.524 29.5109 155.82 30.1118 156.346 30.4321C156.793 30.7038 157.404 30.7425 157.837 30.4198C158.483 29.937 158.591 28.9694 158.326 28.2508C158.265 28.0862 158.105 27.9746 157.926 28.0239C157.768 28.0674 157.638 28.2581 157.699 28.4235C157.802 28.7013 157.833 28.9309 157.797 29.2304C157.803 29.1759 157.786 29.2918 157.787 29.287C157.781 29.3163 157.774 29.3454 157.767 29.3744C157.752 29.4371 157.733 29.4991 157.71 29.5593C157.729 29.5092 157.685 29.6109 157.687 29.6081C157.672 29.6385 157.655 29.6684 157.638 29.6974C157.624 29.7208 157.608 29.7431 157.593 29.7658C157.556 29.8216 157.629 29.7318 157.579 29.7823C157.543 29.818 157.509 29.8532 157.472 29.887C157.531 29.8335 157.475 29.884 157.46 29.8937C157.44 29.9068 157.42 29.9191 157.4 29.9307C157.386 29.9382 157.372 29.9447 157.358 29.9523C157.292 29.9897 157.424 29.9361 157.351 29.956C157.299 29.97 157.247 29.984 157.195 29.9978C157.122 30.0173 157.266 29.9994 157.191 29.998C157.176 29.9977 157.159 30.0002 157.144 30.0007C157.098 30.0024 157.052 29.9992 157.005 29.9961C156.926 29.9908 157.077 30.0131 156.999 29.9944C156.976 29.9889 156.953 29.985 156.93 29.9791C156.883 29.9674 156.838 29.9511 156.793 29.9355C156.872 29.9625 156.797 29.9371 156.782 29.9296C156.76 29.919 156.738 29.9077 156.717 29.8959C156.681 29.8758 156.646 29.854 156.612 29.8306C156.6 29.8222 156.537 29.7696 156.597 29.8212C156.578 29.8048 156.559 29.7888 156.54 29.7717C156.496 29.7311 156.456 29.6869 156.417 29.6417C156.362 29.579 156.441 29.6778 156.412 29.6351C156.399 29.617 156.387 29.5991 156.375 29.5806C156.345 29.5352 156.322 29.4876 156.296 29.4403C156.254 29.363 156.315 29.5009 156.285 29.4171C156.276 29.3907 156.266 29.3646 156.258 29.3379C156.241 29.2829 156.228 29.227 156.217 29.1705C156.203 29.1001 156.201 28.945 156.211 28.83C156.22 28.7252 156.196 28.8817 156.219 28.7798C156.226 28.7466 156.232 28.7132 156.241 28.6801C156.249 28.6475 156.258 28.6151 156.269 28.583C156.272 28.5719 156.315 28.4601 156.295 28.5054C156.341 28.3979 156.402 28.2916 156.475 28.1996C156.436 28.2486 156.502 28.1704 156.504 28.1686C156.518 28.1533 156.532 28.1382 156.546 28.1235C156.568 28.1017 156.59 28.0805 156.613 28.0602C156.628 28.0468 156.643 28.0337 156.659 28.021C156.632 28.041 156.634 28.04 156.665 28.0178C156.722 27.9805 156.779 27.9455 156.841 27.9157C156.829 27.9216 156.784 27.9347 156.843 27.9157C156.879 27.904 156.914 27.8918 156.951 27.883C156.963 27.8801 157.054 27.866 156.974 27.8751C157.011 27.8709 157.049 27.869 157.086 27.8696C157.083 27.8696 157.174 27.8759 157.129 27.8704C157.098 27.8667 157.194 27.8862 157.207 27.89C157.299 27.9181 157.381 27.9745 157.472 28.0689C157.56 28.1594 157.649 28.2969 157.699 28.4235C157.764 28.5866 157.917 28.7005 158.099 28.6504C158.254 28.6077 158.39 28.4149 158.326 28.2508Z" fill="black"/>
<path d="M129.499 32.4559C127.527 35.5722 126.182 39.0752 125.425 42.679C125.203 43.7383 125.035 44.8078 124.91 45.8829C124.862 46.2975 125.513 46.2941 125.56 45.8829C126.094 41.2665 127.569 36.7206 130.06 32.7839C130.284 32.4295 129.722 32.1031 129.499 32.4559Z" fill="black"/>
<path d="M58.9724 42.5794C56.538 45.7946 54.8833 49.5788 53.9459 53.4906C53.6644 54.665 53.453 55.8535 53.2974 57.0508C53.2436 57.4642 53.8938 57.4603 53.9471 57.0508C54.4669 53.052 55.7184 49.1172 57.736 45.6188C58.2783 44.6785 58.8781 43.7727 59.5333 42.9073C59.7857 42.574 59.2218 42.2499 58.9724 42.5794Z" fill="black"/>
<path d="M15.7974 51.1818C15.3147 55.4325 15.9916 59.8641 17.886 63.712C18.0707 64.0871 18.6312 63.7582 18.447 63.3841C16.6022 59.6369 15.9776 55.3166 16.4471 51.1819C16.4942 50.7671 15.8442 50.7705 15.7974 51.1818Z" fill="black"/>
<path d="M167.067 57.9514C166.876 61.3377 166.2 64.6894 165.018 67.87C164.872 68.2624 165.499 68.4318 165.644 68.0427C166.846 64.8085 167.523 61.3942 167.717 57.9515C167.74 57.5337 167.09 57.535 167.067 57.9514Z" fill="black"/>
<path d="M135.943 73.0121C137.277 77.8627 138.472 82.751 139.528 87.6697C140.596 92.6454 141.522 97.6516 142.307 102.68C142.752 105.529 143.151 108.385 143.505 111.247C143.556 111.657 144.206 111.662 144.155 111.247C143.526 106.171 142.76 101.111 141.85 96.0772C140.944 91.0645 139.896 86.0774 138.705 81.1247C138.038 78.3515 137.326 75.5895 136.57 72.8395C136.459 72.4369 135.832 72.6077 135.943 73.0121Z" fill="black"/>
<path d="M145.901 73.9269C146.868 76.3283 147.673 78.7932 148.314 81.3011C148.906 83.6177 149.563 86.3633 148.475 88.6382C148.045 89.5356 147.279 90.522 146.185 90.5021C145.767 90.4944 145.767 91.1441 146.185 91.1517C147.197 91.1702 148.018 90.5217 148.584 89.7345C149.275 88.7723 149.586 87.5964 149.665 86.4277C149.759 85.036 149.53 83.6379 149.222 82.2848C148.912 80.9207 148.537 79.5693 148.122 78.2334C147.652 76.7192 147.12 75.225 146.528 73.7542C146.373 73.3712 145.745 73.5384 145.901 73.9269Z" fill="black"/>
<path d="M37.8201 70.5508C36.0549 73.9782 35.839 77.9693 35.4784 81.7364C35.3627 82.9457 35.2469 84.1551 35.1312 85.3644C35.0914 85.7804 35.7413 85.7776 35.7809 85.3644C35.9746 83.3405 36.1575 81.3153 36.3654 79.2928C36.5564 77.434 36.7939 75.5696 37.2857 73.7628C37.5567 72.7673 37.9082 71.7968 38.381 70.8787C38.5722 70.5076 38.0118 70.1786 37.8201 70.5508Z" fill="black"/>
<path d="M42.4485 73.2144C41.8802 74.0152 41.5797 74.9782 41.4892 75.9496C41.4729 76.1245 41.6502 76.2745 41.8141 76.2745C42.0033 76.2745 42.1226 76.1251 42.1389 75.9496C42.2189 75.0901 42.5088 74.2478 43.0095 73.5423C43.1111 73.3991 43.0349 73.1809 42.8929 73.0978C42.7301 73.0025 42.5503 73.0709 42.4485 73.2144Z" fill="black"/>
<path d="M39.5189 82.7735C39.3152 83.563 39.1116 84.3524 38.9079 85.1419C38.8641 85.3117 38.9637 85.4945 39.1348 85.5415C39.3023 85.5876 39.4904 85.4852 39.5344 85.3147C39.738 84.5252 39.9417 83.7357 40.1453 82.9463C40.1891 82.7765 40.0895 82.5937 39.9185 82.5467C39.7509 82.5006 39.5629 82.603 39.5189 82.7735Z" fill="black"/>
<path d="M36.3462 94.5387C35.9791 95.3412 35.7639 96.1904 35.6839 97.0687C35.668 97.2437 35.8446 97.3936 36.0088 97.3936C36.1977 97.3936 36.3176 97.2442 36.3336 97.0687C36.4025 96.3131 36.5914 95.5571 36.9072 94.8666C36.9801 94.7072 36.9527 94.5169 36.7907 94.4221C36.6509 94.3404 36.4196 94.3783 36.3462 94.5387Z" fill="black"/>
<path d="M43.8936 81.5508C43.4035 82.7195 43.1345 83.9682 43.0543 85.2316C43.0278 85.6491 43.6776 85.6475 43.704 85.2316C43.7806 84.0258 44.0526 82.8382 44.5201 81.7235C44.588 81.5616 44.447 81.3661 44.2932 81.3239C44.1058 81.2724 43.9618 81.3883 43.8936 81.5508Z" fill="black"/>
<path d="M41.1886 93.2309C40.9332 94.4807 40.6779 95.7303 40.4225 96.9801C40.3391 97.3882 40.9653 97.5628 41.049 97.1528C41.3044 95.9031 41.5597 94.6534 41.8151 93.4037C41.8985 92.9955 41.2723 92.8209 41.1886 93.2309Z" fill="black"/>
<path d="M37.9923 105.667C37.7125 106.388 37.5616 107.153 37.5188 107.924C37.5093 108.094 37.6749 108.256 37.8436 108.249C38.0277 108.24 38.1583 108.106 38.1685 107.924C38.2077 107.217 38.3568 106.515 38.6188 105.84C38.6804 105.681 38.551 105.477 38.3919 105.44C38.2056 105.398 38.0583 105.497 37.9923 105.667Z" fill="black"/>
<path d="M47.0186 74.6867C46.9674 74.9497 46.9163 75.2128 46.8652 75.4759C46.8483 75.5626 46.8521 75.6479 46.8979 75.7262C46.9373 75.7936 47.0146 75.8579 47.0921 75.8755C47.1752 75.8944 47.2686 75.8904 47.3424 75.8428C47.4104 75.7989 47.4757 75.731 47.4917 75.6486C47.5428 75.3855 47.5939 75.1224 47.645 74.8594C47.6619 74.7726 47.6581 74.6874 47.6123 74.6091C47.5729 74.5417 47.4956 74.4774 47.4181 74.4598C47.335 74.4408 47.2417 74.4449 47.1678 74.4925C47.0998 74.5364 47.0346 74.6043 47.0186 74.6867Z" fill="black"/>
<path d="M33.6951 70.3312C33.4359 71.4478 33.1767 72.5644 32.9175 73.681C32.8231 74.0878 33.4493 74.2615 33.544 73.8537C33.8032 72.7371 34.0624 71.6205 34.3216 70.5039C34.416 70.0971 33.7898 69.9234 33.6951 70.3312Z" fill="black"/>
<path d="M33.6838 78.9098C33.6304 79.7648 33.5771 80.6198 33.5237 81.4748C33.5127 81.6501 33.6808 81.7996 33.8485 81.7996C34.0335 81.7996 34.1624 81.6506 34.1734 81.4748C34.2267 80.6198 34.2801 79.7648 34.3335 78.9098C34.3445 78.7345 34.1764 78.585 34.0087 78.585C33.8237 78.585 33.6948 78.734 33.6838 78.9098Z" fill="black"/>
<path d="M30.333 78.226C30.0327 79.5512 29.8864 80.9091 29.8945 82.2677C29.897 82.6857 30.5467 82.6866 30.5442 82.2677C30.5364 80.9651 30.6715 79.6693 30.9595 78.3987C31.0517 77.9916 30.4255 77.8177 30.333 78.226Z" fill="black"/>
<path d="M31.3998 87.2033C31.4938 88.24 31.6973 89.2637 32.0299 90.2506C32.086 90.4168 32.2535 90.5259 32.4295 90.4775C32.5917 90.4329 32.7127 90.2449 32.6564 90.0779C32.3426 89.1468 32.1382 88.1818 32.0495 87.2033C32.0337 87.0286 31.9116 86.8784 31.7247 86.8784C31.5612 86.8784 31.3839 87.0275 31.3998 87.2033Z" fill="black"/>
<path d="M28.1881 91.8415C28.4681 92.7742 28.9597 93.6621 29.6819 94.3247C29.8111 94.4433 30.0135 94.4525 30.1413 94.3247C30.2615 94.2045 30.271 93.9844 30.1413 93.8653C29.4993 93.2763 29.0654 92.5042 28.8146 91.6688C28.7642 91.5008 28.587 91.3947 28.415 91.4419C28.2483 91.4877 28.1375 91.6729 28.1881 91.8415Z" fill="black"/>
<path d="M71.1967 121.353C70.6827 121.311 70.3212 120.857 70.1007 120.432C69.8193 119.89 69.7057 119.254 69.7513 118.647C69.793 118.092 70.0168 117.471 70.5186 117.174C71.0017 116.888 71.5862 117.031 72.0227 117.337C72.6267 117.76 72.9433 118.474 72.9381 119.2L73.5762 119.114C73.1761 117.06 73.328 114.898 73.983 112.912C74.2933 111.971 74.7263 111.069 75.2941 110.256C75.4924 109.971 75.9718 109.164 76.39 109.433C76.7895 109.691 76.9378 110.423 77.0594 110.843C77.436 112.145 77.5449 113.506 77.4231 114.853C77.3951 115.163 77.9037 115.312 78.0284 115.017C78.5824 113.708 79.5696 112.507 80.9719 112.084L80.5723 111.857C81.1966 113.988 81.0988 116.382 80.2128 118.429C80.0771 118.742 80.4474 119.113 80.723 118.822C81.6488 117.847 83.3881 116.985 84.4524 118.269C85.144 119.104 85.4354 120.684 84.6894 121.574L85.1996 121.967C85.561 121.172 86.3262 120.753 87.1874 120.99C88.0763 121.235 88.6654 122.046 88.7426 122.947C88.778 123.361 89.428 123.365 89.3923 122.947C89.2904 121.757 88.5423 120.69 87.3601 120.364C86.2397 120.055 85.1183 120.583 84.6386 121.639C84.4991 121.947 84.892 122.339 85.1488 122.033C86.1351 120.857 85.8565 118.929 84.9118 117.81C84.3715 117.169 83.5238 116.888 82.7026 116.994C81.7501 117.116 80.9127 117.68 80.2636 118.363L80.7738 118.757C81.7311 116.546 81.8758 113.996 81.1988 111.684C81.1504 111.519 80.9698 111.405 80.7992 111.457C79.2419 111.928 78.0876 113.223 77.4675 114.689L78.0728 114.853C78.196 113.489 78.0827 112.1 77.7166 110.779C77.4755 109.909 76.8526 108.084 75.6211 108.924C75.1617 109.238 74.8228 109.774 74.5274 110.235C74.2201 110.715 73.9576 111.223 73.7335 111.747C73.2665 112.839 72.9666 113.988 72.8161 115.165C72.6407 116.538 72.6851 117.928 72.9497 119.286C73.021 119.653 73.5852 119.558 73.5878 119.2C73.5985 117.7 72.2141 115.923 70.5562 116.45C68.903 116.976 68.8614 119.224 69.4364 120.541C69.7601 121.282 70.3509 121.933 71.1967 122.003C71.6134 122.037 71.6112 121.387 71.1967 121.353Z" fill="black"/>
<path d="M105.008 122.855C104.881 122.343 104.945 121.794 105.175 121.319C105.363 120.928 105.7 120.496 106.164 120.447C106.617 120.401 106.997 120.769 107.217 121.124C107.507 121.593 107.627 122.166 107.526 122.709C107.45 123.12 108.01 123.277 108.153 122.881C108.43 122.114 109.082 121.501 109.914 121.411C110.741 121.322 111.451 121.778 111.834 122.493C112.031 122.862 112.592 122.534 112.395 122.166C111.896 121.233 110.916 120.647 109.848 120.769C108.739 120.895 107.898 121.681 107.526 122.709L108.153 122.881C108.38 121.656 107.678 119.706 106.155 119.799C104.683 119.888 104.084 121.821 104.381 123.028C104.481 123.434 105.108 123.262 105.008 122.855Z" fill="black"/>
<path d="M178.327 119.194C177.355 117.629 176.765 115.836 176.543 114.009C176.487 113.549 176.454 113.085 176.444 112.622C176.435 112.196 176.419 111.756 176.52 111.34C176.566 111.148 176.69 110.619 176.964 110.832C177.132 110.963 177.239 111.206 177.344 111.388C177.459 111.588 177.568 111.792 177.671 111.998C178.15 112.962 178.483 113.99 178.702 115.043C178.775 115.396 179.377 115.323 179.34 114.956C179.179 113.386 179.771 111.436 181.299 110.716L180.822 110.522C181.488 112.972 181.709 115.521 181.509 118.052C181.486 118.343 181.874 118.465 182.063 118.281C182.689 117.674 183.571 117.633 184.316 118.05C185.161 118.523 185.692 119.428 185.788 120.381C185.817 120.672 186.117 120.795 186.342 120.61C187.478 119.68 188.922 120.693 189.314 121.87C189.446 122.265 190.074 122.095 189.941 121.697C189.654 120.836 189.055 120.102 188.196 119.767C187.395 119.456 186.542 119.611 185.883 120.151L186.437 120.381C186.317 119.179 185.674 118.033 184.584 117.456C183.59 116.931 182.423 117.027 181.604 117.822L182.159 118.052C182.363 115.467 182.129 112.851 181.449 110.349C181.39 110.132 181.158 110.067 180.971 110.155C179.254 110.965 178.509 113.178 178.69 114.956L179.328 114.87C179.101 113.78 178.747 112.719 178.255 111.718C177.956 111.109 177.295 109.612 176.395 110.268C175.66 110.804 175.77 112.117 175.803 112.9C175.849 113.996 176.017 115.091 176.307 116.148C176.633 117.333 177.117 118.477 177.766 119.522C177.986 119.876 178.548 119.55 178.327 119.194Z" fill="black"/>
<path d="M6.26372 124.197C5.43165 124.061 5.62886 122.622 5.85342 122.09C6.4491 120.679 8.19677 121.401 9.1887 121.892C9.46205 122.028 9.70491 121.806 9.66589 121.526C9.5128 120.426 9.74476 118.791 10.8133 118.183C11.2498 117.935 11.7638 118.074 12.1338 118.38C12.6069 118.771 12.816 119.359 12.7664 119.962C12.7321 120.378 13.3819 120.376 13.416 119.962C13.5301 118.577 12.1913 116.905 10.693 117.523C9.16917 118.151 8.84041 120.268 9.03939 121.698L9.51658 121.331C8.6953 120.924 7.78021 120.496 6.83893 120.628C6.10731 120.731 5.54307 121.164 5.2589 121.839C4.88692 122.722 4.81436 124.615 6.09094 124.823C6.49995 124.89 6.67598 124.264 6.26372 124.197Z" fill="black"/>
<path d="M20.4096 22.7033C21.4037 21.3694 22.9878 20.4879 24.6773 20.7112C24.8527 20.7344 25.0005 20.5453 25.0022 20.3864C25.0042 20.1919 24.8506 20.0844 24.6773 20.0615C22.753 19.8072 20.9687 20.8725 19.8486 22.3753C19.743 22.5171 19.8266 22.7368 19.9652 22.8198C20.1297 22.9184 20.3053 22.8432 20.4096 22.7033Z" fill="black"/>
<path d="M36.3588 21.03C35.6431 20.1181 34.6885 19.4153 33.5889 19.0392C32.3188 18.6048 30.9399 18.6749 29.6654 19.0497C29.2652 19.1675 29.4356 19.7946 29.8382 19.6762C31.0103 19.3314 32.2484 19.2663 33.4162 19.6657C34.4124 20.0063 35.2535 20.6666 35.8994 21.4894C36.1574 21.818 36.6143 21.3554 36.3588 21.03Z" fill="black"/>
<path d="M25.6513 20.0462C25.0432 25.1599 25.0382 30.3384 25.6362 35.4532C25.6842 35.8635 26.3344 35.8684 26.2859 35.4532C25.6879 30.3384 25.6928 25.1599 26.301 20.0462C26.3502 19.6319 25.7001 19.6355 25.6513 20.0462Z" fill="black"/>
<path d="M27.4719 39.8703C27.5642 39.3723 27.9602 38.9987 28.4814 39.2005C28.9633 39.3871 29.3247 39.8684 29.5759 40.3005C30.0902 41.1852 30.3041 42.2362 30.4068 43.2437C30.4647 43.8109 30.5098 44.3946 30.4652 44.9641C30.4298 45.4161 30.3096 46.0411 29.8899 46.3034C29.5881 46.492 29.4048 46.1584 29.2517 45.9379C29.094 45.7107 28.9532 45.4718 28.8283 45.225C28.5625 44.6997 28.384 44.1386 28.263 43.5635C28.1769 43.1546 27.5505 43.3276 27.6365 43.7362C27.7619 44.3323 27.9547 44.9097 28.2204 45.4583C28.445 45.9218 28.736 46.4685 29.1335 46.8074C29.5556 47.1674 30.1098 47.0256 30.475 46.6578C30.8388 46.2914 31.011 45.7743 31.0808 45.274C31.2378 44.1497 31.08 42.9009 30.826 41.8C30.5992 40.8168 30.1994 39.7997 29.4547 39.0907C29.0346 38.6908 28.4437 38.3683 27.849 38.5334C27.3155 38.6815 26.9437 39.1678 26.8454 39.6976C26.7697 40.1063 27.3956 40.2815 27.4719 39.8703Z" fill="black"/>
<path d="M27.8974 43.5348C28.7669 43.143 29.6364 42.7512 30.5059 42.3594C30.4983 43.0671 30.4907 43.7748 30.483 44.4824C30.4785 44.9037 30.4716 45.339 30.3364 45.7224C30.2013 46.1058 29.9015 46.4256 29.577 46.3846C29.2659 46.3453 29.033 46.0033 28.8658 45.662C28.623 45.1664 28.4453 44.6175 28.3429 44.0461C28.3279 43.9626 28.319 43.86 28.3699 43.8051" fill="black"/>
<path d="M28.061 43.8165C28.9305 43.4247 29.8 43.0329 30.6695 42.6411L30.1808 42.3606C30.174 42.9896 30.1672 43.6187 30.1604 44.2477C30.1548 44.7682 30.2244 45.4556 29.8827 45.8945C29.7806 46.0257 29.6488 46.1183 29.4992 46.009C29.3179 45.8766 29.2093 45.6333 29.116 45.4371C29.0021 45.1977 28.9099 44.9488 28.8327 44.6954C28.7909 44.5581 28.7538 44.4195 28.7214 44.2798C28.7051 44.2093 28.6899 44.1387 28.676 44.0678C28.6688 44.0322 28.6621 43.9966 28.6558 43.9609C28.657 43.9328 28.6552 43.9359 28.6501 43.9702C28.8719 43.6144 28.3101 43.2878 28.0891 43.6423C27.9033 43.9403 28.0717 44.387 28.1564 44.6964C28.2509 45.0414 28.3762 45.3773 28.5256 45.7022C28.782 46.2595 29.2856 46.9588 29.9891 46.6292C30.6642 46.3129 30.7819 45.4381 30.8023 44.7825C30.8274 43.976 30.8217 43.1675 30.8304 42.3606C30.8333 42.094 30.5571 41.983 30.3416 42.0801C29.4721 42.4719 28.6026 42.8637 27.7331 43.2555C27.5731 43.3276 27.5347 43.5599 27.6166 43.7C27.7128 43.8645 27.9004 43.8888 28.061 43.8165Z" fill="black"/>
<path d="M152.401 34.0551C152.655 33.5602 153.054 33.2245 153.552 32.9893C153.782 32.881 154.024 32.801 154.267 32.7281C154.586 32.6323 154.93 32.5093 155.267 32.533C155.824 32.5723 156.175 33.1291 156.288 33.6255C156.41 34.166 156.29 34.8194 155.916 35.2403C155.639 35.5521 156.097 36.0132 156.376 35.6997C157.166 34.8093 157.188 33.3382 156.396 32.4415C155.972 31.9613 155.388 31.8151 154.77 31.9265C154.226 32.0245 153.665 32.2112 153.17 32.4547C152.604 32.7327 152.129 33.1632 151.84 33.7272C151.65 34.0986 152.21 34.4277 152.401 34.0551Z" fill="black"/>
<path d="M152.438 39.9883C152.116 40.9731 151.083 41.8936 150.042 41.266C148.826 40.5332 148.879 38.9587 148.949 37.7254C148.973 37.3077 148.323 37.309 148.3 37.7254C148.226 39.0061 148.226 40.3682 149.153 41.3687C149.893 42.1668 151.046 42.3796 151.955 41.7286C152.493 41.3429 152.86 40.7865 153.065 40.1611C153.195 39.7628 152.568 39.5921 152.438 39.9883Z" fill="black"/>
<path d="M148.375 38.0709C148.697 37.8165 149.018 37.5621 149.34 37.3077C149.401 37.2596 149.435 37.1516 149.435 37.078C149.435 36.9983 149.4 36.9032 149.34 36.8483C149.278 36.7915 149.197 36.7493 149.111 36.7532C149.019 36.7573 148.952 36.7919 148.881 36.8483C148.559 37.1027 148.237 37.3571 147.915 37.6115C147.854 37.6596 147.82 37.7676 147.82 37.8412C147.82 37.9209 147.856 38.016 147.915 38.0709C147.977 38.1277 148.059 38.1699 148.145 38.166C148.237 38.1619 148.303 38.1273 148.375 38.0709Z" fill="black"/>
<path d="M144.051 25.4938C144.516 24.6228 145.358 24.1737 146.267 23.8822C147.267 23.5617 148.276 23.2906 149.046 22.5323C149.344 22.2384 148.885 21.7791 148.587 22.0729C147.811 22.8363 146.749 23.0087 145.765 23.3678C144.822 23.7121 143.974 24.2588 143.491 25.1659C143.294 25.5347 143.854 25.8633 144.051 25.4938Z" fill="black"/>
<path d="M159.026 20.7825C157.757 19.547 155.974 18.1032 154.125 19.0653C153.754 19.2584 154.083 19.8193 154.453 19.6263C155.991 18.8258 157.541 20.244 158.567 21.2419C158.867 21.5337 159.327 21.0747 159.026 20.7825Z" fill="black"/>
<path d="M52.7942 28.8018C58.9715 27.5884 64.4624 21.7198 66.5523 14.1128C63.5335 11.1022 60.4597 8.20676 57.1123 5.85703C49.7257 0.671972 40.6877 -1.60349 32.8296 2.25504C27.954 4.64913 23.8292 9.30783 21.0725 15.0393C26.2799 13.8378 31.1818 10.4631 34.8262 5.50466C35.6487 12.4023 39.765 18.4604 44.952 20.4068C45.1788 20.4919 45.4226 20.5823 45.5712 20.8194C45.6874 21.0048 45.7252 21.2497 45.7594 21.484C45.9436 22.7454 46.1277 24.0068 46.3119 25.2681C46.6054 22.8725 47.4725 20.489 49.0216 19.1193C50.5706 17.7496 52.8656 17.6719 54.2235 19.3465C55.2495 20.6116 55.5752 22.6513 55.229 24.4283C54.8829 26.2053 53.9393 27.7206 52.7942 28.8018Z" fill="black"/>
<path d="M52.8802 29.1151C58.292 28.0341 62.5633 23.7418 65.0094 18.9726C65.79 17.4505 66.4088 15.8474 66.8652 14.1991C66.8961 14.0876 66.8635 13.9647 66.7816 13.8831C63.8809 10.9919 60.8936 8.15877 57.5542 5.77359C54.491 3.58571 51.0763 1.83295 47.4343 0.844639C43.9941 -0.0888893 40.346 -0.307029 36.8557 0.486176C33.4993 1.24892 30.455 2.95136 27.8896 5.22488C25.2249 7.58647 23.0728 10.5124 21.4101 13.6508C21.196 14.0549 20.9905 14.4635 20.7916 14.8754C20.6685 15.1303 20.8708 15.4197 21.1585 15.3526C25.496 14.3409 29.4041 11.9128 32.5024 8.74554C33.4433 7.78367 34.3077 6.75108 35.1063 5.66861L34.501 5.50465C34.8884 8.68973 35.9372 11.8011 37.6661 14.5123C39.1992 16.9165 41.2959 19.0657 43.8926 20.3059C44.2362 20.47 44.5902 20.6029 44.9414 20.7488C45.1592 20.8393 45.2955 20.9391 45.3697 21.1714C45.4473 21.4144 45.4626 21.6853 45.4993 21.9366C45.6657 23.0759 45.832 24.2152 45.9984 25.3545C46.0562 25.7502 46.5953 25.5946 46.6364 25.2681C46.8293 23.738 47.2445 22.1905 48.0335 20.855C48.7173 19.6977 49.7411 18.6755 51.1175 18.4538C52.43 18.2424 53.6386 18.9018 54.3004 20.029C55.0271 21.2665 55.1848 22.8494 54.9336 24.2448C54.6349 25.9039 53.7789 27.4121 52.5642 28.5721C52.2612 28.8614 52.721 29.3204 53.0235 29.0315C55.3737 26.7873 56.5152 23.0626 55.0354 20.0262C54.3813 18.6841 53.0934 17.7426 51.5697 17.7664C50.0451 17.7902 48.7775 18.6953 47.898 19.8833C46.7512 21.4323 46.2244 23.3821 45.9867 25.2681L46.6248 25.1817C46.4762 24.1645 46.3278 23.1473 46.1792 22.1301C46.1164 21.6999 46.102 21.2195 45.9293 20.8159C45.7784 20.4633 45.4971 20.276 45.1523 20.1375C43.8723 19.6229 42.6918 18.9618 41.6255 18.0799C39.312 16.1666 37.5934 13.5709 36.4954 10.7917C35.8258 9.09648 35.3708 7.31406 35.1507 5.50463C35.111 5.17834 34.7446 5.07066 34.5454 5.34066C31.9089 8.91401 28.4083 11.9219 24.2945 13.6548C23.2246 14.1055 22.1162 14.4624 20.9858 14.726L21.3526 15.2032C22.8795 12.0406 24.8605 9.07765 27.3656 6.60461C29.7408 4.25989 32.5901 2.39749 35.8023 1.43506C39.1666 0.427064 42.7505 0.433359 46.1634 1.19885C49.7158 1.99565 53.0654 3.556 56.0954 5.55692C59.4258 7.7562 62.3871 10.4738 65.2293 13.261C65.5952 13.6198 65.9593 13.9806 66.3222 14.3424L66.2387 14.0263C64.7782 19.3005 61.5067 24.3802 56.6166 27.0546C55.3912 27.7248 54.0778 28.2148 52.7075 28.4885C52.2978 28.5703 52.4712 29.1968 52.8802 29.1151Z" fill="black"/>
<path d="M124.773 46.4972C126.974 49.5434 129.175 52.5897 131.376 55.6359C132.392 57.0424 133.384 58.4906 134.601 59.7346C135.728 60.8871 137.067 61.8027 138.468 62.5899C139.883 63.3848 141.389 64.0718 143.026 64.2067C144.349 64.3158 145.687 64.0578 146.911 63.5547C149.615 62.443 151.794 60.2892 153.437 57.9161C155.407 55.0714 156.56 51.6146 159.054 49.1471C159.352 48.8525 158.892 48.3932 158.595 48.6877C156.464 50.7958 155.279 53.6324 153.775 56.1752C152.291 58.6829 150.319 61.0187 147.737 62.4425C146.613 63.0623 145.365 63.4911 144.077 63.5685C142.541 63.6608 141.091 63.2085 139.729 62.5269C138.302 61.813 136.907 60.9611 135.713 59.8981C134.471 58.7931 133.483 57.4473 132.514 56.1068C130.119 52.7957 127.728 49.4818 125.334 46.1693C125.092 45.8335 124.528 46.1574 124.773 46.4972Z" fill="black"/>
<path d="M135.486 42.2033C136.274 43.957 137.299 45.6361 138.637 47.0262C139.794 48.2268 141.259 49.2569 142.932 49.5416C147.025 50.2383 150.182 46.5216 152.73 43.91C154.277 42.3245 155.949 40.6527 158.085 39.9047C158.477 39.7674 158.309 39.1394 157.913 39.2782C154.156 40.5939 151.875 44.2367 148.943 46.7037C147.525 47.897 145.802 48.9897 143.884 48.9794C142.255 48.9706 140.773 48.1345 139.599 47.0573C138.044 45.6305 136.906 43.7879 136.047 41.8754C135.876 41.4946 135.316 41.8247 135.486 42.2033Z" fill="black"/>
<path d="M157.645 42.1175C159.14 41.5619 160.486 40.6939 161.652 39.6087C161.958 39.3232 161.498 38.8646 161.192 39.1493C160.113 40.1544 158.858 40.9759 157.472 41.491C157.308 41.5521 157.196 41.7109 157.245 41.8906C157.289 42.0486 157.479 42.1789 157.645 42.1175Z" fill="black"/>
<path d="M159.963 43.8255C160.883 43.3944 161.688 42.7334 162.337 41.9564C162.449 41.8219 162.469 41.6289 162.337 41.4971C162.221 41.3814 161.991 41.3618 161.878 41.4971C161.253 42.2449 160.519 42.8505 159.636 43.2645C159.477 43.339 159.436 43.5673 159.519 43.709C159.614 43.8717 159.804 43.9003 159.963 43.8255Z" fill="black"/>
<path d="M160.288 45.954C160.698 45.7105 161.107 45.467 161.516 45.2235C161.662 45.1366 161.728 44.9273 161.632 44.779C161.538 44.6321 161.344 44.5695 161.188 44.6625C160.779 44.906 160.37 45.1495 159.96 45.393C159.814 45.4799 159.748 45.6892 159.844 45.8374C159.939 45.9844 160.132 46.047 160.288 45.954Z" fill="black"/>
<path d="M160.123 47.7263C160.541 47.7263 160.542 47.0767 160.123 47.0767C159.705 47.0767 159.704 47.7263 160.123 47.7263Z" fill="black"/>
<path d="M54.8283 58.5344C57.0905 61.2175 58.9295 64.2451 60.3683 67.4428C61.1362 69.1495 61.7599 70.9074 62.331 72.6883C62.9026 74.4711 63.4575 76.2733 64.2862 77.9577C65.0741 79.5592 66.1433 81.1254 67.6959 82.0673C68.0543 82.2847 68.3812 81.7231 68.0238 81.5063C66.6264 80.6585 65.6688 79.2501 64.9416 77.8187C64.1028 76.1677 63.5567 74.3864 62.9935 72.6282C61.8912 69.1873 60.5252 65.8633 58.6498 62.7658C57.6522 61.1181 56.5293 59.5477 55.2876 58.075C55.0178 57.7549 54.5602 58.2165 54.8283 58.5344Z" fill="black"/>
<path d="M66.1361 52.555C67.6465 54.7829 68.5077 57.3736 69.1094 59.9777C69.769 62.8326 70.1038 65.7478 70.5307 68.643C70.7777 70.3179 71.0568 71.9888 71.4414 73.6383C71.5363 74.0453 72.1629 73.873 72.0679 73.4656C70.7351 67.7495 70.72 61.731 68.676 56.1822C68.1651 54.7952 67.5278 53.4524 66.6971 52.2271C66.4637 51.883 65.9006 52.2077 66.1361 52.555Z" fill="black"/>
<path d="M71.6793 78.2164C72.0895 78.3877 72.5365 78.4218 72.972 78.3459C73.0478 78.3327 73.1288 78.2605 73.1662 78.1966C73.2069 78.127 73.2242 78.0244 73.1989 77.9463C73.1404 77.7656 72.9792 77.6881 72.7993 77.7194C72.7726 77.7241 72.7458 77.7283 72.7189 77.7321L72.8053 77.7205C72.6304 77.7435 72.4546 77.7433 72.2797 77.7203L72.366 77.7319C72.1889 77.7068 72.0171 77.6589 71.852 77.59C71.7799 77.5598 71.6657 77.5853 71.6017 77.6227C71.5343 77.6621 71.4701 77.7394 71.4524 77.8169C71.4335 77.9 71.4376 77.9934 71.4852 78.0672C71.5342 78.1431 71.5966 78.1819 71.6793 78.2164Z" fill="black"/>
<path d="M160.756 12.9616C159.718 11.5958 158.547 10.3251 157.227 9.17826C149.231 2.22823 138.456 3.01126 129.444 7.42371C127.953 8.1536 126.497 8.97641 125.064 9.85921C125.308 16.649 127.711 23.2845 131.623 27.8363C130.743 25.6381 131.989 22.5413 133.887 22.2092C135.785 21.8771 137.624 24.4343 137.228 26.8556C138.225 23.8296 137.914 20.3853 137.585 17.1243C139.813 16.8241 142.041 16.524 144.269 16.224C144.365 14.7468 144.46 13.2696 144.556 11.7923C145.099 13.0939 145.642 14.3955 146.185 15.6972C148.343 15.3473 150.501 14.9975 152.659 14.6477C152.413 13.5972 152.345 12.4778 152.461 11.3905C153.782 11.1761 153.965 14.3738 155.278 14.6556C155.557 14.7155 155.841 14.6223 156.115 14.5297C157.662 14.007 159.209 13.4843 160.756 12.9616Z" fill="black"/>
<path d="M161.036 12.7964C159.339 10.5735 157.32 8.58975 154.963 7.07154C152.87 5.72358 150.531 4.7638 148.099 4.23422C143.226 3.17285 138.112 3.7956 133.433 5.41111C130.427 6.44859 127.603 7.91572 124.899 9.57751C124.804 9.63606 124.734 9.74293 124.738 9.858C124.933 15.0427 126.317 20.2592 128.993 24.7249C129.698 25.9026 130.5 27.0217 131.393 28.0648C131.598 28.3046 132.052 28.0496 131.935 27.7488C131.383 26.323 131.666 24.4876 132.677 23.3219C133.113 22.8182 133.717 22.4371 134.408 22.5122C135.18 22.5963 135.825 23.1848 136.237 23.8076C136.805 24.6691 137.069 25.7429 136.914 26.7681C136.853 27.1732 137.409 27.3483 137.541 26.9408C138.566 23.7753 138.236 20.3741 137.909 17.123L137.67 17.4363C139.898 17.1362 142.127 16.8361 144.355 16.536C144.5 16.5164 144.585 16.3517 144.593 16.2227C144.689 14.7455 144.784 13.2683 144.88 11.7911L144.242 11.8774C144.785 13.1791 145.328 14.4807 145.871 15.7823C145.945 15.9585 146.078 16.0404 146.271 16.0091C148.429 15.6593 150.587 15.3095 152.745 14.9597C152.923 14.9308 153.007 14.716 152.972 14.5601C152.734 13.5174 152.678 12.4527 152.785 11.3893L152.46 11.7141C152.862 11.6607 153.082 12.0225 153.259 12.3337C153.524 12.8011 153.715 13.3062 153.966 13.7806C154.189 14.1994 154.473 14.6439 154.909 14.864C155.218 15.0198 155.557 15.0198 155.889 14.938C156.397 14.8127 156.895 14.6071 157.39 14.4397L160.842 13.2737C161.236 13.1406 161.067 12.5128 160.669 12.6472C159.677 12.9823 158.686 13.3173 157.694 13.6524L156.206 14.155C155.885 14.2634 155.498 14.4502 155.173 14.2694C154.776 14.0488 154.558 13.5288 154.371 13.1402C154.149 12.6787 153.961 12.19 153.671 11.7648C153.394 11.3575 152.989 10.9942 152.46 11.0645C152.272 11.0895 152.155 11.1941 152.136 11.3893C152.023 12.5094 152.095 13.6353 152.345 14.7329L152.572 14.3333C150.414 14.6831 148.256 15.0329 146.098 15.3827L146.497 15.6096C145.954 14.308 145.411 13.0064 144.868 11.7048C144.731 11.375 144.255 11.4048 144.23 11.7911C144.135 13.2683 144.039 14.7455 143.943 16.2227L144.182 15.9095C141.954 16.2096 139.726 16.5097 137.497 16.8098C137.369 16.8271 137.246 16.9962 137.259 17.1231C137.581 20.3159 137.921 23.6589 136.914 26.7681L137.541 26.9408C137.828 25.0409 136.918 22.5838 134.931 21.9629C133.079 21.3844 131.681 23.1591 131.227 24.7384C130.93 25.7701 130.918 26.9132 131.309 27.9215L131.852 27.6055C128.639 23.8509 126.704 19.0827 125.85 14.2483C125.594 12.7972 125.443 11.3303 125.388 9.85805L125.227 10.1385C129.691 7.39513 134.537 5.22908 139.777 4.56822C144.559 3.96506 149.491 4.65839 153.709 7.07059C156.359 8.58532 158.628 10.7054 160.475 13.1244C160.725 13.4523 161.29 13.1289 161.036 12.7964Z" fill="black"/>
</svg>
