<svg width="137" height="140" viewBox="0 0 137 140" fill="none" xmlns="http://www.w3.org/2000/svg">
<path d="M68.2011 80.4522C68.0073 78.3407 68.7865 76.2021 70.1134 74.5482C71.4403 72.8942 73.2805 71.7004 75.253 70.9223C77.5431 70.0188 80.1114 69.6539 82.4848 70.308C85.3871 71.1079 87.7715 73.4297 88.8703 76.2325C90.4527 80.2687 89.2168 84.1655 87.4363 87.8594C86.4943 89.8136 85.2384 91.6108 84.3955 93.6096C83.7524 95.1345 83.3604 96.7517 82.9948 98.3658C80.5891 108.988 78.8444 119.809 77.0253 130.543C76.7662 132.072 76.4989 133.602 76.2703 135.137C76.0675 136.499 75.8005 138.254 74.4852 139.001C73.7891 139.396 71.2679 139.772 70.68 138.984C70.5168 138.765 70.4809 138.452 70.2632 138.287C69.8935 138.007 69.4003 138.365 68.9998 138.599C68.2487 139.038 67.2501 139.012 66.5229 138.535C66.127 138.275 65.7319 137.874 65.2674 137.967C64.8986 138.04 64.6706 138.397 64.3874 138.645C63.8919 139.077 63.1679 139.184 62.5276 139.033C61.8872 138.883 61.3214 138.504 60.8336 138.063C60.6267 137.876 60.4133 137.667 60.1386 137.619C59.463 137.501 59.0486 138.363 58.4138 138.623C57.4601 139.013 55.1278 137.831 54.5093 137.1C54.0393 136.545 53.8549 135.796 53.8318 135.069C53.7552 132.66 55.1133 131.047 57.2077 130.121C58.4014 129.593 59.6062 129.058 60.6507 128.276C62.9738 126.535 62.7977 124.718 62.9921 122.095C63.2841 118.156 63.6682 114.224 64.1436 110.304C65.098 102.431 66.3803 94.5689 68.3363 86.879" fill="white"/>
<path d="M68.513 80.4533C68.014 74.4715 74.4484 70.351 79.8188 70.2889C82.4711 70.2582 84.9248 71.3597 86.702 73.3204C88.5686 75.3797 89.4533 78.1479 89.2572 80.9092C89.0448 83.9003 87.7395 86.7813 86.2909 89.3636C85.5566 90.6725 84.7716 91.9578 84.1752 93.3382C83.5593 94.7638 83.1603 96.2648 82.8106 97.7743C81.3569 104.049 80.1773 110.388 79.0635 116.73C77.9641 122.991 76.9073 129.261 75.8957 135.536C75.7255 136.592 75.4905 137.845 74.6024 138.549C73.9469 139.069 72.8998 139.152 72.0968 139.134C71.7547 139.126 71.2852 139.11 71.0067 138.877C70.8221 138.723 70.7845 138.454 70.6541 138.26C70.5084 138.043 70.2747 137.892 70.0106 137.877C69.3866 137.841 68.9169 138.388 68.3405 138.536C67.6849 138.703 67.0506 138.534 66.5104 138.149C66.0443 137.816 65.5176 137.462 64.9363 137.757C64.6847 137.884 64.5016 138.099 64.3046 138.294C64.0713 138.525 63.8023 138.679 63.4796 138.748C62.7864 138.894 62.0996 138.622 61.5364 138.231C61.049 137.892 60.6289 137.278 59.9747 137.298C59.4464 137.315 59.0756 137.744 58.7043 138.062C58.3376 138.376 58.0007 138.437 57.5336 138.346C56.6271 138.168 55.6473 137.71 54.9496 137.099C54.048 136.31 54.0082 134.845 54.2636 133.758C54.5079 132.717 55.1295 131.83 55.9794 131.189C57.0262 130.399 58.3223 130.014 59.4672 129.393C60.5637 128.799 61.6394 128.045 62.3212 126.978C62.862 126.131 63.0644 125.15 63.1611 124.164C63.2903 122.845 63.3441 121.516 63.452 120.195C63.7163 116.96 64.0428 113.73 64.4309 110.507C65.1981 104.137 66.1803 97.7867 67.5587 91.518C67.8938 89.994 68.2531 88.4755 68.637 86.9631C68.7358 86.5738 68.1344 86.4077 68.0355 86.7972C66.4056 93.2182 65.2408 99.7479 64.3459 106.309C63.8945 109.619 63.5043 112.937 63.1805 116.261C63.0176 117.933 62.8715 119.607 62.7418 121.281C62.6486 122.486 62.6542 123.727 62.4349 124.918C62.2363 125.996 61.7466 126.911 60.9289 127.647C59.8149 128.651 58.4011 129.245 57.0502 129.853C56.0286 130.312 55.0969 130.967 54.4362 131.882C53.7727 132.802 53.4814 133.944 53.5198 135.07C53.5426 135.738 53.6851 136.426 54.0472 136.997C54.2958 137.388 54.6413 137.674 55.0234 137.929C55.8366 138.471 56.8563 138.96 57.8475 139.01C58.3293 139.034 58.7092 138.866 59.0765 138.562C59.2822 138.391 59.4641 138.185 59.6895 138.04C59.9972 137.841 60.236 137.951 60.4953 138.178C61.4841 139.044 62.7832 139.806 64.1117 139.19C64.3676 139.071 64.5825 138.901 64.7793 138.701C64.9998 138.477 65.2165 138.192 65.5672 138.295C65.8646 138.383 66.1096 138.641 66.3654 138.805C66.6501 138.988 66.9738 139.116 67.3066 139.176C67.905 139.284 68.5246 139.2 69.0659 138.92C69.3081 138.795 69.6349 138.488 69.921 138.499C70.2267 138.51 70.2913 139.001 70.4594 139.205C71.0095 139.873 72.1848 139.803 72.9498 139.714C73.8781 139.605 74.7747 139.384 75.4001 138.637C76.1367 137.757 76.363 136.583 76.5319 135.48C76.7735 133.904 77.0368 132.331 77.3037 130.759C77.8654 127.45 78.4173 124.139 78.9835 120.831C80.1134 114.229 81.2976 107.635 82.7122 101.087C83.0585 99.4845 83.3918 97.8732 83.8221 96.2903C84.2443 94.7373 84.8305 93.2738 85.5985 91.8599C86.3362 90.5016 87.1515 89.1873 87.8149 87.7893C88.4688 86.4112 89.0557 84.9908 89.442 83.5126C90.1911 80.6466 90.051 77.6118 88.6268 74.9713C87.4435 72.7772 85.465 70.9949 83.0995 70.1741C80.2786 69.1951 77.1464 69.7222 74.4774 70.9137C71.9658 72.0349 69.7039 73.9071 68.5873 76.4699C68.0409 77.7239 67.7751 79.0861 67.8891 80.4534C67.9222 80.8506 68.5464 80.8541 68.513 80.4533Z" fill="black"/>
<path d="M76.2703 135.138C76.0675 136.5 75.8005 138.255 74.4852 139.002C73.7891 139.398 71.2679 139.773 70.68 138.985C70.5168 138.766 70.4809 138.453 70.2632 138.288C69.8935 138.008 69.4003 138.367 68.9998 138.601C68.2487 139.039 67.2501 139.013 66.5229 138.536C66.127 138.276 65.7319 137.875 65.2674 137.968C64.8986 138.041 64.6706 138.398 64.3874 138.646C63.8919 139.078 63.1679 139.185 62.5276 139.034C61.8872 138.884 61.3214 138.505 60.8336 138.064C60.6267 137.877 60.4133 137.668 60.1386 137.62C59.463 137.502 59.0486 138.364 58.4138 138.624C57.4601 139.014 55.1278 137.832 54.5093 137.102C54.0393 136.546 53.8549 135.797 53.8318 135.07C53.7552 132.661 55.1133 131.048 57.2077 130.122C58.4014 129.594 59.6062 129.059 60.6508 128.277C61.37 127.738 62.0265 127.079 62.2986 126.22C62.6 125.269 62.5715 124.619 63.395 123.967C64.2376 123.3 65.288 122.94 66.368 123.058C67.61 123.194 68.7668 123.959 69.378 125.049C69.8858 125.954 70.0155 127.015 70.28 128.018C70.5444 129.022 71.0158 130.062 71.9296 130.555C73.4754 131.388 75.4031 130.276 77.1209 130.64C77.0174 132.206 76.4957 133.624 76.2703 135.138Z" fill="black"/>
<path d="M75.9695 135.055C75.8324 135.975 75.7005 136.95 75.2406 137.774C75.018 138.173 74.7087 138.533 74.2997 138.749C74.0479 138.881 73.7329 138.951 73.4463 139.009C72.7561 139.149 71.8677 139.268 71.1968 138.986C70.8091 138.823 70.8141 138.393 70.5388 138.117C70.0995 137.676 69.4994 137.941 69.0493 138.208C68.5683 138.493 68.0794 138.664 67.511 138.582C67.2423 138.543 66.9817 138.45 66.7493 138.311C66.4941 138.158 66.2739 137.95 66.0092 137.812C65.5085 137.552 65.0212 137.624 64.6025 137.996C64.4111 138.166 64.257 138.376 64.0422 138.519C63.8159 138.669 63.5463 138.755 63.2766 138.779C62.6992 138.831 62.1516 138.629 61.6712 138.322C61.2052 138.024 60.8141 137.462 60.2617 137.329C59.7868 137.215 59.3858 137.461 59.0403 137.761C58.7676 137.997 58.4961 138.329 58.1176 138.382C57.7387 138.435 57.3298 138.314 56.9746 138.196C56.5592 138.059 56.1606 137.874 55.7794 137.66C55.4482 137.474 55.1135 137.268 54.8412 137C54.4798 136.645 54.2951 136.149 54.2033 135.659C54.0251 134.709 54.1748 133.642 54.6166 132.782C55.0332 131.971 55.6985 131.329 56.4717 130.857C57.474 130.245 58.6097 129.876 59.6355 129.301C60.6325 128.743 61.6628 128.034 62.266 127.038C62.5369 126.59 62.6645 126.094 62.7947 125.592C62.9063 125.163 63.036 124.753 63.3511 124.427C64.1368 123.613 65.4059 123.204 66.5168 123.392C67.5678 123.57 68.5277 124.219 69.0697 125.139C69.696 126.202 69.7433 127.481 70.1383 128.629C70.487 129.642 71.0947 130.595 72.1362 130.989C73.1892 131.387 74.3385 131.087 75.4102 130.946C75.9487 130.876 76.5015 130.835 77.038 130.941L76.809 130.641C76.7012 132.142 76.1965 133.573 75.9695 135.055C75.9093 135.448 76.5103 135.617 76.571 135.221C76.8067 133.683 77.3209 132.2 77.4328 130.641C77.4419 130.514 77.3301 130.365 77.2038 130.34C76.0178 130.104 74.8676 130.472 73.6877 130.549C73.1423 130.584 72.5773 130.551 72.087 130.286C71.5818 130.013 71.233 129.552 70.981 129.046C70.4332 127.947 70.391 126.681 69.9487 125.544C69.5254 124.455 68.7261 123.567 67.6508 123.092C66.5535 122.607 65.3312 122.62 64.2342 123.099C63.7053 123.331 63.1615 123.669 62.7905 124.119C62.4897 124.484 62.3296 124.909 62.2102 125.361C62.0672 125.903 61.9401 126.422 61.6181 126.891C61.2843 127.378 60.8194 127.777 60.343 128.118C59.2846 128.876 58.0902 129.37 56.9161 129.914C56.0242 130.327 55.1928 130.911 54.5828 131.689C53.969 132.472 53.6227 133.405 53.5373 134.394C53.4467 135.443 53.6151 136.669 54.4001 137.442C55.0178 138.049 55.8781 138.469 56.6856 138.756C57.0797 138.895 57.5016 139.007 57.9224 139.013C58.375 139.02 58.7322 138.848 59.0766 138.562C59.3509 138.335 59.7256 137.822 60.1362 137.941C60.4004 138.017 60.603 138.284 60.8078 138.454C61.0485 138.654 61.3031 138.84 61.5774 138.992C62.6112 139.564 63.9052 139.589 64.7727 138.708C64.933 138.546 65.1074 138.303 65.3502 138.269C65.6261 138.23 65.8946 138.47 66.1008 138.619C66.5873 138.971 67.1037 139.197 67.7116 139.223C68.3193 139.248 68.8501 139.051 69.3641 138.747C69.5343 138.646 69.8346 138.418 70.043 138.517C70.2534 138.618 70.315 139.028 70.4594 139.206C70.9424 139.801 71.9447 139.793 72.6344 139.744C73.36 139.693 74.206 139.583 74.8207 139.16C75.6667 138.578 76.0843 137.608 76.3158 136.639C76.4276 136.172 76.5002 135.696 76.571 135.221C76.6296 134.829 76.0286 134.659 75.9695 135.055Z" fill="black"/>
<path d="M74.8302 85.6522C73.3958 84.0905 72.7188 81.9175 72.7711 79.7977C72.8235 77.6779 73.5631 75.6128 74.6598 73.7981C75.9332 71.691 77.7543 69.8437 80.0384 68.9248C83.6795 67.4599 87.3226 68.8548 90.5964 70.5603C93.5725 72.1106 95.23 76.1648 96.0903 79.2318C97.0198 82.5453 97.1454 86.0051 97.7126 89.3844C98.2734 92.725 99.6251 95.5538 101.08 98.559C104.607 105.843 108.457 112.972 112.218 120.136C112.939 121.509 113.654 122.887 114.403 124.246C115.067 125.452 115.919 127.01 115.326 128.401C115.013 129.138 113.235 130.965 112.29 130.695C112.027 130.62 111.809 130.393 111.536 130.394C111.072 130.395 110.897 130.979 110.721 131.408C110.389 132.212 109.58 132.797 108.712 132.858C108.239 132.892 107.682 132.813 107.369 133.168C107.12 133.45 107.155 133.872 107.08 134.241C106.949 134.885 106.437 135.409 105.837 135.677C105.236 135.946 104.557 135.988 103.901 135.933C103.623 135.909 103.327 135.873 103.08 136.001C102.471 136.317 102.664 137.254 102.317 137.845C101.795 138.734 99.2235 139.208 98.2886 139.002C97.5782 138.845 96.9776 138.361 96.5184 137.797C94.9966 135.928 95.0985 133.822 96.2027 131.815C96.8321 130.672 97.4657 129.516 97.8217 128.26C98.6137 125.468 97.3719 124.129 95.9363 121.926C93.7804 118.617 91.7019 115.257 89.7027 111.851C85.6888 105.012 81.9413 97.982 78.8343 90.6809" fill="white"/>
<path d="M75.0505 85.4318C71.0961 81.0555 73.6389 74.0589 77.6862 70.7001C78.7572 69.8113 80.0167 69.1446 81.3761 68.8301C82.836 68.4925 84.3544 68.593 85.7996 68.9536C87.28 69.323 88.6848 69.937 90.0419 70.6257C91.1114 71.1684 91.9952 71.8668 92.7493 72.8039C94.2002 74.6068 95.0768 76.855 95.7158 79.0571C96.5881 82.0634 96.7918 85.1942 97.2289 88.2796C97.4401 89.7702 97.7398 91.2312 98.2106 92.663C98.6661 94.0481 99.2413 95.391 99.8547 96.7127C101.186 99.5815 102.616 102.407 104.055 105.223C106.998 110.984 110.039 116.695 113.063 122.414C113.431 123.111 113.805 123.806 114.185 124.497C114.519 125.106 114.853 125.723 115.052 126.392C115.235 127.006 115.311 127.709 115.028 128.307C114.857 128.667 114.568 128.981 114.293 129.264C113.943 129.625 113.555 129.964 113.112 130.207C112.955 130.293 112.782 130.377 112.603 130.402C112.361 130.436 112.193 130.299 111.983 130.2C111.453 129.949 110.98 130.169 110.706 130.661C110.415 131.184 110.303 131.714 109.807 132.105C109.289 132.514 108.75 132.524 108.125 132.568C107.546 132.609 107.055 132.842 106.89 133.439C106.812 133.724 106.828 134.025 106.74 134.308C106.643 134.625 106.434 134.896 106.179 135.104C105.614 135.566 104.855 135.667 104.148 135.637C103.542 135.611 102.892 135.516 102.522 136.113C102.247 136.556 102.306 137.102 102.106 137.569C101.952 137.929 101.558 138.122 101.215 138.265C100.747 138.461 100.242 138.582 99.7428 138.662C99.3379 138.727 98.8954 138.778 98.4859 138.721C97.8837 138.639 97.3604 138.258 96.9548 137.825C95.9966 136.801 95.5199 135.408 95.7409 134.016C95.9707 132.57 96.8596 131.37 97.4646 130.066C98.0182 128.874 98.4865 127.545 98.3611 126.21C98.2555 125.086 97.7398 124.101 97.135 123.168C96.3364 121.936 95.5191 120.717 94.7309 119.478C93.0148 116.781 91.3503 114.052 89.7367 111.292C86.5806 105.895 83.6006 100.389 80.9686 94.7157C80.325 93.3282 79.703 91.9308 79.1034 90.5237C78.9465 90.1556 78.409 90.4731 78.5648 90.8386C81.1038 96.7969 84.0593 102.568 87.2427 108.206C88.8659 111.081 90.5442 113.925 92.2766 116.735C93.1461 118.145 94.0294 119.547 94.9264 120.94C95.6648 122.087 96.5049 123.198 97.1478 124.403C97.7458 125.523 97.8922 126.7 97.5855 127.935C97.206 129.463 96.3412 130.736 95.6871 132.144C95.1254 133.352 94.8764 134.71 95.2326 136.016C95.5728 137.262 96.4619 138.575 97.6688 139.118C98.5515 139.515 99.5864 139.365 100.498 139.145C101.346 138.941 102.407 138.595 102.725 137.692C102.865 137.295 102.807 136.44 103.271 136.257C103.595 136.129 104.056 136.267 104.396 136.266C104.75 136.265 105.112 136.228 105.456 136.139C106.082 135.977 106.654 135.625 107.033 135.096C107.198 134.866 107.321 134.601 107.381 134.324C107.446 134.016 107.386 133.529 107.664 133.317C107.877 133.154 108.219 133.187 108.47 133.18C108.78 133.172 109.087 133.14 109.381 133.037C109.933 132.844 110.413 132.483 110.749 132.003C110.915 131.766 111.011 131.503 111.122 131.238C111.234 130.971 111.359 130.613 111.704 130.758C111.941 130.858 112.131 131.005 112.396 131.028C112.607 131.047 112.823 131.004 113.021 130.932C113.911 130.608 114.686 129.847 115.25 129.106C116 128.12 115.932 126.905 115.503 125.79C114.969 124.4 114.134 123.111 113.441 121.797C112.654 120.301 111.87 118.803 111.081 117.309C109.523 114.356 107.959 111.406 106.418 108.444C104.877 105.483 103.358 102.51 101.89 99.5117C100.531 96.7364 99.1166 93.9438 98.3563 90.9326C97.5657 87.8013 97.5008 84.531 96.9023 81.3627C96.4271 78.847 95.63 76.3139 94.356 74.0819C93.76 73.0379 93.0347 72.0392 92.1262 71.2446C91.1275 70.371 89.8861 69.8152 88.6774 69.2951C85.8794 68.0909 82.7663 67.4622 79.8532 68.6661C77.3509 69.7002 75.4119 71.7833 74.1139 74.1176C72.72 76.6242 72.0226 79.5945 72.7623 82.4186C73.0979 83.7001 73.7205 84.8892 74.6094 85.873C74.8791 86.1715 75.3192 85.7292 75.0505 85.4318Z" fill="black"/>
<path d="M114.403 124.246C115.067 125.452 115.919 127.01 115.326 128.401C115.012 129.138 113.235 130.965 112.29 130.695C112.027 130.62 111.809 130.393 111.536 130.394C111.072 130.395 110.897 130.979 110.721 131.408C110.389 132.212 109.579 132.797 108.712 132.858C108.239 132.892 107.682 132.813 107.369 133.168C107.12 133.45 107.155 133.872 107.08 134.241C106.948 134.885 106.437 135.409 105.837 135.677C105.236 135.946 104.557 135.988 103.901 135.933C103.623 135.909 103.327 135.873 103.079 136.001C102.471 136.317 102.664 137.254 102.317 137.845C101.795 138.734 99.2233 139.208 98.2885 139.002C97.5781 138.845 96.9774 138.362 96.5182 137.797C94.9965 135.928 95.0984 133.822 96.2026 131.815C96.8319 130.672 97.4655 129.516 97.8216 128.26C98.0668 127.396 98.1893 126.474 97.8851 125.626C97.5481 124.687 97.1315 124.187 97.3911 123.169C97.6567 122.128 98.2734 121.205 99.204 120.644C100.274 119.999 101.658 119.906 102.805 120.402C103.757 120.814 104.504 121.579 105.322 122.217C106.141 122.855 107.147 123.396 108.172 123.233C109.907 122.959 110.765 120.905 112.352 120.154C113.219 121.461 113.664 122.906 114.403 124.246Z" fill="black"/>
<path d="M114.133 124.402C114.663 125.364 115.289 126.443 115.208 127.583C115.149 128.396 114.588 129.004 114.016 129.533C113.712 129.814 113.382 130.072 113.011 130.259C112.692 130.42 112.452 130.453 112.141 130.282C111.71 130.046 111.242 129.988 110.891 130.392C110.584 130.745 110.511 131.225 110.261 131.611C109.995 132.021 109.572 132.332 109.104 132.47C108.631 132.609 108.129 132.498 107.658 132.639C107.133 132.796 106.905 133.228 106.836 133.742C106.765 134.276 106.643 134.697 106.224 135.065C105.787 135.45 105.192 135.606 104.621 135.635C104.078 135.662 103.425 135.459 102.922 135.73C102.532 135.941 102.376 136.356 102.293 136.767C102.222 137.118 102.205 137.548 101.943 137.819C101.437 138.343 100.526 138.525 99.8395 138.644C99.0398 138.783 98.2704 138.812 97.5667 138.35C96.6421 137.743 95.9857 136.638 95.7673 135.567C95.5459 134.483 95.7937 133.353 96.2673 132.369C96.8146 131.231 97.4862 130.171 97.9173 128.977C98.3345 127.821 98.5793 126.551 98.1221 125.37C97.9412 124.903 97.6707 124.433 97.6278 123.925C97.5831 123.397 97.7798 122.843 98.0179 122.378C98.5131 121.414 99.3804 120.723 100.441 120.484C101.586 120.226 102.678 120.562 103.612 121.232C104.568 121.918 105.371 122.806 106.471 123.276C107.455 123.697 108.509 123.658 109.41 123.065C110.179 122.56 110.753 121.826 111.418 121.203C111.748 120.894 112.101 120.621 112.51 120.422L112.083 120.31C112.924 121.593 113.401 123.061 114.133 124.402C114.326 124.755 114.865 124.44 114.672 124.087C113.94 122.746 113.462 121.278 112.622 119.995C112.524 119.846 112.353 119.806 112.195 119.883C111.316 120.311 110.678 121.069 110 121.749C109.313 122.438 108.508 123.077 107.471 122.927C106.214 122.746 105.283 121.752 104.335 121.003C103.398 120.264 102.363 119.742 101.142 119.774C100.011 119.804 98.9078 120.274 98.1416 121.114C97.4274 121.896 96.8629 123.077 97.0318 124.156C97.1175 124.703 97.4044 125.19 97.5846 125.707C97.8019 126.332 97.7862 126.992 97.6548 127.633C97.3851 128.949 96.7568 130.153 96.1175 131.322C95.5464 132.366 95.0823 133.447 95.0631 134.657C95.0445 135.83 95.4672 136.946 96.1811 137.869C96.8046 138.674 97.6631 139.326 98.7149 139.359C99.5566 139.385 100.449 139.214 101.237 138.921C101.611 138.782 101.979 138.612 102.285 138.352C102.599 138.085 102.741 137.717 102.822 137.321C102.893 136.972 102.896 136.362 103.316 136.242C103.579 136.167 103.903 136.25 104.171 136.26C104.499 136.273 104.826 136.255 105.15 136.201C106.218 136.026 107.237 135.298 107.406 134.172C107.442 133.935 107.428 133.62 107.571 133.415C107.711 133.216 107.976 133.197 108.199 133.186C108.74 133.16 109.228 133.135 109.724 132.891C110.192 132.661 110.596 132.281 110.858 131.831C110.978 131.625 111.051 131.399 111.145 131.182C111.211 131.029 111.312 130.747 111.499 130.707C111.702 130.665 111.951 130.904 112.136 130.97C112.321 131.037 112.513 131.043 112.706 131.012C113.085 130.953 113.44 130.757 113.753 130.541C114.423 130.08 115.072 129.459 115.492 128.757C116.06 127.803 115.843 126.61 115.444 125.64C115.224 125.104 114.951 124.594 114.672 124.087C114.478 123.736 113.939 124.05 114.133 124.402Z" fill="black"/>
<path d="M32.7415 80.2371C34.9205 84.391 36.7921 88.7061 38.3361 93.1354C38.5964 93.8822 38.8498 94.644 38.8883 95.4339C39.1812 101.444 28.9169 104.151 24.7398 106.229C23.3513 106.92 21.9651 107.619 20.5623 108.282C19.728 108.677 18.9969 109.121 18.2239 109.636C18.0414 109.757 17.8519 109.886 17.7477 110.079C17.6342 110.29 17.6401 110.542 17.6489 110.78C17.6866 111.804 17.7319 112.833 17.9167 113.842C18.0813 114.742 18.3765 115.882 18.886 116.645C19.3089 116.463 21.75 115.468 21.8399 116.447C21.8603 116.669 21.6801 116.853 21.5127 117C20.9971 117.454 20.4645 117.888 19.9163 118.302C19.7994 118.39 19.6763 118.484 19.6209 118.62C19.5696 118.746 19.5846 118.887 19.6025 119.022C19.8417 120.815 20.4657 122.536 21.1993 124.19C21.4067 124.657 21.6239 125.122 21.8948 125.556C23.1414 127.553 25.5801 129.364 28.0681 128.807C29.1182 128.571 30.0616 127.842 30.4901 126.855C30.733 126.296 30.8098 125.68 30.8843 125.075C31.0435 123.78 31.2068 122.471 31.6533 121.245C32.6466 118.517 34.4369 118.16 36.8909 117.214C40.4223 115.853 43.877 114.277 47.4128 112.942C50.4567 111.793 53.0438 110.207 54.8354 107.394C56.1822 105.279 56.8966 102.81 57.225 100.325C58.3373 91.907 54.8814 83.0244 48.3727 77.5718" fill="white"/>
<path d="M32.4726 80.3936C34.4698 84.2057 36.211 88.1496 37.6736 92.1973C38.028 93.1779 38.4664 94.1966 38.5635 95.2439C38.6157 95.8071 38.5662 96.3751 38.4155 96.9201C38.1234 97.9767 37.4681 98.884 36.6946 99.6444C34.8576 101.45 32.4131 102.596 30.0797 103.613C28.9421 104.108 27.7892 104.567 26.6437 105.044C25.3854 105.567 24.1733 106.165 22.9527 106.771C21.9803 107.254 20.9912 107.707 20.0238 108.199C19.5708 108.43 19.1307 108.685 18.7001 108.955C18.3205 109.193 17.8483 109.428 17.5704 109.788C17.2463 110.209 17.3356 110.779 17.3567 111.275C17.3793 111.804 17.4092 112.333 17.4654 112.859C17.5665 113.805 17.7421 114.757 18.066 115.654C18.2104 116.054 18.3847 116.445 18.6171 116.802C18.7176 116.956 18.882 116.983 19.0438 116.914C19.1007 116.889 19.047 116.912 19.0635 116.905C19.0911 116.894 19.1188 116.882 19.1465 116.871C19.2353 116.835 19.3243 116.8 19.4139 116.767C19.6226 116.688 19.8335 116.615 20.0468 116.55C20.4395 116.43 20.923 116.278 21.327 116.341C21.4176 116.355 21.4563 116.37 21.5131 116.408C21.5002 116.399 21.5289 116.442 21.5284 116.446C21.5053 116.608 21.3742 116.706 21.2556 116.811C21.0718 116.973 20.8846 117.132 20.6959 117.289C20.3598 117.568 20.013 117.832 19.669 118.101C19.343 118.356 19.2435 118.657 19.2965 119.062C19.5268 120.822 20.127 122.504 20.8327 124.124C21.1634 124.883 21.52 125.622 22.0202 126.285C22.4644 126.874 22.9764 127.406 23.5592 127.859C24.718 128.761 26.1772 129.368 27.6677 129.187C29.1187 129.011 30.408 128.086 30.8899 126.682C31.1684 125.87 31.1993 124.98 31.3167 124.136C31.4402 123.249 31.6012 122.362 31.8895 121.512C32.2846 120.347 32.9599 119.365 34.033 118.738C35.1356 118.095 36.4055 117.739 37.5882 117.275C39.3192 116.594 41.0322 115.87 42.7482 115.153C44.4356 114.448 46.135 113.78 47.8365 113.111C49.1862 112.58 50.5007 111.942 51.6888 111.105C52.8659 110.275 53.8983 109.269 54.7362 108.097C55.6962 106.753 56.38 105.221 56.8495 103.642C57.7275 100.69 57.9281 97.5154 57.595 94.4605C57.2749 91.5244 56.4595 88.6575 55.1995 85.9866C53.9494 83.3367 52.2526 80.8886 50.1845 78.811C49.6763 78.3004 49.145 77.8138 48.5936 77.3503C48.2882 77.0935 47.8447 77.5326 48.1525 77.7914C50.3809 79.6646 52.2531 81.9316 53.6995 84.4567C55.1455 86.9813 56.1606 89.7461 56.6957 92.6058C57.2382 95.5049 57.2755 98.5175 56.7383 101.42C56.1603 104.543 54.8661 107.567 52.4562 109.709C50.1178 111.788 47.1074 112.688 44.2688 113.852C42.5638 114.552 40.8691 115.276 39.1634 115.974C37.7569 116.549 36.3226 117.054 34.9166 117.629C33.8741 118.055 32.9113 118.603 32.2184 119.513C31.2753 120.753 30.9441 122.365 30.7289 123.873C30.608 124.72 30.5765 125.609 30.3168 126.429C30.1015 127.109 29.6428 127.684 29.0421 128.066C27.7959 128.857 26.2168 128.684 24.9548 128.025C23.6427 127.34 22.5636 126.205 21.88 124.898C21.0724 123.354 20.4378 121.644 20.077 119.939C20.0336 119.734 19.9946 119.528 19.9606 119.321C19.9323 119.149 19.8388 118.875 19.9236 118.712C19.9966 118.571 20.2171 118.462 20.3396 118.367C20.5184 118.229 20.6958 118.09 20.8714 117.947C21.208 117.675 21.5757 117.406 21.8711 117.088C22.083 116.86 22.2131 116.569 22.1201 116.257C21.8403 115.32 20.3486 115.796 19.729 115.996C19.3897 116.106 19.0566 116.234 18.729 116.375L19.1557 116.487C18.6687 115.739 18.4335 114.848 18.2605 113.982C18.0531 112.943 18.0008 111.885 17.963 110.829C17.9545 110.593 17.9238 110.327 18.0891 110.136C18.2485 109.951 18.4974 109.826 18.6995 109.695C19.1266 109.418 19.5616 109.153 20.0094 108.911C20.9537 108.4 21.9427 107.966 22.9049 107.49C24.1663 106.865 25.4144 106.228 26.7137 105.685C27.8657 105.204 29.0258 104.742 30.1722 104.248C32.5429 103.225 34.9832 102.078 36.9 100.31C37.737 99.538 38.4538 98.6216 38.8636 97.5516C39.0597 97.0396 39.1707 96.4962 39.1997 95.9488C39.2476 95.0448 39.0189 94.17 38.7303 93.3211C37.3515 89.265 35.6574 85.3043 33.731 81.479C33.495 81.0103 33.2548 80.5436 33.0112 80.0787C32.8248 79.723 32.2863 80.0379 32.4726 80.3936Z" fill="black"/>
<path d="M42.7829 83.6032C43.7618 85.8266 44.739 88.0614 45.4003 90.4041C45.9362 92.3028 46.5961 94.5617 45.5985 96.4236C45.1038 97.347 44.3103 98.1558 43.5721 98.8886C42.8155 99.6397 42.0001 100.332 41.1476 100.971C39.3823 102.296 37.4768 103.424 35.5546 104.504C33.1725 105.841 30.7336 107.076 28.2474 108.208C27.8826 108.375 28.1993 108.912 28.5623 108.747C30.8525 107.704 33.1028 106.574 35.3054 105.356C37.3071 104.25 39.2958 103.095 41.1449 101.745C42.898 100.465 44.6169 98.9802 45.8633 97.1852C47.1358 95.3526 46.7487 93.0823 46.224 91.0639C45.5244 88.3727 44.4395 85.8273 43.3216 83.2883C43.1601 82.9217 42.6224 83.2388 42.7829 83.6032Z" fill="black"/>
<path d="M46.1827 82.0834C47.4012 84.7876 48.4006 87.6004 49.3515 90.4083C49.79 91.7033 50.1692 93.0289 50.2287 94.4021C50.2847 95.6963 50.1429 97.0104 49.7907 98.2578C49.4506 99.4618 48.8181 100.469 47.9429 101.358C47.0202 102.294 45.9651 103.114 44.8981 103.878C43.7368 104.71 42.5301 105.476 41.3287 106.248C40.1542 107.003 38.9873 107.769 37.8018 108.507C35.1549 110.153 32.4071 111.676 29.4332 112.647C29.0532 112.771 29.2158 113.374 29.599 113.249C32.3216 112.36 34.8666 111.022 37.3093 109.541C38.5513 108.789 39.7701 107.999 40.9888 107.209C42.2148 106.415 43.4544 105.641 44.6558 104.809C45.7977 104.019 46.9145 103.175 47.9357 102.232C48.8613 101.377 49.6698 100.393 50.1328 99.2096C50.6021 98.0104 50.8047 96.6846 50.8541 95.4031C50.908 94.0068 50.6888 92.6484 50.2942 91.3112C49.8168 89.6934 49.2113 88.1059 48.6318 86.5224C48.0447 84.9183 47.4233 83.3263 46.7213 81.7686C46.5567 81.4031 46.019 81.72 46.1827 82.0834Z" fill="black"/>
<path d="M48.4428 80.6616C50.16 83.4362 51.8518 86.2854 52.8846 89.3974C53.8803 92.3978 54.2809 95.6205 53.8773 98.7647C53.495 101.743 52.3093 104.727 50.1036 106.827C49.0598 107.821 47.8198 108.568 46.5457 109.228C45.0889 109.982 43.5969 110.671 42.1198 111.384C38.9398 112.918 35.7598 114.453 32.5798 115.988C32.1745 116.184 31.7692 116.379 31.3639 116.575C31.0025 116.749 31.3185 117.288 31.6788 117.114C34.9367 115.541 38.1947 113.969 41.4526 112.396C43.0137 111.643 44.5807 110.9 46.1349 110.133C47.459 109.478 48.7596 108.766 49.9076 107.829C52.2777 105.894 53.7186 103.003 54.2989 100.035C54.9201 96.8581 54.6994 93.5445 53.8487 90.431C52.9694 87.2127 51.3608 84.2568 49.64 81.42C49.4223 81.0611 49.2024 80.7036 48.9815 80.3468C48.7706 80.006 48.2307 80.3189 48.4428 80.6616Z" fill="black"/>
<path d="M84.6647 93.7677C85.1574 92.6093 85.7819 91.5164 86.4054 90.4249C87.0373 89.3189 87.6399 88.204 88.1601 87.0404C88.6826 85.8715 89.1448 84.6715 89.4627 83.4296C89.6181 82.8228 89.7349 82.2074 89.8132 81.5859C89.8523 81.275 89.8802 80.9627 89.8954 80.6498C89.9022 80.5087 89.9064 80.3676 89.9081 80.2264C89.9098 80.0751 89.943 79.8775 89.8646 79.7389C89.7963 79.6183 89.6213 79.5489 89.5069 79.4843C89.3692 79.4065 89.23 79.3314 89.0894 79.2589C88.8083 79.1141 88.5218 78.9804 88.2312 78.8559C87.6646 78.6133 87.0845 78.4084 86.4928 78.2361C85.3427 77.9012 84.1607 77.6821 82.9693 77.5612C80.5751 77.3182 78.1443 77.5049 75.7952 78.0123C73.0951 78.5955 70.4576 79.6024 68.0603 80.9757C67.9667 81.0293 67.9035 81.1365 67.9058 81.245C67.9441 83.0662 67.9824 84.8874 68.0207 86.7086C68.0232 86.8264 68.0172 86.8802 67.9856 86.9934C67.8221 87.5786 67.691 88.1754 67.5499 88.7664C67.2671 89.9505 66.9995 91.1381 66.7458 92.3288C66.2313 94.7441 65.7742 97.1716 65.3639 99.6067C64.9039 102.336 64.5039 105.076 64.145 107.82C64.1247 107.976 64.3049 108.149 64.4569 108.132C66.6553 107.891 68.8177 108.238 70.9344 108.819C72.9927 109.384 75.1122 109.975 77.0302 110.927C78.0897 111.452 78.9867 112.136 79.8844 112.896C80.0464 113.034 80.3599 113.009 80.4057 112.759C81.3298 107.703 82.3004 102.646 83.4816 97.6425C83.7984 96.3004 84.1635 94.9676 84.6962 93.6932C84.7617 93.5365 84.6255 93.3518 84.4783 93.3095C84.2993 93.2581 84.1593 93.3727 84.0947 93.5273C83.1405 95.8101 82.6831 98.2817 82.1608 100.689C81.6125 103.218 81.0988 105.754 80.6097 108.294C80.334 109.726 80.0663 111.159 79.8042 112.593L80.3255 112.455C79.5157 111.769 78.7103 111.114 77.7712 110.608C76.8044 110.087 75.7776 109.682 74.7392 109.328C73.696 108.973 72.638 108.655 71.5786 108.352C70.4972 108.042 69.4029 107.766 68.2891 107.601C67.0284 107.414 65.7259 107.369 64.4569 107.508L64.7688 107.82C65.4099 102.917 66.1924 98.031 67.2009 93.1896C67.4492 91.9977 67.7112 90.8087 67.9882 89.6232C68.1266 89.0306 68.2688 88.4388 68.4149 87.848C68.4946 87.526 68.6387 87.1724 68.6473 86.8403C68.671 85.9264 68.6086 85.0021 68.5894 84.0883C68.5695 83.1405 68.5495 82.1928 68.5296 81.245L68.3751 81.5143C73.2598 78.7161 79.2659 77.3321 84.8401 78.4705C86.4516 78.7996 88.0181 79.3258 89.4378 80.1656L89.2833 79.8963C89.3364 83.7711 87.4488 87.3262 85.586 90.602C85.0579 91.5308 84.5446 92.4687 84.1261 93.4528C84.0597 93.609 84.0806 93.7853 84.238 93.8796C84.3683 93.9576 84.5989 93.9225 84.6647 93.7677Z" fill="black"/>
<path d="M78.8342 90.6805C81.9412 97.9816 85.6887 105.012 89.7026 111.85C89.7506 111.932 89.7992 112.013 89.8473 112.095C91.4935 111.924 93.1137 111.485 94.6752 110.916C95.3154 110.683 95.9457 110.427 96.564 110.16C97.8383 109.609 99.0924 109.002 100.267 108.261C101.74 107.331 103.077 106.189 104.234 104.887C103.162 102.787 102.107 100.68 101.08 98.5585C99.6251 95.5534 98.2734 92.7245 97.7126 89.384C97.1453 86.0046 97.0197 82.5448 96.0903 79.2314C95.6459 77.6471 94.988 75.7999 94.0462 74.17C93.7852 74.1372 93.5235 74.1107 93.2615 74.0939C90.8387 73.938 88.4037 74.4335 86.1342 75.2959C82.6063 76.6365 79.3954 78.9059 77.1746 81.9574" fill="white"/>
<path d="M78.5649 90.8382C81.0182 96.5975 83.8623 102.182 86.9244 107.64C87.7923 109.187 88.6758 110.725 89.5779 112.253C89.6293 112.34 89.741 112.419 89.8472 112.407C92.0497 112.172 94.1667 111.502 96.2032 110.65C98.2076 109.811 100.157 108.842 101.882 107.508C102.812 106.789 103.671 105.985 104.454 105.108C104.552 104.998 104.569 104.859 104.503 104.73C103.649 103.056 102.805 101.378 101.978 99.6909C101.203 98.1109 100.42 96.5307 99.7292 94.9116C99.066 93.3569 98.51 91.7517 98.1632 90.0955C97.7928 88.3266 97.6278 86.5166 97.4049 84.7252C96.9733 81.2563 96.2955 77.8084 94.6772 74.6753C94.5834 74.4936 94.4862 74.3136 94.3856 74.1355C94.2603 73.9141 94.1485 73.8696 93.8993 73.8407C93.4461 73.7882 92.9906 73.7602 92.5344 73.7549C91.6498 73.7445 90.7662 73.8192 89.8926 73.9565C88.1925 74.2237 86.5409 74.7494 84.967 75.4399C82.1598 76.6714 79.5848 78.512 77.6225 80.8775C77.3737 81.1774 77.1353 81.4859 76.9052 81.8003C76.6679 82.1247 77.2089 82.4362 77.4438 82.1152C80.2803 78.238 84.7871 75.5587 89.4844 74.6582C90.9872 74.3702 92.526 74.2958 94.0462 74.4822L93.7768 74.3277C94.7844 76.0843 95.48 78.0239 95.9666 79.9856C96.4924 82.1059 96.7257 84.2811 96.9901 86.4452C97.2482 88.5582 97.547 90.6488 98.2155 92.6772C98.8482 94.5971 99.7079 96.432 100.585 98.2498C101.685 100.528 102.814 102.791 103.964 105.044L104.013 104.666C102.651 106.193 101.059 107.481 99.2777 108.488C97.4245 109.536 95.4197 110.392 93.3872 111.023C92.2332 111.382 91.0499 111.655 89.8472 111.783L90.1165 111.938C86.937 106.555 83.9437 101.051 81.2843 95.3912C80.5281 93.7819 79.8004 92.1593 79.1035 90.5234C78.9466 90.1552 78.4092 90.4727 78.5649 90.8382Z" fill="black"/>
<path d="M96.3222 80.1356C92.4484 79.6408 88.4945 80.3913 84.6506 80.853C79.5167 81.4696 74.1789 81.6391 69.5202 83.8826C69.097 84.0864 68.6772 84.3104 68.2878 84.5734L68.3363 86.8789C68.2683 87.1461 68.2026 87.4139 68.1362 87.6816C68.201 87.6852 68.2657 87.6882 68.33 87.6906C73.3565 87.8731 78.3634 87.0751 83.3886 86.8599C88.2778 86.6504 93.3607 87.0436 97.6971 89.2866C97.1941 86.2445 97.0365 83.1394 96.3222 80.1356Z" fill="black"/>
<path d="M96.3219 79.8252C93.8604 79.5176 91.3771 79.6991 88.9236 79.9927C86.5302 80.2791 84.145 80.61 81.7469 80.8589C79.4769 81.0946 77.2009 81.3328 74.9631 81.7922C72.7678 82.2429 70.5188 82.8989 68.5695 84.0312C68.3504 84.1585 68.0028 84.2926 67.9757 84.5765C67.9706 84.6299 67.978 84.6875 67.9791 84.741L67.9983 85.6503L68.0187 86.6205C68.0259 86.9639 67.9189 87.2624 67.8352 87.6003C67.7847 87.8044 67.9311 87.9847 68.136 87.9951C72.2332 88.2034 76.338 87.6689 80.4161 87.3567C84.1699 87.0694 87.9807 86.9395 91.7013 87.6261C93.7255 87.9998 95.7058 88.6148 97.5395 89.5574C97.7965 89.6896 98.0416 89.473 97.9977 89.2052C97.4981 86.1607 97.3321 83.0635 96.6227 80.0542C96.5306 79.6636 95.929 79.829 96.0212 80.22C96.7305 83.2291 96.8966 86.3266 97.3961 89.371L97.8543 89.0188C94.5473 87.3188 90.8338 86.6608 87.1457 86.5273C83.1329 86.382 79.137 86.8644 75.1429 87.1706C72.8169 87.349 70.4689 87.4898 68.136 87.3712L68.4367 87.766C68.5196 87.4314 68.6523 87.0889 68.645 86.7416L68.6285 85.9585C68.6188 85.4973 68.6091 85.0361 68.5994 84.5749L68.4449 84.8442C69.9219 83.8615 71.6847 83.2608 73.3871 82.8036C75.1125 82.3404 76.8799 82.0498 78.6509 81.8273C80.4485 81.6015 82.2535 81.4409 84.0535 81.2361C85.963 81.0188 87.863 80.7246 89.774 80.5197C91.9485 80.2865 94.1455 80.177 96.3219 80.449C96.7192 80.4987 96.7157 79.8745 96.3219 79.8252Z" fill="black"/>
<path d="M42.0285 80.1907C41.936 78.0723 40.8758 76.0583 39.3381 74.5982C37.8004 73.1382 35.8161 72.2033 33.7567 71.698C31.3657 71.1114 28.7717 71.096 26.5081 72.064C23.74 73.2477 21.6903 75.8696 20.9792 78.7949C19.9552 83.0076 21.705 86.7022 23.9671 90.1225C25.1637 91.9319 26.6504 93.5435 27.755 95.4105C28.5977 96.8348 29.2041 98.3844 29.7838 99.9345C33.599 110.135 36.7861 120.623 40.0353 131.014C40.4981 132.494 40.969 133.974 41.4024 135.464C41.6601 136.35 41.9829 137.142 42.3693 137.986C42.4605 138.186 42.5581 138.393 42.7321 138.527C42.9218 138.672 43.1715 138.706 43.4087 138.735C44.4253 138.86 45.4486 138.978 46.4746 138.955C47.3887 138.934 48.5612 138.823 49.3953 138.44C49.2821 137.994 48.6854 135.426 49.666 135.492C49.8884 135.507 50.0418 135.714 50.1607 135.903C50.5272 136.484 50.872 137.078 51.194 137.685C51.2627 137.814 51.3361 137.951 51.4614 138.027C51.5773 138.097 51.7196 138.105 51.8552 138.108C53.6638 138.156 55.4615 137.811 57.2104 137.348C57.705 137.217 58.1985 137.076 58.6698 136.877C60.8385 135.962 63.0122 133.84 62.8549 131.295C62.7886 130.221 62.2174 129.174 61.3104 128.595C60.7964 128.267 60.2011 128.094 59.6151 127.925C58.3612 127.563 57.0953 127.195 55.9549 126.56C53.4184 125.148 53.348 123.324 52.8019 120.751C51.9818 116.888 51.0713 113.044 50.0719 109.223C48.0653 101.551 45.7351 93.9332 42.7606 86.5771" fill="white"/>
<path d="M42.3398 80.1908C42.0002 73.5896 34.1816 70.0652 28.35 71.1804C25.4631 71.7325 23.0334 73.6339 21.6457 76.2057C20.1824 78.9177 20.0363 82.092 20.9902 84.9966C22.01 88.1019 23.9727 90.711 25.9176 93.2864C26.9559 94.6614 27.8541 96.0889 28.5484 97.6692C29.2737 99.3199 29.8661 101.033 30.4795 102.728C32.9863 109.653 35.2267 116.671 37.4255 123.7C38.5276 127.222 39.6486 130.74 40.7214 134.272C40.981 135.127 41.212 135.99 41.5362 136.824C41.6868 137.211 41.8507 137.593 42.0213 137.972C42.158 138.275 42.2914 138.598 42.5741 138.796C42.8745 139.007 43.2463 139.028 43.5988 139.07C44.0443 139.124 44.4902 139.176 44.9375 139.212C45.7625 139.28 46.591 139.292 47.4156 139.213C48.1505 139.142 48.8737 139.009 49.552 138.71C49.6783 138.654 49.7263 138.48 49.6954 138.358C49.5546 137.798 49.4437 137.22 49.4256 136.642C49.4195 136.448 49.3754 135.982 49.5502 135.837C49.7702 135.654 50.1964 136.555 50.2939 136.719C50.4688 137.015 50.6383 137.314 50.8022 137.615C50.9226 137.837 51.0268 138.088 51.234 138.244C51.4543 138.41 51.7181 138.418 51.9838 138.423C52.3277 138.429 52.6721 138.42 53.0154 138.4C54.3989 138.317 55.7657 138.045 57.1051 137.698C58.2535 137.401 59.3391 137.005 60.3157 136.319C61.1751 135.715 61.9412 134.955 62.4714 134.043C63.5351 132.213 63.4272 129.715 61.5923 128.411C60.5953 127.703 59.2544 127.524 58.1144 127.143C56.9977 126.771 55.8425 126.295 54.9692 125.482C53.6014 124.207 53.4418 122.266 53.0743 120.539C51.9034 115.032 50.5476 109.564 49.0142 104.147C47.5101 98.8333 45.8166 93.5699 43.8223 88.4191C43.5732 87.7757 43.3191 87.1341 43.0607 86.4943C42.9123 86.1268 42.3087 86.2874 42.4592 86.6602C44.5354 91.8018 46.2999 97.0639 47.8576 102.384C49.434 107.769 50.8225 113.21 52.035 118.688C52.296 119.867 52.5392 121.049 52.7823 122.232C52.9539 123.066 53.1557 123.906 53.5588 124.663C54.6184 126.654 56.9115 127.455 58.9434 128.055C60.1028 128.397 61.3248 128.66 62.0239 129.745C62.6271 130.681 62.6774 131.83 62.3284 132.869C61.6055 135.021 59.4631 136.405 57.374 136.981C56.0334 137.351 54.6613 137.651 53.2727 137.758C52.9512 137.783 52.6289 137.797 52.3065 137.8C52.1422 137.802 51.967 137.813 51.8034 137.795C51.5962 137.772 51.5564 137.696 51.4627 137.528C51.1297 136.928 50.8081 136.319 50.4294 135.745C50.1992 135.397 49.8641 135.074 49.4118 135.21C49.1351 135.294 48.9684 135.539 48.8851 135.803C48.6846 136.438 48.8279 137.198 48.9451 137.836C48.9874 138.066 49.0366 138.296 49.0939 138.523L49.2372 138.171C47.8575 138.779 46.1472 138.703 44.682 138.566C44.2573 138.526 43.8305 138.484 43.4081 138.423C42.9838 138.363 42.8158 138.211 42.638 137.829C42.2864 137.075 41.9785 136.298 41.738 135.501C40.7151 132.111 39.6501 128.734 38.5954 125.353C36.4997 118.636 34.3838 111.924 32.0515 105.284C31.4711 103.632 30.8774 101.985 30.2673 100.344C29.6932 98.799 29.1153 97.2451 28.329 95.793C27.5589 94.3706 26.5552 93.1032 25.5773 91.8214C24.6275 90.5764 23.7435 89.2867 22.9802 87.9179C21.5024 85.268 20.5651 82.2741 21.1997 79.2311C21.7538 76.5738 23.3988 74.139 25.7696 72.7798C28.5168 71.2047 31.9329 71.3639 34.8544 72.3402C37.6599 73.2776 40.2482 75.2133 41.2826 78.0717C41.5299 78.755 41.6787 79.4651 41.716 80.1909C41.7365 80.5903 42.3605 80.5927 42.3398 80.1908Z" fill="black"/>
<path d="M31.4132 82.3138C29.4846 82.475 27.5463 82.6343 25.6094 82.5523C24.7843 82.5174 23.976 82.3303 23.1767 82.1353C22.7824 82.0392 22.3886 81.9429 21.9913 81.8656C21.6623 81.8015 21.3468 81.708 21.0039 81.7466C20.9768 81.7496 20.948 81.754 20.9275 81.772C20.9025 81.7939 20.8964 81.8298 20.8924 81.8627C20.8062 82.5667 20.9666 83.2767 21.1631 83.9581C21.4229 84.8594 21.7479 85.742 22.1346 86.5965C22.1687 86.6717 22.2043 86.7484 22.2629 86.8065C22.338 86.8809 22.4421 86.9166 22.5424 86.9499C22.8592 86.9499 23.3078 87.2069 23.6101 87.3085C23.9751 87.4312 24.3567 87.5187 24.7311 87.6164C25.2558 87.7534 25.7815 87.8905 26.3168 87.9775C26.9341 88.0779 27.5604 88.1109 28.1805 88.1924C29.7668 88.4009 31.3258 88.8506 32.9254 88.8275C34.6508 88.8025 36.3728 88.6037 38.0613 88.2496C39.4458 87.9592 40.8083 87.5644 42.135 87.0737C44.9673 86.0262 47.7105 84.5195 49.6611 82.2143C50.3954 81.3466 51.0233 80.3334 51.157 79.2046C51.1735 79.066 51.1796 78.9154 51.1039 78.7983C50.9368 78.54 50.5437 78.6325 50.2597 78.7506C44.3308 81.2158 37.8119 81.779 31.4132 82.3138Z" fill="black"/>
<path d="M31.4135 82.002C30.1602 82.1067 28.906 82.2105 27.6485 82.248C26.3767 82.286 25.131 82.2627 23.8853 81.9825C23.2807 81.8466 22.6819 81.6884 22.0745 81.5649C21.6935 81.4875 20.8223 81.1972 20.6173 81.6931C20.5276 81.91 20.5505 82.2089 20.5609 82.4394C20.5754 82.7564 20.6252 83.0734 20.6927 83.3831C20.82 83.9668 21.0044 84.5409 21.2022 85.104C21.398 85.6611 21.6102 86.2211 21.8655 86.7541C22.1095 87.2634 22.6147 87.2296 23.0745 87.4237C23.5875 87.6402 24.1101 87.7779 24.6485 87.9173C25.2699 88.0783 25.8902 88.2347 26.5271 88.3214C27.1152 88.4013 27.7083 88.4372 28.296 88.5205C28.9238 88.6096 29.5459 88.7338 30.1699 88.8457C31.396 89.0655 32.5929 89.1721 33.8386 89.1101C36.3037 88.9875 38.7525 88.5241 41.0994 87.7628C43.151 87.0973 45.1685 86.2258 46.9598 85.0139C47.8266 84.4275 48.644 83.7615 49.3684 83.0051C50.1052 82.2357 50.7769 81.3734 51.174 80.3768C51.3507 79.9332 51.5939 79.2678 51.4411 78.7894C51.2919 78.3223 50.7801 78.2631 50.3713 78.3808C49.8236 78.5384 49.2945 78.8066 48.7575 79.0008C48.2068 79.2 47.651 79.3845 47.0911 79.5559C42.5617 80.9423 37.8275 81.4504 33.1264 81.857C32.5555 81.9064 31.9845 81.9542 31.4135 82.002C31.0163 82.0352 31.0128 82.6593 31.4135 82.6258C35.1861 82.3104 38.969 81.9886 42.6914 81.2748C44.5413 80.9201 46.3742 80.4666 48.1608 79.8678C48.6114 79.7168 49.0588 79.5567 49.5026 79.3868C49.71 79.3074 49.9167 79.2258 50.1225 79.1421C50.3026 79.0688 50.5019 78.9606 50.6998 78.9474C50.9071 78.9336 50.8625 79.0797 50.8388 79.2496C50.8088 79.4646 50.7554 79.6777 50.6898 79.8844C50.5569 80.3031 50.3569 80.6962 50.1238 81.0676C49.2241 82.5012 47.8701 83.6707 46.4675 84.5935C45.0374 85.5344 43.474 86.2588 41.8671 86.8409C40.0109 87.5132 38.085 87.9996 36.1294 88.272C35.1185 88.4128 34.0982 88.4921 33.0779 88.5129C32.085 88.5332 31.1128 88.386 30.1388 88.2084C29.1605 88.03 28.1884 87.8754 27.1987 87.7753C26.1928 87.6735 25.2258 87.4288 24.2503 87.1711C23.8463 87.0644 23.4777 86.9086 23.0891 86.7607C22.9229 86.6975 22.7028 86.7006 22.5501 86.6232C22.3742 86.534 22.2987 86.2046 22.2256 86.0319C21.8548 85.1548 21.5306 84.2407 21.3157 83.3121C21.2601 83.0719 21.2142 82.8293 21.1943 82.5834C21.1852 82.4716 21.1801 82.3594 21.1807 82.2471C21.1812 82.1672 21.1545 81.9985 21.197 81.9295L21.0106 82.0729C21.3559 81.9578 21.8638 82.1538 22.206 82.2277C22.6321 82.3197 23.0541 82.4289 23.4784 82.5285C24.3358 82.7299 25.1872 82.8586 26.0684 82.8793C27.8537 82.9211 29.636 82.7743 31.4135 82.6258C31.8106 82.5926 31.8142 81.9685 31.4135 82.002Z" fill="black"/>
<path d="M98.8763 40.509C94.8686 34.0458 90.4715 27.1823 84.9982 22.1216C83.6796 20.9024 82.0546 19.7904 80.2608 19.8757C78.9471 19.9381 77.7294 20.6545 76.8194 21.6041C75.9094 22.5537 75.2689 23.7254 74.6842 24.9035C71.1569 32.0116 68.9463 39.8429 66.683 47.4306C64.8877 53.4495 63.2393 59.512 61.7397 65.6113C60.9753 68.7206 60.2494 71.8396 59.5626 74.967C58.9626 77.6988 58.1168 80.7567 59.0329 83.5303C60.1741 86.9857 63.6625 86.5891 66.5876 86.4459C73.2266 86.1208 79.8044 85.09 86.3505 83.9807C94.7974 82.5494 103.294 80.9631 111.189 77.7491C114.246 76.5049 115.966 74.5504 115.366 71.0083C114.558 66.2325 111.157 61.6101 108.845 57.4381C106.225 52.7107 103.535 48.0211 100.684 43.4287C100.089 42.47 99.4871 41.4942 98.8763 40.509Z" fill="white"/>
<path d="M99.1451 40.3514C95.7603 34.8937 92.2891 29.4153 87.9461 24.6562C86.9055 23.5159 85.8241 22.3753 84.6347 21.3881C83.5122 20.4562 82.1885 19.6509 80.6961 19.566C77.4178 19.3795 75.4996 22.5249 74.2517 25.0761C71.2787 31.1537 69.2721 37.6414 67.3449 44.1088C65.3161 50.9168 63.3707 57.7435 61.6582 64.6389C60.7938 68.1189 59.9893 71.6122 59.2108 75.1123C58.8545 76.714 58.4633 78.3173 58.3478 79.9592C58.2419 81.4633 58.3717 83.0979 59.0854 84.4542C60.1767 86.528 62.509 86.8869 64.6402 86.8445C67.8408 86.7807 71.0497 86.4778 74.227 86.1044C77.7927 85.6852 81.3411 85.1329 84.8819 84.5422C88.2881 83.974 91.693 83.3904 95.0773 82.7022C98.4298 82.0204 101.763 81.2327 105.039 80.2415C106.67 79.7478 108.286 79.2033 109.879 78.5976C111.119 78.1262 112.393 77.6611 113.471 76.8674C114.317 76.2437 115.01 75.4508 115.407 74.4698C115.857 73.3613 115.865 72.1406 115.675 70.975C115.171 67.8891 113.657 65.0362 112.105 62.3627C111.319 61.0089 110.494 59.6781 109.708 58.3246C108.855 56.857 108.049 55.3618 107.214 53.884C105.47 50.7971 103.686 47.7324 101.837 44.7069C100.947 43.2506 100.044 41.802 99.1451 40.3514C98.934 40.0108 98.3941 40.3237 98.6064 40.6662C100.417 43.5872 102.224 46.5094 103.961 49.4753C105.681 52.4128 107.307 55.4025 109.004 58.3529C110.535 61.0154 112.239 63.5873 113.528 66.382C114.16 67.7514 114.687 69.1793 114.985 70.6605C115.219 71.8217 115.281 73.0354 114.861 74.1629C113.998 76.4792 111.414 77.3634 109.305 78.1498C106.204 79.306 103.022 80.2324 99.807 81.0142C96.5555 81.805 93.2702 82.4487 89.9766 83.0367C86.5905 83.6413 83.197 84.2141 79.7957 84.7266C76.3235 85.2498 72.8372 85.6918 69.3353 85.9602C67.9095 86.0695 66.4794 86.1575 65.0501 86.2089C63.9969 86.2469 62.9128 86.2485 61.8925 85.9508C60.8753 85.654 60.0618 85.0137 59.5839 84.0612C58.8955 82.6889 58.8592 81.0317 59.0077 79.5354C59.1691 77.9105 59.5827 76.3195 59.9335 74.7284C60.3113 73.015 60.7008 71.3042 61.102 69.5962C62.6944 62.8163 64.4704 56.0795 66.4269 49.3956C68.2853 43.0471 70.0932 36.6473 72.5416 30.495C73.1536 28.9573 73.8102 27.4373 74.5232 25.9437C75.1966 24.5333 75.8848 23.0646 76.9598 21.9087C77.9356 20.8593 79.2794 20.0891 80.75 20.1936C82.2509 20.3003 83.5763 21.2531 84.655 22.2303C89.2593 26.4011 92.8547 31.6161 96.1877 36.8173C97.0053 38.0931 97.8078 39.3785 98.6064 40.6662C98.8176 41.0067 99.3575 40.6938 99.1451 40.3514Z" fill="black"/>
<path d="M33.0221 85.2079C49.5884 85.2079 63.018 71.7782 63.018 55.2119C63.018 38.6455 49.5884 25.2158 33.0221 25.2158C16.4558 25.2158 3.02612 38.6455 3.02612 55.2119C3.02612 71.7782 16.4558 85.2079 33.0221 85.2079Z" fill="white"/>
<path d="M62.7069 55.2119C62.7026 58.3313 62.2206 61.436 61.2567 64.4037C60.3315 67.252 58.9665 69.9505 57.2339 72.3927C55.5146 74.8163 53.4208 76.9875 51.0599 78.7925C48.6882 80.6056 46.0437 82.0667 43.2395 83.0922C40.3295 84.1563 37.2588 84.7591 34.1627 84.8747C31.0434 84.9913 27.9148 84.6252 24.9111 83.774C22.0082 82.9515 19.2418 81.6811 16.7211 80.0236C14.2445 78.395 12.0186 76.3923 10.1284 74.1095C8.22213 71.8072 6.65949 69.2048 5.53192 66.4361C4.37558 63.5968 3.65941 60.5795 3.42653 57.5224C3.18755 54.3853 3.43557 51.2143 4.18204 48.1574C4.89689 45.2299 6.05914 42.4219 7.62093 39.8448C9.16539 37.2964 11.0929 34.9887 13.3197 33.0087C15.5435 31.0314 18.0661 29.3947 20.7747 28.1627C23.5595 26.896 26.5554 26.0669 29.5952 25.7214C32.7136 25.367 35.8893 25.495 38.9652 26.1219C41.9406 26.7283 44.8155 27.7924 47.4668 29.2727C50.0596 30.7203 52.4271 32.554 54.4798 34.6996C56.5439 36.8573 58.2769 39.3228 59.6101 41.9947C60.9661 44.7123 61.8914 47.6399 62.3591 50.6403C62.5948 52.152 62.7048 53.6822 62.7069 55.2119C62.7075 55.6133 63.3313 55.6139 63.3307 55.2119C63.3263 52.0408 62.8381 48.8712 61.8582 45.8542C60.9128 42.9437 59.5238 40.1775 57.7497 37.6841C55.9835 35.2016 53.8535 32.9956 51.4372 31.1405C49.0139 29.2801 46.3106 27.7966 43.4429 26.7439C40.4841 25.6577 37.3536 25.0491 34.2047 24.9268C31.0203 24.8031 27.8117 25.1792 24.7452 26.0482C21.794 26.8845 18.9691 28.1762 16.4062 29.8615C13.864 31.5332 11.5717 33.5851 9.6372 35.9338C7.69673 38.2898 6.11937 40.9243 4.96059 43.7479C3.76992 46.6492 3.04865 49.7338 2.80586 52.8598C2.55807 56.05 2.81637 59.2829 3.57091 62.3927C4.29638 65.3827 5.48771 68.2626 7.08225 70.8937C8.65942 73.4962 10.6312 75.8631 12.9079 77.8822C15.1847 79.9013 17.7595 81.5801 20.5323 82.8326C23.3798 84.1188 26.4097 84.9546 29.5129 85.3166C32.7001 85.6884 35.9463 85.5482 39.091 84.9114C42.1178 84.2985 45.0488 83.2107 47.7471 81.7089C50.4077 80.2281 52.846 78.3397 54.948 76.1368C57.0443 73.9398 58.8139 71.4274 60.1664 68.7083C61.5493 65.928 62.5035 62.9379 62.9732 59.8679C63.2089 58.3268 63.3285 56.7709 63.3307 55.2119C63.3313 54.8104 62.7075 54.8099 62.7069 55.2119Z" fill="black"/>
<path d="M75.881 63.9013C68.4272 68.1634 59.7704 70.0888 51.1845 70.1732C46.0943 70.2233 41.011 69.6438 36.0281 68.6222C31.4502 67.6836 26.7358 66.5483 22.5778 64.3952C21.8286 64.0073 20.421 63.1725 19.5238 63.5986C18.3779 64.1428 18.7602 65.9129 19.7588 66.3815C18.6155 66.393 17.4752 66.6461 16.4344 67.1193C15.7427 67.4338 15.052 67.8953 14.7886 68.6081C14.5253 69.3209 14.9178 70.2949 15.6733 70.3769C15.0143 70.605 14.3641 71.079 14.2445 71.7659C14.1249 72.4529 14.8509 73.2256 15.4832 72.9316C14.9251 73.1494 14.6228 73.8651 14.857 74.4166C15.0913 74.968 15.8174 75.2473 16.3603 74.994C15.4329 75.4267 15.6752 76.9494 16.2886 77.4888C17.1775 78.2704 17.9294 77.4602 18.8377 77.1774C21.0449 76.4904 23.5095 76.3319 25.8038 76.5434C28.1233 76.7572 30.5513 77.8059 32.8401 78.3568C49.6934 82.413 67.5425 82.3848 84.5167 79.0472C86.4857 78.66 88.4456 78.2262 90.394 77.746" fill="white"/>
<path d="M75.7235 63.633C68.3247 67.8479 59.7927 69.7584 51.3194 69.8608C46.7067 69.9166 42.097 69.4536 37.5651 68.6073C33.3147 67.8136 29.0172 66.8557 25.0142 65.1882C24.0137 64.7714 23.0577 64.2769 22.0909 63.7903C21.362 63.4234 20.4419 62.9881 19.6094 63.2348C18.0106 63.7088 18.317 66.0002 19.6014 66.6518L19.7588 66.0706C18.8617 66.0872 17.9677 66.2293 17.1168 66.5171C16.3673 66.7706 15.5824 67.1104 15.0227 67.6875C14.5571 68.1676 14.3005 68.7963 14.4359 69.4642C14.5548 70.051 14.9784 70.5819 15.5904 70.6786V70.0771C14.7897 70.3704 13.8916 71.0077 13.9206 71.9645C13.9448 72.7611 14.758 73.5434 15.5661 73.2334L15.3257 72.6633C14.6381 72.9729 14.2728 73.8343 14.572 74.5377C14.8706 75.2399 15.7429 75.5797 16.4432 75.2958L16.2029 74.7257C14.6559 75.5248 15.5981 78.3874 17.3292 78.1101C17.8805 78.0217 18.3435 77.6763 18.8642 77.4982C19.4649 77.2927 20.0956 77.1547 20.7196 77.0419C22.012 76.8081 23.3328 76.7352 24.6444 76.7822C25.9446 76.8287 27.1944 77.0417 28.4467 77.3909C29.6955 77.7392 30.9198 78.1694 32.1713 78.5082C34.7705 79.2116 37.4432 79.7102 40.0965 80.1594C45.3878 81.0554 50.7421 81.575 56.1059 81.7373C61.52 81.9012 66.9443 81.7027 72.3337 81.1643C77.7451 80.6238 83.1256 79.7483 88.427 78.5349C89.1116 78.3783 89.7949 78.2155 90.4769 78.0478C90.8666 77.952 90.7015 77.3503 90.3111 77.4463C85.1723 78.7096 79.9558 79.6586 74.7008 80.282C69.5381 80.8943 64.3376 81.1956 59.1386 81.1675C53.899 81.1392 48.6577 80.779 43.4679 80.0532C40.8986 79.6938 38.3415 79.2466 35.8034 78.7086C34.5562 78.4443 33.3027 78.1797 32.0751 77.8342C30.8698 77.4951 29.6864 77.0829 28.4786 76.7524C26.1168 76.1061 23.6615 75.9928 21.2379 76.3312C20.0706 76.4942 18.9308 76.7531 17.8657 77.2639C17.3606 77.5061 16.8355 77.6579 16.4105 77.1706C16.177 76.9029 16.065 76.5098 16.0577 76.1606C16.0498 75.7823 16.1686 75.4447 16.5177 75.2643C16.8256 75.1053 16.6085 74.56 16.2774 74.6942C15.8638 74.8619 15.335 74.7377 15.1468 74.2954C14.9594 73.8552 15.2337 73.3852 15.6406 73.2019C15.9594 73.0584 15.7309 72.505 15.4003 72.6319C14.881 72.8311 14.4553 72.2189 14.5685 71.7431C14.6983 71.1972 15.2687 70.8572 15.7562 70.6786C16.0122 70.5848 16.0905 70.1299 15.7562 70.0771C15.2658 69.9996 15.0061 69.5314 15.0189 69.0589C15.0343 68.4896 15.484 68.0397 15.9327 67.7467C17.0415 67.0227 18.451 66.7186 19.7588 66.6944C20.0535 66.689 20.2025 66.2584 19.9162 66.1132C19.3646 65.8333 19.0338 65.1529 19.1543 64.5417C19.3212 63.6955 20.2181 63.7275 20.8709 63.9405C21.628 64.1875 22.3171 64.624 23.0297 64.972C23.9553 65.424 24.9044 65.8287 25.867 66.1952C29.76 67.6774 33.8902 68.5815 37.9824 69.3156C46.3507 70.8167 55.0012 70.9948 63.3185 69.0775C67.7629 68.0529 72.0724 66.4309 76.0384 64.1716C76.3872 63.9729 76.0732 63.4337 75.7235 63.633Z" fill="black"/>
<path d="M33.8374 55.5829C41.2912 59.845 49.948 61.7704 58.5339 61.8548C63.6241 61.9049 68.7074 61.3255 73.6902 60.3038C78.2682 59.3652 82.9825 58.2299 87.1406 56.0769C87.8898 55.6889 89.2974 54.8541 90.1946 55.2802C91.3405 55.8244 90.9582 57.5946 89.9596 58.0631C91.1029 58.0746 92.2432 58.3277 93.284 58.8009C93.9757 59.1155 94.6664 59.5769 94.9297 60.2897C95.1931 61.0026 94.8006 61.9765 94.0451 62.0585C94.7041 62.2866 95.3543 62.7606 95.4739 63.4476C95.5935 64.1346 94.8675 64.9072 94.2352 64.6133C94.7933 64.831 95.0956 65.5468 94.8613 66.0982C94.6271 66.6496 93.901 66.929 93.3581 66.6756C94.2854 67.1083 94.0432 68.631 93.4298 69.1704C92.5409 69.9521 91.789 69.1418 90.8807 68.8591C88.6735 68.172 86.2089 68.0135 83.9146 68.225C81.5951 68.4389 79.1671 69.4875 76.8783 70.0384C71.9151 71.2329 66.8671 72.0756 61.7849 72.5562C55.192 73.1797 48.508 73.1915 41.9832 72.0592C35.4585 70.9268 29.0847 68.6218 23.6263 64.872" fill="white"/>
<path d="M33.6798 55.8533C40.7656 59.8908 48.8869 61.8451 57.003 62.1332C61.4144 62.2898 65.8348 61.9523 70.1914 61.2588C74.3641 60.5945 78.5762 59.7071 82.5782 58.3365C83.6659 57.964 84.7386 57.5466 85.7875 57.0756C86.6847 56.6728 87.5345 56.1614 88.4381 55.7765C89.0906 55.4986 90.2114 55.173 90.5261 56.0819C90.7463 56.7178 90.3882 57.499 89.802 57.7949C89.5156 57.9395 89.6648 58.3708 89.9594 58.3761C91.2694 58.4 92.6944 58.7048 93.8019 59.4387C94.2382 59.7278 94.6759 60.1681 94.6989 60.7228C94.7187 61.2016 94.4589 61.6813 93.962 61.7588C93.6282 61.8109 93.706 62.2668 93.962 62.3604C94.4667 62.5447 95.0636 62.906 95.1619 63.4844C95.2407 63.9481 94.8059 64.5042 94.3179 64.3136C93.9917 64.1862 93.755 64.7395 94.0776 64.8837C94.496 65.0707 94.7811 65.5791 94.5531 66.0225C94.3438 66.4296 93.8378 66.5393 93.4408 66.376C93.1142 66.2416 92.8887 66.7859 93.2005 66.9461C93.8642 67.2872 93.739 68.3047 93.3407 68.8135C92.991 69.2603 92.5062 69.2372 92.0332 69.0306C91.5508 68.8199 91.1031 68.5933 90.5932 68.4498C88.3137 67.8081 85.8247 67.6566 83.4783 67.9639C81.092 68.2765 78.853 69.2495 76.5219 69.8041C73.9704 70.4112 71.3968 70.9255 68.8079 71.3452C63.6497 72.1814 58.4156 72.6729 53.1877 72.668C48.1434 72.6632 43.0872 72.1668 38.1876 70.9402C33.6417 69.8021 29.2398 68.0467 25.2556 65.5667C24.7577 65.2568 24.2675 64.935 23.7836 64.6038C23.4515 64.3764 23.1391 64.9168 23.4687 65.1424C27.4708 67.8821 31.9587 69.8627 36.6219 71.1704C41.6202 72.5721 46.815 73.1962 51.9982 73.2815C57.4208 73.3708 62.8544 72.8969 68.2104 72.0676C70.8949 71.652 73.5636 71.1351 76.209 70.5184C77.4565 70.2276 78.675 69.862 79.8977 69.4822C81.1101 69.1056 82.3395 68.7305 83.6031 68.5717C84.8441 68.4157 86.1192 68.4125 87.3646 68.5128C88.5841 68.611 89.9331 68.7797 91.0684 69.2621C91.5217 69.4548 91.9498 69.7381 92.448 69.7994C92.9246 69.8581 93.3902 69.6695 93.7208 69.3232C94.2179 68.8024 94.4227 67.9141 94.2009 67.2289C94.0849 66.8708 93.8515 66.5801 93.5153 66.4074L93.275 66.9775C93.96 67.2593 94.8178 66.9327 95.1304 66.2567C95.4572 65.55 95.0934 64.6583 94.3924 64.345L94.1521 64.9151C94.9492 65.2264 95.7563 64.4573 95.7948 63.6741C95.8423 62.7046 94.9392 62.0552 94.1278 61.7588V62.3603C94.7333 62.2658 95.1583 61.7404 95.2801 61.16C95.4222 60.4827 95.16 59.8442 94.6866 59.3592C94.1501 58.8096 93.4068 58.4816 92.6936 58.2309C91.8152 57.9221 90.8892 57.7692 89.9594 57.7523L90.1168 58.3335C91.2337 57.7697 91.6787 55.9282 90.5608 55.1364C89.9123 54.677 89.0718 54.8566 88.386 55.1281C87.5834 55.4457 86.8378 55.8973 86.0587 56.2665C82.1658 58.1111 77.9333 59.1146 73.7331 59.9782C65.0152 61.7708 55.9501 62.1999 47.2108 60.302C42.5883 59.2982 38.1083 57.6586 33.9946 55.3146C33.6453 55.1156 33.3307 55.6544 33.6798 55.8533Z" fill="black"/>
<path d="M9.5916 60.9214C9.37576 62.2785 7.14371 62.4005 6.14606 62.2276C3.5281 61.7742 1.06985 60.079 0.533068 57.3933C-0.0400697 54.5257 0.508023 51.4335 2.09172 48.9683C2.41807 48.4603 2.81155 47.9571 3.36821 47.7233C3.45525 47.6867 3.55048 47.6569 3.64297 47.6757C3.85426 47.7188 3.93536 47.9762 3.95213 48.1911C4.00436 48.8612 3.84501 49.6136 4.25246 50.1481C4.58118 50.5792 5.21802 50.7595 5.40169 51.2696C5.54578 51.6698 5.32131 52.1395 4.95917 52.3625C4.59706 52.5856 4.13605 52.5961 3.72417 52.4899C3.92954 52.5429 4.23621 53.105 4.62958 53.2043C5.10202 53.3236 5.66655 53.3158 6.15828 53.3827C6.85581 53.4775 7.5453 53.6314 8.21691 53.8423C8.59256 53.9603 9.01281 54.1479 9.11409 54.5284C9.22628 54.9499 8.88247 55.3473 8.54895 55.6284C8.9341 55.6632 9.30574 55.8327 9.58455 56.1007C9.72813 56.2387 9.85134 56.4114 9.8752 56.6091C9.90752 56.8769 9.75234 57.1331 9.56537 57.3275C9.34365 57.5581 9.06822 57.7366 8.76725 57.8449C9.05151 57.9414 9.31503 58.0985 9.53511 58.3026C9.64562 58.4051 9.74754 58.5233 9.79695 58.6657C9.89191 58.9394 9.76964 59.251 9.5671 59.4582C9.36458 59.6654 9.0941 59.7896 8.82958 59.9078C9.30472 59.9365 9.66638 60.4513 9.5916 60.9214Z" fill="white"/>
<path d="M9.29088 60.8387C9.17252 61.494 8.52435 61.7547 7.93787 61.8804C7.31005 62.015 6.64201 62.0127 6.01325 61.8869C4.32032 61.5483 2.64264 60.6713 1.64557 59.2234C1.12207 58.4632 0.860355 57.6189 0.73083 56.7115C0.583575 55.68 0.585321 54.617 0.727941 53.5851C0.874509 52.5247 1.16968 51.4737 1.6135 50.499C1.82959 50.0244 2.07896 49.5646 2.36108 49.126C2.62481 48.716 2.93528 48.2932 3.37783 48.0632C3.49746 48.001 3.56029 47.9464 3.61718 48.0764C3.66344 48.1821 3.64894 48.324 3.65128 48.4357C3.65735 48.7243 3.64039 49.0134 3.66261 49.3016C3.70455 49.8455 3.8924 50.3081 4.32437 50.6543C4.61474 50.8871 5.19337 51.1456 5.13077 51.5987C5.04412 52.2258 4.30043 52.3062 3.80716 52.1895C3.41142 52.0958 3.26842 52.6536 3.64133 52.791C3.73284 52.8248 3.91009 53.0811 4.00407 53.1693C4.18776 53.3415 4.38388 53.4682 4.63102 53.5252C5.25769 53.6696 5.91596 53.6466 6.54964 53.7576C7.15126 53.8629 7.80028 53.9838 8.36421 54.2252C8.55812 54.3082 8.81734 54.4426 8.82384 54.6855C8.83174 54.9805 8.52902 55.2348 8.32846 55.4081C8.10096 55.6047 8.30784 55.9127 8.54902 55.9406C8.89885 55.981 9.48365 56.2219 9.56105 56.6194C9.64435 57.0472 9.00626 57.4209 8.6844 57.5444C8.39426 57.6558 8.38426 58.0376 8.6844 58.146C8.96033 58.2456 9.50784 58.5117 9.51699 58.8599C9.52817 59.2854 8.98571 59.4978 8.67222 59.6388C8.35741 59.7804 8.56115 60.1906 8.82964 60.22C9.16541 60.2568 9.31324 60.6299 9.2797 60.9217C9.23393 61.3198 9.85812 61.3165 9.90351 60.9217C9.98001 60.2561 9.48172 59.6677 8.82964 59.5962L8.98706 60.1774C9.56011 59.9197 10.2029 59.4971 10.1344 58.7767C10.0743 58.1441 9.38804 57.7387 8.85022 57.5444V58.146C9.48342 57.9028 10.3118 57.311 10.176 56.5265C10.0491 55.7937 9.21117 55.3933 8.549 55.3168L8.76956 55.8492C9.2563 55.4286 9.70631 54.7517 9.26371 54.1331C8.87967 53.5964 8.0648 53.4547 7.46732 53.3118C6.70031 53.1284 5.93712 53.0675 5.15704 52.9804C4.83142 52.9441 4.60525 52.8923 4.37313 52.6574C4.19773 52.4799 4.04865 52.2785 3.80716 52.1895L3.64133 52.791C4.21927 52.9278 4.86012 52.8886 5.32169 52.4766C5.70407 52.1352 5.87246 51.5649 5.66151 51.0877C5.4503 50.6099 4.9646 50.4225 4.60928 50.0789C4.19283 49.6762 4.28085 49.0451 4.27609 48.5182C4.27187 48.0503 4.18302 47.3272 3.55 47.36C2.98715 47.3891 2.47614 47.9252 2.15513 48.3389C1.42318 49.282 0.903666 50.422 0.546931 51.556C0.182693 52.7139 -0.00064261 53.9353 1.69229e-06 55.1489C0.000604426 56.2931 0.122025 57.5047 0.574221 58.5657C1.38461 60.4669 3.1953 61.7471 5.13625 62.3139C6.04549 62.5794 6.96505 62.6757 7.90305 62.52C8.75551 62.3785 9.72198 61.948 9.89237 61.0046C9.96326 60.6121 9.36223 60.4436 9.29088 60.8387Z" fill="black"/>
<path d="M102.799 60.8033C103.573 61.9389 105.644 61.0976 106.472 60.516C108.647 58.9896 110.148 56.4082 109.489 53.75C108.785 50.9117 106.97 48.3483 104.487 46.7936C103.975 46.4732 103.405 46.1858 102.801 46.2116C102.707 46.2156 102.608 46.2292 102.533 46.2857C102.36 46.4147 102.396 46.6821 102.473 46.8837C102.711 47.5121 103.176 48.1248 103.035 48.782C102.922 49.3121 102.423 49.7467 102.474 50.2864C102.591 51.5222 104.124 50.9284 104.696 50.4772C104.827 50.7918 104.538 51.1147 104.265 51.3179C103.055 52.2171 101.574 52.7816 100.589 53.9227C100.49 54.0379 100.393 54.1645 100.365 54.3141C100.295 54.6836 101.02 55.8442 101.485 55.5712C101.152 55.767 100.888 56.0786 100.75 56.4398C100.679 56.6258 100.641 56.8345 100.704 57.0236C100.789 57.2795 101.038 57.4452 101.29 57.5413C101.589 57.6553 101.914 57.6994 102.233 57.6691C102.017 57.8775 101.845 58.132 101.733 58.4105C101.677 58.5503 101.635 58.7006 101.651 58.8505C101.682 59.1386 101.926 59.3683 102.197 59.4694C102.469 59.5705 102.766 59.5675 103.056 59.5617C102.638 59.7902 102.531 60.41 102.799 60.8033Z" fill="white"/>
<path d="M102.529 60.9611C103.101 61.7605 104.106 61.7738 104.978 61.5392C105.888 61.2945 106.677 60.8105 107.384 60.1962C109.105 58.6992 110.242 56.4592 109.885 54.1449C109.711 53.0167 109.251 51.8971 108.713 50.897C108.153 49.8591 107.436 48.8992 106.596 48.071C106.195 47.6752 105.764 47.3114 105.31 46.9774C104.808 46.6074 104.269 46.2479 103.676 46.0411C103.209 45.878 102.318 45.7129 102.128 46.3511C101.97 46.8803 102.404 47.4432 102.595 47.9053C102.726 48.2207 102.808 48.5459 102.682 48.8766C102.57 49.1686 102.376 49.4222 102.261 49.7141C102.082 50.1686 102.137 50.7571 102.526 51.0908C103.17 51.6431 104.276 51.1919 104.854 50.7469L104.395 50.5604C104.504 50.905 103.861 51.2288 103.624 51.3838C103.271 51.6145 102.907 51.8268 102.545 52.0429C101.833 52.4682 101.115 52.9152 100.537 53.5175C100.305 53.7591 100.033 54.0501 100.05 54.41C100.062 54.6714 100.191 54.9342 100.325 55.1526C100.592 55.587 101.087 56.1205 101.642 55.8409L101.327 55.3023C100.771 55.6463 100.209 56.3696 100.392 57.0658C100.589 57.8146 101.569 58.029 102.232 57.9813L102.012 57.4489C101.592 57.8699 101.144 58.5757 101.428 59.1798C101.722 59.8044 102.445 59.8849 103.056 59.874L102.898 59.2928C102.331 59.6383 102.183 60.4049 102.529 60.9611C102.741 61.3012 103.281 60.9884 103.068 60.6463C102.903 60.3819 102.929 60.0042 103.213 59.8314C103.472 59.6738 103.371 59.2445 103.056 59.2502C102.725 59.2561 102.176 59.2911 101.998 58.9285C101.834 58.5941 102.234 58.1093 102.453 57.89C102.633 57.7091 102.51 57.3376 102.232 57.3575C101.88 57.3829 101.107 57.3453 100.994 56.8995C100.891 56.4913 101.332 56.0325 101.642 55.8409C101.986 55.6284 101.684 55.1221 101.327 55.3023C101.337 55.2972 101.398 55.3171 101.305 55.2944C101.279 55.288 101.244 55.2628 101.221 55.2485C101.135 55.1933 101.061 55.1086 100.997 55.0297C100.864 54.8653 100.728 54.6541 100.684 54.4437C100.639 54.2331 100.942 53.9901 101.095 53.8407C101.354 53.5884 101.638 53.3663 101.937 53.1624C102.539 52.7503 103.182 52.4047 103.798 52.0136C104.332 51.6736 105.239 51.1644 104.997 50.3946C104.943 50.2239 104.706 50.079 104.539 50.2082C104.305 50.3878 104.039 50.5288 103.759 50.6192C103.531 50.6926 103.197 50.7867 102.974 50.6489C102.682 50.468 102.783 50.036 102.909 49.7877C103.128 49.3577 103.397 48.9627 103.371 48.4572C103.342 47.9153 103.055 47.4453 102.84 46.9617C102.796 46.8632 102.744 46.7563 102.728 46.6488C102.709 46.5238 102.709 46.5525 102.801 46.5239C103.055 46.4452 103.46 46.613 103.688 46.7126C104.608 47.113 105.447 47.8134 106.155 48.5121C107.599 49.9372 108.648 51.7523 109.158 53.7163C109.667 55.679 108.943 57.657 107.6 59.1164C106.964 59.8076 106.212 60.424 105.329 60.7672C104.681 61.0191 103.565 61.3413 103.068 60.6463C102.836 60.3227 102.295 60.6338 102.529 60.9611Z" fill="black"/>
<path d="M104.798 48.8725C105.037 49.6796 104.555 50.4481 104.103 51.0783C104.004 51.2152 104.079 51.4256 104.215 51.505C104.372 51.5968 104.543 51.5304 104.641 51.3931C105.196 50.6197 105.689 49.683 105.4 48.7066C105.286 48.3226 104.684 48.4861 104.798 48.8725Z" fill="black"/>
<path d="M2.37072 51.4087C2.48098 52.1207 3.12952 52.5489 3.70212 52.8827C3.84316 52.965 4.05012 52.9198 4.12885 52.7708C4.20777 52.6215 4.16753 52.4319 4.01695 52.3441C3.88599 52.2677 3.75495 52.1913 3.62848 52.1077C3.59693 52.0868 3.56565 52.0655 3.53478 52.0436C3.51627 52.0305 3.49806 52.0171 3.47971 52.0038C3.44232 51.9766 3.4863 52.0002 3.48875 52.0114C3.48449 51.9919 3.41831 51.9544 3.40112 51.9397C3.37036 51.9132 3.34031 51.8859 3.31117 51.8577C3.26121 51.8093 3.21686 51.757 3.17092 51.7049C3.14415 51.6746 3.21534 51.7671 3.17518 51.7106C3.16516 51.6965 3.15494 51.6826 3.14515 51.6684C3.12565 51.64 3.10714 51.6109 3.08976 51.5811C3.07245 51.5515 3.05626 51.5212 3.04133 51.4903C3.03763 51.4827 3.01708 51.4524 3.01993 51.4436C3.01552 51.4572 3.04543 51.5081 3.02496 51.4515C3.00047 51.3837 2.98328 51.3141 2.97227 51.2429C2.96109 51.1707 2.88907 51.0917 2.82892 51.0565C2.76206 51.0173 2.66354 51.0008 2.58858 51.025C2.41258 51.082 2.34387 51.2353 2.37072 51.4087Z" fill="black"/>
<path d="M76.5635 40.7976C77.7838 39.7483 79.6268 39.5145 81.0709 40.2244C81.4298 40.4009 81.7463 39.8631 81.3857 39.6858C79.6749 38.8447 77.5676 39.1138 76.1224 40.3565C75.8175 40.6187 76.2604 41.0582 76.5635 40.7976Z" fill="black"/>
<path d="M76.9602 44.5036C77.8521 43.8045 79.256 43.8193 80.136 44.5304C80.2669 44.6362 80.4492 44.6584 80.5771 44.5304C80.6865 44.421 80.7088 44.1957 80.5771 44.0893C79.4083 43.1449 77.7003 43.1367 76.5191 44.0625C76.3864 44.1665 76.4101 44.3946 76.5191 44.5036C76.6501 44.6346 76.8271 44.6079 76.9602 44.5036Z" fill="black"/>
<path d="M68.714 43.1573L68.7466 43.1518C68.7235 43.1543 68.7231 43.1543 68.7454 43.1518C68.7726 43.1484 68.8 43.1459 68.8273 43.1438C68.8765 43.14 68.9259 43.138 68.9752 43.1377C69.0578 43.1372 69.1932 43.1457 69.2453 43.1531C69.306 43.1618 69.4387 43.1909 69.5258 43.2162C69.5733 43.23 69.6203 43.2454 69.6668 43.2622C69.6927 43.2716 69.7185 43.2812 69.7439 43.2915C69.7072 43.2766 69.764 43.3006 69.7754 43.3059C70.1428 43.4751 70.4287 43.7167 70.6287 44.0386C70.7175 44.1815 70.9073 44.2372 71.0554 44.1505C71.1981 44.067 71.2566 43.8674 71.1673 43.7238C70.6192 42.8416 69.5663 42.3854 68.5482 42.5558C68.3819 42.5836 68.289 42.789 68.3303 42.9394C68.3788 43.1157 68.5473 43.1852 68.714 43.1573Z" fill="black"/>
<path d="M50.7214 40.6871C49.0293 39.8039 46.9182 40.0331 45.4444 41.239C45.1335 41.4933 45.5771 41.9324 45.8855 41.6801C47.1327 40.6596 48.9818 40.4821 50.4065 41.2258C50.762 41.4113 51.0778 40.8731 50.7214 40.6871Z" fill="black"/>
<path d="M51.1761 44.3866C49.8658 43.7754 48.1814 44.127 47.2817 45.2824C47.1783 45.4152 47.1522 45.5941 47.2817 45.7235C47.3894 45.8312 47.6187 45.8572 47.7228 45.7235C48.4402 44.8022 49.7863 44.4238 50.8613 44.9253C51.0139 44.9964 51.1975 44.9682 51.288 44.8134C51.367 44.6783 51.3295 44.4582 51.1761 44.3866Z" fill="black"/>
<path d="M58.5916 41.1138C57.5613 41.1778 56.6462 41.8768 56.3156 42.8552C56.2633 43.0099 56.3757 43.2029 56.5334 43.2389C56.7061 43.2782 56.8611 43.1867 56.9171 43.021C56.9262 42.9941 56.9355 42.9673 56.9455 42.9407C56.948 42.934 56.9769 42.8641 56.9616 42.8992C56.9483 42.9297 56.9826 42.8549 56.9868 42.8462C56.9971 42.8249 57.0076 42.8038 57.0186 42.783C57.0671 42.6909 57.123 42.6038 57.1829 42.5189C57.2359 42.4437 57.1448 42.5633 57.2029 42.492C57.2179 42.4737 57.2329 42.4555 57.2483 42.4376C57.2821 42.3981 57.3173 42.3598 57.3537 42.3228C57.3902 42.2857 57.428 42.2499 57.4669 42.2153C57.4846 42.1996 57.5024 42.1841 57.5206 42.169C57.524 42.1662 57.5962 42.1091 57.5464 42.1471C57.6291 42.0841 57.7166 42.0271 57.8072 41.976C57.8483 41.9528 57.8902 41.9308 57.9327 41.9102C57.9583 41.8979 57.984 41.8861 58.0099 41.8746C57.9601 41.8969 58.0249 41.8689 58.0402 41.863C58.1328 41.8278 58.2277 41.7988 58.3242 41.7765C58.3749 41.7648 58.426 41.7565 58.4771 41.7471C58.4086 41.7598 58.4985 41.7449 58.5066 41.7441C58.5349 41.7413 58.5632 41.7394 58.5916 41.7376C58.7541 41.7275 58.9113 41.6014 58.9035 41.4257C58.8963 41.2654 58.766 41.103 58.5916 41.1138Z" fill="black"/>
<path d="M63.1665 131.297C63.1051 130.459 62.8007 129.67 62.2616 129.024C61.6674 128.311 60.8306 127.96 59.9617 127.702C58.1934 127.177 56.196 126.713 54.8464 125.364C54.2825 124.801 53.9289 124.103 53.6961 123.348C53.6511 123.202 53.4723 123.063 53.3124 123.13C49.7201 124.625 45.9486 125.677 42.0995 126.248C40.9852 126.414 39.8735 126.529 38.7483 126.58C38.5532 126.588 38.3847 126.773 38.4476 126.974C39.2624 129.589 40.1024 132.196 40.8865 134.82C41.0743 135.448 41.2524 136.078 41.4853 136.692C41.702 137.263 41.9202 137.876 42.2294 138.405C42.5498 138.952 43.0859 139.01 43.6627 139.079C44.3583 139.163 45.0559 139.239 45.7566 139.263C47.0186 139.306 48.3844 139.231 49.5524 138.711C49.6784 138.655 49.7267 138.482 49.6957 138.359C49.609 138.015 49.5385 137.666 49.4875 137.314C49.4278 136.903 49.363 136.429 49.4724 136.021C49.4934 135.942 49.5016 135.91 49.5451 135.847C49.5647 135.818 49.5835 135.801 49.613 135.804C49.6551 135.807 49.7646 135.881 49.8282 135.967C49.9663 136.154 50.0803 136.364 50.1999 136.563C50.4359 136.955 50.6616 137.354 50.8782 137.757C51.0668 138.108 51.2691 138.368 51.6911 138.412C52.5905 138.506 53.5488 138.379 54.439 138.251C55.3689 138.118 56.2874 137.914 57.1958 137.676C58.7107 137.279 60.0927 136.652 61.2443 135.569C62.4213 134.462 63.2531 132.947 63.1665 131.297C63.1456 130.897 62.5217 130.895 62.5427 131.297C62.6204 132.778 61.882 134.103 60.8314 135.101C60.3103 135.596 59.7176 136.01 59.0807 136.342C58.3119 136.742 57.4772 136.965 56.6401 137.174C55.7245 137.403 54.7963 137.596 53.858 137.703C53.3929 137.756 52.9254 137.79 52.4573 137.8C52.2333 137.804 51.996 137.821 51.773 137.795C51.5597 137.77 51.5106 137.617 51.4168 137.442C51.2002 137.039 50.9745 136.64 50.7385 136.248C50.545 135.926 50.3531 135.503 50.0238 135.295C49.5773 135.014 49.0834 135.277 48.9123 135.729C48.7343 136.199 48.7913 136.757 48.8536 137.244C48.9087 137.675 48.988 138.103 49.0942 138.525L49.2375 138.172C48.2819 138.597 47.1469 138.655 46.1153 138.646C45.4827 138.642 44.8516 138.589 44.223 138.52C43.9265 138.488 43.6268 138.461 43.3322 138.415C43.0232 138.366 42.8523 138.263 42.709 137.98C42.1646 136.906 41.8175 135.754 41.4736 134.606C41.106 133.378 40.7183 132.156 40.3358 130.933C39.9059 129.558 39.4777 128.183 39.0491 126.809L38.7484 127.203C42.6759 127.028 46.6157 126.161 50.3365 124.912C51.3975 124.556 52.445 124.161 53.4782 123.731L53.0946 123.514C53.2995 124.179 53.5854 124.81 54.0149 125.361C54.5132 126.001 55.1721 126.492 55.8808 126.877C56.744 127.345 57.6771 127.672 58.6143 127.957C59.5069 128.229 60.5117 128.399 61.283 128.954C62.028 129.49 62.4764 130.391 62.5427 131.297C62.5719 131.695 63.1959 131.698 63.1665 131.297Z" fill="black"/>
<path d="M20.4047 108.013C19.5681 108.412 18.7594 108.884 17.9977 109.412C17.6304 109.667 17.3816 109.956 17.3404 110.419C17.2994 110.879 17.3568 111.361 17.3829 111.821C17.4347 112.734 17.5357 113.644 17.7417 114.536C17.9232 115.321 18.1733 116.122 18.6165 116.802C18.717 116.956 18.8814 116.984 19.0433 116.914C19.1142 116.884 19.0118 116.926 19.1023 116.889C19.1551 116.868 19.2078 116.847 19.2608 116.826C19.4139 116.766 19.5681 116.709 19.7236 116.655C20.0598 116.54 20.4029 116.438 20.753 116.374C20.982 116.333 21.3365 116.285 21.499 116.4C21.5081 116.407 21.5194 116.418 21.5212 116.43C21.5238 116.449 21.5272 116.502 21.4975 116.562C21.4423 116.675 21.3106 116.763 21.2182 116.844C21.0708 116.973 20.9212 117.1 20.7707 117.226C20.5199 117.436 20.2655 117.642 20.0071 117.842C19.7825 118.017 19.5082 118.174 19.3679 118.43C19.2354 118.672 19.2779 118.94 19.3147 119.2C19.3645 119.552 19.4286 119.901 19.5056 120.247C19.7925 121.537 20.2526 122.78 20.7743 123.991C21.2463 125.087 21.7868 126.108 22.605 126.988C23.3458 127.784 24.2453 128.442 25.2578 128.846C26.2593 129.246 27.4097 129.356 28.4476 129.027C29.448 128.709 30.3309 127.979 30.7593 127.012C31.0445 126.368 31.1225 125.669 31.2079 124.977C31.3005 124.227 31.3975 123.476 31.5563 122.737C31.8293 121.466 32.2791 120.193 33.2603 119.295C33.3584 119.205 33.3806 119.029 33.3091 118.917C31.2358 115.666 29.6532 112.044 28.9153 108.249C28.6917 107.099 28.5475 105.936 28.4347 104.77C28.4176 104.593 28.2454 104.385 28.0399 104.47C26.8165 104.971 25.5855 105.46 24.4011 106.05C23.0726 106.711 21.7461 107.377 20.4047 108.013C20.0421 108.184 20.3583 108.722 20.7195 108.551C22.0305 107.93 23.3272 107.28 24.6254 106.633C25.7924 106.052 27.0002 105.566 28.2058 105.071L27.8109 104.77C28.0108 106.837 28.3294 108.88 28.9208 110.874C29.4772 112.749 30.2141 114.572 31.1006 116.315C31.6086 117.315 32.1677 118.287 32.7704 119.232L32.8192 118.854C30.937 120.576 30.8723 123.286 30.4973 125.628C30.406 126.198 30.256 126.752 29.9226 127.232C29.631 127.65 29.2257 127.985 28.7749 128.22C27.8099 128.723 26.6526 128.682 25.6466 128.329C24.6204 127.968 23.7197 127.286 22.9917 126.488C22.1699 125.587 21.6584 124.509 21.193 123.393C20.6837 122.172 20.2527 120.911 20.0103 119.608C19.9808 119.449 19.9535 119.29 19.9302 119.13C19.9127 119.011 19.8694 118.861 19.911 118.745C19.9516 118.631 20.0999 118.551 20.1908 118.482C20.3289 118.376 20.4663 118.27 20.6027 118.162C20.8595 117.96 21.1126 117.753 21.3619 117.541C21.5893 117.348 21.849 117.16 22.015 116.908C22.2461 116.557 22.1705 116.073 21.8004 115.853C21.4865 115.666 21.086 115.697 20.7401 115.748C20.0455 115.85 19.3711 116.1 18.7285 116.375L19.1552 116.487C18.7539 115.871 18.5306 115.159 18.3618 114.449C18.1719 113.65 18.0709 112.838 18.0186 112.019C17.9904 111.577 17.9648 111.133 17.9577 110.69C17.9548 110.509 17.9498 110.319 18.0608 110.166C18.1742 110.009 18.3818 109.904 18.5405 109.799C19.2411 109.338 19.9621 108.912 20.7195 108.551C21.0817 108.379 20.7656 107.841 20.4047 108.013Z" fill="black"/>
<path d="M25.4144 84.7812C26.4347 87.3549 28.2929 89.4277 29.7517 91.7464C31.3056 94.2163 32.4246 96.9238 33.4365 99.6516C35.5546 105.361 37.6022 111.113 39.4226 116.925C40.4549 120.221 41.3963 123.546 42.1899 126.908C42.282 127.299 42.8837 127.133 42.7914 126.742C41.3729 120.733 39.4801 114.849 37.4494 109.022C36.4531 106.164 35.4321 103.313 34.3981 100.467C33.4074 97.741 32.3578 95.0164 30.9217 92.4882C30.1539 91.1364 29.2439 89.8842 28.348 88.6165C27.457 87.3558 26.5875 86.0573 26.0159 84.6154C25.8697 84.2466 25.2661 84.4073 25.4144 84.7812Z" fill="black"/>
<path d="M32.4399 85.4848C32.6838 86.7177 33.2451 87.852 33.8669 88.9342C34.5147 90.0617 35.1992 91.1617 35.7684 92.333C36.9423 94.7485 37.7771 97.3096 38.5967 99.8615C40.3486 105.316 41.9578 110.815 43.553 116.316C44.4575 119.436 45.3604 122.556 46.264 125.676C46.3755 126.061 46.9776 125.897 46.8655 125.51C45.2653 119.985 43.6825 114.454 42.0437 108.941C41.2229 106.179 40.3842 103.422 39.5114 100.676C38.6957 98.1094 37.8826 95.5319 36.7924 93.0657C36.1946 91.7131 35.4783 90.4368 34.7255 89.1661C34.008 87.9551 33.3174 86.7142 33.0414 85.3189C32.9636 84.9255 32.3622 85.0921 32.4399 85.4848Z" fill="black"/>
<path d="M37.1082 84.876C39.7665 89.6662 41.8632 94.7456 43.6178 99.9299C45.3972 105.188 46.831 110.556 48.1318 115.95C48.8513 118.933 49.5294 121.926 50.2028 124.92C50.2908 125.312 50.8924 125.146 50.8043 124.754C49.5902 119.356 48.3593 113.959 46.9023 108.62C45.4453 103.281 43.7663 97.9963 41.6411 92.8851C40.4588 90.0416 39.1414 87.2544 37.6468 84.5611C37.452 84.21 36.913 84.5243 37.1082 84.876Z" fill="black"/>
<path d="M82.7877 99.3013C82.5773 100.267 81.6157 104.041 81.2945 104.976C81.2859 103.766 81.1407 102.556 80.8626 101.379C80.2982 98.9882 79.1922 96.7376 78.7942 94.314C78.6101 93.1934 78.581 92.0475 78.7078 90.9189L82.7877 99.3013Z" fill="black"/>
<path d="M82.4872 99.2179C82.2779 100.173 82.028 101.121 81.7822 102.067C81.537 103.011 81.3087 103.969 80.9941 104.893L81.6067 104.975C81.5873 103.083 81.2204 101.25 80.6362 99.4552C80.0694 97.7138 79.3781 95.9982 79.0873 94.181C78.9148 93.1033 78.9026 92.0024 79.02 90.9184L78.4388 91.0758C78.8994 92.0222 79.3601 92.9686 79.8207 93.9151C80.551 95.4155 81.2813 96.9159 82.0116 98.4163C82.1806 98.7636 82.3497 99.1109 82.5187 99.4582C82.6944 99.8191 83.2325 99.5032 83.0573 99.1433C82.5967 98.1969 82.136 97.2505 81.6754 96.304C80.9451 94.8036 80.2148 93.3032 79.4845 91.8028C79.3155 91.4555 79.1464 91.1082 78.9774 90.7609C78.8277 90.4534 78.4259 90.6437 78.3962 90.9183C78.1933 92.7928 78.4428 94.6389 78.9791 96.4386C79.5043 98.2012 80.2226 99.9062 80.618 101.707C80.8541 102.781 80.9716 103.875 80.9829 104.975C80.9866 105.337 81.4838 105.387 81.5956 105.058C81.9102 104.135 82.1385 103.176 82.3837 102.233C82.6295 101.286 82.8794 100.339 83.0887 99.3837C83.1745 98.9924 82.5733 98.8253 82.4872 99.2179Z" fill="black"/>
<path d="M64.3496 33.2326C64.3472 33.2367 64.3448 33.2408 64.3425 33.2449C63.978 33.8673 63.5929 34.486 63.3638 35.17C63.1348 35.8539 63.0745 36.6237 63.3619 37.2852C62.6627 37.173 62.0545 36.6195 61.8769 35.934C61.7086 35.2841 61.9052 34.6031 62.0739 33.9534C62.2426 33.3036 62.3796 32.5926 62.106 31.9796C61.6408 30.9371 60.585 31.4166 59.7289 31.2648C59.4417 31.2138 59.1434 31.1168 58.958 30.8916C58.7183 30.6005 58.7313 30.1838 58.7566 29.8076C58.8136 28.9591 59.1485 28.2993 59.3126 27.514C59.4666 26.7769 59.7278 26.5429 58.5344 26.4904C52.4889 26.2244 46.3691 25.1419 41.0242 22.3045C39.4098 21.4475 37.8572 20.4185 36.6585 19.0388C35.4597 17.6591 34.6355 15.8936 34.6456 14.0659C34.6525 12.8063 35.0497 11.5756 35.5977 10.4414C37.8353 5.81012 42.5249 2.7301 47.4678 1.30772C52.4107 -0.114651 57.6426 -0.0854304 62.7836 0.0758327C64.3398 0.124654 65.6305 0.717747 67.1206 0.972434C68.8642 1.27046 70.5792 1.65224 72.2273 2.30995C74.9111 3.38099 77.3871 5.15785 78.8693 7.63836C80.3515 10.1189 80.7138 13.3497 79.4067 15.9267C78.6814 17.3566 77.5067 18.5088 76.2573 19.5136C72.2172 22.7627 65.0996 23.7734 63.934 29.6227C63.7189 30.7022 64.8941 30.8166 64.8672 31.832C64.8538 32.3351 64.6038 32.7978 64.3496 33.2326Z" fill="#8683FF"/>
<path d="M69.11 8.20822C67.6421 6.39488 64.989 6.19774 62.9436 7.03178C60.9342 7.85125 59.3051 9.39411 57.8245 10.9569C57.403 10.4885 56.9709 10.0346 56.5031 9.63051C54.799 8.15838 52.6458 7.01091 50.3249 7.26884C48.0032 7.52686 45.9442 8.92807 45.223 11.2116C44.5243 13.424 45.3949 15.7726 47.3447 17.0072C49.3394 18.2703 51.7893 18.0803 53.8745 17.171C55.3897 16.5103 56.6384 15.4891 57.795 14.3547C58.4446 15.0348 59.134 15.6716 59.9445 16.1791C62.9114 17.9428 67.8173 17.1197 69.6058 14.0106C70.6501 12.195 70.4171 9.82297 69.11 8.20822ZM52.434 15.2469C51.9892 15.4019 51.4509 15.5379 51.0566 15.5701C50.516 15.6143 50.105 15.5792 49.7226 15.4881C49.2243 15.3693 49.0202 15.2879 48.6282 15.0544C48.3647 14.8975 48.3654 14.9019 48.1778 14.7307C48.118 14.6762 48.0594 14.6198 48.0031 14.5618C47.9708 14.5286 47.7607 14.2674 47.7859 14.3103C47.2986 13.6001 47.2135 12.8398 47.4055 12.0791C47.6135 11.2549 48.0962 10.5951 48.8192 10.1547C50.6429 9.04381 52.798 9.65447 54.4772 10.9709C55.1136 11.4698 55.6794 12.0422 56.2254 12.6344C55.1163 13.7388 53.9098 14.7327 52.434 15.2469ZM67.9246 11.6947C67.9215 11.7566 67.916 11.8184 67.9101 11.8801C67.907 11.8983 67.9031 11.9213 67.898 11.9516C67.8717 12.0631 67.8502 12.1745 67.8187 12.2848C67.8086 12.3201 67.7003 12.6078 67.716 12.5873C67.6331 12.7602 67.5306 12.9194 67.4304 13.0829C67.4195 13.1006 67.4111 13.1149 67.4041 13.127C67.3951 13.1364 67.3847 13.1475 67.3721 13.1613C67.2935 13.2473 67.2178 13.335 67.1352 13.4175C67.076 13.4766 67.0153 13.5341 66.9528 13.5898C66.9073 13.6302 66.8608 13.6695 66.8139 13.7081C66.8069 13.7133 66.8006 13.7179 66.7926 13.7239C66.621 13.8401 66.4497 13.9541 66.2684 14.0549C66.1767 14.1059 66.0836 14.1542 65.9893 14.2002C65.9327 14.2279 65.8754 14.2543 65.8179 14.2802C65.8071 14.2845 65.7957 14.2891 65.7822 14.2945C65.3405 14.4554 64.8949 14.5863 64.431 14.6671C64.411 14.6706 64.2349 14.6925 64.2165 14.6962C64.1402 14.704 64.064 14.7121 63.9875 14.7175C63.737 14.7353 63.4856 14.7405 63.2345 14.7325C63.0548 14.7267 62.8749 14.7133 62.6961 14.6929C62.6563 14.6852 62.5223 14.6641 62.5009 14.66C62.367 14.6342 62.234 14.6041 62.1022 14.5691C61.9428 14.5267 61.7871 14.4744 61.6322 14.4186C61.6058 14.4068 61.4814 14.3572 61.4569 14.3451C61.3429 14.289 61.2326 14.227 61.1234 14.1621C60.4846 13.7621 59.9222 13.2523 59.3899 12.6986C60.7437 11.251 62.318 9.59833 64.2173 9.05306C65.075 8.80684 66.0064 8.79403 66.7472 9.21917C67.357 9.56911 67.6957 10.1058 67.8682 10.8689C67.8711 10.8817 67.9028 11.0685 67.91 11.0904C67.9225 11.2151 67.9291 11.3408 67.9297 11.4658C67.9301 11.542 67.9284 11.6185 67.9246 11.6947Z" fill="white"/>
<path d="M121.257 129.776C120.888 129.215 120.92 128.497 121.25 127.923C121.606 127.306 122.27 126.996 122.97 127.008C124.656 127.035 125.596 128.683 125.485 130.22C125.46 130.571 126.018 130.643 126.098 130.303C126.355 129.207 127.553 128.516 128.642 128.664C129.802 128.822 130.403 129.964 130.267 131.056C130.192 131.666 129.882 132.249 129.357 132.584L129.735 133.074C130.858 132.167 132.743 131.918 133.862 132.971C134.772 133.826 134.992 135.455 134.066 136.378L134.507 136.819C134.904 136.317 135.784 136.243 136.196 136.782C136.593 137.303 136.294 138.18 135.689 138.39C135.313 138.521 135.475 139.124 135.855 138.991C136.836 138.651 137.346 137.352 136.734 136.467C136.138 135.605 134.718 135.554 134.066 136.378C133.823 136.684 134.215 137.11 134.507 136.819C135.414 135.915 135.478 134.489 134.929 133.379C134.306 132.119 132.891 131.534 131.535 131.688C130.706 131.782 129.942 132.109 129.294 132.632C129.018 132.855 129.376 133.311 129.672 133.122C130.889 132.345 131.22 130.66 130.604 129.396C129.935 128.023 128.262 127.721 126.968 128.356C126.251 128.708 125.68 129.352 125.496 130.137L126.109 130.22C126.217 128.719 125.47 127.147 124.015 126.586C122.676 126.069 121.095 126.581 120.546 127.957C120.27 128.649 120.304 129.461 120.718 130.091C120.937 130.425 121.478 130.113 121.257 129.776Z" fill="black"/>
<path d="M122.406 137.009C122.591 136.833 122.777 136.655 122.983 136.52C123.074 136.46 123.188 136.394 123.27 136.362C123.327 136.34 123.387 136.322 123.447 136.308C123.445 136.308 123.552 136.287 123.504 136.294C123.529 136.29 123.555 136.29 123.58 136.289C123.605 136.288 123.631 136.29 123.656 136.29C123.713 136.289 123.648 136.286 123.68 136.291C123.731 136.299 123.782 136.312 123.831 136.328C123.855 136.336 123.88 136.344 123.903 136.354C123.853 136.332 123.939 136.375 123.94 136.375C123.962 136.388 123.984 136.401 124.005 136.414C124.013 136.419 124.067 136.459 124.028 136.428C124.067 136.458 124.101 136.494 124.134 136.53C124.193 136.593 124.121 136.506 124.147 136.547C124.159 136.567 124.171 136.588 124.183 136.608C124.22 136.668 124.179 136.569 124.196 136.638C124.201 136.661 124.208 136.683 124.213 136.706C124.221 136.747 124.219 136.645 124.212 136.723C124.21 136.753 124.211 136.782 124.207 136.812C124.19 136.98 124.364 137.124 124.519 137.124C124.703 137.124 124.813 136.98 124.831 136.812C124.9 136.166 124.254 135.706 123.672 135.667C122.991 135.622 122.422 136.132 121.965 136.568C121.673 136.845 122.115 137.286 122.406 137.009Z" fill="black"/>
<path d="M2.57168 136.366C2.03722 135.882 1.48501 135.388 1.1321 134.75C0.816745 134.179 0.683895 133.411 1.03793 132.826C1.29353 132.404 1.89308 132.151 2.36598 132.345C2.96539 132.591 2.92781 133.416 2.91241 133.947L3.52508 133.864C3.13145 132.282 3.62455 130.476 4.83993 129.368C5.0671 129.161 5.53362 128.838 5.84398 129.058C6.0147 129.179 6.05862 129.43 6.10121 129.62C6.15549 129.861 6.19708 130.107 6.22635 130.353C6.34816 131.376 6.27596 132.41 6.02191 133.408C5.93523 133.749 6.40941 133.957 6.592 133.649C6.96823 133.014 7.90467 132.834 8.51732 133.23C9.42327 133.816 8.91173 134.961 8.27541 135.522L8.71651 135.963C9.22343 135.494 10.0037 135.276 10.597 135.73C11.0691 136.091 11.2735 136.806 11.04 137.357C10.9738 137.513 10.9944 137.689 11.1519 137.783C11.2821 137.861 11.513 137.826 11.5786 137.671C11.9347 136.832 11.7179 135.817 10.9835 135.247C10.1384 134.59 9.01624 134.837 8.27541 135.522C7.97876 135.796 8.4172 136.227 8.71651 135.963C9.66116 135.131 10.0818 133.548 8.8823 132.725C7.98246 132.107 6.60921 132.395 6.05332 133.334L6.6234 133.574C6.86242 132.635 6.95742 131.659 6.88314 130.692C6.84741 130.227 6.78832 129.748 6.6651 129.297C6.5644 128.929 6.36551 128.586 5.99587 128.44C5.23813 128.139 4.4732 128.787 4.02038 129.325C3.5203 129.92 3.15411 130.621 2.95161 131.371C2.71729 132.24 2.70636 133.157 2.92351 134.03C3.01012 134.378 3.52612 134.293 3.53618 133.947C3.55478 133.306 3.53289 132.601 3.07679 132.1C2.69239 131.678 2.07309 131.577 1.53994 131.729C0.141706 132.127 -0.0353133 133.772 0.516313 134.916C0.880115 135.671 1.51935 136.254 2.13052 136.807C2.42752 137.076 2.87007 136.636 2.57168 136.366Z" fill="black"/>
<path d="M48.638 60.9519C48.1139 61.7299 47.8974 62.652 47.6925 63.5542C47.4626 64.5669 47.2631 65.5866 47.0943 66.6113C46.7576 68.6555 46.541 70.7186 46.4452 72.7881C46.4267 73.1894 47.0505 73.1885 47.069 72.7881C47.1622 70.7743 47.3682 68.7665 47.6958 66.7772C47.8592 65.7855 48.0513 64.7986 48.2719 63.818C48.4707 62.9345 48.663 62.0292 49.1767 61.2667C49.4015 60.9328 48.8614 60.6203 48.638 60.9519Z" fill="black"/>
<path d="M65.2586 72.4091C66.0839 75.1965 66.1917 78.1651 65.5595 81.0033C65.4724 81.3944 66.0736 81.5614 66.161 81.1691C66.8172 78.2233 66.7172 75.1379 65.8602 72.2432C65.7465 71.8592 65.1442 72.0227 65.2586 72.4091Z" fill="black"/>
<path d="M69.6542 38.8795C70.4604 38.2959 71.4888 38.0884 72.4546 38.3415C72.8432 38.4434 73.009 37.8418 72.6204 37.74C71.5057 37.4478 70.2753 37.6634 69.3394 38.3408C69.2031 38.4395 69.1365 38.6121 69.2275 38.7676C69.3062 38.9021 69.517 38.9788 69.6542 38.8795Z" fill="black"/>
<path d="M54.444 38.5941C55.0194 38.0279 55.773 37.2908 56.6626 37.4385C56.8286 37.466 56.9984 37.3949 57.0463 37.2206C57.0873 37.0713 56.9956 36.8647 56.8285 36.837C56.2752 36.7451 55.7325 36.8707 55.2451 37.1412C54.776 37.4016 54.3825 37.7794 54.0029 38.153C53.7163 38.4351 54.1575 38.8761 54.444 38.5941Z" fill="black"/>
<path d="M53.4627 40.1403C54.2649 42.2617 54.9436 44.4275 55.4957 46.6273C55.5933 47.0164 56.1951 46.8515 56.0972 46.4614C55.5451 44.2617 54.8664 42.0959 54.0643 39.9744C53.9236 39.6025 53.3204 39.7637 53.4627 40.1403Z" fill="black"/>
<path d="M52.5067 49.7913C51.8825 49.4191 51.1161 49.0315 50.3827 49.3216C49.7114 49.5871 49.393 50.2931 49.2223 50.9482C49.119 51.3445 49.0593 51.7519 49.0101 52.158C48.961 52.5633 48.9438 52.9771 49.0411 53.3773C49.2116 54.0794 49.7643 54.6368 50.5099 54.6574C51.3325 54.6801 51.9822 53.9845 51.9874 53.1803C51.99 52.7788 51.3661 52.7784 51.3636 53.1803C51.3595 53.8123 50.6971 54.245 50.1254 53.9292C49.4636 53.5637 49.5692 52.6059 49.6566 51.9855C49.7453 51.3568 49.849 50.5539 50.3277 50.0866C50.8717 49.5555 51.664 50.0151 52.1919 50.33C52.5375 50.5361 52.8516 49.997 52.5067 49.7913Z" fill="black"/>
<path d="M51.7013 53.1176C51.1296 53.1396 50.6442 52.7257 50.1046 52.5355C49.8473 52.4448 49.5685 52.4023 49.338 52.2563C49.2996 52.3914 49.3439 52.5348 49.3904 52.6673C49.524 53.048 49.6876 53.4342 49.9844 53.7076C50.2812 53.981 50.7439 54.1117 51.0982 53.9185C51.2215 53.8512 51.3236 53.7504 51.4127 53.6417C51.4881 53.5498 51.5554 53.4513 51.6138 53.3477" fill="black"/>
<path d="M51.7014 52.8067C51.3376 52.8146 51.0065 52.6157 50.6675 52.4458C50.4747 52.3492 50.2771 52.2608 50.0706 52.1977C49.8738 52.1374 49.673 52.0955 49.4954 51.988C49.3294 51.8876 49.081 51.9786 49.0372 52.1744C48.9507 52.5612 49.1587 52.9943 49.33 53.334C49.4909 53.6532 49.7241 53.952 50.038 54.1321C50.338 54.3043 50.72 54.3829 51.0558 54.2741C51.4292 54.1531 51.6931 53.8359 51.8831 53.5061C52.0838 53.1576 51.545 52.8431 51.3445 53.1912C51.2783 53.3061 51.2065 53.4132 51.1162 53.5088C51.044 53.5852 50.955 53.6517 50.89 53.6726C50.858 53.6828 50.825 53.6914 50.7919 53.6972C50.8329 53.6901 50.7716 53.6982 50.7575 53.6987C50.7291 53.6998 50.7009 53.6985 50.6726 53.6981C50.5894 53.6969 50.7014 53.7099 50.6196 53.6918C50.4917 53.6634 50.4324 53.6429 50.3227 53.5756C50.1374 53.4619 49.9881 53.2526 49.8775 53.0366C49.819 52.9225 49.7755 52.8169 49.7309 52.696C49.6929 52.5934 49.6159 52.4422 49.6387 52.3403L49.1806 52.5267C49.3861 52.6511 49.617 52.7149 49.8456 52.7817C50.0557 52.8431 50.2265 52.92 50.422 53.0196C50.8254 53.2251 51.2359 53.4407 51.7014 53.4306C52.1022 53.4219 52.1037 52.798 51.7014 52.8067Z" fill="black"/>
<path d="M72.9616 45.4031C72.2427 44.9789 71.3076 45.0772 70.7051 45.6583C70.1237 46.2191 69.8897 47.2142 70.5299 47.8228C70.8974 48.1722 71.3918 48.2817 71.8809 48.3276C72.0489 48.3434 72.1929 48.173 72.1929 48.0157C72.1929 47.8339 72.0494 47.7196 71.8809 47.7038C71.5208 47.67 71.1264 47.5835 70.894 47.3009C70.696 47.0601 70.7569 46.6847 70.9012 46.4208C71.0566 46.1365 71.3058 45.9129 71.6192 45.8172C71.9645 45.7118 72.3305 45.7551 72.6468 45.9418C72.9934 46.1462 73.3075 45.6072 72.9616 45.4031Z" fill="black"/>
<path d="M72.5309 50.1663C73.1787 50.7048 74.0569 50.6683 74.7943 50.3388C75.5196 50.0147 76.1207 49.4027 76.4587 48.6872C76.5307 48.535 76.5011 48.3507 76.3468 48.2605C76.2112 48.1811 75.9924 48.2194 75.9201 48.3724C75.6434 48.9579 75.1968 49.4359 74.6192 49.733C74.134 49.9826 73.4275 50.1039 72.972 49.7253C72.8426 49.6177 72.6577 49.5985 72.5309 49.7253C72.4202 49.836 72.4008 50.0581 72.5309 50.1663Z" fill="black"/>
<path d="M75.6695 48.2351C75.854 48.4256 76.0769 48.5865 76.3191 48.6952C76.3549 48.718 76.3935 48.7303 76.4351 48.7322C76.4765 48.7415 76.518 48.7397 76.5594 48.7267C76.6318 48.7067 76.7102 48.6508 76.7459 48.5833C76.7841 48.5109 76.8033 48.4232 76.7773 48.343C76.7538 48.2705 76.7065 48.1892 76.634 48.1566C76.4967 48.095 76.3676 48.0175 76.2484 47.9256L76.3115 47.9744C76.2404 47.9189 76.1733 47.8588 76.1106 47.794C76.0555 47.7371 75.9687 47.7026 75.89 47.7026C75.8135 47.7026 75.7221 47.7366 75.6695 47.794C75.6149 47.8534 75.5744 47.9315 75.5781 48.0145C75.5819 48.098 75.6104 48.1741 75.6695 48.2351Z" fill="black"/>
<path d="M51.9255 29.4644C50.6993 30.2708 49.7936 31.4666 48.7804 32.5284C44.9016 36.5936 39.1234 38.7653 33.5272 38.2613C33.2719 38.2383 33.0033 38.2049 32.7981 38.0513C32.5989 37.9021 32.4913 37.6635 32.3917 37.4354C31.7985 36.0754 31.2053 34.7155 30.6121 33.3555C32.6249 33.2756 34.6167 32.7062 36.3676 31.7101C34.637 31.7169 32.9059 31.6178 31.1873 31.4136C30.7773 31.3649 30.3408 31.2982 30.0339 31.0222C29.4372 30.4857 29.6155 29.4466 29.0798 28.8492C31.0789 28.6812 33.078 28.5132 35.077 28.3452C33.1193 27.3466 30.9794 26.7063 28.7949 26.4654C28.7621 25.4818 28.568 24.5038 28.2228 23.5821C31.6838 22.6153 35.3938 22.9118 38.8815 23.7779C42.3692 24.6439 45.691 26.0591 49.046 27.3468C49.2883 27.4398 49.5404 27.5337 49.7995 27.5165C50.122 27.495 50.4056 27.3058 50.7094 27.1955C51.8776 26.7714 53.2343 27.6605 53.6089 28.8454C53.9835 30.0303 53.5611 31.3474 52.8312 32.3532C52.2365 31.6678 51.4918 31.1132 50.6648 30.7397" fill="black"/>
<path d="M51.7675 29.1959C50.2936 30.1796 49.2702 31.6505 48.0052 32.8642C46.8123 34.0088 45.4614 34.9799 44.0063 35.7638C41.0865 37.3369 37.7502 38.1373 34.4332 38.0086C34.1994 37.9995 33.9657 37.9858 33.7325 37.9675C33.5046 37.9497 33.2266 37.9529 33.0256 37.8297C32.8209 37.7043 32.7314 37.4406 32.6398 37.2314C32.5223 36.9627 32.4053 36.6937 32.288 36.4249C31.819 35.3496 31.3499 34.2742 30.8808 33.1989L30.6115 33.6682C32.687 33.5781 34.7147 33.0009 36.5245 31.9803C36.7952 31.8276 36.6739 31.3982 36.3671 31.3991C34.704 31.4036 33.0414 31.3147 31.389 31.1261C31.057 31.0882 30.6855 31.0654 30.3892 30.8957C30.1421 30.7542 30.0165 30.5124 29.9336 30.2491C29.755 29.6818 29.6981 29.1005 29.2999 28.6295L29.0793 29.1619C31.0784 28.9939 33.0774 28.826 35.0765 28.658C35.3592 28.6342 35.5333 28.2285 35.2339 28.0768C33.2165 27.0543 31.0412 26.408 28.7944 26.1544L29.1063 26.4663C29.0671 25.452 28.8741 24.4527 28.523 23.5001L28.3052 23.8837C32.3468 22.7687 36.6091 23.3772 40.5605 24.5647C42.5818 25.1721 44.554 25.9285 46.5186 26.6964C46.995 26.8826 47.4711 27.0695 47.9476 27.2554C48.4259 27.4419 48.9231 27.6954 49.4277 27.7965C49.9499 27.9011 50.321 27.6667 50.7918 27.4971C51.1331 27.3742 51.4896 27.3753 51.8356 27.4796C52.6716 27.7316 53.2708 28.4887 53.4052 29.3376C53.5664 30.3562 53.1428 31.3819 52.5614 32.1967L53.0512 32.1335C52.4326 31.4304 51.6726 30.8626 50.8217 30.4712C50.4595 30.3046 50.1421 30.8421 50.5068 31.0099C51.3159 31.382 52.0218 31.906 52.6101 32.5746C52.7536 32.7377 52.9914 32.6637 53.1 32.5115C54.1307 31.0673 54.5681 28.8781 53.1273 27.5365C52.5487 26.9977 51.7548 26.6779 50.9607 26.8098C50.5029 26.8858 50.0655 27.2744 49.5935 27.195C49.3386 27.1521 49.0912 27.0328 48.8514 26.9403C48.5745 26.8334 48.2978 26.7258 48.0213 26.6179C43.9353 25.0232 39.8236 23.346 35.4335 22.8276C32.999 22.5401 30.5105 22.6281 28.1394 23.2822C27.987 23.3243 27.863 23.5071 27.9215 23.6659C28.254 24.5679 28.4454 25.5054 28.4825 26.4663C28.4896 26.6492 28.6208 26.7586 28.7944 26.7782C30.9253 27.0188 33.0069 27.6463 34.9191 28.6154L35.0765 28.0342C33.0775 28.2022 31.0784 28.3701 29.0793 28.5381C28.8014 28.5615 28.6791 28.8581 28.8588 29.0706C29.2417 29.5234 29.2185 30.2182 29.4585 30.7451C29.766 31.4199 30.4181 31.6299 31.1044 31.7163C32.848 31.936 34.6103 32.0277 36.3671 32.0228L36.2097 31.4416C34.4966 32.4077 32.5767 32.959 30.6116 33.0444C30.3569 33.0555 30.2476 33.2967 30.3422 33.5137C30.7768 34.51 31.2114 35.5062 31.646 36.5025C31.8465 36.9621 32.0158 37.4606 32.2667 37.8953C32.5099 38.3165 32.8855 38.4979 33.3553 38.556C35.04 38.7641 36.7942 38.6426 38.4604 38.3477C41.8599 37.746 45.0944 36.2215 47.7132 33.9711C48.466 33.3241 49.1428 32.6076 49.806 31.8707C50.503 31.0965 51.2105 30.3165 52.0824 29.7345C52.4147 29.5127 52.1027 28.9722 51.7675 29.1959Z" fill="black"/>
<path d="M69.88 33.836C75.0079 31.5672 79.226 27.3118 81.4495 22.1641C81.7713 21.4191 81.9953 20.4153 81.3612 19.9088C81.0373 19.6502 80.5865 19.6241 80.1743 19.6661C79.4066 19.7444 78.6708 20.0171 77.9754 20.3514C75.4669 21.5574 73.4113 23.5742 71.8272 25.8628C70.243 28.1513 69.1001 30.7139 68.0773 33.3025C68.0274 33.4288 67.977 33.5668 68.0148 33.6973C68.0518 33.8251 68.1644 33.9141 68.2707 33.9942C68.9193 34.4829 69.5678 34.9717 70.2164 35.4604C70.4721 34.5526 70.7278 33.6447 70.9835 32.7369" fill="black"/>
<path d="M70.0371 34.1051C72.55 32.9878 74.8484 31.4021 76.8042 29.4698C78.7483 27.5489 80.3622 25.2801 81.5064 22.7967C81.9587 21.815 82.6207 20.0854 81.2543 19.4864C80.5898 19.195 79.7626 19.3682 79.0971 19.5701C78.377 19.7885 77.6877 20.1212 77.0349 20.4924C74.4714 21.9504 72.4505 24.2112 70.9084 26.6963C70.0494 28.0805 69.3274 29.5452 68.6779 31.0378C68.3593 31.7699 68.0344 32.5073 67.7616 33.2579C67.6282 33.6251 67.7114 33.9442 68.018 34.1899C68.3393 34.4474 68.676 34.6876 69.0048 34.9354C69.3561 35.2001 69.7074 35.4649 70.0587 35.7296C70.2239 35.8541 70.4675 35.7185 70.5169 35.5432C70.7726 34.6353 71.0284 33.7275 71.2841 32.8196C71.3931 32.4326 70.7914 32.2674 70.6825 32.6538C70.4268 33.5617 70.1711 34.4695 69.9154 35.3773L70.3736 35.1909C70.0493 34.9466 69.725 34.7022 69.4007 34.4578C69.08 34.2161 68.7284 33.9896 68.4272 33.7241C68.347 33.6534 68.3226 33.6454 68.3234 33.5412C68.3239 33.4697 68.3872 33.362 68.4127 33.297C68.4822 33.1203 68.5532 32.9441 68.6243 32.7681C68.7685 32.4114 68.9151 32.0556 69.0661 31.7017C69.6494 30.3346 70.2885 28.9891 71.0332 27.7018C72.4045 25.3313 74.1725 23.1313 76.4578 21.5856C77.5802 20.8265 78.9457 20.0372 80.3301 19.9656C80.9163 19.9353 81.4292 20.1589 81.4523 20.8085C81.4729 21.3837 81.2188 21.9345 80.9845 22.4455C79.9268 24.7522 78.4684 26.8671 76.7014 28.6874C74.7087 30.74 72.3368 32.4039 69.7223 33.5665C69.3562 33.7293 69.6732 34.267 70.0371 34.1051Z" fill="black"/>
<path d="M81.0751 21.2531C81.7143 27.2904 83.377 33.218 85.9709 38.707C86.4663 39.7553 87.0013 40.797 87.7362 41.6939C87.7962 40.6208 88.3496 39.5531 89.276 39.0081C90.2024 38.4631 91.4926 38.5342 92.2654 39.2812C92.9303 39.9239 93.1271 40.9156 93.1174 41.8403C93.106 42.924 92.8227 44.0645 92.0454 44.8195C94.2421 43.8515 96.2081 42.3647 97.7377 40.5146C97.8965 40.3225 98.0564 40.1136 98.09 39.8666C98.1316 39.5607 97.9716 39.2673 97.8147 39.0014C95.2575 34.6682 92.9601 30.8443 89.7544 26.9662C88.7236 25.7194 87.6137 24.5052 86.6294 23.2265C85.7472 22.0804 84.5934 20.955 83.1774 20.5155C81.9804 20.1439 80.5501 20.5581 80.2705 21.9164" fill="black"/>
<path d="M80.7629 21.2516C81.3698 26.9362 82.8594 32.5057 85.1819 37.7302C85.8305 39.1893 86.5039 40.6642 87.5153 41.913C87.7001 42.1412 88.0315 41.9347 88.0477 41.6924C88.1455 40.2359 89.2368 38.8644 90.7914 38.9681C91.4985 39.0153 92.1041 39.4065 92.4387 40.0294C92.7967 40.6962 92.8444 41.5063 92.7877 42.247C92.7216 43.1089 92.4468 43.9755 91.8244 44.5975C91.5581 44.8636 91.8939 45.2243 92.2024 45.0873C94.4227 44.1014 96.4517 42.5925 97.9843 40.7013C98.167 40.4758 98.3386 40.2403 98.3904 39.9481C98.4496 39.6136 98.3318 39.2962 98.1765 39.0052C97.8633 38.4179 97.4992 37.8526 97.1588 37.2808C96.4953 36.1665 95.8244 35.0565 95.1332 33.9592C93.7604 31.7799 92.3001 29.6568 90.6987 27.6384C89.841 26.5574 88.9298 25.5221 88.0393 24.4685C87.2203 23.4995 86.4957 22.4303 85.5483 21.5784C84.665 20.7842 83.5047 20.0486 82.2733 20.0728C81.1827 20.0943 80.214 20.7364 79.9693 21.8319C79.882 22.223 80.4833 22.39 80.5709 21.9978C80.7643 21.1315 81.512 20.6834 82.3704 20.6967C83.3964 20.7125 84.3699 21.3573 85.1072 22.0196C85.983 22.8062 86.6533 23.7827 87.4057 24.6809C88.2329 25.6683 89.0886 26.6314 89.8994 27.6326C91.4157 29.5051 92.8022 31.4781 94.1048 33.5042C94.7593 34.5223 95.3936 35.5533 96.0181 36.5901C96.3338 37.1142 96.6469 37.6398 96.959 38.1661C97.1137 38.4271 97.268 38.6882 97.4223 38.9494C97.5741 39.2066 97.8421 39.5439 97.7731 39.8632C97.7113 40.1492 97.4215 40.4106 97.2356 40.623C97.026 40.8623 96.809 41.095 96.585 41.3209C96.1371 41.7725 95.6614 42.1974 95.1612 42.5903C94.1586 43.3779 93.0521 44.0316 91.8875 44.5487L92.2655 45.0386C92.9283 44.3762 93.2599 43.4903 93.3774 42.5739C93.492 41.6803 93.4414 40.719 93.0637 39.8897C92.289 38.1886 90.0864 37.8981 88.7029 39.0326C87.9122 39.6809 87.4913 40.6889 87.4239 41.6924L87.9564 41.4719C87.0819 40.3921 86.4892 39.1091 85.9171 37.8524C85.3392 36.5828 84.8125 35.2902 84.3363 33.979C83.382 31.351 82.6306 28.6495 82.0911 25.9062C81.7881 24.3657 81.5533 22.8127 81.3866 21.2516C81.3445 20.8566 80.7202 20.8522 80.7629 21.2516Z" fill="black"/>
<path d="M86.7152 20.9624C86.2023 20.3687 85.5612 19.8863 84.8486 19.5581C84.9245 18.1587 85.0225 16.6878 85.7821 15.5101C86.2433 14.795 86.9728 14.2133 87.7639 13.9017C90.107 12.9787 92.1701 15.8299 91.6614 17.9606C91.4404 18.8865 90.7365 19.6383 89.9208 20.1291C89.1051 20.6198 88.1772 20.8851 87.2615 21.1451C87.123 21.1844 86.9398 21.2075 86.8666 21.0836" fill="black"/>
<path d="M86.9352 20.7408C86.3982 20.1292 85.742 19.6342 85.0055 19.2877L85.16 19.557C85.2336 18.2074 85.3137 16.7533 86.0964 15.5977C86.6996 14.7072 87.8833 13.868 89.0104 14.0601C89.9827 14.2259 90.7271 15.0275 91.1189 15.8929C91.5493 16.8433 91.5441 17.9266 90.9364 18.7983C90.5251 19.3883 89.9177 19.8111 89.2775 20.1199C88.9008 20.3016 88.506 20.4421 88.1078 20.5686C87.917 20.6293 87.7251 20.6862 87.5328 20.7419C87.4518 20.7653 87.1048 20.8835 87.0866 20.8619C86.8269 20.5551 86.3875 20.9982 86.6455 21.303C86.8971 21.6004 87.2953 21.4593 87.6099 21.369C88.0092 21.2543 88.4075 21.1351 88.7976 20.9918C89.5407 20.7189 90.2551 20.362 90.8466 19.8281C91.8602 18.9132 92.2664 17.6117 91.918 16.2914C91.6199 15.1616 90.8333 14.09 89.7378 13.6302C88.456 13.0923 87.0946 13.6684 86.1441 14.5838C84.7976 15.8804 84.6323 17.7951 84.5362 19.557C84.5307 19.6576 84.5977 19.7826 84.6907 19.8263C85.3845 20.1527 85.9882 20.6056 86.4941 21.1818C86.7594 21.4841 87.1992 21.0415 86.9352 20.7408Z" fill="black"/>
</svg>
