<svg width="195" height="258" viewBox="0 0 195 258" fill="none" xmlns="http://www.w3.org/2000/svg">
<rect y="2" width="195" height="256" rx="10" fill="#FFCFAF"/>
<path d="M28.5098 218.67H26.4316V201.878H28.5098V218.67ZM17.5068 207.444H21.5703V203.251H23.6113V214.718H15.4473V203.251H17.5068V207.444ZM21.5703 213.029V209.059H17.5068V213.029H21.5703ZM37.2305 209.801H33.4639V213.039C35.0658 213.02 36.6243 212.887 38.1396 212.64L38.3066 214.328C37.3232 214.495 36.3862 214.61 35.4956 214.671C34.6112 214.727 33.637 214.755 32.5732 214.755H31.4785V208.168H35.2266V205.255H31.46V203.585H37.2305V209.801ZM45.4131 218.651H43.4463V201.878H45.4131V218.651ZM41.9805 217.798H40.0137V211.935H38.0654V210.246H40.0137V207.76H38.0654V206.108H40.0137V202.175H41.9805V217.798ZM61.834 218.651H59.8672V210.098H57.9746V217.798H56.082V202.193H57.9746V208.446H59.8672V201.878H61.834V218.651ZM54.1895 205.533H49.9961V212.992C50.9733 212.98 51.8547 212.943 52.6401 212.881C53.4256 212.819 54.2204 212.714 55.0244 212.565L55.1729 214.254C54.2451 214.439 53.3298 214.563 52.4268 214.625C51.5238 214.687 50.3981 214.724 49.0498 214.736H47.918V203.863H54.1895V205.533ZM79.1455 216.722H63.8193V215.052H67.79V211.601H65.1367V209.931H67.4932V204.958H65.0811V203.307H77.8096V204.958H75.3604V209.931H77.7539V211.601H75.1006V215.052H79.1455V216.722ZM73.3193 209.931V204.958H69.5527V209.931H73.3193ZM73.041 215.052V211.601H69.8496V215.052H73.041ZM90.7236 217H88.126L84.5264 206.925H87.0498L89.3691 214.421H89.4805L91.8184 206.925H94.3232L90.7236 217ZM101.522 209.801C101.448 209.417 101.257 209.114 100.947 208.892C100.638 208.669 100.236 208.558 99.7412 208.558C99.4072 208.558 99.1042 208.61 98.832 208.715C98.5661 208.814 98.3589 208.957 98.2104 209.142C98.062 209.321 97.9909 209.522 97.9971 209.745C97.9785 210.283 98.4548 210.667 99.4258 210.896L101.133 211.248C102.091 211.465 102.803 211.795 103.267 212.241C103.73 212.686 103.965 213.271 103.972 213.994C103.965 214.625 103.786 215.185 103.434 215.673C103.081 216.156 102.58 216.533 101.931 216.805C101.287 217.071 100.533 217.204 99.667 217.204C98.3991 217.204 97.391 216.935 96.6426 216.397C95.9004 215.853 95.4674 215.095 95.3438 214.124H97.7559C97.8301 214.551 98.028 214.872 98.3496 215.089C98.6774 215.299 99.1165 215.404 99.667 215.404C100.236 215.404 100.694 215.296 101.04 215.08C101.386 214.863 101.56 214.569 101.56 214.198C101.56 213.908 101.439 213.669 101.198 213.484C100.963 213.292 100.595 213.141 100.094 213.029L98.4795 212.677C97.5456 212.491 96.8374 212.16 96.355 211.684C95.8787 211.208 95.6406 210.605 95.6406 209.875C95.6406 209.263 95.8076 208.725 96.1416 208.261C96.4756 207.791 96.9487 207.429 97.561 207.175C98.1733 206.922 98.8877 206.795 99.7041 206.795C100.496 206.795 101.185 206.919 101.773 207.166C102.367 207.407 102.834 207.754 103.174 208.205C103.514 208.657 103.712 209.188 103.768 209.801H101.522ZM116.032 206.646C116.032 207.568 116.205 208.48 116.552 209.383C116.904 210.28 117.405 211.087 118.055 211.805C118.71 212.516 119.477 213.054 120.355 213.419L119.224 215.052C118.253 214.637 117.408 214.016 116.691 213.187C115.973 212.358 115.417 211.396 115.021 210.302C114.625 211.477 114.065 212.519 113.342 213.428C112.624 214.331 111.783 215.008 110.818 215.46L109.631 213.846C110.491 213.45 111.245 212.868 111.895 212.102C112.55 211.335 113.054 210.475 113.407 209.522C113.759 208.564 113.936 207.605 113.936 206.646V205.236H110.243V203.529H119.706V205.236H116.032V206.646ZM123.658 218.651H121.58V201.878H123.658V218.651ZM140.172 218.651H138.112V214.217H128.742V212.584H140.172V218.651ZM140.172 211.786H138.112V209.56H134.179C133.777 210.011 133.282 210.364 132.694 210.617C132.107 210.865 131.47 210.988 130.783 210.988C129.948 210.988 129.194 210.812 128.52 210.459C127.845 210.107 127.313 209.618 126.924 208.994C126.54 208.369 126.349 207.661 126.349 206.869C126.349 206.096 126.54 205.4 126.924 204.782C127.307 204.163 127.833 203.681 128.501 203.334C129.169 202.982 129.917 202.806 130.746 202.806C131.451 202.806 132.094 202.926 132.676 203.167C133.263 203.409 133.758 203.752 134.16 204.197H138.112V201.878H140.172V211.786ZM130.783 204.55C130.307 204.55 129.88 204.649 129.503 204.847C129.132 205.038 128.841 205.311 128.631 205.663C128.421 206.009 128.315 206.411 128.315 206.869C128.315 207.345 128.417 207.763 128.622 208.122C128.832 208.474 129.123 208.749 129.494 208.947C129.871 209.139 130.301 209.238 130.783 209.244C131.241 209.238 131.652 209.139 132.017 208.947C132.388 208.749 132.679 208.471 132.889 208.112C133.099 207.754 133.208 207.339 133.214 206.869C133.208 206.411 133.096 206.009 132.88 205.663C132.67 205.311 132.382 205.038 132.017 204.847C131.652 204.649 131.241 204.55 130.783 204.55ZM138.112 207.89V205.886H135.06C135.14 206.226 135.181 206.554 135.181 206.869C135.181 207.215 135.137 207.556 135.051 207.89H138.112ZM155.962 204.401C155.962 205.471 155.937 206.421 155.888 207.25C155.838 208.072 155.715 209.009 155.517 210.061H157.836V211.73H151.175V218.67H149.097V211.73H142.547V210.061H153.42C153.624 209.046 153.754 208.125 153.81 207.296C153.871 206.467 153.902 205.558 153.902 204.568H144.347V202.898H155.962V204.401Z" fill="#2C2C2C"/>
<path d="M22.3037 232.014H21.4551V229.511H19.5322V228.812H21.4551V226.32H22.3037V232.014ZM19.1348 232.314C19.7972 232.314 20.3683 232.384 20.8481 232.524C21.328 232.664 21.695 232.866 21.9492 233.131C22.207 233.396 22.3359 233.715 22.3359 234.087C22.3359 234.459 22.207 234.778 21.9492 235.043C21.695 235.312 21.328 235.516 20.8481 235.655C20.3683 235.795 19.7972 235.867 19.1348 235.87C18.4723 235.867 17.9012 235.795 17.4214 235.655C16.9416 235.516 16.5728 235.312 16.3149 235.043C16.0607 234.778 15.9336 234.459 15.9336 234.087C15.9336 233.715 16.0607 233.396 16.3149 233.131C16.5728 232.866 16.9416 232.664 17.4214 232.524C17.9012 232.384 18.4723 232.314 19.1348 232.314ZM19.1348 232.97C18.6514 232.97 18.2306 233.014 17.8726 233.104C17.5145 233.194 17.2406 233.322 17.0508 233.491C16.861 233.659 16.7679 233.858 16.7715 234.087C16.7679 234.312 16.861 234.509 17.0508 234.678C17.2406 234.842 17.5145 234.97 17.8726 235.059C18.2306 235.149 18.6514 235.193 19.1348 235.193C19.6182 235.193 20.0371 235.149 20.3916 235.059C20.7497 234.97 21.0236 234.842 21.2134 234.678C21.4032 234.509 21.498 234.312 21.498 234.087C21.498 233.858 21.4032 233.659 21.2134 233.491C21.0236 233.322 20.7497 233.194 20.3916 233.104C20.0371 233.014 19.6182 232.97 19.1348 232.97ZM17.7061 228.071C17.7061 228.483 17.8045 228.882 18.0015 229.269C18.1984 229.652 18.4741 229.994 18.8286 230.295C19.1867 230.592 19.5967 230.821 20.0586 230.982L19.6182 231.659C19.0846 231.466 18.6156 231.179 18.2109 230.8C17.8099 230.42 17.5073 229.982 17.3032 229.484C17.0955 230.042 16.7786 230.537 16.3525 230.966C15.93 231.392 15.4359 231.713 14.8701 231.928L14.4297 231.251C14.8988 231.079 15.3177 230.832 15.6865 230.51C16.0553 230.184 16.3418 229.81 16.5459 229.387C16.7536 228.965 16.8574 228.53 16.8574 228.082V227.728H14.6982V227.019H19.8438V227.728H17.7061V228.071ZM31.3701 228.812H32.7988V229.521H31.3701V232.024H30.5215V226.32H31.3701V228.812ZM28.2979 232.207C28.9424 232.207 29.501 232.28 29.9736 232.427C30.4463 232.57 30.8097 232.778 31.064 233.05C31.3182 233.322 31.4453 233.646 31.4453 234.022C31.4453 234.406 31.3182 234.733 31.064 235.005C30.8097 235.281 30.4463 235.491 29.9736 235.634C29.5046 235.777 28.946 235.849 28.2979 235.849C27.6462 235.849 27.0822 235.777 26.606 235.634C26.1333 235.491 25.7681 235.281 25.5103 235.005C25.256 234.733 25.1289 234.406 25.1289 234.022C25.1289 233.646 25.256 233.322 25.5103 233.05C25.7681 232.778 26.1351 232.57 26.6113 232.427C27.0876 232.28 27.6497 232.207 28.2979 232.207ZM28.2979 232.905C27.8216 232.902 27.4062 232.945 27.0518 233.034C26.7008 233.124 26.4305 233.254 26.2407 233.426C26.0509 233.595 25.9561 233.793 25.9561 234.022C25.9561 234.255 26.0509 234.459 26.2407 234.635C26.4305 234.807 26.7008 234.939 27.0518 235.032C27.4062 235.125 27.8216 235.172 28.2979 235.172C28.7705 235.172 29.1823 235.125 29.5332 235.032C29.8841 234.939 30.1545 234.807 30.3442 234.635C30.534 234.459 30.6289 234.255 30.6289 234.022C30.6289 233.793 30.534 233.595 30.3442 233.426C30.1545 233.254 29.8841 233.124 29.5332 233.034C29.1823 232.945 28.7705 232.902 28.2979 232.905ZM28.5771 227.749H25.1611V230.553C26.1816 230.546 27.0052 230.521 27.6318 230.478C28.2585 230.431 28.8779 230.345 29.4902 230.22L29.5762 230.918C28.9388 231.047 28.2961 231.133 27.6479 231.176C26.9998 231.219 26.1423 231.24 25.0752 231.24H24.334V227.051H28.5771V227.749ZM39.1582 235H38.2021L36.0537 229.167H37.0635L38.6533 233.797H38.7178L40.3076 229.167H41.3174L39.1582 235ZM45.582 230.682C45.514 230.427 45.3815 230.23 45.1846 230.091C44.9912 229.948 44.7298 229.876 44.4004 229.876C44.1641 229.876 43.951 229.915 43.7612 229.994C43.575 230.069 43.4282 230.175 43.3208 230.311C43.217 230.444 43.165 230.592 43.165 230.757C43.165 230.95 43.2456 231.115 43.4067 231.251C43.5715 231.387 43.8239 231.494 44.1641 231.573L45.0342 231.788C45.557 231.913 45.9473 232.107 46.2051 232.368C46.4629 232.626 46.5918 232.959 46.5918 233.367C46.5918 233.707 46.5005 234.01 46.3179 234.275C46.1388 234.536 45.8774 234.742 45.5337 234.893C45.1899 235.043 44.7799 235.118 44.3037 235.118C43.6484 235.118 43.1292 234.979 42.7461 234.699C42.363 234.416 42.1338 234.008 42.0586 233.475H43.0254C43.0791 233.757 43.2098 233.969 43.4175 234.108C43.6252 234.244 43.9134 234.312 44.2822 234.312C44.6976 234.312 45.027 234.232 45.2705 234.071C45.514 233.91 45.6357 233.693 45.6357 233.421C45.6357 233.213 45.5588 233.041 45.4048 232.905C45.2508 232.766 45.0091 232.658 44.6797 232.583L43.7988 232.379C43.2904 232.261 42.9036 232.067 42.6387 231.799C42.3737 231.53 42.2412 231.201 42.2412 230.811C42.2412 230.481 42.3307 230.186 42.5098 229.924C42.6924 229.663 42.9466 229.459 43.2725 229.312C43.6019 229.165 43.9779 229.092 44.4004 229.092C44.7943 229.092 45.1416 229.158 45.4424 229.291C45.7432 229.423 45.9813 229.609 46.1567 229.849C46.3358 230.089 46.445 230.367 46.4844 230.682H45.582ZM58.0859 233.313H57.248V226.331H58.0859V233.313ZM58.3867 235.666H51.9199V232.604H52.7578V234.957H58.3867V235.666ZM52.9297 226.997C53.4023 226.997 53.8285 227.097 54.208 227.298C54.5911 227.495 54.8901 227.772 55.105 228.13C55.3234 228.485 55.4326 228.888 55.4326 229.339C55.4326 229.797 55.3234 230.205 55.105 230.563C54.8901 230.918 54.5911 231.195 54.208 231.396C53.8285 231.593 53.4023 231.691 52.9297 231.691C52.457 231.691 52.0291 231.593 51.646 231.396C51.2664 231.195 50.9674 230.918 50.749 230.563C50.5342 230.205 50.4268 229.797 50.4268 229.339C50.4268 228.888 50.5342 228.485 50.749 228.13C50.9674 227.772 51.2664 227.495 51.646 227.298C52.0291 227.097 52.457 226.997 52.9297 226.997ZM52.9297 227.738C52.611 227.738 52.3228 227.806 52.0649 227.942C51.8107 228.078 51.6102 228.268 51.4634 228.512C51.3201 228.755 51.2503 229.031 51.2539 229.339C51.2503 229.65 51.3201 229.93 51.4634 230.177C51.6102 230.42 51.8107 230.61 52.0649 230.746C52.3228 230.882 52.611 230.95 52.9297 230.95C53.2412 230.95 53.5241 230.882 53.7783 230.746C54.0361 230.61 54.2384 230.42 54.3853 230.177C54.5321 229.93 54.6055 229.65 54.6055 229.339C54.6055 229.035 54.5321 228.761 54.3853 228.517C54.2384 228.274 54.0361 228.084 53.7783 227.948C53.5241 227.808 53.2412 227.738 52.9297 227.738ZM68.4092 231.047H64.4668V231.992H67.292V234.13H61.6201V235.097H67.582V235.763H60.7822V233.496H66.4648V232.647H60.7607V231.992H63.6289V231.047H59.708V230.359H68.4092V231.047ZM67.2812 229.554H60.8359V226.643H67.2812V229.554ZM61.6738 228.877H66.4434V227.319H61.6738V228.877ZM80.6768 231.487H76.7344V232.508C77.6439 232.547 78.3493 232.712 78.8506 233.002C79.3555 233.288 79.6097 233.682 79.6133 234.184C79.6097 234.535 79.4772 234.833 79.2158 235.081C78.9544 235.331 78.5785 235.521 78.0879 235.65C77.5973 235.782 77.0101 235.849 76.3262 235.849C75.6387 235.849 75.0479 235.782 74.5537 235.65C74.0596 235.521 73.6818 235.331 73.4204 235.081C73.159 234.833 73.0283 234.535 73.0283 234.184C73.0283 233.682 73.279 233.288 73.7803 233.002C74.2816 232.712 74.9906 232.547 75.9072 232.508V231.487H71.9756V230.789H80.6768V231.487ZM76.3262 233.152C75.8141 233.156 75.3755 233.199 75.0103 233.281C74.645 233.364 74.3657 233.482 74.1724 233.636C73.979 233.786 73.8841 233.969 73.8877 234.184C73.8841 234.395 73.979 234.576 74.1724 234.726C74.3657 234.876 74.645 234.991 75.0103 235.07C75.3791 235.152 75.8177 235.193 76.3262 235.193C76.8275 235.193 77.2607 235.152 77.626 235.07C77.9948 234.991 78.2759 234.876 78.4692 234.726C78.6662 234.576 78.7646 234.395 78.7646 234.184C78.7646 233.972 78.6662 233.79 78.4692 233.636C78.2759 233.482 77.9966 233.364 77.6313 233.281C77.2661 233.199 76.8311 233.156 76.3262 233.152ZM79.9033 227.459H76.874C76.8919 227.806 77.0566 228.129 77.3682 228.426C77.6797 228.719 78.0861 228.965 78.5874 229.162C79.0887 229.355 79.624 229.482 80.1934 229.543L79.8818 230.209C79.3519 230.145 78.8488 230.026 78.3726 229.854C77.8963 229.679 77.4792 229.455 77.1211 229.183C76.763 228.911 76.498 228.603 76.3262 228.259C76.1579 228.603 75.8947 228.911 75.5366 229.183C75.1785 229.455 74.7614 229.679 74.2852 229.854C73.8089 230.026 73.304 230.145 72.7705 230.209L72.4697 229.543C73.0283 229.482 73.5565 229.355 74.0542 229.162C74.5555 228.965 74.9619 228.718 75.2734 228.42C75.5885 228.123 75.7568 227.803 75.7783 227.459H72.7705V226.771H79.9033V227.459ZM89.3672 231.756H88.5293V226.331H89.3672V231.756ZM89.3672 235.741H83.1582V232.304H89.3672V235.741ZM83.9854 235.054H88.54V232.991H83.9854V235.054ZM84.8662 227.642C84.8626 228.082 84.9647 228.505 85.1724 228.909C85.38 229.314 85.6683 229.67 86.0371 229.978C86.4059 230.282 86.8249 230.517 87.2939 230.682L86.8643 231.326C86.3092 231.136 85.8205 230.848 85.3979 230.461C84.979 230.071 84.6621 229.616 84.4473 229.097C84.236 229.656 83.9155 230.146 83.4858 230.569C83.0562 230.988 82.5566 231.301 81.9873 231.509L81.5576 230.843C82.0374 230.674 82.4618 230.429 82.8306 230.107C83.203 229.781 83.4912 229.405 83.6953 228.979C83.903 228.549 84.0068 228.104 84.0068 227.642V226.707H84.8662V227.642ZM91.7197 237.202H90.9248L91.5156 234.28H92.5576L91.7197 237.202ZM105.298 232.809H101.323V235.87H100.496V232.809H96.5537V232.11H105.298V232.809ZM104.31 231.122H97.7246V226.771H104.202V227.459H98.5625V228.576H103.977V229.253H98.5625V230.435H104.31V231.122ZM114.815 234.699H106.071V234.001H108.51V231.724H106.866V231.025H108.359V227.91H106.845V227.212H113.978V227.91H112.463V231.025H113.956V231.724H112.312V234.001H114.815V234.699ZM111.636 231.025V227.91H109.197V231.025H111.636ZM111.475 234.001V231.724H109.358V234.001H111.475ZM122.743 232.325C123.395 232.325 123.957 232.395 124.43 232.535C124.902 232.671 125.264 232.871 125.515 233.136C125.765 233.401 125.891 233.718 125.891 234.087C125.891 234.459 125.765 234.778 125.515 235.043C125.264 235.312 124.902 235.516 124.43 235.655C123.961 235.795 123.398 235.867 122.743 235.87C122.088 235.867 121.522 235.795 121.046 235.655C120.573 235.516 120.21 235.312 119.956 235.043C119.701 234.778 119.574 234.459 119.574 234.087C119.574 233.718 119.701 233.401 119.956 233.136C120.21 232.871 120.575 232.671 121.051 232.535C121.528 232.395 122.091 232.325 122.743 232.325ZM122.743 232.991C122.263 232.995 121.848 233.041 121.497 233.131C121.15 233.217 120.883 233.342 120.697 233.507C120.511 233.668 120.419 233.861 120.423 234.087C120.419 234.312 120.511 234.508 120.697 234.672C120.883 234.837 121.152 234.962 121.502 235.048C121.853 235.138 122.267 235.183 122.743 235.183C123.223 235.183 123.638 235.138 123.989 235.048C124.34 234.962 124.609 234.837 124.795 234.672C124.981 234.508 125.074 234.312 125.074 234.087C125.074 233.861 124.981 233.668 124.795 233.507C124.609 233.342 124.34 233.217 123.989 233.131C123.642 233.041 123.227 232.995 122.743 232.991ZM125.805 228.727H127.244V229.446H125.805V232.067H124.967V226.32H125.805V228.727ZM119.574 228.383H122.356V226.922H123.194V231.326H118.747V226.922H119.574V228.383ZM122.356 230.639V229.049H119.574V230.639H122.356ZM131.229 227.706C131.226 228.164 131.326 228.601 131.53 229.017C131.734 229.432 132.019 229.797 132.384 230.112C132.753 230.427 133.174 230.667 133.646 230.832L133.217 231.498C132.662 231.298 132.175 230.999 131.756 230.601C131.337 230.204 131.02 229.74 130.805 229.21C130.597 229.776 130.281 230.273 129.854 230.703C129.432 231.129 128.941 231.451 128.383 231.67L127.942 231.004C128.415 230.828 128.834 230.574 129.199 230.241C129.568 229.905 129.854 229.516 130.059 229.076C130.266 228.635 130.37 228.179 130.37 227.706V226.793H131.229V227.706ZM135.73 235.87H134.893V233.249H129.307V232.551H135.73V235.87ZM135.73 232.078H134.893V226.32H135.73V232.078ZM140.479 227.019C140.976 227.019 141.418 227.113 141.805 227.303C142.195 227.493 142.5 227.758 142.718 228.098C142.937 228.438 143.046 228.827 143.046 229.264C143.046 229.701 142.937 230.089 142.718 230.429C142.5 230.769 142.195 231.034 141.805 231.224C141.418 231.414 140.976 231.509 140.479 231.509C139.981 231.509 139.535 231.414 139.141 231.224C138.751 231.034 138.445 230.769 138.223 230.429C138.004 230.089 137.897 229.701 137.9 229.264C137.897 228.827 138.004 228.438 138.223 228.098C138.445 227.758 138.751 227.493 139.141 227.303C139.535 227.113 139.981 227.019 140.479 227.019ZM140.479 227.76C140.142 227.76 139.839 227.824 139.571 227.953C139.306 228.078 139.098 228.256 138.948 228.485C138.797 228.71 138.724 228.97 138.728 229.264C138.724 229.557 138.797 229.819 138.948 230.048C139.098 230.273 139.306 230.451 139.571 230.58C139.839 230.705 140.142 230.768 140.479 230.768C140.812 230.768 141.111 230.705 141.375 230.58C141.64 230.451 141.846 230.273 141.993 230.048C142.144 229.819 142.219 229.557 142.219 229.264C142.219 228.97 142.144 228.71 141.993 228.485C141.846 228.256 141.64 228.078 141.375 227.953C141.111 227.824 140.812 227.76 140.479 227.76ZM145.184 235.892H144.346V226.32H145.184V235.892ZM137.406 233.066C138.645 233.066 139.771 233.047 140.785 233.007C141.802 232.968 142.777 232.88 143.712 232.744L143.776 233.367C142.817 233.546 141.837 233.661 140.838 233.711C139.843 233.761 138.738 233.786 137.524 233.786L137.406 233.066ZM152.8 229.436C152.8 229.937 152.902 230.436 153.106 230.934C153.31 231.428 153.593 231.874 153.955 232.271C154.32 232.669 154.73 232.977 155.185 233.195L154.69 233.851C154.168 233.596 153.706 233.224 153.305 232.733C152.907 232.239 152.608 231.682 152.408 231.063C152.2 231.725 151.885 232.32 151.462 232.846C151.043 233.369 150.562 233.761 150.018 234.022L149.534 233.367C149.996 233.152 150.411 232.839 150.78 232.427C151.153 232.015 151.444 231.55 151.656 231.031C151.871 230.508 151.98 229.976 151.983 229.436V228.673H149.792V227.985H151.973V226.503H152.821V227.985H154.97V228.673H152.8V229.436ZM157.011 230.241H158.611V230.961H157.011V235.87H156.173V226.32H157.011V230.241ZM167.001 235.892H166.152V226.32H167.001V235.892ZM161.92 227.062C162.393 227.065 162.813 227.205 163.182 227.48C163.551 227.753 163.839 228.139 164.047 228.641C164.255 229.142 164.358 229.726 164.358 230.392C164.358 231.058 164.255 231.641 164.047 232.143C163.839 232.644 163.551 233.031 163.182 233.303C162.813 233.575 162.393 233.711 161.92 233.711C161.447 233.711 161.025 233.575 160.652 233.303C160.284 233.031 159.995 232.644 159.788 232.143C159.583 231.641 159.481 231.058 159.481 230.392C159.481 229.726 159.583 229.142 159.788 228.641C159.995 228.139 160.284 227.753 160.652 227.48C161.021 227.205 161.444 227.065 161.92 227.062ZM161.92 227.813C161.601 227.817 161.318 227.926 161.071 228.141C160.828 228.352 160.638 228.653 160.502 229.043C160.366 229.43 160.298 229.88 160.298 230.392C160.298 230.904 160.366 231.355 160.502 231.745C160.638 232.132 160.83 232.431 161.077 232.642C161.324 232.853 161.605 232.959 161.92 232.959C162.235 232.959 162.516 232.853 162.763 232.642C163.01 232.431 163.202 232.132 163.338 231.745C163.474 231.355 163.542 230.904 163.542 230.392C163.542 229.88 163.474 229.43 163.338 229.043C163.202 228.653 163.01 228.352 162.763 228.141C162.52 227.926 162.239 227.817 161.92 227.813Z" fill="#2C2C2C"/>
<path d="M164.786 173.35C165.235 173.351 165.68 173.448 166.095 173.636C166.51 173.823 166.888 174.099 167.206 174.446L167.208 174.448L167.737 175.021L167.994 175.299L168.251 175.02L168.772 174.454C169.092 174.107 169.473 173.834 169.89 173.648C170.306 173.463 170.752 173.368 171.201 173.369C171.651 173.37 172.097 173.467 172.513 173.655C172.929 173.843 173.308 174.118 173.626 174.467L173.627 174.469C174.278 175.173 174.648 176.129 174.65 177.13C174.653 178.13 174.288 179.088 173.642 179.797L168.177 185.709V185.71C168.088 185.806 167.956 185.806 167.867 185.71V185.709L162.375 179.763C161.014 178.289 161.008 175.897 162.36 174.433C162.68 174.087 163.06 173.814 163.476 173.629C163.892 173.444 164.337 173.348 164.786 173.35Z" fill="#F7F8FA" fill-opacity="0.38" stroke="#F7F8FA" stroke-width="0.7"/>
<g filter="url(#filter0_d_128_571)">
<path d="M132 64V2H175V64L153.5 56.5L132 64Z" fill="#FF5148"/>
</g>
<path d="M142.862 19V10.5138H144.151V14.1975H148.373V10.5138H149.666V19H148.373V15.3039H144.151V19H142.862ZM158.769 14.7569C158.769 17.471 157.14 19.116 154.944 19.116C152.736 19.116 151.12 17.4669 151.12 14.7569C151.12 12.0428 152.736 10.3978 154.944 10.3978C157.14 10.3978 158.769 12.0428 158.769 14.7569ZM152.4 14.7569C152.4 16.8204 153.486 17.9392 154.944 17.9392C156.403 17.9392 157.488 16.8204 157.488 14.7569C157.488 12.6934 156.403 11.5746 154.944 11.5746C153.486 11.5746 152.4 12.6934 152.4 14.7569ZM159.447 11.6243V10.5138H166.023V11.6243H163.384V19H162.095V11.6243H159.447Z" fill="#F7B0B0"/>
<path d="M156.593 26.4917V47H153.469V29.616H153.349L148.452 32.8104V29.8363L153.549 26.4917H156.593Z" fill="white"/>
<rect x="15.25" y="166.25" width="74.5" height="23.5" rx="11.75" fill="white" fill-opacity="0.3"/>
<rect x="15.25" y="166.25" width="74.5" height="23.5" rx="11.75" stroke="white" stroke-width="0.5"/>
<path d="M29.0276 175.167C29.0193 177.023 30.105 178.925 31.663 179.688L30.9793 180.579C29.8315 179.986 28.9448 178.809 28.4848 177.409C28.0166 178.901 27.0967 180.156 25.9033 180.778L25.2113 179.883C26.8232 179.104 27.913 177.094 27.9213 175.167V173.369H29.0276V175.167ZM32.4544 182.994V172.494H33.5691V176.684H35.2514V177.633H33.5691V182.994H32.4544ZM44.0106 172.503V175.122H45.5396V176.062H44.0106V178.751H42.896V172.503H44.0106ZM36.175 173.953V173.054H40.9609V176.029H37.302V177.33C39.1252 177.334 40.4181 177.28 41.9471 177.023L42.0631 177.91C40.4388 178.204 39.0507 178.258 37.0368 178.258H36.1957V175.18H39.8711V173.953H36.175ZM37.2855 182.862V179.244H44.0106V182.862H37.2855ZM38.3711 181.959H42.925V180.115H38.3711V181.959ZM55.7408 180.773V181.693H46.1317V180.773H50.3582V178.619H47.2256V173.211H48.3403V175.022H53.495V173.211H54.6013V178.619H51.4604V180.773H55.7408ZM48.3403 177.715H53.495V175.917H48.3403V177.715ZM64.6823 172.494V176.559H66.3647V177.483H64.6823V183.015H63.5677V172.494H64.6823ZM56.9462 180.409V173.506H61.8564V174.409H58.0567V179.481C59.8177 179.472 61.1395 179.398 62.6437 179.124L62.7763 180.073C61.1354 180.359 59.739 180.413 57.7915 180.409H56.9462ZM78.066 172.494V175.151H79.5743V176.07H78.066V178.698H76.9389V172.494H78.066ZM70.2469 177.935V173.265H74.9293V174.173H71.345V177.032C73.4168 177.023 74.5812 176.957 75.9072 176.684L76.0149 177.591C74.6061 177.881 73.3505 177.935 71.0798 177.935H70.2469ZM71.1378 180.931C71.1378 179.651 72.4969 178.896 74.6599 178.892C76.8063 178.896 78.1489 179.651 78.1489 180.931C78.1489 182.228 76.8063 182.978 74.6599 182.978C72.4969 182.978 71.1378 182.228 71.1378 180.931ZM72.2317 180.931C72.2317 181.66 73.1433 182.087 74.6599 182.087C76.1516 182.087 77.0715 181.66 77.0715 180.931C77.0715 180.206 76.1516 179.787 74.6599 179.796C73.1433 179.787 72.2317 180.206 72.2317 180.931Z" fill="#2C2C2C"/>
<defs>
<filter id="filter0_d_128_571" x="128" y="0" width="51" height="70" filterUnits="userSpaceOnUse" color-interpolation-filters="sRGB">
<feFlood flood-opacity="0" result="BackgroundImageFix"/>
<feColorMatrix in="SourceAlpha" type="matrix" values="0 0 0 0 0 0 0 0 0 0 0 0 0 0 0 0 0 0 127 0" result="hardAlpha"/>
<feOffset dy="2"/>
<feGaussianBlur stdDeviation="2"/>
<feComposite in2="hardAlpha" operator="out"/>
<feColorMatrix type="matrix" values="0 0 0 0 0 0 0 0 0 0 0 0 0 0 0 0 0 0 0.15 0"/>
<feBlend mode="normal" in2="BackgroundImageFix" result="effect1_dropShadow_128_571"/>
<feBlend mode="normal" in="SourceGraphic" in2="effect1_dropShadow_128_571" result="shape"/>
</filter>
</defs>
</svg>
