<svg width="195" height="258" viewBox="0 0 195 258" fill="none" xmlns="http://www.w3.org/2000/svg">
<rect y="2" width="195" height="256" rx="10" fill="url(#paint0_linear_128_575)"/>
<path d="M27.8828 216.629H12.5566V214.94H19.1621V211.675H14.2451V202.991H16.3047V205.737H24.0791V202.991H26.1387V211.675H21.2031V214.94H27.8828V216.629ZM24.0791 210.005V207.389H16.3047V210.005H24.0791ZM37.7168 203.27C37.7168 203.975 37.9642 204.661 38.459 205.329C38.96 205.997 39.6589 206.569 40.5557 207.045C41.4587 207.522 42.4915 207.834 43.6543 207.982L42.8379 209.652C41.4277 209.442 40.1784 209.009 39.0898 208.354C38.0013 207.692 37.1818 206.885 36.6313 205.932C36.0809 206.885 35.2645 207.692 34.1821 208.354C33.0998 209.009 31.8597 209.442 30.4619 209.652L29.6455 207.982C30.7959 207.834 31.8195 207.522 32.7163 207.045C33.6131 206.569 34.3089 205.997 34.8037 205.329C35.2985 204.661 35.5459 203.975 35.5459 203.27V202.416H37.7168V203.27ZM44.2666 212.807H37.6055V218.651H35.5645V212.807H28.9775V211.1H44.2666V212.807ZM55.8818 217H53.2842L49.6846 206.925H52.208L54.5273 214.421H54.6387L56.9766 206.925H59.4814L55.8818 217ZM66.6807 209.801C66.6064 209.417 66.4147 209.114 66.1055 208.892C65.7962 208.669 65.3942 208.558 64.8994 208.558C64.5654 208.558 64.2624 208.61 63.9902 208.715C63.7243 208.814 63.5171 208.957 63.3687 209.142C63.2202 209.321 63.1491 209.522 63.1553 209.745C63.1367 210.283 63.613 210.667 64.584 210.896L66.291 211.248C67.2497 211.465 67.9609 211.795 68.4248 212.241C68.8887 212.686 69.1237 213.271 69.1299 213.994C69.1237 214.625 68.9443 215.185 68.5918 215.673C68.2393 216.156 67.7383 216.533 67.0889 216.805C66.4456 217.071 65.6911 217.204 64.8252 217.204C63.5573 217.204 62.5492 216.935 61.8008 216.397C61.0586 215.853 60.6257 215.095 60.502 214.124H62.9141C62.9883 214.551 63.1862 214.872 63.5078 215.089C63.8356 215.299 64.2747 215.404 64.8252 215.404C65.3942 215.404 65.8519 215.296 66.1982 215.08C66.5446 214.863 66.7178 214.569 66.7178 214.198C66.7178 213.908 66.5972 213.669 66.356 213.484C66.1209 213.292 65.7529 213.141 65.252 213.029L63.6377 212.677C62.7038 212.491 61.9956 212.16 61.5132 211.684C61.0369 211.208 60.7988 210.605 60.7988 209.875C60.7988 209.263 60.9658 208.725 61.2998 208.261C61.6338 207.791 62.1069 207.429 62.7192 207.175C63.3315 206.922 64.0459 206.795 64.8623 206.795C65.654 206.795 66.3436 206.919 66.9312 207.166C67.5249 207.407 67.9919 207.754 68.332 208.205C68.6722 208.657 68.8701 209.188 68.9258 209.801H66.6807ZM81.2275 205.292C81.2275 205.997 81.3853 206.677 81.7007 207.333C82.0161 207.982 82.4831 208.564 83.1016 209.077C83.7201 209.584 84.4622 209.974 85.3281 210.246L84.2705 211.86C83.3366 211.557 82.5264 211.109 81.8398 210.515C81.1533 209.915 80.6152 209.21 80.2256 208.4C79.8359 209.284 79.2855 210.054 78.5742 210.71C77.8691 211.366 77.028 211.86 76.0508 212.194L74.9932 210.562C75.8652 210.271 76.6105 209.856 77.229 209.318C77.8537 208.774 78.3268 208.156 78.6484 207.463C78.9762 206.764 79.1432 206.04 79.1494 205.292V204.81H75.5312V203.158H84.7529V204.81H81.2275V205.292ZM88.835 214.068H86.7568V201.896H88.835V214.068ZM89.2988 218.317H77.7393V212.955H79.8174V216.647H89.2988V218.317ZM106.61 216.629H91.2842V214.94H97.8896V211.675H92.9727V202.991H95.0322V205.737H102.807V202.991H104.866V211.675H99.9307V214.94H106.61V216.629ZM102.807 210.005V207.389H95.0322V210.005H102.807ZM110.544 212.881C110.55 212.12 110.624 211.505 110.767 211.035C110.909 210.565 111.107 210.19 111.36 209.912C111.62 209.628 111.966 209.349 112.399 209.077C112.839 208.799 113.179 208.496 113.42 208.168C113.667 207.834 113.791 207.451 113.791 207.018C113.791 206.677 113.711 206.381 113.55 206.127C113.389 205.867 113.169 205.666 112.891 205.524C112.619 205.382 112.313 205.311 111.973 205.311C111.651 205.311 111.351 205.379 111.073 205.515C110.794 205.651 110.566 205.858 110.386 206.136C110.213 206.415 110.117 206.752 110.099 207.147H107.779C107.798 206.343 107.996 205.66 108.373 205.097C108.75 204.528 109.254 204.101 109.885 203.817C110.516 203.526 111.218 203.381 111.991 203.381C112.82 203.381 113.553 203.529 114.19 203.826C114.833 204.117 115.331 204.534 115.684 205.079C116.042 205.623 116.222 206.257 116.222 206.98C116.222 207.698 116.052 208.316 115.711 208.836C115.377 209.355 114.892 209.807 114.255 210.19C113.884 210.413 113.587 210.645 113.364 210.886C113.148 211.121 112.987 211.396 112.882 211.712C112.777 212.027 112.721 212.417 112.715 212.881V213.048H110.544V212.881ZM111.694 217.148C111.435 217.148 111.193 217.083 110.971 216.954C110.748 216.824 110.572 216.647 110.442 216.425C110.312 216.202 110.247 215.961 110.247 215.701C110.247 215.448 110.312 215.213 110.442 214.996C110.572 214.773 110.748 214.597 110.971 214.467C111.193 214.337 111.435 214.272 111.694 214.272C111.942 214.272 112.174 214.337 112.39 214.467C112.613 214.597 112.789 214.773 112.919 214.996C113.055 215.213 113.123 215.448 113.123 215.701C113.123 215.961 113.055 216.202 112.919 216.425C112.789 216.647 112.613 216.824 112.39 216.954C112.174 217.083 111.942 217.148 111.694 217.148Z" fill="#2C2C2C"/>
<path d="M19.7773 230.209H21.3242V230.918H19.7773V235.87H18.9395V226.32H19.7773V230.209ZM17.3066 227.352C17.3066 228.773 16.9504 230.062 16.2378 231.219C15.5252 232.372 14.4206 233.317 12.9238 234.055L12.4512 233.389C13.6794 232.776 14.63 232.021 15.3032 231.122C15.9764 230.22 16.3613 229.199 16.458 228.061H12.8916V227.352H17.3066ZM29.7676 235.87H28.9189V226.32H29.7676V235.87ZM25.417 229.436C25.417 229.958 25.528 230.47 25.75 230.972C25.9756 231.473 26.2835 231.919 26.6738 232.309C27.0641 232.696 27.4974 232.991 27.9736 233.195L27.501 233.851C26.9495 233.604 26.4536 233.235 26.0132 232.744C25.5728 232.254 25.2415 231.693 25.0195 231.063C24.8047 231.729 24.4788 232.323 24.042 232.846C23.6087 233.369 23.1146 233.761 22.5596 234.022L22.0869 233.367C22.556 233.152 22.9803 232.843 23.3599 232.438C23.743 232.03 24.0438 231.564 24.2622 231.042C24.4806 230.519 24.5898 229.983 24.5898 229.436V228.673H22.3447V227.985H24.5791V226.503H25.417V227.985H27.6406V228.673H25.417V229.436ZM40.1338 231.423H31.3896V230.757H40.1338V231.423ZM39.0381 234.216H33.3018V235.129H39.3496V235.741H32.4531V233.636H38.2002V232.819H32.4424V232.186H39.0381V234.216ZM39.0059 228.587H33.3662V229.425H39.1777V230.037H32.5283V228.007H38.1572V227.223H32.4961V226.61H39.0059V228.587ZM51.0586 230.08H52.6592V230.811H51.0586V235.87H50.2207V226.32H51.0586V230.08ZM44.9033 229.661H47.6963V227.137H48.5342V233.582H44.0654V227.137H44.9033V229.661ZM47.6963 232.873V230.338H44.9033V232.873H47.6963ZM60.5654 230.123H62.166V230.832H60.5654V235.892H59.7275V226.32H60.5654V230.123ZM57.8906 230.628H54.4102V232.862C55.359 232.862 56.1665 232.839 56.8325 232.792C57.5021 232.746 58.1807 232.658 58.8682 232.529L58.9541 233.228C58.2415 233.36 57.5397 233.451 56.8486 233.501C56.1576 233.548 55.3197 233.575 54.335 233.582H53.5723V229.93H57.0527V227.91H53.5508V227.212H57.8906V230.628ZM71.4258 234.646H62.6816V233.947H66.6133V231.885H63.7129V226.997H64.5615V228.727H69.5244V226.997H70.3516V231.885H67.4404V233.947H71.4258V234.646ZM69.5244 231.197V229.414H64.5615V231.197H69.5244ZM79.9121 229.897H73.3701V226.675H74.208V229.221H79.9121V229.897ZM80.9219 231.885H72.1777V231.197H80.9219V231.885ZM79.9658 235.634H73.3164V232.862H74.1543V234.936H79.9658V235.634ZM92.0723 230.574H85.6592V226.89H91.9434V227.588H86.5186V229.897H92.0723V230.574ZM93.1895 232.529H89.2041V235.838H88.377V232.529H84.4453V231.842H93.1895V232.529ZM100.118 228.888C100.115 229.453 100.229 230.016 100.462 230.574C100.695 231.129 101.01 231.623 101.407 232.057C101.805 232.49 102.238 232.812 102.707 233.023L102.191 233.689C101.647 233.421 101.153 233.022 100.709 232.492C100.269 231.958 99.9355 231.353 99.71 230.676C99.488 231.396 99.1549 232.041 98.7109 232.61C98.2669 233.176 97.7656 233.6 97.207 233.883L96.6699 233.174C97.139 232.955 97.5723 232.624 97.9697 232.18C98.3672 231.733 98.6841 231.221 98.9204 230.644C99.1567 230.064 99.2767 229.479 99.2803 228.888V227.147H100.118V228.888ZM104.598 235.892H103.749V226.32H104.598V235.892ZM109.496 228.125C109.496 228.565 109.595 228.992 109.792 229.403C109.992 229.812 110.271 230.175 110.629 230.494C110.987 230.809 111.397 231.05 111.859 231.219L111.387 231.874C110.864 231.666 110.402 231.364 110.001 230.966C109.604 230.565 109.301 230.105 109.093 229.586C108.893 230.162 108.583 230.671 108.164 231.111C107.745 231.552 107.255 231.885 106.692 232.11L106.241 231.423C106.714 231.247 107.133 230.991 107.498 230.655C107.863 230.318 108.148 229.928 108.352 229.484C108.56 229.04 108.665 228.576 108.669 228.093V226.911H109.496V228.125ZM114.147 233.485H113.299V229.285H111.172V228.576H113.299V226.331H114.147V233.485ZM114.362 235.666H107.971V232.669H108.819V234.957H114.362V235.666Z" fill="#2C2C2C"/>
<path d="M164.786 173.35C165.235 173.351 165.68 173.448 166.095 173.636C166.51 173.823 166.888 174.099 167.206 174.446L167.208 174.448L167.737 175.021L167.994 175.299L168.251 175.02L168.772 174.454C169.092 174.107 169.473 173.834 169.89 173.648C170.306 173.463 170.752 173.368 171.201 173.369C171.651 173.37 172.097 173.467 172.513 173.655C172.929 173.843 173.308 174.118 173.626 174.467L173.627 174.469C174.278 175.173 174.648 176.129 174.65 177.13C174.653 178.13 174.288 179.088 173.642 179.797L168.177 185.709V185.71C168.088 185.806 167.956 185.806 167.867 185.71V185.709L162.375 179.763C161.014 178.289 161.008 175.897 162.36 174.433C162.68 174.087 163.06 173.814 163.476 173.629C163.892 173.444 164.337 173.348 164.786 173.35Z" fill="#F7F8FA" fill-opacity="0.38" stroke="#F7F8FA" stroke-width="0.7"/>
<g filter="url(#filter0_d_128_575)">
<path d="M132 64V2H175V64L153.5 56.5L132 64Z" fill="#FF5148"/>
</g>
<path d="M142.862 19V10.5138H144.151V14.1975H148.373V10.5138H149.666V19H148.373V15.3039H144.151V19H142.862ZM158.769 14.7569C158.769 17.471 157.14 19.116 154.944 19.116C152.736 19.116 151.12 17.4669 151.12 14.7569C151.12 12.0428 152.736 10.3978 154.944 10.3978C157.14 10.3978 158.769 12.0428 158.769 14.7569ZM152.4 14.7569C152.4 16.8204 153.486 17.9392 154.944 17.9392C156.403 17.9392 157.488 16.8204 157.488 14.7569C157.488 12.6934 156.403 11.5746 154.944 11.5746C153.486 11.5746 152.4 12.6934 152.4 14.7569ZM159.447 11.6243V10.5138H166.023V11.6243H163.384V19H162.095V11.6243H159.447Z" fill="#F7B0B0"/>
<path d="M153.792 47.2804C149.897 47.2804 146.983 44.9171 146.853 41.6426H149.887C150.037 43.395 151.709 44.6668 153.792 44.6668C156.276 44.6668 158.058 42.8743 158.058 40.4309C158.058 37.9375 156.215 36.125 153.652 36.105C151.99 36.095 150.738 36.6457 150.027 37.9075H147.093L148.435 26.4917H160.051V29.1654H151.018L150.317 34.8933H150.518C151.379 34.0922 152.811 33.5314 154.373 33.5314C158.238 33.5314 161.092 36.3854 161.082 40.3608C161.092 44.3864 158.048 47.2804 153.792 47.2804Z" fill="white"/>
<rect x="12.25" y="166.25" width="74.5" height="23.5" rx="11.75" fill="white" fill-opacity="0.3"/>
<rect x="12.25" y="166.25" width="74.5" height="23.5" rx="11.75" stroke="white" stroke-width="0.5"/>
<path d="M30.5691 172.494V176.68H32.1975V177.612H30.5691V182.982H29.4544V172.494H30.5691ZM22.3936 180.185C25.029 178.872 26.4544 176.974 26.6906 174.525H22.9199V173.605H27.8218C27.8135 176.634 26.4751 179.344 23.0152 181.047L22.3936 180.185ZM41.454 172.494V182.994H40.3393V172.494H41.454ZM32.9139 180.127C34.5341 179.398 35.6114 177.633 35.6156 175.867V175.18H33.2205V174.285H35.6073V172.702H36.7095V174.285H39.0631V175.18H36.7136V175.867C36.7136 177.55 37.8158 179.257 39.4526 179.945L38.8393 180.807C37.6294 180.28 36.6681 179.186 36.1791 177.865C35.7026 179.265 34.7495 180.43 33.5313 180.985L32.9139 180.127ZM46.5502 173.24C48.2118 173.24 49.401 174.268 49.4093 175.743C49.401 177.222 48.2118 178.246 46.5502 178.246C44.8969 178.246 43.6828 177.222 43.6911 175.743C43.6828 174.268 44.8969 173.24 46.5502 173.24ZM43.1856 179.829C45.0999 179.833 47.7477 179.812 50.0433 179.481L50.1303 180.293C47.7519 180.744 45.1994 180.757 43.3223 180.757L43.1856 179.829ZM44.7891 175.743C44.7809 176.671 45.5309 177.28 46.5502 177.28C47.5695 177.28 48.3195 176.671 48.3237 175.743C48.3195 174.819 47.5695 174.206 46.5502 174.206C45.5309 174.206 44.7809 174.819 44.7891 175.743ZM50.7021 183.015V172.494H51.8126V183.015H50.7021ZM60.0292 175.867C60.0292 177.492 61.0153 179.199 62.5858 179.953L61.9518 180.798C60.804 180.251 59.9421 179.157 59.4988 177.865C59.0388 179.257 58.1231 180.425 56.9214 180.985L56.2957 180.127C57.8993 179.394 58.9311 177.599 58.9394 175.867V175.18H56.6148V174.285H58.9311V172.702H60.0457V174.285H62.333V175.18H60.0292V175.867ZM63.4974 182.994V172.494H64.612V176.725H66.2944V177.67H64.612V182.994H63.4974ZM75.5011 172.494V183.015H74.3823V172.494H75.5011ZM67.1641 176.965C67.1641 174.715 68.2953 173.286 69.8782 173.282C71.4444 173.286 72.5881 174.715 72.5881 176.965C72.5881 179.228 71.4444 180.657 69.8782 180.657C68.2953 180.657 67.1641 179.228 67.1641 176.965ZM68.2373 176.965C68.2373 178.631 68.9085 179.659 69.8782 179.659C70.8478 179.659 71.5107 178.631 71.5107 176.965C71.5107 175.312 70.8478 174.285 69.8782 174.276C68.9085 174.285 68.2373 175.312 68.2373 176.965Z" fill="#2C2C2C"/>
<defs>
<filter id="filter0_d_128_575" x="128" y="0" width="51" height="70" filterUnits="userSpaceOnUse" color-interpolation-filters="sRGB">
<feFlood flood-opacity="0" result="BackgroundImageFix"/>
<feColorMatrix in="SourceAlpha" type="matrix" values="0 0 0 0 0 0 0 0 0 0 0 0 0 0 0 0 0 0 127 0" result="hardAlpha"/>
<feOffset dy="2"/>
<feGaussianBlur stdDeviation="2"/>
<feComposite in2="hardAlpha" operator="out"/>
<feColorMatrix type="matrix" values="0 0 0 0 0 0 0 0 0 0 0 0 0 0 0 0 0 0 0.15 0"/>
<feBlend mode="normal" in2="BackgroundImageFix" result="effect1_dropShadow_128_575"/>
<feBlend mode="normal" in="SourceGraphic" in2="effect1_dropShadow_128_575" result="shape"/>
</filter>
<linearGradient id="paint0_linear_128_575" x1="97.5" y1="2" x2="97.5" y2="258" gradientUnits="userSpaceOnUse">
<stop stop-color="#DAF4BD"/>
<stop offset="1" stop-color="#CCE6AF"/>
</linearGradient>
</defs>
</svg>
