<svg width="135" height="138" viewBox="0 0 135 138" fill="none" xmlns="http://www.w3.org/2000/svg">
<path d="M96.8724 133.911C97.4642 132.627 96.9204 130.809 96.5037 129.516C96.1842 128.525 95.6476 127.564 94.7943 126.839C94.4259 126.525 93.9909 126.254 93.4901 126.134C91.8869 125.749 90.4262 127.278 90.0104 128.425C89.6758 129.347 89.6957 130.334 89.7709 131.298C89.8265 132.01 89.9202 132.746 90.3457 133.36C90.8426 134.077 91.7214 134.529 92.5779 134.929C93.2279 135.232 93.9303 135.532 94.6695 135.486C95.6781 135.425 96.5026 134.714 96.8724 133.911Z" fill="black"/>
<path d="M129.675 126.889C129.489 127.486 129.088 128.081 129.257 128.682C129.396 129.178 129.911 129.587 129.893 130.098C129.868 130.822 128.815 131.225 128.6 131.925C128.369 132.678 129.188 133.415 129.091 134.189C128.978 135.094 127.753 135.53 126.713 135.737C117.509 137.575 107.895 136.087 98.4431 136.22C96.3762 136.25 94.2516 136.35 92.2995 135.77C93.8101 134.342 94.8509 132.479 94.7975 130.556C94.7441 128.633 93.4533 126.693 91.3762 125.943C95.1111 124.491 99.3796 124.6 103.484 124.533C107.842 124.462 112.189 124.162 116.545 124.057C118.749 124.004 120.956 123.999 123.158 124.102C124.073 124.144 124.954 124.203 125.859 124.158C126.707 124.116 127.776 123.957 128.527 124.392C129.268 124.821 129.904 126.155 129.675 126.889Z" fill="white"/>
<path d="M129.301 126.786C129.079 127.459 128.659 128.129 128.905 128.859C129.003 129.148 129.186 129.391 129.341 129.649C129.453 129.837 129.56 130.035 129.463 130.25C129.371 130.456 129.177 130.619 129.017 130.771C128.811 130.967 128.604 131.16 128.439 131.393C128.086 131.893 128.136 132.46 128.357 133.003C128.541 133.458 128.909 134.019 128.563 134.484C128.246 134.91 127.64 135.102 127.152 135.236C126.456 135.428 125.731 135.535 125.019 135.649C124.203 135.779 123.383 135.883 122.561 135.968C116.098 136.629 109.597 136.059 103.125 135.877C101.318 135.826 99.5119 135.815 97.7047 135.845C95.9274 135.876 94.1244 135.898 92.4018 135.397L92.573 136.045C93.8492 134.827 94.8848 133.253 95.1287 131.477C95.3478 129.882 94.8405 128.297 93.7683 127.099C93.145 126.403 92.352 125.893 91.4786 125.57V126.317C93.8586 125.401 96.4051 125.115 98.9366 125.01C101.604 124.899 104.276 124.924 106.945 124.825C112.55 124.615 118.147 124.248 123.757 124.519C124.499 124.555 125.241 124.583 125.983 124.54C126.59 124.504 127.229 124.415 127.83 124.546C128.363 124.662 128.715 124.985 128.985 125.448C129.207 125.827 129.425 126.341 129.301 126.786C129.167 127.268 129.915 127.473 130.049 126.992C130.301 126.087 129.766 124.977 129.117 124.36C128.248 123.535 126.992 123.711 125.9 123.769C124.484 123.843 123.06 123.697 121.645 123.66C120.169 123.623 118.693 123.627 117.217 123.655C114.312 123.711 111.41 123.863 108.508 123.986C105.697 124.106 102.887 124.128 100.074 124.197C97.1041 124.27 94.0702 124.493 91.2724 125.57C90.9097 125.709 90.9015 126.18 91.2724 126.317C92.5739 126.799 93.6548 127.851 94.1318 129.16C94.6416 130.56 94.391 132.063 93.6955 133.353C93.2616 134.159 92.6847 134.867 92.0246 135.497C91.8097 135.702 91.9216 136.065 92.1957 136.145C93.7425 136.594 95.3641 136.647 96.9644 136.632C98.6188 136.615 100.271 136.591 101.925 136.624C105.273 136.691 108.616 136.883 111.963 136.986C115.281 137.088 118.609 137.102 121.918 136.805C123.56 136.658 125.201 136.441 126.816 136.112C127.846 135.902 129.36 135.442 129.479 134.189C129.512 133.834 129.402 133.496 129.267 133.172C129.143 132.876 128.952 132.555 128.946 132.226C128.936 131.684 129.633 131.308 129.937 130.929C130.411 130.338 130.313 129.731 129.924 129.121C129.726 128.81 129.55 128.542 129.629 128.156C129.711 127.753 129.921 127.382 130.049 126.992C130.205 126.517 129.456 126.313 129.301 126.786Z" fill="black"/>
<path d="M123.885 137.003C125.212 136.899 126.545 136.753 127.875 136.691C128.714 136.652 129.689 136.446 129.531 135.477C129.36 134.432 128.019 134.502 127.101 134.517C125.767 134.539 124.434 134.565 123.101 134.588C120.435 134.634 117.768 134.675 115.101 134.705C109.708 134.765 104.313 134.778 98.9199 134.689C96.9307 134.655 94.8593 134.591 93.1036 133.793C91.348 132.995 90.0274 131.231 90.6089 129.609C90.9361 128.695 91.8059 127.977 92.7994 127.537C93.7929 127.096 94.9085 126.901 96.0144 126.751C100.38 126.161 104.823 126.205 109.243 126.182C115.818 126.148 122.391 125.96 128.962 125.772C129.215 125.765 129.475 125.757 129.706 125.668C130.879 125.216 130.824 123.038 130.225 122.283C129.706 121.629 128.9 121.19 128.117 120.77C126.383 119.839 124.649 118.909 122.916 117.978C121.752 117.352 120.351 116.531 118.999 116.296C118.099 116.139 117.17 116.184 116.254 116.23C110.286 116.53 104.305 116.471 98.3302 116.428C95.0184 116.405 91.7333 116.248 88.4259 116.479C85.4789 116.685 82.7468 114.894 79.748 116.182C77.2198 117.268 76.2782 119.976 76.312 122.39C76.3761 126.957 79.2705 129.829 83.4512 132.24C85.7688 133.577 88.1309 134.858 90.5337 136.08C92.6072 137.135 94.6935 137.205 97.0503 137.256C99.6464 137.312 102.243 137.326 104.84 137.321C110.02 137.31 115.234 137.376 120.409 137.219C121.571 137.183 122.728 137.093 123.885 137.003Z" fill="#8683FF"/>
<path d="M129.423 134.558C128.942 134.189 128.307 134.229 127.736 134.178C127.074 134.118 126.412 134.1 125.748 134.113C124.377 134.138 123.008 134.202 121.637 134.225C118.84 134.271 116.044 134.311 113.247 134.336C110.457 134.361 107.666 134.372 104.876 134.361C103.471 134.355 102.066 134.344 100.662 134.326C99.3484 134.309 98.0291 134.316 96.7186 134.217C94.6388 134.06 91.9853 133.488 91.0611 131.347C90.6636 130.426 90.9038 129.486 91.6045 128.788C92.4479 127.948 93.6348 127.573 94.774 127.344C96.0821 127.08 97.4238 126.954 98.7523 126.846C100.146 126.733 101.543 126.669 102.94 126.632C105.676 126.559 108.413 126.582 111.149 126.556C116.733 126.502 122.316 126.349 127.898 126.191C128.515 126.173 129.217 126.242 129.81 126.042C130.28 125.883 130.078 125.133 129.603 125.294C129.305 125.395 128.994 125.384 128.683 125.393C128.328 125.403 127.973 125.413 127.618 125.423C126.89 125.444 126.162 125.464 125.434 125.484C123.996 125.524 122.559 125.563 121.121 125.599C118.283 125.669 115.444 125.728 112.606 125.764C106.977 125.834 101.294 125.616 95.7042 126.406C94.4451 126.584 93.1519 126.838 92.0416 127.49C91.1326 128.023 90.2998 128.866 90.1238 129.944C89.7541 132.208 91.9478 133.89 93.8571 134.493C95.0692 134.876 96.3553 134.993 97.6197 135.043C98.9882 135.098 100.36 135.1 101.729 135.114C104.595 135.143 107.46 135.147 110.326 135.132C113.195 135.117 116.064 135.085 118.933 135.043C120.358 135.022 121.783 135.004 123.208 134.974C124.575 134.945 125.944 134.824 127.311 134.917C127.616 134.938 127.921 134.965 128.227 134.985C128.521 135.005 128.792 135.044 129.031 135.227C129.199 135.356 129.464 135.252 129.562 135.088C129.681 134.89 129.588 134.685 129.423 134.558Z" fill="black"/>
<path d="M97.893 131.803C99.5621 131.74 101.233 131.746 102.901 131.823C103.4 131.846 103.399 131.07 102.901 131.047C101.233 130.971 99.5621 130.964 97.893 131.027C97.3955 131.046 97.393 131.822 97.893 131.803Z" fill="black"/>
<path d="M98.207 129.441C101.375 129.732 104.556 129.587 107.729 129.483C110.954 129.378 114.18 129.326 117.407 129.329C119.246 129.33 121.084 129.349 122.923 129.385C123.422 129.395 123.422 128.62 122.923 128.61C119.696 128.546 116.468 128.536 113.241 128.58C110.035 128.624 106.832 128.775 103.627 128.828C101.819 128.858 100.009 128.831 98.207 128.666C97.7102 128.62 97.7133 129.396 98.207 129.441Z" fill="black"/>
<path d="M125.832 129.171C125.956 129.147 126.082 129.118 126.207 129.108C126.102 129.117 126.202 129.109 126.22 129.107C126.25 129.103 126.279 129.1 126.308 129.097C126.371 129.09 126.434 129.084 126.498 129.078C126.747 129.058 126.996 129.05 127.246 129.055C127.449 129.059 127.643 128.874 127.634 128.667C127.624 128.454 127.464 128.284 127.246 128.28C126.703 128.269 126.16 128.32 125.626 128.423C125.427 128.461 125.294 128.711 125.355 128.9C125.424 129.113 125.619 129.212 125.832 129.171Z" fill="black"/>
<path d="M107.222 131.848C112.581 132.153 117.952 132.225 123.316 132.06C124.83 132.013 126.343 131.947 127.855 131.863C128.351 131.836 128.354 131.06 127.855 131.088C122.496 131.385 117.125 131.449 111.761 131.275C110.247 131.226 108.734 131.158 107.223 131.072C106.724 131.044 106.725 131.819 107.222 131.848Z" fill="black"/>
<path d="M89.9459 133.894C88.9831 132.926 88.3506 131.637 88.3142 130.26C88.2793 128.937 88.8142 127.634 89.6938 126.654C90.6064 125.638 91.8216 125.113 93.1081 124.732C94.5086 124.317 95.9575 124.057 97.4024 123.855C100.734 123.39 104.121 123.282 107.481 123.276C109.202 123.273 110.922 123.313 112.641 123.39C114.366 123.467 116.087 123.543 117.814 123.513C121.694 123.445 125.575 123.286 129.454 123.168C129.952 123.153 129.955 122.378 129.454 122.393C125.874 122.501 122.294 122.623 118.714 122.717C115.115 122.812 111.527 122.509 107.93 122.5C104.421 122.492 100.89 122.606 97.4099 123.078C95.9229 123.28 94.4321 123.539 92.9892 123.959C91.6422 124.35 90.3268 124.893 89.3287 125.911C88.2354 127.025 87.5343 128.558 87.5366 130.13C87.539 131.756 88.261 133.3 89.3975 134.443C89.75 134.797 90.2985 134.248 89.9459 133.894Z" fill="black"/>
<path d="M65.0212 55.7787C60.9904 60.8573 56.0889 65.243 50.5952 68.6867C50.9036 61.4352 51.5811 54.1492 52.593 46.957C52.6347 46.6602 52.6759 46.3495 52.5749 46.0673C52.3725 45.5018 51.6789 45.2707 51.0793 45.3053C50.4797 45.3398 49.9 45.5602 49.2995 45.5711C47.974 45.5952 46.8399 44.6044 46.0876 43.5128C45.5499 42.7323 45.067 42.162 44.3291 41.5782C43.7465 41.1171 43.3921 40.1615 42.7565 39.8298C41.0917 38.9609 40.1451 41.8223 39.8527 42.9131C39.4768 44.3151 39.6016 45.8154 39.9909 47.2137C40.5496 49.2206 41.6572 50.9623 42.473 52.8493C43.4381 55.082 42.4086 57.6199 41.4876 59.8711C39.2875 65.2488 37.4872 70.3666 37.6838 76.2992C37.7467 78.1986 38.0061 80.1649 39.024 81.7698C40.4287 83.9847 43.0332 85.1333 45.5821 85.7515C54.469 87.9071 64.4424 84.6908 70.3957 77.7494" fill="white"/>
<path d="M64.747 55.5039C61.6207 59.436 57.9811 62.9634 53.9364 65.9442C52.788 66.7905 51.6075 67.5925 50.3995 68.3512L50.983 68.686C51.1822 64.0305 51.5297 59.3816 52.0203 54.7477C52.2648 52.4379 52.544 50.1316 52.8598 47.8304C52.9885 46.8927 53.2877 45.7732 52.3042 45.1941C51.416 44.6712 50.4828 45.0655 49.5486 45.1667C48.6204 45.2672 47.7965 44.8125 47.1494 44.1808C46.4877 43.5348 46.0468 42.7075 45.4103 42.0369C45.0914 41.7009 44.7034 41.4383 44.3881 41.1025C44.1084 40.8045 43.8998 40.4454 43.6479 40.1247C43.2083 39.5648 42.5602 39.1578 41.8248 39.3163C40.6132 39.5774 40.0191 41.1245 39.6741 42.1589C39.0669 43.98 39.1548 45.8809 39.7317 47.7013C40.0474 48.6974 40.4915 49.6483 40.9538 50.5833C41.4022 51.4905 41.9451 52.4016 42.255 53.368C42.9006 55.3811 42.0189 57.5401 41.2657 59.3948C39.692 63.27 38.1807 67.1992 37.5819 71.3623C37.2832 73.439 37.1748 75.5648 37.3815 77.6562C37.5772 79.6364 38.1458 81.5751 39.5366 83.0541C40.7815 84.378 42.4682 85.2098 44.1779 85.76C45.8697 86.3043 47.648 86.6074 49.4184 86.7366C52.9341 86.9931 56.5101 86.4864 59.8336 85.319C63.179 84.1439 66.2921 82.3057 68.886 79.8828C69.5143 79.2959 70.109 78.6745 70.6699 78.0229C70.994 77.6465 70.4478 77.0955 70.1215 77.4745C67.8951 80.0608 65.1201 82.1257 62.0376 83.5827C58.9551 85.0396 55.5673 85.8761 52.1603 86.0072C50.4659 86.0724 48.7623 85.9687 47.0923 85.672C45.3864 85.369 43.6716 84.9042 42.1455 84.0658C40.5679 83.1991 39.3004 81.9175 38.6935 80.1989C38.0318 78.325 37.998 76.2408 38.0809 74.2758C38.252 70.219 39.4045 66.307 40.8442 62.5355C41.2077 61.5831 41.591 60.6387 41.9755 59.6945C42.3671 58.733 42.7504 57.7616 42.9947 56.7503C43.2265 55.7909 43.3271 54.7996 43.1625 53.8211C42.9966 52.8347 42.4851 51.9224 42.0441 51.036C41.1417 49.2221 40.1952 47.3795 40.0386 45.3229C39.9289 43.8835 40.252 42.3847 40.9542 41.117C41.1824 40.7051 41.5174 40.1732 42.0074 40.0696C42.624 39.9392 43.0509 40.6026 43.3674 41.0475C43.6163 41.3972 43.8735 41.6985 44.2041 41.9723C44.5471 42.2564 44.8643 42.5696 45.1521 42.9095C45.733 43.5954 46.1684 44.3759 46.8605 44.9666C47.5323 45.5401 48.3559 45.9598 49.2564 45.9582C50.097 45.9568 51.1204 45.3943 51.9127 45.8637C52.3235 46.1071 52.2609 46.5486 52.2036 46.9632C52.1278 47.5117 52.0519 48.0602 51.9788 48.6091C51.8316 49.7128 51.6926 50.8176 51.5615 51.9233C51.0304 56.4055 50.6316 60.9036 50.3716 65.4097C50.3087 66.5014 50.2542 67.5935 50.2074 68.6859C50.195 68.9765 50.5474 69.1737 50.7909 69.0207C55.1016 66.3136 59.0566 63.0394 62.5117 59.3008C63.4798 58.2531 64.4077 57.1688 65.2954 56.0522C65.4267 55.887 65.4537 55.6655 65.2954 55.5037C65.1617 55.367 64.8771 55.3403 64.747 55.5039Z" fill="black"/>
<path d="M101.23 118.591C101.822 117.085 101.278 114.953 100.862 113.437C100.542 112.275 100.005 111.148 99.1522 110.297C98.7838 109.929 98.3488 109.612 97.848 109.471C96.2448 109.019 94.7841 110.812 94.3683 112.157C94.0337 113.239 94.0536 114.396 94.1288 115.526C94.1844 116.361 94.2781 117.224 94.7037 117.944C95.2005 118.785 96.0794 119.315 96.9358 119.784C97.5858 120.14 98.2882 120.491 99.0274 120.438C100.036 120.366 100.861 119.532 101.23 118.591Z" fill="black"/>
<path d="M134.033 110.355C133.846 111.055 133.445 111.753 133.614 112.457C133.753 113.04 134.269 113.52 134.251 114.118C134.225 114.967 133.172 115.439 132.957 116.261C132.727 117.144 133.545 118.008 133.449 118.916C133.336 119.977 132.11 120.488 131.071 120.731C121.866 122.887 112.252 121.141 102.8 121.298C100.734 121.332 98.6089 121.45 96.6568 120.77C98.1674 119.095 99.2082 116.91 99.1548 114.656C99.1014 112.401 97.8106 110.125 95.7335 109.246C99.4684 107.543 103.737 107.671 107.841 107.592C112.199 107.509 116.546 107.157 120.902 107.034C123.106 106.972 125.313 106.967 127.515 107.087C128.431 107.137 129.312 107.205 130.216 107.153C131.065 107.104 132.134 106.917 132.884 107.427C133.625 107.93 134.262 109.494 134.033 110.355Z" fill="white"/>
<path d="M133.659 110.252C133.451 110.998 133.068 111.717 133.23 112.513C133.295 112.833 133.463 113.122 133.617 113.405C133.752 113.654 133.908 113.927 133.85 114.22C133.75 114.722 133.201 115.109 132.912 115.504C132.527 116.028 132.455 116.624 132.63 117.244C132.789 117.808 133.189 118.419 133.036 119.023C132.907 119.533 132.401 119.843 131.951 120.044C131.343 120.314 130.669 120.433 130.021 120.566C129.216 120.731 128.405 120.869 127.591 120.982C120.984 121.897 114.292 121.195 107.664 120.968C105.801 120.905 103.939 120.888 102.075 120.925C100.287 120.96 98.4731 120.981 96.7598 120.397L96.9309 121.045C98.243 119.578 99.2166 117.78 99.4761 115.812C99.7108 114.031 99.2829 112.18 98.1941 110.737C97.601 109.951 96.8365 109.305 95.9292 108.912V109.581C98.2735 108.523 100.859 108.197 103.405 108.079C106.111 107.954 108.82 107.979 111.526 107.857C114.391 107.729 117.254 107.544 120.121 107.447C121.539 107.398 122.958 107.371 124.378 107.381C125.806 107.392 127.228 107.473 128.655 107.538C129.374 107.57 130.082 107.551 130.799 107.498C131.381 107.455 132.053 107.393 132.581 107.696C132.99 107.931 133.256 108.403 133.434 108.825C133.614 109.254 133.771 109.786 133.659 110.252C133.542 110.737 134.29 110.944 134.407 110.458C134.635 109.509 134.214 108.392 133.64 107.641C132.897 106.667 131.755 106.648 130.628 106.736C129.215 106.846 127.807 106.7 126.395 106.649C124.901 106.595 123.406 106.593 121.911 106.622C118.93 106.681 115.954 106.864 112.977 107.012C110.106 107.156 107.237 107.182 104.364 107.268C101.354 107.357 98.3118 107.659 95.5377 108.911C95.2867 109.025 95.2809 109.47 95.5377 109.581C96.9855 110.208 98.0187 111.497 98.4859 112.988C98.9993 114.627 98.7691 116.4 98.0638 117.947C97.639 118.879 97.0644 119.734 96.3825 120.496C96.1819 120.721 96.2702 121.048 96.5536 121.145C98.1273 121.681 99.8039 121.734 101.451 121.711C103.126 121.688 104.798 121.666 106.473 121.708C109.904 121.794 113.329 122.03 116.758 122.144C120.157 122.256 123.571 122.249 126.951 121.84C127.765 121.742 128.577 121.623 129.384 121.476C130.15 121.338 130.935 121.203 131.679 120.968C132.799 120.615 133.995 119.846 133.824 118.506C133.773 118.104 133.618 117.736 133.483 117.357C133.37 117.043 133.248 116.7 133.331 116.365C133.478 115.778 134.103 115.396 134.403 114.892C134.824 114.182 134.564 113.532 134.206 112.868C134.015 112.514 133.916 112.198 133.992 111.795C134.078 111.336 134.282 110.906 134.407 110.458C134.541 109.977 133.793 109.771 133.659 110.252Z" fill="black"/>
<path d="M96.9233 96.3314C92.9423 95.6202 88.8576 95.4926 84.84 95.9541C83.3608 96.124 81.7588 96.4448 80.8012 97.585C80.1363 98.3767 79.8986 99.4391 79.7841 100.467C79.0532 107.023 82.4968 113.037 87.8097 116.63C90.1273 118.198 92.4893 119.7 94.8921 121.133C96.9655 122.37 99.0519 122.452 101.409 122.512C104.005 122.577 106.602 122.594 109.199 122.588C114.378 122.575 119.592 122.653 124.768 122.468C125.929 122.427 127.087 122.321 128.244 122.215C129.571 122.094 130.903 121.923 132.234 121.849C133.072 121.803 134.048 121.562 133.889 120.426C133.719 119.2 132.377 119.282 131.459 119.3C130.126 119.325 128.793 119.357 127.459 119.384C124.793 119.437 122.126 119.486 119.46 119.52C114.066 119.591 108.671 119.606 103.278 119.501C101.289 119.462 99.2177 119.386 97.462 118.451C95.7064 117.515 94.3858 115.447 94.9672 113.544C95.2945 112.473 96.1643 111.631 97.1578 111.114C98.1513 110.598 99.2669 110.369 100.373 110.193C104.738 109.5 109.182 109.553 113.602 109.526C120.177 109.485 126.749 109.265 133.321 109.045C133.573 109.037 133.834 109.027 134.065 108.923C135.237 108.393 135.183 105.839 134.583 104.953C134.064 104.187 133.258 103.672 132.475 103.179C130.741 102.088 129.007 100.997 127.274 99.9047C126.11 99.1711 124.71 98.2079 123.357 97.9319C122.458 97.7484 121.529 97.8015 120.612 97.8555C114.644 98.207 108.663 98.138 102.689 98.0877C99.3768 98.0599 96.0917 97.8758 92.7843 98.147C89.8373 98.3886 87.1052 96.2881 84.1064 97.7984C81.5782 99.0718 80.6366 102.248 80.6704 105.078C80.6865 106.421 80.8805 107.639 81.2281 108.755" fill="#8683FF"/>
<path d="M133.859 119.467C133.382 119.037 132.797 119.036 132.192 118.98C131.513 118.917 130.842 118.879 130.16 118.892C128.771 118.919 127.384 118.998 125.995 119.025C123.142 119.08 120.29 119.127 117.437 119.157C114.59 119.186 111.743 119.198 108.896 119.183C107.492 119.175 106.087 119.161 104.683 119.139C103.379 119.118 102.067 119.125 100.769 118.986C98.6031 118.753 96.2292 117.856 95.4286 115.631C95.0732 114.643 95.1803 113.611 95.7945 112.749C96.4751 111.794 97.5777 111.251 98.6788 110.941C99.973 110.576 101.337 110.421 102.671 110.282C104.062 110.137 105.459 110.052 106.856 110.002C109.663 109.901 112.474 109.93 115.282 109.9C120.923 109.84 126.562 109.659 132.2 109.471C132.828 109.45 133.574 109.532 134.167 109.297C134.626 109.116 134.426 108.365 133.961 108.549C133.665 108.667 133.354 108.657 133.04 108.668C132.648 108.681 132.256 108.694 131.864 108.707C131.155 108.731 130.445 108.754 129.736 108.777C128.28 108.825 126.823 108.87 125.367 108.913C122.491 108.996 119.616 109.066 116.739 109.106C113.887 109.147 111.034 109.124 108.182 109.188C105.338 109.252 102.469 109.407 99.6662 109.922C98.4424 110.147 97.2001 110.505 96.1946 111.266C95.3022 111.942 94.6216 112.888 94.4736 114.016C94.1819 116.242 95.901 118.233 97.8393 119.058C99.0002 119.551 100.254 119.741 101.506 119.824C102.879 119.916 104.262 119.91 105.638 119.928C108.522 119.966 111.406 119.972 114.29 119.957C117.197 119.942 120.103 119.904 123.009 119.855C124.455 119.831 125.901 119.804 127.347 119.774C128.75 119.745 130.158 119.596 131.562 119.695C131.871 119.716 132.178 119.755 132.486 119.776C132.772 119.796 133.087 119.814 133.311 120.015C133.681 120.349 134.231 119.802 133.859 119.467Z" fill="black"/>
<path d="M102.251 116.05C103.92 115.976 105.591 115.984 107.259 116.074C107.758 116.101 107.756 115.325 107.259 115.299C105.591 115.209 103.92 115.201 102.251 115.275C101.754 115.297 101.751 116.072 102.251 116.05Z" fill="black"/>
<path d="M102.565 113.282C105.73 113.623 108.914 113.453 112.086 113.331C115.311 113.208 118.538 113.147 121.765 113.15C123.603 113.152 125.442 113.174 127.281 113.216C127.78 113.228 127.78 112.452 127.281 112.441C124.054 112.367 120.826 112.354 117.599 112.406C114.393 112.457 111.19 112.635 107.984 112.697C106.176 112.732 104.365 112.7 102.565 112.506C102.069 112.453 102.073 113.229 102.565 113.282Z" fill="black"/>
<path d="M130.19 112.967C130.314 112.939 130.439 112.914 130.565 112.894C130.594 112.889 130.623 112.885 130.652 112.88C130.67 112.878 130.769 112.859 130.666 112.878C130.728 112.866 130.793 112.863 130.855 112.856C131.104 112.832 131.354 112.824 131.604 112.829C131.807 112.834 132.001 112.648 131.992 112.442C131.982 112.228 131.821 112.059 131.604 112.054C131.06 112.041 130.514 112.1 129.984 112.219C129.786 112.264 129.651 112.504 129.713 112.696C129.78 112.904 129.978 113.015 130.19 112.967Z" fill="black"/>
<path d="M111.581 116.103C116.936 116.461 122.31 116.546 127.674 116.352C129.188 116.297 130.701 116.22 132.213 116.122C132.708 116.089 132.712 115.314 132.213 115.346C126.856 115.694 121.483 115.77 116.119 115.566C114.605 115.509 113.092 115.429 111.581 115.328C111.082 115.294 111.084 116.07 111.581 116.103Z" fill="black"/>
<path d="M94.3038 118.617C92.4003 116.377 92.162 113.103 93.6769 110.595C94.3981 109.401 95.4323 108.588 96.7073 108.05C98.045 107.485 99.4869 107.152 100.91 106.883C104.318 106.24 107.816 106.083 111.278 106.054C113.035 106.04 114.792 106.076 116.547 106.162C118.31 106.249 120.068 106.362 121.834 106.335C125.827 106.275 129.822 106.067 133.812 105.925C134.31 105.908 134.312 105.132 133.812 105.15C130.12 105.281 126.427 105.438 122.734 105.54C119.062 105.641 115.399 105.263 111.726 105.276C108.153 105.288 104.545 105.445 101.022 106.077C99.5181 106.346 98.0012 106.689 96.5831 107.268C95.2282 107.821 94.0939 108.61 93.2518 109.825C91.2824 112.668 91.5283 116.545 93.7554 119.166C94.079 119.547 94.6253 118.996 94.3038 118.617Z" fill="black"/>
<path d="M24.0425 64.3263C25.3111 62.9847 26.5805 61.6424 27.7816 60.2394C28.8212 58.99 29.886 58.0095 30.7169 56.6033C30.7745 56.5058 30.8338 56.4023 30.8349 56.2891C30.8371 56.0435 30.5714 55.8657 30.5483 55.6211C30.521 55.3312 30.8433 55.0567 30.7294 54.7887C30.6031 54.4913 30.1718 54.5984 30.0092 54.359C29.8442 54.1161 29.9841 53.9066 29.8902 53.6733C29.6692 53.1247 29.4201 52.8564 28.9447 52.4175C27.8022 51.3626 26.6149 50.3564 25.387 49.4023C23.0296 47.5704 20.523 45.9303 17.8993 44.5056C17.4257 44.2485 16.9201 43.9914 16.3815 44.0103C15.072 44.0561 14.4573 45.5311 13.667 46.3483C12.5017 47.5532 11.2467 48.7481 9.90668 49.7568C9.50855 49.4989 9.13615 49.0457 8.73944 48.7422C8.25512 48.3717 7.77079 48.0012 7.28647 47.6307C6.28933 46.8679 5.29221 46.105 4.29507 45.3422C4.21927 45.2842 4.14185 45.2253 4.05201 45.1931C3.85636 45.1231 3.64112 45.1905 3.44448 45.2578C2.75299 45.4942 2.06152 45.7307 1.37002 45.9672C0.960711 46.1072 -0.00173366 46.2745 2.34535e-06 46.8403C0.00200889 47.492 0.118096 48.1482 0.185011 48.7942C0.323711 50.1332 0.511627 51.4669 0.748039 52.7921C1.06023 54.542 1.45698 56.2768 1.93675 57.9883C2.28747 59.2395 2.51962 61.6172 3.6645 62.3096C8.24616 65.0807 12.8679 67.871 17.9156 69.6578C19.2928 70.1453 19.8724 68.7363 20.7264 67.8332C21.8318 66.6642 22.9371 65.4953 24.0425 64.3263Z" fill="#8683FF"/>
<path d="M25.8839 57.7101C27.3151 56.3812 28.9791 55.3085 30.1658 53.7312C30.2518 53.6169 30.2207 53.4567 30.1658 53.3398C29.8168 52.5962 29.1518 52.0737 28.5519 51.5377C27.8666 50.9256 27.166 50.3307 26.4509 49.7536C25.0157 48.5956 23.5249 47.5061 21.9824 46.4952C21.2275 46.0004 20.4604 45.5243 19.682 45.0673C18.9071 44.6125 18.1137 44.0931 17.2679 43.7808C16.5803 43.5268 15.8278 43.5887 15.2213 44.0107C14.6843 44.3843 14.3027 44.917 13.9164 45.4348C13.3934 46.1358 12.7516 46.7396 12.1212 47.343C11.3546 48.0768 10.5576 48.7817 9.71105 49.4222H10.1025C9.90494 49.2875 9.73342 49.1227 9.56067 48.9582C9.38658 48.7923 9.07191 48.8105 8.95161 49.0367C8.72759 49.4579 8.50602 49.8803 8.28913 50.3052C8.2031 50.4738 8.22693 50.7497 8.42826 50.8358C10.6317 51.7782 11.9964 53.9086 14.069 55.0542C14.558 55.3244 15.0873 55.5386 15.6361 55.6493C16.3197 55.7873 17.1267 55.7024 17.7542 56.0423C18.5819 56.4907 18.6109 57.6 18.6505 58.4257C18.7283 60.0475 18.9955 61.6504 19.2466 63.2529C19.3139 63.682 20.0418 63.5848 20.0084 63.1498C20.0069 63.1309 20.004 63.2276 19.9789 63.2409C19.9963 63.2317 20.0194 63.1661 20.0321 63.1485C20.0682 63.0983 20.1005 63.0564 20.1841 62.9643C20.3613 62.7689 20.5541 62.5873 20.7482 62.409C21.1914 62.002 21.653 61.6153 22.1145 61.2293C23.4314 60.1277 24.63 58.8825 25.8839 57.7101C26.2492 57.3685 25.6999 56.8209 25.3355 57.1617C24.0409 58.3721 22.7996 59.6472 21.4408 60.7857C20.9481 61.1985 20.4544 61.6126 19.9898 62.0571C19.7238 62.3116 19.2006 62.731 19.2328 63.1498L19.9945 63.0467C19.7612 61.5581 19.5006 60.0653 19.4322 58.5582C19.3882 57.59 19.3441 56.4613 18.6182 55.7275C18.1772 55.2816 17.5804 55.1231 16.9762 55.0443C16.2887 54.9547 15.6222 54.9084 14.9749 54.6374C13.8751 54.177 12.9761 53.3447 12.1045 52.5549C11.1019 51.6463 10.0789 50.7046 8.81969 50.1661L8.95882 50.6966C9.17571 50.2717 9.39731 49.8493 9.6213 49.4281L9.01223 49.5065C9.2332 49.717 9.45845 49.9196 9.71103 50.0919C9.81354 50.1618 10.0009 50.1687 10.1025 50.0919C11.4973 49.0365 12.826 47.8425 14.0079 46.5517C14.6923 45.8042 15.3263 44.319 16.5321 44.4008C16.9527 44.4293 17.3404 44.6442 17.7036 44.8407C18.0853 45.0472 18.4639 45.2594 18.8402 45.4755C19.6079 45.9164 20.3648 46.3758 21.1102 46.8533C22.5745 47.7914 23.9965 48.7976 25.3635 49.8726C26.1552 50.4952 26.9298 51.1396 27.6861 51.8048C28.3317 52.3726 29.1226 52.9354 29.4961 53.7312V53.3397C28.3567 54.8542 26.7102 55.8852 25.3355 57.1617C24.9689 57.502 25.5183 58.0495 25.8839 57.7101Z" fill="black"/>
<path d="M18.6686 55.598C17.7946 54.8452 16.9068 54.0942 15.8874 53.556C14.4772 52.8114 13.2205 51.8837 11.9307 50.9446C10.6186 49.9893 9.36608 48.9565 8.1141 47.9248C6.97296 46.9844 5.62485 46.1334 4.57218 45.117C4.39187 44.9429 4.10498 44.7929 3.90619 44.9455C3.82654 45.0067 3.78237 45.1049 3.70425 45.168C3.40911 45.4065 2.96605 44.9868 2.60751 45.1111C2.22764 45.2428 2.2413 45.8569 1.88003 46.0334C1.68702 46.1276 1.45634 46.0594 1.25875 45.9751C1.06116 45.8908 0.854823 45.789 0.642377 45.8208C0.372756 45.8612 0.24215 46.2527 0.219604 46.4668C0.599496 46.7643 0.98216 47.0585 1.36602 47.3509C2.42475 48.1576 3.49388 48.9507 4.56662 49.7386C7.78548 52.1031 11.0128 54.4843 14.3494 56.6816C14.9251 56.8166 15.4328 57.6111 15.8399 57.9895C15.9585 58.0996 16.1028 58.218 16.2621 58.1899C16.4264 58.1608 16.5269 57.9879 16.6822 57.9269C16.9283 57.8302 17.2285 58.0398 17.461 57.9139C17.7421 57.7618 17.5963 57.4253 17.7309 57.2063C17.927 56.8871 18.065 56.9503 18.3685 56.7594C18.7924 56.4928 19.2825 56.1272 18.7711 55.6863C18.7369 55.6569 18.7028 55.6274 18.6686 55.598Z" fill="#8683FF"/>
<path d="M97.4459 100.93C98.0377 99.4237 97.4939 97.2914 97.0772 95.7755C96.7577 94.6134 96.2211 93.4868 95.3678 92.6358C94.9994 92.2683 94.5644 91.9506 94.0636 91.8095C92.4604 91.3577 90.9997 93.1509 90.5839 94.4957C90.2493 95.5778 90.2692 96.7352 90.3444 97.8653C90.4 98.6998 90.4936 99.5632 90.9192 100.283C91.4161 101.124 92.2949 101.654 93.1514 102.123C93.8014 102.479 94.5038 102.83 95.243 102.777C96.2515 102.705 97.0761 101.871 97.4459 100.93Z" fill="black"/>
<path d="M130.248 92.6936C130.062 93.3936 129.661 94.0917 129.83 94.7963C129.969 95.3786 130.484 95.8585 130.466 96.4569C130.441 97.3061 129.388 97.7782 129.173 98.6002C128.942 99.4831 129.761 100.347 129.664 101.254C129.551 102.316 128.326 102.827 127.286 103.07C118.082 105.226 108.468 103.48 99.0161 103.637C96.9492 103.671 94.8246 103.789 92.8725 103.109C94.3831 101.434 95.4239 99.2493 95.3705 96.9945C95.3171 94.7397 94.0263 92.4636 91.9492 91.5846C95.6841 89.8815 99.9526 90.0099 104.057 89.9314C108.415 89.8479 112.762 89.4956 117.118 89.3727C119.322 89.3106 121.529 89.3054 123.731 89.4256C124.646 89.4756 125.527 89.5441 126.432 89.4917C127.28 89.4425 128.349 89.2562 129.1 89.766C129.841 90.269 130.477 91.8328 130.248 92.6936Z" fill="white"/>
<path d="M129.874 92.5901C129.666 93.3359 129.283 94.0548 129.446 94.851C129.511 95.1705 129.678 95.4596 129.832 95.743C129.968 95.9923 130.124 96.2645 130.065 96.5584C129.966 97.0601 129.417 97.4472 129.127 97.8419C128.742 98.3663 128.67 98.9618 128.845 99.5818C129.005 100.145 129.405 100.757 129.252 101.36C129.123 101.871 128.617 102.181 128.167 102.382C127.559 102.652 126.885 102.771 126.237 102.904C125.432 103.069 124.621 103.207 123.806 103.32C117.199 104.235 110.508 103.533 103.879 103.306C102.016 103.243 100.154 103.225 98.2906 103.263C96.5028 103.298 94.6887 103.319 92.9754 102.735L93.1465 103.383C94.4586 101.916 95.4322 100.118 95.6916 98.15C95.9264 96.3688 95.4985 94.5177 94.4096 93.0746C93.8166 92.2885 93.052 91.6425 92.1448 91.2494V91.9191C94.489 90.8607 97.075 90.535 99.621 90.417C102.326 90.2916 105.036 90.3168 107.742 90.1952C110.607 90.0665 113.47 89.8823 116.336 89.7846C117.755 89.7362 119.174 89.7086 120.593 89.7193C122.022 89.7301 123.444 89.8106 124.87 89.8754C125.589 89.9081 126.298 89.8894 127.015 89.8359C127.596 89.7925 128.269 89.7313 128.796 90.0338C129.205 90.2684 129.472 90.7404 129.649 91.1626C129.83 91.5919 129.987 92.1238 129.874 92.5901C129.758 93.0752 130.505 93.2821 130.622 92.7963C130.851 91.8471 130.429 90.73 129.856 89.9788C129.112 89.0054 127.97 88.9856 126.844 89.0736C125.431 89.184 124.023 89.0379 122.611 88.9868C121.117 88.9328 119.621 88.931 118.127 88.9603C115.146 89.0188 112.17 89.2014 109.193 89.3504C106.322 89.4941 103.452 89.5202 100.58 89.6055C97.5696 89.6948 94.5274 89.9969 91.7533 91.2494C91.5023 91.3627 91.4965 91.8078 91.7533 91.9191C93.2011 92.5463 94.2342 93.8349 94.7015 95.3262C95.2148 96.9645 94.9846 98.738 94.2794 100.285C93.8546 101.217 93.2799 102.072 92.5981 102.834C92.3974 103.059 92.4858 103.386 92.7692 103.482C94.3429 104.019 96.0194 104.072 97.6667 104.049C99.3418 104.026 101.013 104.004 102.689 104.046C106.119 104.132 109.544 104.368 112.974 104.482C116.372 104.594 119.786 104.587 123.166 104.178C123.981 104.08 124.792 103.96 125.6 103.814C126.366 103.676 127.15 103.541 127.894 103.306C129.014 102.953 130.21 102.184 130.04 100.844C129.988 100.442 129.834 100.074 129.698 99.6948C129.586 99.3811 129.463 99.038 129.547 98.7029C129.693 98.1162 130.318 97.7343 130.618 97.2298C131.04 96.5202 130.78 95.8696 130.422 95.2054C130.231 94.8523 130.132 94.5356 130.208 94.1325C130.294 93.6744 130.497 93.2441 130.622 92.7963C130.757 92.3148 130.009 92.1093 129.874 92.5901Z" fill="black"/>
<path d="M124.459 104.554C125.786 104.433 127.118 104.262 128.448 104.189C129.287 104.142 130.263 103.901 130.104 102.765C129.934 101.539 128.592 101.621 127.674 101.639C126.341 101.664 125.008 101.696 123.674 101.723C121.008 101.776 118.341 101.825 115.675 101.859C110.281 101.93 104.886 101.945 99.4932 101.84C97.5041 101.802 95.4327 101.726 93.677 100.79C91.9213 99.8541 90.6007 97.7857 91.1822 95.8831C91.5095 94.8122 92.3793 93.9702 93.3728 93.4535C94.3662 92.9369 95.4818 92.7079 96.5878 92.5324C100.953 91.8396 105.397 91.8919 109.817 91.8648C116.392 91.8244 122.964 91.6045 129.536 91.3846C129.788 91.3761 130.049 91.366 130.279 91.2619C131.452 90.7323 131.398 88.178 130.798 87.2924C130.279 86.526 129.473 86.0112 128.69 85.518C126.956 84.4266 125.222 83.3361 123.489 82.2439C122.325 81.5102 120.925 80.547 119.572 80.2711C118.673 80.0875 117.744 80.1407 116.827 80.1946C110.859 80.5461 104.878 80.4771 98.9036 80.4269C92.3049 80.3714 84.0902 79.2697 79.429 85.0594C78.0201 86.8093 77.6242 88.7044 77.8952 90.9028C78.1018 92.5785 78.6752 94.232 79.6668 95.6077C80.6862 97.0218 82.5909 97.9998 84.0246 98.9695C86.3422 100.537 88.7043 102.039 91.1071 103.472C93.1806 104.709 95.2669 104.791 97.6236 104.851C100.22 104.917 102.817 104.933 105.414 104.927C110.593 104.914 115.807 104.992 120.983 104.807C122.144 104.766 123.302 104.66 124.459 104.554Z" fill="#8683FF"/>
<path d="M130.074 101.805C129.597 101.375 129.012 101.375 128.407 101.318C127.728 101.255 127.057 101.217 126.375 101.23C124.986 101.258 123.599 101.337 122.21 101.364C119.357 101.419 116.505 101.466 113.652 101.495C110.805 101.525 107.958 101.536 105.111 101.521C103.707 101.513 102.302 101.499 100.898 101.477C99.5944 101.457 98.282 101.464 96.9846 101.324C94.8182 101.091 92.4443 100.195 91.6437 97.969C91.2883 96.9811 91.3954 95.9494 92.0096 95.0876C92.6902 94.1326 93.7928 93.5895 94.8938 93.2791C96.1881 92.9141 97.5521 92.7593 98.8861 92.6203C100.277 92.4754 101.674 92.3909 103.071 92.3405C105.879 92.2393 108.689 92.2681 111.498 92.2383C117.139 92.1785 122.777 91.9978 128.415 91.8096C129.043 91.7887 129.789 91.8708 130.383 91.6356C130.841 91.4539 130.641 90.7036 130.176 90.8878C129.88 91.0052 129.57 90.9955 129.255 91.006C128.863 91.0191 128.471 91.0322 128.079 91.0453C127.37 91.0689 126.66 91.0924 125.951 91.1155C124.495 91.1629 123.038 91.2087 121.582 91.251C118.707 91.3344 115.831 91.404 112.954 91.4446C110.102 91.485 107.249 91.4621 104.397 91.5265C101.553 91.5907 98.6845 91.7458 95.8812 92.2607C94.6574 92.4855 93.4152 92.8435 92.4097 93.6048C91.5173 94.2806 90.8367 95.2259 90.6887 96.3547C90.3969 98.5807 92.1161 100.572 94.0544 101.396C95.2153 101.89 96.4695 102.08 97.721 102.163C99.0946 102.254 100.477 102.248 101.853 102.266C104.737 102.304 107.621 102.311 110.505 102.296C113.412 102.28 116.318 102.243 119.224 102.194C120.67 102.169 122.116 102.142 123.562 102.113C124.966 102.084 126.373 101.935 127.777 102.033C128.086 102.055 128.393 102.093 128.701 102.115C128.988 102.135 129.302 102.152 129.526 102.354C129.896 102.687 130.446 102.14 130.074 101.805Z" fill="black"/>
<path d="M98.4663 98.3886C100.135 98.3147 101.806 98.3227 103.475 98.4125C103.973 98.4393 103.972 97.6637 103.475 97.6369C101.806 97.5471 100.135 97.5391 98.4663 97.613C97.9691 97.635 97.9664 98.4108 98.4663 98.3886Z" fill="black"/>
<path d="M98.7804 95.6212C101.946 95.9626 105.13 95.792 108.302 95.6706C111.526 95.5472 114.753 95.4865 117.98 95.4893C119.819 95.4909 121.658 95.5135 123.496 95.5557C123.996 95.5672 123.995 94.7916 123.496 94.7801C120.27 94.706 117.042 94.6936 113.815 94.7452C110.608 94.7965 107.406 94.9742 104.2 95.0361C102.391 95.071 100.58 95.0397 98.7804 94.8457C98.2848 94.7922 98.2886 95.5682 98.7804 95.6212Z" fill="black"/>
<path d="M126.406 95.3062C126.53 95.2781 126.655 95.2533 126.781 95.2327C126.81 95.228 126.839 95.2234 126.868 95.2191C126.886 95.2165 126.985 95.1974 126.881 95.2168C126.943 95.2052 127.008 95.2014 127.071 95.1953C127.32 95.171 127.57 95.1626 127.82 95.1683C128.023 95.173 128.217 94.9866 128.207 94.7806C128.198 94.5664 128.037 94.3978 127.82 94.3928C127.276 94.3803 126.73 94.4384 126.2 94.5583C126.002 94.6031 125.866 94.8425 125.929 95.0353C125.996 95.2429 126.194 95.3542 126.406 95.3062Z" fill="black"/>
<path d="M107.796 98.4421C113.152 98.8 118.525 98.8849 123.89 98.6909C125.404 98.6361 126.917 98.5588 128.428 98.4605C128.924 98.4283 128.928 97.6524 128.428 97.6849C123.072 98.0332 117.698 98.1085 112.334 97.905C110.821 97.8476 109.308 97.7676 107.796 97.6666C107.298 97.6333 107.3 98.409 107.796 98.4421Z" fill="black"/>
<path d="M90.5194 100.956C88.6159 98.7154 88.3776 95.441 89.8925 92.9331C90.6136 91.7394 91.6479 90.9268 92.9228 90.3882C94.2606 89.8231 95.7025 89.4902 97.1252 89.2217C100.533 88.5784 104.031 88.4215 107.493 88.3926C109.25 88.378 111.007 88.4142 112.762 88.5004C114.525 88.587 116.283 88.6999 118.05 88.6734C122.042 88.6135 126.037 88.4056 130.028 88.2637C130.526 88.246 130.528 87.4703 130.028 87.4881C126.335 87.6194 122.643 87.7761 118.95 87.8782C115.278 87.9796 111.615 87.6018 107.942 87.6144C104.368 87.6267 100.761 87.7838 97.2372 88.4152C95.7336 88.6847 94.2168 89.0276 92.7987 89.6065C91.4438 90.1596 90.3094 90.9482 89.4674 92.1635C87.4979 95.0061 87.7438 98.8829 89.9709 101.504C90.2946 101.885 90.8409 101.334 90.5194 100.956Z" fill="black"/>
<path d="M72.1198 113.301C72.4305 114.284 72.9743 115.03 73.0883 116.117C73.2089 117.268 73.0478 118.445 72.6959 119.544C72.1051 121.388 71.014 123.029 69.8594 124.584C68.7048 126.139 67.4677 127.644 66.5239 129.335C65.7103 130.793 65.1162 132.515 65.5791 134.12C66.0922 135.897 67.8621 137.126 69.6964 137.369C71.5308 137.612 73.3917 137.006 74.9908 136.075C76.1204 135.417 77.0091 134.578 77.9689 133.713C78.9375 132.839 79.9467 132.126 80.7086 131.025C80.3136 130.605 79.9106 130.173 79.6847 129.643C79.2471 128.615 79.7622 127.293 80.9761 127.209C81.9406 127.143 82.6589 128.051 83.1187 128.781C83.0096 128.608 89.1478 123.157 89.7146 122.616C90.7004 121.675 92.3859 120.811 92.3482 119.221C92.3326 118.56 92.0433 117.936 91.7142 117.362C91.3318 116.695 90.8888 116.065 90.4466 115.436C88.281 112.357 86.1154 109.278 83.9497 106.199" fill="black"/>
<path d="M71.746 113.404C71.9493 114.028 72.2637 114.607 72.4819 115.225C72.7214 115.905 72.7678 116.61 72.7278 117.326C72.6455 118.8 72.1261 120.21 71.4257 121.497C70.0095 124.1 67.8991 126.234 66.3958 128.78C65.6791 129.994 65.0775 131.349 65.0319 132.78C64.9913 134.055 65.4738 135.269 66.3782 136.168C68.3217 138.1 71.2516 138.137 73.666 137.155C75.1737 136.542 76.4399 135.609 77.6437 134.528C78.8142 133.478 80.1304 132.518 81.0436 131.221C81.1439 131.079 81.094 130.869 80.983 130.751C80.5533 130.294 80.05 129.788 79.9389 129.144C79.8635 128.706 79.9797 128.217 80.3019 127.901C81.2364 126.984 82.3036 128.221 82.784 128.977C83.0069 129.328 83.6668 129.103 83.4928 128.678C83.5256 128.758 83.4748 128.918 83.4662 128.937C83.4937 128.877 83.477 128.923 83.4457 128.96C83.49 128.907 83.5353 128.855 83.5824 128.805C83.7303 128.646 83.886 128.494 84.0417 128.342C84.5132 127.883 84.9961 127.435 85.4798 126.989C86.6133 125.943 87.7592 124.91 88.9041 123.877C89.2406 123.573 89.5792 123.271 89.9115 122.963C90.5367 122.382 91.2596 121.905 91.8425 121.279C92.6363 120.428 92.9412 119.375 92.5563 118.249C92.0872 116.877 91.0913 115.681 90.267 114.509C88.2729 111.674 86.2789 108.839 84.2848 106.004C83.9998 105.598 83.327 105.985 83.6151 106.395C85.3947 108.925 87.1744 111.456 88.9541 113.986C89.7975 115.185 90.7119 116.363 91.4285 117.644C91.7426 118.206 92.0413 118.859 91.9471 119.52C91.8842 119.961 91.6363 120.353 91.3431 120.678C90.7575 121.326 90.0135 121.81 89.3755 122.403C89.0505 122.705 88.7188 123 88.3893 123.298C87.2609 124.316 86.1315 125.334 85.0137 126.365C84.475 126.861 83.9363 127.358 83.4135 127.872C83.2084 128.073 82.6009 128.532 82.745 128.884L83.4538 128.585C83.0512 127.952 82.5552 127.3 81.849 126.99C81.1655 126.689 80.3569 126.802 79.8005 127.308C79.3087 127.755 79.0875 128.459 79.1565 129.112C79.2503 129.999 79.8478 130.675 80.4346 131.3L80.3739 130.83C79.5936 131.938 78.4642 132.742 77.4687 133.643C76.4474 134.567 75.4203 135.446 74.1839 136.073C71.9726 137.194 69.088 137.571 67.1032 135.787C66.2076 134.981 65.7485 133.889 65.8116 132.683C65.8829 131.322 66.526 130.046 67.2259 128.905C68.7078 126.489 70.706 124.425 72.0715 121.933C72.8267 120.554 73.3733 119.06 73.4932 117.483C73.5513 116.719 73.5188 115.924 73.2867 115.189C73.071 114.506 72.7154 113.878 72.4939 113.198C72.3401 112.725 71.591 112.927 71.746 113.404Z" fill="black"/>
<path d="M59.7723 38.988C63.2397 38.9763 66.7491 39.5738 69.8684 41.0881C72.9877 42.6023 75.6966 45.0798 77.1545 48.2258C79.513 53.3156 78.3643 59.303 76.6807 64.6541C75.0813 69.7376 72.9342 74.4579 70.3008 79.0779C70.2243 79.2121 70.1456 79.3544 70.146 79.5089C70.1465 79.6633 70.2261 79.805 70.3037 79.9385C72.6645 84.0009 75.2939 87.8639 77.556 91.9256C80.2056 96.6829 83.5905 101.163 86.5696 105.724C86.6937 105.914 86.8215 106.114 86.8394 106.34C86.8658 106.676 86.6466 106.977 86.4356 107.24C84.2467 109.967 81.7159 112.418 78.9258 114.525C77.4845 115.614 75.9737 116.601 74.4098 117.504C73.4088 118.082 72.1558 119.561 70.9175 119.07C70.1784 118.777 69.6664 118.109 69.1926 117.47C68.1181 116.022 67.0435 114.575 65.969 113.127C62.6588 108.667 59.3479 104.205 56.2097 99.6217C53.4947 95.6564 49.6794 91.1753 48.8765 86.3334C48.4267 83.6208 48.5501 80.7651 49.5958 78.222C50.3339 76.4271 51.5031 74.8433 52.7487 73.355C56.4885 68.8863 61.2701 64.9759 66.9657 63.7446" fill="white"/>
<path d="M59.7721 39.3762C65.2954 39.3712 71.0274 40.9878 74.7668 45.2705C76.5386 47.2997 77.6179 49.8094 77.9632 52.476C78.3271 55.2868 77.9606 58.148 77.3207 60.8913C75.9919 66.5879 73.6732 72.0767 70.8955 77.2095C70.5588 77.8315 70.1412 78.4425 69.8595 79.0905C69.5843 79.7235 70.0491 80.2762 70.3601 80.8026C71.1589 82.1544 71.9858 83.4893 72.8164 84.8216C74.4529 87.4465 76.0481 90.0857 77.5867 92.7689C79.0922 95.3943 80.7856 97.9057 82.4953 100.401C83.3442 101.64 84.1982 102.875 85.0379 104.12C85.4532 104.735 85.8775 105.348 86.2716 105.978C86.5194 106.373 86.4319 106.611 86.1611 106.966C85.9326 107.266 85.6833 107.553 85.4394 107.841C83.6055 110.003 81.5526 111.979 79.3249 113.732C78.1238 114.677 76.8656 115.55 75.5683 116.358C74.996 116.714 74.3877 117.026 73.8378 117.416C73.36 117.755 72.9167 118.143 72.4118 118.443C71.9288 118.73 71.4158 118.905 70.8869 118.631C70.312 118.333 69.9056 117.783 69.5273 117.275C68.5767 115.999 67.631 114.72 66.6829 113.443C64.7919 110.895 62.8992 108.348 61.0361 105.78C59.2397 103.304 57.5175 100.778 55.7458 98.2846C54.1797 96.0808 52.5428 93.914 51.233 91.5424C49.8861 89.1036 49.074 86.5355 49.0204 83.7356C48.992 82.2512 49.1648 80.7655 49.6041 79.3447C50.0309 77.9642 50.7309 76.6975 51.5578 75.5182C53.095 73.326 54.9701 71.3099 56.9753 69.5395C58.9206 67.822 61.0889 66.3373 63.4686 65.2887C64.6256 64.7789 65.8342 64.3904 67.0686 64.119C67.5558 64.0119 67.3496 63.264 66.8624 63.3711C61.5793 64.5329 57.1003 67.917 53.5318 71.8649C51.6159 73.9844 49.7495 76.3066 48.8775 79.0696C48.0022 81.8432 48.0259 85.0107 48.8085 87.8045C49.5611 90.4913 51.0464 92.9202 52.6113 95.2034C54.2532 97.599 55.9519 99.9604 57.6231 102.336C59.5075 105.014 61.4408 107.658 63.3874 110.292C64.3713 111.623 65.3585 112.952 66.345 114.281C67.3018 115.57 68.2291 116.889 69.2243 118.148C69.9623 119.082 70.9891 119.872 72.2208 119.398C72.785 119.181 73.2674 118.812 73.7438 118.449C74.2484 118.064 74.7746 117.746 75.3183 117.42C77.9138 115.861 80.3482 114.039 82.5638 111.975C83.6528 110.961 84.6885 109.889 85.6646 108.766C86.117 108.245 86.6379 107.715 86.9978 107.125C87.4138 106.442 87.1405 105.887 86.7415 105.28C85.0111 102.645 83.1819 100.077 81.4336 97.4542C80.5741 96.165 79.7336 94.8625 78.9358 93.534C78.1174 92.1714 77.3622 90.7724 76.5494 89.4063C74.9088 86.6486 73.158 83.9585 71.5052 81.2083C71.3059 80.8768 71.108 80.5445 70.912 80.2111C70.8117 80.0406 70.6969 79.8699 70.6097 79.6923C70.5006 79.4698 70.5943 79.3479 70.7085 79.1457C71.0824 78.4841 71.4505 77.8192 71.8082 77.1486C72.5293 75.7963 73.2128 74.4239 73.8531 73.0316C75.1185 70.2798 76.2169 67.4506 77.1168 64.5583C78.7929 59.1715 79.9662 52.9775 77.3262 47.6921C74.819 42.6724 69.5089 39.7742 64.1286 38.9282C62.687 38.7015 61.231 38.5993 59.7721 38.6006C59.2731 38.601 59.2722 39.3766 59.7721 39.3762Z" fill="black"/>
<path d="M53.5407 116.069C52.9769 116.933 52.7443 117.826 51.9751 118.603C51.1611 119.426 50.1487 120.047 49.0757 120.471C47.2744 121.182 45.3139 121.378 43.3793 121.47C41.4447 121.562 39.4963 121.558 37.5898 121.9C35.9463 122.194 34.2375 122.826 33.2898 124.2C32.2395 125.724 32.4102 127.872 33.3847 129.445C34.3591 131.017 36.007 132.073 37.7404 132.721C38.9648 133.178 40.1773 133.334 41.455 133.528C42.7443 133.724 43.9358 134.053 45.2699 133.945C45.3446 133.373 45.4234 132.787 45.6908 132.277C46.2086 131.287 47.5579 130.848 48.3916 131.734C49.054 132.438 48.8069 133.569 48.5333 134.387C48.5982 134.193 56.7045 135.488 57.4821 135.584C58.8346 135.75 60.5708 136.507 61.777 135.471C62.279 135.039 62.5781 134.42 62.8138 133.802C63.0875 133.083 63.2941 132.342 63.5004 131.601C64.5103 127.975 65.5203 124.348 66.5302 120.722" fill="black"/>
<path d="M53.2054 115.874C52.8402 116.444 52.5874 117.075 52.2303 117.65C51.8576 118.249 51.3217 118.734 50.7474 119.137C49.5653 119.968 48.1966 120.447 46.7868 120.722C43.7205 121.319 40.5599 120.973 37.4864 121.526C36.2903 121.741 35.0699 122.122 34.0827 122.853C33.0369 123.627 32.3777 124.735 32.223 126.029C31.9079 128.667 33.6108 130.94 35.7847 132.224C37.1562 133.034 38.6633 133.477 40.2272 133.73C41.0471 133.863 41.8665 133.99 42.6847 134.133C43.54 134.283 44.3999 134.396 45.2695 134.333C45.4999 134.316 45.6282 134.167 45.6573 133.945C45.7352 133.351 45.8139 132.663 46.2128 132.186C46.5099 131.831 46.9819 131.59 47.4522 131.651C48.7522 131.819 48.438 133.438 48.1589 134.285C48.0214 134.702 48.6589 134.969 48.8677 134.583C48.833 134.647 48.6669 134.795 48.5805 134.759C48.5942 134.764 48.6241 134.755 48.6399 134.756C48.7083 134.761 48.7779 134.759 48.8466 134.763C49.0509 134.776 49.2547 134.798 49.4581 134.821C50.0927 134.892 50.72 134.978 51.3507 135.067C52.8631 135.279 54.3729 135.508 55.8829 135.737C56.3341 135.805 56.7852 135.876 57.2371 135.939C58.1387 136.065 59.0234 136.335 59.9344 136.387C60.5146 136.42 61.1117 136.336 61.6243 136.049C62.1484 135.756 62.5394 135.268 62.8176 134.744C63.4744 133.509 63.7712 132.073 64.1439 130.735C65.0638 127.432 65.9838 124.129 66.9037 120.826C67.0379 120.344 66.2898 120.138 66.1559 120.619C65.3359 123.563 64.516 126.508 63.696 129.452C63.3104 130.836 62.978 132.253 62.4763 133.601C62.2639 134.172 62 134.755 61.536 135.167C61.1156 135.54 60.5629 135.637 60.0175 135.616C59.4596 135.594 58.9144 135.461 58.3698 135.348C58.1002 135.293 57.8302 135.243 57.5572 135.206C57.5154 135.201 57.4736 135.195 57.4318 135.19C57.588 135.211 57.4602 135.194 57.424 135.189C56.9634 135.122 56.5034 135.052 56.0433 134.982C54.5395 134.754 53.0357 134.526 51.5294 134.315C50.8038 134.213 50.0776 134.112 49.3491 134.033C49.0408 134 48.3885 133.84 48.198 134.192L48.9068 134.491C49.1396 133.784 49.3245 132.981 49.1107 132.246C48.9037 131.534 48.2935 130.986 47.5554 130.888C46.875 130.797 46.1768 131.085 45.7131 131.584C45.1152 132.226 44.9913 133.11 44.8817 133.945L45.2695 133.557C43.8142 133.662 42.3707 133.278 40.9409 133.061C39.5668 132.853 38.2193 132.577 36.9585 131.971C34.7686 130.919 32.8349 128.967 32.9685 126.372C33.0284 125.208 33.5956 124.156 34.5415 123.473C35.5257 122.763 36.7263 122.433 37.9084 122.237C40.8803 121.744 43.9248 122.048 46.8911 121.489C48.425 121.2 49.943 120.67 51.2174 119.751C51.8205 119.316 52.3818 118.817 52.7993 118.197C53.2117 117.584 53.4767 116.887 53.875 116.265C54.1451 115.844 53.4742 115.455 53.2054 115.874Z" fill="black"/>
<path d="M103.209 59.4312C105.415 62.1064 107.176 65.2 107.981 68.5727C108.786 71.9454 108.586 75.6109 107.076 78.7322C104.632 83.7818 99.2723 86.6868 94.0656 88.7748C89.1193 90.7584 84.1071 92.0881 78.8642 92.9781C78.7119 93.0039 78.552 93.0332 78.4328 93.1314C78.3136 93.2296 78.2544 93.381 78.2003 93.5256C76.5532 97.9261 75.2306 102.408 73.5216 106.732C71.52 111.796 70.1985 117.253 68.5579 122.448C68.4896 122.664 68.4154 122.89 68.2517 123.047C68.0085 123.28 67.637 123.301 67.2999 123.305C63.8034 123.339 60.3036 122.934 56.9054 122.111C55.15 121.685 53.4286 121.142 51.7392 120.504C50.6579 120.096 48.72 120.064 48.3151 118.795C48.0734 118.037 48.2662 117.218 48.4598 116.447C48.8991 114.698 49.3383 112.949 49.7775 111.201C52.0198 102.274 54.2708 93.3237 57.4337 84.6686C60.1056 77.3571 62.995 68.6159 69.7984 64.0522C72.3278 62.3555 75.3204 61.4067 77.739 59.5554" fill="white"/>
<path d="M102.934 59.7054C106.476 64.0166 108.89 69.6292 107.8 75.2853C107.3 77.8813 106.046 80.2178 104.225 82.1254C102.52 83.9126 100.438 85.2928 98.261 86.439C95.8392 87.7142 93.2778 88.7302 90.691 89.6159C87.8126 90.6014 84.8699 91.3924 81.892 92.0133C81.1475 92.1685 80.4008 92.3133 79.6524 92.4482C78.9955 92.5667 78.209 92.5453 77.8988 93.2429C77.5874 93.943 77.3582 94.6913 77.1024 95.4134C76.8394 96.1557 76.5823 96.9001 76.3278 97.6454C75.3076 100.632 74.3266 103.634 73.1701 106.571C72.0452 109.429 71.1377 112.363 70.2736 115.308C69.8432 116.774 69.4225 118.244 68.9877 119.709C68.7661 120.456 68.5409 121.202 68.3088 121.946C68.2289 122.202 68.1727 122.624 67.9443 122.796C67.7041 122.977 67.2706 122.918 66.9911 122.919C63.8364 122.926 60.6853 122.576 57.609 121.878C56.0884 121.533 54.5888 121.1 53.1151 120.591C52.5073 120.381 51.9113 120.123 51.288 119.962C50.8175 119.841 50.3389 119.749 49.8764 119.598C49.4765 119.468 49.0341 119.283 48.7963 118.916C48.4431 118.37 48.5932 117.586 48.726 116.995C49.0714 115.456 49.4913 113.931 49.8754 112.402C50.6464 109.332 51.4142 106.262 52.2148 103.2C53.8182 97.0684 55.5571 90.9644 57.7225 85.0048C59.3624 80.4913 60.9349 75.8958 63.3879 71.7432C64.589 69.7097 66.0087 67.7981 67.7397 66.1832C68.6453 65.3383 69.6301 64.5855 70.6902 63.9444C71.902 63.2115 73.1868 62.6118 74.4497 61.9744C75.66 61.3634 76.8521 60.7117 77.9345 59.8904C78.327 59.5925 77.9411 58.9187 77.5431 59.2207C75.2201 60.9834 72.4217 61.9251 69.9713 63.4772C67.8971 64.791 66.1358 66.5251 64.6489 68.4695C61.634 72.412 59.7884 77.1145 58.0908 81.7351C57.1035 84.4225 56.1293 87.114 55.2487 89.8387C54.2518 92.9232 53.3453 96.0363 52.4902 99.1629C51.6351 102.289 50.8307 105.432 50.0378 108.575C49.6412 110.148 49.2468 111.721 48.8517 113.294C48.6475 114.107 48.4431 114.92 48.2389 115.734C48.06 116.446 47.8394 117.169 47.816 117.908C47.7968 118.516 47.9294 119.143 48.3521 119.6C48.6828 119.957 49.1448 120.167 49.5975 120.322C50.0706 120.484 50.5628 120.578 51.0467 120.701C51.6826 120.863 52.2895 121.125 52.9089 121.339C55.935 122.384 59.0676 123.085 62.2494 123.438C63.8439 123.615 65.4486 123.701 67.0528 123.694C67.7041 123.692 68.4122 123.661 68.754 123.009C68.9028 122.725 68.9798 122.399 69.0745 122.095C69.1991 121.695 69.3217 121.295 69.4429 120.893C70.3563 117.871 71.1876 114.824 72.1441 111.814C73.1022 108.799 74.3068 105.879 75.3524 102.896C76.4267 99.8298 77.3964 96.7241 78.5522 93.6872C78.6066 93.5442 78.6385 93.4463 78.7837 93.389C78.9453 93.3253 79.1525 93.3207 79.3242 93.2908C79.7198 93.222 80.1149 93.1505 80.5095 93.0762C81.2948 92.9284 82.078 92.7695 82.8585 92.5989C84.3724 92.2679 85.8767 91.8925 87.3672 91.4686C90.2374 90.6523 93.0602 89.6582 95.7976 88.4693C100.383 86.4779 105.078 83.6571 107.367 79.0153C109.985 73.7098 108.826 67.4533 105.888 62.5435C105.176 61.3535 104.363 60.2281 103.483 59.1571C103.166 58.7711 102.62 59.3225 102.934 59.7054Z" fill="black"/>
<path d="M15.1296 57.62C15.2944 59.7526 15.557 61.8779 15.9191 63.9861C16.0987 65.0321 16.303 66.0739 16.532 67.1102C16.7337 68.0226 16.9699 68.9538 17.5334 69.7178C17.8265 70.1152 18.4999 69.7288 18.2031 69.3264C17.6649 68.5967 17.4597 67.721 17.2681 66.8505C17.0438 65.8318 16.8435 64.8079 16.6669 63.7799C16.3165 61.7395 16.0646 59.6839 15.9051 57.6199C15.8669 57.1255 15.091 57.1214 15.1296 57.62Z" fill="black"/>
<path d="M112.395 57.8389C112.422 57.9182 110.713 58.7539 110.584 58.8211C94.5861 67.1692 77.75 73.9706 61.4745 81.7029C61.2361 81.8162 60.9488 81.9284 60.7212 81.7947C60.5774 81.7103 60.5005 81.549 60.4319 81.3971C57.3275 74.5267 54.7699 68.3069 54.7285 60.5538C54.69 53.3515 56.5858 45.8244 61.4914 40.3612C68.2239 32.8634 79.6822 30.7232 89.3282 33.6385C100.436 36.9957 108.774 47.0326 112.395 57.8389Z" fill="white"/>
<path d="M112.007 57.8385C112.012 57.7788 112.069 57.58 112.14 57.5622C112.119 57.5674 112.097 57.5918 112.078 57.6023C112.02 57.6347 111.964 57.6707 111.906 57.7034C111.724 57.8065 111.538 57.9032 111.352 57.9993C111.052 58.1543 110.749 58.3034 110.448 58.4557C109.16 59.1067 107.884 59.7808 106.595 60.4301C103.775 61.8504 100.934 63.2288 98.0791 64.5786C92.3979 67.2649 86.664 69.8375 80.9281 72.4043C75.198 74.9685 69.4649 77.5271 63.7791 80.1886C63.0447 80.5324 62.311 80.8779 61.5783 81.2254C61.3775 81.3206 60.9949 81.6124 60.8402 81.3528C60.6558 81.0433 60.5324 80.682 60.3851 80.3532C59.8002 79.0477 59.226 77.7372 58.6855 76.4126C57.6322 73.8307 56.7043 71.1918 56.0672 68.4743C54.817 63.1423 54.7773 57.4955 56.0193 52.156C57.194 47.1056 59.6355 42.3195 63.559 38.8581C67.1559 35.6848 71.7452 33.7948 76.4612 33.0857C81.2176 32.3705 86.1722 32.8591 90.6931 34.5C95.2537 36.1552 99.3216 38.9937 102.686 42.4664C106.105 45.9969 108.829 50.189 110.78 54.6955C111.24 55.7589 111.652 56.8434 112.021 57.9416C112.179 58.4122 112.929 58.2104 112.769 57.7354C111.166 52.9684 108.732 48.4863 105.576 44.5692C102.44 40.6781 98.5412 37.3405 94.0547 35.1065C89.5911 32.8839 84.6 31.8279 79.6182 32.0185C74.7167 32.2059 69.8048 33.5812 65.6817 36.2767C61.2517 39.1729 58.087 43.5165 56.2972 48.4678C54.4112 53.6851 53.9193 59.493 54.6437 64.979C55.4016 70.7185 57.6072 76.0689 59.9691 81.3091C60.1046 81.6096 60.224 81.9526 60.5254 82.1292C60.8311 82.3083 61.1868 82.2427 61.4964 82.1138C62.2332 81.8071 62.9474 81.4322 63.6699 81.093C65.139 80.4034 66.6114 79.7209 68.0862 79.0436C71.006 77.7027 73.935 76.3822 76.8667 75.0676C82.7696 72.4206 88.6834 69.7974 94.5542 67.0798C97.471 65.7296 100.377 64.356 103.265 62.9451C105.894 61.6609 108.484 60.3038 111.1 58.9954C111.443 58.8238 111.786 58.6515 112.123 58.4692C112.387 58.3265 112.757 58.1812 112.783 57.8385C112.82 57.3406 112.044 57.343 112.007 57.8385Z" fill="black"/>
<path d="M97.1422 25.8423C97.1695 25.9217 95.4601 26.7573 95.3314 26.8245C79.3333 35.1726 62.4972 41.974 46.2217 49.7063C45.9833 49.8196 45.696 49.9318 45.4683 49.7982C45.3246 49.7138 45.2477 49.5524 45.1791 49.4005C42.0747 42.5301 39.5171 36.3103 39.4757 28.5573C39.4372 21.3549 41.333 13.8278 46.2385 8.36461C52.9711 0.866796 64.4294 -1.27342 74.0754 1.64189C85.1835 4.99909 93.5211 15.036 97.1422 25.8423Z" fill="white"/>
<path d="M96.7543 25.8419C96.7587 25.7822 96.8165 25.5834 96.8869 25.5657C96.8665 25.5708 96.8445 25.5952 96.8256 25.6057C96.7676 25.6381 96.7115 25.6741 96.6537 25.7068C96.4714 25.8099 96.2854 25.9066 96.0994 26.0027C95.7994 26.1577 95.4964 26.3068 95.1951 26.4591C93.9071 27.1101 92.6309 27.7843 91.3419 28.4335C88.5219 29.8539 85.6808 31.2322 82.8263 32.582C77.1451 35.2683 71.4112 37.8409 65.6753 40.4077C59.9452 42.9719 54.2121 45.5306 48.5263 48.192C47.7919 48.5358 47.0582 48.8813 46.3255 49.2288C46.1247 49.324 45.7421 49.6158 45.5874 49.3562C45.403 49.0468 45.2796 48.6854 45.1323 48.3566C44.5474 47.0511 43.9731 45.7406 43.4327 44.416C42.3794 41.8341 41.4515 39.1953 40.8143 36.4777C39.5642 31.1457 39.5245 25.4989 40.7665 20.1594C41.9412 15.1091 44.3827 10.3229 48.3062 6.86152C51.9031 3.68818 56.4924 1.79823 61.2084 1.08913C65.9648 0.373969 70.9194 0.862527 75.4403 2.50339C80.0009 4.15863 84.0688 6.9971 87.4327 10.4698C90.8526 14.0003 93.5765 18.1924 95.5272 22.6989C95.9875 23.7623 96.399 24.8468 96.7682 25.945C96.9265 26.4156 97.6758 26.2138 97.5161 25.7388C95.9133 20.9718 93.4792 16.4897 90.3227 12.5727C87.1871 8.6815 83.2883 5.34389 78.8019 3.1099C74.3383 0.887304 69.3472 -0.168635 64.3654 0.021874C59.4639 0.209317 54.552 1.58461 50.4289 4.2801C45.9989 7.17627 42.8342 11.5199 41.0444 16.4712C39.1584 21.6885 38.6665 27.4964 39.3909 32.9824C40.1488 38.7219 42.3544 44.0723 44.7163 49.3125C44.8518 49.613 44.9712 49.9561 45.2726 50.1326C45.5783 50.3117 45.934 50.2461 46.2436 50.1172C46.9804 49.8105 47.6946 49.4356 48.4171 49.0965C49.8862 48.4068 51.3586 47.7243 52.8334 47.047C55.7532 45.7061 58.6822 44.3856 61.6139 43.071C67.5167 40.424 73.4306 37.8008 79.3014 35.0832C82.2182 33.733 85.1244 32.3594 88.0123 30.9485C90.6408 29.6643 93.2311 28.3072 95.847 26.9988C96.19 26.8273 96.5329 26.655 96.8703 26.4727C97.1346 26.3299 97.5044 26.1847 97.5299 25.8419C97.567 25.344 96.7912 25.3464 96.7543 25.8419Z" fill="black"/>
<path d="M85.4841 62.8959C82.8727 66.5697 76.8708 74.1842 73.7295 77.4167C70.5883 80.6491 66.8837 83.4313 62.6348 84.9357C59.2108 86.1479 55.5329 86.4976 51.901 86.4418C38.8629 86.2414 27.9125 80.601 17.6891 72.9745C16.2446 71.897 15.0158 72.2921 13.2379 72.229C12.5557 72.2048 11.848 72.0938 11.2883 71.7029C10.7286 71.3121 10.3624 70.5788 10.5751 69.9301C9.7982 69.8168 8.736 69.5805 8.51593 68.6772C8.41091 68.246 8.63138 67.7293 9.05384 67.5932C8.38891 67.5553 7.74783 67.2094 7.35112 66.6744C7.13576 66.384 6.98816 66.0156 7.06547 65.6624C7.14277 65.3092 7.50785 65.0102 7.85771 65.1013C6.82995 64.859 6.07705 63.7716 6.21194 62.7243C6.23546 62.5418 6.29373 62.3457 6.44727 62.2443C6.57871 62.1575 6.748 62.1611 6.90533 62.1689C8.11687 62.2292 9.29178 62.4509 10.4828 62.5926C11.7242 62.7404 13.1101 62.5344 14.3613 62.5046C13.7808 61.7346 13.5802 60.6916 13.8339 59.7612C13.8815 59.5865 13.9548 59.4024 14.11 59.3092C14.2801 59.2069 14.4966 59.2435 14.6893 59.291C16.0021 59.6141 17.2001 60.2815 18.38 60.9415C21.9371 62.9316 25.1505 64.4914 28.9773 65.829C31.1368 66.5838 33.2066 67.5705 35.3195 68.4474C37.9607 69.5435 40.6705 70.4684 43.4062 71.3014C45.5389 71.9507 47.6884 72.5447 49.8519 73.0824C50.2013 73.1692 50.5656 73.2549 50.9176 73.1799C51.2807 73.1026 51.5853 72.8642 51.8751 72.6322C57.4917 68.1361 64.4941 59.7569 69.7725 54.8682" fill="white"/>
<path d="M85.1493 62.7004C82.3385 66.6499 79.2974 70.4625 76.1481 74.1462C72.5689 78.3327 68.4812 82.2275 63.2759 84.2834C60.1286 85.5265 56.7432 85.9964 53.3752 86.0535C50.254 86.1064 47.1278 85.8407 44.0614 85.2556C38.1808 84.1334 32.5949 81.8621 27.3982 78.9191C24.7473 77.4179 22.1932 75.7501 19.716 73.9781C18.6006 73.1803 17.5164 72.1096 16.1135 71.8911C14.7517 71.679 13.268 72.1231 11.9542 71.6196C11.3185 71.376 10.7493 70.7543 10.9491 70.0334C11 69.8495 10.886 69.5876 10.6782 69.5564C10.2201 69.4877 9.72048 69.4075 9.32382 69.1513C8.97951 68.9289 8.58388 68.1991 9.15701 67.9673C9.56023 67.8043 9.50703 67.2438 9.05391 67.2056C8.58429 67.1661 8.14505 66.9616 7.81612 66.6233C7.6569 66.4595 7.51008 66.2571 7.45588 66.0313C7.41127 65.8455 7.46263 65.4312 7.7547 65.4755C8.23483 65.5483 8.45595 64.8594 7.96088 64.7276C7.25726 64.5402 6.71152 63.9382 6.60193 63.2134C6.57963 63.0658 6.5535 62.862 6.60472 62.7174C6.69087 62.4742 6.98554 62.5595 7.20757 62.5752C7.72273 62.6116 8.23575 62.6742 8.74722 62.7448C9.65202 62.8696 10.5568 63.0329 11.4727 63.0335C12.4373 63.0341 13.3977 62.9203 14.3614 62.8926C14.6308 62.8848 14.8771 62.5596 14.6963 62.3091C14.3899 61.8844 14.1834 61.4065 14.1282 60.8822C14.1013 60.6267 14.1077 60.3626 14.152 60.1095C14.1688 60.0135 14.1841 59.842 14.24 59.7594C14.3686 59.5697 14.5242 59.6481 14.7266 59.701C15.9126 60.0116 16.9946 60.6125 18.0579 61.2059C20.0883 62.339 22.1463 63.4211 24.2697 64.3708C26.4324 65.338 28.6779 66.0689 30.8678 66.9647C33.226 67.9293 35.5347 68.9992 37.9269 69.8812C40.2835 70.75 42.6799 71.5097 45.0926 72.2062C46.3378 72.5657 47.5885 72.9064 48.8441 73.2281C49.3879 73.3675 49.9538 73.5632 50.5179 73.5929C51.0322 73.62 51.4695 73.4228 51.875 73.121C53.3979 71.9878 54.7902 70.6464 56.1531 69.3298C57.6524 67.8814 59.1065 66.3869 60.5478 64.8811C63.6812 61.6076 66.7229 58.2269 70.0468 55.1426C70.4135 54.8023 69.8641 54.2548 69.4984 54.5941C66.5098 57.3673 63.7549 60.3867 60.9471 63.3391C58.1013 66.3315 55.2406 69.3582 52.0516 71.9916C51.6925 72.2882 51.2871 72.7153 50.8147 72.8062C50.2441 72.9159 49.522 72.6014 48.975 72.4609C47.7196 72.1384 46.4691 71.797 45.224 71.4367C42.7386 70.7175 40.2704 69.9314 37.8459 69.0267C35.4345 68.127 33.1082 67.0308 30.7207 66.0737C28.4653 65.1695 26.1724 64.4056 23.963 63.3833C21.7724 62.3698 19.6879 61.1765 17.5578 60.0475C17.0372 59.7715 16.5065 59.5154 15.959 59.297C15.4717 59.1027 14.8678 58.8325 14.332 58.8573C13.2365 58.9081 13.2652 60.5351 13.4116 61.2962C13.509 61.803 13.7253 62.283 14.0266 62.7005L14.3614 62.1169C13.1626 62.1514 11.9609 62.3256 10.761 62.2322C9.52076 62.1357 8.30071 61.8613 7.05669 61.7896C6.57898 61.7621 6.13952 61.8283 5.92597 62.3102C5.74229 62.7246 5.78615 63.261 5.91628 63.6849C6.1824 64.5517 6.87737 65.2419 7.7547 65.4755L7.96088 64.7276C6.92068 64.5697 6.42355 65.648 6.80986 66.511C7.20367 67.3908 8.123 67.9027 9.05393 67.9811L8.95083 67.2194C8.10467 67.5616 7.86975 68.5725 8.38291 69.3098C8.84933 69.9799 9.71126 70.19 10.4721 70.3042L10.2012 69.8272C9.77374 71.3699 11.2579 72.3846 12.5963 72.5629C13.9365 72.7415 15.4091 72.3282 16.693 72.8458C17.4036 73.1324 18.0084 73.6946 18.6225 74.1413C19.2496 74.5973 19.8814 75.047 20.5184 75.4891C21.8169 76.3904 23.1368 77.2609 24.4812 78.0923C29.6877 81.312 35.2996 83.9437 41.2544 85.4307C44.2943 86.1897 47.4108 86.6485 50.5411 86.7889C53.9605 86.9422 57.4436 86.7643 60.7694 85.9082C66.6209 84.4021 71.4694 80.5944 75.427 76.1516C78.8089 72.3552 81.9746 68.334 84.9873 64.2399C85.2673 63.8592 85.545 63.4768 85.819 63.0918C86.109 62.6844 85.4366 62.2967 85.1493 62.7004Z" fill="black"/>
<path d="M42.3869 47.5493C42.4129 47.5193 42.4399 47.4903 42.4687 47.4629C42.4801 47.452 42.4918 47.4413 42.5037 47.431C42.5098 47.4257 42.5714 47.376 42.5195 47.4164C42.4692 47.4555 42.5259 47.4129 42.5375 47.405C42.5538 47.3939 42.5704 47.3833 42.5872 47.373C42.6174 47.3545 42.6485 47.3373 42.6802 47.3215C42.6885 47.3173 42.7601 47.2873 42.6984 47.3112C42.6378 47.3348 42.7047 47.3091 42.718 47.3042C42.7552 47.2904 42.793 47.2784 42.8312 47.268C42.8656 47.2586 42.9005 47.2506 42.9356 47.2439C42.9538 47.2405 42.977 47.2409 42.9943 47.234C42.9663 47.245 42.9087 47.2439 42.9741 47.2383C43.0492 47.2319 43.125 47.2315 43.2002 47.2373C43.2158 47.2385 43.2319 47.2417 43.2476 47.2418C43.1469 47.2411 43.1957 47.2336 43.2267 47.2398C43.2656 47.2475 43.3041 47.2552 43.3424 47.2655C43.3767 47.2748 43.4106 47.2854 43.4439 47.2976C43.4516 47.3003 43.5262 47.329 43.4634 47.3043C43.4032 47.2806 43.4684 47.3079 43.4815 47.3145C43.5167 47.3322 43.5511 47.3517 43.5843 47.3729C43.5976 47.3814 43.6104 47.3908 43.6238 47.3993C43.6947 47.4443 43.5556 47.3431 43.621 47.3965C43.7778 47.5247 44.018 47.5614 44.1694 47.3965C44.2998 47.2545 44.3371 46.9852 44.1694 46.8481C43.8338 46.5739 43.4105 46.4253 42.9741 46.4627C42.5459 46.4995 42.125 46.6708 41.8385 47.0009C41.7057 47.154 41.6767 47.4008 41.8385 47.5493C41.9843 47.6832 42.2449 47.713 42.3869 47.5493Z" fill="black"/>
<path d="M29.6659 53.466C29.4253 53.7351 29.3452 54.1132 29.4748 54.4548C29.5398 54.6261 29.6397 54.7723 29.7855 54.8842C29.8695 54.9487 29.9567 54.99 30.0564 55.0272C30.0847 55.0378 30.1258 55.0488 30.1484 55.0572C30.224 55.0855 30.1896 55.0684 30.1641 55.0599C30.1478 55.0545 30.1777 55.1088 30.1657 55.0628C30.1671 55.0679 30.1855 55.1792 30.1803 55.118C30.1861 55.1866 30.1828 55.2583 30.1735 55.3263C30.1827 55.2592 30.1579 55.4036 30.1584 55.4005C30.1514 55.4413 30.145 55.4822 30.1391 55.5232C30.1238 55.6299 30.108 55.7371 30.1132 55.8452C30.1245 56.0819 30.2103 56.2837 30.3687 56.4588C30.4121 56.5068 30.4713 56.5434 30.491 56.5964C30.4835 56.5762 30.4852 56.5916 30.4867 56.5679C30.4839 56.6125 30.4756 56.6067 30.4514 56.6427C30.3343 56.8165 30.4179 57.0723 30.5905 57.1733C30.7813 57.2849 31.0037 57.2083 31.121 57.0341C31.248 56.8457 31.2851 56.6043 31.2311 56.3842C31.1799 56.1756 31.0361 56.0732 30.9171 55.9104C30.8956 55.881 30.89 55.8543 30.8882 55.8213C30.8834 55.7367 30.8926 55.6869 30.9063 55.6067C30.9349 55.4391 30.9692 55.2684 30.954 55.0976C30.936 54.8957 30.8808 54.7047 30.7445 54.5496C30.6215 54.4097 30.42 54.3259 30.2697 54.2817C30.2843 54.286 30.2224 54.2454 30.2669 54.2827C30.2545 54.2724 30.1991 54.1971 30.2342 54.2523C30.2213 54.232 30.2088 54.211 30.1986 54.1892C30.2296 54.2552 30.192 54.1525 30.1897 54.1443C30.1707 54.0755 30.1873 54.1619 30.1885 54.1206C30.1893 54.0897 30.1961 54.0413 30.1851 54.0973C30.1875 54.0849 30.2234 53.989 30.1917 54.054C30.1999 54.0373 30.2597 53.9637 30.2143 54.0145C30.3539 53.8585 30.3683 53.62 30.2143 53.4661C30.0724 53.3241 29.8061 53.3093 29.6659 53.466Z" fill="black"/>
<path d="M23.2619 62.2696C24.5919 60.9841 25.978 59.758 27.4161 58.5947C27.5791 58.4629 27.5532 58.1834 27.4161 58.0463C27.255 57.8852 27.031 57.9141 26.8677 58.0463C25.4296 59.2096 24.0435 60.4357 22.7135 61.7212C22.3539 62.0687 22.9027 62.6168 23.2619 62.2696Z" fill="black"/>
<path d="M2.04327 46.1831C3.36392 47.2599 4.68458 48.3366 6.00523 49.4134C6.16742 49.5456 6.395 49.572 6.55365 49.4134C6.69021 49.2768 6.71679 48.998 6.55365 48.8649C5.233 47.7882 3.91233 46.7114 2.59169 45.6347C2.4295 45.5025 2.20192 45.476 2.04327 45.6347C1.90671 45.7713 1.88013 46.0501 2.04327 46.1831Z" fill="black"/>
<path d="M8.24588 50.8053C8.32932 50.8887 8.41277 50.9722 8.49621 51.0556C8.53133 51.0934 8.57293 51.1202 8.62102 51.1358C8.66724 51.1601 8.71704 51.1712 8.77043 51.1692C8.82381 51.1712 8.87362 51.1601 8.91984 51.1358C8.9679 51.1201 9.00952 51.0934 9.04465 51.0556L9.1053 50.9771C9.14038 50.9166 9.15803 50.8514 9.15823 50.7814L9.14439 50.6783C9.12597 50.6126 9.09271 50.5556 9.04467 50.5072C8.96123 50.4237 8.87779 50.3403 8.79435 50.2569C8.75922 50.2191 8.71763 50.1923 8.66954 50.1767C8.62332 50.1524 8.57351 50.1413 8.52013 50.1433C8.46674 50.1413 8.41694 50.1524 8.37072 50.1767C8.32265 50.1923 8.28103 50.2191 8.24591 50.2569L8.18526 50.3353C8.15018 50.3958 8.13253 50.4611 8.13232 50.5311L8.14617 50.6342C8.16459 50.6999 8.19784 50.7569 8.24588 50.8053Z" fill="black"/>
<path d="M13.0067 54.1154C13.8579 54.7831 14.6873 55.4781 15.4937 56.1994C15.6497 56.3389 15.8882 56.3533 16.0421 56.1994C16.1841 56.0574 16.1988 55.7911 16.0421 55.6509C15.2358 54.9297 14.4064 54.2347 13.5552 53.567C13.3905 53.4378 13.1673 53.4064 13.0067 53.567C12.8724 53.7013 12.841 53.9854 13.0067 54.1154Z" fill="black"/>
<path d="M13.9852 50.4425C14.47 50.2442 14.9107 49.9701 15.2741 49.5889C15.4537 49.4004 15.6053 49.1896 15.7491 48.9734C15.8657 48.798 15.9842 48.5871 16.1698 48.4754C16.3676 48.3563 16.6468 48.3877 16.8689 48.3569C17.1581 48.3168 17.4388 48.2442 17.7121 48.1413C18.2643 47.9332 18.7749 47.641 19.281 47.341C19.71 47.0866 19.3203 46.4159 18.8896 46.6713C18.4176 46.9511 17.9396 47.2412 17.42 47.4248C17.1667 47.5143 16.9034 47.5845 16.6352 47.6085C16.3594 47.6332 16.0934 47.6419 15.8415 47.7709C15.413 47.9904 15.2031 48.4336 14.9285 48.8029C14.638 49.1937 14.2298 49.5103 13.779 49.6946C13.5837 49.7745 13.4502 49.9517 13.5082 50.1717C13.5567 50.3558 13.7916 50.5217 13.9852 50.4425Z" fill="white"/>
<path d="M17.4836 52.0919C18.5428 51.2706 19.5512 50.3859 20.5032 49.4425C20.8582 49.0906 20.3098 48.5422 19.9548 48.894C19.0028 49.8375 17.9944 50.7222 16.9352 51.5435C16.7695 51.6719 16.8002 51.9569 16.9352 52.0919C17.0987 52.2554 17.3175 52.2207 17.4836 52.0919Z" fill="white"/>
<path d="M20.0839 54.0288C20.6679 53.5006 21.252 52.9724 21.8361 52.4441C21.987 52.3077 21.9852 52.0326 21.8361 51.8957C21.6749 51.7477 21.4487 51.7502 21.2877 51.8957C20.7036 52.4239 20.1195 52.9522 19.5354 53.4804C19.3846 53.6168 19.3864 53.892 19.5354 54.0288C19.6966 54.1768 19.9229 54.1744 20.0839 54.0288Z" fill="white"/>
<path d="M20.8349 57.6999C21.6908 56.9146 22.5466 56.1293 23.4025 55.3439C23.5569 55.2023 23.5462 54.9391 23.4025 54.7955C23.2488 54.6418 23.0089 54.6535 22.8541 54.7955C21.9982 55.5808 21.1424 56.3662 20.2865 57.1515C20.1321 57.2932 20.1428 57.5563 20.2865 57.6999C20.4402 57.8536 20.6801 57.8419 20.8349 57.6999Z" fill="white"/>
<path d="M24.9196 53.5254C25.0647 53.364 25.2097 53.2026 25.3548 53.0412C25.4236 52.9647 25.4684 52.872 25.4684 52.767C25.4704 52.7136 25.4593 52.6638 25.435 52.6176C25.4194 52.5695 25.3927 52.5279 25.3549 52.4928C25.281 52.4249 25.1839 52.3746 25.0806 52.3792C24.981 52.3837 24.8753 52.4162 24.8064 52.4928C24.6613 52.6542 24.5162 52.8156 24.3711 52.977C24.3024 53.0535 24.2576 53.1463 24.2576 53.2512C24.2555 53.3046 24.2667 53.3544 24.2909 53.4006C24.3066 53.4487 24.3333 53.4903 24.3711 53.5254C24.445 53.5933 24.5421 53.6436 24.6453 53.639C24.745 53.6346 24.8507 53.602 24.9196 53.5254Z" fill="white"/>
<path d="M50.3471 65.5338C50.2045 67.5255 50.0751 69.5319 49.7876 71.5089C49.7572 71.7177 49.8394 71.923 50.0584 71.9859C50.2403 72.0382 50.5054 71.922 50.5355 71.7151C50.833 69.6686 50.9751 67.5955 51.1227 65.5338C51.1584 65.0358 50.3826 65.038 50.3471 65.5338Z" fill="black"/>
<path d="M50.5055 113.582C55.2553 115.926 60.4139 117.384 65.6875 117.877C67.1826 118.017 68.6844 118.076 70.1859 118.058C70.6846 118.052 70.6859 117.277 70.1859 117.283C64.9941 117.345 59.8114 116.448 54.9398 114.652C53.5619 114.144 52.2137 113.562 50.8969 112.912C50.4508 112.692 50.0574 113.361 50.5055 113.582Z" fill="black"/>
<path d="M83.0733 101.039C80.3894 104.372 77.3714 107.432 74.0712 110.157C73.1337 110.931 72.1733 111.676 71.192 112.393C70.7931 112.685 71.1796 113.358 71.5834 113.063C75.0783 110.508 78.3163 107.607 81.2228 104.398C82.0497 103.485 82.8491 102.547 83.6218 101.587C83.932 101.202 83.3865 100.65 83.0733 101.039Z" fill="black"/>
<path d="M83.4722 100.348C85.2009 101.357 87.0204 102.208 88.9035 102.887C89.8484 103.228 90.8123 103.542 91.7912 103.77C92.7842 104.001 93.7985 104.106 94.8041 103.891C95.292 103.787 95.0855 103.04 94.5979 103.143C93.6268 103.35 92.6372 103.19 91.6886 102.946C90.7833 102.714 89.8903 102.424 89.0123 102.104C87.2261 101.453 85.5051 100.637 83.8636 99.6783C83.4317 99.4262 83.0409 100.096 83.4722 100.348Z" fill="black"/>
<path d="M116.414 82.4973C117.442 83.4772 118.47 84.4572 119.498 85.4372C119.859 85.7816 120.408 85.234 120.046 84.8888C119.018 83.9088 117.99 82.9288 116.963 81.9488C116.601 81.6044 116.052 82.152 116.414 82.4973Z" fill="black"/>
<path d="M61.3161 112.945C62.5722 109.231 63.842 105.521 65.256 101.864C66.6419 98.28 68.1265 94.6816 69.9829 91.3114C70.842 89.7517 71.8498 88.2868 73.1602 87.0704C74.3657 85.9514 75.7601 85.0581 77.2187 84.3064C80.1608 82.79 83.3485 81.8663 86.4255 80.6766C89.4523 79.5064 92.4798 78.063 94.7847 75.72C95.0652 75.4349 95.3319 75.137 95.5867 74.8286C95.9023 74.4466 95.3566 73.8949 95.0383 74.2802C92.9387 76.8215 89.9879 78.41 86.9769 79.6292C83.8836 80.8817 80.6611 81.8 77.6409 83.2343C76.1467 83.9438 74.7153 84.783 73.4241 85.8207C72.0554 86.9207 70.9278 88.2589 69.9995 89.7461C68.998 91.3506 68.1872 93.0761 67.3964 94.7915C66.5738 96.5757 65.8059 98.385 65.0773 100.209C63.6099 103.884 62.3063 107.62 61.0336 111.366C60.8781 111.823 60.7231 112.281 60.5682 112.739C60.408 113.212 61.1568 113.416 61.3161 112.945Z" fill="black"/>
<path d="M92.654 70.7663C93.2038 71.997 93.7709 73.2419 94.6719 74.2621C95.4951 75.1944 96.58 75.8663 97.8242 76.0242C98.0324 76.0506 98.212 75.827 98.212 75.6364C98.212 75.4049 98.033 75.2751 97.8242 75.2486C95.3865 74.9393 94.2034 72.3441 93.3237 70.3749C93.2376 70.1821 92.9608 70.1403 92.7931 70.2357C92.595 70.3485 92.569 70.5762 92.654 70.7663Z" fill="black"/>
<path d="M83.9932 32.3901C78.7205 35.325 72.8581 37.3328 67.3594 39.8009C65.6637 40.5619 63.9727 41.3368 62.3116 42.1712C61.0928 42.7833 59.855 43.3347 58.6672 43.9985C61.5165 43.9872 64.2468 42.9382 66.9018 41.9042C68.6211 41.2346 70.3404 40.565 72.0597 39.8955C75.1173 38.7047 78.1943 37.5082 81.4128 36.8696C83.0742 36.54 84.9898 36.5723 86.5009 35.7708C88.0447 34.9521 89.8053 34.672 91.5153 34.3343C90.1705 33.9464 88.8076 33.6206 87.4326 33.3594C86.2434 33.1335 85.2169 32.646 84.0312 32.4019" fill="black"/>
<path d="M83.7975 32.0561C80.6681 33.7937 77.3705 35.1961 74.0649 36.5584C70.7106 37.9407 67.3632 39.3288 64.0824 40.8802C63.1477 41.3222 62.2259 41.7895 61.2959 42.2407C60.3471 42.701 59.3936 43.1519 58.4715 43.6645C58.1342 43.8519 58.2863 44.3903 58.6672 44.3871C60.9657 44.3677 63.1838 43.7127 65.3228 42.9222C67.5295 42.1068 69.7128 41.2243 71.9049 40.3706C74.0519 39.5345 76.1999 38.6905 78.4082 38.0275C79.5024 37.699 80.6144 37.4031 81.7399 37.2024C82.7446 37.0232 83.7667 36.9591 84.7681 36.7585C85.3174 36.6485 85.8541 36.4933 86.3669 36.2659C86.9097 36.0252 87.4223 35.7486 87.9877 35.5572C89.1674 35.158 90.3994 34.9489 91.6183 34.7091C92.0076 34.6325 91.967 34.0613 91.6183 33.9612C90.3419 33.5946 89.0506 33.2811 87.7471 33.027C86.5151 32.7868 85.3598 32.2891 84.1343 32.0287C83.6475 31.9253 83.4394 32.6728 83.9281 32.7766C85.1536 33.037 86.3089 33.5347 87.5409 33.7749C88.8445 34.029 90.1357 34.3425 91.4121 34.7091V33.9612C90.3566 34.1689 89.2933 34.3534 88.2601 34.6581C87.7308 34.8142 87.2118 35.0045 86.7107 35.2361C86.2514 35.4485 85.821 35.6789 85.3327 35.8229C84.367 36.1077 83.3586 36.1944 82.3647 36.3282C81.2692 36.4756 80.1921 36.7231 79.1264 37.0143C76.9226 37.6163 74.7826 38.4247 72.655 39.2506C70.4556 40.1044 68.2609 40.9702 66.0592 41.8178C63.6882 42.7306 61.2367 43.5898 58.6672 43.6115L58.8629 44.3341C60.4771 43.4369 62.1684 42.6565 63.8322 41.8559C65.4988 41.0539 67.184 40.2871 68.8813 39.5523C72.1682 38.1291 75.5137 36.8448 78.7867 35.3888C80.6217 34.5726 82.4326 33.7009 84.1889 32.7257C84.6254 32.4834 84.2347 31.8134 83.7975 32.0561Z" fill="black"/>
<path d="M56.0479 29.9869C55.7975 30.348 55.418 30.5976 55.0455 30.8177C54.6327 31.0617 54.2081 31.2989 53.7734 31.5015C53.3115 31.7167 52.8106 31.8857 52.304 31.9537C52.1474 31.9748 51.8921 32.0239 51.7524 31.9253C51.6088 31.8239 51.631 31.5862 51.6535 31.4338C51.7552 30.7455 52.3138 30.2047 52.8601 29.8275C53.4658 29.4091 54.1462 29.0971 54.8494 28.8828C55.2086 28.7733 55.763 28.6086 56.0697 28.9207C56.3486 29.2045 56.2348 29.6893 56.0479 29.9869C55.7816 30.4107 56.4524 30.8004 56.7176 30.3783C56.9939 29.9385 57.0988 29.3625 56.921 28.8653C56.7192 28.3006 56.2006 27.9925 55.6147 27.9737C55.1134 27.9576 54.608 28.1302 54.1448 28.3054C53.6841 28.4796 53.2331 28.6861 52.8099 28.9388C51.9979 29.4239 51.1794 30.1265 50.9367 31.0807C50.7986 31.6236 50.8413 32.2979 51.3801 32.6066C51.9095 32.9098 52.68 32.7037 53.2214 32.5398C53.9206 32.3281 54.5636 31.9797 55.1981 31.6245C55.7776 31.3 56.3338 30.932 56.7176 30.3783C57.0026 29.9672 56.3306 29.579 56.0479 29.9869Z" fill="black"/>
<path d="M53.6144 30.1547C54.9198 31.1209 53.0607 32.258 51.8965 31.967C51.7172 31.9222 51.5362 31.8449 51.4399 31.7057C51.3522 31.5788 51.3491 31.4225 51.3484 31.2744C51.3477 31.111 51.3476 30.9444 51.4053 30.789C51.4953 30.5465 51.715 30.3593 51.9379 30.1945C52.0924 30.0802 52.2555 29.9699 52.4448 29.9068C52.7929 29.7909 53.3375 29.9498 53.6144 30.1547Z" fill="black"/>
<path d="M53.4186 30.4894C53.3492 30.4371 53.4316 30.501 53.441 30.5091C53.4638 30.5286 53.486 30.5488 53.5075 30.5697C53.5278 30.5894 53.5475 30.6096 53.5664 30.6306C53.5713 30.636 53.633 30.6983 53.587 30.6523C53.5443 30.6096 53.5948 30.6645 53.6013 30.6742C53.6144 30.6941 53.6269 30.7144 53.6384 30.7353C53.6463 30.7497 53.6681 30.7796 53.6686 30.7963C53.6444 30.7371 53.6393 30.7265 53.6532 30.7644C53.6566 30.7744 53.6597 30.7845 53.6625 30.7947C53.6672 30.8113 53.6699 30.8286 53.6748 30.845C53.696 30.9169 53.6758 30.7482 53.6716 30.8219C53.6705 30.8408 53.6719 30.8623 53.6727 30.8813C53.6759 30.9574 53.6453 30.8818 53.6793 30.8565C53.6675 30.8653 53.6618 30.9364 53.6568 30.9526C53.6556 30.9565 53.6379 31.0096 53.6365 31.0092C53.6312 31.0074 53.6822 30.9148 53.636 30.9996C53.6173 31.0339 53.5943 31.0648 53.574 31.0979C53.5333 31.1643 53.6369 31.033 53.5807 31.0884C53.5648 31.1041 53.551 31.1224 53.5356 31.1387C53.5091 31.1667 53.4812 31.1935 53.4524 31.2192C53.4346 31.2351 53.4161 31.2501 53.398 31.2655C53.3476 31.3084 53.468 31.216 53.3789 31.2784C53.3023 31.3321 53.2215 31.3798 53.1382 31.4223C53.1054 31.439 53.0548 31.4758 53.0191 31.4786C53.099 31.4723 53.0518 31.4652 53.013 31.4802C52.9796 31.4931 52.9458 31.5053 52.9118 31.5167C52.8176 31.5484 52.7215 31.5743 52.6242 31.5941C52.5901 31.6011 52.5254 31.6235 52.4911 31.6173C52.5737 31.6324 52.5305 31.6121 52.4875 31.6161C52.4522 31.6195 52.4167 31.622 52.3813 31.6235C52.3374 31.6254 52.2935 31.6259 52.2497 31.6249C52.232 31.6245 52.1016 31.6055 52.0949 31.6145C52.1056 31.6 52.1865 31.6312 52.1099 31.6159C52.0894 31.6118 52.0687 31.6086 52.0481 31.6042C51.9756 31.5887 51.9022 31.5692 51.8336 31.5405C51.9275 31.5798 51.7175 31.4568 51.8009 31.5246L51.7766 31.5033C51.747 31.4712 51.7463 31.4733 51.7748 31.5099L51.7546 31.4776C51.7664 31.5142 51.7654 31.5107 51.7513 31.4672C51.7489 31.4568 51.7351 31.3428 51.7407 31.4237C51.739 31.3988 51.7379 31.3738 51.7371 31.3488C51.7343 31.2555 51.739 31.1626 51.7398 31.0694C51.7407 30.9568 51.7206 31.1198 51.7459 31.0104C51.7521 30.9837 51.7592 30.9576 51.766 30.931C51.7929 30.8251 51.7321 30.9688 51.7839 30.8884C51.8032 30.8584 51.8199 30.8273 51.8402 30.7979C51.796 30.8622 51.8657 30.7691 51.8708 30.7636C51.8874 30.7454 51.9045 30.7277 51.922 30.7103C51.9844 30.6484 52.0518 30.5909 52.1214 30.5373C52.0629 30.5824 52.1637 30.5071 52.1647 30.5064C52.1959 30.4836 52.2274 30.4612 52.2594 30.4394C52.3349 30.3882 52.4128 30.3421 52.4944 30.3013C52.6026 30.247 52.4616 30.3098 52.5292 30.2873C52.5631 30.276 52.597 30.2678 52.6315 30.2587C52.7231 30.2345 52.5509 30.2563 52.6486 30.2574C52.6911 30.2578 52.7332 30.2548 52.7758 30.2569C52.7977 30.258 52.8194 30.2603 52.8412 30.2617C52.8865 30.2668 52.8852 30.2665 52.8373 30.261C52.8595 30.2646 52.8816 30.2688 52.9037 30.2733C52.9807 30.2892 53.0568 30.3104 53.1311 30.3363C53.152 30.3435 53.1724 30.3517 53.1932 30.3591C53.1071 30.3284 53.2301 30.3766 53.2464 30.3849C53.3066 30.4154 53.3638 30.4501 53.4186 30.4894C53.584 30.6081 53.8577 30.5236 53.9493 30.3503C54.0552 30.1499 53.9866 29.9465 53.8101 29.8198C53.5312 29.6194 53.1795 29.5188 52.8412 29.4862C52.4657 29.45 52.1225 29.5894 51.8203 29.803C51.4864 30.039 51.1608 30.3052 51.0248 30.7054C50.9577 30.9026 50.9571 31.1239 50.9612 31.3302C50.9654 31.5395 50.9993 31.7532 51.1241 31.9268C51.5135 32.4678 52.3536 32.4644 52.9362 32.318C53.4482 32.1893 53.9629 31.9097 54.2621 31.463C54.4267 31.2172 54.4829 30.9172 54.4205 30.6289C54.3456 30.2822 54.0821 30.0247 53.8101 29.8198C53.6475 29.6972 53.3696 29.7885 53.2796 29.9589C53.1718 30.1629 53.245 30.3586 53.4186 30.4894Z" fill="black"/>
<path d="M45.5004 34.5145C45.2429 34.8687 44.8521 35.1087 44.4766 35.3194C44.0587 35.5538 43.6289 35.7835 43.1894 35.9744C42.7264 36.1754 42.2247 36.3338 41.7215 36.388C41.5617 36.4053 41.2975 36.4527 41.1601 36.343C41.024 36.2342 41.0543 35.997 41.0815 35.8463C41.2056 35.1591 41.7713 34.6387 42.3291 34.2716C42.9445 33.8667 43.6317 33.5725 44.34 33.374C44.7007 33.2728 45.2629 33.1219 45.5568 33.4478C45.8239 33.7439 45.6946 34.2203 45.5004 34.5145C45.2247 34.9322 45.896 35.3212 46.1701 34.9059C46.4555 34.4735 46.5698 33.8954 46.4008 33.3969C46.2078 32.8272 45.6931 32.5164 45.1084 32.4844C44.6091 32.4572 44.0974 32.621 43.6317 32.7853C43.1677 32.949 42.712 33.1478 42.2838 33.3907C41.4591 33.8585 40.6324 34.5447 40.3681 35.494C40.2179 36.0333 40.2525 36.7107 40.787 37.0255C41.3126 37.3351 42.0845 37.1454 42.6303 36.9934C43.3336 36.7977 43.9842 36.4613 44.6261 36.1207C45.2146 35.8083 45.7732 35.4519 46.1701 34.9059C46.2942 34.7352 46.1979 34.4753 46.031 34.3753C45.8363 34.2587 45.6229 34.3459 45.5004 34.5145Z" fill="black"/>
<path d="M43.0684 34.6204C44.3518 35.6157 42.4676 36.7108 41.3103 36.3937C41.132 36.3449 40.9528 36.2635 40.8597 36.1222C40.7748 35.9934 40.7752 35.837 40.7779 35.6889C40.7808 35.5255 40.7844 35.359 40.8456 35.2049C40.9411 34.9646 41.1649 34.7823 41.3914 34.6225C41.5485 34.5117 41.7141 34.4051 41.9047 34.3464C42.2553 34.2383 42.7962 34.4093 43.0684 34.6204Z" fill="black"/>
<path d="M42.7943 34.8951C42.8446 34.9348 42.8935 34.976 42.9394 35.0208C42.9642 35.0451 43.0268 35.0912 43.036 35.1259L43.008 35.0894C43.0182 35.1031 43.028 35.1171 43.0374 35.1314C43.0509 35.1518 43.0637 35.1727 43.0755 35.1942C43.0853 35.212 43.0934 35.2416 43.1065 35.2568C43.0796 35.2255 43.0825 35.1819 43.098 35.2471C43.1028 35.267 43.107 35.2893 43.1133 35.3088C43.1369 35.3805 43.1124 35.2127 43.11 35.2871C43.1093 35.3106 43.1017 35.3658 43.1081 35.3873C43.0885 35.3217 43.1265 35.3041 43.109 35.3629C43.1034 35.382 43.0982 35.4016 43.0929 35.4208C43.0895 35.4334 43.0631 35.4966 43.0909 35.4315C43.1201 35.3631 43.0816 35.447 43.0747 35.4595C43.0598 35.4867 43.0326 35.5518 43.0051 35.5672C43.0059 35.5667 43.071 35.4927 43.0244 35.5405C43.0087 35.5567 42.9946 35.5746 42.979 35.591C42.9468 35.6249 42.9126 35.6569 42.8771 35.6873C42.8713 35.6922 42.8402 35.7144 42.8399 35.7179C42.8866 35.6824 42.8933 35.6771 42.8601 35.7018C42.8467 35.7116 42.8331 35.7212 42.8194 35.7305C42.7416 35.784 42.6594 35.8312 42.5748 35.873C42.5509 35.8847 42.5267 35.8956 42.5027 35.9069C42.4391 35.9369 42.5149 35.9042 42.5213 35.8995C42.4761 35.9328 42.3958 35.9474 42.3425 35.9643C42.2466 35.9949 42.1487 36.0195 42.0497 36.0379C42.0306 36.0414 41.9872 36.0566 41.9685 36.0515C41.9742 36.0531 42.0642 36.0412 41.9903 36.0484C41.9272 36.0544 41.8644 36.06 41.801 36.0615C41.7565 36.0626 41.7119 36.0623 41.6675 36.0603C41.6411 36.0592 41.6148 36.0575 41.5885 36.0552C41.494 36.0469 41.5872 36.0479 41.5881 36.0568C41.5879 36.0542 41.4684 36.0341 41.4624 36.0327C41.434 36.026 41.4058 36.0184 41.3778 36.0101C41.3623 36.0054 41.233 35.9513 41.2973 35.9834C41.2756 35.9726 41.2548 35.96 41.2332 35.9493C41.1313 35.8988 41.2989 35.9706 41.1995 35.9263L41.1756 35.9019C41.2013 35.9377 41.2011 35.9352 41.1751 35.8942C41.1862 35.9689 41.1673 35.853 41.166 35.8468C41.1698 35.8644 41.1692 35.9164 41.1669 35.8389C41.1658 35.8014 41.1649 35.7641 41.1652 35.7265C41.1657 35.6458 41.1685 35.5652 41.1739 35.4846C41.1815 35.3725 41.1519 35.5337 41.1837 35.4261C41.1841 35.4247 41.2228 35.2971 41.1944 35.3686C41.2157 35.3149 41.2496 35.2624 41.2848 35.2167C41.2364 35.2797 41.3139 35.1887 41.3179 35.1845C41.3435 35.1576 41.3703 35.1319 41.3977 35.107C41.4256 35.0817 41.4544 35.0575 41.4835 35.0336C41.5776 34.9565 41.4264 35.0728 41.5256 35.0019C41.6611 34.9052 41.7993 34.8044 41.953 34.738C41.8873 34.7664 42.0075 34.7208 42.0079 34.7207C42.0187 34.7175 42.1299 34.6928 42.07 34.7035C42.0063 34.7148 42.104 34.7022 42.1093 34.702C42.1517 34.7003 42.1942 34.7014 42.2366 34.7044C42.253 34.7056 42.3563 34.7246 42.2646 34.7063C42.2977 34.7129 42.3307 34.7184 42.3636 34.726C42.4407 34.7436 42.515 34.7683 42.5896 34.794C42.6591 34.818 42.6029 34.7983 42.5886 34.792C42.6274 34.8089 42.6656 34.8273 42.7029 34.8473C42.7623 34.8791 42.8189 34.9152 42.8727 34.9557C43.0355 35.0782 43.3132 34.9871 43.4033 34.8166C43.511 34.6127 43.4379 34.4168 43.2642 34.286C42.9933 34.0821 42.6507 33.9784 42.3182 33.9373C41.9443 33.891 41.5999 34.017 41.2911 34.2225C40.9866 34.4251 40.6622 34.6648 40.5108 35.0096C40.4156 35.2265 40.3939 35.4544 40.3901 35.6893C40.3868 35.8995 40.4051 36.1172 40.5151 36.302C40.7213 36.6485 41.1341 36.7747 41.5107 36.8222C41.7809 36.8562 42.058 36.8295 42.3233 36.7722C42.842 36.6602 43.3571 36.3927 43.6748 35.9586C43.8516 35.7169 43.9191 35.4166 43.8649 35.123C43.8068 34.8087 43.5874 34.5399 43.3427 34.3466C43.1838 34.2212 42.9472 34.18 42.7943 34.3466C42.6658 34.4865 42.6242 34.7609 42.7943 34.8951Z" fill="black"/>
<path d="M27.0044 27.8834C27.5592 28.0689 28.1141 28.2543 28.669 28.4398C28.8615 28.5041 29.1012 28.3656 29.146 28.1689C29.1948 27.9548 29.0813 27.7608 28.8752 27.6919C28.3203 27.5065 27.7654 27.321 27.2106 27.1356C27.018 27.0712 26.7783 27.2098 26.7335 27.4064C26.6848 27.6206 26.7983 27.8145 27.0044 27.8834Z" fill="black"/>
<path d="M27.8807 37.8602C28.7218 37.5007 29.5215 37.0524 30.267 36.5225C30.432 36.4052 30.5266 36.1787 30.4062 35.9919C30.3006 35.8282 30.0524 35.7271 29.8756 35.8528C29.1301 36.3827 28.3303 36.8311 27.4892 37.1905C27.302 37.2705 27.2464 37.5602 27.3501 37.7211C27.4755 37.9156 27.6803 37.9458 27.8807 37.8602Z" fill="black"/>
<path d="M28.6385 19.7272C29.0085 20.2205 29.3786 20.7138 29.7486 21.2071C29.8116 21.291 29.8752 21.3564 29.9804 21.3853C30.0732 21.4109 30.1968 21.3994 30.2792 21.3463C30.4392 21.2431 30.5485 20.9893 30.4183 20.8157C30.0482 20.3224 29.6782 19.8291 29.3081 19.3358C29.2452 19.2519 29.1816 19.1865 29.0764 19.1576C28.9836 19.132 28.86 19.1435 28.7776 19.1967C28.6176 19.2998 28.5083 19.5537 28.6385 19.7272Z" fill="black"/>
<path d="M7.48258 129.768C6.65902 128.926 5.46505 127.66 6.19133 126.397C6.99456 124.999 8.55198 126.581 9.14831 127.323C9.26902 127.473 9.51898 127.46 9.65747 127.353C9.81955 127.228 9.83928 127.031 9.75735 126.853C9.0019 125.207 9.58127 123.179 10.815 121.929C11.4396 121.296 12.2688 120.829 13.1643 120.742C13.7493 120.684 14.2827 120.813 14.6533 121.294C14.992 121.734 15.2085 122.292 15.4288 122.797C15.9536 123.999 16.4487 125.486 15.7776 126.73C15.5407 127.168 16.2029 127.558 16.4472 127.121C17.1596 125.847 18.7934 124.615 20.3208 125.224C21.4262 125.665 22.1946 127.163 21.4487 128.215C21.1846 128.587 21.7471 128.971 22.0577 128.685C22.74 128.055 23.9156 127.994 24.627 128.616C25.3311 129.232 25.4714 130.333 24.988 131.121C24.7264 131.548 25.397 131.938 25.6577 131.513C26.3281 130.42 26.1192 128.849 25.1176 128.019C24.0784 127.157 22.494 127.228 21.5093 128.136L22.1184 128.606C22.8878 127.521 22.4754 126.033 21.5846 125.154C20.5052 124.09 18.8895 124.113 17.6249 124.836C16.8499 125.279 16.212 125.953 15.7776 126.73L16.4472 127.121C17.1464 125.826 16.8691 124.348 16.3611 123.038C16.1088 122.387 15.8328 121.709 15.4646 121.114C15.1167 120.552 14.6205 120.12 13.9551 119.999C12.7943 119.787 11.5757 120.285 10.6831 121.004C9.84318 121.681 9.22766 122.632 8.90044 123.655C8.52251 124.838 8.56873 126.114 9.08766 127.244L9.69672 126.774C9.15861 126.105 8.49142 125.403 7.63974 125.157C6.86152 124.932 6.05408 125.218 5.59762 125.885C5.17776 126.498 5.10326 127.34 5.32746 128.038C5.61818 128.944 6.28332 129.651 6.93416 130.316C7.28371 130.674 7.83194 130.125 7.48258 129.768Z" fill="black"/>
<path d="M45.3474 30.9306C46.1592 32.9099 46.9897 34.8815 47.8385 36.8452C47.9222 37.039 48.2029 37.0789 48.369 36.9843C48.5689 36.8706 48.5908 36.6449 48.5081 36.4538C47.6859 34.5516 46.8816 32.6417 46.0952 30.7245C46.0152 30.5293 45.8383 30.3956 45.6182 30.4536C45.4343 30.5021 45.268 30.7371 45.3474 30.9306Z" fill="black"/>
<path d="M50.3823 38.0332C50.2787 38.3374 50.5056 38.6008 50.7737 38.7041C50.9401 38.7682 51.142 38.7708 51.3186 38.7534C51.7325 38.7128 52.1093 38.5621 52.4381 38.308C53.0746 37.8163 53.3754 36.9651 53.2755 36.1767C53.25 35.9763 53.1153 35.7787 52.8877 35.789C52.6994 35.7974 52.4726 35.9612 52.4999 36.1767C52.5182 36.3213 52.524 36.4666 52.5142 36.612C52.5115 36.6527 52.5079 36.6933 52.5026 36.7337C52.5118 36.6635 52.4996 36.7427 52.4947 36.7685C52.4816 36.8369 52.4651 36.9047 52.4453 36.9716C52.4354 37.0049 52.4247 37.038 52.4131 37.0708C52.4107 37.0776 52.3692 37.1838 52.4014 37.1075C52.3744 37.1713 52.3427 37.2334 52.3084 37.2937C52.2741 37.3541 52.2358 37.4119 52.1955 37.4685C52.2401 37.4059 52.1816 37.4852 52.1706 37.498C52.1451 37.5277 52.1186 37.5563 52.0912 37.5841C52.0677 37.608 52.0435 37.6311 52.0186 37.6536C52.0102 37.6611 51.9335 37.7274 51.968 37.6986C52.0023 37.6702 51.9226 37.7313 51.9129 37.738C51.8806 37.7601 51.8477 37.7811 51.814 37.801C51.7563 37.8352 51.6967 37.8655 51.6357 37.8933C51.6977 37.8651 51.6296 37.8949 51.6043 37.9039C51.5729 37.915 51.5411 37.9254 51.5091 37.9347C51.4449 37.9533 51.3799 37.9662 51.3144 37.9787C51.4032 37.9617 51.3066 37.9791 51.2855 37.9807C51.2523 37.9832 51.2191 37.9847 51.1858 37.9851C51.1526 37.9854 51.1193 37.9847 51.086 37.9829C51.0638 37.9816 51.0416 37.9799 51.0195 37.9776L51.0622 37.9831C51.0434 37.9792 51.025 37.9739 51.0069 37.9672C51.0499 37.9863 51.0591 37.9888 51.0345 37.9748C51.0096 37.9593 51.0179 37.9656 51.0594 37.9937C51.1221 38.0639 51.1457 38.1458 51.1302 38.2393C51.1957 38.0471 51.0552 37.8069 50.8594 37.7623C50.6442 37.7133 50.4524 37.8274 50.3823 38.0332Z" fill="black"/>
<path d="M52.4186 36.3034H53.2047C53.3041 36.3034 53.4086 36.2601 53.4789 36.1898C53.5462 36.1226 53.5968 36.0122 53.5925 35.9156C53.5831 35.7055 53.4221 35.5278 53.2047 35.5278H52.4186C52.3192 35.5278 52.2147 35.5711 52.1444 35.6414C52.0771 35.7087 52.0264 35.819 52.0308 35.9156C52.0402 36.1257 52.2012 36.3034 52.4186 36.3034Z" fill="black"/>
<path d="M41.5546 30.7716C41.5717 30.7117 41.5905 30.6524 41.6125 30.5942C41.6163 30.584 41.6509 30.5043 41.628 30.5542C41.6049 30.6044 41.6421 30.5254 41.6468 30.5158C41.6962 30.4135 41.7536 30.3149 41.8182 30.2214C41.8359 30.1959 41.8544 30.1711 41.8726 30.1459C41.819 30.22 41.8808 30.1373 41.8893 30.1272C41.9226 30.0875 41.9573 30.0489 41.9931 30.0116C42.0362 29.9667 42.081 29.9235 42.1274 29.882C42.1468 29.8648 42.1665 29.8479 42.1864 29.8312C42.1983 29.8212 42.2103 29.8113 42.2225 29.8016C42.1889 29.827 42.1832 29.8313 42.2055 29.8146C42.2982 29.7475 42.3925 29.6842 42.493 29.6292C42.543 29.6017 42.5942 29.5771 42.6457 29.5524C42.72 29.5169 42.583 29.574 42.6674 29.5429C42.6916 29.534 42.7157 29.5244 42.74 29.5158C42.8472 29.4777 42.9571 29.4478 43.0689 29.4267C43.0942 29.4218 43.1199 29.4184 43.1452 29.4136C43.0478 29.432 43.1481 29.4141 43.1653 29.4125C43.2274 29.4068 43.2895 29.4044 43.3517 29.404C43.5545 29.4025 43.7489 29.2267 43.7395 29.0162C43.7301 28.8074 43.5691 28.6268 43.3517 28.6284C42.1954 28.637 41.1231 29.4532 40.8068 30.5654C40.7513 30.7604 40.8746 30.9962 41.0776 31.0424C41.284 31.0894 41.4952 30.9804 41.5546 30.7716Z" fill="black"/>
<path d="M52.466 23.9692C51.0957 23.5643 49.5794 24.1189 48.7515 25.2687C48.6291 25.4388 48.722 25.7007 48.8906 25.7993C49.086 25.9136 49.2985 25.8306 49.4212 25.6602C50.0497 24.7873 51.2518 24.4192 52.2598 24.717C52.7395 24.8588 52.9444 24.1105 52.466 23.9692Z" fill="black"/>
<path d="M74.0753 1.64188C64.4293 -1.27341 52.971 0.866786 46.2384 8.36462C42.1724 12.8929 40.1756 18.8392 39.6327 24.8432C41.2937 23.8654 42.9547 22.8876 44.6157 21.9098C45.2768 21.5207 45.9433 21.1275 46.5083 20.6087C48.5061 18.7743 48.8886 15.7455 50.5572 13.6072C50.2655 15.8263 50.2573 18.0825 50.5327 20.3036C52.5227 19.9411 54.4937 19.475 56.4352 18.9076C57.7112 16.8935 58.9872 14.8795 60.2633 12.8655C59.933 18.3879 60.9232 23.9849 63.1281 29.0588C64.3211 28.7445 65.514 28.4302 66.7069 28.1159C66.6622 26.6782 66.6233 25.2008 67.1063 23.8459C67.5893 22.491 68.7206 21.267 70.1507 21.1123C71.7198 20.9426 73.2392 22.1933 73.6051 23.7286C73.9711 25.2638 73.3109 26.932 72.156 28.0077C74.427 30.2751 76.6979 32.5424 78.9689 34.8097C84.482 32.2593 89.9544 29.6302 95.3313 26.8245C95.46 26.7573 97.1694 25.9217 97.1421 25.8424C93.5211 15.036 85.1834 4.9991 74.0753 1.64188Z" fill="black"/>
<path d="M74.1781 1.26755C71.2333 0.382303 68.1467 -0.0416444 65.0723 0.00322105C62.0258 0.0476807 58.9716 0.547043 56.0879 1.53706C53.2197 2.52171 50.5238 3.98811 48.1956 5.9366C45.6722 8.04848 43.6596 10.7297 42.2211 13.6828C40.7096 16.7856 39.8121 20.1471 39.3826 23.5644C39.3291 23.9897 39.2837 24.4159 39.2446 24.8428C39.2171 25.143 39.5922 25.3165 39.8281 25.1776C40.9192 24.5354 42.0102 23.8931 43.1013 23.2508C44.1254 22.6479 45.2038 22.0903 46.1627 21.3854C47.7714 20.2027 48.5422 18.4375 49.3211 16.6625C49.7591 15.6642 50.2228 14.6704 50.8917 13.8026L50.1691 13.6068C49.8818 15.8297 49.8735 18.0783 50.1446 20.3032C50.1768 20.5673 50.3654 20.7266 50.6355 20.6771C51.7409 20.4747 52.8406 20.2424 53.9328 19.9774C54.4788 19.8449 55.0229 19.7046 55.5649 19.5563C55.8358 19.4822 56.1063 19.4061 56.3762 19.3281C56.6909 19.2371 56.7817 19.0841 56.9521 18.8152C58.1673 16.8971 59.3826 14.9789 60.5978 13.0608L59.8752 12.8651C59.6211 17.2259 60.172 21.6337 61.4934 25.7976C61.8661 26.9719 62.3038 28.1236 62.793 29.2541C62.8605 29.4101 63.0797 29.4722 63.231 29.4324C64.4239 29.1181 65.6168 28.8038 66.8098 28.4895C66.97 28.4473 67.0997 28.2836 67.0945 28.1156C67.0267 25.9256 66.9935 23.065 69.1916 21.8251C71.0705 20.7652 73.2269 22.4375 73.3145 24.43C73.3696 25.6847 72.7789 26.8816 71.8815 27.7331C71.7296 27.8772 71.7361 28.1363 71.8815 28.2815C74.1524 30.5489 76.4234 32.8162 78.6944 35.0835C78.8258 35.2147 79.0058 35.2175 79.1643 35.1442C83.3135 33.2243 87.4422 31.2596 91.5272 29.2065C93.1252 28.4033 94.7128 27.5798 96.3059 26.7672C96.554 26.6406 96.8024 26.5136 97.0449 26.3765C97.2226 26.2761 97.4565 26.1646 97.5154 25.9507C97.5645 25.7722 97.4639 25.584 97.4071 25.4189C97.3337 25.2055 97.2585 24.9926 97.1816 24.7805C97.032 24.3679 96.8759 23.9577 96.7135 23.5501C95.4179 20.2979 93.7363 17.2004 91.6871 14.361C89.6313 11.5124 87.2197 8.91337 84.4618 6.73216C81.7322 4.5733 78.6872 2.82666 75.4009 1.66776C74.9964 1.52511 74.5885 1.39227 74.1781 1.26755C73.6995 1.12211 73.495 1.87046 73.972 2.01543C77.2108 2.9997 80.243 4.57001 82.9729 6.56605C85.7157 8.57147 88.1455 11.0082 90.225 13.6912C92.3045 16.3743 94.0416 19.3282 95.4108 22.4331C95.7466 23.1947 96.0579 23.967 96.3463 24.7478C96.4197 24.9465 96.4916 25.1457 96.5619 25.3455C96.5947 25.4386 96.6272 25.5318 96.6593 25.6251C96.6762 25.6744 96.6899 25.7408 96.7139 25.785L96.741 25.865L96.8545 25.5899C96.8531 25.5956 96.9183 25.551 96.8395 25.597C96.8084 25.6151 96.7782 25.6347 96.7473 25.6531C96.6358 25.7192 96.5213 25.7805 96.407 25.8415C95.0469 26.5677 93.6635 27.2562 92.289 27.9542C88.33 29.9646 84.3276 31.8883 80.3033 33.7639C79.7935 34.0015 79.2834 34.2383 78.773 34.4745L79.2429 34.5351C76.9719 32.2678 74.7009 30.0005 72.43 27.7331V28.2816C74.2569 26.5482 74.8191 23.4329 72.7603 21.6364C71.8645 20.8546 70.6437 20.4918 69.487 20.8563C68.3332 21.2199 67.4224 22.1809 66.9283 23.2634C66.2355 24.781 66.2685 26.4838 66.319 28.1155L66.6037 27.7416C65.4107 28.0559 64.2178 28.3702 63.0249 28.6845L63.4628 28.8627C61.769 24.9487 60.8035 20.7174 60.621 16.4574C60.5697 15.2602 60.5812 14.0613 60.6509 12.8651C60.6743 12.4627 60.1226 12.3625 59.9282 12.6694C58.6522 14.6834 57.3762 16.6974 56.1002 18.7115L56.3319 18.5332C54.3894 19.0989 52.4196 19.5648 50.4294 19.9293L50.9203 20.3032C50.6492 18.0783 50.6575 15.8298 50.9448 13.6069C50.9662 13.4412 50.8091 13.274 50.6601 13.2329C50.4802 13.1833 50.3286 13.2731 50.2222 13.4111C49.0721 14.9033 48.5503 16.7382 47.6741 18.3831C47.2348 19.2077 46.699 19.9692 45.9692 20.5625C45.0865 21.2801 44.0289 21.8047 43.0519 22.3799C41.8469 23.0892 40.6418 23.7986 39.4368 24.508L40.0203 24.8428C40.3246 21.5244 41.0687 18.2134 42.3966 15.1494C43.691 12.1629 45.5325 9.4169 47.9283 7.20267C50.0747 5.21891 52.626 3.68199 55.3491 2.62959C58.1271 1.55602 61.0803 0.955928 64.053 0.811096C67.0313 0.665993 70.0285 0.9649 72.9144 1.7179C73.2688 1.81038 73.6212 1.90998 73.972 2.01543C74.451 2.15943 74.6557 1.4111 74.1781 1.26755Z" fill="black"/>
</svg>
