<svg width="195" height="258" viewBox="0 0 195 258" fill="none" xmlns="http://www.w3.org/2000/svg">
<rect y="2" width="195" height="256" rx="10" fill="#BDD9F4"/>
<path d="M14.2637 203.566H16.0264L15.0615 208.762H12.7051L14.2637 203.566ZM24.9141 202.138C26.1882 202.138 27.2736 202.249 28.1704 202.472C29.0734 202.694 29.763 203.022 30.2393 203.455C30.7155 203.882 30.9567 204.401 30.9629 205.014C30.9567 205.941 30.4279 206.653 29.3765 207.147C28.325 207.642 26.8376 207.896 24.9141 207.908C22.9844 207.896 21.4938 207.642 20.4424 207.147C19.391 206.653 18.8652 205.941 18.8652 205.014C18.8652 204.401 19.1034 203.882 19.5796 203.455C20.0558 203.022 20.7454 202.694 21.6484 202.472C22.5514 202.249 23.64 202.138 24.9141 202.138ZM24.9141 203.659C23.64 203.659 22.672 203.777 22.0103 204.012C21.3485 204.241 21.0238 204.575 21.0361 205.014C21.0299 205.471 21.3516 205.812 22.001 206.034C22.6504 206.257 23.6214 206.368 24.9141 206.368C26.2253 206.368 27.2056 206.257 27.855 206.034C28.5044 205.812 28.8291 205.471 28.8291 205.014C28.8291 204.575 28.4982 204.241 27.8364 204.012C27.1746 203.777 26.2005 203.659 24.9141 203.659ZM32.5771 210.45H17.2881V208.799H32.5771V210.45ZM30.666 215.683H21.1289V216.926H31.1299V218.503H19.1064V214.217H28.6436V213.104H19.0879V211.582H30.666V215.683ZM35.6201 208.78H33.8574L34.8223 203.585H37.1787L35.6201 208.78ZM49.2764 206.646C49.2764 207.568 49.4495 208.48 49.7959 209.383C50.1484 210.28 50.6494 211.087 51.2988 211.805C51.9544 212.516 52.7214 213.054 53.5996 213.419L52.4678 215.052C51.4967 214.637 50.6525 214.016 49.9351 213.187C49.2176 212.358 48.661 211.396 48.2651 210.302C47.8693 211.477 47.3096 212.519 46.5859 213.428C45.8685 214.331 45.0273 215.008 44.0625 215.46L42.875 213.846C43.7347 213.45 44.4893 212.868 45.1387 212.102C45.7943 211.335 46.2983 210.475 46.6509 209.522C47.0034 208.564 47.1797 207.605 47.1797 206.646V205.236H43.4873V203.529H52.9502V205.236H49.2764V206.646ZM56.9023 218.651H54.8242V201.878H56.9023V218.651ZM73.416 218.651H71.3564V214.217H61.9863V212.584H73.416V218.651ZM73.416 211.786H71.3564V209.56H67.4229C67.0208 210.011 66.526 210.364 65.9385 210.617C65.3509 210.865 64.7139 210.988 64.0273 210.988C63.1924 210.988 62.4378 210.812 61.7637 210.459C61.0895 210.107 60.5576 209.618 60.168 208.994C59.7845 208.369 59.5928 207.661 59.5928 206.869C59.5928 206.096 59.7845 205.4 60.168 204.782C60.5514 204.163 61.0771 203.681 61.7451 203.334C62.4131 202.982 63.1615 202.806 63.9902 202.806C64.6953 202.806 65.3385 202.926 65.9199 203.167C66.5075 203.409 67.0023 203.752 67.4043 204.197H71.3564V201.878H73.416V211.786ZM64.0273 204.55C63.5511 204.55 63.1243 204.649 62.7471 204.847C62.376 205.038 62.0853 205.311 61.875 205.663C61.6647 206.009 61.5596 206.411 61.5596 206.869C61.5596 207.345 61.6616 207.763 61.8657 208.122C62.076 208.474 62.3667 208.749 62.7378 208.947C63.1151 209.139 63.5449 209.238 64.0273 209.244C64.485 209.238 64.8963 209.139 65.2612 208.947C65.6323 208.749 65.923 208.471 66.1333 208.112C66.3436 207.754 66.4518 207.339 66.458 206.869C66.4518 206.411 66.3405 206.009 66.124 205.663C65.9137 205.311 65.6261 205.038 65.2612 204.847C64.8963 204.649 64.485 204.55 64.0273 204.55ZM71.3564 207.89V205.886H68.3042C68.3846 206.226 68.4248 206.554 68.4248 206.869C68.4248 207.215 68.3815 207.556 68.2949 207.89H71.3564ZM91.0801 212.194H75.791V210.543H91.0801V212.194ZM89.3545 218.317H77.6836V213.438H79.7432V216.647H89.3545V218.317ZM83.417 202.416C84.6292 202.416 85.6899 202.552 86.5991 202.824C87.5083 203.096 88.2103 203.489 88.7051 204.002C89.2061 204.51 89.4596 205.113 89.4658 205.812C89.4596 206.517 89.2061 207.129 88.7051 207.648C88.2103 208.162 87.5083 208.558 86.5991 208.836C85.6899 209.108 84.6292 209.244 83.417 209.244C82.2048 209.244 81.141 209.108 80.2256 208.836C79.3164 208.558 78.6113 208.162 78.1104 207.648C77.6156 207.129 77.3682 206.517 77.3682 205.812C77.3682 205.113 77.6156 204.51 78.1104 204.002C78.6113 203.489 79.3164 203.096 80.2256 202.824C81.141 202.552 82.2048 202.416 83.417 202.416ZM83.417 204.067C82.1924 204.067 81.2337 204.222 80.541 204.531C79.8545 204.834 79.5143 205.261 79.5205 205.812C79.5143 206.183 79.6659 206.501 79.9751 206.767C80.2905 207.033 80.7389 207.234 81.3203 207.37C81.9079 207.5 82.6068 207.562 83.417 207.556C84.6478 207.568 85.6064 207.423 86.293 207.12C86.9857 206.81 87.332 206.374 87.332 205.812C87.332 205.255 86.9857 204.825 86.293 204.522C85.6064 204.219 84.6478 204.067 83.417 204.067ZM112.028 213.048H105.349V218.633H103.308V213.048H96.7021V211.378H112.028V213.048ZM110.154 209.411H98.5762V202.731H110.154V209.411ZM100.599 207.797H108.095V204.383H100.599V207.797ZM128.431 212.083H113.142V210.432H128.431V212.083ZM126.705 218.317H115.034V213.438H117.094V216.647H126.705V218.317ZM121.844 202.991C121.844 203.672 122.085 204.336 122.567 204.986C123.056 205.635 123.736 206.198 124.608 206.674C125.487 207.151 126.482 207.475 127.596 207.648L126.761 209.281C125.412 209.052 124.216 208.613 123.17 207.964C122.125 207.314 121.33 206.526 120.786 205.598C120.242 206.526 119.444 207.318 118.393 207.973C117.347 208.623 116.147 209.059 114.793 209.281L113.977 207.648C115.09 207.475 116.083 207.154 116.955 206.684C117.827 206.207 118.504 205.645 118.986 204.995C119.475 204.346 119.722 203.678 119.729 202.991V202.342H121.844V202.991ZM149.36 211.415H134.071V209.745H149.36V211.415ZM148.024 208.502H142.198V202.694H147.913V204.327H144.276V206.851H148.024V208.502ZM141.326 204.327H137.56V206.851C138.283 206.838 138.951 206.801 139.563 206.739C140.182 206.671 140.813 206.566 141.456 206.424L141.642 208.094C140.831 208.261 140.046 208.372 139.285 208.428C138.524 208.477 137.597 208.502 136.502 208.502H135.5V202.694H141.326V204.327ZM142.773 212.881C142.773 213.536 142.993 214.149 143.432 214.718C143.877 215.287 144.514 215.769 145.343 216.165C146.178 216.555 147.165 216.814 148.303 216.944L147.542 218.559C146.188 218.367 145.009 217.999 144.007 217.455C143.005 216.917 142.248 216.239 141.734 215.423C141.221 216.239 140.463 216.917 139.461 217.455C138.459 217.999 137.281 218.367 135.927 218.559L135.185 216.944C136.316 216.814 137.297 216.555 138.125 216.165C138.954 215.769 139.585 215.287 140.018 214.718C140.457 214.149 140.677 213.536 140.677 212.881V212.491H142.773V212.881ZM153.331 212.881C153.337 212.12 153.411 211.505 153.554 211.035C153.696 210.565 153.894 210.19 154.147 209.912C154.407 209.628 154.754 209.349 155.187 209.077C155.626 208.799 155.966 208.496 156.207 208.168C156.454 207.834 156.578 207.451 156.578 207.018C156.578 206.677 156.498 206.381 156.337 206.127C156.176 205.867 155.957 205.666 155.678 205.524C155.406 205.382 155.1 205.311 154.76 205.311C154.438 205.311 154.138 205.379 153.86 205.515C153.582 205.651 153.353 205.858 153.173 206.136C153 206.415 152.904 206.752 152.886 207.147H150.566C150.585 206.343 150.783 205.66 151.16 205.097C151.537 204.528 152.042 204.101 152.672 203.817C153.303 203.526 154.005 203.381 154.778 203.381C155.607 203.381 156.34 203.529 156.977 203.826C157.62 204.117 158.118 204.534 158.471 205.079C158.829 205.623 159.009 206.257 159.009 206.98C159.009 207.698 158.839 208.316 158.499 208.836C158.165 209.355 157.679 209.807 157.042 210.19C156.671 210.413 156.374 210.645 156.151 210.886C155.935 211.121 155.774 211.396 155.669 211.712C155.564 212.027 155.508 212.417 155.502 212.881V213.048H153.331V212.881ZM154.481 217.148C154.222 217.148 153.98 217.083 153.758 216.954C153.535 216.824 153.359 216.647 153.229 216.425C153.099 216.202 153.034 215.961 153.034 215.701C153.034 215.448 153.099 215.213 153.229 214.996C153.359 214.773 153.535 214.597 153.758 214.467C153.98 214.337 154.222 214.272 154.481 214.272C154.729 214.272 154.961 214.337 155.177 214.467C155.4 214.597 155.576 214.773 155.706 214.996C155.842 215.213 155.91 215.448 155.91 215.701C155.91 215.961 155.842 216.202 155.706 216.425C155.576 216.647 155.4 216.824 155.177 216.954C154.961 217.083 154.729 217.148 154.481 217.148Z" fill="#2C2C2C"/>
<path d="M15.8027 229.253C15.8027 229.779 15.9191 230.304 16.1519 230.827C16.3846 231.346 16.6979 231.81 17.0918 232.218C17.4893 232.622 17.9225 232.927 18.3916 233.131L17.9189 233.797C17.3568 233.539 16.8501 233.151 16.3989 232.631C15.9478 232.109 15.6112 231.52 15.3892 230.864C15.1672 231.566 14.8306 232.202 14.3794 232.771C13.9318 233.337 13.4359 233.757 12.8916 234.033L12.3867 233.367C12.8379 233.149 13.2586 232.819 13.6489 232.379C14.0428 231.938 14.3579 231.443 14.5942 230.891C14.8306 230.336 14.9505 229.79 14.9541 229.253V228.007H12.6982V227.309H18.0801V228.007H15.8027V229.253ZM20.2607 235.87H19.4121V226.32H20.2607V235.87ZM29.8105 235.87H28.9619V233.152H23.3867V232.476H29.8105V235.87ZM29.8105 231.949H28.9619V230.574H26.4966C26.2746 230.85 25.9917 231.063 25.6479 231.213C25.3042 231.36 24.9229 231.434 24.5039 231.434C24.0348 231.434 23.6123 231.337 23.2363 231.144C22.8639 230.947 22.5721 230.674 22.3608 230.327C22.1496 229.98 22.0439 229.586 22.0439 229.146C22.0439 228.709 22.1514 228.318 22.3662 227.975C22.5811 227.627 22.8765 227.357 23.2524 227.164C23.6284 226.967 24.0527 226.868 24.5254 226.868C24.9336 226.868 25.3078 226.943 25.6479 227.094C25.9881 227.244 26.271 227.455 26.4966 227.728H28.9619V226.32H29.8105V231.949ZM24.5254 227.588C24.2031 227.588 23.9149 227.656 23.6606 227.792C23.4064 227.924 23.2077 228.109 23.0645 228.345C22.9212 228.582 22.8496 228.848 22.8496 229.146C22.8496 229.453 22.9212 229.727 23.0645 229.967C23.2077 230.207 23.4064 230.393 23.6606 230.526C23.9149 230.658 24.2031 230.725 24.5254 230.725C24.8333 230.725 25.1126 230.658 25.3633 230.526C25.6175 230.39 25.8162 230.202 25.9595 229.962C26.1063 229.722 26.1797 229.45 26.1797 229.146C26.1797 228.848 26.1063 228.582 25.9595 228.345C25.8162 228.109 25.6175 227.924 25.3633 227.792C25.1126 227.656 24.8333 227.588 24.5254 227.588ZM28.9619 229.876V228.426H26.8779C26.9567 228.662 26.9961 228.902 26.9961 229.146C26.9961 229.396 26.9567 229.64 26.8779 229.876H28.9619ZM38.9521 227.781C38.9521 228.397 38.936 228.943 38.9038 229.419C38.8752 229.896 38.8 230.438 38.6782 231.047H40.1016V231.745H36.1592V235.892H35.3105V231.745H31.4004V231.047H37.8242C37.9531 230.438 38.0337 229.894 38.0659 229.414C38.0981 228.934 38.1143 228.39 38.1143 227.781V227.642H32.4961V226.943H38.9521V227.781ZM51.542 235.892H50.6934V226.32H51.542V235.892ZM46.4609 227.062C46.9336 227.065 47.3543 227.205 47.7231 227.48C48.092 227.753 48.3802 228.139 48.5879 228.641C48.7956 229.142 48.8994 229.726 48.8994 230.392C48.8994 231.058 48.7956 231.641 48.5879 232.143C48.3802 232.644 48.092 233.031 47.7231 233.303C47.3543 233.575 46.9336 233.711 46.4609 233.711C45.9883 233.711 45.5658 233.575 45.1934 233.303C44.8245 233.031 44.5363 232.644 44.3286 232.143C44.1245 231.641 44.0225 231.058 44.0225 230.392C44.0225 229.726 44.1245 229.142 44.3286 228.641C44.5363 228.139 44.8245 227.753 45.1934 227.48C45.5622 227.205 45.9847 227.065 46.4609 227.062ZM46.4609 227.813C46.1423 227.817 45.8594 227.926 45.6123 228.141C45.3688 228.352 45.179 228.653 45.043 229.043C44.9069 229.43 44.8389 229.88 44.8389 230.392C44.8389 230.904 44.9069 231.355 45.043 231.745C45.179 232.132 45.3706 232.431 45.6177 232.642C45.8647 232.853 46.1458 232.959 46.4609 232.959C46.776 232.959 47.0571 232.853 47.3042 232.642C47.5513 232.431 47.7428 232.132 47.8789 231.745C48.015 231.355 48.083 230.904 48.083 230.392C48.083 229.88 48.015 229.43 47.8789 229.043C47.7428 228.653 47.5513 228.352 47.3042 228.141C47.0607 227.926 46.7796 227.817 46.4609 227.813ZM61.9082 231.949H53.1641V231.251H61.9082V231.949ZM60.7803 228.812H55.1406V229.769H60.9844V230.424H54.3027V228.179H59.9316V227.233H54.2705V226.557H60.7803V228.812ZM60.7803 235.741H54.3564V232.819H60.7803V235.741ZM55.1836 235.054H59.9531V233.507H55.1836V235.054ZM63.4121 237.202H62.6172L63.208 234.28H64.25L63.4121 237.202ZM75.7227 228.394H77.1621V229.103H75.7227V231.187H74.8848V226.32H75.7227V228.394ZM75.7227 233.969H70.4805V235.064H76.0771V235.741H69.6533V233.324H74.8848V232.314H69.6318V231.638H75.7227V233.969ZM70.9209 226.675C71.3971 226.678 71.8232 226.77 72.1992 226.949C72.5752 227.128 72.8688 227.378 73.0801 227.701C73.2949 228.019 73.4023 228.383 73.4023 228.791C73.4023 229.203 73.2949 229.572 73.0801 229.897C72.8688 230.22 72.5752 230.47 72.1992 230.649C71.8232 230.828 71.3971 230.918 70.9209 230.918C70.4482 230.918 70.0221 230.828 69.6426 230.649C69.2666 230.467 68.9712 230.214 68.7563 229.892C68.5415 229.57 68.4359 229.203 68.4395 228.791C68.4359 228.383 68.5415 228.019 68.7563 227.701C68.9712 227.378 69.2666 227.128 69.6426 226.949C70.0221 226.77 70.4482 226.678 70.9209 226.675ZM70.9209 227.384C70.6058 227.38 70.3211 227.439 70.0669 227.561C69.8162 227.679 69.6193 227.846 69.4761 228.061C69.3328 228.275 69.263 228.519 69.2666 228.791C69.263 229.067 69.3328 229.314 69.4761 229.532C69.6193 229.751 69.8162 229.923 70.0669 230.048C70.3211 230.17 70.6058 230.23 70.9209 230.23C71.236 230.23 71.5189 230.17 71.7695 230.048C72.0202 229.923 72.2171 229.751 72.3604 229.532C72.5036 229.314 72.5752 229.067 72.5752 228.791C72.5752 228.519 72.5036 228.275 72.3604 228.061C72.2171 227.846 72.0202 227.679 71.7695 227.561C71.5189 227.439 71.236 227.38 70.9209 227.384ZM83.2529 228.061H82.1895V232.658C82.7946 232.615 83.2995 232.569 83.7041 232.519L83.7471 233.142C82.8519 233.285 81.9173 233.38 80.9434 233.426C79.9694 233.473 78.9059 233.5 77.7529 233.507L77.6455 232.787L78.9346 232.782V228.061H77.8818V227.362H83.2529V228.061ZM85.1543 230.155H86.7549V230.864H85.1543V235.87H84.3164V226.32H85.1543V230.155ZM79.751 232.766C80.2344 232.755 80.7786 232.735 81.3838 232.707V228.061H79.751V232.766ZM88.5059 228.49H90.6328V226.976H91.4277V228.834H92.749V226.535H93.5547V231.938H92.749V229.543H91.4277V231.412H87.7109V226.976H88.5059V228.49ZM90.6328 230.725V229.167H88.5059V230.725H90.6328ZM95.3809 232.819H94.5752V226.32H95.3809V232.819ZM92.6094 232.766C92.6094 233.16 92.7651 233.527 93.0767 233.867C93.3882 234.203 93.7982 234.486 94.3066 234.715C94.8151 234.944 95.3558 235.097 95.9287 235.172L95.6064 235.827C95.1159 235.752 94.645 235.625 94.1938 235.446C93.7463 235.27 93.347 235.048 92.9961 234.78C92.6488 234.511 92.3802 234.209 92.1904 233.872C91.9971 234.209 91.7249 234.511 91.374 234.78C91.0267 235.048 90.6292 235.27 90.1816 235.446C89.734 235.625 89.265 235.752 88.7744 235.827L88.4629 235.172C89.0286 235.097 89.564 234.944 90.0688 234.715C90.5737 234.486 90.9819 234.203 91.2935 233.867C91.6086 233.527 91.7679 233.16 91.7715 232.766V232.465H92.6094V232.766ZM102.095 227.062C102.564 227.065 102.979 227.205 103.341 227.48C103.706 227.753 103.991 228.139 104.195 228.641C104.403 229.142 104.508 229.726 104.512 230.392C104.508 231.058 104.403 231.641 104.195 232.143C103.991 232.644 103.706 233.031 103.341 233.303C102.976 233.575 102.56 233.711 102.095 233.711C101.626 233.711 101.208 233.575 100.843 233.303C100.478 233.031 100.193 232.644 99.9893 232.143C99.7887 231.641 99.6885 231.058 99.6885 230.392C99.6885 229.726 99.7887 229.142 99.9893 228.641C100.193 228.139 100.478 227.753 100.843 227.48C101.208 227.205 101.626 227.065 102.095 227.062ZM102.095 227.813C101.78 227.817 101.5 227.926 101.257 228.141C101.013 228.352 100.824 228.653 100.688 229.043C100.551 229.43 100.483 229.88 100.483 230.392C100.483 230.904 100.551 231.355 100.688 231.745C100.824 232.132 101.013 232.431 101.257 232.642C101.504 232.853 101.783 232.959 102.095 232.959C102.41 232.959 102.687 232.853 102.927 232.642C103.171 232.431 103.359 232.132 103.491 231.745C103.627 231.355 103.695 230.904 103.695 230.392C103.695 229.88 103.627 229.43 103.491 229.043C103.359 228.653 103.171 228.352 102.927 228.141C102.687 227.926 102.41 227.817 102.095 227.813ZM106.929 230.134H108.529V230.864H106.929V235.87H106.091V226.32H106.929V230.134ZM116.919 235.87H116.081V226.32H116.919V235.87ZM110.495 232.68C112.11 232.673 113.632 232.519 115.061 232.218L115.179 232.938C114.366 233.106 113.575 233.228 112.805 233.303C112.035 233.374 111.247 233.41 110.441 233.41H109.668V227.266H110.495V232.68ZM126.211 228.243V228.361C126.204 229.149 126.179 229.856 126.136 230.483C126.096 231.106 126.003 231.827 125.856 232.647L124.997 232.551C125.112 231.985 125.194 231.451 125.244 230.95C125.298 230.449 125.33 230.003 125.341 229.613C125.355 229.222 125.362 228.766 125.362 228.243V227.985H119.476V227.287H126.211V228.243ZM127.253 234.517H118.552V233.818H121.968V230.402H122.795V233.818H127.253V234.517ZM138.21 230.209H139.757V230.918H138.21V235.87H137.372V226.32H138.21V230.209ZM135.739 227.352C135.739 228.773 135.383 230.062 134.67 231.219C133.958 232.372 132.853 233.317 131.356 234.055L130.884 233.389C132.112 232.776 133.063 232.021 133.736 231.122C134.409 230.22 134.794 229.199 134.891 228.061H131.324V227.352H135.739ZM149.264 230.843H147.717V235.87H146.879V226.32H147.717V230.134H149.264V230.843ZM141.562 232.733C142.31 232.73 143.042 232.694 143.758 232.626C144.474 232.558 145.207 232.447 145.955 232.293L146.062 233.013C145.285 233.17 144.525 233.281 143.78 233.346C143.039 233.41 142.274 233.442 141.486 233.442H140.724V227.266H141.562V232.733ZM157.224 230.102H158.824V230.811H157.224V235.892H156.386V226.32H157.224V230.102ZM154.71 227.953H151.09V232.787C151.981 232.787 152.76 232.762 153.426 232.712C154.092 232.662 154.771 232.572 155.462 232.443L155.569 233.174C154.864 233.303 154.171 233.389 153.491 233.432C152.81 233.475 151.981 233.496 151.004 233.496H150.252V227.255H154.71V227.953ZM164.131 227.051C164.131 227.452 164.296 227.839 164.625 228.211C164.954 228.583 165.381 228.902 165.903 229.167C166.43 229.432 166.97 229.607 167.525 229.693L167.192 230.359C166.705 230.277 166.231 230.136 165.769 229.935C165.311 229.731 164.901 229.48 164.539 229.183C164.177 228.882 163.898 228.551 163.701 228.189C163.508 228.558 163.229 228.893 162.863 229.194C162.502 229.495 162.09 229.745 161.628 229.946C161.166 230.146 160.69 230.288 160.199 230.37L159.866 229.704C160.428 229.618 160.971 229.444 161.494 229.183C162.016 228.922 162.441 228.605 162.767 228.232C163.096 227.856 163.261 227.463 163.261 227.051V226.567H164.131V227.051ZM168.073 231.885H164.185V233.84H163.347V231.885H159.329V231.187H168.073V231.885ZM167.096 235.666H160.446V232.905H161.295V234.957H167.096V235.666ZM170.318 232.809H169.416L169.341 227.223H170.394L170.318 232.809ZM169.867 235.064C169.742 235.064 169.625 235.034 169.518 234.973C169.414 234.909 169.33 234.823 169.266 234.715C169.205 234.608 169.176 234.492 169.18 234.366C169.176 234.244 169.205 234.132 169.266 234.028C169.33 233.92 169.414 233.836 169.518 233.775C169.625 233.711 169.742 233.679 169.867 233.679C169.989 233.679 170.102 233.711 170.206 233.775C170.313 233.836 170.397 233.92 170.458 234.028C170.522 234.132 170.555 234.244 170.555 234.366C170.555 234.492 170.522 234.608 170.458 234.715C170.397 234.823 170.313 234.909 170.206 234.973C170.102 235.034 169.989 235.064 169.867 235.064Z" fill="#2C2C2C"/>
<path d="M164.786 173.35C165.235 173.351 165.68 173.448 166.095 173.636C166.51 173.823 166.888 174.099 167.206 174.446L167.208 174.448L167.737 175.021L167.994 175.299L168.251 175.02L168.772 174.454C169.092 174.107 169.473 173.834 169.89 173.648C170.306 173.463 170.752 173.368 171.201 173.369C171.651 173.37 172.097 173.467 172.513 173.655C172.929 173.843 173.308 174.118 173.626 174.467L173.627 174.469C174.278 175.173 174.648 176.129 174.65 177.13C174.653 178.13 174.288 179.088 173.642 179.797L168.177 185.709V185.71C168.088 185.806 167.956 185.806 167.867 185.71V185.709L162.375 179.763C161.014 178.289 161.008 175.897 162.36 174.433C162.68 174.087 163.06 173.814 163.476 173.629C163.892 173.444 164.337 173.348 164.786 173.35Z" fill="#F7F8FA" fill-opacity="0.38" stroke="#F7F8FA" stroke-width="0.7"/>
<g filter="url(#filter0_d_128_572)">
<path d="M132 64V2H175V64L153.5 56.5L132 64Z" fill="#FF5148"/>
</g>
<path d="M142.862 19V10.5138H144.151V14.1975H148.373V10.5138H149.666V19H148.373V15.3039H144.151V19H142.862ZM158.769 14.7569C158.769 17.471 157.14 19.116 154.944 19.116C152.736 19.116 151.12 17.4669 151.12 14.7569C151.12 12.0428 152.736 10.3978 154.944 10.3978C157.14 10.3978 158.769 12.0428 158.769 14.7569ZM152.4 14.7569C152.4 16.8204 153.486 17.9392 154.944 17.9392C156.403 17.9392 157.488 16.8204 157.488 14.7569C157.488 12.6934 156.403 11.5746 154.944 11.5746C153.486 11.5746 152.4 12.6934 152.4 14.7569ZM159.447 11.6243V10.5138H166.023V11.6243H163.384V19H162.095V11.6243H159.447Z" fill="#F7B0B0"/>
<path d="M146.812 47L146.802 44.7369L153.912 37.557C156.165 35.2238 157.287 33.932 157.297 32.1295C157.287 30.1067 155.645 28.8249 153.492 28.8249C151.219 28.8249 149.767 30.2569 149.767 32.4499H146.802C146.792 28.6948 149.646 26.2113 153.552 26.2113C157.507 26.2113 160.241 28.7148 160.261 32.0394C160.241 34.3325 159.16 36.1651 155.314 39.9403L151.148 44.1761V44.3263H160.592V47H146.812Z" fill="white"/>
<rect x="12.25" y="166.25" width="61.5" height="23.5" rx="11.75" fill="white" fill-opacity="0.3"/>
<rect x="12.25" y="166.25" width="61.5" height="23.5" rx="11.75" stroke="white" stroke-width="0.5"/>
<path d="M30.7431 173.157V174.081C30.739 175.072 30.739 176.153 30.453 177.653H31.9613V178.561H27.7017V183.011H26.587V178.561H22.3895V177.653H29.3218C29.6367 176.157 29.6367 175.059 29.6367 174.081V174.061H23.5539V173.157H30.7431ZM41.512 179.232V182.994H40.4015V180.115H34.3932V179.232H41.512ZM32.9139 175.61C32.9056 174.131 34.0824 173.075 35.6611 173.083C36.552 173.079 37.3186 173.423 37.8076 173.994H40.4015V172.494H41.512V178.685H40.4015V177.239H37.8117C37.3186 177.815 36.5562 178.163 35.6611 178.159C34.0824 178.163 32.9056 177.11 32.9139 175.61ZM33.9705 175.61C33.9705 176.576 34.675 177.214 35.6611 177.214C36.61 177.214 37.331 176.576 37.331 175.61C37.331 174.674 36.61 174.023 35.6611 174.023C34.675 174.023 33.9705 174.674 33.9705 175.61ZM38.2965 176.331H40.4015V174.906H38.2965C38.3587 175.126 38.396 175.362 38.396 175.61C38.396 175.863 38.3587 176.108 38.2965 176.331ZM52.7242 177.993V178.888H48.5599V180.819H47.4577V178.888H43.1151V177.993H52.7242ZM44.3126 182.779V179.899H45.4148V181.867H51.6593V182.779H44.3126ZM44.3831 177.065V172.83H45.4894V174.094H50.3541V172.83H51.4604V177.065H44.3831ZM45.4894 176.174H50.3541V174.935H45.4894V176.174ZM61.7528 172.461V174.923H63.2818V175.83H61.7528V178.233H60.6381V172.461H61.7528ZM53.5152 174.26V173.39H56.0926V172.399H57.1989V173.39H59.7638V174.26H53.5152ZM54.087 176.381C54.0829 175.325 55.0981 174.662 56.6437 174.662C58.181 174.662 59.1837 175.325 59.1879 176.381C59.1837 177.454 58.181 178.101 56.6437 178.101C55.0981 178.101 54.0829 177.454 54.087 176.381ZM54.9613 179.555V178.735H61.7528V181.171H56.0801V182.05H62.1091V182.895H54.9862V180.38H60.6464V179.555H54.9613ZM55.1602 176.381C55.152 176.953 55.7362 177.285 56.6437 177.289C57.5428 177.285 58.1271 176.953 58.1354 176.381C58.1271 175.818 57.5428 175.465 56.6437 175.465C55.7362 175.465 55.152 175.818 55.1602 176.381Z" fill="#2C2C2C"/>
<defs>
<filter id="filter0_d_128_572" x="128" y="0" width="51" height="70" filterUnits="userSpaceOnUse" color-interpolation-filters="sRGB">
<feFlood flood-opacity="0" result="BackgroundImageFix"/>
<feColorMatrix in="SourceAlpha" type="matrix" values="0 0 0 0 0 0 0 0 0 0 0 0 0 0 0 0 0 0 127 0" result="hardAlpha"/>
<feOffset dy="2"/>
<feGaussianBlur stdDeviation="2"/>
<feComposite in2="hardAlpha" operator="out"/>
<feColorMatrix type="matrix" values="0 0 0 0 0 0 0 0 0 0 0 0 0 0 0 0 0 0 0.15 0"/>
<feBlend mode="normal" in2="BackgroundImageFix" result="effect1_dropShadow_128_572"/>
<feBlend mode="normal" in="SourceGraphic" in2="effect1_dropShadow_128_572" result="shape"/>
</filter>
</defs>
</svg>
