<svg width="195" height="258" viewBox="0 0 195 258" fill="none" xmlns="http://www.w3.org/2000/svg">
<rect y="2" width="195" height="256" rx="10" fill="url(#paint0_linear_128_573)"/>
<path d="M26.0088 203.919C26.0088 204.785 25.9871 205.555 25.9438 206.229C25.9067 206.903 25.8078 207.655 25.647 208.483H27.8828V210.153H21.2217V212.77H26.0459V218.651H23.9863V214.421H14.1152V212.77H19.1621V210.153H12.5566V208.483H23.5781C23.7266 207.71 23.8255 206.999 23.875 206.35C23.9245 205.694 23.9492 205.007 23.9492 204.29H14.4492V202.639H26.0088V203.919ZM42.9492 218.651H40.8896V201.878H42.9492V218.651ZM29.7939 213.994C30.3815 213.988 31.0155 213.982 31.6958 213.976C32.3761 213.963 32.973 213.951 33.4863 213.938V212.398C32.8555 212.299 32.305 212.111 31.835 211.833C31.3711 211.554 31.0093 211.205 30.7495 210.784C30.4959 210.357 30.3691 209.881 30.3691 209.355C30.3691 208.731 30.5423 208.18 30.8887 207.704C31.235 207.228 31.7174 206.86 32.3359 206.6C32.9606 206.334 33.6781 206.201 34.4883 206.201C35.3047 206.201 36.0283 206.334 36.6592 206.6C37.29 206.86 37.7817 207.228 38.1343 207.704C38.4868 208.18 38.6631 208.731 38.6631 209.355C38.6631 209.875 38.5332 210.345 38.2734 210.766C38.0199 211.186 37.658 211.539 37.188 211.823C36.7179 212.102 36.1706 212.29 35.5459 212.389V213.864C37.1045 213.796 38.5579 213.673 39.9062 213.493L40.0547 215.033C38.4157 215.312 36.7334 215.494 35.0078 215.581C33.2822 215.661 31.3958 215.701 29.3486 215.701L29.0518 213.994H29.7939ZM39.6094 205.44H29.4043V203.808H33.4863V201.934H35.5459V203.808H39.6094V205.44ZM34.4883 207.778C33.8389 207.791 33.3162 207.936 32.9204 208.214C32.5246 208.493 32.3298 208.873 32.3359 209.355C32.3298 209.671 32.4163 209.946 32.5957 210.181C32.7812 210.41 33.0379 210.586 33.3657 210.71C33.6935 210.827 34.0677 210.883 34.4883 210.877C35.1501 210.889 35.6789 210.759 36.0747 210.487C36.4767 210.209 36.6777 209.832 36.6777 209.355C36.6777 208.873 36.4798 208.493 36.084 208.214C35.6882 207.936 35.1562 207.791 34.4883 207.778ZM58.9805 208.261H47.3652V202.49H49.4062V206.628H58.9805V208.261ZM60.7061 211.842H45.3799V210.209H60.7061V211.842ZM59.0918 218.262H47.2168V213.326H49.2764V216.592H59.0918V218.262ZM80.4854 218.633H78.3887V214.811H74.8262V213.233H78.3887V201.896H80.4854V218.633ZM66.792 210.543C69.0618 210.531 70.9946 210.5 72.5903 210.45C74.186 210.401 75.7354 210.296 77.2383 210.135L77.3682 211.656C75.9642 211.848 74.4056 211.996 72.6924 212.102V218.132H70.6143V212.194C69.4639 212.231 68.097 212.25 66.5137 212.25L66.2539 210.543H66.792ZM76.0322 208.966H67.6641V202.75H76.0322V208.966ZM69.7051 207.333H74.0098V204.401H69.7051V207.333ZM100.395 208.558H102.974V210.265H100.395V218.651H98.3535V201.878H100.395V208.558ZM97.0547 206.108H87.165V204.457H91.1357V202.119H93.1953V204.457H97.0547V206.108ZM92.1748 207.203C92.9727 207.203 93.6901 207.373 94.3271 207.713C94.9704 208.047 95.4744 208.514 95.8394 209.114C96.2043 209.714 96.3867 210.395 96.3867 211.155C96.3867 211.916 96.2043 212.596 95.8394 213.196C95.4744 213.79 94.9704 214.254 94.3271 214.588C93.6901 214.922 92.9727 215.089 92.1748 215.089C91.3646 215.089 90.6379 214.922 89.9946 214.588C89.3514 214.254 88.8473 213.79 88.4824 213.196C88.1175 212.596 87.9382 211.916 87.9443 211.155C87.9382 210.395 88.1175 209.714 88.4824 209.114C88.8473 208.514 89.3514 208.047 89.9946 207.713C90.6379 207.373 91.3646 207.203 92.1748 207.203ZM92.1748 208.892C91.7357 208.892 91.3429 208.984 90.9966 209.17C90.6564 209.355 90.3905 209.621 90.1987 209.968C90.007 210.308 89.9111 210.704 89.9111 211.155C89.9111 211.607 90.007 212.003 90.1987 212.343C90.3905 212.677 90.6564 212.937 90.9966 213.122C91.3429 213.301 91.7357 213.388 92.1748 213.382C92.6016 213.388 92.9819 213.301 93.3159 213.122C93.6561 212.937 93.922 212.677 94.1138 212.343C94.3117 212.003 94.4137 211.607 94.4199 211.155C94.4137 210.704 94.3117 210.308 94.1138 209.968C93.922 209.628 93.6561 209.365 93.3159 209.179C92.9819 208.987 92.6016 208.892 92.1748 208.892ZM117.261 208.261H105.646V202.49H107.687V206.628H117.261V208.261ZM118.986 211.842H103.66V210.209H118.986V211.842ZM117.372 218.262H105.497V213.326H107.557V216.592H117.372V218.262ZM138.005 203.938C138.005 204.816 137.98 205.598 137.931 206.285C137.887 206.965 137.776 207.723 137.597 208.558L135.537 208.354C135.704 207.593 135.812 206.903 135.862 206.285C135.917 205.66 135.945 204.995 135.945 204.29H126.39V202.676H138.005V203.938ZM139.86 211.192H124.646V209.56H130.546V206.35H132.587V209.56H139.86V211.192ZM133.218 212.918C133.218 213.555 133.437 214.158 133.876 214.727C134.322 215.29 134.965 215.772 135.806 216.174C136.647 216.57 137.64 216.839 138.784 216.981L138.023 218.559C136.669 218.373 135.485 218.008 134.47 217.464C133.462 216.926 132.698 216.252 132.179 215.441C131.653 216.252 130.886 216.926 129.878 217.464C128.87 218.008 127.695 218.373 126.353 218.559L125.61 216.981C126.736 216.839 127.716 216.57 128.551 216.174C129.386 215.772 130.023 215.29 130.462 214.727C130.908 214.158 131.133 213.555 131.14 212.918V212.306H133.218V212.918ZM143.868 212.881C143.874 212.12 143.949 211.505 144.091 211.035C144.233 210.565 144.431 210.19 144.685 209.912C144.944 209.628 145.291 209.349 145.724 209.077C146.163 208.799 146.503 208.496 146.744 208.168C146.992 207.834 147.115 207.451 147.115 207.018C147.115 206.677 147.035 206.381 146.874 206.127C146.713 205.867 146.494 205.666 146.215 205.524C145.943 205.382 145.637 205.311 145.297 205.311C144.975 205.311 144.675 205.379 144.397 205.515C144.119 205.651 143.89 205.858 143.71 206.136C143.537 206.415 143.441 206.752 143.423 207.147H141.104C141.122 206.343 141.32 205.66 141.697 205.097C142.075 204.528 142.579 204.101 143.209 203.817C143.84 203.526 144.542 203.381 145.315 203.381C146.144 203.381 146.877 203.529 147.514 203.826C148.157 204.117 148.655 204.534 149.008 205.079C149.367 205.623 149.546 206.257 149.546 206.98C149.546 207.698 149.376 208.316 149.036 208.836C148.702 209.355 148.216 209.807 147.579 210.19C147.208 210.413 146.911 210.645 146.688 210.886C146.472 211.121 146.311 211.396 146.206 211.712C146.101 212.027 146.045 212.417 146.039 212.881V213.048H143.868V212.881ZM145.019 217.148C144.759 217.148 144.518 217.083 144.295 216.954C144.072 216.824 143.896 216.647 143.766 216.425C143.636 216.202 143.571 215.961 143.571 215.701C143.571 215.448 143.636 215.213 143.766 214.996C143.896 214.773 144.072 214.597 144.295 214.467C144.518 214.337 144.759 214.272 145.019 214.272C145.266 214.272 145.498 214.337 145.714 214.467C145.937 214.597 146.113 214.773 146.243 214.996C146.379 215.213 146.447 215.448 146.447 215.701C146.447 215.961 146.379 216.202 146.243 216.425C146.113 216.647 145.937 216.824 145.714 216.954C145.498 217.083 145.266 217.148 145.019 217.148Z" fill="#2C2C2C"/>
<path d="M13.708 228.297H16.3721V226.814H17.1992V228.673H19.4551V226.32H20.3037V231.541H19.4551V229.382H17.1992V231.187H12.8701V226.814H13.708V228.297ZM16.3721 230.499V228.963H13.708V230.499H16.3721ZM14.9971 233.174H19.4551V232.003H20.293V235.741H14.1484V232.003H14.9971V233.174ZM19.4551 235.043V233.851H14.9971V235.043H19.4551ZM29.7676 235.892H28.9189V226.32H29.7676V235.892ZM24.6865 227.062C25.1592 227.065 25.5799 227.205 25.9487 227.48C26.3175 227.753 26.6058 228.139 26.8135 228.641C27.0212 229.142 27.125 229.726 27.125 230.392C27.125 231.058 27.0212 231.641 26.8135 232.143C26.6058 232.644 26.3175 233.031 25.9487 233.303C25.5799 233.575 25.1592 233.711 24.6865 233.711C24.2139 233.711 23.7913 233.575 23.4189 233.303C23.0501 233.031 22.7619 232.644 22.5542 232.143C22.3501 231.641 22.248 231.058 22.248 230.392C22.248 229.726 22.3501 229.142 22.5542 228.641C22.7619 228.139 23.0501 227.753 23.4189 227.48C23.7878 227.205 24.2103 227.065 24.6865 227.062ZM24.6865 227.813C24.3678 227.817 24.085 227.926 23.8379 228.141C23.5944 228.352 23.4046 228.653 23.2686 229.043C23.1325 229.43 23.0645 229.88 23.0645 230.392C23.0645 230.904 23.1325 231.355 23.2686 231.745C23.4046 232.132 23.5962 232.431 23.8433 232.642C24.0903 232.853 24.3714 232.959 24.6865 232.959C25.0016 232.959 25.2827 232.853 25.5298 232.642C25.7769 232.431 25.9684 232.132 26.1045 231.745C26.2406 231.355 26.3086 230.904 26.3086 230.392C26.3086 229.88 26.2406 229.43 26.1045 229.043C25.9684 228.653 25.7769 228.352 25.5298 228.141C25.2863 227.926 25.0052 227.817 24.6865 227.813ZM38.9844 231.584H34.5693V227.19H38.9844V231.584ZM35.3965 230.907H38.168V227.878H35.3965V230.907ZM41.627 229.231H43.0664V229.94H41.627V233.324H40.7891V226.32H41.627V229.231ZM42.0674 235.666H35.6543V232.658H36.4814V234.957H42.0674V235.666ZM52.3799 231.015H43.668V230.338H52.3799V231.015ZM51.3379 229.554H44.8281V226.653H51.2412V227.33H45.6768V228.866H51.3379V229.554ZM51.252 234.087H45.5801V235.075H51.542V235.763H44.7422V233.453H50.4248V232.529H44.7207V231.874H51.252V234.087ZM55.7422 227.062C56.1719 227.065 56.5568 227.185 56.897 227.421C57.2407 227.658 57.5182 227.994 57.7295 228.431C57.9408 228.868 58.0679 229.382 58.1108 229.973H60.2539V226.32H61.0918V235.892H60.2539V230.671H58.1216C58.0894 231.287 57.9694 231.824 57.7617 232.282C57.554 232.741 57.2747 233.093 56.9238 233.34C56.5765 233.587 56.1826 233.711 55.7422 233.711C55.2767 233.711 54.8613 233.575 54.4961 233.303C54.1344 233.031 53.8516 232.644 53.6475 232.143C53.4469 231.641 53.3467 231.058 53.3467 230.392C53.3467 229.726 53.4469 229.142 53.6475 228.641C53.8516 228.139 54.1344 227.753 54.4961 227.48C54.8577 227.205 55.2731 227.065 55.7422 227.062ZM55.7422 227.813C55.4307 227.817 55.1532 227.926 54.9097 228.141C54.6698 228.352 54.4836 228.653 54.3511 229.043C54.2186 229.43 54.1523 229.88 54.1523 230.392C54.1523 230.904 54.2186 231.355 54.3511 231.745C54.4836 232.132 54.6698 232.431 54.9097 232.642C55.1532 232.853 55.4307 232.959 55.7422 232.959C56.0501 232.959 56.3241 232.853 56.564 232.642C56.8075 232.431 56.9954 232.132 57.1279 231.745C57.264 231.355 57.332 230.904 57.332 230.392C57.332 229.88 57.264 229.43 57.1279 229.043C56.9954 228.653 56.8092 228.352 56.5693 228.141C56.3294 227.926 56.0537 227.817 55.7422 227.813ZM66.0977 229.253C66.0977 229.779 66.214 230.304 66.4468 230.827C66.6795 231.346 66.9928 231.81 67.3867 232.218C67.7842 232.622 68.2174 232.927 68.6865 233.131L68.2139 233.797C67.6517 233.539 67.145 233.151 66.6938 232.631C66.2427 232.109 65.9061 231.52 65.6841 230.864C65.4621 231.566 65.1255 232.202 64.6743 232.771C64.2267 233.337 63.7308 233.757 63.1865 234.033L62.6816 233.367C63.1328 233.149 63.5535 232.819 63.9438 232.379C64.3377 231.938 64.6528 231.443 64.8892 230.891C65.1255 230.336 65.2454 229.79 65.249 229.253V228.007H62.9932V227.309H68.375V228.007H66.0977V229.253ZM70.5557 235.87H69.707V226.32H70.5557V235.87ZM79.9121 229.897H73.3701V226.675H74.208V229.221H79.9121V229.897ZM80.9219 231.885H72.1777V231.197H80.9219V231.885ZM79.9658 235.634H73.3164V232.862H74.1543V234.936H79.9658V235.634ZM87.7109 228.372C87.7109 228.762 87.8094 229.138 88.0063 229.5C88.2069 229.858 88.4862 230.177 88.8442 230.456C89.2023 230.732 89.6123 230.943 90.0742 231.09L89.6768 231.745C89.1325 231.57 88.6545 231.308 88.2427 230.961C87.8345 230.61 87.5247 230.2 87.3135 229.731C87.1094 230.257 86.7979 230.719 86.3789 231.117C85.9635 231.511 85.473 231.806 84.9072 232.003L84.499 231.326C84.9609 231.172 85.3727 230.947 85.7344 230.649C86.096 230.349 86.3771 230.001 86.5776 229.607C86.7817 229.214 86.8838 228.802 86.8838 228.372V228.146H84.7246V227.459H86.8838V226.288H87.7324V227.459H89.8701V228.146H87.7109V228.372ZM92.373 232.948H91.5244V229.747H89.5801V229.038H91.5244V226.32H92.373V232.948ZM89.7197 232.497C89.7161 232.93 89.863 233.333 90.1602 233.706C90.4609 234.078 90.8602 234.391 91.3579 234.646C91.8556 234.896 92.3945 235.068 92.9746 235.161L92.6201 235.827C91.8717 235.695 91.1968 235.442 90.5952 235.07C89.9937 234.701 89.555 234.246 89.2793 233.706C89 234.243 88.5578 234.697 87.9526 235.07C87.3475 235.442 86.6725 235.695 85.9277 235.827L85.6162 235.161C86.182 235.064 86.7119 234.889 87.2061 234.635C87.7002 234.377 88.0977 234.062 88.3984 233.689C88.7028 233.317 88.8568 232.92 88.8604 232.497V232.293H89.7197V232.497ZM104.641 233.399H103.792V229.726H101.536V231.767H97.207V226.965H98.0449V228.662H100.709V226.965H101.536V229.017H103.792V226.331H104.641V233.399ZM104.855 235.666H98.4639V232.701H99.3125V234.957H104.855V235.666ZM100.709 231.068V229.328H98.0449V231.068H100.709ZM114.523 235.87H113.718V230.929H112.654V235.387H111.859V226.524H112.654V230.23H113.718V226.32H114.523V235.87ZM108.132 229.36C108.132 230.75 108.381 231.819 108.878 232.567C109.086 232.259 109.244 231.91 109.351 231.52C109.458 231.129 109.528 230.751 109.561 230.386C109.593 230.017 109.611 229.622 109.614 229.199V228.179H109.023V227.491H111.301V228.179H110.355V229.199C110.348 229.951 110.443 230.674 110.64 231.369C110.841 232.064 111.193 232.604 111.698 232.991L111.204 233.582C110.646 233.142 110.246 232.438 110.006 231.471C109.795 232.488 109.414 233.224 108.862 233.679C108.314 233.206 107.938 232.454 107.734 231.423C107.491 232.411 107.093 233.131 106.542 233.582L106.037 232.991C106.538 232.601 106.888 232.058 107.084 231.364C107.281 230.666 107.38 229.944 107.38 229.199V228.179H106.381V227.491H108.723V228.179H108.132V229.199V229.36ZM123.794 227.878V228.028C123.787 228.598 123.765 229.165 123.729 229.731C123.694 230.293 123.622 230.939 123.515 231.67L122.666 231.595C122.781 230.886 122.856 230.252 122.892 229.693C122.927 229.131 122.945 228.59 122.945 228.071H118.938V227.384H123.794V227.878ZM121.291 233.013C122.469 232.97 123.515 232.895 124.428 232.787L124.471 233.421C123.636 233.553 122.757 233.645 121.833 233.695C120.91 233.741 119.952 233.765 118.96 233.765H118.509L118.401 233.066C119.314 233.059 120.002 233.05 120.464 233.04V230.112H121.291V233.013ZM125.867 230.316H127.414V231.047H125.867V235.87H125.029V226.32H125.867V230.316ZM135.922 232.014H135.073V229.511H133.15V228.812H135.073V226.32H135.922V232.014ZM132.753 232.314C133.415 232.314 133.986 232.384 134.466 232.524C134.946 232.664 135.313 232.866 135.567 233.131C135.825 233.396 135.954 233.715 135.954 234.087C135.954 234.459 135.825 234.778 135.567 235.043C135.313 235.312 134.946 235.516 134.466 235.655C133.986 235.795 133.415 235.867 132.753 235.87C132.09 235.867 131.519 235.795 131.04 235.655C130.56 235.516 130.191 235.312 129.933 235.043C129.679 234.778 129.552 234.459 129.552 234.087C129.552 233.715 129.679 233.396 129.933 233.131C130.191 232.866 130.56 232.664 131.04 232.524C131.519 232.384 132.09 232.314 132.753 232.314ZM132.753 232.97C132.27 232.97 131.849 233.014 131.491 233.104C131.133 233.194 130.859 233.322 130.669 233.491C130.479 233.659 130.386 233.858 130.39 234.087C130.386 234.312 130.479 234.509 130.669 234.678C130.859 234.842 131.133 234.97 131.491 235.059C131.849 235.149 132.27 235.193 132.753 235.193C133.236 235.193 133.655 235.149 134.01 235.059C134.368 234.97 134.642 234.842 134.832 234.678C135.021 234.509 135.116 234.312 135.116 234.087C135.116 233.858 135.021 233.659 134.832 233.491C134.642 233.322 134.368 233.194 134.01 233.104C133.655 233.014 133.236 232.97 132.753 232.97ZM131.324 228.071C131.324 228.483 131.423 228.882 131.62 229.269C131.817 229.652 132.092 229.994 132.447 230.295C132.805 230.592 133.215 230.821 133.677 230.982L133.236 231.659C132.703 231.466 132.234 231.179 131.829 230.8C131.428 230.42 131.125 229.982 130.921 229.484C130.714 230.042 130.397 230.537 129.971 230.966C129.548 231.392 129.054 231.713 128.488 231.928L128.048 231.251C128.517 231.079 128.936 230.832 129.305 230.51C129.674 230.184 129.96 229.81 130.164 229.387C130.372 228.965 130.476 228.53 130.476 228.082V227.728H128.316V227.019H133.462V227.728H131.324V228.071Z" fill="#2C2C2C"/>
<path d="M164.786 173.35C165.235 173.351 165.68 173.448 166.095 173.636C166.51 173.823 166.888 174.099 167.206 174.446L167.208 174.448L167.737 175.021L167.994 175.299L168.251 175.02L168.772 174.454C169.092 174.107 169.473 173.834 169.89 173.648C170.306 173.463 170.752 173.368 171.201 173.369C171.651 173.37 172.097 173.467 172.513 173.655C172.929 173.843 173.308 174.118 173.626 174.467L173.627 174.469C174.278 175.173 174.648 176.129 174.65 177.13C174.653 178.13 174.288 179.088 173.642 179.797L168.177 185.709V185.71C168.088 185.806 167.956 185.806 167.867 185.71V185.709L162.375 179.763C161.014 178.289 161.008 175.897 162.36 174.433C162.68 174.087 163.06 173.814 163.476 173.629C163.892 173.444 164.337 173.348 164.786 173.35Z" fill="#F7F8FA" fill-opacity="0.38" stroke="#F7F8FA" stroke-width="0.7"/>
<g filter="url(#filter0_d_128_573)">
<path d="M132 64V2H175V64L153.5 56.5L132 64Z" fill="#FF5148"/>
</g>
<path d="M142.862 19V10.5138H144.151V14.1975H148.373V10.5138H149.666V19H148.373V15.3039H144.151V19H142.862ZM158.769 14.7569C158.769 17.471 157.14 19.116 154.944 19.116C152.736 19.116 151.12 17.4669 151.12 14.7569C151.12 12.0428 152.736 10.3978 154.944 10.3978C157.14 10.3978 158.769 12.0428 158.769 14.7569ZM152.4 14.7569C152.4 16.8204 153.486 17.9392 154.944 17.9392C156.403 17.9392 157.488 16.8204 157.488 14.7569C157.488 12.6934 156.403 11.5746 154.944 11.5746C153.486 11.5746 152.4 12.6934 152.4 14.7569ZM159.447 11.6243V10.5138H166.023V11.6243H163.384V19H162.095V11.6243H159.447Z" fill="#F7B0B0"/>
<path d="M154.083 47.2804C149.847 47.2804 146.823 44.9972 146.712 41.6426H149.867C149.977 43.4451 151.769 44.5967 154.052 44.5967C156.536 44.5967 158.338 43.2448 158.328 41.2621C158.338 39.2293 156.656 37.7773 153.712 37.7773H151.97V35.2338H153.712C156.055 35.2338 157.688 33.932 157.688 31.9693C157.688 30.0867 156.286 28.8249 154.123 28.8249C152.06 28.8249 150.227 29.9665 150.147 31.8191H147.143C147.243 28.4845 150.317 26.2113 154.153 26.2113C158.178 26.2113 160.722 28.7648 160.702 31.809C160.722 34.1222 159.28 35.8046 157.077 36.3353V36.4955C159.86 36.886 161.493 38.7686 161.473 41.3722C161.493 44.7869 158.338 47.2804 154.083 47.2804Z" fill="white"/>
<rect x="31.25" y="171.25" width="64.5" height="23.5" rx="11.75" fill="white" fill-opacity="0.3"/>
<rect x="31.25" y="171.25" width="64.5" height="23.5" rx="11.75" stroke="white" stroke-width="0.5"/>
<path d="M43.0014 178.037V179.566H45.6326V178.037H46.7348V180.014H49.0304V177.494H50.1409V183.229H49.0304V180.942H46.7348V182.873H41.8867V178.037H43.0014ZM43.0014 181.974H45.6326V180.436H43.0014V181.974ZM43.2956 187.849V183.722H44.4019V184.899H49.0304V183.722H50.1326V187.849H43.2956ZM44.4019 186.942H49.0304V185.769H44.4019V186.942ZM55.1791 178.24C56.8407 178.24 58.0299 179.268 58.0382 180.743C58.0299 182.222 56.8407 183.246 55.1791 183.246C53.5258 183.246 52.3117 182.222 52.32 180.743C52.3117 179.268 53.5258 178.24 55.1791 178.24ZM51.8145 184.829C53.7288 184.833 56.3766 184.812 58.6722 184.481L58.7592 185.293C56.3808 185.744 53.8283 185.757 51.9512 185.757L51.8145 184.829ZM53.4181 180.743C53.4098 181.671 54.1598 182.28 55.1791 182.28C56.1984 182.28 56.9484 181.671 56.9526 180.743C56.9484 179.819 56.1984 179.206 55.1791 179.206C54.1598 179.206 53.4098 179.819 53.4181 180.743ZM59.331 188.015V177.494H60.4415V188.015H59.331ZM70.3943 178.327V179.214H66.6318V180.544H70.1912V181.439H66.6318V182.836C68.5793 182.823 69.7105 182.773 71.0407 182.546L71.1691 183.42C69.7271 183.689 68.4965 183.739 66.3376 183.735H65.5172V178.327H70.3943ZM66.6567 187.779V184.568H67.763V186.867H73.7589V187.779H66.6567ZM72.1967 185.264V177.49H73.3114V180.71H74.8321V181.63H73.3114V185.264H72.1967ZM78.6397 179.512C78.6397 180.66 79.3731 181.82 80.7405 182.33L80.1479 183.188C79.1742 182.815 78.4905 182.098 78.1134 181.236C77.7281 182.21 77.0112 183.059 75.9919 183.494L75.3869 182.633C76.804 182.011 77.5623 180.681 77.5623 179.512V178.149H78.6397V179.512ZM77.3095 186.076C77.3013 184.874 78.6728 184.17 80.8731 184.17C83.0568 184.17 84.4366 184.874 84.4366 186.076C84.4366 187.269 83.0568 187.978 80.8731 187.978C78.6728 187.978 77.3013 187.269 77.3095 186.076ZM78.4159 186.076C78.4076 186.743 79.3399 187.128 80.8731 187.12C82.3897 187.128 83.322 186.743 83.3261 186.076C83.322 185.405 82.3897 185.015 80.8731 185.015C79.3399 185.015 78.4076 185.405 78.4159 186.076ZM81.0637 183.631V177.698H82.0996V180.238H83.3261V177.503H84.3786V183.967H83.3261V181.153H82.0996V183.631H81.0637Z" fill="#2C2C2C"/>
<defs>
<filter id="filter0_d_128_573" x="128" y="0" width="51" height="70" filterUnits="userSpaceOnUse" color-interpolation-filters="sRGB">
<feFlood flood-opacity="0" result="BackgroundImageFix"/>
<feColorMatrix in="SourceAlpha" type="matrix" values="0 0 0 0 0 0 0 0 0 0 0 0 0 0 0 0 0 0 127 0" result="hardAlpha"/>
<feOffset dy="2"/>
<feGaussianBlur stdDeviation="2"/>
<feComposite in2="hardAlpha" operator="out"/>
<feColorMatrix type="matrix" values="0 0 0 0 0 0 0 0 0 0 0 0 0 0 0 0 0 0 0.15 0"/>
<feBlend mode="normal" in2="BackgroundImageFix" result="effect1_dropShadow_128_573"/>
<feBlend mode="normal" in="SourceGraphic" in2="effect1_dropShadow_128_573" result="shape"/>
</filter>
<linearGradient id="paint0_linear_128_573" x1="97.5" y1="2" x2="97.5" y2="258" gradientUnits="userSpaceOnUse">
<stop stop-color="#BEE7DF"/>
<stop offset="1" stop-color="#A3D8CE"/>
</linearGradient>
</defs>
</svg>
