<svg width="156" height="136" viewBox="0 0 156 136" fill="none" xmlns="http://www.w3.org/2000/svg">
<path d="M93.107 134.43C88.8856 134.346 84.9836 132.444 81.8623 129.676C78.5362 126.726 76.2642 122.934 74.3384 118.971C72.3045 114.786 70.5805 110.443 68.0691 106.507C65.7287 102.84 62.8489 99.5173 59.579 96.6495C56.2812 93.7572 52.5706 91.4966 48.8378 89.2222C45.1571 86.9797 41.4302 84.6235 38.6228 81.2961C32.1802 73.6604 32.2563 63.2051 30.1261 53.9464C28.9945 49.028 27.3688 44.2489 25.5908 39.5312C23.9704 35.2318 22.7686 30.7399 20.5947 26.6685C20.0286 25.6085 19.4858 24.5733 19.0912 23.433C18.7127 22.3393 18.4291 21.2148 18.1913 20.0828C17.955 18.9581 17.76 17.8241 17.5746 16.6901C17.4087 15.6752 17.2639 14.568 17.615 13.5742C18.0348 12.386 19.2064 11.8324 20.3049 11.4109C21.4951 10.9541 22.7392 10.6267 24.0009 10.443C26.5046 10.0785 29.0586 10.2663 31.5294 10.7683C33.9847 11.2672 36.424 11.8623 38.8784 12.3734C41.2872 12.875 43.619 13.5093 45.9161 14.3946C50.6 16.1999 55.3393 17.8615 60.1262 19.3724C64.9701 20.9012 69.8626 22.2757 74.7951 23.4887C79.6731 24.6884 84.6005 25.763 89.6062 26.259C94.5994 26.7539 99.5595 26.5523 104.465 25.4755C109.3 24.414 114.24 22.8748 119.208 24.0227C123.544 25.0244 127.331 27.5332 131.584 28.7817C135.6 29.9608 139.975 29.7901 143.898 28.3316C145.733 27.6494 147.435 26.695 148.967 25.4762C149.356 25.1666 148.806 24.6229 148.421 24.9296C144.997 27.654 140.536 28.959 136.185 28.7742C131.596 28.5793 127.636 26.3478 123.487 24.6334C121.422 23.7803 119.287 23.1013 117.053 22.8993C114.585 22.6762 112.105 23.0154 109.689 23.5042C107.225 24.0027 104.798 24.6699 102.325 25.1235C99.7804 25.5902 97.1927 25.7816 94.6067 25.7619C89.3965 25.7223 84.2346 24.8509 79.161 23.7221C74.1637 22.6103 69.2078 21.2973 64.3 19.8417C59.3629 18.3774 54.4736 16.7524 49.6405 14.9746C47.277 14.1053 44.9518 13.0969 42.5191 12.4331C40.1225 11.7793 37.6703 11.3663 35.2452 10.8371C32.7904 10.3014 30.3927 9.64831 27.8699 9.51177C25.4459 9.38057 22.9943 9.66371 20.6931 10.4509C18.7862 11.1032 16.9611 12.0229 16.6799 14.2208C16.5557 15.1914 16.7064 16.1627 16.867 17.1196C17.0639 18.2926 17.2644 19.4658 17.519 20.628C18.0222 22.9254 18.8228 24.9901 19.9273 27.0586C21.0718 29.2022 21.9369 31.4804 22.7443 33.7681C24.3746 38.3876 26.1497 42.9713 27.6074 47.6486C29.1428 52.5754 30.107 57.5705 30.9314 62.6566C31.6977 67.3842 32.5947 72.1331 34.6637 76.49C36.5782 80.5216 39.4759 83.7379 43.0558 86.3644C46.5928 88.9594 50.4957 90.9948 54.1333 93.4378C57.9051 95.971 61.3179 99.0228 64.2159 102.525C67.1834 106.111 69.3864 110.131 71.3346 114.34C73.2892 118.563 75.1274 122.927 77.9894 126.637C80.428 129.799 83.5789 132.499 87.3048 134.009C89.1521 134.757 91.1143 135.163 93.107 135.203C93.6046 135.213 93.6046 134.44 93.107 134.43Z" fill="black"/>
<path d="M35.2206 29.117C35.2915 29.1451 35.3646 29.1688 35.4403 29.1871C36.557 29.4563 37.5238 28.4727 38.1643 27.5949C39.3524 25.9667 41.741 23.545 42.1887 21.6253C42.476 20.3936 41.7565 20.418 40.5353 19.8266C39.5022 19.3263 38.5301 18.755 37.6261 18.0758C36.9194 17.5448 33.5442 15.2377 32.6542 15.4699C34.4584 14.8579 36.2626 14.2459 38.0668 13.6339C38.5467 13.4711 39.0824 13.2584 39.2498 12.8165C39.5068 12.1381 38.7337 11.5286 38.0571 11.1631C36.0223 10.0642 33.9332 9.05084 31.8081 8.10581C27.18 6.04771 22.3856 4.32037 17.551 2.71389C15.1299 1.90942 12.7002 1.12186 10.2606 0.365596C8.19482 -0.274776 6.54124 -0.277232 7.34839 2.04843C9.12404 7.16467 11.6029 12.0491 14.1971 16.855C15.4779 19.2277 16.7945 21.5841 18.0842 23.9528C18.5424 24.7945 20.6461 30.3352 22.4961 28.6396C22.6636 28.4861 22.7506 28.2762 22.8331 28.073C23.7631 25.7803 24.4694 23.0745 25.7485 20.9411C28.5627 23.4822 31.4078 25.9947 34.2831 28.478C34.5675 28.7236 34.8661 28.9762 35.2206 29.117Z" fill="#8683FF"/>
<path d="M107.884 110.22C111.24 113.956 116.106 116.475 118.148 121.271C118.687 122.538 119.037 123.879 119.328 125.221C119.589 126.423 119.706 127.707 120.197 128.844C120.633 129.852 121.511 130.674 122.676 130.595C124.027 130.503 124.969 129.476 125.414 128.268C125.688 127.525 125.821 126.724 125.926 125.942C126.039 125.095 126.092 124.243 126.094 123.389C126.1 121.672 125.92 119.961 125.709 118.259L125.128 118.593C125.766 119.026 126.68 118.803 127.187 118.266C127.797 117.621 127.891 116.656 128.061 115.827C128.261 114.851 128.52 113.868 128.633 112.878C128.734 111.983 128.501 111.152 127.855 110.512C127.287 109.949 126.556 109.592 125.855 109.225C125.015 108.786 124.199 108.301 123.403 107.785C121.808 106.752 120.298 105.596 118.814 104.411C117.029 102.984 115.261 101.537 113.486 100.099C113.103 99.788 112.553 100.332 112.939 100.645C115.762 102.933 118.537 105.31 121.497 107.42C122.918 108.433 124.396 109.322 125.938 110.138C126.539 110.457 127.216 110.818 127.599 111.405C128.082 112.146 127.844 113.044 127.679 113.847C127.475 114.843 127.311 115.858 127.056 116.842C126.96 117.214 126.816 117.624 126.488 117.855C126.201 118.057 125.819 118.13 125.518 117.926C125.292 117.773 124.901 117.972 124.937 118.259C125.293 121.147 125.583 124.124 124.964 126.998C124.714 128.156 124.24 129.456 122.957 129.775C121.864 130.047 121.13 129.209 120.796 128.27C120.621 127.777 120.524 127.264 120.425 126.751C120.297 126.091 120.167 125.431 120.021 124.775C119.732 123.478 119.374 122.196 118.854 120.972C117.883 118.685 116.271 116.832 114.454 115.17C112.449 113.336 110.253 111.702 108.431 109.674C108.098 109.303 107.553 109.851 107.884 110.22Z" fill="black"/>
<path d="M72.7993 75.8389C76.1842 83.4012 81.1314 89.7248 86.5544 96.1064C90.106 100.286 94.0477 104.189 98.3226 107.759C100.091 109.236 102.359 111.692 104.632 112.475C106.72 113.194 109.726 112.436 111.694 111.734C115.344 110.432 118.631 108.291 121.168 105.564C117.624 102.264 113.439 99.5437 110.197 95.9937C106.689 92.1512 104.419 87.4598 103.044 82.6168C101.861 78.4451 101.21 73.9257 98.2338 70.5816C94.9012 66.8373 89.427 65.4266 84.3114 64.2192" fill="white"/>
<path d="M72.4649 76.0351C74.3295 80.1904 76.7224 84.0793 79.3985 87.7581C82.1084 91.4836 85.0488 95.0775 88.1342 98.498C89.741 100.279 91.4147 102 93.1494 103.657C94.8502 105.282 96.636 106.798 98.4089 108.341C99.9838 109.712 101.466 111.262 103.303 112.291C104.171 112.778 105.085 113.071 106.081 113.136C107.125 113.204 108.183 113.065 109.203 112.85C113.334 111.978 117.274 109.809 120.347 106.935C120.724 106.582 121.088 106.216 121.441 105.838C121.58 105.69 121.598 105.438 121.441 105.292C118.453 102.516 115.077 100.193 112.115 97.3893C109.204 94.6341 106.927 91.3482 105.286 87.695C104.49 85.9241 103.85 84.085 103.332 82.2147C102.836 80.4231 102.432 78.6063 101.887 76.8282C101.347 75.0681 100.663 73.3279 99.6417 71.787C98.6488 70.2887 97.3565 69.0403 95.8661 68.0413C92.8457 66.0169 89.2428 65.0198 85.7488 64.1674C85.3041 64.0589 84.8589 63.953 84.4135 63.8478C83.9297 63.7336 83.7233 64.4786 84.208 64.5931C87.7132 65.4209 91.3161 66.281 94.469 68.0853C95.9772 68.9485 97.3534 70.0427 98.4286 71.4161C99.5646 72.867 100.33 74.5693 100.91 76.3078C101.493 78.0588 101.906 79.8596 102.377 81.6426C102.865 83.4925 103.449 85.3137 104.185 87.0808C105.701 90.7222 107.802 94.108 110.559 96.9419C113.393 99.8548 116.747 102.184 119.799 104.851C120.169 105.175 120.534 105.504 120.895 105.838V105.292C118.055 108.331 114.36 110.597 110.366 111.759C108.539 112.291 106.385 112.741 104.545 112.034C103.614 111.677 102.768 111.076 101.993 110.459C101.181 109.811 100.418 109.107 99.6475 108.411C97.9819 106.906 96.2407 105.491 94.597 103.961C92.877 102.359 91.2145 100.695 89.6152 98.9727C88.0411 97.2772 86.5415 95.5163 85.0631 93.7372C83.6287 92.0112 82.2218 90.2615 80.8761 88.4652C78.2122 84.9095 75.783 81.1668 73.8412 77.165C73.5971 76.662 73.3612 76.1552 73.1322 75.6451C72.929 75.1921 72.2627 75.5846 72.4649 76.0351Z" fill="black"/>
<path d="M98.1817 85.1287C96.4825 83.459 94.7832 81.7893 93.084 80.1196C94.4687 82.6127 95.8537 85.107 97.3508 87.5458C98.7761 89.8676 100.343 91.8712 102.137 93.9504C105.246 97.5538 108.341 101.167 111.421 104.792C112.152 105.655 112.893 106.537 113.308 107.56C113.724 108.584 113.773 109.789 113.15 110.721C113.665 111.061 114.362 110.666 114.842 110.285C116.652 108.852 118.461 107.418 120.27 105.984C118.108 103.744 115.853 101.577 113.512 99.4918" fill="black"/>
<path d="M98.4549 84.8563C96.7556 83.1866 95.0564 81.5169 93.3571 79.8472C93.0426 79.5381 92.5363 79.9306 92.7502 80.3155C93.9606 82.4948 95.1712 84.6749 96.4536 86.813C97.6636 88.8304 98.9957 90.7489 100.48 92.575C102.048 94.5054 103.709 96.3635 105.328 98.2511C106.985 100.182 108.638 102.117 110.287 104.055C111.145 105.063 112.1 106.051 112.726 107.227C113.27 108.249 113.473 109.507 112.816 110.527C112.703 110.702 112.781 110.953 112.955 111.055C113.562 111.412 114.253 111.166 114.793 110.799C115.446 110.356 116.048 109.82 116.666 109.33C117.959 108.306 119.251 107.282 120.543 106.258C120.709 106.127 120.675 105.848 120.543 105.712C118.372 103.464 116.117 101.299 113.785 99.2194C113.415 98.8893 112.866 99.434 113.238 99.7659C115.571 101.846 117.826 104.011 119.997 106.258V105.712C118.848 106.622 117.699 107.532 116.551 108.443C115.991 108.886 115.43 109.33 114.87 109.774C114.506 110.063 113.849 110.684 113.345 110.388L113.484 110.917C114.072 110.003 114.126 108.862 113.816 107.839C113.477 106.725 112.751 105.784 112.016 104.902C110.375 102.933 108.694 100.995 107.027 99.0487C105.334 97.0721 103.622 95.1115 101.939 93.1267C100.401 91.3135 98.9595 89.4213 97.7114 87.3956C96.2047 84.9499 94.812 82.436 93.4175 79.9254L92.8106 80.3937C94.5098 82.0634 96.2091 83.7331 97.9083 85.4028C98.2634 85.7517 98.8104 85.2056 98.4549 84.8563Z" fill="black"/>
<path d="M126.331 106.807C129.804 110.414 134.713 112.766 136.963 117.439C137.576 118.712 137.987 120.073 138.337 121.438C138.64 122.621 138.809 123.883 139.322 124.999C139.779 125.995 140.671 126.806 141.831 126.72C143.191 126.62 144.131 125.546 144.533 124.316C144.781 123.56 144.886 122.749 144.963 121.96C145.047 121.101 145.064 120.236 145.033 119.373C144.971 117.637 144.72 115.914 144.444 114.202L143.876 114.638C144.541 115.057 145.465 114.809 145.952 114.227C146.525 113.543 146.581 112.588 146.721 111.745C146.884 110.764 147.118 109.768 147.182 108.775C147.237 107.914 146.982 107.119 146.351 106.518C145.76 105.955 145.004 105.615 144.277 105.265C143.42 104.852 142.586 104.393 141.772 103.902C140.126 102.911 138.56 101.793 137.02 100.646C135.168 99.2665 133.334 97.8645 131.492 96.4721C131.325 96.3453 131.062 96.4468 130.964 96.6107C130.846 96.8075 130.937 97.0143 131.102 97.1395C134.01 99.3378 136.871 101.631 139.914 103.641C141.37 104.604 142.882 105.427 144.445 106.201C145.053 106.501 145.742 106.851 146.125 107.437C146.589 108.149 146.394 109.027 146.264 109.81C146.097 110.811 145.971 111.83 145.753 112.822C145.672 113.194 145.547 113.613 145.233 113.857C144.96 114.07 144.57 114.162 144.266 113.971C143.954 113.773 143.648 114.098 143.698 114.407C144.167 117.305 144.57 120.315 144.008 123.231C143.786 124.38 143.297 125.631 142.026 125.915C140.961 126.154 140.241 125.288 139.899 124.393C139.698 123.866 139.582 123.313 139.453 122.764C139.304 122.125 139.152 121.486 138.982 120.851C138.636 119.55 138.215 118.264 137.63 117.049C136.574 114.855 134.9 113.096 133.064 111.531C131.002 109.774 128.762 108.218 126.877 106.26C126.532 105.901 125.986 106.448 126.331 106.807Z" fill="black"/>
<path d="M92.3645 79.0588C97.9899 88.4269 106.521 97.7587 114.379 104.566C117.349 107.139 122.399 110.928 126.804 109.099C130.081 107.738 133.167 105.589 134.439 102.56C134.834 101.619 135.042 100.615 135.052 99.6099C135.055 99.1984 135.024 98.7781 134.852 98.3965C134.639 97.9245 134.23 97.5495 133.833 97.1853C129.146 92.8858 125.253 87.8748 120.458 83.7586C118.042 81.6854 116.221 78.8084 114.143 76.4575C111.021 72.9243 108.02 69.8404 103.497 67.8357C101.912 67.133 100.323 66.4292 98.6729 65.8652C95.979 64.9446 93.1299 64.4038 90.2574 64.2676" fill="white"/>
<path d="M92.031 79.2541C94.1706 82.8118 96.6043 86.1874 99.2089 89.418C101.857 92.703 104.691 95.8387 107.669 98.8273C109.107 100.271 110.58 101.679 112.089 103.049C113.377 104.22 114.679 105.38 116.064 106.436C118.732 108.471 122.155 110.491 125.648 109.845C126.537 109.681 127.367 109.296 128.176 108.905C129.013 108.5 129.824 108.04 130.592 107.515C132.039 106.525 133.357 105.298 134.256 103.78C134.751 102.943 135.112 102.019 135.292 101.063C135.472 100.101 135.605 98.9286 135.103 98.039C134.863 97.6135 134.497 97.2717 134.142 96.9445C133.755 96.5887 133.372 96.2294 132.993 95.8648C132.224 95.124 131.473 94.3656 130.731 93.5977C127.802 90.563 125.024 87.3743 121.906 84.5267C121.157 83.8429 120.37 83.2023 119.658 82.4791C118.949 81.7592 118.294 80.9886 117.659 80.2032C116.414 78.6625 115.225 77.085 113.904 75.6074C111.45 72.8635 108.807 70.2539 105.571 68.4416C104.68 67.9427 103.752 67.5264 102.818 67.1159C101.814 66.6745 100.805 66.2422 99.7792 65.8544C97.7322 65.0808 95.6099 64.5216 93.4453 64.1982C92.3884 64.0403 91.325 63.9339 90.2577 63.8814C89.7605 63.857 89.7618 64.63 90.2577 64.6543C92.3915 64.7592 94.5084 65.084 96.5735 65.6327C98.6593 66.1869 100.651 66.9996 102.623 67.8689C104.359 68.6345 106.01 69.5081 107.545 70.6312C108.975 71.6778 110.279 72.8882 111.51 74.1594C112.801 75.4917 114.044 76.8778 115.2 78.3284C116.42 79.8591 117.585 81.4419 118.945 82.8546C119.635 83.5713 120.397 84.2032 121.135 84.8691C121.898 85.5582 122.641 86.2692 123.37 86.994C124.83 88.445 126.234 89.9507 127.64 91.4538C129.05 92.9614 130.463 94.4674 131.936 95.9144C132.647 96.6128 133.433 97.2556 134.107 97.9891C134.447 98.3592 134.63 98.7736 134.658 99.2768C134.686 99.7695 134.649 100.273 134.564 100.759C133.93 104.395 130.773 106.822 127.625 108.314C126.849 108.682 126.061 109.02 125.204 109.139C124.407 109.249 123.587 109.196 122.802 109.032C121.117 108.681 119.559 107.88 118.125 106.95C116.757 106.063 115.497 105.033 114.271 103.961C112.817 102.69 111.395 101.381 110.005 100.041C107.062 97.204 104.255 94.225 101.609 91.1101C98.9664 88.0001 96.4821 84.7505 94.2481 81.334C93.7161 80.5204 93.1993 79.697 92.6983 78.864C92.4423 78.4382 91.7737 78.8264 92.031 79.2541Z" fill="black"/>
<path d="M75.7334 79.2976C75.5372 79.2885 75.3409 79.2793 75.1447 79.2702C75.5516 79.8512 76.3101 80.1276 77.0267 80.3455C79.9116 81.2229 82.9909 81.7328 86.035 81.4424C88.9422 81.1652 91.6479 80.2147 94.4558 79.4587C98.2412 78.4397 102.211 77.9916 106.154 78.1459C106.132 77.5806 106.111 77.0153 106.089 76.45C106.043 75.2296 105.986 73.9683 105.403 72.8691C103.525 69.3248 97.2738 71.5504 94.0679 71.8327C89.3475 72.2482 84.6404 71.0846 80.1329 69.7388" fill="black"/>
<path d="M75.7338 78.9112C75.5375 78.9021 75.3413 78.8929 75.1451 78.8838C74.8713 78.871 74.6376 79.2297 74.8114 79.4653C75.3593 80.2078 76.2207 80.5082 77.0737 80.7632C78.0934 81.0681 79.1281 81.3241 80.1751 81.5157C82.2614 81.8975 84.3965 82.0321 86.5065 81.778C88.5983 81.526 90.6237 80.952 92.643 80.3707C94.697 79.7795 96.7549 79.2489 98.871 78.9295C101.279 78.5661 103.722 78.4406 106.154 78.5324C106.357 78.5401 106.549 78.3491 106.541 78.146C106.492 76.8758 106.514 75.5756 106.289 74.3208C106.119 73.3772 105.747 72.4295 105.047 71.7521C103.909 70.651 102.219 70.4533 100.707 70.5052C98.9896 70.5641 97.3004 70.9278 95.6132 71.2236C93.4552 71.602 91.2682 71.6015 89.0928 71.3585C86.0795 71.0219 83.1347 70.2304 80.236 69.3661C79.7583 69.2237 79.5543 69.9694 80.0305 70.1114C84.7668 71.5236 89.8503 72.8285 94.8267 72.1286C96.3952 71.908 97.9392 71.5369 99.5154 71.3663C100.954 71.2106 102.632 71.1141 103.931 71.8711C104.735 72.3392 105.196 73.1241 105.43 74.0088C105.781 75.338 105.716 76.782 105.768 78.146L106.154 77.7595C101.963 77.6013 97.7837 78.1268 93.746 79.2528C91.7729 79.803 89.8155 80.4273 87.7987 80.8033C85.7408 81.1869 83.6511 81.2275 81.5758 80.959C80.431 80.8109 79.2972 80.5715 78.1824 80.2737C77.6624 80.1348 77.1383 79.993 76.6318 79.8097C76.2091 79.6567 75.7532 79.4471 75.4788 79.0752L75.1451 79.6567C75.3413 79.6658 75.5375 79.675 75.7337 79.6841C76.231 79.7073 76.2298 78.9344 75.7338 78.9112Z" fill="black"/>
<path d="M93.355 74.2162C95.248 76.7052 97.1475 79.1896 99.0833 81.6455C101.066 84.1604 103.086 86.6457 105.175 89.0737C107.265 91.5044 109.424 93.8781 111.676 96.1601C113.933 98.4465 116.285 100.641 118.753 102.698C121.199 104.736 123.757 106.643 126.437 108.36C126.779 108.579 127.122 108.794 127.467 109.007C127.892 109.268 128.28 108.6 127.857 108.339C125.163 106.679 122.588 104.831 120.132 102.837C117.664 100.832 115.311 98.6873 113.055 96.4478C110.79 94.2001 108.621 91.8567 106.523 89.453C104.435 87.0602 102.416 84.6072 100.439 82.1216C98.4987 79.6812 96.5986 77.2088 94.7092 74.7285C94.4802 74.4278 94.2512 74.127 94.0224 73.8261C93.8951 73.6588 93.6908 73.5753 93.4937 73.6875C93.3291 73.7812 93.2289 74.0504 93.355 74.2162Z" fill="black"/>
<path d="M100.855 74.2171C104.391 79.0193 108.247 83.5745 112.334 87.9165C116.181 92.0051 120.221 95.9066 124.298 99.7647C126.613 101.955 128.939 104.133 131.249 106.328C131.61 106.671 132.157 106.125 131.796 105.782C127.727 101.916 123.607 98.1027 119.591 94.1811C115.515 90.2006 111.553 86.1003 107.845 81.7725C105.642 79.2013 103.53 76.5534 101.523 73.827C101.231 73.4307 100.56 73.8158 100.855 74.2171Z" fill="black"/>
<path d="M110.408 78.3243C113.325 81.7709 116.483 85.0021 119.7 88.1673C122.859 91.2752 126.078 94.3225 129.181 97.4864C130.875 99.2132 132.532 100.976 134.117 102.803C134.444 103.18 134.989 102.631 134.664 102.257C131.816 98.9744 128.738 95.9017 125.631 92.8675C122.426 89.7389 119.184 86.6471 116.077 83.4211C114.314 81.591 112.596 79.7176 110.954 77.7778C110.632 77.3976 110.088 77.9467 110.408 78.3243Z" fill="black"/>
<path d="M72.5757 49.6337C66.6081 46.2684 62.185 41.0478 58.4093 35.65C54.6336 30.2521 51.3494 24.5405 46.9653 19.5408C45.7222 18.1233 44.361 16.7425 42.6324 15.8449C40.9037 14.9472 38.737 14.5919 36.9058 15.2999C36.1789 15.581 35.4429 16.3189 35.848 16.9376C36.5202 17.9643 34.2996 19.3207 35.8516 20.6841C34.882 21.4997 35.183 23.2032 36.3844 23.699C35.5416 23.9638 35.4673 25.1026 35.9736 25.7725C36.4798 26.4423 37.3254 26.8152 38.0128 27.3333C39.1341 28.1783 39.8209 29.4005 40.439 30.6022C43.6889 36.9207 46.1875 43.5666 49.6347 49.8176C52.7576 55.4808 56.6968 60.8988 62.1186 64.8597C63.4428 65.8271 64.9192 66.728 66.6004 66.9308" fill="white"/>
<path d="M72.7712 49.3003C69.3488 47.3632 66.3693 44.7649 63.7481 41.8478C61.084 38.8829 58.8013 35.611 56.5975 32.2973C54.2204 28.7233 51.9118 25.0978 49.2628 21.715C46.8599 18.6465 44.0355 15.1078 39.9004 14.5953C38.94 14.4763 37.9404 14.5393 37.0196 14.8497C36.2795 15.0992 35.2991 15.704 35.3482 16.6103C35.3654 16.9275 35.6099 17.1637 35.5908 17.4377C35.5753 17.6608 35.4464 17.9253 35.3448 18.144C35.0726 18.7298 34.7837 19.3531 34.9578 20.0125C35.0566 20.3864 35.2968 20.7013 35.5788 20.9577V20.4112C34.4249 21.4233 34.8065 23.4301 36.1898 24.033L36.2821 23.3266C35.6192 23.5577 35.2455 24.1725 35.2717 24.8682C35.3015 25.6554 35.7768 26.2348 36.3799 26.6938C37.0519 27.2052 37.8017 27.5752 38.3953 28.1889C39.0079 28.822 39.4629 29.5836 39.8753 30.3568C41.763 33.8952 43.3419 37.5976 44.9993 41.2465C46.6378 44.8535 48.3344 48.4414 50.3526 51.8546C52.1753 54.9372 54.2559 57.8836 56.6914 60.5149C57.9162 61.8381 59.2313 63.0787 60.6377 64.2077C62.0369 65.3309 63.5276 66.4587 65.2524 67.0232C65.6928 67.1674 66.1417 67.2585 66.6008 67.3175C66.8095 67.3444 66.9853 67.1207 66.9872 66.9311C66.9896 66.7003 66.8069 66.5712 66.6008 66.5446C64.8584 66.3204 63.3416 65.3011 61.9692 64.271C60.5744 63.224 59.2677 62.059 58.0456 60.8154C55.6278 58.3553 53.5574 55.5781 51.7394 52.6517C49.7643 49.4726 48.0946 46.1183 46.523 42.7252C44.8844 39.1875 43.3443 35.6039 41.6252 32.1039C40.8577 30.5411 40.1249 28.8279 38.8777 27.577C38.2813 26.9789 37.5462 26.5991 36.8729 26.1034C36.3899 25.7478 35.9317 25.242 36.0632 24.5952C36.1121 24.3545 36.2505 24.1546 36.4876 24.0719C36.765 23.9752 36.9111 23.5099 36.5799 23.3656C35.6401 22.956 35.3173 21.6665 36.1253 20.9577C36.2771 20.8245 36.2724 20.5449 36.1253 20.4112C35.891 20.1982 35.6917 19.9542 35.6761 19.6258C35.6639 19.3692 35.7559 19.1132 35.8541 18.88C36.0715 18.3636 36.4198 17.8355 36.3557 17.2509C36.3383 17.0921 36.2937 16.9508 36.2204 16.8085C36.1481 16.6679 36.0902 16.5903 36.145 16.4282C36.2623 16.0816 36.6633 15.8241 36.98 15.6857C37.8251 15.3164 38.8088 15.2555 39.7154 15.3471C41.627 15.5404 43.3362 16.541 44.743 17.8028C46.2219 19.1292 47.4945 20.7014 48.7163 22.2615C51.2717 25.5243 53.4992 29.0262 55.7892 32.4755C57.929 35.6983 60.1371 38.8863 62.6818 41.8068C65.1593 44.6503 67.9635 47.2339 71.1654 49.2438C71.5649 49.4946 71.9706 49.7354 72.3811 49.9677C72.8145 50.2131 73.2045 49.5456 72.7712 49.3003Z" fill="black"/>
<path d="M90.5875 77.8165C90.0908 78.0593 89.5821 78.2803 89.0637 78.478C84.8005 80.1036 80.0143 80.2784 75.5264 79.4125C68.2966 78.0177 62.4341 73.9179 59.0106 67.8764C54.4426 59.8153 55.4031 50.3409 60.593 42.8078C61.9824 40.791 63.6272 38.8815 65.7301 37.4711C68.0692 35.9022 70.8802 35.0153 73.719 34.4644C79.552 33.3324 85.693 33.5498 91.4126 35.0908C94.0226 35.7941 96.8246 36.9825 99.598 36.918C102.104 36.8596 104.169 36.0196 106.359 34.984C110.02 33.2534 114.477 32.7788 118.323 34.1336C122.168 35.4884 125.229 38.8008 125.579 42.5514C125.834 45.286 124.664 48.0597 122.648 50.0949C120.632 52.1301 117.825 53.4474 114.881 53.9988C112.241 54.4933 109.369 54.7739 106.705 55.0529C104.546 55.279 102.383 55.5125 100.976 57.1921C99.1684 59.35 99.8912 62.1201 99.8829 64.6234C99.8646 70.1214 95.9101 75.2149 90.5875 77.8165Z" fill="white"/>
<path d="M90.3932 77.4807C84.4804 80.3456 77.1962 80.0834 71.1479 77.7633C65.9683 75.7765 61.6133 71.9944 59.018 67.082C56.1266 61.6089 55.7464 55.1695 57.7264 49.3298C58.7324 46.3626 60.3157 43.5685 62.3132 41.1557C63.3388 39.9169 64.4991 38.7756 65.8306 37.8671C67.1703 36.9531 68.655 36.2758 70.1912 35.7661C73.4687 34.6787 76.9765 34.2101 80.4203 34.1422C83.9653 34.0724 87.5169 34.4772 90.9501 35.3662C92.6281 35.8007 94.2585 36.3999 95.9404 36.82C97.607 37.2364 99.2878 37.422 100.997 37.1869C102.569 36.9708 104.058 36.4378 105.503 35.799C106.274 35.4581 107.025 35.0785 107.817 34.7852C108.565 34.5079 109.333 34.2823 110.113 34.1115C113.186 33.4379 116.563 33.607 119.418 35.0067C121.826 36.1865 123.937 38.2286 124.81 40.8058C125.768 43.6325 124.952 46.7196 123.108 49.002C121.151 51.424 118.219 52.8935 115.214 53.5368C111.862 54.2542 108.428 54.3627 105.046 54.864C103.632 55.0737 102.211 55.483 101.133 56.4685C100.037 57.4695 99.5186 58.8676 99.3961 60.3192C99.2737 61.7697 99.5079 63.2183 99.4968 64.669C99.4866 66.0118 99.2293 67.3384 98.7754 68.6008C97.8346 71.2174 96.0519 73.4859 93.9128 75.2356C92.833 76.1188 91.6441 76.8649 90.3932 77.4807C89.9469 77.7003 90.3381 78.3672 90.7832 78.1481C95.8423 75.6579 100.154 70.668 100.268 64.8119C100.296 63.3467 100.054 61.8855 100.161 60.4203C100.272 58.897 100.913 57.4393 102.232 56.5906C103.491 55.7803 105.043 55.6133 106.497 55.4592C108.268 55.2717 110.04 55.0972 111.806 54.8646C113.523 54.6383 115.262 54.4061 116.92 53.8888C118.426 53.419 119.879 52.7412 121.172 51.8329C123.733 50.0329 125.644 47.29 125.96 44.1258C126.242 41.2949 124.996 38.5751 123.006 36.6077C120.831 34.4564 117.92 33.278 114.894 33.017C113.228 32.8734 111.539 33.008 109.907 33.3662C108.291 33.7209 106.823 34.3626 105.322 35.0381C103.805 35.7207 102.212 36.2957 100.548 36.4691C98.7602 36.6554 97.0253 36.3358 95.3089 35.8511C93.5987 35.368 91.9224 34.785 90.189 34.384C88.4135 33.9732 86.6078 33.6883 84.7928 33.5241C81.1893 33.1981 77.5431 33.3655 73.9845 34.0202C70.6894 34.6264 67.3839 35.6685 64.7006 37.7391C62.1474 39.7092 60.1431 42.442 58.6424 45.2756C55.694 50.843 54.8242 57.439 56.6992 63.4979C58.4247 69.0737 62.2732 73.8542 67.3141 76.782C72.8232 79.9817 79.7096 81.0974 85.9433 79.7899C87.6166 79.4389 89.2443 78.8937 90.7832 78.1481C91.2307 77.9312 90.8393 77.2645 90.3932 77.4807Z" fill="black"/>
<path d="M91.7693 58.0991C100.395 63.0768 110.245 66.0597 120.229 67.9839C126.047 69.1053 131.937 69.8807 137.836 70.5539C142.924 71.1346 148.524 70.9404 153.339 72.4373C153.82 72.5868 154.326 72.7514 154.653 73.1064C155.04 73.526 155.082 74.181 154.751 74.6389C155.333 74.615 155.587 75.3018 155.609 75.8336C155.624 76.2256 155.606 76.642 155.372 76.9711C155.139 77.3001 154.619 77.4882 154.263 77.2683C154.66 77.8338 155.275 78.2786 155.523 78.9109C155.77 79.5432 155.326 80.4603 154.6 80.3497C154.292 80.3026 153.985 80.0795 153.701 80.1984C154.318 80.7322 154.764 81.6446 154.247 82.2612C153.649 82.9743 152.424 82.6427 151.523 82.283C148.935 81.2498 146.55 80.8988 143.779 81.3629C144.107 82.2958 144.426 83.2326 144.503 84.2248C144.522 84.4769 144.526 84.7453 144.386 84.9634C144.029 85.5193 143.095 85.3486 142.495 85.0083C141 84.159 139.951 82.7233 138.363 82.0271C137.54 81.6659 136.623 81.5285 135.717 81.4203C133.957 81.2101 132.184 81.0951 130.409 81.0761C126.955 81.0392 123.508 81.1159 120.063 80.8729C108.403 80.0505 96.7653 77.6623 86.3389 72.8266" fill="white"/>
<path d="M91.575 58.4334C95.2259 60.5354 99.0753 62.2778 103.028 63.7304C107.058 65.2113 111.194 66.3907 115.376 67.3545C119.755 68.3636 124.185 69.1333 128.631 69.7717C133.083 70.4109 137.553 70.9987 142.042 71.2902C144.176 71.4288 146.313 71.5463 148.435 71.8153C149.479 71.9476 150.519 72.1221 151.546 72.3572C152.056 72.4742 152.563 72.6066 153.065 72.7578C153.485 72.8847 153.977 73.0001 154.308 73.307C154.642 73.6168 154.66 74.0771 154.418 74.4444C154.252 74.6968 154.473 75.0205 154.752 75.0259C155.174 75.0341 155.225 75.685 155.226 75.9957C155.228 76.3647 155.029 77.2325 154.459 76.9352C154.146 76.772 153.686 77.1285 153.93 77.4639C154.178 77.8044 154.47 78.1003 154.746 78.4169C154.975 78.6803 155.241 79.0068 155.203 79.3786C155.178 79.6172 155.031 79.9352 154.763 79.9717C154.591 79.9951 154.406 79.8876 154.245 79.8405C154.025 79.7759 153.82 79.7621 153.599 79.8263C153.332 79.9037 153.206 80.2727 153.428 80.4722C153.75 80.7619 154.117 81.1974 154.087 81.6635C154.059 82.1106 153.626 82.2888 153.235 82.2963C152.235 82.3154 151.258 81.7386 150.327 81.4457C148.158 80.7629 145.918 80.6248 143.677 80.9908C143.48 81.023 143.343 81.2849 143.407 81.4662C143.577 81.9521 143.747 82.4392 143.88 82.9369C144.01 83.4236 144.203 84.0451 144.123 84.5533C143.991 85.397 142.699 84.6968 142.318 84.4464C140.807 83.4525 139.673 82.0003 137.892 81.4411C136.887 81.1258 135.812 81.0344 134.769 80.9304C133.683 80.8221 132.593 80.7499 131.502 80.714C129.253 80.6401 127 80.6884 124.751 80.6608C120.446 80.608 116.151 80.2338 111.888 79.6394C107.759 79.0637 103.659 78.2619 99.6313 77.1851C95.1459 75.986 90.7499 74.444 86.5348 72.4935C86.0863 72.2859 85.6932 72.9519 86.1447 73.1608C90.0168 74.9527 94.0356 76.4142 98.1401 77.5765C102.292 78.7523 106.527 79.6278 110.795 80.2574C115.163 80.9017 119.577 81.3419 123.992 81.4222C126.313 81.4643 128.635 81.4214 130.956 81.472C132.115 81.4972 133.274 81.5636 134.429 81.6707C135.517 81.7715 136.639 81.8579 137.686 82.1864C139.506 82.7574 140.643 84.3897 142.254 85.3151C142.872 85.6701 143.787 85.9265 144.423 85.4731C145.228 84.8984 144.846 83.5777 144.641 82.7935C144.506 82.2743 144.33 81.7668 144.152 81.2607L143.882 81.7361C145.173 81.5253 146.495 81.482 147.793 81.6579C149.079 81.8321 150.302 82.2276 151.509 82.6909C152.383 83.0264 153.608 83.3667 154.397 82.6603C155.293 81.8581 154.72 80.5962 153.975 79.9257L153.804 80.5716C154.047 80.5013 154.352 80.7114 154.601 80.7367C154.824 80.7592 155.05 80.7194 155.248 80.6125C155.61 80.4174 155.855 80.0369 155.94 79.6405C156.178 78.5301 155.171 77.8627 154.597 77.0738L154.069 77.6025C154.499 77.8268 154.99 77.7745 155.383 77.4948C155.801 77.1974 155.962 76.7064 155.994 76.2121C156.047 75.3866 155.755 74.2724 154.752 74.253L155.086 74.8345C155.591 74.0672 155.351 73.0871 154.616 72.5696C154.235 72.3015 153.769 72.1641 153.328 72.0299C152.807 71.8715 152.281 71.7333 151.751 71.6119C149.658 71.1325 147.514 70.9056 145.377 70.7415C143.189 70.5737 140.996 70.4788 138.812 70.2698C136.503 70.049 134.198 69.7464 131.898 69.4458C127.236 68.8365 122.586 68.1075 117.984 67.1385C113.696 66.2356 109.447 65.1241 105.297 63.7142C101.189 62.3188 97.178 60.6266 93.3656 58.551C92.8956 58.2951 92.4289 58.033 91.9651 57.766C91.5333 57.5174 91.1436 58.185 91.575 58.4334Z" fill="black"/>
<path d="M128.718 64.3688C126.731 65.5794 124.131 65.6765 121.893 65.2885C120.803 65.0994 119.716 64.787 118.739 64.2584C117.579 63.6303 116.44 62.69 116.041 61.3834C115.168 58.5193 118.559 56.8432 120.835 56.3924C122.173 56.1275 123.471 56.2014 124.802 56.4474C126.066 56.681 127.397 56.8889 128.532 57.5294C129.772 58.2288 130.659 59.5091 130.694 60.9562C130.729 62.3929 129.906 63.6222 128.718 64.3688C128.297 64.6328 128.685 65.3018 129.108 65.0362C130.328 64.2694 131.235 63.0788 131.427 61.6264C131.616 60.2025 131.08 58.7585 130.079 57.7401C129.075 56.7184 127.689 56.2523 126.321 55.957C124.875 55.6448 123.411 55.3507 121.925 55.4684C120.429 55.587 118.919 55.996 117.629 56.7766C116.407 57.5161 115.305 58.6526 115.148 60.1326C114.986 61.651 115.852 63.0617 116.982 64.0019C118.002 64.851 119.216 65.4178 120.49 65.7676C121.927 66.1617 123.448 66.3185 124.935 66.2221C126.384 66.1281 127.856 65.7988 129.108 65.0362C129.532 64.7777 129.144 64.109 128.718 64.3688Z" fill="black"/>
<path d="M134.101 39.7178C133.971 38.7838 134.537 37.8821 135.275 37.3579C136.018 36.83 136.927 36.554 137.834 36.5249C139.481 36.472 141.324 37.2388 141.855 38.9212C142.092 39.6741 142.044 40.5078 141.63 41.1911C141.302 41.7337 140.783 42.1464 140.215 42.417C139.117 42.9406 137.791 42.8931 136.662 42.4952C135.403 42.0508 134.328 41.0742 134.101 39.7178C134.019 39.2283 133.274 39.4359 133.355 39.9232C133.87 42.9919 137.833 44.2864 140.443 43.1575C141.142 42.8552 141.75 42.3688 142.19 41.7457C142.744 40.9599 142.883 39.944 142.68 39.0164C142.227 36.9464 140.17 35.8119 138.174 35.7518C135.846 35.6817 132.984 37.2442 133.355 39.9232C133.384 40.1316 133.648 40.2413 133.831 40.1931C134.054 40.1343 134.129 39.9235 134.101 39.7178Z" fill="black"/>
<path d="M87.1776 79.2545C90.0425 83.915 93.2606 88.3637 96.7403 92.5839C98.4761 94.6891 100.278 96.7481 102.181 98.7034C104.104 100.678 106.155 102.524 108.264 104.297C110.655 106.308 113.123 108.226 115.589 110.144C115.755 110.273 115.974 110.303 116.136 110.144C116.271 110.012 116.3 109.725 116.136 109.598C111.768 106.202 107.38 102.797 103.452 98.8883C99.5957 95.0522 96.1228 90.7967 92.9184 86.4076C91.1311 83.9597 89.4323 81.4466 87.845 78.8644C87.5849 78.4413 86.9161 78.8291 87.1776 79.2545Z" fill="black"/>
<path d="M80.7802 80.1593C83.7119 85.2575 87.2794 89.9335 91.2241 94.2867C93.0492 96.3007 94.9427 98.251 96.8458 100.191C98.7906 102.174 100.703 104.192 102.679 106.143C105.14 108.573 107.76 110.854 110.655 112.755C111.072 113.029 111.46 112.36 111.045 112.088C106.102 108.841 102.125 104.463 98.0088 100.273C94.2051 96.3998 90.4256 92.4926 87.0972 88.1953C85.0245 85.5192 83.135 82.7035 81.4476 79.7692C81.1997 79.3381 80.5316 79.7269 80.7802 80.1593Z" fill="black"/>
<path d="M38.2745 17.9212C38.5761 18.0217 38.8777 18.1223 39.1794 18.2229C39.2715 18.2536 39.395 18.2319 39.4771 18.1839C39.5573 18.137 39.6338 18.0451 39.6547 17.9529C39.7033 17.7396 39.5903 17.5461 39.3848 17.4776C39.0832 17.377 38.7816 17.2764 38.4799 17.1759C38.3878 17.1452 38.2643 17.1668 38.1822 17.2148C38.102 17.2617 38.0255 17.3537 38.0045 17.4458C37.956 17.6591 38.069 17.8527 38.2745 17.9212Z" fill="black"/>
<path d="M38.1601 20.4409C38.4646 20.5806 38.7691 20.7202 39.0736 20.8598C39.1705 20.9043 39.2648 20.9282 39.3714 20.8988C39.461 20.8741 39.5582 20.8048 39.6023 20.7212C39.6497 20.6315 39.6735 20.5229 39.6413 20.4234C39.6121 20.3331 39.5536 20.2337 39.4637 20.1925C39.1592 20.0528 38.8547 19.9132 38.5503 19.7736C38.4534 19.7291 38.359 19.7053 38.2525 19.7346C38.1628 19.7593 38.0657 19.8286 38.0215 19.9122C37.9741 20.0019 37.9504 20.1105 37.9825 20.21C38.0118 20.3003 38.0702 20.3997 38.1601 20.4409Z" fill="black"/>
<path d="M38.8135 24.5254C39.3108 24.5254 39.3116 23.7524 38.8135 23.7524C38.3162 23.7524 38.3153 24.5254 38.8135 24.5254Z" fill="black"/>
<path d="M90.3369 80.2418C91.3642 81.8364 92.4439 83.3968 93.5761 84.9187C94.1326 85.6667 94.7013 86.4058 95.2813 87.1358C95.84 87.8389 96.358 88.4979 97.1704 88.9186C98.0448 89.3714 98.8348 89.8271 99.5052 90.5648C99.8405 90.9338 100.386 90.3859 100.052 90.0183C99.4881 89.398 98.8121 88.8858 98.0659 88.5045C97.7072 88.3212 97.3259 88.1614 97.0036 87.9156C96.6601 87.6536 96.394 87.2958 96.1256 86.9619C94.9542 85.5045 93.8328 84.0071 92.7624 82.474C92.1599 81.6111 91.5743 80.7365 91.0043 79.8518C90.7358 79.435 90.0665 79.822 90.3369 80.2418Z" fill="black"/>
<path d="M40.1866 71.8611C33.9598 72.6647 27.6934 73.2121 21.4127 73.5018C16.6012 73.7238 10.5936 74.8914 5.95773 73.7116C5.55488 73.6091 5.14117 73.489 4.83056 73.2333C2.00905 70.9106 7.79496 66.5108 10.2248 66.5636C11.4973 66.5913 12.9133 67.1843 13.2073 68.3154C12.5615 68.678 11.6593 68.4358 11.1662 67.91C10.6732 67.3842 10.5244 66.6531 10.5458 65.9611C10.6232 63.457 12.7963 61.2379 15.4231 60.5163C18.05 59.7947 20.9766 60.418 23.2686 61.7945C24.4271 62.4902 25.4873 63.4198 25.9366 64.6177C26.3858 65.8156 26.0761 67.3098 24.9448 68.0419C24.7522 68.1665 24.5294 68.2697 24.2934 68.2658C23.7519 68.2566 23.4035 67.6631 23.5146 67.179C23.6257 66.695 24.0447 66.3236 24.4702 66.0176C27.1637 64.081 31.0142 63.5848 34.1892 64.7654C37.3643 65.9459 39.7403 68.757 40.1866 71.8611Z" fill="white"/>
<path d="M40.1861 71.4749C36.0687 72.0052 31.9373 72.4252 27.7971 72.7319C25.7441 72.884 23.689 73.0085 21.6326 73.1053C19.8656 73.1885 18.1065 73.3651 16.3455 73.5264C14.5216 73.6934 12.6924 73.8435 10.8596 73.8449C9.15663 73.8461 7.39919 73.7449 5.75764 73.257C5.23629 73.102 4.76186 72.7739 4.55858 72.2745C4.41505 71.9219 4.43483 71.5534 4.55115 71.171C4.84203 70.2146 5.6253 69.4186 6.37132 68.7877C7.18146 68.1026 8.13053 67.5025 9.13905 67.1593C10.1559 66.8132 11.4498 66.8918 12.3307 67.654C12.5715 67.8623 12.7472 68.111 12.8341 68.4183L13.0117 67.9819C12.3755 68.3143 11.5788 67.9384 11.2345 67.362C10.8481 66.7152 10.8709 65.8708 11.0376 65.1593C11.3707 63.7368 12.3745 62.5436 13.5841 61.7623C16.5123 59.8709 20.4341 60.4632 23.265 62.2466C24.5323 63.0449 25.8418 64.2884 25.7412 65.9129C25.7 66.5784 25.3896 67.2409 24.8467 67.6416C24.6018 67.8224 24.2401 68.0168 24.0046 67.7206C23.7966 67.4589 23.8874 67.1449 24.0709 66.8979C24.3069 66.58 24.6565 66.3472 24.9833 66.1327C25.3204 65.9115 25.6719 65.7127 26.0343 65.5359C26.778 65.1731 27.5713 64.9137 28.3805 64.743C29.9811 64.4053 31.6714 64.4391 33.2509 64.8701C36.1757 65.6682 38.7197 67.9486 39.5802 70.8917C39.6831 71.2435 39.7594 71.6017 39.8134 71.9641C39.8444 72.1721 40.1046 72.2825 40.2888 72.234C40.5105 72.1755 40.5893 71.964 40.5587 71.7586C40.0324 68.2276 37.2189 65.3206 33.8772 64.2496C32.0586 63.6667 30.0837 63.6031 28.2182 63.9888C27.2858 64.1817 26.3779 64.4978 25.5275 64.9262C24.7491 65.3184 23.8008 65.8374 23.3377 66.6059C22.896 67.3389 23.161 68.4399 24.0824 68.628C24.9514 68.8053 25.7948 67.9643 26.1546 67.257C27.0142 65.5669 26.2259 63.7251 24.9175 62.5303C23.4612 61.2004 21.5048 60.3372 19.5736 59.9963C17.6407 59.6552 15.6 59.8208 13.8361 60.7245C12.3048 61.5091 10.9956 62.8346 10.4295 64.4792C9.88058 66.074 10.1158 68.5003 12.1409 68.8403C12.5795 68.9139 13.0069 68.8556 13.4017 68.6493C13.5513 68.5712 13.6241 68.3714 13.5793 68.2129C13.1716 66.7705 11.3759 66.0736 9.99197 66.1849C8.92931 66.2703 7.90092 66.7924 7.01756 67.3589C6.00333 68.0094 5.04967 68.8238 4.36799 69.8256C3.79695 70.6648 3.44356 71.7325 3.90749 72.7005C4.1911 73.2923 4.731 73.7158 5.33946 73.9337C6.16022 74.2276 7.06191 74.3539 7.92369 74.4583C9.81164 74.687 11.7248 74.6406 13.6188 74.5191C15.5284 74.3965 17.4306 74.1853 19.3373 74.0276C21.3836 73.8583 23.4377 73.7954 25.4868 73.6643C29.8504 73.3853 34.206 72.9816 38.5465 72.4533C39.0932 72.3868 39.6397 72.3182 40.186 72.2478C40.3947 72.2209 40.5701 72.0894 40.5725 71.8613C40.5744 71.6731 40.3931 71.4482 40.1861 71.4749Z" fill="black"/>
<path d="M23.1711 19.2389C23.6867 19.6827 24.2024 20.1264 24.7181 20.5702C24.8712 20.702 25.1162 20.7319 25.2646 20.5702C25.3975 20.4254 25.4282 20.1645 25.2646 20.0237C24.7489 19.5799 24.2333 19.1361 23.7176 18.6923C23.5645 18.5606 23.3195 18.5307 23.1711 18.6923C23.0382 18.8371 23.0074 19.0981 23.1711 19.2389Z" fill="black"/>
<path d="M29.4396 13.8408C30.2331 14.3465 31.0265 14.8522 31.8199 15.3579C31.9907 15.4667 32.2538 15.3989 32.3487 15.2192C32.4497 15.0281 32.3923 14.8067 32.21 14.6905C31.4166 14.1848 30.6232 13.6791 29.8297 13.1735C29.659 13.0646 29.3959 13.1324 29.301 13.3121C29.2 13.5033 29.2574 13.7247 29.4396 13.8408Z" fill="black"/>
<path d="M0.280596 2.00944C0.775392 2.145 1.27017 2.28055 1.76496 2.41611C1.95977 2.46947 2.19397 2.34987 2.24035 2.14621C2.28681 1.94218 2.17908 1.72798 1.97044 1.67082C1.47564 1.53527 0.980868 1.39971 0.486071 1.26416C0.291263 1.2108 0.0570666 1.3304 0.0106912 1.53406C-0.0357734 1.73809 0.0719514 1.95229 0.280596 2.00944Z" fill="black"/>
<path d="M2.58671 6.78868C2.73514 6.60794 2.88358 6.42719 3.03203 6.24646C3.06973 6.21147 3.09635 6.17 3.11192 6.12209C3.13612 6.07602 3.14721 6.02639 3.1452 5.97318C3.14721 5.91998 3.13612 5.87035 3.11192 5.82429C3.09635 5.77637 3.0697 5.73493 3.03203 5.69991C2.95838 5.63231 2.86168 5.58212 2.75876 5.58672C2.66219 5.59105 2.54949 5.62198 2.48548 5.69991C2.33705 5.88066 2.18861 6.06141 2.04016 6.24213C2.00246 6.27712 1.97584 6.31859 1.96026 6.3665C1.93607 6.41257 1.92498 6.4622 1.92699 6.51541C1.92498 6.56861 1.93607 6.61824 1.96026 6.66431C1.97584 6.71222 2.00249 6.75367 2.04016 6.78868C2.11381 6.85628 2.21051 6.90647 2.31343 6.90187C2.41 6.89754 2.5227 6.86661 2.58671 6.78868Z" fill="black"/>
<path d="M5.96538 11.9387V11.3964C5.96538 11.2974 5.92226 11.1933 5.85219 11.1232C5.81719 11.0855 5.77573 11.0588 5.72781 11.0433C5.68175 11.0191 5.63211 11.008 5.57891 11.01C5.47897 11.0145 5.37531 11.0473 5.30563 11.1232C5.23623 11.1988 5.19244 11.2917 5.19244 11.3965V11.9387C5.19244 12.0378 5.23556 12.1419 5.30563 12.212C5.34063 12.2497 5.3821 12.2763 5.43001 12.2919C5.47607 12.316 5.52571 12.3271 5.57891 12.3251C5.67885 12.3206 5.78251 12.2878 5.85219 12.2119C5.92159 12.1363 5.96538 12.0434 5.96538 11.9387Z" fill="black"/>
<path d="M103.25 15.5572C102.024 15.1818 100.671 14.6985 99.846 13.6583C99.022 12.6193 98.9726 11.1444 99.2837 9.90558C99.8873 7.50181 101.905 5.58712 104.291 4.98543C106.653 4.38991 109.428 4.98636 111.192 6.70979C111.491 7.00139 112.242 7.78975 111.706 8.19213C111.597 8.27423 111.379 8.36449 111.248 8.28992C111.015 8.15776 111.285 7.76491 111.38 7.6244C112.093 6.56402 113.162 5.63508 114.257 4.99022C115.375 4.3316 116.69 3.92207 117.998 4.04136C119.185 4.14966 120.362 4.73938 121.145 5.63977C121.859 6.46147 122.177 7.67044 121.536 8.62895C121.227 9.09127 120.7 9.48218 120.131 9.51867C120.001 9.52702 119.478 9.52133 119.437 9.34346C119.385 9.11321 119.919 8.86935 120.069 8.80054C121.346 8.21764 122.782 8.47663 124.04 8.96042C125.236 9.42003 126.418 10.0907 127.252 11.082C128.011 11.9847 128.332 13.2383 127.91 14.3653C127.413 15.6912 125.987 16.1238 124.724 16.3735C121.549 17.0013 118.28 16.9814 115.059 16.8649C111.905 16.7508 108.713 16.7461 105.604 16.1403C104.81 15.9855 104.025 15.7908 103.25 15.5572C102.773 15.4133 102.569 16.1591 103.045 16.3025C106.573 17.3664 110.247 17.4661 113.901 17.5948C117.617 17.7256 121.366 17.8411 125.032 17.0984C126.578 16.7852 128.104 16.1248 128.668 14.5346C129.156 13.1578 128.729 11.662 127.824 10.5668C126.861 9.40173 125.446 8.65075 124.047 8.1408C122.583 7.6069 120.8 7.43546 119.406 8.27555C118.779 8.65314 118.295 9.57489 119.102 10.0615C119.727 10.4378 120.559 10.3228 121.171 9.98651C122.435 9.29143 122.953 7.76029 122.48 6.42056C122.012 5.09224 120.839 4.14257 119.561 3.6353C118.148 3.07415 116.569 3.16929 115.162 3.7033C113.725 4.24873 112.464 5.1938 111.441 6.33274C110.979 6.848 110.273 7.55046 110.407 8.31052C110.535 9.04153 111.339 9.22852 111.935 8.94625C112.632 8.61692 112.798 7.85688 112.501 7.1827C112.193 6.48207 111.542 5.93224 110.934 5.49229C109.757 4.63997 108.327 4.16569 106.887 4.02984C103.925 3.7503 100.997 5.12797 99.4121 7.66406C98.6575 8.87111 98.2339 10.333 98.3597 11.761C98.4311 12.5708 98.6711 13.3714 99.1625 14.0285C99.6178 14.6373 100.228 15.1028 100.897 15.4572C101.578 15.8182 102.309 16.0774 103.045 16.3025C103.521 16.4485 103.725 15.7027 103.25 15.5572Z" fill="black"/>
<path d="M68.3489 44.4713C68.0334 43.9703 67.5731 43.5281 67.0725 43.136C64.8558 41.3996 61.5269 39.7877 58.94 41.868C57.4287 43.0833 56.5512 45.0143 56.7972 46.8466C57.0613 48.8127 58.5964 50.6056 60.6432 51.261C62.69 51.9164 65.1493 51.3711 66.5948 49.8941C67.5948 48.8724 68.5387 47.6117 68.7481 46.2236C68.8467 45.5701 68.6752 44.9892 68.3489 44.4713Z" fill="white"/>
<path d="M68.682 44.2764C67.9994 43.2229 66.8959 42.449 65.8328 41.8128C64.8001 41.1948 63.6632 40.7082 62.4631 40.5514C61.2666 40.3951 60.045 40.6286 59.0402 41.3145C57.9943 42.0285 57.1909 43.0818 56.7388 44.2607C55.8751 46.5129 56.6485 49.0122 58.5002 50.5186C60.3882 52.0546 63.0049 52.3195 65.2085 51.3189C66.4901 50.737 67.4969 49.6394 68.2499 48.4716C68.6511 47.8495 68.9783 47.1505 69.1054 46.4168C69.2375 45.6544 69.0843 44.9349 68.682 44.2764C68.423 43.8526 67.7543 44.2405 68.0146 44.6665C68.3228 45.1709 68.4588 45.714 68.3434 46.3013C68.2296 46.8804 67.9895 47.4187 67.6835 47.9207C67.1156 48.8524 66.3372 49.7822 65.3939 50.3496C63.6082 51.4238 61.2527 51.4224 59.4958 50.2937C57.777 49.1896 56.778 47.1365 57.2796 45.1145C57.792 43.049 59.5913 41.2434 61.7999 41.2735C62.9829 41.2896 64.1274 41.7372 65.1471 42.3089C66.1939 42.8957 67.3514 43.6429 68.0146 44.6665C68.2841 45.0825 68.9535 44.6955 68.682 44.2764Z" fill="black"/>
<path d="M63.8565 43.1602C63.2867 42.5304 62.3645 42.1581 61.4715 42.2598C59.6717 42.4648 58.4059 44.098 58.346 45.6821C58.3127 46.5646 58.6928 47.566 59.3754 48.198C62.1449 50.7624 65.9016 45.4207 63.8565 43.1602Z" fill="black"/>
<path d="M64.1296 42.8848C62.8071 41.4704 60.6417 41.6211 59.2751 42.8778C57.9715 44.0765 57.5805 46.0041 58.4222 47.5784C59.0688 48.7879 60.4182 49.5625 61.7786 49.1408C62.9405 48.7806 63.8617 47.7719 64.3658 46.6937C64.9368 45.4725 65.0785 43.959 64.1296 42.8848C63.7996 42.5112 63.2547 43.0595 63.583 43.4313C64.1972 44.1266 64.1285 45.1289 63.8401 45.9535C63.5245 46.8563 62.8837 47.7168 62.0424 48.1896C61.203 48.6615 60.2826 48.5495 59.5872 47.8642C58.5092 46.8017 58.5112 45.1366 59.3555 43.9452C60.329 42.5716 62.3567 42.1197 63.583 43.4313C63.9235 43.7954 64.4692 43.248 64.1296 42.8848Z" fill="black"/>
<path d="M81.7485 47.7535C81.433 47.2525 80.9727 46.8103 80.4721 46.4182C78.2554 44.6818 74.9265 43.07 72.3396 45.1502C70.8283 46.3655 69.9508 48.2966 70.1968 50.1289C70.4609 52.095 71.996 53.8878 74.0428 54.5433C76.0896 55.1987 78.5489 54.6534 79.9944 53.1764C80.9944 52.1547 81.9383 50.894 82.1477 49.5058C82.2463 48.8523 82.0748 48.2715 81.7485 47.7535Z" fill="white"/>
<path d="M82.0815 47.5596C81.399 46.5061 80.2955 45.7322 79.2324 45.096C78.1997 44.478 77.0628 43.9914 75.8627 43.8346C74.6662 43.6783 73.4446 43.9118 72.4398 44.5977C71.3939 45.3117 70.5905 46.365 70.1384 47.5439C69.2747 49.7961 70.0481 52.2954 71.8998 53.8018C73.7878 55.3379 76.4045 55.6027 78.6081 54.6021C79.8897 54.0202 80.8965 52.9227 81.6495 51.7549C82.0507 51.1327 82.3779 50.4337 82.505 49.7C82.6371 48.9376 82.4839 48.2181 82.0815 47.5596C81.8226 47.1358 81.1539 47.5237 81.4142 47.9497C81.7224 48.4541 81.8584 48.9972 81.743 49.5845C81.6292 50.1636 81.3891 50.7019 81.0831 51.204C80.5152 52.1356 79.7368 53.0654 78.7935 53.6328C77.0078 54.707 74.6523 54.7056 72.8954 53.5769C71.1766 52.4728 70.1776 50.4197 70.6792 48.3977C71.1916 46.3322 72.9909 44.5266 75.1995 44.5567C76.3824 44.5728 77.527 45.0204 78.5467 45.5921C79.5935 46.1789 80.751 46.9261 81.4142 47.9497C81.6837 48.3657 82.3531 47.9787 82.0815 47.5596Z" fill="black"/>
<path d="M77.2561 46.4424C76.6863 45.8126 75.7641 45.4403 74.8711 45.542C73.0713 45.747 71.8055 47.3802 71.7456 48.9643C71.7123 49.8468 72.0924 50.8482 72.775 51.4803C75.5445 54.0446 79.3012 48.7029 77.2561 46.4424Z" fill="black"/>
<path d="M77.5286 46.168C76.2062 44.7536 74.0408 44.9043 72.6742 46.161C71.3706 47.3597 70.9795 49.2873 71.8212 50.8616C72.4679 52.0712 73.8172 52.8457 75.1776 52.424C76.3395 52.0638 77.2607 51.0551 77.7648 49.9769C78.3358 48.7557 78.4776 47.2422 77.5286 46.168C77.1987 45.7944 76.6537 46.3427 76.9821 46.7145C77.5963 47.4098 77.5275 48.4121 77.2392 49.2367C76.9235 50.1395 76.2827 51 75.4415 51.4728C74.602 51.9447 73.6816 51.8327 72.9863 51.1474C71.9082 50.0849 71.9102 48.4198 72.7546 47.2284C73.728 45.8548 75.7558 45.4029 76.9821 46.7145C77.3225 47.0786 77.8683 46.5312 77.5286 46.168Z" fill="black"/>
<path d="M69.9137 48.714C69.504 48.3461 68.9671 48.0979 68.3998 48.0142C68.0536 47.9632 67.7007 47.972 67.3501 47.9776C67.1681 47.9805 66.9577 47.9705 66.8482 47.8377C66.7444 47.7117 66.7816 47.5335 66.8341 47.3832C66.9171 47.1453 67.0261 46.9158 67.1348 46.6867C67.1802 46.5911 67.2286 46.4918 67.3169 46.4258C67.43 46.3413 67.5862 46.3276 67.7322 46.3219C68.6993 46.2841 69.6749 46.4422 70.5686 46.7817C70.5912 46.7903 70.6157 46.8006 70.6264 46.8208C70.6369 46.8408 70.6307 46.8644 70.6243 46.8859C70.4848 47.3548 70.3452 47.8237 70.2056 48.2926" fill="black"/>
<path d="M70.1488 48.4793C69.6793 48.0675 69.1069 47.7892 68.4881 47.694C68.1332 47.6393 67.778 47.6395 67.4201 47.6443C67.3315 47.6455 67.1732 47.6737 67.0927 47.6168C67.1413 47.6512 67.1045 47.6337 67.1233 47.5754C67.145 47.5082 67.165 47.4414 67.1901 47.3752C67.2493 47.2191 67.3207 47.0682 67.3922 46.9174C67.4321 46.8332 67.4637 46.7239 67.5478 46.6783C67.6467 46.6248 67.8369 46.6507 67.9445 46.6496C68.1215 46.6479 68.2986 46.6529 68.4752 46.6641C68.8106 46.6855 69.1424 46.7322 69.4707 46.8037C69.6312 46.8386 69.7905 46.879 69.9482 46.9248C70.0381 46.951 70.1275 46.9789 70.2162 47.0086C70.2605 47.0234 70.3047 47.0387 70.3487 47.0544C70.4197 47.0899 70.4338 47.0905 70.3911 47.0563L70.3056 46.9095L70.3109 46.9416V46.7648C70.2031 47.2496 70.0266 47.7284 69.8849 48.2046C69.7626 48.6157 70.4042 48.7913 70.5262 48.3814C70.6413 47.9945 70.7565 47.6077 70.8716 47.2208C70.9174 47.0669 70.9949 46.8951 70.9469 46.7327C70.8854 46.525 70.6742 46.4653 70.4925 46.4014C69.7672 46.1467 68.9959 46.0099 68.2277 45.9874C67.8904 45.9776 67.4714 45.9419 67.1712 46.1248C66.8785 46.3031 66.7559 46.6999 66.6297 46.9989C66.4957 47.3163 66.3464 47.6871 66.561 48.0059C66.769 48.315 67.1584 48.313 67.4903 48.3083C67.893 48.3025 68.2934 48.305 68.6839 48.415C69.0501 48.5181 69.3922 48.6985 69.6785 48.9496C69.9991 49.2308 70.4713 48.7622 70.1488 48.4793Z" fill="black"/>
<path d="M67.1486 51.1708C66.544 50.7005 65.6733 50.4129 64.9699 50.8648C64.2871 51.3036 64.0738 52.2359 64.3879 52.959C64.5508 53.3342 64.8506 53.6424 65.2061 53.8406C65.5804 54.0493 65.9161 53.475 65.5418 53.2664C64.9945 52.9612 64.7134 52.3137 65.0464 51.7343C65.4037 51.1126 66.1787 51.2524 66.6783 51.6411C66.8199 51.7512 67.0105 51.7791 67.1486 51.6411C67.2633 51.5263 67.2911 51.2817 67.1486 51.1708Z" fill="black"/>
<path d="M64.7481 55.5477C64.084 55.7636 64.1662 56.5493 64.532 56.9993C64.9843 57.5557 65.7541 57.7177 66.4248 57.8335C67.847 58.0792 69.4661 57.9637 70.5315 56.8754C70.8311 56.5693 70.3612 56.0986 70.0612 56.4051C69.3344 57.1475 68.2611 57.3376 67.2609 57.2715C66.7223 57.2358 66.1508 57.1472 65.6414 56.9619C65.425 56.8832 65.2047 56.7715 65.0544 56.5915C65.0189 56.5491 64.811 56.2261 64.9249 56.1891C65.3303 56.0574 65.1568 55.4149 64.7481 55.5477Z" fill="black"/>
<path d="M70.0341 55.985C70.0844 56.1848 70.1306 56.3863 70.1855 56.585C70.2137 56.6867 70.2565 56.7835 70.321 56.8669C70.3662 56.9254 70.409 56.9684 70.4741 57.0092C70.552 57.058 70.6326 57.0708 70.7216 57.0812C70.8005 57.0905 70.9032 57.0374 70.9568 56.9838C71.0144 56.9262 71.0579 56.8315 71.0542 56.7487C71.0503 56.6627 71.0221 56.5735 70.9568 56.5136L70.8894 56.4616C70.8376 56.4315 70.7816 56.4164 70.7216 56.4162L70.7105 56.4149L70.7989 56.4267C70.7846 56.4242 70.7713 56.4206 70.7577 56.4155L70.8372 56.449C70.8213 56.442 70.807 56.4335 70.7931 56.4231L70.8604 56.4751C70.8441 56.4617 70.8302 56.4469 70.8172 56.4303L70.8692 56.4976C70.8499 56.4709 70.8347 56.4422 70.8216 56.412L70.8552 56.4914C70.8146 56.3916 70.795 56.2826 70.7687 56.1784L70.6754 55.8082C70.6328 55.6395 70.4346 55.5215 70.2663 55.5759C70.0918 55.6324 69.9885 55.8042 70.0341 55.985Z" fill="black"/>
<path d="M67.165 41.1474C68.2683 40.8384 69.439 40.903 70.505 41.321C70.6722 41.3866 70.87 41.249 70.9141 41.0888C70.9659 40.9002 70.8496 40.7455 70.6818 40.6797C69.5127 40.2213 68.1958 40.1679 66.9882 40.5061C66.5767 40.6214 66.7515 41.2632 67.165 41.1474Z" fill="black"/>
<path d="M75.761 41.8551C77.1436 41.696 78.5974 42.0599 79.6775 42.9575C80.0044 43.2292 80.4774 42.7611 80.1477 42.4872C78.9365 41.4806 77.3254 41.01 75.761 41.19C75.5826 41.2105 75.4285 41.3282 75.4285 41.5225C75.4285 41.6863 75.5814 41.8757 75.761 41.8551Z" fill="black"/>
<path d="M91.7047 58.2286C88.0351 56.1655 84.2203 54.3178 80.2916 52.7008C80.1071 52.6248 79.9023 52.5293 79.8456 52.3519C79.7976 52.202 79.8734 52.0448 79.9475 51.9041C80.1321 51.5528 80.3168 51.2016 80.5015 50.8504C80.5605 50.7382 80.6278 50.6181 80.7503 50.5638C80.9036 50.4957 81.0851 50.5542 81.2428 50.6134C83.1492 51.3282 85.0325 52.0944 86.8894 52.9107C88.9002 53.7946 90.8794 54.7369 92.8582 55.6791C93.5348 56.0012 94.2113 56.3233 94.8878 56.6455C95.5672 56.9689 96.2466 57.2924 96.9242 57.619C97.9135 58.0957 98.8991 58.579 99.8808 59.0688C100.255 59.2553 100.642 59.4548 100.878 59.7786C101.292 60.3463 101.118 61.1001 100.929 61.7597C100.886 61.9103 100.827 62.0789 100.674 62.1465C100.529 62.2104 100.357 62.1581 100.208 62.1029C99.1272 61.7024 98.1112 61.1707 97.0992 60.6406C95.5296 59.8187 93.96 58.9966 92.3904 58.1747" fill="black"/>
<path d="M91.8733 57.9415C89.1718 56.4245 86.4038 55.0273 83.5782 53.7562C82.869 53.4372 82.1561 53.126 81.4399 52.8228C81.1055 52.6811 80.7684 52.5455 80.4346 52.4024C80.3736 52.3763 80.3091 52.3525 80.2529 52.3167C80.1492 52.2506 80.1652 52.2785 80.1917 52.1582C80.2316 51.9773 80.4017 51.7555 80.4872 51.593C80.5711 51.4334 80.6547 51.2735 80.739 51.1141C80.8211 50.9589 80.8402 50.8389 81.033 50.8925C81.4197 51.0001 81.7997 51.1773 82.1742 51.322C82.9193 51.6098 83.6613 51.9057 84.4 52.2096C87.3559 53.4259 90.2411 54.7998 93.1261 56.1734C94.5352 56.8444 95.9462 57.5116 97.3503 58.193C98.0744 58.5444 98.7968 58.8995 99.5173 59.2581C100.097 59.5466 100.767 59.8239 100.799 60.565C100.814 60.9257 100.721 61.2866 100.621 61.63C100.607 61.6764 100.601 61.7469 100.572 61.7861C100.499 61.8875 100.412 61.8215 100.298 61.7823C100.094 61.7128 99.8948 61.6282 99.6972 61.5446C98.9301 61.22 98.1895 60.8356 97.4518 60.45C95.8203 59.5969 94.1899 58.7417 92.559 57.8876C92.1802 57.6892 91.8436 58.263 92.2233 58.4619C93.8236 59.2999 95.4236 60.1384 97.0241 60.976C97.7617 61.3621 98.5012 61.7466 99.2656 62.0776C99.8845 62.3457 100.868 62.8891 101.208 61.9789C101.432 61.3787 101.584 60.6074 101.36 59.9883C101.1 59.2667 100.394 58.9529 99.7548 58.635C98.1644 57.8442 96.5634 57.0759 94.9598 56.3124C91.786 54.8012 88.6217 53.2662 85.3805 51.9027C84.5777 51.565 83.7709 51.2366 82.9603 50.918C82.5545 50.7585 82.1478 50.6014 81.7401 50.4467C81.4077 50.3206 81.0239 50.115 80.6627 50.2431C80.3121 50.3675 80.1722 50.7642 80.0137 51.0657C79.8351 51.4052 79.5162 51.8206 79.5033 52.2157C79.4924 52.5467 79.7016 52.7835 79.985 52.9263C80.3754 53.1231 80.7995 53.2675 81.202 53.4384C84.7373 54.9392 88.1888 56.6352 91.5376 58.5158C91.9112 58.7256 92.2469 58.1513 91.8733 57.9415Z" fill="black"/>
<path d="M82.6436 38.3049C79.8412 37.2776 77.6696 34.9228 77.0379 32.226C76.7818 31.1325 76.814 29.8703 77.6438 29.0481C78.0812 28.6147 78.6934 28.3565 79.3194 28.2129C81.2821 27.7625 83.4008 28.3774 85.032 29.4714C86.6631 30.5654 87.8778 32.0934 88.9664 33.6515C89.025 32.3962 90.8944 31.7941 92.1413 32.3251C93.3883 32.856 94.1062 34.0456 94.7412 35.1602C94.3712 34.2301 95.1349 33.1243 96.1839 32.8765C97.2328 32.6287 98.3862 33.1362 98.9979 33.9529C99.6097 34.7696 99.7355 35.8302 99.5394 36.8034C100.16 36.3016 100.621 35.6582 101.204 35.1203C101.787 34.5824 102.562 34.1353 103.388 34.1978C104.213 34.2604 104.983 35.0318 104.719 35.7489C106.227 32.6159 110.349 31.2204 114.096 31.1696C114.901 31.1587 115.737 31.201 116.453 31.5389C117.168 31.8767 117.731 32.5814 117.626 33.3106C119.697 31.4817 123.171 31.6297 125.666 32.9458C127.399 33.8602 128.865 35.3522 129.218 37.1514C129.571 38.9506 128.56 41.0109 126.677 41.6304C128.691 42.1175 130.097 44.0078 130.129 45.9098C130.161 47.8119 128.969 49.6307 127.279 50.7423C125.588 51.8539 123.458 52.3122 121.375 52.3056C121.392 53.386 120.346 54.2845 119.206 54.5738C118.066 54.8631 116.854 54.6853 115.688 54.5058C113.571 54.1801 111.454 53.8543 109.336 53.5285C109.824 54.7476 109.22 56.2496 107.984 56.8904C106.457 57.6825 104.549 57.1443 102.899 56.5915C103.346 57.6744 102.038 58.7181 100.801 58.9699C97.9011 59.5605 94.9419 57.9758 93.009 55.915C90.7044 53.4581 89.3922 50.2634 89.2398 47.0312C89.1644 45.4327 89.3964 43.7431 90.4268 42.4489C89.0422 42.9235 87.504 43.0171 86.0628 42.7143C84.8122 42.4516 83.5297 41.7783 83.1703 40.6533C82.8109 39.5283 83.9685 38.1007 85.1897 38.4606" fill="black"/>
<path d="M82.7502 37.9192C81.3508 37.3988 80.0955 36.524 79.119 35.395C78.1996 34.3321 77.4632 32.9452 77.3207 31.5295C77.2498 30.8261 77.3213 30.0542 77.7841 29.4861C78.2921 28.8627 79.1514 28.6072 79.9199 28.5083C81.5829 28.2943 83.2849 28.8241 84.6784 29.717C86.3017 30.7571 87.5279 32.2917 88.6213 33.8532C88.8515 34.182 89.3377 34.0578 89.3665 33.6514C89.4388 32.6312 90.9478 32.401 91.7174 32.6026C93.0175 32.9432 93.7789 34.2802 94.3961 35.3619C94.6145 35.7447 95.2866 35.4891 95.127 35.0538C94.9256 34.5044 95.1753 33.9553 95.6113 33.596C96.1155 33.1806 96.8027 33.1329 97.4101 33.3174C98.8706 33.7611 99.4216 35.2955 99.154 36.697C99.0768 37.1014 99.5103 37.3439 99.8224 37.0861C100.691 36.3686 101.295 35.3317 102.325 34.8187C102.759 34.6026 103.305 34.4928 103.761 34.7025C104.12 34.8674 104.468 35.2244 104.333 35.6426C104.196 36.0681 104.863 36.3611 105.064 35.9507C105.858 34.329 107.357 33.2165 109.003 32.5497C110.796 31.8233 112.796 31.4964 114.728 31.5761C115.707 31.6164 117.372 32.0048 117.226 33.3105C117.184 33.6859 117.676 33.7958 117.909 33.5933C119.777 31.9707 122.664 32.0919 124.83 32.9907C126.927 33.8611 129.295 35.9694 128.837 38.4886C128.611 39.7299 127.785 40.8307 126.571 41.2446C126.214 41.3664 126.169 41.9143 126.571 42.0159C128.538 42.5118 129.944 44.4533 129.702 46.4853C129.434 48.7361 127.519 50.436 125.502 51.2025C124.184 51.7031 122.78 51.9052 121.376 51.9056C121.158 51.9057 120.977 52.0888 120.976 52.3055C120.97 53.1288 120.257 53.7425 119.55 54.0405C118.573 54.452 117.438 54.3525 116.416 54.2124C114.087 53.8934 111.766 53.5003 109.443 53.1428C109.176 53.1018 108.83 53.3176 108.951 53.6347C109.408 54.8315 108.743 56.1573 107.582 56.6397C106.121 57.2466 104.42 56.6783 103.006 56.2058C102.732 56.1142 102.408 56.4154 102.514 56.6977C102.772 57.3817 102.172 57.9278 101.624 58.2383C100.919 58.638 100.074 58.7222 99.2771 58.6892C97.5837 58.619 95.9687 57.8646 94.6359 56.8512C91.9348 54.7976 90.1881 51.4891 89.7397 48.1531C89.4961 46.3407 89.5333 44.2392 90.7098 42.7316C90.9299 42.4496 90.7419 41.9218 90.3207 42.0632C88.5111 42.6707 86.1844 42.7504 84.5188 41.6838C83.9196 41.3 83.3417 40.6329 83.553 39.8749C83.7348 39.2226 84.3838 38.6596 85.0836 38.8462C85.5815 38.9789 85.7939 38.2076 85.2963 38.0749C83.7558 37.6642 82.262 39.3875 82.8234 40.868C83.4659 42.5627 85.5248 43.1501 87.1583 43.2671C88.2957 43.3486 89.4529 43.1972 90.5334 42.8344L90.1443 42.166C88.9515 43.6944 88.7147 45.6469 88.8729 47.5292C89.0336 49.4406 89.5763 51.3052 90.4613 53.0069C92.1632 56.2791 95.3733 59.3011 99.2324 59.4868C100.251 59.5358 101.338 59.3848 102.208 58.8195C102.977 58.3195 103.645 57.4396 103.285 56.4851L102.793 56.977C104.482 57.5411 106.451 58.1061 108.145 57.2562C109.506 56.5738 110.275 54.8711 109.722 53.4222L109.23 53.9141C111.256 54.2258 113.282 54.5375 115.308 54.8492C117.029 55.114 119.033 55.4742 120.559 54.3885C121.249 53.8974 121.769 53.1788 121.776 52.3055L121.376 52.7054C124.029 52.7046 126.878 51.9923 128.77 50.0217C130.433 48.2898 131.123 45.7087 129.846 43.5537C129.172 42.4173 128.067 41.5683 126.784 41.2447V42.0159C128.059 41.581 129.017 40.5708 129.451 39.3021C129.895 38.0071 129.669 36.616 128.985 35.4485C127.527 32.9604 124.468 31.552 121.65 31.5474C120.09 31.5449 118.535 31.993 117.344 33.0278L118.026 33.3105C118.164 32.0812 117.002 31.1997 115.933 30.9335C114.825 30.6575 113.601 30.7435 112.476 30.8748C110.394 31.118 108.262 31.733 106.56 32.997C105.648 33.6742 104.875 34.5217 104.374 35.547L105.104 35.8552C105.298 35.2551 105.019 34.6454 104.548 34.262C103.996 33.8127 103.291 33.7063 102.608 33.8694C101.12 34.225 100.361 35.608 99.2568 36.5205L99.9252 36.9096C100.109 35.9448 100.039 34.9254 99.5448 34.0581C99.1031 33.2834 98.3271 32.7092 97.46 32.5021C96.5959 32.2958 95.6908 32.4625 95.0166 33.0552C94.4039 33.5938 94.0662 34.4765 94.3558 35.2664L95.0867 34.9582C94.3238 33.621 93.3206 32.0392 91.6631 31.7768C90.382 31.5739 88.6721 32.1632 88.5667 33.6514L89.3119 33.4495C88.2239 31.8958 87.0276 30.4011 85.4717 29.2905C83.9735 28.221 82.09 27.5514 80.2342 27.6785C79.3272 27.7406 78.3731 27.9651 77.6399 28.5275C76.9367 29.0668 76.5847 29.8705 76.5107 30.7396C76.3744 32.3425 77.1082 34.036 78.035 35.3064C79.1673 36.8586 80.7395 38.0217 82.5376 38.6904C83.0206 38.87 83.2292 38.0973 82.7502 37.9192Z" fill="black"/>
<path d="M67.8832 36.1324C67.2939 35.3539 67.2691 34.2526 67.8227 33.4526C68.3763 32.6525 69.4763 32.2004 70.4991 32.3523C70.168 31.7305 70.5656 30.9629 71.1532 30.5268C72.1531 29.7846 73.6046 29.7201 74.8266 30.0934C76.0486 30.4666 77.0853 31.2166 78.052 31.9946C78.2463 32.151 78.4495 32.3252 78.5035 32.5565C78.573 32.8546 78.3621 33.1598 78.081 33.3241C77.8 33.4885 77.4611 33.543 77.1326 33.5967C74.0057 34.1078 70.9241 34.8496 67.9277 35.8126C68.0659 35.8868 68.2722 35.7974 68.2966 35.6527" fill="black"/>
<path d="M68.228 35.9303C67.7217 35.2338 67.6685 34.2692 68.2247 33.5779C68.7655 32.9056 69.665 32.6416 70.4986 32.7519C70.8275 32.7955 70.9588 32.3877 70.8439 32.1502C70.6048 31.656 71.0406 31.0972 71.4233 30.8222C71.8775 30.496 72.4401 30.3271 72.9936 30.2838C74.28 30.1829 75.4773 30.6742 76.536 31.3671C76.8049 31.543 77.066 31.7308 77.3216 31.9254C77.5572 32.1048 77.8545 32.2881 78.0395 32.5219C78.4313 33.0173 77.1714 33.1865 76.9191 33.2283C75.4647 33.4691 74.0184 33.759 72.5839 34.0992C70.9796 34.4797 69.391 34.9235 67.8208 35.4266C67.4333 35.5508 67.4499 36.0669 67.8208 36.1979C68.1938 36.3296 68.5548 36.1136 68.6816 35.7587C68.8552 35.2731 68.0827 35.0641 67.9104 35.546C67.936 35.4879 67.977 35.4481 68.0334 35.4266V36.1979C69.7062 35.6619 71.4 35.1933 73.1112 34.7966C73.9516 34.6018 74.7959 34.424 75.6435 34.2634C76.0324 34.1897 76.422 34.1197 76.8122 34.0531C77.2193 33.9837 77.6423 33.9439 78.0282 33.7888C78.6792 33.5272 79.181 32.8152 78.7504 32.1406C78.5588 31.8405 78.2348 31.6291 77.9587 31.4144C77.6529 31.1767 77.3425 30.9447 77.0202 30.7297C75.7844 29.9055 74.3275 29.3297 72.8189 29.5009C72.0405 29.5893 71.2538 29.8609 70.6749 30.4072C70.0849 30.9639 69.786 31.7946 70.1533 32.5538L70.4985 31.9521C69.4024 31.807 68.2257 32.2579 67.5542 33.1458C66.8545 34.0709 66.858 35.3994 67.5374 36.3339C67.8371 36.7462 68.5313 36.3475 68.228 35.9303Z" fill="black"/>
</svg>
