<svg width="271" height="21" viewBox="0 0 271 21" fill="none" xmlns="http://www.w3.org/2000/svg">
<rect width="271" height="21" rx="10.5" fill="url(#paint0_linear_914_292)"/>
<path d="M29.8301 13.6133H20.291V12.8516H24.5801V10.6016H21.416V5.26953H22.3418V7.15625H27.7559V5.26953H28.6582V10.6016H25.4824V12.8516H29.8301V13.6133ZM27.7559 9.85156V7.90625H22.3418V9.85156H27.7559ZM35.8887 5.50391C35.8887 5.97266 36.0703 6.42188 36.4336 6.85156C36.8008 7.28125 37.2773 7.64258 37.8633 7.93555C38.4492 8.22852 39.0566 8.41797 39.6855 8.50391L39.3105 9.25391C38.7637 9.16406 38.2344 9.00781 37.7227 8.78516C37.2109 8.55859 36.7539 8.27734 36.3516 7.94141C35.9492 7.60156 35.6387 7.22461 35.4199 6.81055C35.2051 7.22461 34.8945 7.60156 34.4883 7.94141C34.0859 8.27734 33.6289 8.55859 33.1172 8.78516C32.6055 9.00781 32.0762 9.16406 31.5293 9.25391L31.1543 8.50391C31.7871 8.41797 32.3945 8.23047 32.9766 7.94141C33.5586 7.64844 34.0312 7.28906 34.3945 6.86328C34.7578 6.43359 34.9395 5.98047 34.9395 5.50391V4.90625H35.8887V5.50391ZM40.1543 11.1758H35.8418V14.9492H34.9395V11.1758H30.6621V10.4023H40.1543V11.1758ZM47.1855 14.1172C46.6816 14.1172 46.2227 14.0215 45.8086 13.8301C45.3984 13.6348 45.0703 13.3672 44.8242 13.0273C44.582 12.6836 44.4512 12.2969 44.4316 11.8672H45.4512C45.4785 12.1172 45.5723 12.3438 45.7324 12.5469C45.8926 12.7461 46.0996 12.9043 46.3535 13.0215C46.6074 13.1348 46.8848 13.1914 47.1855 13.1914C47.5449 13.1914 47.8691 13.1094 48.1582 12.9453C48.4473 12.7812 48.6738 12.5566 48.8379 12.2715C49.002 11.9863 49.084 11.668 49.084 11.3164C49.084 10.9531 48.998 10.627 48.8262 10.3379C48.6582 10.0449 48.4238 9.81641 48.123 9.65234C47.8262 9.48438 47.4902 9.39844 47.1152 9.39453C46.3613 9.38281 45.834 9.63672 45.5332 10.1562H44.5137L45.1113 5.51562H49.7051V6.45312H45.9902L45.6738 8.9375H45.7559C45.9473 8.78906 46.1797 8.66992 46.4531 8.58008C46.7266 8.49023 47.0098 8.44531 47.3027 8.44531C47.834 8.44531 48.3125 8.56836 48.7383 8.81445C49.168 9.05664 49.5039 9.39453 49.7461 9.82812C49.9922 10.2617 50.1152 10.75 50.1152 11.293C50.1152 11.832 49.9883 12.3164 49.7344 12.7461C49.4805 13.1758 49.1309 13.5117 48.6855 13.7539C48.2402 13.9961 47.7402 14.1172 47.1855 14.1172ZM53.373 9.45312C53.0137 9.45312 52.7051 9.36914 52.4473 9.20117C52.1934 9.0332 52 8.79688 51.8672 8.49219C51.7383 8.18359 51.6738 7.82422 51.6738 7.41406C51.6738 7.01562 51.7402 6.66406 51.873 6.35938C52.0098 6.05078 52.2051 5.8125 52.459 5.64453C52.7168 5.47266 53.0215 5.38672 53.373 5.38672C53.7363 5.38672 54.0449 5.47266 54.2988 5.64453C54.5527 5.8125 54.7441 6.04883 54.873 6.35352C55.0059 6.6582 55.0723 7.01172 55.0723 7.41406C55.0723 7.82031 55.0059 8.17773 54.873 8.48633C54.7402 8.79102 54.5449 9.0293 54.2871 9.20117C54.0332 9.36914 53.7285 9.45312 53.373 9.45312ZM53.373 8.72656C53.6543 8.72656 53.8652 8.61133 54.0059 8.38086C54.1465 8.14648 54.2168 7.82422 54.2168 7.41406C54.2168 7.00391 54.1484 6.68359 54.0117 6.45312C53.875 6.22266 53.6621 6.10938 53.373 6.11328C53.0996 6.11328 52.8906 6.23047 52.7461 6.46484C52.6016 6.69531 52.5293 7.01172 52.5293 7.41406C52.5293 7.82031 52.6016 8.14062 52.7461 8.375C52.8906 8.60938 53.0996 8.72656 53.373 8.72656ZM58.5527 14.1172C58.1934 14.1211 57.8848 14.0391 57.627 13.8711C57.3691 13.7031 57.1738 13.4668 57.041 13.1621C56.9121 12.8535 56.8496 12.4961 56.8535 12.0898C56.8496 11.6875 56.9141 11.332 57.0469 11.0234C57.1836 10.7148 57.3809 10.4766 57.6387 10.3086C57.8965 10.1367 58.2012 10.0508 58.5527 10.0508C58.9121 10.0508 59.2188 10.1367 59.4727 10.3086C59.7266 10.4766 59.918 10.7148 60.0469 11.0234C60.1758 11.3281 60.2402 11.6836 60.2402 12.0898C60.2402 12.4922 60.1738 12.8477 60.041 13.1562C59.9082 13.4648 59.7148 13.7031 59.4609 13.8711C59.207 14.0391 58.9043 14.1211 58.5527 14.1172ZM58.5527 13.3906C58.8262 13.3906 59.0332 13.2754 59.1738 13.0449C59.3145 12.8145 59.3848 12.4961 59.3848 12.0898C59.3848 11.6797 59.3184 11.3594 59.1855 11.1289C59.0527 10.8945 58.8496 10.7773 58.5762 10.7773C58.2949 10.7773 58.0781 10.8945 57.9258 11.1289C57.7734 11.3594 57.6973 11.6797 57.6973 12.0898C57.6973 12.4922 57.7695 12.8105 57.9141 13.0449C58.0586 13.2754 58.2715 13.3906 58.5527 13.3906ZM58.3418 5.51562H59.291L53.4551 14H52.5059L58.3418 5.51562Z" fill="#1A1A1A"/>
<path d="M120.609 10.168H116.309V11.2812C117.301 11.3242 118.07 11.5039 118.617 11.8203C119.168 12.1328 119.445 12.5625 119.449 13.1094C119.445 13.4922 119.301 13.8184 119.016 14.0879C118.73 14.3613 118.32 14.5684 117.785 14.709C117.25 14.8535 116.609 14.9258 115.863 14.9258C115.113 14.9258 114.469 14.8535 113.93 14.709C113.391 14.5684 112.979 14.3613 112.693 14.0879C112.408 13.8184 112.266 13.4922 112.266 13.1094C112.266 12.5625 112.539 12.1328 113.086 11.8203C113.633 11.5039 114.406 11.3242 115.406 11.2812V10.168H111.117V9.40625H120.609V10.168ZM115.863 11.9844C115.305 11.9883 114.826 12.0352 114.428 12.125C114.029 12.2148 113.725 12.3438 113.514 12.5117C113.303 12.6758 113.199 12.875 113.203 13.1094C113.199 13.3398 113.303 13.5371 113.514 13.7012C113.725 13.8652 114.029 13.9902 114.428 14.0762C114.83 14.166 115.309 14.2109 115.863 14.2109C116.41 14.2109 116.883 14.166 117.281 14.0762C117.684 13.9902 117.99 13.8652 118.201 13.7012C118.416 13.5371 118.523 13.3398 118.523 13.1094C118.523 12.8789 118.416 12.6797 118.201 12.5117C117.99 12.3438 117.686 12.2148 117.287 12.125C116.889 12.0352 116.414 11.9883 115.863 11.9844ZM119.766 5.77344H116.461C116.48 6.15234 116.66 6.50391 117 6.82812C117.34 7.14844 117.783 7.41602 118.33 7.63086C118.877 7.8418 119.461 7.98047 120.082 8.04688L119.742 8.77344C119.164 8.70312 118.615 8.57422 118.096 8.38672C117.576 8.19531 117.121 7.95117 116.73 7.6543C116.34 7.35742 116.051 7.02148 115.863 6.64648C115.68 7.02148 115.393 7.35742 115.002 7.6543C114.611 7.95117 114.156 8.19531 113.637 8.38672C113.117 8.57422 112.566 8.70312 111.984 8.77344L111.656 8.04688C112.266 7.98047 112.842 7.8418 113.385 7.63086C113.932 7.41602 114.375 7.14648 114.715 6.82227C115.059 6.49805 115.242 6.14844 115.266 5.77344H111.984V5.02344H119.766V5.77344ZM129.902 10.168H126.68V12.8633H131.027V13.6367H121.488V12.8633H125.777V10.168H122.707V5.38672H129.797V6.13672H123.633V9.41797H129.902V10.168ZM138.047 5.39844C138.59 5.39844 139.094 5.52344 139.559 5.77344C140.023 6.01953 140.404 6.44141 140.701 7.03906C141.002 7.63672 141.152 8.42969 141.152 9.41797C141.152 10.4102 141.021 11.2598 140.76 11.9668C140.502 12.6699 140.131 13.2051 139.646 13.5723C139.166 13.9355 138.594 14.1172 137.93 14.1172C137.441 14.1172 137.002 14.0234 136.611 13.8359C136.221 13.6445 135.9 13.3789 135.65 13.0391C135.404 12.6992 135.246 12.3047 135.176 11.8555H136.219C136.316 12.2539 136.512 12.5742 136.805 12.8164C137.098 13.0586 137.473 13.1797 137.93 13.1797C138.391 13.1797 138.787 13.0527 139.119 12.7988C139.455 12.541 139.713 12.168 139.893 11.6797C140.072 11.1914 140.164 10.6055 140.168 9.92188H140.051C139.801 10.2773 139.488 10.5547 139.113 10.7539C138.738 10.9492 138.328 11.0469 137.883 11.0469C137.379 11.0469 136.914 10.9277 136.488 10.6895C136.062 10.4473 135.725 10.1133 135.475 9.6875C135.229 9.26172 135.105 8.78125 135.105 8.24609C135.105 7.72266 135.227 7.24414 135.469 6.81055C135.715 6.37695 136.061 6.0332 136.506 5.7793C136.951 5.52539 137.465 5.39844 138.047 5.39844ZM138.07 6.32422C137.711 6.32422 137.383 6.41016 137.086 6.58203C136.793 6.75 136.561 6.97852 136.389 7.26758C136.221 7.55664 136.137 7.87109 136.137 8.21094C136.137 8.56641 136.217 8.89062 136.377 9.18359C136.537 9.47266 136.762 9.70117 137.051 9.86914C137.34 10.0371 137.668 10.1211 138.035 10.1211C138.395 10.1211 138.725 10.0332 139.025 9.85742C139.326 9.67773 139.564 9.44141 139.74 9.14844C139.916 8.85156 140.004 8.53906 140.004 8.21094C140.004 7.88672 139.92 7.58008 139.752 7.29102C139.584 6.99805 139.352 6.76367 139.055 6.58789C138.762 6.41211 138.434 6.32422 138.07 6.32422ZM145.383 14.1172C144.758 14.1172 144.223 13.9473 143.777 13.6074C143.336 13.2676 142.998 12.7715 142.764 12.1191C142.533 11.4668 142.418 10.6797 142.418 9.75781C142.418 8.84766 142.535 8.06641 142.77 7.41406C143.004 6.75781 143.344 6.25781 143.789 5.91406C144.234 5.57031 144.766 5.39844 145.383 5.39844C146 5.39844 146.531 5.57031 146.977 5.91406C147.422 6.25781 147.762 6.75781 147.996 7.41406C148.23 8.06641 148.348 8.84766 148.348 9.75781C148.348 10.6797 148.23 11.4668 147.996 12.1191C147.766 12.7715 147.428 13.2676 146.982 13.6074C146.537 13.9473 146.004 14.1172 145.383 14.1172ZM145.383 13.1797C145.789 13.1797 146.137 13.0469 146.426 12.7812C146.715 12.5156 146.936 12.127 147.088 11.6152C147.24 11.1035 147.316 10.4844 147.316 9.75781C147.316 9.03125 147.24 8.41016 147.088 7.89453C146.936 7.37891 146.715 6.98633 146.426 6.7168C146.137 6.44727 145.789 6.3125 145.383 6.3125C144.977 6.3125 144.627 6.44727 144.334 6.7168C144.045 6.98633 143.822 7.37891 143.666 7.89453C143.514 8.41016 143.438 9.03125 143.438 9.75781C143.438 10.4844 143.514 11.1035 143.666 11.6152C143.818 12.127 144.039 12.5156 144.328 12.7812C144.621 13.0469 144.973 13.1797 145.383 13.1797ZM151.547 9.45312C151.188 9.45312 150.879 9.36914 150.621 9.20117C150.367 9.0332 150.174 8.79688 150.041 8.49219C149.912 8.18359 149.848 7.82422 149.848 7.41406C149.848 7.01562 149.914 6.66406 150.047 6.35938C150.184 6.05078 150.379 5.8125 150.633 5.64453C150.891 5.47266 151.195 5.38672 151.547 5.38672C151.91 5.38672 152.219 5.47266 152.473 5.64453C152.727 5.8125 152.918 6.04883 153.047 6.35352C153.18 6.6582 153.246 7.01172 153.246 7.41406C153.246 7.82031 153.18 8.17773 153.047 8.48633C152.914 8.79102 152.719 9.0293 152.461 9.20117C152.207 9.36914 151.902 9.45312 151.547 9.45312ZM151.547 8.72656C151.828 8.72656 152.039 8.61133 152.18 8.38086C152.32 8.14648 152.391 7.82422 152.391 7.41406C152.391 7.00391 152.322 6.68359 152.186 6.45312C152.049 6.22266 151.836 6.10938 151.547 6.11328C151.273 6.11328 151.064 6.23047 150.92 6.46484C150.775 6.69531 150.703 7.01172 150.703 7.41406C150.703 7.82031 150.775 8.14062 150.92 8.375C151.064 8.60938 151.273 8.72656 151.547 8.72656ZM156.727 14.1172C156.367 14.1211 156.059 14.0391 155.801 13.8711C155.543 13.7031 155.348 13.4668 155.215 13.1621C155.086 12.8535 155.023 12.4961 155.027 12.0898C155.023 11.6875 155.088 11.332 155.221 11.0234C155.357 10.7148 155.555 10.4766 155.812 10.3086C156.07 10.1367 156.375 10.0508 156.727 10.0508C157.086 10.0508 157.393 10.1367 157.646 10.3086C157.9 10.4766 158.092 10.7148 158.221 11.0234C158.35 11.3281 158.414 11.6836 158.414 12.0898C158.414 12.4922 158.348 12.8477 158.215 13.1562C158.082 13.4648 157.889 13.7031 157.635 13.8711C157.381 14.0391 157.078 14.1211 156.727 14.1172ZM156.727 13.3906C157 13.3906 157.207 13.2754 157.348 13.0449C157.488 12.8145 157.559 12.4961 157.559 12.0898C157.559 11.6797 157.492 11.3594 157.359 11.1289C157.227 10.8945 157.023 10.7773 156.75 10.7773C156.469 10.7773 156.252 10.8945 156.1 11.1289C155.947 11.3594 155.871 11.6797 155.871 12.0898C155.871 12.4922 155.943 12.8105 156.088 13.0449C156.232 13.2754 156.445 13.3906 156.727 13.3906ZM156.516 5.51562H157.465L151.629 14H150.68L156.516 5.51562Z" fill="#1A1A1A"/>
<path d="M214.024 6.76953C214.024 7.23047 214.138 7.67383 214.364 8.09961C214.591 8.52148 214.907 8.89258 215.313 9.21289C215.72 9.5293 216.181 9.76953 216.696 9.93359L216.228 10.6719C215.618 10.4648 215.083 10.1562 214.622 9.74609C214.161 9.33594 213.813 8.85547 213.579 8.30469C213.353 8.89844 213.005 9.41992 212.536 9.86914C212.071 10.3184 211.528 10.6562 210.907 10.8828L210.427 10.1445C210.942 9.96094 211.403 9.69727 211.81 9.35352C212.216 9.00977 212.532 8.61523 212.759 8.16992C212.985 7.7207 213.099 7.25391 213.099 6.76953V6.16016H210.661V5.41016H216.427V6.16016H214.024V6.76953ZM218.876 12.1836H217.962V4.54297H218.876V12.1836ZM219.204 14.7266H212.149V11.457H213.063V13.9531H219.204V14.7266ZM230.185 13.6133H220.646V12.8516H224.935V10.6016H221.771V5.26953H222.696V7.15625H228.11V5.26953H229.013V10.6016H225.837V12.8516H230.185V13.6133ZM228.11 9.85156V7.90625H222.696V9.85156H228.11ZM237.169 14.1172C236.665 14.1172 236.206 14.0215 235.792 13.8301C235.382 13.6348 235.054 13.3672 234.808 13.0273C234.565 12.6836 234.435 12.2969 234.415 11.8672H235.435C235.462 12.1172 235.556 12.3438 235.716 12.5469C235.876 12.7461 236.083 12.9043 236.337 13.0215C236.591 13.1348 236.868 13.1914 237.169 13.1914C237.528 13.1914 237.853 13.1094 238.142 12.9453C238.431 12.7812 238.657 12.5566 238.821 12.2715C238.985 11.9863 239.067 11.668 239.067 11.3164C239.067 10.9531 238.981 10.627 238.81 10.3379C238.642 10.0449 238.407 9.81641 238.106 9.65234C237.81 9.48438 237.474 9.39844 237.099 9.39453C236.345 9.38281 235.817 9.63672 235.517 10.1562H234.497L235.095 5.51562H239.688V6.45312H235.974L235.657 8.9375H235.739C235.931 8.78906 236.163 8.66992 236.437 8.58008C236.71 8.49023 236.993 8.44531 237.286 8.44531C237.817 8.44531 238.296 8.56836 238.722 8.81445C239.151 9.05664 239.487 9.39453 239.729 9.82812C239.976 10.2617 240.099 10.75 240.099 11.293C240.099 11.832 239.972 12.3164 239.718 12.7461C239.464 13.1758 239.114 13.5117 238.669 13.7539C238.224 13.9961 237.724 14.1172 237.169 14.1172ZM243.356 9.45312C242.997 9.45312 242.688 9.36914 242.431 9.20117C242.177 9.0332 241.983 8.79688 241.851 8.49219C241.722 8.18359 241.657 7.82422 241.657 7.41406C241.657 7.01562 241.724 6.66406 241.856 6.35938C241.993 6.05078 242.188 5.8125 242.442 5.64453C242.7 5.47266 243.005 5.38672 243.356 5.38672C243.72 5.38672 244.028 5.47266 244.282 5.64453C244.536 5.8125 244.728 6.04883 244.856 6.35352C244.989 6.6582 245.056 7.01172 245.056 7.41406C245.056 7.82031 244.989 8.17773 244.856 8.48633C244.724 8.79102 244.528 9.0293 244.271 9.20117C244.017 9.36914 243.712 9.45312 243.356 9.45312ZM243.356 8.72656C243.638 8.72656 243.849 8.61133 243.989 8.38086C244.13 8.14648 244.2 7.82422 244.2 7.41406C244.2 7.00391 244.132 6.68359 243.995 6.45312C243.858 6.22266 243.646 6.10938 243.356 6.11328C243.083 6.11328 242.874 6.23047 242.729 6.46484C242.585 6.69531 242.513 7.01172 242.513 7.41406C242.513 7.82031 242.585 8.14062 242.729 8.375C242.874 8.60938 243.083 8.72656 243.356 8.72656ZM248.536 14.1172C248.177 14.1211 247.868 14.0391 247.61 13.8711C247.353 13.7031 247.157 13.4668 247.024 13.1621C246.896 12.8535 246.833 12.4961 246.837 12.0898C246.833 11.6875 246.897 11.332 247.03 11.0234C247.167 10.7148 247.364 10.4766 247.622 10.3086C247.88 10.1367 248.185 10.0508 248.536 10.0508C248.896 10.0508 249.202 10.1367 249.456 10.3086C249.71 10.4766 249.901 10.7148 250.03 11.0234C250.159 11.3281 250.224 11.6836 250.224 12.0898C250.224 12.4922 250.157 12.8477 250.024 13.1562C249.892 13.4648 249.698 13.7031 249.444 13.8711C249.19 14.0391 248.888 14.1211 248.536 14.1172ZM248.536 13.3906C248.81 13.3906 249.017 13.2754 249.157 13.0449C249.298 12.8145 249.368 12.4961 249.368 12.0898C249.368 11.6797 249.302 11.3594 249.169 11.1289C249.036 10.8945 248.833 10.7773 248.56 10.7773C248.278 10.7773 248.062 10.8945 247.909 11.1289C247.757 11.3594 247.681 11.6797 247.681 12.0898C247.681 12.4922 247.753 12.8105 247.897 13.0449C248.042 13.2754 248.255 13.3906 248.536 13.3906ZM248.325 5.51562H249.274L243.438 14H242.489L248.325 5.51562Z" fill="#1A1A1A"/>
<defs>
<linearGradient id="paint0_linear_914_292" x1="0" y1="10.5" x2="271" y2="10.5" gradientUnits="userSpaceOnUse">
<stop stop-color="#FF5148"/>
<stop offset="0.153846" stop-color="white"/>
<stop offset="0.495192" stop-color="white"/>
<stop offset="0.836538" stop-color="white"/>
<stop offset="1" stop-color="#0097C5"/>
</linearGradient>
</defs>
</svg>
