<svg width="51" height="70" viewBox="0 0 51 70" fill="none" xmlns="http://www.w3.org/2000/svg">
<g filter="url(#filter0_d_303_10044)">
<path d="M4 64V2H47V64L25.5 56.5L4 64Z" fill="#FF5148"/>
</g>
<path d="M14.8619 19V10.5138H16.1506V14.1975H20.3729V10.5138H21.6657V19H20.3729V15.3039H16.1506V19H14.8619ZM30.7688 14.7569C30.7688 17.471 29.1404 19.116 26.9442 19.116C24.7357 19.116 23.1196 17.4669 23.1196 14.7569C23.1196 12.0428 24.7357 10.3978 26.9442 10.3978C29.1404 10.3978 30.7688 12.0428 30.7688 14.7569ZM24.4 14.7569C24.4 16.8204 25.4857 17.9392 26.9442 17.9392C28.4028 17.9392 29.4884 16.8204 29.4884 14.7569C29.4884 12.6934 28.4028 11.5746 26.9442 11.5746C25.4857 11.5746 24.4 12.6934 24.4 14.7569ZM31.4473 11.6243V10.5138H38.0232V11.6243H35.3837V19H34.0951V11.6243H31.4473Z" fill="#F7B0B0"/>
<path d="M28.5932 26.4917V47H25.4689V29.616H25.3488L20.452 32.8104V29.8363L25.549 26.4917H28.5932Z" fill="white"/>
<defs>
<filter id="filter0_d_303_10044" x="0" y="0" width="51" height="70" filterUnits="userSpaceOnUse" color-interpolation-filters="sRGB">
<feFlood flood-opacity="0" result="BackgroundImageFix"/>
<feColorMatrix in="SourceAlpha" type="matrix" values="0 0 0 0 0 0 0 0 0 0 0 0 0 0 0 0 0 0 127 0" result="hardAlpha"/>
<feOffset dy="2"/>
<feGaussianBlur stdDeviation="2"/>
<feComposite in2="hardAlpha" operator="out"/>
<feColorMatrix type="matrix" values="0 0 0 0 0 0 0 0 0 0 0 0 0 0 0 0 0 0 0.15 0"/>
<feBlend mode="normal" in2="BackgroundImageFix" result="effect1_dropShadow_303_10044"/>
<feBlend mode="normal" in="SourceGraphic" in2="effect1_dropShadow_303_10044" result="shape"/>
</filter>
</defs>
</svg>
