<svg width="51" height="70" viewBox="0 0 51 70" fill="none" xmlns="http://www.w3.org/2000/svg">
<g filter="url(#filter0_d_303_10040)">
<path d="M4 64V2H47V64L25.5 56.5L4 64Z" fill="#FF5148"/>
</g>
<path d="M14.8619 19V10.5138H16.1506V14.1975H20.3729V10.5138H21.6657V19H20.3729V15.3039H16.1506V19H14.8619ZM30.7688 14.7569C30.7688 17.471 29.1404 19.116 26.9442 19.116C24.7357 19.116 23.1196 17.4669 23.1196 14.7569C23.1196 12.0428 24.7357 10.3978 26.9442 10.3978C29.1404 10.3978 30.7688 12.0428 30.7688 14.7569ZM24.4 14.7569C24.4 16.8204 25.4857 17.9392 26.9442 17.9392C28.4028 17.9392 29.4884 16.8204 29.4884 14.7569C29.4884 12.6934 28.4028 11.5746 26.9442 11.5746C25.4857 11.5746 24.4 12.6934 24.4 14.7569ZM31.4473 11.6243V10.5138H38.0232V11.6243H35.3837V19H34.0951V11.6243H31.4473Z" fill="#F7B0B0"/>
<path d="M18.8125 47L18.8025 44.7369L25.9123 37.557C28.1654 35.2238 29.2869 33.932 29.297 32.1295C29.2869 30.1067 27.6447 28.8249 25.4917 28.8249C23.2186 28.8249 21.7666 30.2569 21.7666 32.4499H18.8025C18.7925 28.6948 21.6464 26.2113 25.5518 26.2113C29.5073 26.2113 32.241 28.7148 32.261 32.0394C32.241 34.3325 31.1595 36.1651 27.3142 39.9403L23.1485 44.1761V44.3263H32.5915V47H18.8125Z" fill="white"/>
<defs>
<filter id="filter0_d_303_10040" x="0" y="0" width="51" height="70" filterUnits="userSpaceOnUse" color-interpolation-filters="sRGB">
<feFlood flood-opacity="0" result="BackgroundImageFix"/>
<feColorMatrix in="SourceAlpha" type="matrix" values="0 0 0 0 0 0 0 0 0 0 0 0 0 0 0 0 0 0 127 0" result="hardAlpha"/>
<feOffset dy="2"/>
<feGaussianBlur stdDeviation="2"/>
<feComposite in2="hardAlpha" operator="out"/>
<feColorMatrix type="matrix" values="0 0 0 0 0 0 0 0 0 0 0 0 0 0 0 0 0 0 0.15 0"/>
<feBlend mode="normal" in2="BackgroundImageFix" result="effect1_dropShadow_303_10040"/>
<feBlend mode="normal" in="SourceGraphic" in2="effect1_dropShadow_303_10040" result="shape"/>
</filter>
</defs>
</svg>
