<svg width="51" height="70" viewBox="0 0 51 70" fill="none" xmlns="http://www.w3.org/2000/svg">
<g filter="url(#filter0_d_303_10041)">
<path d="M4 64V2H47V64L25.5 56.5L4 64Z" fill="#FF5148"/>
</g>
<path d="M14.8619 19V10.5138H16.1506V14.1975H20.3729V10.5138H21.6657V19H20.3729V15.3039H16.1506V19H14.8619ZM30.7688 14.7569C30.7688 17.471 29.1404 19.116 26.9442 19.116C24.7357 19.116 23.1196 17.4669 23.1196 14.7569C23.1196 12.0428 24.7357 10.3978 26.9442 10.3978C29.1404 10.3978 30.7688 12.0428 30.7688 14.7569ZM24.4 14.7569C24.4 16.8204 25.4857 17.9392 26.9442 17.9392C28.4028 17.9392 29.4884 16.8204 29.4884 14.7569C29.4884 12.6934 28.4028 11.5746 26.9442 11.5746C25.4857 11.5746 24.4 12.6934 24.4 14.7569ZM31.4473 11.6243V10.5138H38.0232V11.6243H35.3837V19H34.0951V11.6243H31.4473Z" fill="#F7B0B0"/>
<path d="M26.0825 47.2804C21.8467 47.2804 18.8225 44.9972 18.7124 41.6426H21.8667C21.9769 43.4451 23.7693 44.5967 26.0525 44.5967C28.5359 44.5967 30.3384 43.2448 30.3284 41.2621C30.3384 39.2293 28.6561 37.7773 25.712 37.7773H23.9696V35.2338H25.712C28.0552 35.2338 29.6875 33.932 29.6875 31.9693C29.6875 30.0867 28.2856 28.8249 26.1226 28.8249C24.0597 28.8249 22.2272 29.9665 22.1471 31.8191H19.143C19.2431 28.4845 22.3173 26.2113 26.1526 26.2113C30.1782 26.2113 32.7217 28.7648 32.7017 31.809C32.7217 34.1222 31.2797 35.8046 29.0767 36.3353V36.4955C31.8605 36.886 33.4927 38.7686 33.4727 41.3722C33.4927 44.7869 30.3384 47.2804 26.0825 47.2804Z" fill="white"/>
<defs>
<filter id="filter0_d_303_10041" x="0" y="0" width="51" height="70" filterUnits="userSpaceOnUse" color-interpolation-filters="sRGB">
<feFlood flood-opacity="0" result="BackgroundImageFix"/>
<feColorMatrix in="SourceAlpha" type="matrix" values="0 0 0 0 0 0 0 0 0 0 0 0 0 0 0 0 0 0 127 0" result="hardAlpha"/>
<feOffset dy="2"/>
<feGaussianBlur stdDeviation="2"/>
<feComposite in2="hardAlpha" operator="out"/>
<feColorMatrix type="matrix" values="0 0 0 0 0 0 0 0 0 0 0 0 0 0 0 0 0 0 0.15 0"/>
<feBlend mode="normal" in2="BackgroundImageFix" result="effect1_dropShadow_303_10041"/>
<feBlend mode="normal" in="SourceGraphic" in2="effect1_dropShadow_303_10041" result="shape"/>
</filter>
</defs>
</svg>
