<svg width="51" height="70" viewBox="0 0 51 70" fill="none" xmlns="http://www.w3.org/2000/svg">
<g filter="url(#filter0_d_303_10043)">
<path d="M4 64V2H47V64L25.5 56.5L4 64Z" fill="#FF5148"/>
</g>
<path d="M14.8619 19V10.5138H16.1506V14.1975H20.3729V10.5138H21.6657V19H20.3729V15.3039H16.1506V19H14.8619ZM30.7688 14.7569C30.7688 17.471 29.1404 19.116 26.9442 19.116C24.7357 19.116 23.1196 17.4669 23.1196 14.7569C23.1196 12.0428 24.7357 10.3978 26.9442 10.3978C29.1404 10.3978 30.7688 12.0428 30.7688 14.7569ZM24.4 14.7569C24.4 16.8204 25.4857 17.9392 26.9442 17.9392C28.4028 17.9392 29.4884 16.8204 29.4884 14.7569C29.4884 12.6934 28.4028 11.5746 26.9442 11.5746C25.4857 11.5746 24.4 12.6934 24.4 14.7569ZM31.4473 11.6243V10.5138H38.0232V11.6243H35.3837V19H34.0951V11.6243H31.4473Z" fill="#F7B0B0"/>
<path d="M25.7921 47.2804C21.8968 47.2804 18.9827 44.9171 18.8526 41.6426H21.8867C22.0369 43.395 23.7093 44.6668 25.7921 44.6668C28.2756 44.6668 30.058 42.8743 30.058 40.4309C30.058 37.9375 28.2155 36.125 25.6519 36.105C23.9896 36.095 22.7379 36.6457 22.0269 37.9075H19.0929L20.4347 26.4917H32.0508V29.1654H23.0183L22.3173 34.8933H22.5176C23.3788 34.0922 24.8108 33.5314 26.3729 33.5314C30.2383 33.5314 33.0922 36.3854 33.0822 40.3608C33.0922 44.3864 30.048 47.2804 25.7921 47.2804Z" fill="white"/>
<defs>
<filter id="filter0_d_303_10043" x="0" y="0" width="51" height="70" filterUnits="userSpaceOnUse" color-interpolation-filters="sRGB">
<feFlood flood-opacity="0" result="BackgroundImageFix"/>
<feColorMatrix in="SourceAlpha" type="matrix" values="0 0 0 0 0 0 0 0 0 0 0 0 0 0 0 0 0 0 127 0" result="hardAlpha"/>
<feOffset dy="2"/>
<feGaussianBlur stdDeviation="2"/>
<feComposite in2="hardAlpha" operator="out"/>
<feColorMatrix type="matrix" values="0 0 0 0 0 0 0 0 0 0 0 0 0 0 0 0 0 0 0.15 0"/>
<feBlend mode="normal" in2="BackgroundImageFix" result="effect1_dropShadow_303_10043"/>
<feBlend mode="normal" in="SourceGraphic" in2="effect1_dropShadow_303_10043" result="shape"/>
</filter>
</defs>
</svg>
