<svg width="100" height="25" viewBox="0 0 100 25" fill="none" xmlns="http://www.w3.org/2000/svg">
<rect x="0.5" y="0.5" width="98.3897" height="23.6195" rx="11.8097" fill="#A7D2FF" stroke="#95C9FF"/>
<path d="M22.4842 7.76174V8.75829H18.489V14.3021C20.4058 14.2932 21.7031 14.2258 23.2024 13.943L23.3371 14.9306C21.7031 15.2403 20.3205 15.3077 18.1658 15.3077H17.2725V7.76174H22.4842ZM21.8468 11.7659V10.7693H25.007V6.70235H26.21V18.0998H25.007V11.7659H21.8468ZM30.5055 6.88191V7.87396H35.7755V6.88191H36.974V10.6481H29.3069V6.88191H30.5055ZM27.9513 12.4572V11.4741H38.3207V12.4572H33.724V13.4358H37.0055V16.0798H30.3888V17.0359H37.3332V17.9696H29.2082V15.2179H35.8204V14.3381H29.1857V13.4358H32.5165V12.4572H27.9513ZM30.5055 9.73239H35.7755V8.76278H30.5055V9.73239ZM42.2705 7.55525C43.8102 7.55974 44.9414 8.86602 45.121 10.9669H47.4777V6.70235H48.6718V18.0998H47.4777V11.9499H45.13C45.0043 14.1675 43.8551 15.5456 42.2705 15.5456C40.5692 15.5456 39.3751 13.9969 39.3841 11.5459C39.3751 9.10843 40.5692 7.55974 42.2705 7.55525ZM40.5333 11.5459C40.5333 13.3505 41.2381 14.4637 42.2705 14.4637C43.294 14.4637 44.0033 13.3505 44.0033 11.5459C44.0033 9.75483 43.294 8.64157 42.2705 8.6326C41.2381 8.64157 40.5333 9.75483 40.5333 11.5459ZM56.4237 7.67196V13.0183H51.01V7.67196H56.4237ZM52.1951 12.0487H55.2341V8.64157H52.1951V12.0487ZM52.4151 17.7362V14.0822H53.6271V16.7531H60.1899V17.7362H52.4151ZM58.6502 14.8633V6.71133H59.8577V14.8633H58.6502ZM72.0268 13.1126V14.0956H67.4077V18.0729H66.2226V14.0956H61.6573V13.1126H72.0268ZM62.2364 11.299C64.3597 11.0117 66.1193 9.74137 66.1597 8.34081H62.6179V7.38018H71.0527V8.34081H67.5244C67.5513 9.74137 69.3065 11.0117 71.4522 11.299L71.0078 12.2507C69.1449 11.9589 67.5333 11.0387 66.8376 9.74137C66.1418 11.0387 64.5302 11.9589 62.6898 12.2507L62.2364 11.299ZM81.8436 6.70235V9.57976H83.4776V10.5763H81.8436V13.4223H80.6226V6.70235H81.8436ZM73.373 12.5963V7.53729H78.4455V8.52037H74.5626V11.6177C76.807 11.6088 78.0684 11.5369 79.5049 11.2407L79.6216 12.2238C78.0954 12.538 76.7352 12.5963 74.2753 12.5963H73.373ZM74.3381 15.8419C74.3381 14.4548 75.8105 13.6378 78.1537 13.6333C80.479 13.6378 81.9334 14.4548 81.9334 15.8419C81.9334 17.2469 80.479 18.0594 78.1537 18.0594C75.8105 18.0594 74.3381 17.2469 74.3381 15.8419ZM75.5232 15.8419C75.5232 16.6319 76.5108 17.0943 78.1537 17.0943C79.7697 17.0943 80.7663 16.6319 80.7663 15.8419C80.7663 15.0563 79.7697 14.6029 78.1537 14.6119C76.5108 14.6029 75.5232 15.0563 75.5232 15.8419Z" fill="black"/>
</svg>
