<svg width="100" height="25" viewBox="0 0 100 25" fill="none" xmlns="http://www.w3.org/2000/svg">
<path d="M12.3096 0.5H87.0801C93.6023 0.500049 98.8896 5.78734 98.8896 12.3096C98.8896 18.8319 93.6024 24.1191 87.0801 24.1191H12.3096C5.78731 24.119 0.5 18.8318 0.5 12.3096C0.50009 5.78737 5.78737 0.500088 12.3096 0.5Z" fill="#FF858A" stroke="#FFAEB2"/>
<path d="M35.4545 7.23653V8.08494C35.4545 8.92887 35.4545 9.9299 35.1896 11.2497H36.7742V12.2282H32.1461V14.1675H35.5038V18.0773H34.2918V15.1371H27.4282V14.1675H30.9476V12.2282H26.3643V11.2497H33.9776C34.2425 9.97479 34.2559 9.02762 34.2559 8.21063H27.6661V7.23653H35.4545ZM43.6014 7.67196V13.0183H38.1877V7.67196H43.6014ZM39.3728 12.0487H42.4119V8.64157H39.3728V12.0487ZM39.5928 17.7362V14.0822H40.8048V16.7531H47.3677V17.7362H39.5928ZM45.8279 14.8633V6.71133H47.0355V14.8633H45.8279ZM52.5384 7.51036C54.3385 7.51036 55.6268 8.62362 55.6358 10.2217C55.6268 11.8242 54.3385 12.933 52.5384 12.933C50.7473 12.933 49.4321 11.8242 49.4411 10.2217C49.4321 8.62362 50.7473 7.51036 52.5384 7.51036ZM48.8934 14.6478C50.9673 14.6523 53.8357 14.6298 56.3226 14.2707L56.4169 15.1506C53.8402 15.6398 51.075 15.6533 49.0415 15.6533L48.8934 14.6478ZM50.6306 10.2217C50.6216 11.2272 51.4341 11.8871 52.5384 11.8871C53.6427 11.8871 54.4552 11.2272 54.4597 10.2217C54.4552 9.22065 53.6427 8.55628 52.5384 8.55628C51.4341 8.55628 50.6216 9.22065 50.6306 10.2217ZM57.0364 18.0998V6.70235H58.2394V18.0998H57.0364ZM72.68 6.70235V13.5929H71.4725V6.70235H72.68ZM63.3924 8.83011V7.85601H66.2653V6.61706H67.4863V7.85601H70.3457V8.83011H63.3924ZM64.0657 11.3529C64.0567 10.1139 65.1835 9.31941 66.8803 9.31941C68.5726 9.31941 69.6904 10.1139 69.6904 11.3529C69.6904 12.5963 68.5726 13.3864 66.8803 13.3909C65.1835 13.3864 64.0567 12.5963 64.0657 11.3529ZM65.2014 17.9337V14.154H72.68V17.9337H65.2014ZM65.2194 11.3529C65.2104 12.0532 65.8613 12.4751 66.8803 12.4796C67.8858 12.4751 68.5367 12.0532 68.5457 11.3529C68.5367 10.6571 67.8858 10.2262 66.8803 10.2262C65.8613 10.2262 65.2104 10.6571 65.2194 11.3529ZM66.391 16.9551H71.4949V15.1146H66.391V16.9551Z" fill="black"/>
</svg>
