<svg width="20" height="20" viewBox="0 0 20 20" fill="none" xmlns="http://www.w3.org/2000/svg">
<path d="M10.0059 10.0104C12.7304 10.0104 14.9514 7.72134 14.9514 4.93515C14.9514 2.17062 12.7534 0 10.0059 0C7.29253 0 5.06032 2.21393 5.06032 4.95681C5.07156 7.73193 7.29253 10.0104 10.0059 10.0104ZM10.0059 8.37976C8.33439 8.37976 6.90324 6.86848 6.90324 4.95634C6.90324 3.07785 8.31143 1.63061 10.0059 1.63061C11.7228 1.63061 13.108 3.05619 13.108 4.93515C13.108 6.84636 11.6998 8.37976 10.0059 8.37976ZM2.81639 20H17.1953C19.0954 20 20 19.4595 20 18.2722C20 15.4422 16.2219 11.3498 10.0059 11.3498C3.78938 11.3498 0 15.4427 0 18.2717C0 19.4595 0.904606 20 2.81639 20ZM2.26689 18.3685C1.96894 18.3685 1.8434 18.2929 1.8434 18.0662C1.8434 16.2951 4.75114 12.9795 10.0054 12.9795C15.2606 12.9795 18.1566 16.2951 18.1566 18.0662C18.1566 18.2929 18.0423 18.3685 17.7448 18.3685H2.26689Z" fill="#7471F9"/>
</svg>
