<svg width="119" height="23" viewBox="0 0 119 23" fill="none" xmlns="http://www.w3.org/2000/svg">
<path d="M10.0059 11.0104C12.7304 11.0104 14.9514 8.72134 14.9514 5.93515C14.9514 3.17062 12.7534 1 10.0059 1C7.29253 1 5.06032 3.21393 5.06032 5.95681C5.07156 8.73193 7.29253 11.0104 10.0059 11.0104ZM10.0059 9.37976C8.33439 9.37976 6.90324 7.86848 6.90324 5.95634C6.90324 4.07785 8.31143 2.63061 10.0059 2.63061C11.7228 2.63061 13.108 4.05619 13.108 5.93515C13.108 7.84636 11.6998 9.37976 10.0059 9.37976ZM2.81639 21H17.1953C19.0954 21 20 20.4595 20 19.2722C20 16.4422 16.2219 12.3498 10.0059 12.3498C3.78938 12.3498 0 16.4427 0 19.2717C0 20.4595 0.904606 21 2.81639 21ZM2.26689 19.3685C1.96894 19.3685 1.8434 19.2929 1.8434 19.0662C1.8434 17.2951 4.75114 13.9795 10.0054 13.9795C15.2606 13.9795 18.1566 17.2951 18.1566 19.0662C18.1566 19.2929 18.0423 19.3685 17.7448 19.3685H2.26689Z" fill="#7471F9"/>
<path d="M33.5214 5.44924C33.5083 7.76519 35.0173 9.84496 37.5366 10.6651L36.5787 12.0428C34.7483 11.3802 33.4033 10.1008 32.6816 8.43439C31.9599 10.337 30.51 11.8198 28.4959 12.548L27.5511 11.1309C30.2082 10.2255 31.75 8.0145 31.7631 5.52141V3.87465H33.5214V5.44924ZM30.2869 16.4057C30.2738 14.3916 32.4126 13.2238 35.903 13.2238C39.3867 13.2238 41.519 14.3916 41.5256 16.4057C41.519 18.4133 39.3867 19.5483 35.903 19.5483C32.4126 19.5483 30.2738 18.4133 30.2869 16.4057ZM32.0321 16.4057C32.019 17.5145 33.4689 18.1575 35.903 18.1575C38.3305 18.1575 39.7738 17.5145 39.7804 16.4057C39.7738 15.2576 38.3305 14.6081 35.903 14.6081C33.4689 14.6081 32.019 15.2576 32.0321 16.4057ZM36.2113 7.78488V6.33494H39.7148V2.94959H41.4731V12.7645H39.7148V7.78488H36.2113ZM59.193 11.0259V12.4299H52.4682V14.221H57.3297V19.5746H55.5583V15.6447H45.7172V14.221H50.7362V12.4299H44.0376V11.0259H59.193ZM46.019 9.63501V3.34323H47.7707V5.13432H55.473V3.34323H57.2248V9.63501H46.019ZM47.7707 8.21789H55.473V6.4596H47.7707V8.21789ZM73.685 3.99931V5.46236C73.6785 7.03039 73.6785 8.74275 73.2258 11.1177H75.6139V12.5546H68.8694V19.6008H67.1046V12.5546H60.4585V11.1177H71.4347C71.9333 8.74931 71.9333 7.0107 71.9333 5.46236V5.42956H62.3021V3.99931H73.685ZM88.0526 11.472V13.1778H82.0823V11.472H88.0526ZM107.55 2.94959V6.78764H109.958V8.24413H107.55V11.951H105.766V2.94959H107.55ZM94.4878 10.7307C98.5161 9.79903 100.766 7.81112 101.042 5.34427H95.2554V3.92714H102.984C102.984 8.1654 100.097 10.98 95.1373 12.1609L94.4878 10.7307ZM96.8628 19.3646V12.6792H98.6277V14.6146H105.785V12.6792H107.55V19.3646H96.8628ZM98.6277 17.9278H105.785V16.0055H98.6277V17.9278Z" fill="black"/>
</svg>
