<svg width="110" height="23" viewBox="0 0 110 23" fill="none" xmlns="http://www.w3.org/2000/svg">
<path d="M10.0059 11.0104C12.7304 11.0104 14.9514 8.72134 14.9514 5.93515C14.9514 3.17062 12.7534 1 10.0059 1C7.29253 1 5.06032 3.21393 5.06032 5.95681C5.07156 8.73193 7.29253 11.0104 10.0059 11.0104ZM10.0059 9.37976C8.33439 9.37976 6.90324 7.86848 6.90324 5.95634C6.90324 4.07785 8.31143 2.63061 10.0059 2.63061C11.7228 2.63061 13.108 4.05619 13.108 5.93515C13.108 7.84636 11.6998 9.37976 10.0059 9.37976ZM2.81639 21H17.1953C19.0954 21 20 20.4595 20 19.2722C20 16.4422 16.2219 12.3498 10.0059 12.3498C3.78938 12.3498 0 16.4427 0 19.2717C0 20.4595 0.904606 21 2.81639 21ZM2.26689 19.3685C1.96894 19.3685 1.8434 19.2929 1.8434 19.0662C1.8434 17.2951 4.75114 13.9795 10.0054 13.9795C15.2606 13.9795 18.1566 17.2951 18.1566 19.0662C18.1566 19.2929 18.0423 19.3685 17.7448 19.3685H2.26689Z" fill="#7471F9"/>
<path d="M33.2988 5.44924C33.2856 7.76519 34.7946 9.84496 37.3139 10.6651L36.3561 12.0428C34.5256 11.3802 33.1807 10.1008 32.459 8.43439C31.7373 10.337 30.2874 11.8198 28.2732 12.548L27.3284 11.1309C29.9856 10.2255 31.5273 8.0145 31.5405 5.52141V3.87465H33.2988V5.44924ZM30.0643 16.4057C30.0512 14.3916 32.19 13.2238 35.6803 13.2238C39.1641 13.2238 41.2963 14.3916 41.3029 16.4057C41.2963 18.4133 39.1641 19.5483 35.6803 19.5483C32.19 19.5483 30.0512 18.4133 30.0643 16.4057ZM31.8095 16.4057C31.7963 17.5145 33.2463 18.1575 35.6803 18.1575C38.1078 18.1575 39.5512 17.5145 39.5577 16.4057C39.5512 15.2576 38.1078 14.6081 35.6803 14.6081C33.2463 14.6081 31.7963 15.2576 31.8095 16.4057ZM35.9887 7.78488V6.33494H39.4921V2.94959H41.2504V12.7645H39.4921V7.78488H35.9887ZM58.9703 11.0259V12.4299H52.2455V14.221H57.1071V19.5746H55.3357V15.6447H45.4945V14.221H50.5135V12.4299H43.815V11.0259H58.9703ZM45.7963 9.63501V3.34323H47.548V5.13432H55.2504V3.34323H57.0021V9.63501H45.7963ZM47.548 8.21789H55.2504V6.4596H47.548V8.21789ZM73.4624 3.99931V5.46236C73.4558 7.03039 73.4558 8.74275 73.0031 11.1177H75.3912V12.5546H68.6468V19.6008H66.8819V12.5546H60.2359V11.1177H71.212C71.7106 8.74931 71.7106 7.0107 71.7106 5.46236V5.42956H62.0794V3.99931H73.4624ZM82.4827 6.49896C82.4827 8.45407 84.0835 10.278 86.6226 10.9865L85.7828 12.3577C83.8539 11.8132 82.404 10.6191 81.6429 9.09047C80.9213 10.8028 79.4713 12.1609 77.49 12.7907L76.6502 11.4261C79.1761 10.6191 80.731 8.63778 80.731 6.49896V6.28246H77.116V4.87845H80.731V2.87742H82.509V4.87845H86.0911V6.28246H82.4827V6.49896ZM79.327 16.4648C79.3139 14.5097 81.4527 13.4009 84.943 13.4009C88.4202 13.4009 90.559 14.5097 90.5656 16.4648C90.559 18.4199 88.4202 19.5483 84.943 19.5483C81.4527 19.5483 79.3139 18.4199 79.327 16.4648ZM81.0722 16.4648C81.059 17.5407 82.509 18.1771 84.943 18.1771C87.3902 18.1771 88.8139 17.5407 88.8204 16.4648C88.8139 15.3823 87.3902 14.7721 84.943 14.7655C82.509 14.7721 81.059 15.3823 81.0722 16.4648ZM85.5794 9.04454V7.60773H88.7548V2.94959H90.5131V13.0204H88.7548V9.04454H85.5794ZM98.8774 6.02003C98.8774 8.12604 100.347 10.0549 102.873 10.8619L102.033 12.2396C100.137 11.6295 98.7593 10.3764 98.031 8.79523C97.3093 10.6126 95.8463 12.0559 93.8453 12.7514L92.9464 11.3474C95.5379 10.4879 97.106 8.33598 97.1191 6.03315V5.57389H93.4582V4.14365H102.466V5.57389H98.8774V6.02003ZM95.1902 16.4254C95.1902 14.4703 97.3093 13.3353 100.767 13.3353C104.198 13.3353 106.291 14.4703 106.291 16.4254C106.291 18.4002 104.198 19.5483 100.767 19.5483C97.3093 19.5483 95.1902 18.4002 95.1902 16.4254ZM96.9551 16.4254C96.9419 17.5342 98.3656 18.1575 100.767 18.1575C103.162 18.1575 104.566 17.5342 104.566 16.4254C104.566 15.3363 103.162 14.7262 100.767 14.7327C98.3656 14.7262 96.9419 15.3363 96.9551 16.4254ZM104.375 12.9285V2.94959H106.14V7.06319H108.548V8.51968H106.14V12.9285H104.375Z" fill="black"/>
</svg>
