<svg width="126" height="23" viewBox="0 0 126 23" fill="none" xmlns="http://www.w3.org/2000/svg">
<path d="M10.0059 11.0104C12.7304 11.0104 14.9514 8.72134 14.9514 5.93515C14.9514 3.17062 12.7534 1 10.0059 1C7.29253 1 5.06032 3.21393 5.06032 5.95681C5.07156 8.73193 7.29253 11.0104 10.0059 11.0104ZM10.0059 9.37976C8.33439 9.37976 6.90324 7.86848 6.90324 5.95634C6.90324 4.07785 8.31143 2.63061 10.0059 2.63061C11.7228 2.63061 13.108 4.05619 13.108 5.93515C13.108 7.84636 11.6998 9.37976 10.0059 9.37976ZM2.81639 21H17.1953C19.0954 21 20 20.4595 20 19.2722C20 16.4422 16.2219 12.3498 10.0059 12.3498C3.78938 12.3498 0 16.4427 0 19.2717C0 20.4595 0.904606 21 2.81639 21ZM2.26689 19.3685C1.96894 19.3685 1.8434 19.2929 1.8434 19.0662C1.8434 17.2951 4.75114 13.9795 10.0054 13.9795C15.2606 13.9795 18.1566 17.2951 18.1566 19.0662C18.1566 19.2929 18.0423 19.3685 17.7448 19.3685H2.26689Z" fill="#7471F9"/>
<path d="M33.6133 7.18128C33.6067 10.2255 35.3125 13.2566 37.8515 14.3981L36.7887 15.8153C34.8926 14.864 33.4624 12.9876 32.7341 10.711C31.9993 13.1057 30.5494 15.1264 28.6402 16.1171L27.5249 14.6999C30.0967 13.4665 31.8156 10.2583 31.8287 7.18128V4.33391H33.6133V7.18128ZM36.0276 9.90401V8.47376H39.7345V2.94959H41.4796V19.6074H39.7345V9.90401H36.0276ZM51.6022 3.13329C55.3484 3.13329 57.5331 4.15677 57.5331 6.00034C57.5331 7.85704 55.3484 8.8674 51.6022 8.88052C47.856 8.8674 45.6581 7.85704 45.6581 6.00034C45.6581 4.15677 47.856 3.13329 51.6022 3.13329ZM44.0376 11.2555V9.85808H59.193V11.2555H52.4748V12.6727H57.2707V16.5632H47.6001V18.0525H57.7496V19.4171H45.8746V15.297H55.5386V13.9914H45.8418V12.6727H50.7099V11.2555H44.0376ZM47.5017 6.00034C47.4886 7.02383 48.9582 7.54869 51.6022 7.55525C54.2659 7.54869 55.7289 7.02383 55.7289 6.00034C55.7289 5.02279 54.2659 4.46512 51.6022 4.45856C48.9582 4.46512 47.4886 5.02279 47.5017 6.00034ZM75.6139 11.6951V13.0925H60.4257V11.6951H75.6139ZM62.1381 15.9465V14.5359H73.6785V19.5746H71.8939V15.9465H62.1381ZM62.4071 10.278V3.37604H73.7638V4.76036H64.1785V6.11844H73.3373V7.4634H64.1785V8.91989H73.8753V10.278H62.4071ZM90.7226 2.94959V11.5967H88.9775V9.62189H85.3428V10.9865H77.6667V3.70407H79.4315V5.94786H83.5976V3.70407H85.3428V5.23929H88.9775V2.94959H90.7226ZM79.4315 9.58253H83.5976V7.3125H79.4315V9.58253ZM79.8514 13.7224V12.3381H90.7226V16.432H81.636V17.9541H91.3131V19.3646H79.8842V15.1067H88.9775V13.7224H79.8514ZM85.3428 8.25725H88.9775V6.59081H85.3428V8.25725ZM99.4018 7.18128C99.3887 10.2189 101.219 13.2762 103.798 14.4113L102.735 15.8153C100.826 14.9033 99.3165 13.0335 98.5358 10.7569C97.7682 13.191 96.2395 15.2051 94.2516 16.1695L93.1625 14.6999C95.7803 13.5321 97.6173 10.3567 97.6304 7.18128V4.33391H99.4018V7.18128ZM105.3 19.6074V2.94959H107.071V19.6074H105.3ZM115.521 6.02003C115.521 8.12604 116.991 10.0549 119.516 10.8619L118.677 12.2396C116.781 11.6295 115.403 10.3764 114.675 8.79523C113.953 10.6126 112.49 12.0559 110.489 12.7514L109.59 11.3474C112.181 10.4879 113.75 8.33598 113.763 6.03315V5.57389H110.102V4.14365H119.11V5.57389H115.521V6.02003ZM111.834 16.4254C111.834 14.4703 113.953 13.3353 117.41 13.3353C120.842 13.3353 122.935 14.4703 122.935 16.4254C122.935 18.4002 120.842 19.5483 117.41 19.5483C113.953 19.5483 111.834 18.4002 111.834 16.4254ZM113.599 16.4254C113.586 17.5342 115.009 18.1575 117.41 18.1575C119.805 18.1575 121.209 17.5342 121.209 16.4254C121.209 15.3363 119.805 14.7262 117.41 14.7327C115.009 14.7262 113.586 15.3363 113.599 16.4254ZM121.019 12.9285V2.94959H122.784V7.06319H125.192V8.51968H122.784V12.9285H121.019Z" fill="black"/>
</svg>
