<svg width="15" height="15" viewBox="0 0 15 15" fill="none" xmlns="http://www.w3.org/2000/svg">
<circle cx="7.5" cy="7.5" r="7.05" stroke="#9E9E9E" stroke-width="0.9" stroke-dasharray="2 2"/>
<path d="M6.70898 9.48828C6.71289 8.98438 6.76367 8.57617 6.86133 8.26367C6.96289 7.95117 7.10352 7.69922 7.2832 7.50781C7.46289 7.31641 7.70508 7.12891 8.00977 6.94531C8.26758 6.78906 8.47461 6.5918 8.63086 6.35352C8.78711 6.11133 8.86523 5.83594 8.86523 5.52734C8.86523 5.26953 8.80273 5.04297 8.67773 4.84766C8.55664 4.64844 8.38867 4.49609 8.17383 4.39062C7.96289 4.28125 7.72852 4.22656 7.4707 4.22656C7.23633 4.22656 7.01562 4.27539 6.80859 4.37305C6.60547 4.4668 6.43555 4.61719 6.29883 4.82422C6.16602 5.02734 6.08789 5.28125 6.06445 5.58594H4.99805C5.01758 5.125 5.13867 4.72461 5.36133 4.38477C5.58398 4.04492 5.87891 3.78516 6.24609 3.60547C6.61328 3.42578 7.02148 3.33594 7.4707 3.33594C7.95117 3.33594 8.375 3.43359 8.74219 3.62891C9.10938 3.82031 9.39258 4.08594 9.5918 4.42578C9.79492 4.76562 9.89648 5.14844 9.89648 5.57422C9.89648 6.4375 9.50977 7.10547 8.73633 7.57812C8.48633 7.73047 8.28906 7.88867 8.14453 8.05273C8.00391 8.2168 7.89844 8.41211 7.82812 8.63867C7.76172 8.86523 7.72461 9.14844 7.7168 9.48828V9.54688H6.70898V9.48828ZM7.24805 12.0078C7.11133 12.0078 6.98438 11.9746 6.86719 11.9082C6.75391 11.8379 6.66211 11.7441 6.5918 11.627C6.52539 11.5098 6.49414 11.3828 6.49805 11.2461C6.49414 11.1133 6.52539 10.9902 6.5918 10.877C6.66211 10.7598 6.75391 10.668 6.86719 10.6016C6.98438 10.5312 7.11133 10.4961 7.24805 10.4961C7.38086 10.4961 7.50391 10.5312 7.61719 10.6016C7.73438 10.668 7.82617 10.7598 7.89258 10.877C7.96289 10.9902 7.99805 11.1133 7.99805 11.2461C7.99805 11.3828 7.96289 11.5098 7.89258 11.627C7.82617 11.7441 7.73438 11.8379 7.61719 11.9082C7.50391 11.9746 7.38086 12.0078 7.24805 12.0078Z" fill="#9E9E9E"/>
</svg>
